<svg width="64" height="64" viewBox="0 0 64 64" fill="none" xmlns="http://www.w3.org/2000/svg">
<path d="M28 2.3094C30.4752 0.880338 33.5248 0.880339 36 2.3094L55.7128 13.6906C58.188 15.1197 59.7128 17.7607 59.7128 20.6188V43.3812C59.7128 46.2393 58.188 48.8803 55.7128 50.3094L36 61.6906C33.5248 63.1197 30.4752 63.1197 28 61.6906L8.28719 50.3094C5.81198 48.8803 4.28719 46.2393 4.28719 43.3812V20.6188C4.28719 17.7607 5.81198 15.1197 8.28719 13.6906L28 2.3094Z" fill="#F5F8FA"/>
<path fill-rule="evenodd" clip-rule="evenodd" d="M30.35 42C25.6 41.1457 22 37.0251 22 32.0503C22 26.5226 26.5 22 32 22C37.5 22 42 26.5226 42 32.0503C42 37.0251 38.4 41.1457 33.65 42L33.3953 41.7906V34.8447H35.4419L35.8605 32.0621H33.3953V30.1242C33.3953 29.3292 33.6744 28.7329 34.7907 28.7329H36V26.1988C35.3488 26.0994 34.6047 26 33.9535 26C31.814 26 30.3256 27.3913 30.3256 29.8758V32.0621H28V34.8447H30.3256V41.8509C30.3816 41.8618 30.4377 41.8721 30.4937 41.8818L30.35 42Z" fill="#8B8E9A"/>
</svg>
