<svg width="64" height="64" viewBox="0 0 64 64" fill="none" xmlns="http://www.w3.org/2000/svg">
<path d="M28 2.3094C30.4752 0.880338 33.5248 0.880339 36 2.3094L55.7128 13.6906C58.188 15.1197 59.7128 17.7607 59.7128 20.6188V43.3812C59.7128 46.2393 58.188 48.8803 55.7128 50.3094L36 61.6906C33.5248 63.1197 30.4752 63.1197 28 61.6906L8.28719 50.3094C5.81198 48.8803 4.28719 46.2393 4.28719 43.3812V20.6188C4.28719 17.7607 5.81198 15.1197 8.28719 13.6906L28 2.3094Z" fill="#F5F8FA"/>
<g clip-path="url(#clip0_24_32744)">
<path d="M42.9566 35.8838C42.434 35.2565 41.8402 34.6944 41.2659 34.1507C41.0617 33.9573 40.8506 33.7574 40.6471 33.5586C40.0628 32.9874 40.0415 32.7727 40.5041 32.1238C40.8242 31.6765 41.1635 31.2286 41.4917 30.7955C41.7894 30.4025 42.0972 29.996 42.3923 29.5883L42.4529 29.5045C43.0168 28.7242 43.5999 27.9174 43.9103 26.9442C43.9909 26.6874 44.0755 26.3095 43.882 25.9935C43.6887 25.6778 43.3136 25.5815 43.0482 25.5365C42.9169 25.5143 42.7866 25.5112 42.6656 25.5112L38.9728 25.5086L38.9422 25.5083C38.3839 25.5083 38.0076 25.7715 37.792 26.3128C37.5861 26.8301 37.36 27.3809 37.102 27.9046C36.5885 28.9475 35.9363 30.1487 34.9927 31.1505L34.9528 31.1931C34.8413 31.3129 34.7151 31.4485 34.6228 31.4485C34.6087 31.4485 34.5933 31.4458 34.5758 31.4403C34.3803 31.3642 34.2491 30.891 34.2551 30.6709C34.2552 30.6678 34.2552 30.6648 34.2552 30.6617L34.2526 26.3935C34.2526 26.3787 34.2516 26.3641 34.2497 26.3494C34.1557 25.6556 33.9476 25.2237 33.1614 25.0697C33.1405 25.0655 33.1192 25.0635 33.0979 25.0635H29.258C28.6324 25.0635 28.2877 25.3177 27.9637 25.6983C27.8762 25.8001 27.6942 26.0118 27.7844 26.2688C27.876 26.5295 28.1732 26.5853 28.27 26.6034C28.7504 26.6948 29.0212 26.9886 29.0978 27.502C29.2318 28.3936 29.2482 29.3452 29.1496 30.4969C29.1222 30.8169 29.0678 31.0641 28.9782 31.2753C28.9574 31.3246 28.8836 31.4855 28.8084 31.4855C28.7845 31.4855 28.7153 31.4761 28.5893 31.3893C28.2914 31.1853 28.0735 30.8941 27.8194 30.5344C26.9551 29.3128 26.2297 27.9672 25.6014 26.4196C25.3684 25.8499 24.9333 25.5309 24.3756 25.5215C23.7628 25.5122 23.2073 25.5077 22.6774 25.5077C22.0984 25.5077 21.5617 25.5131 21.0376 25.524C20.5889 25.5319 20.2785 25.6664 20.1152 25.9241C19.9516 26.1819 19.9623 26.5206 20.1469 26.9306C21.6244 30.2153 22.964 32.6036 24.4907 34.6747C25.5604 36.124 26.6334 37.1271 27.867 37.8314C29.1667 38.5749 30.6232 38.9364 32.3196 38.9364C32.5119 38.9364 32.7108 38.9317 32.9113 38.9223C33.897 38.8743 34.2628 38.5175 34.309 37.5577C34.331 37.0672 34.3846 36.5528 34.6258 36.1141C34.778 35.8377 34.9199 35.8377 34.9665 35.8377C35.0563 35.8377 35.1677 35.879 35.2874 35.9565C35.5019 36.0966 35.6859 36.2842 35.8367 36.4481C35.9787 36.6038 36.1191 36.7611 36.2596 36.9184C36.5628 37.2581 36.8763 37.6092 37.2039 37.9422C37.9207 38.6716 38.7105 38.9924 39.6176 38.9227H43.0033C43.0105 38.9227 43.0178 38.9225 43.025 38.922C43.3624 38.8997 43.6546 38.7126 43.8267 38.4086C44.0398 38.032 44.0355 37.5515 43.8152 37.123C43.5651 36.6385 43.2408 36.2246 42.9566 35.8838Z" fill="#8B8E9A"/>
</g>
<defs>
<clipPath id="clip0_24_32744">
<rect width="24" height="24" fill="white" transform="translate(20 20)"/>
</clipPath>
</defs>
</svg>
