<svg width="25" height="24" viewBox="0 0 25 24" fill="none" xmlns="http://www.w3.org/2000/svg">
<g clip-path="url(#clip0_1_18758)">
<path d="M24.475 12C24.475 18.6136 19.1136 23.975 12.5 23.975C5.8864 23.975 0.525 18.6136 0.525 12C0.525 5.3864 5.8864 0.025 12.5 0.025C19.1136 0.025 24.475 5.3864 24.475 12Z" fill="#34AADF" stroke="#191A26" stroke-width="0.05"/>
<path d="M10.9042 14.0462C10.3493 14.5318 10.6268 14.9479 10.8695 15.156C11.5756 15.7535 13.2386 16.84 13.9936 17.3333C14.2028 17.47 14.3423 17.5612 14.3724 17.5837L10.9042 14.0462ZM10.9042 14.0462C12.1528 12.9017 13.6441 11.4797 14.5458 10.578C14.962 10.1618 15.3782 9.19071 13.6441 10.3699L10.9042 14.0462ZM5.50292 11.9192L5.50292 11.9192L5.50332 11.919L5.49383 11.8959L5.50339 11.919L5.50359 11.9189L5.50441 11.9186L5.50768 11.9172L5.5206 11.9119L5.57121 11.8912L5.7652 11.8115L6.47334 11.5207C7.06836 11.2763 7.88339 10.9414 8.76345 10.5794C10.5235 9.85545 12.5438 9.02306 13.5843 8.5895L13.5847 8.58934C13.9833 8.41605 14.8588 8.05199 15.6349 7.73114C16.0229 7.57074 16.3859 7.42118 16.652 7.31172L16.9693 7.18125L17.0565 7.14544L17.0793 7.13608L17.0851 7.1337L17.0866 7.13309L17.0867 7.13306L17.0867 7.13305L17.0868 7.133L17.087 7.13294L17.0871 7.1329L17.0874 7.13277L17.09 7.13182L17.1001 7.12813C17.1089 7.12494 17.1221 7.12039 17.1388 7.11499C17.1722 7.10419 17.2199 7.09002 17.2768 7.07666C17.391 7.04987 17.5409 7.02662 17.6867 7.0393C17.8326 7.05199 17.9715 7.10027 18.0682 7.21377C18.1647 7.3272 18.2229 7.51035 18.1972 7.80121L18.1972 7.80163C18.1722 8.15119 18.0209 9.13288 17.8342 10.3438C17.7622 10.8104 17.6851 11.3111 17.6078 11.8227C17.3997 13.1233 17.183 14.4845 17.0182 15.5206L16.8177 16.7827L16.761 17.1404L16.7459 17.2351L16.7421 17.2594L16.7411 17.2656L16.7409 17.2672L16.7408 17.2676L16.7408 17.2677L16.7655 17.2716L16.7407 17.2677L16.7406 17.2694L16.7406 17.2694L16.7406 17.2695L16.7405 17.2699L16.7404 17.2714L16.7397 17.2778C16.7391 17.2835 16.7381 17.2919 16.7366 17.3027C16.7336 17.3244 16.7287 17.3555 16.7209 17.3934C16.7054 17.4693 16.6788 17.5716 16.634 17.6781C16.5443 17.8917 16.3843 18.117 16.1008 18.1837C15.9586 18.2171 15.7917 18.2049 15.6169 18.1642C15.4424 18.1235 15.262 18.0548 15.0939 17.9772C14.7574 17.8219 14.473 17.6322 14.3881 17.5642L14.3874 17.5637C14.3566 17.5406 14.2164 17.449 14.0079 17.3128C13.9758 17.2918 13.9422 17.2699 13.9071 17.2469C13.6426 17.074 13.2937 16.8454 12.921 16.5962C12.1751 16.0975 11.3353 15.5174 10.8857 15.1369C10.7663 15.0345 10.6414 14.8834 10.6124 14.7012C10.5838 14.5212 10.6477 14.3038 10.9207 14.065L10.9207 14.065L10.9211 14.0646C12.1699 12.9199 13.6615 11.4977 14.5635 10.5957C14.6692 10.4899 14.7748 10.3493 14.8464 10.2159C14.8822 10.1492 14.91 10.0836 14.9249 10.0244C14.9396 9.96596 14.9426 9.91033 14.9244 9.86615C14.9052 9.81951 14.8645 9.79054 14.8043 9.78299C14.7457 9.77565 14.6675 9.78815 14.5669 9.82276C14.3654 9.89216 14.064 10.0541 13.63 10.3492L13.6299 10.3493C12.3988 11.1989 11.1764 12.0226 10.2617 12.6338C9.80439 12.9394 9.424 13.1919 9.15795 13.368C9.02493 13.4561 8.92049 13.525 8.84931 13.5719L8.76806 13.6255L8.74724 13.6392L8.74198 13.6426L8.74072 13.6435L8.74071 13.6435L8.74069 13.6435L8.74065 13.6435L8.74049 13.6436L8.73949 13.6442L8.73507 13.6468C8.73105 13.6491 8.72489 13.6525 8.71661 13.6568C8.70004 13.6653 8.675 13.6773 8.6416 13.6908C8.57481 13.7179 8.4746 13.7509 8.34205 13.7745C8.0771 13.8215 7.68221 13.8303 7.16575 13.6754C6.64581 13.5194 6.08247 13.3374 5.64903 13.1944C5.43233 13.1229 5.24813 13.0611 5.11812 13.0173L4.96644 12.9659L4.92617 12.9521L4.91581 12.9486L4.9152 12.9484L4.90934 12.9445C4.90392 12.9407 4.89603 12.9351 4.88641 12.9278C4.86717 12.913 4.84117 12.8913 4.8143 12.8637C4.76014 12.8079 4.70454 12.7301 4.6905 12.6378C4.6767 12.5471 4.7023 12.4376 4.81983 12.3153C4.93816 12.1923 5.14894 12.0573 5.50292 11.9192Z" fill="white" stroke="#191A26" stroke-width="0.05"/>
</g>
<defs>
<clipPath id="clip0_1_18758">
<rect width="24" height="24" fill="white" transform="translate(0.5)"/>
</clipPath>
</defs>
</svg>
