<svg width="30" height="34" viewBox="0 0 30 34" fill="none" xmlns="http://www.w3.org/2000/svg">
<path d="M3.50962 26.5207L4.00962 25.6547L3.50962 26.5207L12.5 31.7113C14.047 32.6045 15.953 32.6045 17.5 31.7113L26.4904 26.5207C28.0374 25.6276 28.9904 23.9769 28.9904 22.1906V11.8094C28.9904 10.0231 28.0374 8.37244 26.4904 7.47927L17.5 2.28868C15.953 1.39551 14.047 1.39551 12.5 2.28868L3.50962 7.47927C1.96261 8.37244 1.00962 10.0231 1.00962 11.8094V22.1906C1.00962 23.9769 1.96261 25.6276 3.50962 26.5207Z" fill="#8E35FF" stroke="white" stroke-width="2"/>
<path d="M22.2984 9.70152C21.9292 9.33238 21.4285 9.125 20.9064 9.125C20.3844 9.125 19.8836 9.33238 19.5144 9.70152L18.6467 10.5693L21.4307 13.3533L22.2984 12.4855C22.6676 12.1163 22.875 11.6156 22.875 11.0935C22.875 10.5714 22.6676 10.0707 22.2984 9.70152ZM20.6349 14.149L17.8509 11.365L8.73844 20.4775C8.27558 20.9401 7.93532 21.5108 7.74844 22.138L7.14844 24.1518C7.11947 24.2489 7.11731 24.3521 7.14219 24.4504C7.16706 24.5488 7.21805 24.6385 7.28975 24.7102C7.36145 24.7819 7.45121 24.8329 7.54951 24.8578C7.64781 24.8826 7.75101 24.8805 7.84819 24.8515L9.86194 24.2515C10.4891 24.0646 11.0598 23.7244 11.5224 23.2615L20.6349 14.149Z" fill="white"/>
</svg>
