<svg width="18" height="18" viewBox="0 0 18 18" fill="none" xmlns="http://www.w3.org/2000/svg">
<path d="M16.2984 1.70152C15.9292 1.33238 15.4285 1.125 14.9064 1.125C14.3844 1.125 13.8836 1.33238 13.5144 1.70152L12.6467 2.56927L15.4307 5.35327L16.2984 4.48552C16.6676 4.11631 16.875 3.61561 16.875 3.09352C16.875 2.57143 16.6676 2.07072 16.2984 1.70152ZM14.6349 6.14902L11.8509 3.36502L2.73844 12.4775C2.27558 12.9401 1.93532 13.5108 1.74844 14.138L1.14844 16.1518C1.11947 16.2489 1.11731 16.3521 1.14219 16.4504C1.16706 16.5488 1.21805 16.6385 1.28975 16.7102C1.36145 16.7819 1.45121 16.8329 1.54951 16.8578C1.64781 16.8826 1.75101 16.8805 1.84819 16.8515L3.86194 16.2515C4.48911 16.0646 5.05981 15.7244 5.52244 15.2615L14.6349 6.14902Z" fill="white"/>
</svg>
