<svg width="24" height="24" viewBox="0 0 24 24" fill="none" xmlns="http://www.w3.org/2000/svg">
<path fill-rule="evenodd" clip-rule="evenodd" d="M7.71995 12.5302C7.5795 12.3895 7.50061 12.1989 7.50061 12.0002C7.50061 11.8014 7.5795 11.6108 7.71995 11.4702L15.22 3.97015C15.2886 3.89647 15.3714 3.83736 15.4634 3.79637C15.5554 3.75538 15.6547 3.73334 15.7554 3.73156C15.8561 3.72979 15.9562 3.74831 16.0495 3.78603C16.1429 3.82375 16.2278 3.8799 16.299 3.95112C16.3702 4.02233 16.4264 4.10717 16.4641 4.20056C16.5018 4.29394 16.5203 4.39397 16.5185 4.49468C16.5168 4.59538 16.4947 4.69469 16.4537 4.78669C16.4127 4.87869 16.3536 4.96149 16.28 5.03015L9.30995 12.0002L16.28 18.9702C16.3536 19.0388 16.4127 19.1216 16.4537 19.2136C16.4947 19.3056 16.5168 19.4049 16.5185 19.5056C16.5203 19.6063 16.5018 19.7064 16.4641 19.7998C16.4264 19.8931 16.3702 19.978 16.299 20.0492C16.2278 20.1204 16.1429 20.1766 16.0495 20.2143C15.9562 20.252 15.8561 20.2705 15.7554 20.2687C15.6547 20.267 15.5554 20.2449 15.4634 20.2039C15.3714 20.1629 15.2886 20.1038 15.22 20.0302L7.71995 12.5302Z" fill="#191A26"/>
</svg>
