<svg width="25" height="24" viewBox="0 0 25 24" fill="none" xmlns="http://www.w3.org/2000/svg">
<path fill-rule="evenodd" clip-rule="evenodd" d="M13.4633 2.28584C13.403 2.20508 13.3271 2.13729 13.2401 2.08652C13.153 2.03575 13.0566 2.00304 12.9567 1.99035C12.8567 1.97766 12.7552 1.98524 12.6582 2.01264C12.5613 2.04004 12.4708 2.0867 12.3923 2.14984C10.4758 3.68841 9.2117 5.89447 8.85328 8.32584C8.19646 7.84953 7.62073 7.27043 7.14828 6.61084C7.08411 6.52114 7.00095 6.4467 6.90472 6.39281C6.80849 6.33893 6.70156 6.30693 6.59155 6.2991C6.48154 6.29127 6.37116 6.3078 6.26827 6.34751C6.16538 6.38722 6.07251 6.44913 5.99628 6.52883C4.6756 7.91039 3.82903 9.67652 3.57919 11.5714C3.32935 13.4662 3.68922 15.3914 4.60668 17.0681C5.52413 18.7447 6.95152 20.0858 8.68209 20.897C10.4127 21.7082 12.3565 21.9474 14.2321 21.58C16.1077 21.2126 17.8177 20.2576 19.1143 18.8534C20.4108 17.4492 21.2267 15.6687 21.4438 13.7698C21.6608 11.8709 21.2677 9.9522 20.3213 8.29166C19.375 6.63113 17.9246 5.31497 16.1803 4.53384C15.108 4.0124 14.1763 3.24154 13.4633 2.28584ZM16.2503 14.2498C16.2499 14.7923 16.1319 15.3282 15.9043 15.8205C15.6767 16.3129 15.345 16.7501 14.9321 17.1018C14.5192 17.4536 14.0349 17.7116 13.5126 17.858C12.9903 18.0045 12.4425 18.0358 11.9069 17.95C11.3713 17.8642 10.8607 17.6632 10.4103 17.3608C9.95992 17.0585 9.58049 16.6621 9.29818 16.1989C9.01588 15.7358 8.83741 15.2168 8.7751 14.678C8.7128 14.1392 8.76813 13.5932 8.93728 13.0778C9.56528 13.5428 10.2873 13.8878 11.0703 14.0778C11.2826 12.7088 11.9629 11.4557 12.9953 10.5318C13.8963 10.6518 14.723 11.095 15.3218 11.7789C15.9205 12.4628 16.2505 13.3409 16.2503 14.2498Z" fill="url(#paint0_radial_1_6677)"/>
<defs>
<radialGradient id="paint0_radial_1_6677" cx="0" cy="0" r="1" gradientUnits="userSpaceOnUse" gradientTransform="translate(12.502 -8.23645) rotate(90) scale(33.0723 20.616)">
<stop stop-color="#F36DFF"/>
<stop offset="0.605" stop-color="#8745FE"/>
<stop offset="1" stop-color="#17BAE5"/>
</radialGradient>
</defs>
</svg>
