<svg width="24" height="24" viewBox="0 0 24 24" fill="none" xmlns="http://www.w3.org/2000/svg">
<path d="M21 8.44278V16.5572C20.9994 16.8003 20.9323 17.0387 20.8057 17.2477C20.679 17.4566 20.4975 17.6284 20.28 17.745L12.6646 21.832C12.4611 21.9422 12.2325 22 12 22C11.7675 22 11.5389 21.9422 11.3354 21.832L3.72 17.745C3.50252 17.6284 3.32097 17.4566 3.19432 17.2477C3.06767 17.0387 3.00056 16.8003 3 16.5572V8.44278C3.00056 8.19973 3.06767 7.96128 3.19432 7.75234C3.32097 7.5434 3.50252 7.37163 3.72 7.25496L11.3354 3.16805C11.5389 3.05782 11.7675 3 12 3C12.2325 3 12.4611 3.05782 12.6646 3.16805L20.28 7.25496C20.4975 7.37163 20.679 7.5434 20.8057 7.75234C20.9323 7.96128 20.9994 8.19973 21 8.44278Z" fill="#191A26"/>
</svg>
