<svg width="24" height="24" viewBox="0 0 24 24" fill="none" xmlns="http://www.w3.org/2000/svg">
<path d="M5.566 4.65724C5.95195 4.55259 6.35011 4.4998 6.75 4.50024H17.25C17.66 4.50024 18.056 4.55524 18.433 4.65724C18.1837 4.15922 17.8006 3.74044 17.3268 3.44779C16.8529 3.15514 16.3069 3.00017 15.75 3.00024H8.25C7.69288 2.99998 7.1467 3.15486 6.67265 3.44753C6.1986 3.74019 5.8154 4.15907 5.566 4.65724ZM2.25 12.0002C2.25 11.2046 2.56607 10.4415 3.12868 9.87892C3.69129 9.31631 4.45435 9.00024 5.25 9.00024H18.75C19.5456 9.00024 20.3087 9.31631 20.8713 9.87892C21.4339 10.4415 21.75 11.2046 21.75 12.0002V18.0002C21.75 18.7959 21.4339 19.559 20.8713 20.1216C20.3087 20.6842 19.5456 21.0002 18.75 21.0002H5.25C4.45435 21.0002 3.69129 20.6842 3.12868 20.1216C2.56607 19.559 2.25 18.7959 2.25 18.0002V12.0002ZM5.25 7.50024C4.84 7.50024 4.444 7.55524 4.066 7.65724C4.3154 7.15907 4.6986 6.74019 5.17265 6.44752C5.6467 6.15486 6.19288 5.99998 6.75 6.00024H17.25C17.8069 6.00017 18.3529 6.15514 18.8268 6.44779C19.3006 6.74044 19.6837 7.15922 19.933 7.65724C19.5474 7.55268 19.1496 7.49989 18.75 7.50024H5.25Z" fill="#8E35FF"/>
</svg>
