<svg width="24" height="24" viewBox="0 0 24 24" fill="none" xmlns="http://www.w3.org/2000/svg">
<path d="M17.4565 20H9.54348C8.86891 20 8.22196 19.732 7.74497 19.255C7.26797 18.778 7 18.1311 7 17.4565V9.54348C7 8.86891 7.26797 8.22196 7.74497 7.74497C8.22196 7.26797 8.86891 7 9.54348 7H17.4565C18.1311 7 18.778 7.26797 19.255 7.74497C19.732 8.22196 20 8.86891 20 9.54348V17.4565C20 18.1311 19.732 18.778 19.255 19.255C18.778 19.732 18.1311 20 17.4565 20Z" fill="#191A26"/>
<path d="M8.57294 5.71485H17C16.8222 5.2137 16.4936 4.77985 16.0594 4.47283C15.6252 4.1658 15.1067 4.00064 14.5749 4H6.57228C5.89007 4 5.2358 4.27101 4.7534 4.7534C4.27101 5.2358 4 5.89007 4 6.57228V14.5749C4.00064 15.1067 4.1658 15.6252 4.47283 16.0594C4.77985 16.4936 5.2137 16.8222 5.71485 17V8.57294C5.71485 7.81492 6.01597 7.08796 6.55196 6.55196C7.08796 6.01597 7.81492 5.71485 8.57294 5.71485Z" fill="#191A26"/>
</svg>
