<svg width="24" height="24" viewBox="0 0 24 24" fill="none" xmlns="http://www.w3.org/2000/svg">
<path d="M14.1033 6.98008L14.1033 6.9801C14.7924 7.5648 15.2209 8.43099 15.2209 9.48838C15.2209 10.2235 15.0301 10.8095 14.7045 11.2979C14.4435 11.6894 14.1109 11.9862 13.8849 12.1878L13.8726 12.1988L13.8721 12.1992L13.801 12.2627C13.8009 12.2629 13.8007 12.263 13.8006 12.2631C13.5466 12.4917 13.4073 12.6362 13.3086 12.8106L14.1033 6.98008ZM14.1033 6.98008C13.4386 6.41612 12.5927 6.16279 11.7907 6.16279C10.9888 6.16279 10.1428 6.4161 9.47812 6.98008C8.789 7.56478 8.36047 8.43101 8.36047 9.48838C8.36047 10.1113 8.86545 10.6163 9.48837 10.6163C10.1113 10.6163 10.6163 10.1113 10.6163 9.48838C10.6163 9.08075 10.7632 8.84809 10.9376 8.70017C11.1366 8.53129 11.4419 8.4186 11.7907 8.4186C12.1394 8.4186 12.4448 8.5313 12.6438 8.70017L12.6438 8.70017C12.8182 8.8481 12.9651 9.08076 12.9651 9.48838C12.9651 9.79974 12.8944 9.94626 12.8275 10.0465L12.8274 10.0467C12.7372 10.182 12.6165 10.2944 12.3528 10.5314L12.3527 10.5315L12.2922 10.5858L12.292 10.586M14.1033 6.98008L12.292 10.586M12.292 10.586C12.022 10.829 11.6388 11.1812 11.3455 11.6994C11.0409 12.2374 10.8721 12.8785 10.8721 13.6743C10.8721 14.2972 11.3771 14.8022 12 14.8022C12.6229 14.8022 13.1279 14.2972 13.1279 13.6743C13.1279 13.2146 13.2206 12.9661 13.3086 12.8107L12.292 10.586ZM12.7633 16.1844L12.7633 16.1844C13.226 16.6013 13.2634 17.3145 12.8464 17.7773L12.7633 16.1844ZM12.7633 16.1844C12.3005 15.7676 11.5874 15.8046 11.1704 16.2675L11.162 16.2768C10.745 16.7397 10.7824 17.4528 11.245 17.8697L11.2451 17.8698C11.7079 18.2866 12.421 18.2496 12.838 17.7866C12.838 17.7866 12.838 17.7866 12.838 17.7866L12.8463 17.7774L12.7633 16.1844ZM7.94414 19.4718L7.78822 19.387L7.61374 19.4195L4.06993 20.0792L4.06982 20.0792C4.02853 20.0869 3.98594 20.0738 3.95606 20.0439L3.60286 20.3971L3.95605 20.0439C3.92627 20.0141 3.91305 19.9716 3.92077 19.9301C3.92077 19.93 3.92077 19.93 3.92077 19.93L4.58056 16.3862L4.61305 16.2117L4.52823 16.0558C3.87254 14.8504 3.5 13.4686 3.5 12C3.5 7.30558 7.30558 3.5 12 3.5C16.6944 3.5 20.5 7.30557 20.5 12C20.5 16.6944 16.6944 20.5 12 20.5C10.5314 20.5 9.1496 20.1274 7.94414 19.4718Z" fill="#8E35FF" stroke="#8E35FF"/>
</svg>
