<svg width="24" height="25" viewBox="0 0 24 25" fill="none" xmlns="http://www.w3.org/2000/svg">
<path d="M7.49301 19.1006C7.06801 19.1006 6.67301 18.8646 6.51801 18.4686C6.17475 17.5949 5.99902 16.6643 6.00001 15.7256C6.00001 13.9756 6.59901 12.3676 7.60201 11.0916C7.75301 10.8996 7.97501 10.7826 8.20201 10.6946C8.67501 10.5116 9.09201 10.1806 9.41401 9.77059C10.1903 8.78022 11.1647 7.96279 12.275 7.37059C12.998 6.98659 13.625 6.41459 13.928 5.65559C14.1408 5.12384 14.2501 4.55634 14.25 3.98359V3.35059C14.25 3.15167 14.329 2.96091 14.4697 2.82026C14.6103 2.6796 14.8011 2.60059 15 2.60059C15.5967 2.60059 16.169 2.83764 16.591 3.2596C17.013 3.68155 17.25 4.25385 17.25 4.85059C17.25 6.00259 16.99 7.09359 16.527 8.06859C16.261 8.62659 16.634 9.35059 17.252 9.35059H20.378C21.404 9.35059 22.323 10.0446 22.432 11.0656C22.477 11.4876 22.5 11.9156 22.5 12.3506C22.5041 15.0869 21.5691 17.7418 19.851 19.8716C19.463 20.3536 18.864 20.6006 18.246 20.6006H14.23C13.747 20.6006 13.266 20.5226 12.807 20.3706L9.69301 19.3306C9.23411 19.178 8.75362 19.1003 8.27001 19.1006H7.49301ZM2.33101 11.3276C1.77993 12.7283 1.498 14.2204 1.50001 15.7256C1.49875 16.9139 1.67399 18.0958 2.02001 19.2326C2.28001 20.0826 3.10501 20.6006 3.99401 20.6006H4.90001C5.34501 20.6006 5.62001 20.1026 5.42301 19.7026C4.81315 18.4657 4.49695 17.1047 4.49901 15.7256C4.49901 14.0176 4.97501 12.4206 5.80101 11.0596C6.04601 10.6566 5.77301 10.1006 5.30101 10.1006H4.25001C3.41801 10.1006 2.63701 10.5536 2.33101 11.3276Z" fill="white"/>
</svg>
