<svg width="24" height="24" viewBox="0 0 24 24" fill="none" xmlns="http://www.w3.org/2000/svg">
<path fill-rule="evenodd" clip-rule="evenodd" d="M13.7321 2.47086C12.6603 1.84305 11.3397 1.84305 10.268 2.47086L4.73205 5.71358C3.66025 6.3414 3 7.50165 3 8.75728V15.2427C3 16.4984 3.66025 17.6586 4.73205 18.2864L10.268 21.5291C11.3397 22.157 12.6603 22.157 13.7321 21.5291L19.268 18.2864C20.3397 17.6586 21 16.4984 21 15.2427V8.75728C21 8.35221 20.9313 7.95707 20.8022 7.58653L12.2418 16.7414C12.0874 16.9065 11.8733 17 11.6494 17C11.4254 17 11.2113 16.9065 11.0569 16.7414L7.31661 12.7414C7.00498 12.4081 7.01761 11.8806 7.34483 11.5632C7.67204 11.2458 8.18993 11.2587 8.50157 11.592L11.6494 14.9583L19.8733 6.16326C19.6903 5.99349 19.4878 5.84234 19.268 5.71358L13.7321 2.47086Z" fill="url(#paint0_radial_1_3980)"/>
<defs>
<radialGradient id="paint0_radial_1_3980" cx="0" cy="0" r="1" gradientUnits="userSpaceOnUse" gradientTransform="translate(12 -8.34314) rotate(90) scale(33.4681 20.6159)">
<stop stop-color="#F36DFF"/>
<stop offset="0.605" stop-color="#8745FE"/>
<stop offset="1" stop-color="#17BAE5"/>
</radialGradient>
</defs>
</svg>
