<svg width="24" height="24" viewBox="0 0 24 24" fill="none" xmlns="http://www.w3.org/2000/svg">
<path d="M3.53038 2.46985C3.3882 2.33737 3.20015 2.26524 3.00585 2.26867C2.81155 2.2721 2.62617 2.35081 2.48875 2.48822C2.35134 2.62564 2.27263 2.81102 2.2692 3.00532C2.26577 3.19963 2.3379 3.38767 2.47038 3.52985L20.4704 21.5298C20.539 21.6035 20.6218 21.6626 20.7138 21.7036C20.8058 21.7446 20.9052 21.7667 21.0059 21.7684C21.1066 21.7702 21.2066 21.7517 21.3 21.714C21.3934 21.6762 21.4782 21.6201 21.5494 21.5489C21.6206 21.4777 21.6768 21.3928 21.7145 21.2994C21.7522 21.2061 21.7707 21.106 21.769 21.0053C21.7672 20.9046 21.7451 20.8053 21.7042 20.7133C21.6632 20.6213 21.6041 20.5385 21.5304 20.4698L3.53038 2.46985ZM22.6764 12.5528C22.1373 14.1703 21.2377 15.6441 20.0454 16.8628L16.9464 13.7638C17.2807 12.8278 17.3424 11.816 17.1244 10.8462C16.9063 9.87644 16.4175 8.98849 15.7146 8.28563C15.0117 7.58277 14.1238 7.09389 13.154 6.87583C12.1842 6.65777 11.1725 6.7195 10.2364 7.05385L7.75938 4.57685C9.1064 4.02881 10.5471 3.74793 12.0014 3.74985C16.9714 3.74985 21.1864 6.97285 22.6764 11.4398C22.7964 11.8018 22.7964 12.1918 22.6764 12.5528Z" fill="#B9BDCC"/>
<path d="M15.7504 11.9998C15.7504 12.1798 15.7374 12.3568 15.7134 12.5298L11.4694 8.28685C12.0014 8.21075 12.5435 8.24988 13.059 8.40159C13.5745 8.5533 14.0515 8.81404 14.4574 9.16614C14.8634 9.51825 15.1889 9.9535 15.412 10.4424C15.6351 10.9313 15.7505 11.4625 15.7504 11.9998ZM12.5304 15.7128L8.28737 11.4688C8.20493 12.0453 8.25788 12.6331 8.44202 13.1855C8.62616 13.738 8.93644 14.24 9.34827 14.6517C9.76009 15.0634 10.2621 15.3736 10.8147 15.5576C11.3672 15.7416 11.9549 15.7944 12.5314 15.7118L12.5304 15.7128Z" fill="#B9BDCC"/>
<path d="M6.75037 11.9998C6.75037 11.3808 6.85737 10.7868 7.05437 10.2358L3.95438 7.13585C2.76248 8.35469 1.86316 9.82847 1.32437 11.4458C1.20437 11.8078 1.20437 12.1978 1.32437 12.5598C2.81337 17.0268 7.02837 20.2498 11.9994 20.2498C13.4994 20.2498 14.9324 19.9558 16.2414 19.4228L13.7644 16.9458C12.972 17.2285 12.1234 17.3166 11.2898 17.2028C10.4563 17.0889 9.66237 16.7764 8.97485 16.2916C8.28734 15.8068 7.7264 15.1639 7.33927 14.417C6.95215 13.6701 6.75018 12.8411 6.75037 11.9998Z" fill="#B9BDCC"/>
</svg>
