<svg width="24" height="25" viewBox="0 0 24 25" fill="none" xmlns="http://www.w3.org/2000/svg">
<g clip-path="url(#clip0_32_42020)">
<path d="M12.5777 2.85995C12.512 2.85651 12.4467 2.87038 12.3881 2.90016C12.3295 2.92994 12.2798 2.97459 12.2439 3.02964C11.2783 4.48932 11.2502 5.83089 11.2502 5.85057C11.2506 5.96219 11.276 6.07229 11.3244 6.17286C11.3728 6.27343 11.443 6.36193 11.5299 6.43191C11.6169 6.50188 11.7184 6.55157 11.827 6.57734C11.9356 6.60311 12.0485 6.60433 12.1577 6.58089C12.328 6.54009 12.4794 6.44263 12.587 6.30448C12.6947 6.16633 12.7522 5.9957 12.7502 5.82057C12.7538 5.71799 12.7784 5.61723 12.8225 5.52454C12.8666 5.43185 12.9292 5.3492 13.0066 5.2817C13.0839 5.21421 13.1743 5.1633 13.2721 5.13215C13.3699 5.10099 13.473 5.09025 13.5752 5.10057C13.7634 5.12243 13.9367 5.21352 14.0615 5.35614C14.1863 5.49875 14.2535 5.68268 14.2502 5.87214C14.2468 6.46887 14.0065 7.03984 13.5822 7.45942C13.1579 7.879 12.5842 8.11284 11.9875 8.10948C11.3908 8.10612 10.8198 7.86585 10.4002 7.44152C9.98064 7.01719 9.74681 6.44356 9.75017 5.84682C9.75017 5.78776 9.7586 4.8362 10.2602 3.59682C10.2856 3.5334 10.2932 3.46425 10.2821 3.39683C10.2711 3.3294 10.2419 3.26628 10.1976 3.21426C10.1533 3.16225 10.0956 3.12332 10.0308 3.10169C9.96599 3.08006 9.89651 3.07654 9.82985 3.09151C7.62004 3.59912 5.65573 4.85989 4.27393 6.65754C2.89212 8.45519 2.17894 10.6777 2.25673 12.9437C2.43767 18.1056 6.67798 22.2568 11.8427 22.3412C14.3904 22.3802 16.8522 21.4203 18.7011 19.667C20.55 17.9136 21.639 15.5062 21.7351 12.9599C21.8311 10.4137 20.9266 7.93102 19.2151 6.04335C17.5036 4.15567 15.1211 3.01301 12.5777 2.85995ZM7.50017 12.5921C7.50017 12.3696 7.56615 12.1521 7.68976 11.9671C7.81338 11.7821 7.98908 11.6379 8.19465 11.5528C8.40022 11.4676 8.62642 11.4453 8.84464 11.4888C9.06287 11.5322 9.26333 11.6393 9.42066 11.7966C9.578 11.954 9.68514 12.1544 9.72855 12.3727C9.77196 12.5909 9.74968 12.8171 9.66453 13.0227C9.57938 13.2282 9.43519 13.4039 9.25018 13.5275C9.06518 13.6512 8.84767 13.7171 8.62517 13.7171C8.3268 13.7171 8.04065 13.5986 7.82967 13.3876C7.61869 13.1767 7.50017 12.8905 7.50017 12.5921ZM15.0255 17.7268C14.1178 18.2926 13.0697 18.5926 12.0002 18.5926C10.9306 18.5926 9.88249 18.2926 8.97485 17.7268C8.80653 17.6207 8.68727 17.452 8.64331 17.2579C8.59936 17.0638 8.63431 16.8602 8.74048 16.6918C8.84665 16.5235 9.01534 16.4042 9.20944 16.3603C9.40354 16.3163 9.60715 16.3513 9.77548 16.4574C10.4435 16.872 11.214 17.0917 12.0002 17.0917C12.7863 17.0917 13.5569 16.872 14.2249 16.4574C14.3082 16.4049 14.4011 16.3692 14.4982 16.3526C14.5953 16.3359 14.6948 16.3385 14.7909 16.3603C14.887 16.382 14.9779 16.4225 15.0583 16.4794C15.1388 16.5363 15.2073 16.6085 15.2599 16.6918C15.3124 16.7752 15.3481 16.8681 15.3647 16.9652C15.3814 17.0623 15.3788 17.1618 15.357 17.2579C15.3353 17.354 15.2948 17.4449 15.2379 17.5253C15.181 17.6058 15.1088 17.6743 15.0255 17.7268ZM15.3752 13.7171C15.1527 13.7171 14.9352 13.6512 14.7502 13.5275C14.5651 13.4039 14.421 13.2282 14.3358 13.0227C14.2507 12.8171 14.2284 12.5909 14.2718 12.3727C14.3152 12.1544 14.4223 11.954 14.5797 11.7966C14.737 11.6393 14.9375 11.5322 15.1557 11.4888C15.3739 11.4453 15.6001 11.4676 15.8057 11.5528C16.0113 11.6379 16.187 11.7821 16.3106 11.9671C16.4342 12.1521 16.5002 12.3696 16.5002 12.5921C16.5002 12.8905 16.3816 13.1767 16.1707 13.3876C15.9597 13.5986 15.6735 13.7171 15.3752 13.7171Z" fill="#B9BDCC"/>
</g>
<defs>
<clipPath id="clip0_32_42020">
<rect width="24" height="24" fill="white" transform="translate(0 0.600586)"/>
</clipPath>
</defs>
</svg>
