<svg width="25" height="24" viewBox="0 0 25 24" fill="none" xmlns="http://www.w3.org/2000/svg">
<path fill-rule="evenodd" clip-rule="evenodd" d="M12.166 1.25C6.22896 1.25 1.41602 6.06294 1.41602 12C1.41602 17.9371 6.22896 22.75 12.166 22.75C18.1031 22.75 22.916 17.9371 22.916 12C22.916 6.06294 18.1031 1.25 12.166 1.25ZM15.666 14.25C14.9756 14.25 14.416 14.8096 14.416 15.5C14.416 16.1904 14.9756 16.75 15.666 16.75C16.3564 16.75 16.916 16.1904 16.916 15.5C16.916 14.8096 16.3564 14.25 15.666 14.25ZM7.41602 8.5C7.41602 7.80964 7.97566 7.25 8.66602 7.25C9.35638 7.25 9.91602 7.80964 9.91602 8.5C9.91602 9.19036 9.35638 9.75 8.66602 9.75C7.97566 9.75 7.41602 9.19036 7.41602 8.5ZM15.6357 7.46967C15.9286 7.17678 16.4034 7.17678 16.6963 7.46967C16.9892 7.76256 16.9892 8.23744 16.6963 8.53033L8.69635 16.5303C8.40346 16.8232 7.92858 16.8232 7.63569 16.5303C7.3428 16.2374 7.3428 15.7626 7.63569 15.4697L15.6357 7.46967Z" fill="#8E35FF"/>
</svg>
