<svg width="64" height="64" viewBox="0 0 64 64" fill="none" xmlns="http://www.w3.org/2000/svg">
<path d="M28.5 3.17543C30.6658 1.925 33.3342 1.925 35.5 3.17543L55.2128 14.5566C57.3786 15.8071 58.7128 18.1179 58.7128 20.6188V43.3812C58.7128 45.8821 57.3786 48.1929 55.2128 49.4434L35.5 60.8246C33.3342 62.075 30.6658 62.075 28.5 60.8246L8.78719 49.4434C6.62138 48.1929 5.28719 45.8821 5.28719 43.3812V20.6188C5.28719 18.1179 6.62138 15.8071 8.78719 14.5566L28.5 3.17543Z" fill="white" stroke="url(#paint0_radial_1_4324)" stroke-width="2"/>
<path d="M30 9.1547C31.2376 8.44017 32.7624 8.44017 34 9.1547L50.7846 18.8453C52.0222 19.5598 52.7846 20.8803 52.7846 22.3094V41.6906C52.7846 43.1197 52.0222 44.4402 50.7846 45.1547L34 54.8453C32.7624 55.5598 31.2376 55.5598 30 54.8453L13.2154 45.1547C11.9778 44.4402 11.2154 43.1197 11.2154 41.6906V22.3094C11.2154 20.8803 11.9778 19.5598 13.2154 18.8453L30 9.1547Z" fill="url(#paint1_radial_1_4324)"/>
<path fill-rule="evenodd" clip-rule="evenodd" d="M37.6629 25.0871C38.029 25.4532 38.029 26.0468 37.6629 26.4129L32.6629 31.4129C32.2968 31.779 31.7032 31.779 31.3371 31.4129C30.971 31.0468 30.971 30.4532 31.3371 30.0871L36.3371 25.0871C36.7032 24.721 37.2968 24.721 37.6629 25.0871ZM45.1629 25.0871C45.529 25.4532 45.529 26.0468 45.1629 26.4129L33.1933 38.3825C32.5342 39.0417 31.4658 39.0417 30.8067 38.3825L28.25 35.8258L25.6934 38.3824C25.6933 38.3825 25.6933 38.3825 25.6932 38.3825C25.0342 39.0417 23.9656 39.0417 23.3066 38.3824L18.2121 33.2879C17.846 32.9218 17.846 32.3282 18.2121 31.9621C18.5782 31.596 19.1718 31.596 19.5379 31.9621L24.5 36.9241L26.9242 34.5L25.0871 32.6629C24.721 32.2968 24.721 31.7032 25.0871 31.3371C25.4532 30.971 26.0468 30.971 26.4129 31.3371L28.9121 33.8362C28.9124 33.8365 28.9126 33.8368 28.9129 33.8371C28.9132 33.8374 28.9135 33.8376 28.9138 33.8379L32 36.9242L43.8371 25.0871C44.2032 24.721 44.7968 24.721 45.1629 25.0871ZM24.6324 37.0565L24.6326 37.0567L24.6327 37.0568C24.6326 37.0567 24.6325 37.0566 24.6324 37.0565Z" fill="white"/>
<defs>
<radialGradient id="paint0_radial_1_4324" cx="0" cy="0" r="1" gradientUnits="userSpaceOnUse" gradientTransform="translate(32 -33.098) rotate(90) scale(107.098 73.3011)">
<stop stop-color="#F36DFF"/>
<stop offset="0.605" stop-color="#8745FE"/>
<stop offset="1" stop-color="#17BAE5"/>
</radialGradient>
<radialGradient id="paint1_radial_1_4324" cx="0" cy="0" r="1" gradientUnits="userSpaceOnUse" gradientTransform="translate(32 -16.8235) rotate(90) scale(80.3235 54.9758)">
<stop stop-color="#F36DFF"/>
<stop offset="0.605" stop-color="#8745FE"/>
<stop offset="1" stop-color="#17BAE5"/>
</radialGradient>
</defs>
</svg>
