<svg width="24" height="25" viewBox="0 0 24 25" fill="none" xmlns="http://www.w3.org/2000/svg">
<path d="M19.7969 8C19.7969 8 21.2969 9.5 21.2969 12C21.2969 14.5 19.7969 16 19.7969 16" stroke="#B9BDCC" stroke-width="1.5" stroke-linecap="round" stroke-linejoin="round"/>
<path d="M2 14.3571V10.6429C2 9.53828 2.89543 8.64285 4 8.64285H6.9C7.09569 8.64285 7.28708 8.58543 7.45046 8.47771L13.4495 4.52227C14.1144 4.08389 15 4.56074 15 5.35713V19.6429C15 20.4392 14.1144 20.9161 13.4495 20.4777L7.45046 16.5223C7.28708 16.4146 7.09569 16.3571 6.9 16.3571H4C2.89543 16.3571 2 15.4617 2 14.3571Z" stroke="#B9BDCC" stroke-width="1.5"/>
</svg>
