<svg width="24" height="24" viewBox="0 0 24 24" fill="none" xmlns="http://www.w3.org/2000/svg">
<path fill-rule="evenodd" clip-rule="evenodd" d="M6.96985 2.46983C7.11047 2.32938 7.3011 2.25049 7.49985 2.25049C7.6986 2.25049 7.88922 2.32938 8.02985 2.46983L12.5298 6.96983C12.6623 7.112 12.7345 7.30005 12.731 7.49435C12.7276 7.68865 12.6489 7.87404 12.5115 8.01145C12.3741 8.14886 12.1887 8.22758 11.9944 8.231C11.8001 8.23443 11.612 8.16231 11.4698 8.02983L8.24985 4.80983V16.4998C8.24985 16.6987 8.17083 16.8895 8.03018 17.0302C7.88952 17.1708 7.69876 17.2498 7.49985 17.2498C7.30093 17.2498 7.11017 17.1708 6.96952 17.0302C6.82886 16.8895 6.74985 16.6987 6.74985 16.4998V4.80983L3.52985 8.02983C3.38767 8.16231 3.19963 8.23443 3.00532 8.231C2.81102 8.22758 2.62564 8.14886 2.48822 8.01145C2.35081 7.87404 2.2721 7.68865 2.26867 7.49435C2.26524 7.30005 2.33737 7.112 2.46985 6.96983L6.96985 2.46983ZM16.4998 6.74983C16.6988 6.74983 16.8895 6.82885 17.0302 6.9695C17.1708 7.11015 17.2498 7.30092 17.2498 7.49983V19.1898L20.4698 15.9698C20.5385 15.8961 20.6213 15.837 20.7133 15.796C20.8053 15.7551 20.9046 15.733 21.0053 15.7312C21.106 15.7295 21.2061 15.748 21.2994 15.7857C21.3928 15.8234 21.4777 15.8796 21.5489 15.9508C21.6201 16.022 21.6762 16.1068 21.714 16.2002C21.7517 16.2936 21.7702 16.3936 21.7684 16.4944C21.7667 16.5951 21.7446 16.6944 21.7036 16.7864C21.6626 16.8784 21.6035 16.9612 21.5298 17.0298L17.0298 21.5298C16.8892 21.6703 16.6986 21.7492 16.4998 21.7492C16.3011 21.7492 16.1105 21.6703 15.9698 21.5298L11.4698 17.0298C11.3962 16.9612 11.3371 16.8784 11.2961 16.7864C11.2551 16.6944 11.233 16.5951 11.2313 16.4944C11.2295 16.3936 11.248 16.2936 11.2857 16.2002C11.3234 16.1068 11.3796 16.022 11.4508 15.9508C11.522 15.8796 11.6069 15.8234 11.7002 15.7857C11.7936 15.748 11.8937 15.7295 11.9944 15.7312C12.0951 15.733 12.1944 15.7551 12.2864 15.796C12.3784 15.837 12.4612 15.8961 12.5298 15.9698L15.7498 19.1898V7.49983C15.7498 7.30092 15.8289 7.11015 15.9695 6.9695C16.1102 6.82885 16.3009 6.74983 16.4998 6.74983Z" fill="#B9BDCC"/>
</svg>
