<svg width="24" height="24" viewBox="0 0 24 24" fill="none" xmlns="http://www.w3.org/2000/svg">
<path d="M3.47779 2.4038C3.34782 2.36604 3.21006 2.36416 3.07911 2.39834C2.94817 2.43253 2.82891 2.50151 2.73398 2.59797C2.63906 2.69443 2.572 2.81479 2.53992 2.94627C2.50785 3.07775 2.51195 3.21546 2.55179 3.3448L4.98379 11.2498H13.4998C13.6987 11.2498 13.8895 11.3288 14.0301 11.4695C14.1708 11.6101 14.2498 11.8009 14.2498 11.9998C14.2498 12.1987 14.1708 12.3895 14.0301 12.5301C13.8895 12.6708 13.6987 12.7498 13.4998 12.7498H4.98379L2.55179 20.6548C2.51218 20.7841 2.50826 20.9217 2.54044 21.053C2.57263 21.1843 2.63971 21.3045 2.7346 21.4008C2.82949 21.4971 2.94865 21.566 3.07947 21.6002C3.2103 21.6343 3.34793 21.6325 3.47779 21.5948C10.0928 19.6711 16.3307 16.6321 21.9228 12.6088C22.0194 12.5393 22.0981 12.4479 22.1524 12.342C22.2067 12.2361 22.235 12.1188 22.235 11.9998C22.235 11.8808 22.2067 11.7635 22.1524 11.6576C22.0981 11.5517 22.0194 11.4603 21.9228 11.3908C16.3308 7.3671 10.0928 4.32776 3.47779 2.4038Z" fill="#191A26"/>
</svg>
