<svg width="22" height="22" viewBox="0 0 22 22" fill="none" xmlns="http://www.w3.org/2000/svg">
<path fill-rule="evenodd" clip-rule="evenodd" d="M11.166 0.25C5.22896 0.25 0.416016 5.06294 0.416016 11C0.416016 16.9371 5.22896 21.75 11.166 21.75C17.1031 21.75 21.916 16.9371 21.916 11C21.916 5.06294 17.1031 0.25 11.166 0.25ZM14.666 13.25C13.9756 13.25 13.416 13.8096 13.416 14.5C13.416 15.1904 13.9756 15.75 14.666 15.75C15.3564 15.75 15.916 15.1904 15.916 14.5C15.916 13.8096 15.3564 13.25 14.666 13.25ZM6.41602 7.5C6.41602 6.80964 6.97566 6.25 7.66602 6.25C8.35638 6.25 8.91602 6.80964 8.91602 7.5C8.91602 8.19036 8.35638 8.75 7.66602 8.75C6.97566 8.75 6.41602 8.19036 6.41602 7.5ZM14.6357 6.46967C14.9286 6.17678 15.4034 6.17678 15.6963 6.46967C15.9892 6.76256 15.9892 7.23744 15.6963 7.53033L7.69635 15.5303C7.40346 15.8232 6.92858 15.8232 6.63569 15.5303C6.3428 15.2374 6.3428 14.7626 6.63569 14.4697L14.6357 6.46967Z" fill="#8E35FF"/>
</svg>
