<svg width="64" height="64" viewBox="0 0 64 64" fill="none" xmlns="http://www.w3.org/2000/svg">
<path d="M28.5 3.17543C30.6658 1.925 33.3342 1.925 35.5 3.17543L55.2128 14.5566C57.3786 15.8071 58.7128 18.1179 58.7128 20.6188V43.3812C58.7128 45.8821 57.3786 48.1929 55.2128 49.4434L35.5 60.8246C33.3342 62.075 30.6658 62.075 28.5 60.8246L8.78719 49.4434C6.62138 48.1929 5.28719 45.8821 5.28719 43.3812V20.6188C5.28719 18.1179 6.62138 15.8071 8.78719 14.5566L28.5 3.17543Z" fill="url(#paint0_radial_254_58652)" stroke="white" stroke-width="2"/>
<path fill-rule="evenodd" clip-rule="evenodd" d="M28.9999 24.5C29.1629 24.5 29.3214 24.5531 29.4515 24.6513C29.5816 24.7495 29.6762 24.8873 29.7209 25.044L30.5339 27.89C30.709 28.5029 31.0374 29.0611 31.4881 29.5118C31.9388 29.9626 32.497 30.2909 33.1099 30.466L35.9559 31.279C36.1125 31.3239 36.2503 31.4185 36.3483 31.5486C36.4464 31.6786 36.4994 31.8371 36.4994 32C36.4994 32.1629 36.4464 32.3214 36.3483 32.4514C36.2503 32.5815 36.1125 32.6761 35.9559 32.721L33.1099 33.534C32.497 33.7091 31.9388 34.0374 31.4881 34.4882C31.0374 34.9389 30.709 35.4971 30.5339 36.11L29.7209 38.956C29.6761 39.1126 29.5815 39.2503 29.4514 39.3484C29.3213 39.4464 29.1628 39.4995 28.9999 39.4995C28.8371 39.4995 28.6786 39.4464 28.5485 39.3484C28.4184 39.2503 28.3238 39.1126 28.2789 38.956L27.4659 36.11C27.2909 35.4971 26.9625 34.9389 26.5118 34.4882C26.061 34.0374 25.5029 33.7091 24.8899 33.534L22.0439 32.721C21.8874 32.6761 21.7496 32.5815 21.6516 32.4514C21.5535 32.3214 21.5005 32.1629 21.5005 32C21.5005 31.8371 21.5535 31.6786 21.6516 31.5486C21.7496 31.4185 21.8874 31.3239 22.0439 31.279L24.8899 30.466C25.5029 30.2909 26.061 29.9626 26.5118 29.5118C26.9625 29.0611 27.2909 28.5029 27.4659 27.89L28.2789 25.044C28.3237 24.8873 28.4183 24.7495 28.5484 24.6513C28.6785 24.5531 28.837 24.5 28.9999 24.5ZM37.9999 21.5C38.1673 21.4999 38.3298 21.5558 38.4617 21.6587C38.5936 21.7616 38.6873 21.9057 38.7279 22.068L38.9859 23.104C39.2219 24.044 39.9559 24.778 40.8959 25.014L41.9319 25.272C42.0946 25.3123 42.239 25.4059 42.3423 25.5378C42.4455 25.6697 42.5016 25.8325 42.5016 26C42.5016 26.1675 42.4455 26.3303 42.3423 26.4622C42.239 26.5941 42.0946 26.6877 41.9319 26.728L40.8959 26.986C39.9559 27.222 39.2219 27.956 38.9859 28.896L38.7279 29.932C38.6877 30.0946 38.5941 30.2391 38.4621 30.3423C38.3302 30.4456 38.1675 30.5017 37.9999 30.5017C37.8324 30.5017 37.6697 30.4456 37.5377 30.3423C37.4058 30.2391 37.3122 30.0946 37.2719 29.932L37.0139 28.896C36.8986 28.4344 36.6599 28.0129 36.3235 27.6765C35.987 27.3401 35.5655 27.1014 35.1039 26.986L34.0679 26.728C33.9053 26.6877 33.7609 26.5941 33.6576 26.4622C33.5544 26.3303 33.4983 26.1675 33.4983 26C33.4983 25.8325 33.5544 25.6697 33.6576 25.5378C33.7609 25.4059 33.9053 25.3123 34.0679 25.272L35.1039 25.014C35.5655 24.8986 35.987 24.6599 36.3235 24.3235C36.6599 23.9871 36.8986 23.5656 37.0139 23.104L37.2719 22.068C37.3125 21.9057 37.4063 21.7616 37.5382 21.6587C37.6701 21.5558 37.8326 21.4999 37.9999 21.5ZM36.4999 35C36.6575 34.9999 36.811 35.0494 36.9388 35.1415C37.0666 35.2336 37.1622 35.3636 37.2119 35.513L37.6059 36.696C37.7559 37.143 38.1059 37.495 38.5539 37.644L39.7369 38.039C39.8859 38.089 40.0154 38.1845 40.1071 38.3121C40.1989 38.4397 40.2482 38.5929 40.2482 38.75C40.2482 38.9071 40.1989 39.0603 40.1071 39.1879C40.0154 39.3155 39.8859 39.411 39.7369 39.461L38.5539 39.856C38.1069 40.006 37.7549 40.356 37.6059 40.804L37.2109 41.987C37.1609 42.136 37.0654 42.2655 36.9378 42.3572C36.8103 42.4489 36.6571 42.4983 36.4999 42.4983C36.3428 42.4983 36.1896 42.4489 36.0621 42.3572C35.9345 42.2655 35.839 42.136 35.7889 41.987L35.3939 40.804C35.3203 40.5833 35.1963 40.3827 35.0318 40.2182C34.8672 40.0537 34.6667 39.9297 34.4459 39.856L33.2629 39.461C33.114 39.411 32.9845 39.3155 32.8927 39.1879C32.801 39.0603 32.7516 38.9071 32.7516 38.75C32.7516 38.5929 32.801 38.4397 32.8927 38.3121C32.9845 38.1845 33.114 38.089 33.2629 38.039L34.4459 37.644C34.8929 37.494 35.2449 37.144 35.3939 36.696L35.7889 35.513C35.8387 35.3637 35.9341 35.2339 36.0617 35.1418C36.1893 35.0497 36.3426 35.0001 36.4999 35Z" fill="white"/>
<defs>
<radialGradient id="paint0_radial_254_58652" cx="0" cy="0" r="1" gradientUnits="userSpaceOnUse" gradientTransform="translate(32 -33.098) rotate(90) scale(107.098 73.3011)">
<stop stop-color="#F36DFF"/>
<stop offset="0.605" stop-color="#8745FE"/>
<stop offset="1" stop-color="#17BAE5"/>
</radialGradient>
</defs>
</svg>
