<svg width="1440" height="1438" viewBox="0 0 1440 1438" fill="none" xmlns="http://www.w3.org/2000/svg">
<path d="M215.76 718.998L193.2 679.933H144.96L122.52 718.998H121.56L144.48 679.094H193.8L216.72 718.998H215.76Z" fill="#F8F2FF"/>
<path d="M68.4007 718.998L45.9608 679.933H0.000778198V679.094H46.4408L69.4807 718.998H68.4007Z" fill="#F8F2FF"/>
<path d="M268.322 719L291.002 679.455L266.882 637.513H218.642L194.522 679.455L217.322 719H216.242L193.682 679.695L193.562 679.455L218.162 636.555H267.482L291.962 679.215L292.082 679.455L269.402 719H268.322Z" fill="#F8F2FF"/>
<path d="M120.963 719L143.763 679.455L119.643 637.513H71.403L47.283 679.455L69.963 719H69.003L46.323 679.695L46.203 679.455L70.803 636.555H120.123L144.603 679.215L144.723 679.455L122.043 719H120.963Z" fill="#F8F2FF"/>
<path d="M144.481 679.935H193.801L218.401 637.035V636.795L193.801 594.135H144.481L119.881 637.035V637.275L144.481 679.935ZM193.201 678.977H144.961L120.841 637.035L144.961 595.093H193.201L217.321 637.035L193.201 678.977Z" fill="#F8F2FF"/>
<path d="M-1.52588e-05 678.977H45.96L70.0799 637.035L45.96 595.093H-1.52588e-05V594.135H46.44L71.0399 636.795L71.1599 637.035L46.44 679.935H-1.52588e-05V678.977Z" fill="#F8F2FF"/>
<path d="M218.162 637.511H267.482L292.082 594.611V594.371L267.482 551.711H218.162L193.562 594.611V594.851L218.162 637.511ZM266.882 636.553H218.642L194.522 594.611L218.642 552.67H266.882L291.002 594.611L266.882 636.553Z" fill="#F8F2FF"/>
<path d="M70.803 637.511H120.123L144.723 594.611V594.371L120.123 551.711H70.803L46.203 594.611V594.851L70.803 637.511ZM119.523 636.553H71.283L47.163 594.611L71.283 552.67H119.523L143.643 594.611L119.523 636.553Z" fill="#F8F2FF"/>
<path d="M144.481 595.09H193.801L218.401 552.189V551.95L193.801 509.289H144.481L119.881 552.189V552.429L144.481 595.09ZM193.201 594.131H144.961L120.841 552.189L144.961 510.248H193.201L217.321 552.189L193.201 594.131Z" fill="#F8F2FF"/>
<path d="M-1.52588e-05 594.131H45.96L70.0799 552.189L45.96 510.248H-1.52588e-05V509.289H46.44L71.0399 551.95L71.1599 552.189L46.44 595.09H-1.52588e-05V594.131Z" fill="#F8F2FF"/>
<path d="M218.162 552.548H267.482L292.082 509.648V509.409L267.482 466.748H218.162L193.562 509.648V509.888L218.162 552.548ZM266.882 551.59H218.642L194.522 509.648L218.642 467.707H266.882L291.002 509.648L266.882 551.59Z" fill="#F8F2FF"/>
<path d="M70.803 552.548H120.123L144.723 509.648V509.409L120.123 466.748H70.803L46.203 509.648V509.888L70.803 552.548ZM119.523 551.59H71.283L47.163 509.648L71.283 467.707H119.523L143.643 509.648L119.523 551.59Z" fill="#F8F2FF"/>
<path d="M291.841 510.13H341.161L365.761 467.229V466.99L341.161 424.329H291.841L267.241 467.229V467.469L291.841 510.13ZM340.561 509.171H292.321L268.201 467.229L292.321 425.288H340.561L364.681 467.229L340.561 509.171Z" fill="#F8F2FF"/>
<path d="M144.481 510.13H193.801L218.401 467.229V466.99L193.801 424.329H144.481L119.881 467.229V467.469L144.481 510.13ZM193.201 509.171H144.961L120.841 467.229L144.961 425.288H193.201L217.321 467.229L193.201 509.171Z" fill="#F8F2FF"/>
<path d="M-1.52588e-05 509.295H45.96L70.0799 467.353L45.96 425.412H-1.52588e-05V424.453H46.44L71.0399 467.114L71.1599 467.353L46.44 510.134H-1.52588e-05V509.295Z" fill="#F8F2FF"/>
<path d="M365.521 467.711H414.841L439.441 424.81V424.571L414.841 381.91H365.521L340.921 424.81V425.05L365.521 467.711ZM414.241 466.752H366.001L341.881 424.81L366.001 382.869H414.241L438.361 424.81L414.241 466.752Z" fill="#F8F2FF"/>
<path d="M218.162 467.711H267.482L292.082 424.81V424.571L267.482 381.91H218.162L193.562 424.81V425.05L218.162 467.711ZM266.882 466.752H218.642L194.522 424.81L218.642 382.869H266.882L291.002 424.81L266.882 466.752Z" fill="#F8F2FF"/>
<path d="M70.803 467.711H120.123L144.723 424.81V424.571L120.123 381.91H70.803L46.203 424.81V425.05L70.803 467.711ZM119.523 466.752H71.283L47.163 424.81L71.283 382.869H119.523L143.643 424.81L119.523 466.752Z" fill="#F8F2FF"/>
<path d="M291.841 425.284H341.161L365.761 382.384V382.144L341.161 339.483H291.841L267.241 382.384V382.623L291.841 425.284ZM340.561 424.325H292.321L268.201 382.384L292.321 340.442H340.561L364.681 382.384L340.561 424.325Z" fill="#F8F2FF"/>
<path d="M144.48 425.284H193.8L218.4 382.384V382.144L193.8 339.483H144.48L119.88 382.384V382.623L144.48 425.284ZM193.2 424.325H144.96L120.84 382.384L144.96 340.442H193.2L217.32 382.384L193.2 424.325Z" fill="#F8F2FF"/>
<path d="M-1.52588e-05 424.449H45.96L70.0799 382.508L45.96 340.446H-1.52588e-05V339.607H46.44L71.0399 382.268L71.1599 382.508L46.44 425.288H-1.52588e-05V424.449Z" fill="#F8F2FF"/>
<path d="M365.521 382.871H414.841L439.441 339.971V339.731L414.841 297.07H365.521L340.921 339.971V340.21L365.521 382.871ZM414.241 381.912H366.001L341.881 339.971L366.001 298.029H414.241L438.361 339.971L414.241 381.912Z" fill="#F8F2FF"/>
<path d="M218.162 382.871H267.482L292.082 339.971V339.731L267.482 297.07H218.162L193.562 339.971V340.21L218.162 382.871ZM266.882 381.912H218.642L194.522 339.971L218.642 298.029H266.882L291.002 339.971L266.882 381.912Z" fill="#F8F2FF"/>
<path d="M70.803 382.871H120.123L144.723 339.971V339.731L120.123 297.07H70.803L46.203 339.971V340.21L70.803 382.871ZM119.523 381.912H71.283L47.163 339.971L71.283 298.029H119.523L143.643 339.971L119.523 381.912Z" fill="#F8F2FF"/>
<path d="M291.841 340.445H341.161L365.761 297.545V297.305L341.161 254.645H291.841L267.241 297.545V297.784L291.841 340.445ZM340.561 339.486H292.321L268.201 297.545L292.321 255.603H340.561L364.681 297.545L340.561 339.486Z" fill="#F8F2FF"/>
<path d="M144.481 340.445H193.801L218.401 297.545V297.305L193.801 254.645H144.481L119.881 297.545V297.784L144.481 340.445ZM193.201 339.486H144.961L120.841 297.545L144.961 255.603H193.201L217.321 297.545L193.201 339.486Z" fill="#F8F2FF"/>
<path d="M-1.52588e-05 339.485H45.96L70.0799 297.543L45.96 255.602H-1.52588e-05V254.763H46.44L71.0399 297.303L71.1599 297.543L46.44 340.443H-1.52588e-05V339.485Z" fill="#F8F2FF"/>
<path d="M365.521 298.027H414.841L439.441 255.127V254.887L414.841 212.227H365.521L340.921 255.127V255.366L365.521 298.027ZM414.241 297.068H366.001L341.881 255.127L366.001 213.185H414.241L438.361 255.127L414.241 297.068Z" fill="#F8F2FF"/>
<path d="M218.162 298.027H267.482L292.082 255.127V254.887L267.482 212.227H218.162L193.562 255.127V255.366L218.162 298.027ZM266.882 297.068H218.642L194.522 255.127L218.642 213.185H266.882L291.002 255.127L266.882 297.068Z" fill="#F8F2FF"/>
<path d="M70.803 298.027H120.123L144.723 255.127V254.887L120.123 212.227H70.803L46.203 255.127V255.366L70.803 298.027ZM119.523 297.068H71.283L47.163 255.127L71.283 213.185H119.523L143.643 255.127L119.523 297.068Z" fill="#F8F2FF"/>
<path d="M291.841 255.603H341.161L365.761 212.703V212.463L341.161 169.803H291.841L267.241 212.703V212.943L291.841 255.603ZM340.561 254.645H292.321L268.201 212.703L292.321 170.761H340.561L364.681 212.703L340.561 254.645Z" fill="#F8F2FF"/>
<path d="M144.48 255.603H193.8L218.4 212.703V212.463L193.8 169.803H144.48L119.88 212.703V212.943L144.48 255.603ZM193.2 254.645H144.96L120.84 212.703L144.96 170.761H193.2L217.32 212.703L193.2 254.645Z" fill="#F8F2FF"/>
<path d="M-1.52588e-05 254.646H45.96L70.0799 212.704L45.96 170.763H-1.52588e-05V169.924H46.44L71.0399 212.465L71.1599 212.704L46.44 255.604H-1.52588e-05V254.646Z" fill="#F8F2FF"/>
<path d="M365.521 213.182H414.841L439.441 170.282V170.042L414.841 127.382H365.521L340.921 170.282V170.522L365.521 213.182ZM414.241 212.224H366.001L341.881 170.282L366.001 128.34H414.241L438.361 170.282L414.241 212.224Z" fill="#F8F2FF"/>
<path d="M70.803 213.182H120.123L144.723 170.282V170.042L120.123 127.382H70.803L46.203 170.282V170.522L70.803 213.182ZM119.523 212.224H71.283L47.163 170.282L71.283 128.34H119.523L143.643 170.282L119.523 212.224Z" fill="#F8F2FF"/>
<path d="M-1.52588e-05 169.805H45.96L70.0799 127.863L45.96 85.9216H-1.52588e-05V84.9629H46.44L71.0399 127.623L71.1599 127.863L46.44 170.763H-1.52588e-05V169.805Z" fill="#F8F2FF"/>
<path d="M365.521 128.341H414.841L439.441 85.4412V85.2016L414.841 42.541H365.521L340.921 85.4412V85.6809L365.521 128.341ZM414.241 127.383H366.001L341.881 85.4412L366.001 43.4997H414.241L438.361 85.4412L414.241 127.383Z" fill="#F8F2FF"/>
<path d="M70.803 128.341H120.123L144.723 85.4412V85.2016L120.123 42.541H70.803L46.203 85.4412V85.6809L70.803 128.341ZM119.523 127.383H71.283L47.163 85.4412L71.283 43.4997H119.523L143.643 85.4412L119.523 127.383Z" fill="#F8F2FF"/>
<path d="M-1.52588e-05 84.9619H45.96L70.0799 43.0203L45.96 1.07878H-1.52588e-05V0.120117H46.44L71.0399 42.7807L71.1599 43.0203L46.44 85.8007H-1.52588e-05V84.9619Z" fill="#F8F2FF"/>
<path d="M342.24 0L341.88 0.599165L366 42.5407H414.24L438.36 0.599165L438 0H439.08L439.2 0.359499L439.32 0.599165L414.72 43.3796H365.52L340.92 0.838831L340.8 0.599165L341.16 0H342.24Z" fill="#F8F2FF"/>
<path d="M47.523 0L47.283 0.599165L71.403 42.5407H119.643L143.763 0.599165L143.403 0H144.483L144.603 0.359499L144.723 0.599165L120.123 43.3796H70.803L46.323 0.838831L46.203 0.599165L46.563 0H47.523Z" fill="#F8F2FF"/>
<path d="M0.000354767 0H45.9603H47.0403L46.4403 0.9589H0.000354767V0Z" fill="#F8F2FF"/>
<path opacity="0.23" d="M460.801 718.998L438.241 679.812H390.001L367.441 718.998H366.481L389.521 678.854H438.721L461.761 718.998H460.801Z" fill="#F8F2FF"/>
<path opacity="0.41" d="M313.441 718.998L291.001 679.812H242.761L220.201 718.998H219.121L242.161 678.854H291.481L314.521 718.998H313.441Z" fill="#F8F2FF"/>
<path opacity="0.26" d="M166.202 718.998L143.642 679.812H95.4019L72.8419 718.998H71.8819L94.922 678.854H144.122L167.162 718.998H166.202Z" fill="#F8F2FF"/>
<path opacity="0.44" d="M513.241 718.999L536.041 679.334L511.921 637.392H463.681L439.561 679.334L462.361 718.999H461.281L438.601 679.573L438.481 679.334L463.201 636.434H512.401L536.881 679.094L537.001 679.334L514.201 718.999H513.241Z" fill="#F8F2FF"/>
<path opacity="0.43" d="M365.882 718.999L388.682 679.334L364.562 637.392H316.322L292.202 679.334L315.002 718.999H314.042L291.362 679.573L291.242 679.334L315.842 636.434H365.162L389.642 679.094L389.762 679.334L366.962 718.999H365.882Z" fill="#F8F2FF"/>
<path opacity="0.82" d="M218.642 718.999L241.442 679.334L217.322 637.392H169.082L144.962 679.334L167.762 718.999H166.682L144.002 679.573L143.882 679.334L168.482 636.434H217.802L242.282 679.094L242.402 679.334L219.602 718.999H218.642Z" fill="#F8F2FF"/>
<path opacity="0.5" d="M0.00362587 683.403L20.4036 718.994H19.4436L0.00362587 685.321V683.403Z" fill="#F8F2FF"/>
<path opacity="0.28" d="M71.2849 718.998L94.0847 679.333L69.9648 637.391H21.7249L0.00491333 675.258V673.461L21.2448 636.433H70.5648L95.0448 679.093L95.1648 679.333L72.3648 718.998H71.2849Z" fill="#F8F2FF"/>
<path opacity="0.41" d="M389.522 679.812H438.842L463.442 636.912V636.672L438.842 594.012H389.522L364.922 636.912V637.152L389.522 679.812ZM438.242 678.854H390.002L365.882 636.912L390.002 594.97H438.242L462.362 636.912L438.242 678.854Z" fill="#F8F2FF"/>
<path opacity="0.25" d="M242.161 679.812H291.481L316.081 636.912V636.672L291.481 594.012H242.161L217.561 636.912V637.152L242.161 679.812ZM290.881 678.854H242.641L218.521 636.912L242.641 594.97H290.881L315.001 636.912L290.881 678.854Z" fill="#F8F2FF"/>
<path opacity="0.27" d="M94.9212 679.812H144.241L168.841 636.912V636.672L144.241 594.012H94.9212L70.3212 636.912V637.152L94.9212 679.812ZM143.641 678.854H95.4011L71.2812 636.912L95.4011 594.97H143.641L167.761 636.912L143.641 678.854Z" fill="#F8F2FF"/>
<path opacity="0.29" d="M168.482 637.271H217.802L242.402 594.371V594.131L217.802 551.471H168.482L143.882 594.371V594.611L168.482 637.271ZM217.202 636.312H168.962L144.842 594.371L168.962 552.429H217.202L241.322 594.371L217.202 636.312Z" fill="#F8F2FF"/>
<path opacity="0.65" d="M0.00296021 598.566L21.7229 636.434H69.9629L94.0828 594.492L69.9629 552.55H21.7229L0.00296021 590.298V588.5L21.2429 551.592H70.5628L95.0428 594.252L95.1628 594.492L70.5628 637.272H21.2429L0.00296021 600.364V598.566Z" fill="#F8F2FF"/>
<path opacity="0.99" d="M242.161 594.851H291.481L316.081 551.951V551.711L291.481 509.051H242.161L217.561 551.951V552.191L242.161 594.851ZM290.881 593.893H242.641L218.521 551.951L242.641 510.009H290.881L315.001 551.951L290.881 593.893Z" fill="#F8F2FF"/>
<path opacity="0.4" d="M94.9212 594.851H144.241L168.841 551.951V551.711L144.241 509.051H94.9212L70.3212 551.951V552.191L94.9212 594.851ZM143.641 593.893H95.4011L71.2812 551.951L95.4011 510.009H143.641L167.761 551.951L143.641 593.893Z" fill="#F8F2FF"/>
<path opacity="0.32" d="M168.482 552.431H217.802L242.402 509.531V509.291L217.802 466.631H168.482L143.882 509.531V509.771L168.482 552.431ZM217.202 551.473H168.962L144.842 509.531L168.962 467.59H217.202L241.322 509.531L217.202 551.473Z" fill="#F8F2FF"/>
<path opacity="0.95" d="M0.00296021 513.722L21.7229 551.589H69.9629L94.0828 509.647L69.9629 467.706H21.7229L0.00296021 505.453V503.656L21.2429 466.747H70.5628L95.0428 509.408L95.1628 509.647L70.5628 552.428H21.2429L0.00296021 515.519V513.722Z" fill="#F8F2FF"/>
<path opacity="0.74" d="M389.522 510.009H438.842L463.442 467.109V466.87L438.842 424.209H389.522L364.922 467.109V467.349L389.522 510.009ZM438.242 509.051H390.002L365.882 467.109L390.002 425.168H438.242L462.362 467.109L438.242 509.051Z" fill="#F8F2FF"/>
<path opacity="0.49" d="M242.161 510.009H291.481L316.081 467.109V466.87L291.481 424.209H242.161L217.561 467.109V467.349L242.161 510.009ZM290.881 509.051H242.641L218.521 467.109L242.641 425.168H290.881L315.001 467.109L290.881 509.051Z" fill="#F8F2FF"/>
<path opacity="0.99" d="M94.9212 510.009H144.241L168.841 467.109V466.87L144.241 424.209H94.9212L70.3212 467.109V467.349L94.9212 510.009ZM143.641 509.051H95.4011L71.2812 467.109L95.4011 425.168H143.641L167.761 467.109L143.641 509.051Z" fill="#F8F2FF"/>
<path opacity="0.74" d="M315.842 467.588H365.162L389.762 424.687V424.448L365.162 381.787H315.842L291.242 424.687V424.927L315.842 467.588ZM364.562 466.629H316.322L292.202 424.687L316.322 382.746H364.562L388.682 424.687L364.562 466.629Z" fill="#F8F2FF"/>
<path opacity="0.98" d="M168.482 467.588H217.802L242.402 424.687V424.448L217.802 381.787H168.482L143.882 424.687V424.927L168.482 467.588ZM217.202 466.629H168.962L144.842 424.687L168.962 382.746H217.202L241.322 424.687L217.202 466.629Z" fill="#F8F2FF"/>
<path opacity="0.41" d="M0.00296021 428.885L21.7229 466.752H69.9629L94.0828 424.691L69.9629 382.749H21.7229L0.00296021 420.616V418.819L21.2429 381.91H70.5628L95.0428 424.571L95.1628 424.691L70.5628 467.591H21.2429L0.00296021 430.682V428.885Z" fill="#F8F2FF"/>
<path opacity="0.24" d="M389.522 425.167H438.842L463.442 382.266V382.027L438.842 339.366H389.522L364.922 382.266V382.506L389.522 425.167ZM438.242 424.208H390.002L365.882 382.266L390.002 340.325H438.242L462.362 382.266L438.242 424.208Z" fill="#F8F2FF"/>
<path opacity="0.24" d="M242.161 425.167H291.481L316.081 382.266V382.027L291.481 339.366H242.161L217.561 382.266V382.506L242.161 425.167ZM290.881 424.208H242.641L218.521 382.266L242.641 340.325H290.881L315.001 382.266L290.881 424.208Z" fill="#F8F2FF"/>
<path opacity="0.98" d="M94.9212 425.167H144.241L168.841 382.266V382.027L144.241 339.366H94.9212L70.3212 382.266V382.506L94.9212 425.167ZM143.641 424.208H95.4011L71.2812 382.266L95.4011 340.325H143.641L167.761 382.266L143.641 424.208Z" fill="#F8F2FF"/>
<path opacity="0.74" d="M315.842 382.746H365.162L389.762 339.846V339.606L365.162 296.945H315.842L291.242 339.846V340.085L315.842 382.746ZM364.562 381.787H316.322L292.202 339.846L316.322 297.904H364.562L388.682 339.846L364.562 381.787Z" fill="#F8F2FF"/>
<path opacity="0.64" d="M168.482 382.746H217.802L242.402 339.846V339.606L217.802 296.945H168.482L143.882 339.846V340.085L168.482 382.746ZM217.202 381.787H168.962L144.842 339.846L168.962 297.904H217.202L241.322 339.846L217.202 381.787Z" fill="#F8F2FF"/>
<path opacity="0.63" d="M0.00296021 344.043L21.7229 381.79H69.9629L94.0828 339.849L69.9629 297.907H21.7229L0.00296021 335.774V333.977L21.2429 297.068H70.5628L95.0428 339.609L95.1628 339.849L70.5628 382.749H21.2429L0.00296021 345.84V344.043Z" fill="#F8F2FF"/>
<path opacity="0.82" d="M242.161 340.324H291.481L316.081 297.424V297.184L291.481 254.523H242.161L217.561 297.424V297.663L242.161 340.324ZM290.881 339.365H242.641L218.521 297.424L242.641 255.482H290.881L315.001 297.424L290.881 339.365Z" fill="#F8F2FF"/>
<path opacity="0.66" d="M94.9212 340.324H144.241L168.841 297.424V297.184L144.241 254.523H94.9212L70.3212 297.424V297.663L94.9212 340.324ZM143.641 339.365H95.4011L71.2812 297.424L95.4011 255.482H143.641L167.761 297.424L143.641 339.365Z" fill="#F8F2FF"/>
<path opacity="0.91" d="M315.842 297.909H365.162L389.762 255.009V254.769L365.162 212.108H315.842L291.242 255.009V255.248L315.842 297.909ZM364.562 296.95H316.322L292.202 255.009L316.322 213.067H364.562L388.682 255.009L364.562 296.95Z" fill="#F8F2FF"/>
<path opacity="0.33" d="M168.482 297.909H217.802L242.402 255.009V254.769L217.802 212.108H168.482L143.882 255.009V255.248L168.482 297.909ZM217.202 296.95H168.962L144.842 255.009L168.962 213.067H217.202L241.322 255.009L217.202 296.95Z" fill="#F8F2FF"/>
<path opacity="0.83" d="M0.00296021 259.2L21.7229 296.948H69.9629L94.0828 255.006L69.9629 213.064H21.7229L0.00296021 250.932V249.134L21.2429 212.226H70.5628L95.0428 254.766L95.1628 255.006L70.5628 297.906H21.2429L0.00296021 260.998V259.2Z" fill="#F8F2FF"/>
<path opacity="0.93" d="M389.522 255.484H438.842L463.442 212.584V212.344L438.842 169.684H389.522L364.922 212.584V212.823L389.522 255.484ZM438.242 254.525H390.002L365.882 212.584L390.002 170.642H438.242L462.362 212.584L438.242 254.525Z" fill="#F8F2FF"/>
<path opacity="0.88" d="M242.161 255.484H291.481L316.081 212.584V212.344L291.481 169.684H242.161L217.561 212.584V212.823L242.161 255.484ZM290.881 254.525H242.641L218.521 212.584L242.641 170.642H290.881L315.001 212.584L290.881 254.525Z" fill="#F8F2FF"/>
<path opacity="0.37" d="M94.9212 255.484H144.241L168.841 212.584V212.344L144.241 169.684H94.9212L70.3212 212.584V212.823L94.9212 255.484ZM143.641 254.525H95.4011L71.2812 212.584L95.4011 170.642H143.641L167.761 212.584L143.641 254.525Z" fill="#F8F2FF"/>
<path opacity="0.81" d="M315.842 213.062H365.162L389.762 170.162V169.922L365.162 127.262H315.842L291.242 170.162V170.402L315.842 213.062ZM364.562 212.104H316.322L292.202 170.162L316.322 128.22H364.562L388.682 170.162L364.562 212.104Z" fill="#F8F2FF"/>
<path opacity="0.59" d="M168.482 213.062H217.802L242.402 170.162V169.922L217.802 127.262H168.482L143.882 170.162V170.402L168.482 213.062ZM217.202 212.104H168.962L144.842 170.162L168.962 128.22H217.202L241.322 170.162L217.202 212.104Z" fill="#F8F2FF"/>
<path opacity="0.52" d="M0.00296021 174.236L21.7229 212.104H69.9629L94.0828 170.162L69.9629 128.22H21.7229L0.00296021 166.088V164.17L21.2429 127.262H70.5628L95.0428 169.922L95.1628 170.162L70.5628 213.062H21.2429L0.00296021 176.034V174.236Z" fill="#F8F2FF"/>
<path opacity="0.31" d="M242.161 170.521H291.481L316.081 127.621V127.381L291.481 84.7207H242.161L217.561 127.621V127.861L242.161 170.521ZM290.881 169.562H242.641L218.521 127.621L242.641 85.6794H290.881L315.001 127.621L290.881 169.562Z" fill="#F8F2FF"/>
<path opacity="0.7" d="M94.9212 170.521H144.241L168.841 127.621V127.381L144.241 84.7207H94.9212L70.3212 127.621V127.861L94.9212 170.521ZM143.641 169.562H95.4011L71.2812 127.621L95.4011 85.6794H143.641L167.761 127.621L143.641 169.562Z" fill="#F8F2FF"/>
<path d="M315.842 128.101H365.162L389.762 85.201V84.9613L365.162 42.3008H315.842L291.242 85.201V85.4407L315.842 128.101ZM364.562 127.143H316.322L292.202 85.201L316.322 43.2594H364.562L388.682 85.201L364.562 127.143Z" fill="#F8F2FF"/>
<path opacity="0.36" d="M168.482 128.101H217.802L242.402 85.201V84.9613L217.802 42.3008H168.482L143.882 85.201V85.4407L168.482 128.101ZM217.202 127.143H168.962L144.842 85.201L168.962 43.2594H217.202L241.322 85.201L217.202 127.143Z" fill="#F8F2FF"/>
<path opacity="0.46" d="M0.00296021 89.3945L21.7229 127.262H69.9629L94.0828 85.3201L69.9629 43.3786H21.7229L0.00296021 81.126V79.3285L21.2429 42.4199H70.5628L95.0428 85.0805L95.1628 85.3201L70.5628 128.101H21.2429L0.00296021 91.192V89.3945Z" fill="#F8F2FF"/>
<path opacity="0.56" d="M389.522 85.6806H438.842L463.442 42.7804V42.5407L438.722 0H389.402L364.802 42.9002V43.1399L389.402 85.8004L389.522 85.6806ZM438.242 84.722H390.002L365.882 42.7804L390.002 0.958664H438.242L462.362 42.9002L438.242 84.8418V84.722Z" fill="#F8F2FF"/>
<path opacity="0.45" d="M242.161 85.6806H291.481L316.081 42.7804V42.5407L291.481 0H242.161L217.561 42.9002V43.1399L242.161 85.8004V85.6806ZM290.881 84.722H242.641L218.521 42.7804L242.761 0.958664H291.001L315.121 42.9002L291.001 84.8418L290.881 84.722Z" fill="#F8F2FF"/>
<path opacity="0.89" d="M94.9212 85.6806H144.241L168.841 42.7804V42.5407L144.121 0H94.8011L70.2011 42.9002V43.1399L94.8011 85.8004L94.9212 85.6806ZM143.641 84.722H95.4011L71.2812 42.7804L95.4011 0.958664H143.641L167.761 42.9002L143.641 84.8418V84.722Z" fill="#F8F2FF"/>
<path opacity="0.55" d="M439.801 0L439.561 0.479332L463.681 42.4209H511.921L536.041 0.479332L535.801 0H536.761L536.881 0.239666L537.001 0.479332L512.401 43.2597H463.201L438.601 0.718998L438.481 0.479332L438.721 0H439.801Z" fill="#F8F2FF"/>
<path opacity="0.84" d="M292.442 0L292.202 0.479332L316.322 42.4209H364.562L388.682 0.479332L388.442 0H389.522L389.642 0.239666L389.762 0.479332L365.162 43.2597H315.842L291.362 0.718998L291.242 0.479332L291.482 0H292.442Z" fill="#F8F2FF"/>
<path opacity="0.55" d="M145.202 0L144.962 0.479332L169.082 42.4209H217.322L241.442 0.479332L241.202 0H242.162L242.282 0.239666L242.402 0.479332L217.802 43.2597H168.482L144.002 0.718998L143.882 0.479332L144.122 0H145.202Z" fill="#F8F2FF"/>
<path opacity="0.4" d="M0.00296021 4.55366L21.7229 42.4209H69.9629L94.0828 0.479332L93.8428 0H94.9229L95.0428 0.239666L95.1628 0.479332L70.5628 43.2597H21.2429L0.00296021 6.35115V4.55366Z" fill="#F8F2FF"/>
<path d="M1224.24 718.998L1246.8 679.933H1295.04L1317.48 718.998H1318.44L1295.52 679.094H1246.2L1223.28 718.998H1224.24Z" fill="#F8F2FF"/>
<path d="M1371.6 718.998L1394.04 679.933H1440V679.094H1393.56L1370.52 718.998H1371.6Z" fill="#F8F2FF"/>
<path d="M1171.68 719L1149 679.455L1173.12 637.513H1221.36L1245.48 679.455L1222.68 719H1223.76L1246.32 679.695L1246.44 679.455L1221.84 636.555H1172.52L1148.04 679.215L1147.92 679.455L1170.6 719H1171.68Z" fill="#F8F2FF"/>
<path d="M1319.04 719L1296.24 679.455L1320.36 637.513H1368.6L1392.72 679.455L1370.04 719H1371L1393.68 679.695L1393.8 679.455L1369.2 636.555H1319.88L1295.4 679.215L1295.28 679.455L1317.96 719H1319.04Z" fill="#F8F2FF"/>
<path d="M1295.52 679.935H1246.2L1221.6 637.035V636.795L1246.2 594.135H1295.52L1320.12 637.035V637.275L1295.52 679.935ZM1246.8 678.977H1295.04L1319.16 637.035L1295.04 595.093H1246.8L1222.68 637.035L1246.8 678.977Z" fill="#F8F2FF"/>
<path d="M1440 678.977H1394.04L1369.92 637.035L1394.04 595.093H1440V594.135H1393.56L1368.96 636.795L1368.84 637.035L1393.56 679.935H1440V678.977Z" fill="#F8F2FF"/>
<path d="M1221.84 637.511H1172.52L1147.92 594.611V594.371L1172.52 551.711H1221.84L1246.44 594.611V594.851L1221.84 637.511ZM1173.12 636.553H1221.36L1245.48 594.611L1221.36 552.67H1173.12L1149 594.611L1173.12 636.553Z" fill="#F8F2FF"/>
<path d="M1369.2 637.511H1319.88L1295.28 594.611V594.371L1319.88 551.711H1369.2L1393.8 594.611V594.851L1369.2 637.511ZM1320.48 636.553H1368.72L1392.84 594.611L1368.72 552.67H1320.48L1296.36 594.611L1320.48 636.553Z" fill="#F8F2FF"/>
<path d="M1295.52 595.09H1246.2L1221.6 552.189V551.95L1246.2 509.289H1295.52L1320.12 552.189V552.429L1295.52 595.09ZM1246.8 594.131H1295.04L1319.16 552.189L1295.04 510.248H1246.8L1222.68 552.189L1246.8 594.131Z" fill="#F8F2FF"/>
<path d="M1440 594.131H1394.04L1369.92 552.189L1394.04 510.248H1440V509.289H1393.56L1368.96 551.95L1368.84 552.189L1393.56 595.09H1440V594.131Z" fill="#F8F2FF"/>
<path d="M1221.84 552.548H1172.52L1147.92 509.648V509.409L1172.52 466.748H1221.84L1246.44 509.648V509.888L1221.84 552.548ZM1173.12 551.59H1221.36L1245.48 509.648L1221.36 467.707H1173.12L1149 509.648L1173.12 551.59Z" fill="#F8F2FF"/>
<path d="M1369.2 552.548H1319.88L1295.28 509.648V509.409L1319.88 466.748H1369.2L1393.8 509.648V509.888L1369.2 552.548ZM1320.48 551.59H1368.72L1392.84 509.648L1368.72 467.707H1320.48L1296.36 509.648L1320.48 551.59Z" fill="#F8F2FF"/>
<path d="M1148.16 510.13H1098.84L1074.24 467.229V466.99L1098.84 424.329H1148.16L1172.76 467.229V467.469L1148.16 510.13ZM1099.44 509.171H1147.68L1171.8 467.229L1147.68 425.288H1099.44L1075.32 467.229L1099.44 509.171Z" fill="#F8F2FF"/>
<path d="M1295.52 510.13H1246.2L1221.6 467.229V466.99L1246.2 424.329H1295.52L1320.12 467.229V467.469L1295.52 510.13ZM1246.8 509.171H1295.04L1319.16 467.229L1295.04 425.288H1246.8L1222.68 467.229L1246.8 509.171Z" fill="#F8F2FF"/>
<path d="M1440 509.295H1394.04L1369.92 467.353L1394.04 425.412H1440V424.453H1393.56L1368.96 467.114L1368.84 467.353L1393.56 510.134H1440V509.295Z" fill="#F8F2FF"/>
<path d="M1074.48 467.711H1025.16L1000.56 424.81V424.571L1025.16 381.91H1074.48L1099.08 424.81V425.05L1074.48 467.711ZM1025.76 466.752H1074L1098.12 424.81L1074 382.869H1025.76L1001.64 424.81L1025.76 466.752Z" fill="#F8F2FF"/>
<path d="M1221.84 467.711H1172.52L1147.92 424.81V424.571L1172.52 381.91H1221.84L1246.44 424.81V425.05L1221.84 467.711ZM1173.12 466.752H1221.36L1245.48 424.81L1221.36 382.869H1173.12L1149 424.81L1173.12 466.752Z" fill="#F8F2FF"/>
<path d="M1369.2 467.711H1319.88L1295.28 424.81V424.571L1319.88 381.91H1369.2L1393.8 424.81V425.05L1369.2 467.711ZM1320.48 466.752H1368.72L1392.84 424.81L1368.72 382.869H1320.48L1296.36 424.81L1320.48 466.752Z" fill="#F8F2FF"/>
<path d="M1148.16 425.284H1098.84L1074.24 382.384V382.144L1098.84 339.483H1148.16L1172.76 382.384V382.623L1148.16 425.284ZM1099.44 424.325H1147.68L1171.8 382.384L1147.68 340.442H1099.44L1075.32 382.384L1099.44 424.325Z" fill="#F8F2FF"/>
<path d="M1295.52 425.284H1246.2L1221.6 382.384V382.144L1246.2 339.483H1295.52L1320.12 382.384V382.623L1295.52 425.284ZM1246.8 424.325H1295.04L1319.16 382.384L1295.04 340.442H1246.8L1222.68 382.384L1246.8 424.325Z" fill="#F8F2FF"/>
<path d="M1440 424.449H1394.04L1369.92 382.508L1394.04 340.446H1440V339.607H1393.56L1368.96 382.268L1368.84 382.508L1393.56 425.288H1440V424.449Z" fill="#F8F2FF"/>
<path d="M1074.48 382.871H1025.16L1000.56 339.971V339.731L1025.16 297.07H1074.48L1099.08 339.971V340.21L1074.48 382.871ZM1025.76 381.912H1074L1098.12 339.971L1074 298.029H1025.76L1001.64 339.971L1025.76 381.912Z" fill="#F8F2FF"/>
<path d="M1221.84 382.871H1172.52L1147.92 339.971V339.731L1172.52 297.07H1221.84L1246.44 339.971V340.21L1221.84 382.871ZM1173.12 381.912H1221.36L1245.48 339.971L1221.36 298.029H1173.12L1149 339.971L1173.12 381.912Z" fill="#F8F2FF"/>
<path d="M1369.2 382.871H1319.88L1295.28 339.971V339.731L1319.88 297.07H1369.2L1393.8 339.971V340.21L1369.2 382.871ZM1320.48 381.912H1368.72L1392.84 339.971L1368.72 298.029H1320.48L1296.36 339.971L1320.48 381.912Z" fill="#F8F2FF"/>
<path d="M1148.16 340.445H1098.84L1074.24 297.545V297.305L1098.84 254.645H1148.16L1172.76 297.545V297.784L1148.16 340.445ZM1099.44 339.486H1147.68L1171.8 297.545L1147.68 255.603H1099.44L1075.32 297.545L1099.44 339.486Z" fill="#F8F2FF"/>
<path d="M1295.52 340.445H1246.2L1221.6 297.545V297.305L1246.2 254.645H1295.52L1320.12 297.545V297.784L1295.52 340.445ZM1246.8 339.486H1295.04L1319.16 297.545L1295.04 255.603H1246.8L1222.68 297.545L1246.8 339.486Z" fill="#F8F2FF"/>
<path d="M1440 339.485H1394.04L1369.92 297.543L1394.04 255.602H1440V254.763H1393.56L1368.96 297.303L1368.84 297.543L1393.56 340.443H1440V339.485Z" fill="#F8F2FF"/>
<path d="M1074.48 298.027H1025.16L1000.56 255.127V254.887L1025.16 212.227H1074.48L1099.08 255.127V255.366L1074.48 298.027ZM1025.76 297.068H1074L1098.12 255.127L1074 213.185H1025.76L1001.64 255.127L1025.76 297.068Z" fill="#F8F2FF"/>
<path d="M1221.84 298.027H1172.52L1147.92 255.127V254.887L1172.52 212.227H1221.84L1246.44 255.127V255.366L1221.84 298.027ZM1173.12 297.068H1221.36L1245.48 255.127L1221.36 213.185H1173.12L1149 255.127L1173.12 297.068Z" fill="#F8F2FF"/>
<path d="M1369.2 298.027H1319.88L1295.28 255.127V254.887L1319.88 212.227H1369.2L1393.8 255.127V255.366L1369.2 298.027ZM1320.48 297.068H1368.72L1392.84 255.127L1368.72 213.185H1320.48L1296.36 255.127L1320.48 297.068Z" fill="#F8F2FF"/>
<path d="M1148.16 255.603H1098.84L1074.24 212.703V212.463L1098.84 169.803H1148.16L1172.76 212.703V212.943L1148.16 255.603ZM1099.44 254.645H1147.68L1171.8 212.703L1147.68 170.761H1099.44L1075.32 212.703L1099.44 254.645Z" fill="#F8F2FF"/>
<path d="M1295.52 255.603H1246.2L1221.6 212.703V212.463L1246.2 169.803H1295.52L1320.12 212.703V212.943L1295.52 255.603ZM1246.8 254.645H1295.04L1319.16 212.703L1295.04 170.761H1246.8L1222.68 212.703L1246.8 254.645Z" fill="#F8F2FF"/>
<path d="M1440 254.646H1394.04L1369.92 212.704L1394.04 170.763H1440V169.924H1393.56L1368.96 212.465L1368.84 212.704L1393.56 255.604H1440V254.646Z" fill="#F8F2FF"/>
<path d="M1074.48 213.182H1025.16L1000.56 170.282V170.042L1025.16 127.382H1074.48L1099.08 170.282V170.522L1074.48 213.182ZM1025.76 212.224H1074L1098.12 170.282L1074 128.34H1025.76L1001.64 170.282L1025.76 212.224Z" fill="#F8F2FF"/>
<path d="M1369.2 213.182H1319.88L1295.28 170.282V170.042L1319.88 127.382H1369.2L1393.8 170.282V170.522L1369.2 213.182ZM1320.48 212.224H1368.72L1392.84 170.282L1368.72 128.34H1320.48L1296.36 170.282L1320.48 212.224Z" fill="#F8F2FF"/>
<path d="M1440 169.805H1394.04L1369.92 127.863L1394.04 85.9216H1440V84.9629H1393.56L1368.96 127.623L1368.84 127.863L1393.56 170.763H1440V169.805Z" fill="#F8F2FF"/>
<path d="M1074.48 128.341H1025.16L1000.56 85.4412V85.2016L1025.16 42.541H1074.48L1099.08 85.4412V85.6809L1074.48 128.341ZM1025.76 127.383H1074L1098.12 85.4412L1074 43.4997H1025.76L1001.64 85.4412L1025.76 127.383Z" fill="#F8F2FF"/>
<path d="M1369.2 128.341H1319.88L1295.28 85.4412V85.2016L1319.88 42.541H1369.2L1393.8 85.4412V85.6809L1369.2 128.341ZM1320.48 127.383H1368.72L1392.84 85.4412L1368.72 43.4997H1320.48L1296.36 85.4412L1320.48 127.383Z" fill="#F8F2FF"/>
<path d="M1440 84.9619H1394.04L1369.92 43.0203L1394.04 1.07878H1440V0.120117H1393.56L1368.96 42.7807L1368.84 43.0203L1393.56 85.8007H1440V84.9619Z" fill="#F8F2FF"/>
<path d="M1097.76 0L1098.12 0.599165L1074 42.5407H1025.76L1001.64 0.599165L1002 0H1000.92L1000.8 0.359499L1000.68 0.599165L1025.28 43.3796H1074.48L1099.08 0.838831L1099.2 0.599165L1098.84 0H1097.76Z" fill="#F8F2FF"/>
<path d="M1392.48 0L1392.72 0.599165L1368.6 42.5407H1320.36L1296.24 0.599165L1296.6 0H1295.52L1295.4 0.359499L1295.28 0.599165L1319.88 43.3796H1369.2L1393.68 0.838831L1393.8 0.599165L1393.44 0H1392.48Z" fill="#F8F2FF"/>
<path d="M1440 0H1394.04H1392.96L1393.56 0.9589H1440V0Z" fill="#F8F2FF"/>
<path opacity="0.23" d="M979.199 718.998L1001.76 679.812H1050L1072.56 718.998H1073.52L1050.48 678.854H1001.28L978.239 718.998H979.199Z" fill="#F8F2FF"/>
<path opacity="0.41" d="M1126.56 718.998L1149 679.812H1197.24L1219.8 718.998H1220.88L1197.84 678.854H1148.52L1125.48 718.998H1126.56Z" fill="#F8F2FF"/>
<path opacity="0.26" d="M1273.8 718.998L1296.36 679.812H1344.6L1367.16 718.998H1368.12L1345.08 678.854H1295.88L1272.84 718.998H1273.8Z" fill="#F8F2FF"/>
<path opacity="0.44" d="M926.759 718.999L903.959 679.334L928.079 637.392H976.319L1000.44 679.334L977.639 718.999H978.719L1001.4 679.573L1001.52 679.334L976.799 636.434H927.599L903.119 679.094L902.999 679.334L925.799 718.999H926.759Z" fill="#F8F2FF"/>
<path opacity="0.43" d="M1074.12 718.999L1051.32 679.334L1075.44 637.392H1123.68L1147.8 679.334L1125 718.999H1125.96L1148.64 679.573L1148.76 679.334L1124.16 636.434H1074.84L1050.36 679.094L1050.24 679.334L1073.04 718.999H1074.12Z" fill="#F8F2FF"/>
<path opacity="0.82" d="M1221.36 718.999L1198.56 679.334L1222.68 637.392H1270.92L1295.04 679.334L1272.24 718.999H1273.32L1296 679.573L1296.12 679.334L1271.52 636.434H1222.2L1197.72 679.094L1197.6 679.334L1220.4 718.999H1221.36Z" fill="#F8F2FF"/>
<path opacity="0.5" d="M1440 683.403L1419.6 718.994H1420.56L1440 685.321V683.403Z" fill="#F8F2FF"/>
<path opacity="0.28" d="M1368.72 718.998L1345.92 679.333L1370.04 637.391H1418.28L1440 675.258V673.461L1418.76 636.433H1369.44L1344.96 679.093L1344.84 679.333L1367.64 718.998H1368.72Z" fill="#F8F2FF"/>
<path opacity="0.41" d="M1050.48 679.812H1001.16L976.558 636.912V636.672L1001.16 594.012H1050.48L1075.08 636.912V637.152L1050.48 679.812ZM1001.76 678.854H1050L1074.12 636.912L1050 594.97H1001.76L977.638 636.912L1001.76 678.854Z" fill="#F8F2FF"/>
<path opacity="0.25" d="M1197.84 679.812H1148.52L1123.92 636.912V636.672L1148.52 594.012H1197.84L1222.44 636.912V637.152L1197.84 679.812ZM1149.12 678.854H1197.36L1221.48 636.912L1197.36 594.97H1149.12L1125 636.912L1149.12 678.854Z" fill="#F8F2FF"/>
<path opacity="0.27" d="M1345.08 679.812H1295.76L1271.16 636.912V636.672L1295.76 594.012H1345.08L1369.68 636.912V637.152L1345.08 679.812ZM1296.36 678.854H1344.6L1368.72 636.912L1344.6 594.97H1296.36L1272.24 636.912L1296.36 678.854Z" fill="#F8F2FF"/>
<path opacity="0.29" d="M1271.52 637.271H1222.2L1197.6 594.371V594.131L1222.2 551.471H1271.52L1296.12 594.371V594.611L1271.52 637.271ZM1222.8 636.312H1271.04L1295.16 594.371L1271.04 552.429H1222.8L1198.68 594.371L1222.8 636.312Z" fill="#F8F2FF"/>
<path opacity="0.65" d="M1440 598.566L1418.28 636.434H1370.04L1345.92 594.492L1370.04 552.55H1418.28L1440 590.298V588.5L1418.76 551.592H1369.44L1344.96 594.252L1344.84 594.492L1369.44 637.272H1418.76L1440 600.364V598.566Z" fill="#F8F2FF"/>
<path opacity="0.99" d="M1197.84 594.851H1148.52L1123.92 551.951V551.711L1148.52 509.051H1197.84L1222.44 551.951V552.191L1197.84 594.851ZM1149.12 593.893H1197.36L1221.48 551.951L1197.36 510.009H1149.12L1125 551.951L1149.12 593.893Z" fill="#F8F2FF"/>
<path opacity="0.4" d="M1345.08 594.851H1295.76L1271.16 551.951V551.711L1295.76 509.051H1345.08L1369.68 551.951V552.191L1345.08 594.851ZM1296.36 593.893H1344.6L1368.72 551.951L1344.6 510.009H1296.36L1272.24 551.951L1296.36 593.893Z" fill="#F8F2FF"/>
<path opacity="0.32" d="M1271.52 552.431H1222.2L1197.6 509.531V509.291L1222.2 466.631H1271.52L1296.12 509.531V509.771L1271.52 552.431ZM1222.8 551.473H1271.04L1295.16 509.531L1271.04 467.59H1222.8L1198.68 509.531L1222.8 551.473Z" fill="#F8F2FF"/>
<path opacity="0.95" d="M1440 513.722L1418.28 551.589H1370.04L1345.92 509.647L1370.04 467.706H1418.28L1440 505.453V503.656L1418.76 466.747H1369.44L1344.96 509.408L1344.84 509.647L1369.44 552.428H1418.76L1440 515.519V513.722Z" fill="#F8F2FF"/>
<path opacity="0.74" d="M1050.48 510.009H1001.16L976.558 467.109V466.87L1001.16 424.209H1050.48L1075.08 467.109V467.349L1050.48 510.009ZM1001.76 509.051H1050L1074.12 467.109L1050 425.168H1001.76L977.638 467.109L1001.76 509.051Z" fill="#F8F2FF"/>
<path opacity="0.49" d="M1197.84 510.009H1148.52L1123.92 467.109V466.87L1148.52 424.209H1197.84L1222.44 467.109V467.349L1197.84 510.009ZM1149.12 509.051H1197.36L1221.48 467.109L1197.36 425.168H1149.12L1125 467.109L1149.12 509.051Z" fill="#F8F2FF"/>
<path opacity="0.99" d="M1345.08 510.009H1295.76L1271.16 467.109V466.87L1295.76 424.209H1345.08L1369.68 467.109V467.349L1345.08 510.009ZM1296.36 509.051H1344.6L1368.72 467.109L1344.6 425.168H1296.36L1272.24 467.109L1296.36 509.051Z" fill="#F8F2FF"/>
<path opacity="0.74" d="M1124.16 467.588H1074.84L1050.24 424.687V424.448L1074.84 381.787H1124.16L1148.76 424.687V424.927L1124.16 467.588ZM1075.44 466.629H1123.68L1147.8 424.687L1123.68 382.746H1075.44L1051.32 424.687L1075.44 466.629Z" fill="#F8F2FF"/>
<path opacity="0.98" d="M1271.52 467.588H1222.2L1197.6 424.687V424.448L1222.2 381.787H1271.52L1296.12 424.687V424.927L1271.52 467.588ZM1222.8 466.629H1271.04L1295.16 424.687L1271.04 382.746H1222.8L1198.68 424.687L1222.8 466.629Z" fill="#F8F2FF"/>
<path opacity="0.41" d="M1440 428.885L1418.28 466.752H1370.04L1345.92 424.691L1370.04 382.749H1418.28L1440 420.616V418.819L1418.76 381.91H1369.44L1344.96 424.571L1344.84 424.691L1369.44 467.591H1418.76L1440 430.682V428.885Z" fill="#F8F2FF"/>
<path opacity="0.24" d="M1050.48 425.167H1001.16L976.558 382.266V382.027L1001.16 339.366H1050.48L1075.08 382.266V382.506L1050.48 425.167ZM1001.76 424.208H1050L1074.12 382.266L1050 340.325H1001.76L977.638 382.266L1001.76 424.208Z" fill="#F8F2FF"/>
<path opacity="0.24" d="M1197.84 425.167H1148.52L1123.92 382.266V382.027L1148.52 339.366H1197.84L1222.44 382.266V382.506L1197.84 425.167ZM1149.12 424.208H1197.36L1221.48 382.266L1197.36 340.325H1149.12L1125 382.266L1149.12 424.208Z" fill="#F8F2FF"/>
<path opacity="0.98" d="M1345.08 425.167H1295.76L1271.16 382.266V382.027L1295.76 339.366H1345.08L1369.68 382.266V382.506L1345.08 425.167ZM1296.36 424.208H1344.6L1368.72 382.266L1344.6 340.325H1296.36L1272.24 382.266L1296.36 424.208Z" fill="#F8F2FF"/>
<path opacity="0.74" d="M1124.16 382.746H1074.84L1050.24 339.846V339.606L1074.84 296.945H1124.16L1148.76 339.846V340.085L1124.16 382.746ZM1075.44 381.787H1123.68L1147.8 339.846L1123.68 297.904H1075.44L1051.32 339.846L1075.44 381.787Z" fill="#F8F2FF"/>
<path opacity="0.64" d="M1271.52 382.746H1222.2L1197.6 339.846V339.606L1222.2 296.945H1271.52L1296.12 339.846V340.085L1271.52 382.746ZM1222.8 381.787H1271.04L1295.16 339.846L1271.04 297.904H1222.8L1198.68 339.846L1222.8 381.787Z" fill="#F8F2FF"/>
<path opacity="0.63" d="M1440 344.043L1418.28 381.79H1370.04L1345.92 339.849L1370.04 297.907H1418.28L1440 335.774V333.977L1418.76 297.068H1369.44L1344.96 339.609L1344.84 339.849L1369.44 382.749H1418.76L1440 345.84V344.043Z" fill="#F8F2FF"/>
<path opacity="0.82" d="M1197.84 340.324H1148.52L1123.92 297.424V297.184L1148.52 254.523H1197.84L1222.44 297.424V297.663L1197.84 340.324ZM1149.12 339.365H1197.36L1221.48 297.424L1197.36 255.482H1149.12L1125 297.424L1149.12 339.365Z" fill="#F8F2FF"/>
<path opacity="0.66" d="M1345.08 340.324H1295.76L1271.16 297.424V297.184L1295.76 254.523H1345.08L1369.68 297.424V297.663L1345.08 340.324ZM1296.36 339.365H1344.6L1368.72 297.424L1344.6 255.482H1296.36L1272.24 297.424L1296.36 339.365Z" fill="#F8F2FF"/>
<path opacity="0.91" d="M1124.16 297.909H1074.84L1050.24 255.009V254.769L1074.84 212.108H1124.16L1148.76 255.009V255.248L1124.16 297.909ZM1075.44 296.95H1123.68L1147.8 255.009L1123.68 213.067H1075.44L1051.32 255.009L1075.44 296.95Z" fill="#F8F2FF"/>
<path opacity="0.33" d="M1271.52 297.909H1222.2L1197.6 255.009V254.769L1222.2 212.108H1271.52L1296.12 255.009V255.248L1271.52 297.909ZM1222.8 296.95H1271.04L1295.16 255.009L1271.04 213.067H1222.8L1198.68 255.009L1222.8 296.95Z" fill="#F8F2FF"/>
<path opacity="0.83" d="M1440 259.2L1418.28 296.948H1370.04L1345.92 255.006L1370.04 213.064H1418.28L1440 250.932V249.134L1418.76 212.226H1369.44L1344.96 254.766L1344.84 255.006L1369.44 297.906H1418.76L1440 260.998V259.2Z" fill="#F8F2FF"/>
<path opacity="0.93" d="M1050.48 255.484H1001.16L976.558 212.584V212.344L1001.16 169.684H1050.48L1075.08 212.584V212.823L1050.48 255.484ZM1001.76 254.525H1050L1074.12 212.584L1050 170.642H1001.76L977.638 212.584L1001.76 254.525Z" fill="#F8F2FF"/>
<path opacity="0.88" d="M1197.84 255.484H1148.52L1123.92 212.584V212.344L1148.52 169.684H1197.84L1222.44 212.584V212.823L1197.84 255.484ZM1149.12 254.525H1197.36L1221.48 212.584L1197.36 170.642H1149.12L1125 212.584L1149.12 254.525Z" fill="#F8F2FF"/>
<path opacity="0.37" d="M1345.08 255.484H1295.76L1271.16 212.584V212.344L1295.76 169.684H1345.08L1369.68 212.584V212.823L1345.08 255.484ZM1296.36 254.525H1344.6L1368.72 212.584L1344.6 170.642H1296.36L1272.24 212.584L1296.36 254.525Z" fill="#F8F2FF"/>
<path opacity="0.81" d="M1124.16 213.062H1074.84L1050.24 170.162V169.922L1074.84 127.262H1124.16L1148.76 170.162V170.402L1124.16 213.062ZM1075.44 212.104H1123.68L1147.8 170.162L1123.68 128.22H1075.44L1051.32 170.162L1075.44 212.104Z" fill="#F8F2FF"/>
<path opacity="0.59" d="M1271.52 213.062H1222.2L1197.6 170.162V169.922L1222.2 127.262H1271.52L1296.12 170.162V170.402L1271.52 213.062ZM1222.8 212.104H1271.04L1295.16 170.162L1271.04 128.22H1222.8L1198.68 170.162L1222.8 212.104Z" fill="#F8F2FF"/>
<path opacity="0.52" d="M1440 174.236L1418.28 212.104H1370.04L1345.92 170.162L1370.04 128.22H1418.28L1440 166.088V164.17L1418.76 127.262H1369.44L1344.96 169.922L1344.84 170.162L1369.44 213.062H1418.76L1440 176.034V174.236Z" fill="#F8F2FF"/>
<path opacity="0.31" d="M1197.84 170.521H1148.52L1123.92 127.621V127.381L1148.52 84.7207H1197.84L1222.44 127.621V127.861L1197.84 170.521ZM1149.12 169.562H1197.36L1221.48 127.621L1197.36 85.6794H1149.12L1125 127.621L1149.12 169.562Z" fill="#F8F2FF"/>
<path opacity="0.7" d="M1345.08 170.521H1295.76L1271.16 127.621V127.381L1295.76 84.7207H1345.08L1369.68 127.621V127.861L1345.08 170.521ZM1296.36 169.562H1344.6L1368.72 127.621L1344.6 85.6794H1296.36L1272.24 127.621L1296.36 169.562Z" fill="#F8F2FF"/>
<path d="M1124.16 128.101H1074.84L1050.24 85.201V84.9613L1074.84 42.3008H1124.16L1148.76 85.201V85.4407L1124.16 128.101ZM1075.44 127.143H1123.68L1147.8 85.201L1123.68 43.2594H1075.44L1051.32 85.201L1075.44 127.143Z" fill="#F8F2FF"/>
<path opacity="0.36" d="M1271.52 128.101H1222.2L1197.6 85.201V84.9613L1222.2 42.3008H1271.52L1296.12 85.201V85.4407L1271.52 128.101ZM1222.8 127.143H1271.04L1295.16 85.201L1271.04 43.2594H1222.8L1198.68 85.201L1222.8 127.143Z" fill="#F8F2FF"/>
<path opacity="0.46" d="M1440 89.3945L1418.28 127.262H1370.04L1345.92 85.3201L1370.04 43.3786H1418.28L1440 81.126V79.3285L1418.76 42.4199H1369.44L1344.96 85.0805L1344.84 85.3201L1369.44 128.101H1418.76L1440 91.192V89.3945Z" fill="#F8F2FF"/>
<path opacity="0.56" d="M1050.48 85.6806H1001.16L976.558 42.7804V42.5407L1001.28 0H1050.6L1075.2 42.9002V43.1399L1050.6 85.8004L1050.48 85.6806ZM1001.76 84.722H1050L1074.12 42.7804L1050 0.958664H1001.76L977.638 42.9002L1001.76 84.8418V84.722Z" fill="#F8F2FF"/>
<path opacity="0.45" d="M1197.84 85.6806H1148.52L1123.92 42.7804V42.5407L1148.52 0H1197.84L1222.44 42.9002V43.1399L1197.84 85.8004V85.6806ZM1149.12 84.722H1197.36L1221.48 42.7804L1197.24 0.958664H1149L1124.88 42.9002L1149 84.8418L1149.12 84.722Z" fill="#F8F2FF"/>
<path opacity="0.89" d="M1345.08 85.6806H1295.76L1271.16 42.7804V42.5407L1295.88 0H1345.2L1369.8 42.9002V43.1399L1345.2 85.8004L1345.08 85.6806ZM1296.36 84.722H1344.6L1368.72 42.7804L1344.6 0.958664H1296.36L1272.24 42.9002L1296.36 84.8418V84.722Z" fill="#F8F2FF"/>
<path opacity="0.55" d="M1000.2 0L1000.44 0.479332L976.319 42.4209H928.079L903.959 0.479332L904.199 0H903.239L903.119 0.239666L902.999 0.479332L927.599 43.2597H976.799L1001.4 0.718998L1001.52 0.479332L1001.28 0H1000.2Z" fill="#F8F2FF"/>
<path opacity="0.84" d="M1147.56 0L1147.8 0.479332L1123.68 42.4209H1075.44L1051.32 0.479332L1051.56 0H1050.48L1050.36 0.239666L1050.24 0.479332L1074.84 43.2597H1124.16L1148.64 0.718998L1148.76 0.479332L1148.52 0H1147.56Z" fill="#F8F2FF"/>
<path opacity="0.55" d="M1294.8 0L1295.04 0.479332L1270.92 42.4209H1222.68L1198.56 0.479332L1198.8 0H1197.84L1197.72 0.239666L1197.6 0.479332L1222.2 43.2597H1271.52L1296 0.718998L1296.12 0.479332L1295.88 0H1294.8Z" fill="#F8F2FF"/>
<path opacity="0.4" d="M1440 4.55366L1418.28 42.4209H1370.04L1345.92 0.479332L1346.16 0H1345.08L1344.96 0.239666L1344.84 0.479332L1369.44 43.2597H1418.76L1440 6.35115V4.55366Z" fill="#F8F2FF"/>
<path d="M215.76 719.002L193.2 758.067H144.96L122.52 719.002H121.56L144.48 758.906H193.8L216.72 719.002H215.76Z" fill="#F8F2FF"/>
<path d="M68.4007 719.002L45.9608 758.067H0.000778198V758.906H46.4408L69.4807 719.002H68.4007Z" fill="#F8F2FF"/>
<path d="M268.322 719L291.002 758.545L266.882 800.487H218.642L194.522 758.545L217.322 719H216.242L193.682 758.305L193.562 758.545L218.162 801.445H267.482L291.962 758.785L292.082 758.545L269.402 719H268.322Z" fill="#F8F2FF"/>
<path d="M120.963 719L143.763 758.545L119.643 800.487H71.403L47.283 758.545L69.963 719H69.003L46.323 758.305L46.203 758.545L70.803 801.445H120.123L144.603 758.785L144.723 758.545L122.043 719H120.963Z" fill="#F8F2FF"/>
<path d="M144.481 758.065H193.801L218.401 800.965V801.205L193.801 843.865H144.481L119.881 800.965V800.725L144.481 758.065ZM193.201 759.023H144.961L120.841 800.965L144.961 842.907H193.201L217.321 800.965L193.201 759.023Z" fill="#F8F2FF"/>
<path d="M-1.52588e-05 759.023H45.96L70.0799 800.965L45.96 842.907H-1.52588e-05V843.865H46.44L71.0399 801.205L71.1599 800.965L46.44 758.065H-1.52588e-05V759.023Z" fill="#F8F2FF"/>
<path d="M218.162 800.489H267.482L292.082 843.389V843.629L267.482 886.289H218.162L193.562 843.389V843.149L218.162 800.489ZM266.882 801.447H218.642L194.522 843.389L218.642 885.33H266.882L291.002 843.389L266.882 801.447Z" fill="#F8F2FF"/>
<path d="M70.803 800.489H120.123L144.723 843.389V843.629L120.123 886.289H70.803L46.203 843.389V843.149L70.803 800.489ZM119.523 801.447H71.283L47.163 843.389L71.283 885.33H119.523L143.643 843.389L119.523 801.447Z" fill="#F8F2FF"/>
<path d="M144.481 842.91H193.801L218.401 885.811V886.05L193.801 928.711H144.481L119.881 885.811V885.571L144.481 842.91ZM193.201 843.869H144.961L120.841 885.811L144.961 927.752H193.201L217.321 885.811L193.201 843.869Z" fill="#F8F2FF"/>
<path d="M-1.52588e-05 843.869H45.96L70.0799 885.811L45.96 927.752H-1.52588e-05V928.711H46.44L71.0399 886.05L71.1599 885.811L46.44 842.91H-1.52588e-05V843.869Z" fill="#F8F2FF"/>
<path d="M218.162 885.452H267.482L292.082 928.352V928.591L267.482 971.252H218.162L193.562 928.352V928.112L218.162 885.452ZM266.882 886.41H218.642L194.522 928.352L218.642 970.293H266.882L291.002 928.352L266.882 886.41Z" fill="#F8F2FF"/>
<path d="M70.803 885.452H120.123L144.723 928.352V928.591L120.123 971.252H70.803L46.203 928.352V928.112L70.803 885.452ZM119.523 886.41H71.283L47.163 928.352L71.283 970.293H119.523L143.643 928.352L119.523 886.41Z" fill="#F8F2FF"/>
<path d="M291.841 927.87H341.161L365.761 970.771V971.01L341.161 1013.67H291.841L267.241 970.771V970.531L291.841 927.87ZM340.561 928.829H292.321L268.201 970.771L292.321 1012.71H340.561L364.681 970.771L340.561 928.829Z" fill="#F8F2FF"/>
<path d="M144.481 927.87H193.801L218.401 970.771V971.01L193.801 1013.67H144.481L119.881 970.771V970.531L144.481 927.87ZM193.201 928.829H144.961L120.841 970.771L144.961 1012.71H193.201L217.321 970.771L193.201 928.829Z" fill="#F8F2FF"/>
<path d="M-1.52588e-05 928.705H45.96L70.0799 970.647L45.96 1012.59H-1.52588e-05V1013.55H46.44L71.0399 970.886L71.1599 970.647L46.44 927.866H-1.52588e-05V928.705Z" fill="#F8F2FF"/>
<path d="M365.521 970.289H414.841L439.441 1013.19V1013.43L414.841 1056.09H365.521L340.921 1013.19V1012.95L365.521 970.289ZM414.241 971.248H366.001L341.881 1013.19L366.001 1055.13H414.241L438.361 1013.19L414.241 971.248Z" fill="#F8F2FF"/>
<path d="M218.162 970.289H267.482L292.082 1013.19V1013.43L267.482 1056.09H218.162L193.562 1013.19V1012.95L218.162 970.289ZM266.882 971.248H218.642L194.522 1013.19L218.642 1055.13H266.882L291.002 1013.19L266.882 971.248Z" fill="#F8F2FF"/>
<path d="M70.803 970.289H120.123L144.723 1013.19V1013.43L120.123 1056.09H70.803L46.203 1013.19V1012.95L70.803 970.289ZM119.523 971.248H71.283L47.163 1013.19L71.283 1055.13H119.523L143.643 1013.19L119.523 971.248Z" fill="#F8F2FF"/>
<path d="M291.841 1012.72H341.161L365.761 1055.62V1055.86L341.161 1098.52H291.841L267.241 1055.62V1055.38L291.841 1012.72ZM340.561 1013.67H292.321L268.201 1055.62L292.321 1097.56H340.561L364.681 1055.62L340.561 1013.67Z" fill="#F8F2FF"/>
<path d="M144.48 1012.72H193.8L218.4 1055.62V1055.86L193.8 1098.52H144.48L119.88 1055.62V1055.38L144.48 1012.72ZM193.2 1013.67H144.96L120.84 1055.62L144.96 1097.56H193.2L217.32 1055.62L193.2 1013.67Z" fill="#F8F2FF"/>
<path d="M-1.52588e-05 1013.55H45.96L70.0799 1055.49L45.96 1097.55H-1.52588e-05V1098.39H46.44L71.0399 1055.73L71.1599 1055.49L46.44 1012.71H-1.52588e-05V1013.55Z" fill="#F8F2FF"/>
<path d="M365.521 1055.13H414.841L439.441 1098.03V1098.27L414.841 1140.93H365.521L340.921 1098.03V1097.79L365.521 1055.13ZM414.241 1056.09H366.001L341.881 1098.03L366.001 1139.97H414.241L438.361 1098.03L414.241 1056.09Z" fill="#F8F2FF"/>
<path d="M218.162 1055.13H267.482L292.082 1098.03V1098.27L267.482 1140.93H218.162L193.562 1098.03V1097.79L218.162 1055.13ZM266.882 1056.09H218.642L194.522 1098.03L218.642 1139.97H266.882L291.002 1098.03L266.882 1056.09Z" fill="#F8F2FF"/>
<path d="M70.803 1055.13H120.123L144.723 1098.03V1098.27L120.123 1140.93H70.803L46.203 1098.03V1097.79L70.803 1055.13ZM119.523 1056.09H71.283L47.163 1098.03L71.283 1139.97H119.523L143.643 1098.03L119.523 1056.09Z" fill="#F8F2FF"/>
<path d="M291.841 1097.56H341.161L365.761 1140.46V1140.69L341.161 1183.36H291.841L267.241 1140.46V1140.22L291.841 1097.56ZM340.561 1098.51H292.321L268.201 1140.46L292.321 1182.4H340.561L364.681 1140.46L340.561 1098.51Z" fill="#F8F2FF"/>
<path d="M144.481 1097.56H193.801L218.401 1140.46V1140.69L193.801 1183.36H144.481L119.881 1140.46V1140.22L144.481 1097.56ZM193.201 1098.51H144.961L120.841 1140.46L144.961 1182.4H193.201L217.321 1140.46L193.201 1098.51Z" fill="#F8F2FF"/>
<path d="M-1.52588e-05 1098.52H45.96L70.0799 1140.46L45.96 1182.4H-1.52588e-05V1183.24H46.44L71.0399 1140.7L71.1599 1140.46L46.44 1097.56H-1.52588e-05V1098.52Z" fill="#F8F2FF"/>
<path d="M365.521 1139.97H414.841L439.441 1182.87V1183.11L414.841 1225.77H365.521L340.921 1182.87V1182.63L365.521 1139.97ZM414.241 1140.93H366.001L341.881 1182.87L366.001 1224.81H414.241L438.361 1182.87L414.241 1140.93Z" fill="#F8F2FF"/>
<path d="M218.162 1139.97H267.482L292.082 1182.87V1183.11L267.482 1225.77H218.162L193.562 1182.87V1182.63L218.162 1139.97ZM266.882 1140.93H218.642L194.522 1182.87L218.642 1224.81H266.882L291.002 1182.87L266.882 1140.93Z" fill="#F8F2FF"/>
<path d="M70.803 1139.97H120.123L144.723 1182.87V1183.11L120.123 1225.77H70.803L46.203 1182.87V1182.63L70.803 1139.97ZM119.523 1140.93H71.283L47.163 1182.87L71.283 1224.81H119.523L143.643 1182.87L119.523 1140.93Z" fill="#F8F2FF"/>
<path d="M291.841 1182.4H341.161L365.761 1225.3V1225.54L341.161 1268.2H291.841L267.241 1225.3V1225.06L291.841 1182.4ZM340.561 1183.36H292.321L268.201 1225.3L292.321 1267.24H340.561L364.681 1225.3L340.561 1183.36Z" fill="#F8F2FF"/>
<path d="M144.48 1182.4H193.8L218.4 1225.3V1225.54L193.8 1268.2H144.48L119.88 1225.3V1225.06L144.48 1182.4ZM193.2 1183.36H144.96L120.84 1225.3L144.96 1267.24H193.2L217.32 1225.3L193.2 1183.36Z" fill="#F8F2FF"/>
<path d="M-1.52588e-05 1183.35H45.96L70.0799 1225.3L45.96 1267.24H-1.52588e-05V1268.08H46.44L71.0399 1225.54L71.1599 1225.3L46.44 1182.4H-1.52588e-05V1183.35Z" fill="#F8F2FF"/>
<path d="M365.521 1224.82H414.841L439.441 1267.72V1267.96L414.841 1310.62H365.521L340.921 1267.72V1267.48L365.521 1224.82ZM414.241 1225.78H366.001L341.881 1267.72L366.001 1309.66H414.241L438.361 1267.72L414.241 1225.78Z" fill="#F8F2FF"/>
<path d="M70.803 1224.82H120.123L144.723 1267.72V1267.96L120.123 1310.62H70.803L46.203 1267.72V1267.48L70.803 1224.82ZM119.523 1225.78H71.283L47.163 1267.72L71.283 1309.66H119.523L143.643 1267.72L119.523 1225.78Z" fill="#F8F2FF"/>
<path d="M-1.52588e-05 1268.2H45.96L70.0799 1310.14L45.96 1352.08H-1.52588e-05V1353.04H46.44L71.0399 1310.38L71.1599 1310.14L46.44 1267.24H-1.52588e-05V1268.2Z" fill="#F8F2FF"/>
<path d="M365.521 1309.66H414.841L439.441 1352.56V1352.8L414.841 1395.46H365.521L340.921 1352.56V1352.32L365.521 1309.66ZM414.241 1310.62H366.001L341.881 1352.56L366.001 1394.5H414.241L438.361 1352.56L414.241 1310.62Z" fill="#F8F2FF"/>
<path d="M70.803 1309.66H120.123L144.723 1352.56V1352.8L120.123 1395.46H70.803L46.203 1352.56V1352.32L70.803 1309.66ZM119.523 1310.62H71.283L47.163 1352.56L71.283 1394.5H119.523L143.643 1352.56L119.523 1310.62Z" fill="#F8F2FF"/>
<path d="M-1.52588e-05 1353.04H45.96L70.0799 1394.98L45.96 1436.92H-1.52588e-05V1437.88H46.44L71.0399 1395.22L71.1599 1394.98L46.44 1352.2H-1.52588e-05V1353.04Z" fill="#F8F2FF"/>
<path d="M342.24 1438L341.88 1437.4L366 1395.46H414.24L438.36 1437.4L438 1438H439.08L439.2 1437.64L439.32 1437.4L414.72 1394.62H365.52L340.92 1437.16L340.8 1437.4L341.16 1438H342.24Z" fill="#F8F2FF"/>
<path d="M47.523 1438L47.283 1437.4L71.403 1395.46H119.643L143.763 1437.4L143.403 1438H144.483L144.603 1437.64L144.723 1437.4L120.123 1394.62H70.803L46.323 1437.16L46.203 1437.4L46.563 1438H47.523Z" fill="#F8F2FF"/>
<path d="M0.000354767 1438H45.9603H47.0403L46.4403 1437.04H0.000354767V1438Z" fill="#F8F2FF"/>
<path opacity="0.23" d="M460.801 719.002L438.241 758.188H390.001L367.441 719.002H366.481L389.521 759.146H438.721L461.761 719.002H460.801Z" fill="#F8F2FF"/>
<path opacity="0.41" d="M313.441 719.002L291.001 758.188H242.761L220.201 719.002H219.121L242.161 759.146H291.481L314.521 719.002H313.441Z" fill="#F8F2FF"/>
<path opacity="0.26" d="M166.202 719.002L143.642 758.188H95.4019L72.8419 719.002H71.8819L94.922 759.146H144.122L167.162 719.002H166.202Z" fill="#F8F2FF"/>
<path opacity="0.44" d="M513.241 719.001L536.041 758.666L511.921 800.608H463.681L439.561 758.666L462.361 719.001H461.281L438.601 758.427L438.481 758.666L463.201 801.566H512.401L536.881 758.906L537.001 758.666L514.201 719.001H513.241Z" fill="#F8F2FF"/>
<path opacity="0.43" d="M365.882 719.001L388.682 758.666L364.562 800.608H316.322L292.202 758.666L315.002 719.001H314.042L291.362 758.427L291.242 758.666L315.842 801.566H365.162L389.642 758.906L389.762 758.666L366.962 719.001H365.882Z" fill="#F8F2FF"/>
<path opacity="0.82" d="M218.642 719.001L241.442 758.666L217.322 800.608H169.082L144.962 758.666L167.762 719.001H166.682L144.002 758.427L143.882 758.666L168.482 801.566H217.802L242.282 758.906L242.402 758.666L219.602 719.001H218.642Z" fill="#F8F2FF"/>
<path opacity="0.5" d="M0.00362587 754.597L20.4036 719.006H19.4436L0.00362587 752.679V754.597Z" fill="#F8F2FF"/>
<path opacity="0.28" d="M71.2849 719.002L94.0847 758.667L69.9648 800.609H21.7249L0.00491333 762.742V764.539L21.2448 801.567H70.5648L95.0448 758.907L95.1648 758.667L72.3648 719.002H71.2849Z" fill="#F8F2FF"/>
<path opacity="0.41" d="M389.522 758.188H438.842L463.442 801.088V801.328L438.842 843.988H389.522L364.922 801.088V800.848L389.522 758.188ZM438.242 759.146H390.002L365.882 801.088L390.002 843.03H438.242L462.362 801.088L438.242 759.146Z" fill="#F8F2FF"/>
<path opacity="0.25" d="M242.161 758.188H291.481L316.081 801.088V801.328L291.481 843.988H242.161L217.561 801.088V800.848L242.161 758.188ZM290.881 759.146H242.641L218.521 801.088L242.641 843.03H290.881L315.001 801.088L290.881 759.146Z" fill="#F8F2FF"/>
<path opacity="0.27" d="M94.9212 758.188H144.241L168.841 801.088V801.328L144.241 843.988H94.9212L70.3212 801.088V800.848L94.9212 758.188ZM143.641 759.146H95.4011L71.2812 801.088L95.4011 843.03H143.641L167.761 801.088L143.641 759.146Z" fill="#F8F2FF"/>
<path opacity="0.29" d="M168.482 800.729H217.802L242.402 843.629V843.869L217.802 886.529H168.482L143.882 843.629V843.389L168.482 800.729ZM217.202 801.688H168.962L144.842 843.629L168.962 885.571H217.202L241.322 843.629L217.202 801.688Z" fill="#F8F2FF"/>
<path opacity="0.65" d="M0.00296021 839.434L21.7229 801.566H69.9629L94.0828 843.508L69.9629 885.45H21.7229L0.00296021 847.702V849.5L21.2429 886.408H70.5628L95.0428 843.748L95.1628 843.508L70.5628 800.728H21.2429L0.00296021 837.636V839.434Z" fill="#F8F2FF"/>
<path opacity="0.99" d="M242.161 843.149H291.481L316.081 886.049V886.289L291.481 928.949H242.161L217.561 886.049V885.809L242.161 843.149ZM290.881 844.107H242.641L218.521 886.049L242.641 927.991H290.881L315.001 886.049L290.881 844.107Z" fill="#F8F2FF"/>
<path opacity="0.4" d="M94.9212 843.149H144.241L168.841 886.049V886.289L144.241 928.949H94.9212L70.3212 886.049V885.809L94.9212 843.149ZM143.641 844.107H95.4011L71.2812 886.049L95.4011 927.991H143.641L167.761 886.049L143.641 844.107Z" fill="#F8F2FF"/>
<path opacity="0.32" d="M168.482 885.569H217.802L242.402 928.469V928.709L217.802 971.369H168.482L143.882 928.469V928.229L168.482 885.569ZM217.202 886.527H168.962L144.842 928.469L168.962 970.41H217.202L241.322 928.469L217.202 886.527Z" fill="#F8F2FF"/>
<path opacity="0.95" d="M0.00296021 924.278L21.7229 886.411H69.9629L94.0828 928.353L69.9629 970.294H21.7229L0.00296021 932.547V934.344L21.2429 971.253H70.5628L95.0428 928.592L95.1628 928.353L70.5628 885.572H21.2429L0.00296021 922.481V924.278Z" fill="#F8F2FF"/>
<path opacity="0.74" d="M389.522 927.991H438.842L463.442 970.891V971.13L438.842 1013.79H389.522L364.922 970.891V970.651L389.522 927.991ZM438.242 928.949H390.002L365.882 970.891L390.002 1012.83H438.242L462.362 970.891L438.242 928.949Z" fill="#F8F2FF"/>
<path opacity="0.49" d="M242.161 927.991H291.481L316.081 970.891V971.13L291.481 1013.79H242.161L217.561 970.891V970.651L242.161 927.991ZM290.881 928.949H242.641L218.521 970.891L242.641 1012.83H290.881L315.001 970.891L290.881 928.949Z" fill="#F8F2FF"/>
<path opacity="0.99" d="M94.9212 927.991H144.241L168.841 970.891V971.13L144.241 1013.79H94.9212L70.3212 970.891V970.651L94.9212 927.991ZM143.641 928.949H95.4011L71.2812 970.891L95.4011 1012.83H143.641L167.761 970.891L143.641 928.949Z" fill="#F8F2FF"/>
<path opacity="0.74" d="M315.842 970.412H365.162L389.762 1013.31V1013.55L365.162 1056.21H315.842L291.242 1013.31V1013.07L315.842 970.412ZM364.562 971.371H316.322L292.202 1013.31L316.322 1055.25H364.562L388.682 1013.31L364.562 971.371Z" fill="#F8F2FF"/>
<path opacity="0.98" d="M168.482 970.412H217.802L242.402 1013.31V1013.55L217.802 1056.21H168.482L143.882 1013.31V1013.07L168.482 970.412ZM217.202 971.371H168.962L144.842 1013.31L168.962 1055.25H217.202L241.322 1013.31L217.202 971.371Z" fill="#F8F2FF"/>
<path opacity="0.41" d="M0.00296021 1009.12L21.7229 971.248H69.9629L94.0828 1013.31L69.9629 1055.25H21.7229L0.00296021 1017.38V1019.18L21.2429 1056.09H70.5628L95.0428 1013.43L95.1628 1013.31L70.5628 970.409H21.2429L0.00296021 1007.32V1009.12Z" fill="#F8F2FF"/>
<path opacity="0.24" d="M389.522 1012.83H438.842L463.442 1055.73V1055.97L438.842 1098.63H389.522L364.922 1055.73V1055.49L389.522 1012.83ZM438.242 1013.79H390.002L365.882 1055.73L390.002 1097.68H438.242L462.362 1055.73L438.242 1013.79Z" fill="#F8F2FF"/>
<path opacity="0.24" d="M242.161 1012.83H291.481L316.081 1055.73V1055.97L291.481 1098.63H242.161L217.561 1055.73V1055.49L242.161 1012.83ZM290.881 1013.79H242.641L218.521 1055.73L242.641 1097.68H290.881L315.001 1055.73L290.881 1013.79Z" fill="#F8F2FF"/>
<path opacity="0.98" d="M94.9212 1012.83H144.241L168.841 1055.73V1055.97L144.241 1098.63H94.9212L70.3212 1055.73V1055.49L94.9212 1012.83ZM143.641 1013.79H95.4011L71.2812 1055.73L95.4011 1097.68H143.641L167.761 1055.73L143.641 1013.79Z" fill="#F8F2FF"/>
<path opacity="0.74" d="M315.842 1055.25H365.162L389.762 1098.15V1098.39L365.162 1141.05H315.842L291.242 1098.15V1097.91L315.842 1055.25ZM364.562 1056.21H316.322L292.202 1098.15L316.322 1140.1H364.562L388.682 1098.15L364.562 1056.21Z" fill="#F8F2FF"/>
<path opacity="0.64" d="M168.482 1055.25H217.802L242.402 1098.15V1098.39L217.802 1141.05H168.482L143.882 1098.15V1097.91L168.482 1055.25ZM217.202 1056.21H168.962L144.842 1098.15L168.962 1140.1H217.202L241.322 1098.15L217.202 1056.21Z" fill="#F8F2FF"/>
<path opacity="0.63" d="M0.00296021 1093.96L21.7229 1056.21H69.9629L94.0828 1098.15L69.9629 1140.09H21.7229L0.00296021 1102.23V1104.02L21.2429 1140.93H70.5628L95.0428 1098.39L95.1628 1098.15L70.5628 1055.25H21.2429L0.00296021 1092.16V1093.96Z" fill="#F8F2FF"/>
<path opacity="0.82" d="M242.161 1097.68H291.481L316.081 1140.58V1140.82L291.481 1183.48H242.161L217.561 1140.58V1140.34L242.161 1097.68ZM290.881 1098.63H242.641L218.521 1140.58L242.641 1182.52H290.881L315.001 1140.58L290.881 1098.63Z" fill="#F8F2FF"/>
<path opacity="0.66" d="M94.9212 1097.68H144.241L168.841 1140.58V1140.82L144.241 1183.48H94.9212L70.3212 1140.58V1140.34L94.9212 1097.68ZM143.641 1098.63H95.4011L71.2812 1140.58L95.4011 1182.52H143.641L167.761 1140.58L143.641 1098.63Z" fill="#F8F2FF"/>
<path opacity="0.91" d="M315.842 1140.09H365.162L389.762 1182.99V1183.23L365.162 1225.89H315.842L291.242 1182.99V1182.75L315.842 1140.09ZM364.562 1141.05H316.322L292.202 1182.99L316.322 1224.93H364.562L388.682 1182.99L364.562 1141.05Z" fill="#F8F2FF"/>
<path opacity="0.33" d="M168.482 1140.09H217.802L242.402 1182.99V1183.23L217.802 1225.89H168.482L143.882 1182.99V1182.75L168.482 1140.09ZM217.202 1141.05H168.962L144.842 1182.99L168.962 1224.93H217.202L241.322 1182.99L217.202 1141.05Z" fill="#F8F2FF"/>
<path opacity="0.83" d="M0.00296021 1178.8L21.7229 1141.05H69.9629L94.0828 1182.99L69.9629 1224.94H21.7229L0.00296021 1187.07V1188.87L21.2429 1225.77H70.5628L95.0428 1183.23L95.1628 1182.99L70.5628 1140.09H21.2429L0.00296021 1177V1178.8Z" fill="#F8F2FF"/>
<path opacity="0.93" d="M389.522 1182.52H438.842L463.442 1225.42V1225.66L438.842 1268.32H389.522L364.922 1225.42V1225.18L389.522 1182.52ZM438.242 1183.47H390.002L365.882 1225.42L390.002 1267.36H438.242L462.362 1225.42L438.242 1183.47Z" fill="#F8F2FF"/>
<path opacity="0.88" d="M242.161 1182.52H291.481L316.081 1225.42V1225.66L291.481 1268.32H242.161L217.561 1225.42V1225.18L242.161 1182.52ZM290.881 1183.47H242.641L218.521 1225.42L242.641 1267.36H290.881L315.001 1225.42L290.881 1183.47Z" fill="#F8F2FF"/>
<path opacity="0.37" d="M94.9212 1182.52H144.241L168.841 1225.42V1225.66L144.241 1268.32H94.9212L70.3212 1225.42V1225.18L94.9212 1182.52ZM143.641 1183.47H95.4011L71.2812 1225.42L95.4011 1267.36H143.641L167.761 1225.42L143.641 1183.47Z" fill="#F8F2FF"/>
<path opacity="0.81" d="M315.842 1224.94H365.162L389.762 1267.84V1268.08L365.162 1310.74H315.842L291.242 1267.84V1267.6L315.842 1224.94ZM364.562 1225.9H316.322L292.202 1267.84L316.322 1309.78H364.562L388.682 1267.84L364.562 1225.9Z" fill="#F8F2FF"/>
<path opacity="0.59" d="M168.482 1224.94H217.802L242.402 1267.84V1268.08L217.802 1310.74H168.482L143.882 1267.84V1267.6L168.482 1224.94ZM217.202 1225.9H168.962L144.842 1267.84L168.962 1309.78H217.202L241.322 1267.84L217.202 1225.9Z" fill="#F8F2FF"/>
<path opacity="0.52" d="M0.00296021 1263.76L21.7229 1225.9H69.9629L94.0828 1267.84L69.9629 1309.78H21.7229L0.00296021 1271.91V1273.83L21.2429 1310.74H70.5628L95.0428 1268.08L95.1628 1267.84L70.5628 1224.94H21.2429L0.00296021 1261.97V1263.76Z" fill="#F8F2FF"/>
<path opacity="0.31" d="M242.161 1267.48H291.481L316.081 1310.38V1310.62L291.481 1353.28H242.161L217.561 1310.38V1310.14L242.161 1267.48ZM290.881 1268.44H242.641L218.521 1310.38L242.641 1352.32H290.881L315.001 1310.38L290.881 1268.44Z" fill="#F8F2FF"/>
<path opacity="0.7" d="M94.9212 1267.48H144.241L168.841 1310.38V1310.62L144.241 1353.28H94.9212L70.3212 1310.38V1310.14L94.9212 1267.48ZM143.641 1268.44H95.4011L71.2812 1310.38L95.4011 1352.32H143.641L167.761 1310.38L143.641 1268.44Z" fill="#F8F2FF"/>
<path d="M315.842 1309.9H365.162L389.762 1352.8V1353.04L365.162 1395.7H315.842L291.242 1352.8V1352.56L315.842 1309.9ZM364.562 1310.86H316.322L292.202 1352.8L316.322 1394.74H364.562L388.682 1352.8L364.562 1310.86Z" fill="#F8F2FF"/>
<path opacity="0.36" d="M168.482 1309.9H217.802L242.402 1352.8V1353.04L217.802 1395.7H168.482L143.882 1352.8V1352.56L168.482 1309.9ZM217.202 1310.86H168.962L144.842 1352.8L168.962 1394.74H217.202L241.322 1352.8L217.202 1310.86Z" fill="#F8F2FF"/>
<path opacity="0.46" d="M0.00296021 1348.61L21.7229 1310.74H69.9629L94.0828 1352.68L69.9629 1394.62H21.7229L0.00296021 1356.87V1358.67L21.2429 1395.58H70.5628L95.0428 1352.92L95.1628 1352.68L70.5628 1309.9H21.2429L0.00296021 1346.81V1348.61Z" fill="#F8F2FF"/>
<path opacity="0.56" d="M389.522 1352.32H438.842L463.442 1395.22V1395.46L438.722 1438H389.402L364.802 1395.1V1394.86L389.402 1352.2L389.522 1352.32ZM438.242 1353.28H390.002L365.882 1395.22L390.002 1437.04H438.242L462.362 1395.1L438.242 1353.16V1353.28Z" fill="#F8F2FF"/>
<path opacity="0.45" d="M242.161 1352.32H291.481L316.081 1395.22V1395.46L291.481 1438H242.161L217.561 1395.1V1394.86L242.161 1352.2V1352.32ZM290.881 1353.28H242.641L218.521 1395.22L242.761 1437.04H291.001L315.121 1395.1L291.001 1353.16L290.881 1353.28Z" fill="#F8F2FF"/>
<path opacity="0.89" d="M94.9212 1352.32H144.241L168.841 1395.22V1395.46L144.121 1438H94.8011L70.2011 1395.1V1394.86L94.8011 1352.2L94.9212 1352.32ZM143.641 1353.28H95.4011L71.2812 1395.22L95.4011 1437.04H143.641L167.761 1395.1L143.641 1353.16V1353.28Z" fill="#F8F2FF"/>
<path opacity="0.55" d="M439.801 1438L439.561 1437.52L463.681 1395.58H511.921L536.041 1437.52L535.801 1438H536.761L536.881 1437.76L537.001 1437.52L512.401 1394.74H463.201L438.601 1437.28L438.481 1437.52L438.721 1438H439.801Z" fill="#F8F2FF"/>
<path opacity="0.84" d="M292.442 1438L292.202 1437.52L316.322 1395.58H364.562L388.682 1437.52L388.442 1438H389.522L389.642 1437.76L389.762 1437.52L365.162 1394.74H315.842L291.362 1437.28L291.242 1437.52L291.482 1438H292.442Z" fill="#F8F2FF"/>
<path opacity="0.55" d="M145.202 1438L144.962 1437.52L169.082 1395.58H217.322L241.442 1437.52L241.202 1438H242.162L242.282 1437.76L242.402 1437.52L217.802 1394.74H168.482L144.002 1437.28L143.882 1437.52L144.122 1438H145.202Z" fill="#F8F2FF"/>
<path opacity="0.4" d="M0.00296021 1433.45L21.7229 1395.58H69.9629L94.0828 1437.52L93.8428 1438H94.9229L95.0428 1437.76L95.1628 1437.52L70.5628 1394.74H21.2429L0.00296021 1431.65V1433.45Z" fill="#F8F2FF"/>
<path d="M1224.24 719.002L1246.8 758.067H1295.04L1317.48 719.002H1318.44L1295.52 758.906H1246.2L1223.28 719.002H1224.24Z" fill="#F8F2FF"/>
<path d="M1371.6 719.002L1394.04 758.067H1440V758.906H1393.56L1370.52 719.002H1371.6Z" fill="#F8F2FF"/>
<path d="M1171.68 719L1149 758.545L1173.12 800.487H1221.36L1245.48 758.545L1222.68 719H1223.76L1246.32 758.305L1246.44 758.545L1221.84 801.445H1172.52L1148.04 758.785L1147.92 758.545L1170.6 719H1171.68Z" fill="#F8F2FF"/>
<path d="M1319.04 719L1296.24 758.545L1320.36 800.487H1368.6L1392.72 758.545L1370.04 719H1371L1393.68 758.305L1393.8 758.545L1369.2 801.445H1319.88L1295.4 758.785L1295.28 758.545L1317.96 719H1319.04Z" fill="#F8F2FF"/>
<path d="M1295.52 758.065H1246.2L1221.6 800.965V801.205L1246.2 843.865H1295.52L1320.12 800.965V800.725L1295.52 758.065ZM1246.8 759.023H1295.04L1319.16 800.965L1295.04 842.907H1246.8L1222.68 800.965L1246.8 759.023Z" fill="#F8F2FF"/>
<path d="M1440 759.023H1394.04L1369.92 800.965L1394.04 842.907H1440V843.865H1393.56L1368.96 801.205L1368.84 800.965L1393.56 758.065H1440V759.023Z" fill="#F8F2FF"/>
<path d="M1221.84 800.489H1172.52L1147.92 843.389V843.629L1172.52 886.289H1221.84L1246.44 843.389V843.149L1221.84 800.489ZM1173.12 801.447H1221.36L1245.48 843.389L1221.36 885.33H1173.12L1149 843.389L1173.12 801.447Z" fill="#F8F2FF"/>
<path d="M1369.2 800.489H1319.88L1295.28 843.389V843.629L1319.88 886.289H1369.2L1393.8 843.389V843.149L1369.2 800.489ZM1320.48 801.447H1368.72L1392.84 843.389L1368.72 885.33H1320.48L1296.36 843.389L1320.48 801.447Z" fill="#F8F2FF"/>
<path d="M1295.52 842.91H1246.2L1221.6 885.811V886.05L1246.2 928.711H1295.52L1320.12 885.811V885.571L1295.52 842.91ZM1246.8 843.869H1295.04L1319.16 885.811L1295.04 927.752H1246.8L1222.68 885.811L1246.8 843.869Z" fill="#F8F2FF"/>
<path d="M1440 843.869H1394.04L1369.92 885.811L1394.04 927.752H1440V928.711H1393.56L1368.96 886.05L1368.84 885.811L1393.56 842.91H1440V843.869Z" fill="#F8F2FF"/>
<path d="M1221.84 885.452H1172.52L1147.92 928.352V928.591L1172.52 971.252H1221.84L1246.44 928.352V928.112L1221.84 885.452ZM1173.12 886.41H1221.36L1245.48 928.352L1221.36 970.293H1173.12L1149 928.352L1173.12 886.41Z" fill="#F8F2FF"/>
<path d="M1369.2 885.452H1319.88L1295.28 928.352V928.591L1319.88 971.252H1369.2L1393.8 928.352V928.112L1369.2 885.452ZM1320.48 886.41H1368.72L1392.84 928.352L1368.72 970.293H1320.48L1296.36 928.352L1320.48 886.41Z" fill="#F8F2FF"/>
<path d="M1148.16 927.87H1098.84L1074.24 970.771V971.01L1098.84 1013.67H1148.16L1172.76 970.771V970.531L1148.16 927.87ZM1099.44 928.829H1147.68L1171.8 970.771L1147.68 1012.71H1099.44L1075.32 970.771L1099.44 928.829Z" fill="#F8F2FF"/>
<path d="M1295.52 927.87H1246.2L1221.6 970.771V971.01L1246.2 1013.67H1295.52L1320.12 970.771V970.531L1295.52 927.87ZM1246.8 928.829H1295.04L1319.16 970.771L1295.04 1012.71H1246.8L1222.68 970.771L1246.8 928.829Z" fill="#F8F2FF"/>
<path d="M1440 928.705H1394.04L1369.92 970.647L1394.04 1012.59H1440V1013.55H1393.56L1368.96 970.886L1368.84 970.647L1393.56 927.866H1440V928.705Z" fill="#F8F2FF"/>
<path d="M1074.48 970.289H1025.16L1000.56 1013.19V1013.43L1025.16 1056.09H1074.48L1099.08 1013.19V1012.95L1074.48 970.289ZM1025.76 971.248H1074L1098.12 1013.19L1074 1055.13H1025.76L1001.64 1013.19L1025.76 971.248Z" fill="#F8F2FF"/>
<path d="M1221.84 970.289H1172.52L1147.92 1013.19V1013.43L1172.52 1056.09H1221.84L1246.44 1013.19V1012.95L1221.84 970.289ZM1173.12 971.248H1221.36L1245.48 1013.19L1221.36 1055.13H1173.12L1149 1013.19L1173.12 971.248Z" fill="#F8F2FF"/>
<path d="M1369.2 970.289H1319.88L1295.28 1013.19V1013.43L1319.88 1056.09H1369.2L1393.8 1013.19V1012.95L1369.2 970.289ZM1320.48 971.248H1368.72L1392.84 1013.19L1368.72 1055.13H1320.48L1296.36 1013.19L1320.48 971.248Z" fill="#F8F2FF"/>
<path d="M1148.16 1012.72H1098.84L1074.24 1055.62V1055.86L1098.84 1098.52H1148.16L1172.76 1055.62V1055.38L1148.16 1012.72ZM1099.44 1013.67H1147.68L1171.8 1055.62L1147.68 1097.56H1099.44L1075.32 1055.62L1099.44 1013.67Z" fill="#F8F2FF"/>
<path d="M1295.52 1012.72H1246.2L1221.6 1055.62V1055.86L1246.2 1098.52H1295.52L1320.12 1055.62V1055.38L1295.52 1012.72ZM1246.8 1013.67H1295.04L1319.16 1055.62L1295.04 1097.56H1246.8L1222.68 1055.62L1246.8 1013.67Z" fill="#F8F2FF"/>
<path d="M1440 1013.55H1394.04L1369.92 1055.49L1394.04 1097.55H1440V1098.39H1393.56L1368.96 1055.73L1368.84 1055.49L1393.56 1012.71H1440V1013.55Z" fill="#F8F2FF"/>
<path d="M1074.48 1055.13H1025.16L1000.56 1098.03V1098.27L1025.16 1140.93H1074.48L1099.08 1098.03V1097.79L1074.48 1055.13ZM1025.76 1056.09H1074L1098.12 1098.03L1074 1139.97H1025.76L1001.64 1098.03L1025.76 1056.09Z" fill="#F8F2FF"/>
<path d="M1221.84 1055.13H1172.52L1147.92 1098.03V1098.27L1172.52 1140.93H1221.84L1246.44 1098.03V1097.79L1221.84 1055.13ZM1173.12 1056.09H1221.36L1245.48 1098.03L1221.36 1139.97H1173.12L1149 1098.03L1173.12 1056.09Z" fill="#F8F2FF"/>
<path d="M1369.2 1055.13H1319.88L1295.28 1098.03V1098.27L1319.88 1140.93H1369.2L1393.8 1098.03V1097.79L1369.2 1055.13ZM1320.48 1056.09H1368.72L1392.84 1098.03L1368.72 1139.97H1320.48L1296.36 1098.03L1320.48 1056.09Z" fill="#F8F2FF"/>
<path d="M1148.16 1097.56H1098.84L1074.24 1140.46V1140.69L1098.84 1183.36H1148.16L1172.76 1140.46V1140.22L1148.16 1097.56ZM1099.44 1098.51H1147.68L1171.8 1140.46L1147.68 1182.4H1099.44L1075.32 1140.46L1099.44 1098.51Z" fill="#F8F2FF"/>
<path d="M1295.52 1097.56H1246.2L1221.6 1140.46V1140.69L1246.2 1183.36H1295.52L1320.12 1140.46V1140.22L1295.52 1097.56ZM1246.8 1098.51H1295.04L1319.16 1140.46L1295.04 1182.4H1246.8L1222.68 1140.46L1246.8 1098.51Z" fill="#F8F2FF"/>
<path d="M1440 1098.52H1394.04L1369.92 1140.46L1394.04 1182.4H1440V1183.24H1393.56L1368.96 1140.7L1368.84 1140.46L1393.56 1097.56H1440V1098.52Z" fill="#F8F2FF"/>
<path d="M1074.48 1139.97H1025.16L1000.56 1182.87V1183.11L1025.16 1225.77H1074.48L1099.08 1182.87V1182.63L1074.48 1139.97ZM1025.76 1140.93H1074L1098.12 1182.87L1074 1224.81H1025.76L1001.64 1182.87L1025.76 1140.93Z" fill="#F8F2FF"/>
<path d="M1221.84 1139.97H1172.52L1147.92 1182.87V1183.11L1172.52 1225.77H1221.84L1246.44 1182.87V1182.63L1221.84 1139.97ZM1173.12 1140.93H1221.36L1245.48 1182.87L1221.36 1224.81H1173.12L1149 1182.87L1173.12 1140.93Z" fill="#F8F2FF"/>
<path d="M1369.2 1139.97H1319.88L1295.28 1182.87V1183.11L1319.88 1225.77H1369.2L1393.8 1182.87V1182.63L1369.2 1139.97ZM1320.48 1140.93H1368.72L1392.84 1182.87L1368.72 1224.81H1320.48L1296.36 1182.87L1320.48 1140.93Z" fill="#F8F2FF"/>
<path d="M1148.16 1182.4H1098.84L1074.24 1225.3V1225.54L1098.84 1268.2H1148.16L1172.76 1225.3V1225.06L1148.16 1182.4ZM1099.44 1183.36H1147.68L1171.8 1225.3L1147.68 1267.24H1099.44L1075.32 1225.3L1099.44 1183.36Z" fill="#F8F2FF"/>
<path d="M1295.52 1182.4H1246.2L1221.6 1225.3V1225.54L1246.2 1268.2H1295.52L1320.12 1225.3V1225.06L1295.52 1182.4ZM1246.8 1183.36H1295.04L1319.16 1225.3L1295.04 1267.24H1246.8L1222.68 1225.3L1246.8 1183.36Z" fill="#F8F2FF"/>
<path d="M1440 1183.35H1394.04L1369.92 1225.3L1394.04 1267.24H1440V1268.08H1393.56L1368.96 1225.54L1368.84 1225.3L1393.56 1182.4H1440V1183.35Z" fill="#F8F2FF"/>
<path d="M1074.48 1224.82H1025.16L1000.56 1267.72V1267.96L1025.16 1310.62H1074.48L1099.08 1267.72V1267.48L1074.48 1224.82ZM1025.76 1225.78H1074L1098.12 1267.72L1074 1309.66H1025.76L1001.64 1267.72L1025.76 1225.78Z" fill="#F8F2FF"/>
<path d="M1369.2 1224.82H1319.88L1295.28 1267.72V1267.96L1319.88 1310.62H1369.2L1393.8 1267.72V1267.48L1369.2 1224.82ZM1320.48 1225.78H1368.72L1392.84 1267.72L1368.72 1309.66H1320.48L1296.36 1267.72L1320.48 1225.78Z" fill="#F8F2FF"/>
<path d="M1440 1268.2H1394.04L1369.92 1310.14L1394.04 1352.08H1440V1353.04H1393.56L1368.96 1310.38L1368.84 1310.14L1393.56 1267.24H1440V1268.2Z" fill="#F8F2FF"/>
<path d="M1074.48 1309.66H1025.16L1000.56 1352.56V1352.8L1025.16 1395.46H1074.48L1099.08 1352.56V1352.32L1074.48 1309.66ZM1025.76 1310.62H1074L1098.12 1352.56L1074 1394.5H1025.76L1001.64 1352.56L1025.76 1310.62Z" fill="#F8F2FF"/>
<path d="M1369.2 1309.66H1319.88L1295.28 1352.56V1352.8L1319.88 1395.46H1369.2L1393.8 1352.56V1352.32L1369.2 1309.66ZM1320.48 1310.62H1368.72L1392.84 1352.56L1368.72 1394.5H1320.48L1296.36 1352.56L1320.48 1310.62Z" fill="#F8F2FF"/>
<path d="M1440 1353.04H1394.04L1369.92 1394.98L1394.04 1436.92H1440V1437.88H1393.56L1368.96 1395.22L1368.84 1394.98L1393.56 1352.2H1440V1353.04Z" fill="#F8F2FF"/>
<path d="M1097.76 1438L1098.12 1437.4L1074 1395.46H1025.76L1001.64 1437.4L1002 1438H1000.92L1000.8 1437.64L1000.68 1437.4L1025.28 1394.62H1074.48L1099.08 1437.16L1099.2 1437.4L1098.84 1438H1097.76Z" fill="#F8F2FF"/>
<path d="M1392.48 1438L1392.72 1437.4L1368.6 1395.46H1320.36L1296.24 1437.4L1296.6 1438H1295.52L1295.4 1437.64L1295.28 1437.4L1319.88 1394.62H1369.2L1393.68 1437.16L1393.8 1437.4L1393.44 1438H1392.48Z" fill="#F8F2FF"/>
<path d="M1440 1438H1394.04H1392.96L1393.56 1437.04H1440V1438Z" fill="#F8F2FF"/>
<path opacity="0.23" d="M979.199 719.002L1001.76 758.188H1050L1072.56 719.002H1073.52L1050.48 759.146H1001.28L978.239 719.002H979.199Z" fill="#F8F2FF"/>
<path opacity="0.41" d="M1126.56 719.002L1149 758.188H1197.24L1219.8 719.002H1220.88L1197.84 759.146H1148.52L1125.48 719.002H1126.56Z" fill="#F8F2FF"/>
<path opacity="0.26" d="M1273.8 719.002L1296.36 758.188H1344.6L1367.16 719.002H1368.12L1345.08 759.146H1295.88L1272.84 719.002H1273.8Z" fill="#F8F2FF"/>
<path opacity="0.44" d="M926.759 719.001L903.959 758.666L928.079 800.608H976.319L1000.44 758.666L977.639 719.001H978.719L1001.4 758.427L1001.52 758.666L976.799 801.566H927.599L903.119 758.906L902.999 758.666L925.799 719.001H926.759Z" fill="#F8F2FF"/>
<path opacity="0.43" d="M1074.12 719.001L1051.32 758.666L1075.44 800.608H1123.68L1147.8 758.666L1125 719.001H1125.96L1148.64 758.427L1148.76 758.666L1124.16 801.566H1074.84L1050.36 758.906L1050.24 758.666L1073.04 719.001H1074.12Z" fill="#F8F2FF"/>
<path opacity="0.82" d="M1221.36 719.001L1198.56 758.666L1222.68 800.608H1270.92L1295.04 758.666L1272.24 719.001H1273.32L1296 758.427L1296.12 758.666L1271.52 801.566H1222.2L1197.72 758.906L1197.6 758.666L1220.4 719.001H1221.36Z" fill="#F8F2FF"/>
<path opacity="0.5" d="M1440 754.597L1419.6 719.006H1420.56L1440 752.679V754.597Z" fill="#F8F2FF"/>
<path opacity="0.28" d="M1368.72 719.002L1345.92 758.667L1370.04 800.609H1418.28L1440 762.742V764.539L1418.76 801.567H1369.44L1344.96 758.907L1344.84 758.667L1367.64 719.002H1368.72Z" fill="#F8F2FF"/>
<path opacity="0.41" d="M1050.48 758.188H1001.16L976.558 801.088V801.328L1001.16 843.988H1050.48L1075.08 801.088V800.848L1050.48 758.188ZM1001.76 759.146H1050L1074.12 801.088L1050 843.03H1001.76L977.638 801.088L1001.76 759.146Z" fill="#F8F2FF"/>
<path opacity="0.25" d="M1197.84 758.188H1148.52L1123.92 801.088V801.328L1148.52 843.988H1197.84L1222.44 801.088V800.848L1197.84 758.188ZM1149.12 759.146H1197.36L1221.48 801.088L1197.36 843.03H1149.12L1125 801.088L1149.12 759.146Z" fill="#F8F2FF"/>
<path opacity="0.27" d="M1345.08 758.188H1295.76L1271.16 801.088V801.328L1295.76 843.988H1345.08L1369.68 801.088V800.848L1345.08 758.188ZM1296.36 759.146H1344.6L1368.72 801.088L1344.6 843.03H1296.36L1272.24 801.088L1296.36 759.146Z" fill="#F8F2FF"/>
<path opacity="0.29" d="M1271.52 800.729H1222.2L1197.6 843.629V843.869L1222.2 886.529H1271.52L1296.12 843.629V843.389L1271.52 800.729ZM1222.8 801.688H1271.04L1295.16 843.629L1271.04 885.571H1222.8L1198.68 843.629L1222.8 801.688Z" fill="#F8F2FF"/>
<path opacity="0.65" d="M1440 839.434L1418.28 801.566H1370.04L1345.92 843.508L1370.04 885.45H1418.28L1440 847.702V849.5L1418.76 886.408H1369.44L1344.96 843.748L1344.84 843.508L1369.44 800.728H1418.76L1440 837.636V839.434Z" fill="#F8F2FF"/>
<path opacity="0.99" d="M1197.84 843.149H1148.52L1123.92 886.049V886.289L1148.52 928.949H1197.84L1222.44 886.049V885.809L1197.84 843.149ZM1149.12 844.107H1197.36L1221.48 886.049L1197.36 927.991H1149.12L1125 886.049L1149.12 844.107Z" fill="#F8F2FF"/>
<path opacity="0.4" d="M1345.08 843.149H1295.76L1271.16 886.049V886.289L1295.76 928.949H1345.08L1369.68 886.049V885.809L1345.08 843.149ZM1296.36 844.107H1344.6L1368.72 886.049L1344.6 927.991H1296.36L1272.24 886.049L1296.36 844.107Z" fill="#F8F2FF"/>
<path opacity="0.32" d="M1271.52 885.569H1222.2L1197.6 928.469V928.709L1222.2 971.369H1271.52L1296.12 928.469V928.229L1271.52 885.569ZM1222.8 886.527H1271.04L1295.16 928.469L1271.04 970.41H1222.8L1198.68 928.469L1222.8 886.527Z" fill="#F8F2FF"/>
<path opacity="0.95" d="M1440 924.278L1418.28 886.411H1370.04L1345.92 928.353L1370.04 970.294H1418.28L1440 932.547V934.344L1418.76 971.253H1369.44L1344.96 928.592L1344.84 928.353L1369.44 885.572H1418.76L1440 922.481V924.278Z" fill="#F8F2FF"/>
<path opacity="0.74" d="M1050.48 927.991H1001.16L976.558 970.891V971.13L1001.16 1013.79H1050.48L1075.08 970.891V970.651L1050.48 927.991ZM1001.76 928.949H1050L1074.12 970.891L1050 1012.83H1001.76L977.638 970.891L1001.76 928.949Z" fill="#F8F2FF"/>
<path opacity="0.49" d="M1197.84 927.991H1148.52L1123.92 970.891V971.13L1148.52 1013.79H1197.84L1222.44 970.891V970.651L1197.84 927.991ZM1149.12 928.949H1197.36L1221.48 970.891L1197.36 1012.83H1149.12L1125 970.891L1149.12 928.949Z" fill="#F8F2FF"/>
<path opacity="0.99" d="M1345.08 927.991H1295.76L1271.16 970.891V971.13L1295.76 1013.79H1345.08L1369.68 970.891V970.651L1345.08 927.991ZM1296.36 928.949H1344.6L1368.72 970.891L1344.6 1012.83H1296.36L1272.24 970.891L1296.36 928.949Z" fill="#F8F2FF"/>
<path opacity="0.74" d="M1124.16 970.412H1074.84L1050.24 1013.31V1013.55L1074.84 1056.21H1124.16L1148.76 1013.31V1013.07L1124.16 970.412ZM1075.44 971.371H1123.68L1147.8 1013.31L1123.68 1055.25H1075.44L1051.32 1013.31L1075.44 971.371Z" fill="#F8F2FF"/>
<path opacity="0.98" d="M1271.52 970.412H1222.2L1197.6 1013.31V1013.55L1222.2 1056.21H1271.52L1296.12 1013.31V1013.07L1271.52 970.412ZM1222.8 971.371H1271.04L1295.16 1013.31L1271.04 1055.25H1222.8L1198.68 1013.31L1222.8 971.371Z" fill="#F8F2FF"/>
<path opacity="0.41" d="M1440 1009.12L1418.28 971.248H1370.04L1345.92 1013.31L1370.04 1055.25H1418.28L1440 1017.38V1019.18L1418.76 1056.09H1369.44L1344.96 1013.43L1344.84 1013.31L1369.44 970.409H1418.76L1440 1007.32V1009.12Z" fill="#F8F2FF"/>
<path opacity="0.24" d="M1050.48 1012.83H1001.16L976.558 1055.73V1055.97L1001.16 1098.63H1050.48L1075.08 1055.73V1055.49L1050.48 1012.83ZM1001.76 1013.79H1050L1074.12 1055.73L1050 1097.68H1001.76L977.638 1055.73L1001.76 1013.79Z" fill="#F8F2FF"/>
<path opacity="0.24" d="M1197.84 1012.83H1148.52L1123.92 1055.73V1055.97L1148.52 1098.63H1197.84L1222.44 1055.73V1055.49L1197.84 1012.83ZM1149.12 1013.79H1197.36L1221.48 1055.73L1197.36 1097.68H1149.12L1125 1055.73L1149.12 1013.79Z" fill="#F8F2FF"/>
<path opacity="0.98" d="M1345.08 1012.83H1295.76L1271.16 1055.73V1055.97L1295.76 1098.63H1345.08L1369.68 1055.73V1055.49L1345.08 1012.83ZM1296.36 1013.79H1344.6L1368.72 1055.73L1344.6 1097.68H1296.36L1272.24 1055.73L1296.36 1013.79Z" fill="#F8F2FF"/>
<path opacity="0.74" d="M1124.16 1055.25H1074.84L1050.24 1098.15V1098.39L1074.84 1141.05H1124.16L1148.76 1098.15V1097.91L1124.16 1055.25ZM1075.44 1056.21H1123.68L1147.8 1098.15L1123.68 1140.1H1075.44L1051.32 1098.15L1075.44 1056.21Z" fill="#F8F2FF"/>
<path opacity="0.64" d="M1271.52 1055.25H1222.2L1197.6 1098.15V1098.39L1222.2 1141.05H1271.52L1296.12 1098.15V1097.91L1271.52 1055.25ZM1222.8 1056.21H1271.04L1295.16 1098.15L1271.04 1140.1H1222.8L1198.68 1098.15L1222.8 1056.21Z" fill="#F8F2FF"/>
<path opacity="0.63" d="M1440 1093.96L1418.28 1056.21H1370.04L1345.92 1098.15L1370.04 1140.09H1418.28L1440 1102.23V1104.02L1418.76 1140.93H1369.44L1344.96 1098.39L1344.84 1098.15L1369.44 1055.25H1418.76L1440 1092.16V1093.96Z" fill="#F8F2FF"/>
<path opacity="0.82" d="M1197.84 1097.68H1148.52L1123.92 1140.58V1140.82L1148.52 1183.48H1197.84L1222.44 1140.58V1140.34L1197.84 1097.68ZM1149.12 1098.63H1197.36L1221.48 1140.58L1197.36 1182.52H1149.12L1125 1140.58L1149.12 1098.63Z" fill="#F8F2FF"/>
<path opacity="0.66" d="M1345.08 1097.68H1295.76L1271.16 1140.58V1140.82L1295.76 1183.48H1345.08L1369.68 1140.58V1140.34L1345.08 1097.68ZM1296.36 1098.63H1344.6L1368.72 1140.58L1344.6 1182.52H1296.36L1272.24 1140.58L1296.36 1098.63Z" fill="#F8F2FF"/>
<path opacity="0.91" d="M1124.16 1140.09H1074.84L1050.24 1182.99V1183.23L1074.84 1225.89H1124.16L1148.76 1182.99V1182.75L1124.16 1140.09ZM1075.44 1141.05H1123.68L1147.8 1182.99L1123.68 1224.93H1075.44L1051.32 1182.99L1075.44 1141.05Z" fill="#F8F2FF"/>
<path opacity="0.33" d="M1271.52 1140.09H1222.2L1197.6 1182.99V1183.23L1222.2 1225.89H1271.52L1296.12 1182.99V1182.75L1271.52 1140.09ZM1222.8 1141.05H1271.04L1295.16 1182.99L1271.04 1224.93H1222.8L1198.68 1182.99L1222.8 1141.05Z" fill="#F8F2FF"/>
<path opacity="0.83" d="M1440 1178.8L1418.28 1141.05H1370.04L1345.92 1182.99L1370.04 1224.94H1418.28L1440 1187.07V1188.87L1418.76 1225.77H1369.44L1344.96 1183.23L1344.84 1182.99L1369.44 1140.09H1418.76L1440 1177V1178.8Z" fill="#F8F2FF"/>
<path opacity="0.93" d="M1050.48 1182.52H1001.16L976.558 1225.42V1225.66L1001.16 1268.32H1050.48L1075.08 1225.42V1225.18L1050.48 1182.52ZM1001.76 1183.47H1050L1074.12 1225.42L1050 1267.36H1001.76L977.638 1225.42L1001.76 1183.47Z" fill="#F8F2FF"/>
<path opacity="0.88" d="M1197.84 1182.52H1148.52L1123.92 1225.42V1225.66L1148.52 1268.32H1197.84L1222.44 1225.42V1225.18L1197.84 1182.52ZM1149.12 1183.47H1197.36L1221.48 1225.42L1197.36 1267.36H1149.12L1125 1225.42L1149.12 1183.47Z" fill="#F8F2FF"/>
<path opacity="0.37" d="M1345.08 1182.52H1295.76L1271.16 1225.42V1225.66L1295.76 1268.32H1345.08L1369.68 1225.42V1225.18L1345.08 1182.52ZM1296.36 1183.47H1344.6L1368.72 1225.42L1344.6 1267.36H1296.36L1272.24 1225.42L1296.36 1183.47Z" fill="#F8F2FF"/>
<path opacity="0.81" d="M1124.16 1224.94H1074.84L1050.24 1267.84V1268.08L1074.84 1310.74H1124.16L1148.76 1267.84V1267.6L1124.16 1224.94ZM1075.44 1225.9H1123.68L1147.8 1267.84L1123.68 1309.78H1075.44L1051.32 1267.84L1075.44 1225.9Z" fill="#F8F2FF"/>
<path opacity="0.59" d="M1271.52 1224.94H1222.2L1197.6 1267.84V1268.08L1222.2 1310.74H1271.52L1296.12 1267.84V1267.6L1271.52 1224.94ZM1222.8 1225.9H1271.04L1295.16 1267.84L1271.04 1309.78H1222.8L1198.68 1267.84L1222.8 1225.9Z" fill="#F8F2FF"/>
<path opacity="0.52" d="M1440 1263.76L1418.28 1225.9H1370.04L1345.92 1267.84L1370.04 1309.78H1418.28L1440 1271.91V1273.83L1418.76 1310.74H1369.44L1344.96 1268.08L1344.84 1267.84L1369.44 1224.94H1418.76L1440 1261.97V1263.76Z" fill="#F8F2FF"/>
<path opacity="0.31" d="M1197.84 1267.48H1148.52L1123.92 1310.38V1310.62L1148.52 1353.28H1197.84L1222.44 1310.38V1310.14L1197.84 1267.48ZM1149.12 1268.44H1197.36L1221.48 1310.38L1197.36 1352.32H1149.12L1125 1310.38L1149.12 1268.44Z" fill="#F8F2FF"/>
<path opacity="0.7" d="M1345.08 1267.48H1295.76L1271.16 1310.38V1310.62L1295.76 1353.28H1345.08L1369.68 1310.38V1310.14L1345.08 1267.48ZM1296.36 1268.44H1344.6L1368.72 1310.38L1344.6 1352.32H1296.36L1272.24 1310.38L1296.36 1268.44Z" fill="#F8F2FF"/>
<path d="M1124.16 1309.9H1074.84L1050.24 1352.8V1353.04L1074.84 1395.7H1124.16L1148.76 1352.8V1352.56L1124.16 1309.9ZM1075.44 1310.86H1123.68L1147.8 1352.8L1123.68 1394.74H1075.44L1051.32 1352.8L1075.44 1310.86Z" fill="#F8F2FF"/>
<path opacity="0.36" d="M1271.52 1309.9H1222.2L1197.6 1352.8V1353.04L1222.2 1395.7H1271.52L1296.12 1352.8V1352.56L1271.52 1309.9ZM1222.8 1310.86H1271.04L1295.16 1352.8L1271.04 1394.74H1222.8L1198.68 1352.8L1222.8 1310.86Z" fill="#F8F2FF"/>
<path opacity="0.46" d="M1440 1348.61L1418.28 1310.74H1370.04L1345.92 1352.68L1370.04 1394.62H1418.28L1440 1356.87V1358.67L1418.76 1395.58H1369.44L1344.96 1352.92L1344.84 1352.68L1369.44 1309.9H1418.76L1440 1346.81V1348.61Z" fill="#F8F2FF"/>
<path opacity="0.56" d="M1050.48 1352.32H1001.16L976.558 1395.22V1395.46L1001.28 1438H1050.6L1075.2 1395.1V1394.86L1050.6 1352.2L1050.48 1352.32ZM1001.76 1353.28H1050L1074.12 1395.22L1050 1437.04H1001.76L977.638 1395.1L1001.76 1353.16V1353.28Z" fill="#F8F2FF"/>
<path opacity="0.45" d="M1197.84 1352.32H1148.52L1123.92 1395.22V1395.46L1148.52 1438H1197.84L1222.44 1395.1V1394.86L1197.84 1352.2V1352.32ZM1149.12 1353.28H1197.36L1221.48 1395.22L1197.24 1437.04H1149L1124.88 1395.1L1149 1353.16L1149.12 1353.28Z" fill="#F8F2FF"/>
<path opacity="0.89" d="M1345.08 1352.32H1295.76L1271.16 1395.22V1395.46L1295.88 1438H1345.2L1369.8 1395.1V1394.86L1345.2 1352.2L1345.08 1352.32ZM1296.36 1353.28H1344.6L1368.72 1395.22L1344.6 1437.04H1296.36L1272.24 1395.1L1296.36 1353.16V1353.28Z" fill="#F8F2FF"/>
<path opacity="0.55" d="M1000.2 1438L1000.44 1437.52L976.319 1395.58H928.079L903.959 1437.52L904.199 1438H903.239L903.119 1437.76L902.999 1437.52L927.599 1394.74H976.799L1001.4 1437.28L1001.52 1437.52L1001.28 1438H1000.2Z" fill="#F8F2FF"/>
<path opacity="0.84" d="M1147.56 1438L1147.8 1437.52L1123.68 1395.58H1075.44L1051.32 1437.52L1051.56 1438H1050.48L1050.36 1437.76L1050.24 1437.52L1074.84 1394.74H1124.16L1148.64 1437.28L1148.76 1437.52L1148.52 1438H1147.56Z" fill="#F8F2FF"/>
<path opacity="0.55" d="M1294.8 1438L1295.04 1437.52L1270.92 1395.58H1222.68L1198.56 1437.52L1198.8 1438H1197.84L1197.72 1437.76L1197.6 1437.52L1222.2 1394.74H1271.52L1296 1437.28L1296.12 1437.52L1295.88 1438H1294.8Z" fill="#F8F2FF"/>
<path opacity="0.4" d="M1440 1433.45L1418.28 1395.58H1370.04L1345.92 1437.52L1346.16 1438H1345.08L1344.96 1437.76L1344.84 1437.52L1369.44 1394.74H1418.76L1440 1431.65V1433.45Z" fill="#F8F2FF"/>
</svg>
