<svg width="37" height="40" viewBox="0 0 37 40" fill="none" xmlns="http://www.w3.org/2000/svg">
<path d="M16.0399 4.29328C16.6339 3.9503 17.3658 3.9503 17.9599 4.29328L18.2799 3.73902L17.9599 4.29328L29.2562 10.8152C29.8502 11.1582 30.2162 11.7921 30.2162 12.478V25.522C30.2162 26.2079 29.8502 26.8418 29.2562 27.1848L17.9599 33.7067C17.3658 34.0497 16.6339 34.0497 16.0399 33.7067L4.74358 27.1848C4.14953 26.8418 3.78358 26.2079 3.78358 25.522V12.478C3.78358 11.7921 4.14953 11.1582 4.74358 10.8152L16.0399 4.29328Z" fill="url(#paint0_angular_67_33024)" stroke="#17BAE6" stroke-width="1.28001"/>
<g filter="url(#filter0_d_67_33024)">
<path d="M16.3572 6.57068C16.7532 6.34203 17.2411 6.34203 17.6372 6.57068L27.4422 12.2317C27.8382 12.4603 28.0822 12.8829 28.0822 13.3402V24.6622C28.0822 25.1195 27.8382 25.542 27.4422 25.7707L17.6372 31.4317C17.2411 31.6603 16.7532 31.6603 16.3572 31.4317L6.55213 25.7707C6.15609 25.542 5.91213 25.1195 5.91213 24.6622V13.3402C5.91213 12.8829 6.15609 12.4603 6.55213 12.2317L16.3572 6.57068Z" fill="white" fill-opacity="0.5" shape-rendering="crispEdges"/>
<path d="M17.7172 6.43212C17.2716 6.17488 16.7227 6.17488 16.2772 6.43212L6.47213 12.0931C6.02659 12.3503 5.75213 12.8257 5.75213 13.3402V24.6622C5.75213 25.1766 6.02659 25.652 6.47213 25.9092L16.2772 31.5702C16.7227 31.8275 17.2716 31.8275 17.7172 31.5702L27.5222 25.9092C27.9678 25.652 28.2422 25.1766 28.2422 24.6622V13.3402C28.2422 12.8257 27.9678 12.3503 27.5222 12.0931L17.7172 6.43212Z" stroke="white" stroke-width="0.320002" style="mix-blend-mode:overlay" shape-rendering="crispEdges"/>
</g>
<g style="mix-blend-mode:multiply">
<path fill-rule="evenodd" clip-rule="evenodd" d="M15.0002 12.5C15.1328 12.5 15.26 12.5527 15.3537 12.6464C15.4475 12.7402 15.5002 12.8674 15.5002 13V14.004C16.6911 14.022 17.8802 14.1045 19.0622 14.2513C19.1274 14.2595 19.1903 14.2804 19.2474 14.3128C19.3045 14.3453 19.3547 14.3887 19.395 14.4405C19.4353 14.4924 19.465 14.5517 19.4825 14.615C19.4999 14.6783 19.5047 14.7445 19.4965 14.8097C19.4884 14.8748 19.4675 14.9378 19.435 14.9949C19.4026 15.052 19.3592 15.1021 19.3073 15.1425C19.2555 15.1828 19.1962 15.2125 19.1328 15.2299C19.0695 15.2474 19.0034 15.2521 18.9382 15.244C18.4982 15.1887 18.0562 15.1433 17.6115 15.1067C17.2226 16.6238 16.5509 18.054 15.6315 19.322C15.8435 19.578 16.0649 19.824 16.2982 20.06C16.3912 20.1546 16.4428 20.2823 16.4417 20.4149C16.4406 20.5476 16.3868 20.6743 16.2922 20.7673C16.1976 20.8603 16.0699 20.912 15.9373 20.9108C15.8046 20.9097 15.6779 20.8559 15.5849 20.7613C15.3827 20.5559 15.1877 20.3435 15.0002 20.1247C13.9478 21.3545 12.6674 22.3692 11.2295 23.1127C11.1117 23.1735 10.9745 23.185 10.8482 23.1447C10.7218 23.1044 10.6167 23.0155 10.5559 22.8977C10.495 22.7798 10.4835 22.6426 10.5238 22.5163C10.5642 22.39 10.653 22.2848 10.7709 22.224C12.1533 21.509 13.3769 20.5219 14.3682 19.322C13.7866 18.519 13.3027 17.6495 12.9269 16.732C12.8796 16.6099 12.8821 16.4741 12.9339 16.3538C12.9857 16.2336 13.0826 16.1384 13.2038 16.0888C13.325 16.0392 13.4608 16.0391 13.582 16.0886C13.7033 16.1381 13.8003 16.2331 13.8522 16.3533C14.1588 17.1016 14.5436 17.8153 15.0002 18.4827C15.7194 17.4316 16.2581 16.2678 16.5942 15.0393C14.7477 14.9478 12.8968 15.0162 11.0622 15.244C10.9306 15.2604 10.7978 15.2239 10.6931 15.1425C10.5884 15.061 10.5203 14.9413 10.5039 14.8097C10.4874 14.678 10.5239 14.5453 10.6054 14.4405C10.6868 14.3358 10.8066 14.2678 10.9382 14.2513C12.1201 14.1042 13.3092 14.0217 14.5002 14.004V13C14.5002 12.8674 14.5529 12.7402 14.6466 12.6464C14.7404 12.5527 14.8676 12.5 15.0002 12.5ZM19.5002 17C19.5954 17 19.6886 17.0271 19.7689 17.0782C19.8492 17.1294 19.9133 17.2024 19.9535 17.2887L23.4535 24.7887C23.4813 24.8482 23.497 24.9126 23.4999 24.9782C23.5027 25.0439 23.4927 25.1094 23.4702 25.1711C23.4477 25.2328 23.4133 25.2895 23.3689 25.338C23.3245 25.3864 23.2711 25.4256 23.2115 25.4533C23.0913 25.5094 22.9537 25.5154 22.8291 25.47C22.7044 25.4246 22.6029 25.3316 22.5469 25.2113L21.7482 23.5H17.2522L16.4535 25.2113C16.3975 25.3316 16.296 25.4246 16.1713 25.47C16.0467 25.5154 15.9091 25.5094 15.7889 25.4533C15.6686 25.3973 15.5756 25.2958 15.5302 25.1711C15.4848 25.0465 15.4908 24.9089 15.5469 24.7887L19.0469 17.2887C19.0871 17.2024 19.1511 17.1294 19.2314 17.0782C19.3118 17.0271 19.405 17 19.5002 17ZM17.7189 22.5H21.2815L19.5002 18.6827L17.7189 22.5Z" fill="#17BAE6"/>
</g>
<defs>
<filter id="filter0_d_67_33024" x="0.312127" y="0.799065" width="35.9301" height="38.9638" filterUnits="userSpaceOnUse" color-interpolation-filters="sRGB">
<feFlood flood-opacity="0" result="BackgroundImageFix"/>
<feColorMatrix in="SourceAlpha" type="matrix" values="0 0 0 0 0 0 0 0 0 0 0 0 0 0 0 0 0 0 127 0" result="hardAlpha"/>
<feOffset dx="1.28001" dy="1.28001"/>
<feGaussianBlur stdDeviation="3.28002"/>
<feComposite in2="hardAlpha" operator="out"/>
<feColorMatrix type="matrix" values="0 0 0 0 0 0 0 0 0 0 0 0 0 0 0 0 0 0 0.05 0"/>
<feBlend mode="normal" in2="BackgroundImageFix" result="effect1_dropShadow_67_33024"/>
<feBlend mode="normal" in="SourceGraphic" in2="effect1_dropShadow_67_33024" result="shape"/>
</filter>
<radialGradient id="paint0_angular_67_33024" cx="0" cy="0" r="1" gradientUnits="userSpaceOnUse" gradientTransform="translate(16.9999 19) rotate(90) scale(16 15.9999)">
<stop stop-color="#17BAE6"/>
<stop offset="1" stop-color="#17BAE6" stop-opacity="0.4"/>
</radialGradient>
</defs>
</svg>
