<svg width="37" height="40" viewBox="0 0 37 40" fill="none" xmlns="http://www.w3.org/2000/svg">
<path d="M16.0399 4.29328C16.6339 3.9503 17.3658 3.9503 17.9599 4.29328L18.2799 3.73902L17.9599 4.29328L29.2562 10.8152C29.8502 11.1582 30.2162 11.7921 30.2162 12.478V25.522C30.2162 26.2079 29.8502 26.8418 29.2562 27.1848L17.9599 33.7067C17.3658 34.0497 16.6339 34.0497 16.0399 33.7067L4.74358 27.1848C4.14953 26.8418 3.78358 26.2079 3.78358 25.522V12.478C3.78358 11.7921 4.14953 11.1582 4.74358 10.8152L16.0399 4.29328Z" fill="url(#paint0_angular_67_33037)" stroke="#FAC602" stroke-width="1.28001"/>
<g filter="url(#filter0_d_67_33037)">
<path d="M16.3572 6.57068C16.7532 6.34203 17.2411 6.34203 17.6372 6.57068L27.4422 12.2317C27.8382 12.4603 28.0822 12.8829 28.0822 13.3402V24.6622C28.0822 25.1195 27.8382 25.542 27.4422 25.7707L17.6372 31.4317C17.2411 31.6603 16.7532 31.6603 16.3572 31.4317L6.55213 25.7707C6.15609 25.542 5.91213 25.1195 5.91213 24.6622V13.3402C5.91213 12.8829 6.15609 12.4603 6.55213 12.2317L16.3572 6.57068Z" fill="white" fill-opacity="0.5" shape-rendering="crispEdges"/>
<path d="M17.7172 6.43212C17.2716 6.17488 16.7227 6.17488 16.2772 6.43212L6.47213 12.0931C6.02659 12.3503 5.75213 12.8257 5.75213 13.3402V24.6622C5.75213 25.1766 6.02659 25.652 6.47213 25.9092L16.2772 31.5702C16.7227 31.8275 17.2716 31.8275 17.7172 31.5702L27.5222 25.9092C27.9678 25.652 28.2422 25.1766 28.2422 24.6622V13.3402C28.2422 12.8257 27.9678 12.3503 27.5222 12.0931L17.7172 6.43212Z" stroke="white" stroke-width="0.320002" style="mix-blend-mode:overlay" shape-rendering="crispEdges"/>
</g>
<g style="mix-blend-mode:multiply">
<path d="M15.9918 13.666L18.6584 13.666V15.3779C18.6584 15.55 18.7724 15.7029 18.9334 15.7638C24.6162 17.9132 23.2628 25.666 19.3251 25.666H15.3251C11.3874 25.666 10.0339 17.9132 15.7168 15.7638C15.8778 15.7028 15.9918 15.55 15.9918 15.3779V13.666Z" stroke="#FAC602" stroke-linecap="round" stroke-linejoin="round"/>
<path d="M13.3184 17.666H21.3184" stroke="#FAC602"/>
<path d="M15.3223 12.333H19.3223" stroke="#FAC602" stroke-linecap="round"/>
<path d="M17.0945 19.666L15.9834 21.666H18.6501L17.5389 23.666" stroke="#FAC602" stroke-linecap="round" stroke-linejoin="round"/>
</g>
<defs>
<filter id="filter0_d_67_33037" x="0.312127" y="0.799065" width="35.9301" height="38.9638" filterUnits="userSpaceOnUse" color-interpolation-filters="sRGB">
<feFlood flood-opacity="0" result="BackgroundImageFix"/>
<feColorMatrix in="SourceAlpha" type="matrix" values="0 0 0 0 0 0 0 0 0 0 0 0 0 0 0 0 0 0 127 0" result="hardAlpha"/>
<feOffset dx="1.28001" dy="1.28001"/>
<feGaussianBlur stdDeviation="3.28002"/>
<feComposite in2="hardAlpha" operator="out"/>
<feColorMatrix type="matrix" values="0 0 0 0 0 0 0 0 0 0 0 0 0 0 0 0 0 0 0.05 0"/>
<feBlend mode="normal" in2="BackgroundImageFix" result="effect1_dropShadow_67_33037"/>
<feBlend mode="normal" in="SourceGraphic" in2="effect1_dropShadow_67_33037" result="shape"/>
</filter>
<radialGradient id="paint0_angular_67_33037" cx="0" cy="0" r="1" gradientUnits="userSpaceOnUse" gradientTransform="translate(16.9999 19) rotate(90) scale(16 15.9999)">
<stop stop-color="#FAC602"/>
<stop offset="1" stop-color="#FAC602" stop-opacity="0.4"/>
</radialGradient>
</defs>
</svg>
