<svg width="21" height="20" viewBox="0 0 21 20" fill="none" xmlns="http://www.w3.org/2000/svg">
<path fill-rule="evenodd" clip-rule="evenodd" d="M13 3.125C13 2.95924 13.0658 2.80027 13.1831 2.68306C13.3003 2.56585 13.4592 2.5 13.625 2.5H17.375C17.5408 2.5 17.6997 2.56585 17.8169 2.68306C17.9342 2.80027 18 2.95924 18 3.125V6.875C18 7.04076 17.9342 7.19973 17.8169 7.31694C17.6997 7.43415 17.5408 7.5 17.375 7.5C17.2092 7.5 17.0503 7.43415 16.9331 7.31694C16.8158 7.19973 16.75 7.04076 16.75 6.875V4.63333L13.4417 7.94167C13.3844 8.00307 13.3154 8.05232 13.2388 8.08648C13.1621 8.12064 13.0794 8.13901 12.9954 8.14049C12.9115 8.14197 12.8282 8.12654 12.7503 8.0951C12.6725 8.06367 12.6018 8.01688 12.5425 7.95753C12.4831 7.89818 12.4363 7.82749 12.4049 7.74966C12.3735 7.67184 12.358 7.58848 12.3595 7.50456C12.361 7.42065 12.3794 7.33788 12.4135 7.26122C12.4477 7.18455 12.4969 7.11555 12.5583 7.05833L15.8667 3.75H13.625C13.4592 3.75 13.3003 3.68415 13.1831 3.56694C13.0658 3.44973 13 3.29076 13 3.125ZM3 3.125C3 2.95924 3.06585 2.80027 3.18306 2.68306C3.30027 2.56585 3.45924 2.5 3.625 2.5H7.375C7.54076 2.5 7.69973 2.56585 7.81694 2.68306C7.93415 2.80027 8 2.95924 8 3.125C8 3.29076 7.93415 3.44973 7.81694 3.56694C7.69973 3.68415 7.54076 3.75 7.375 3.75H5.13333L8.44167 7.05833C8.55207 7.17681 8.61217 7.33352 8.60931 7.49543C8.60646 7.65735 8.54086 7.81184 8.42635 7.92635C8.31184 8.04086 8.15735 8.10646 7.99543 8.10931C7.83352 8.11217 7.67681 8.05207 7.55833 7.94167L4.25 4.63333V6.875C4.25 7.04076 4.18415 7.19973 4.06694 7.31694C3.94973 7.43415 3.79076 7.5 3.625 7.5C3.45924 7.5 3.30027 7.43415 3.18306 7.31694C3.06585 7.19973 3 7.04076 3 6.875V3.125ZM12.5583 12.9417C12.4969 12.8844 12.4477 12.8154 12.4135 12.7388C12.3794 12.6621 12.361 12.5794 12.3595 12.4954C12.358 12.4115 12.3735 12.3282 12.4049 12.2503C12.4363 12.1725 12.4831 12.1018 12.5425 12.0425C12.6018 11.9831 12.6725 11.9363 12.7503 11.9049C12.8282 11.8735 12.9115 11.858 12.9954 11.8595C13.0794 11.861 13.1621 11.8794 13.2388 11.9135C13.3154 11.9477 13.3844 11.9969 13.4417 12.0583L16.75 15.3667V13.125C16.75 12.9592 16.8158 12.8003 16.9331 12.6831C17.0503 12.5658 17.2092 12.5 17.375 12.5C17.5408 12.5 17.6997 12.5658 17.8169 12.6831C17.9342 12.8003 18 12.9592 18 13.125V16.875C18 17.0408 17.9342 17.1997 17.8169 17.3169C17.6997 17.4342 17.5408 17.5 17.375 17.5H13.625C13.4592 17.5 13.3003 17.4342 13.1831 17.3169C13.0658 17.1997 13 17.0408 13 16.875C13 16.7092 13.0658 16.5503 13.1831 16.4331C13.3003 16.3158 13.4592 16.25 13.625 16.25H15.8667L12.5583 12.9417ZM8.44167 12.0583C8.55871 12.1755 8.62445 12.3344 8.62445 12.5C8.62445 12.6656 8.55871 12.8245 8.44167 12.9417L5.13333 16.25H7.375C7.54076 16.25 7.69973 16.3158 7.81694 16.4331C7.93415 16.5503 8 16.7092 8 16.875C8 17.0408 7.93415 17.1997 7.81694 17.3169C7.69973 17.4342 7.54076 17.5 7.375 17.5H3.625C3.45924 17.5 3.30027 17.4342 3.18306 17.3169C3.06585 17.1997 3 17.0408 3 16.875V13.125C3 12.9592 3.06585 12.8003 3.18306 12.6831C3.30027 12.5658 3.45924 12.5 3.625 12.5C3.79076 12.5 3.94973 12.5658 4.06694 12.6831C4.18415 12.8003 4.25 12.9592 4.25 13.125V15.3667L7.55833 12.0583C7.67552 11.9413 7.83437 11.8755 8 11.8755C8.16563 11.8755 8.32448 11.9413 8.44167 12.0583Z" fill="white"/>
</svg>
