<svg width="21" height="20" viewBox="0 0 21 20" fill="none" xmlns="http://www.w3.org/2000/svg">
<path d="M5.5 15.3337V4.66699C5.5 4.39085 5.72386 4.16699 6 4.16699H8.33333C8.60947 4.16699 8.83333 4.39085 8.83333 4.66699V15.3337C8.83333 15.6098 8.60947 15.8337 8.33333 15.8337H6C5.72386 15.8337 5.5 15.6098 5.5 15.3337Z" fill="white" stroke="white" stroke-width="1.5"/>
<path d="M12.168 15.3337V4.66699C12.168 4.39085 12.3918 4.16699 12.668 4.16699H15.0013C15.2775 4.16699 15.5013 4.39085 15.5013 4.66699V15.3337C15.5013 15.6098 15.2775 15.8337 15.0013 15.8337H12.668C12.3918 15.8337 12.168 15.6098 12.168 15.3337Z" fill="white" stroke="white" stroke-width="1.5"/>
</svg>
