<svg width="21" height="20" viewBox="0 0 21 20" fill="none" xmlns="http://www.w3.org/2000/svg">
<path d="M11.75 3.38291C11.75 2.26957 10.4033 1.71207 9.61667 2.49957L5.86667 6.24957H4.25667C3.30584 6.24957 2.32501 6.80291 2.04001 7.83707C1.84665 8.54161 1.74911 9.26899 1.75001 9.99957C1.75001 10.7479 1.85084 11.4729 2.04167 12.1621C2.32584 13.1954 3.30667 13.7496 4.25751 13.7496H5.86584L9.61584 17.4996C10.4033 18.2871 11.75 17.7296 11.75 16.6162V3.38291ZM15.3167 7.68291C15.2595 7.6215 15.1905 7.57225 15.1138 7.53809C15.0371 7.50393 14.9544 7.48556 14.8704 7.48408C14.7865 7.4826 14.7032 7.49804 14.6253 7.52947C14.5475 7.56091 14.4768 7.60769 14.4175 7.66704C14.3581 7.72639 14.3113 7.79709 14.2799 7.87491C14.2485 7.95273 14.233 8.03609 14.2345 8.12001C14.236 8.20393 14.2544 8.28669 14.2885 8.36336C14.3227 8.44002 14.3719 8.50902 14.4333 8.56624L15.8667 9.99957L14.4333 11.4329C14.3719 11.4901 14.3227 11.5591 14.2885 11.6358C14.2544 11.7125 14.236 11.7952 14.2345 11.8791C14.233 11.9631 14.2485 12.0464 14.2799 12.1242C14.3113 12.2021 14.3581 12.2728 14.4175 12.3321C14.4768 12.3915 14.5475 12.4382 14.6253 12.4697C14.7032 12.5011 14.7865 12.5165 14.8704 12.5151C14.9544 12.5136 15.0371 12.4952 15.1138 12.4611C15.1905 12.4269 15.2595 12.3776 15.3167 12.3162L16.75 10.8829L18.1833 12.3162C18.2406 12.3776 18.3096 12.4269 18.3862 12.4611C18.4629 12.4952 18.5457 12.5136 18.6296 12.5151C18.7135 12.5165 18.7968 12.5011 18.8747 12.4697C18.9525 12.4382 19.0232 12.3915 19.0825 12.3321C19.1419 12.2728 19.1887 12.2021 19.2201 12.1242C19.2515 12.0464 19.267 11.9631 19.2655 11.8791C19.264 11.7952 19.2457 11.7125 19.2115 11.6358C19.1773 11.5591 19.1281 11.4901 19.0667 11.4329L17.6333 9.99957L19.0667 8.56624C19.1281 8.50902 19.1773 8.44002 19.2115 8.36336C19.2457 8.28669 19.264 8.20393 19.2655 8.12001C19.267 8.03609 19.2515 7.95273 19.2201 7.87491C19.1887 7.79709 19.1419 7.72639 19.0825 7.66704C19.0232 7.60769 18.9525 7.56091 18.8747 7.52947C18.7968 7.49804 18.7135 7.4826 18.6296 7.48408C18.5457 7.48556 18.4629 7.50393 18.3862 7.53809C18.3096 7.57225 18.2406 7.6215 18.1833 7.68291L16.75 9.11624L15.3167 7.68291Z" fill="white"/>
</svg>
