<svg width="21" height="20" viewBox="0 0 21 20" fill="none" xmlns="http://www.w3.org/2000/svg">
<path d="M11.75 3.38291C11.75 2.26957 10.4033 1.71207 9.61667 2.49957L5.86667 6.24957H4.25667C3.30584 6.24957 2.32501 6.80291 2.04001 7.83707C1.84665 8.54161 1.74911 9.26899 1.75001 9.99957C1.75001 10.7479 1.85084 11.4729 2.04167 12.1621C2.32584 13.1954 3.30667 13.7496 4.25751 13.7496H5.86584L9.61584 17.4996C10.4033 18.2871 11.75 17.7296 11.75 16.6162V3.38291ZM15.9867 4.25457C16.1039 4.13753 16.2627 4.07179 16.4283 4.07179C16.594 4.07179 16.7528 4.13753 16.87 4.25457C20.0433 7.42707 20.0433 12.5712 16.87 15.7446C16.7515 15.855 16.5948 15.9151 16.4329 15.9122C16.271 15.9094 16.1165 15.8438 16.002 15.7293C15.8875 15.6147 15.8219 15.4603 15.819 15.2983C15.8162 15.1364 15.8763 14.9797 15.9867 14.8612C16.6252 14.2228 17.1317 13.4649 17.4772 12.6307C17.8228 11.7966 18.0006 10.9025 18.0006 9.99957C18.0006 9.09666 17.8228 8.20259 17.4772 7.36842C17.1317 6.53425 16.6252 5.77632 15.9867 5.13791C15.8696 5.02072 15.8039 4.86187 15.8039 4.69624C15.8039 4.53061 15.8696 4.37176 15.9867 4.25457Z" fill="white"/>
<path d="M13.7757 6.46445C13.8337 6.40637 13.9027 6.3603 13.9785 6.32886C14.0544 6.29743 14.1357 6.28125 14.2178 6.28125C14.2999 6.28125 14.3812 6.29743 14.4571 6.32886C14.5329 6.3603 14.6018 6.40637 14.6599 6.46445C15.1242 6.92875 15.4926 7.47999 15.7439 8.08667C15.9953 8.69335 16.1246 9.3436 16.1246 10.0003C16.1246 10.657 15.9953 11.3072 15.7439 11.9139C15.4926 12.5206 15.1242 13.0718 14.6599 13.5361C14.5419 13.6499 14.384 13.7128 14.2202 13.7113C14.0563 13.7098 13.8996 13.644 13.7837 13.5281C13.6679 13.4122 13.6022 13.2554 13.6009 13.0915C13.5996 12.9276 13.6626 12.7698 13.7765 12.6519C14.1248 12.3037 14.401 11.8903 14.5894 11.4354C14.7779 10.9804 14.8749 10.4927 14.8749 10.0003C14.8749 9.50782 14.7779 9.02018 14.5894 8.56521C14.401 8.11024 14.1248 7.69684 13.7765 7.34862C13.6595 7.23143 13.5938 7.07258 13.5938 6.90695C13.5938 6.74132 13.6595 6.58247 13.7765 6.46528L13.7757 6.46445Z" fill="white"/>
</svg>
