<svg width="20" height="20" viewBox="0 0 20 20" fill="none" xmlns="http://www.w3.org/2000/svg">
<path fill-rule="evenodd" clip-rule="evenodd" d="M8.62533 18.3332C4.66699 17.6213 1.66699 14.1874 1.66699 10.0417C1.66699 5.43535 5.41699 1.6665 10.0003 1.6665C14.5837 1.6665 18.3337 5.43535 18.3337 10.0417C18.3337 14.1874 15.3337 17.6213 11.3753 18.3332L11.1631 18.1587V12.3704H12.8685L13.2174 10.0516H11.1631V8.43669C11.1631 7.77416 11.3957 7.27727 12.3259 7.27727H13.3337V5.16547C12.791 5.08265 12.1709 4.99984 11.6282 4.99984C9.84529 4.99984 8.60498 6.15926 8.60498 8.22965V10.0516H6.66699V12.3704H8.60498V18.2089C8.65169 18.218 8.6984 18.2266 8.74511 18.2347L8.62533 18.3332Z" fill="#8B8E9A"/>
</svg>
