<svg width="64" height="64" viewBox="0 0 64 64" fill="none" xmlns="http://www.w3.org/2000/svg">
<path d="M28 2.3094C30.4752 0.880338 33.5248 0.880339 36 2.3094L55.7128 13.6906C58.188 15.1197 59.7128 17.7607 59.7128 20.6188V43.3812C59.7128 46.2393 58.188 48.8803 55.7128 50.3094L36 61.6906C33.5248 63.1197 30.4752 63.1197 28 61.6906L8.28719 50.3094C5.81198 48.8803 4.28719 46.2393 4.28719 43.3812V20.6188C4.28719 17.7607 5.81198 15.1197 8.28719 13.6906L28 2.3094Z" fill="#F5F8FA"/>
<path d="M35 32C35 32.5933 34.8241 33.1734 34.4944 33.6667C34.1648 34.1601 33.6962 34.5446 33.1481 34.7716C32.5999 34.9987 31.9967 35.0581 31.4147 34.9424C30.8328 34.8266 30.2982 34.5409 29.8787 34.1213C29.4591 33.7018 29.1734 33.1672 29.0576 32.5853C28.9419 32.0033 29.0013 31.4001 29.2284 30.8519C29.4554 30.3038 29.8399 29.8352 30.3333 29.5056C30.8266 29.1759 31.4067 29 32 29C32.7954 29.0009 33.5579 29.3173 34.1203 29.8797C34.6827 30.4421 34.9991 31.2046 35 32ZM41.375 27.875V36.125C41.3734 37.5169 40.8198 38.8513 39.8356 39.8356C38.8513 40.8198 37.5169 41.3734 36.125 41.375H27.875C26.4831 41.3734 25.1487 40.8198 24.1644 39.8356C23.1802 38.8513 22.6266 37.5169 22.625 36.125V27.875C22.6266 26.4831 23.1802 25.1487 24.1644 24.1644C25.1487 23.1802 26.4831 22.6266 27.875 22.625H36.125C37.5169 22.6266 38.8513 23.1802 39.8356 24.1644C40.8198 25.1487 41.3734 26.4831 41.375 27.875ZM36.5 32C36.5 31.11 36.2361 30.24 35.7416 29.4999C35.2471 28.7599 34.5443 28.1831 33.7221 27.8425C32.8998 27.5019 31.995 27.4128 31.1221 27.5865C30.2492 27.7601 29.4474 28.1887 28.818 28.818C28.1887 29.4474 27.7601 30.2492 27.5865 31.1221C27.4128 31.995 27.5019 32.8998 27.8425 33.7221C28.1831 34.5443 28.7599 35.2471 29.4999 35.7416C30.24 36.2361 31.11 36.5 32 36.5C33.1931 36.4987 34.3369 36.0241 35.1805 35.1805C36.0241 34.3369 36.4987 33.1931 36.5 32ZM38 27.125C38 26.9025 37.934 26.685 37.8104 26.5C37.6868 26.315 37.5111 26.1708 37.3055 26.0856C37.1 26.0005 36.8738 25.9782 36.6555 26.0216C36.4373 26.065 36.2368 26.1722 36.0795 26.3295C35.9222 26.4868 35.815 26.6873 35.7716 26.9055C35.7282 27.1238 35.7505 27.35 35.8356 27.5555C35.9208 27.7611 36.065 27.9368 36.25 28.0604C36.435 28.184 36.6525 28.25 36.875 28.25C37.1734 28.25 37.4595 28.1315 37.6705 27.9205C37.8815 27.7095 38 27.4234 38 27.125Z" fill="#8B8E9A"/>
</svg>
