<svg width="24" height="24" viewBox="0 0 24 24" fill="none" xmlns="http://www.w3.org/2000/svg">
<path d="M18.2122 19.4422L18.2121 19.4431C18.2078 19.4821 18.1943 19.5197 18.1728 19.5526C18.1512 19.5854 18.1223 19.6127 18.0882 19.6323C16.2357 20.6953 14.1366 21.2531 12.0008 21.25H12.0001C9.78461 21.25 7.70518 20.662 5.91205 19.6324C5.87795 19.6128 5.84895 19.5855 5.8274 19.5526C5.80586 19.5197 5.79237 19.4822 5.78805 19.4431C5.63261 18.0228 5.96555 16.592 6.73204 15.3862L6.77077 15.3253C7.33211 14.4675 8.09621 13.7608 8.99592 13.268C9.91674 12.7635 10.9499 12.4994 11.9998 12.5H12.0005C12.88 12.4992 13.7496 12.6841 14.5526 13.0427C15.3556 13.4013 16.0738 13.9254 16.6602 14.5808C17.2466 15.2361 17.688 16.008 17.9554 16.8457C18.2229 17.6835 18.3104 18.5683 18.2122 19.4422ZM12.0001 12C12.9499 11.9991 13.8892 12.1989 14.7565 12.5862C15.6238 12.9734 16.3995 13.5395 17.0328 14.2474C17.6662 14.9552 18.1429 15.7888 18.4317 16.6936C18.7206 17.5985 18.8151 18.5541 18.7091 19.498L12.0001 12ZM3.847 15.0687C3.93538 15.0264 4.02546 14.9882 4.11697 14.9541C3.54383 16.147 3.24657 17.4561 3.25018 18.7834C2.88645 18.7033 2.52775 18.6011 2.17608 18.4774L2.17434 18.4767L2.06232 18.4378C2.06207 18.4377 2.06182 18.4376 2.06158 18.4375C2.05041 18.4334 2.04063 18.4262 2.03338 18.4167C2.02597 18.4071 2.02152 18.3955 2.02059 18.3833L2.02038 18.3808L2.01047 18.2609C2.01046 18.2607 2.01044 18.2605 2.01043 18.2604C1.9755 17.8254 2.02851 17.3879 2.1663 16.9739C2.30414 16.5598 2.524 16.1776 2.81276 15.8503C3.10152 15.5229 3.45327 15.2571 3.847 15.0687ZM21.9798 18.3808L21.9797 18.3824C21.9787 18.3945 21.9742 18.4061 21.9668 18.4158C21.9596 18.4252 21.9498 18.4324 21.9387 18.4365C21.9384 18.4366 21.9382 18.4367 21.9379 18.4368L21.8258 18.4757L21.8238 18.4765C21.4742 18.5998 21.1161 18.7026 20.75 18.7834C20.7536 17.456 20.4563 16.1469 19.8832 14.9541C19.9747 14.9882 20.0648 15.0264 20.1532 15.0687C20.5469 15.2571 20.8986 15.5229 21.1874 15.8503C21.4762 16.1776 21.696 16.5598 21.8339 16.9739C21.9716 17.3879 22.0246 17.8253 21.9897 18.2602C21.9897 18.2604 21.9897 18.2607 21.9897 18.2609L21.9798 18.3808ZM8.75008 6.75C8.75008 5.88805 9.09249 5.0614 9.70198 4.4519C10.3115 3.84241 11.1381 3.5 12.0001 3.5C12.862 3.5 13.6887 3.84241 14.2982 4.4519C14.9077 5.0614 15.2501 5.88805 15.2501 6.75C15.2501 7.61195 14.9077 8.4386 14.2982 9.0481C13.6887 9.65759 12.862 10 12.0001 10C11.1381 10 10.3115 9.65759 9.70198 9.0481C9.09249 8.4386 8.75008 7.61195 8.75008 6.75ZM16.2501 9.75C16.2501 9.08696 16.5135 8.45107 16.9823 7.98223C17.4512 7.51339 18.087 7.25 18.7501 7.25C19.4131 7.25 20.049 7.51339 20.5178 7.98223C20.9867 8.45107 21.2501 9.08696 21.2501 9.75C21.2501 10.413 20.9867 11.0489 20.5178 11.5178C20.049 11.9866 19.4131 12.25 18.7501 12.25C18.087 12.25 17.4512 11.9866 16.9823 11.5178C16.5135 11.0489 16.2501 10.413 16.2501 9.75ZM2.75008 9.75C2.75008 9.08696 3.01347 8.45107 3.48231 7.98223C3.95115 7.51339 4.58704 7.25 5.25008 7.25C5.91312 7.25 6.54901 7.51339 7.01785 7.98223C7.48669 8.45107 7.75008 9.08696 7.75008 9.75C7.75008 10.413 7.48669 11.0489 7.01785 11.5178C6.54901 11.9866 5.91312 12.25 5.25008 12.25C4.58704 12.25 3.95115 11.9866 3.48231 11.5178C3.01347 11.0489 2.75008 10.413 2.75008 9.75Z" fill="#B9BDCC" stroke="#B9BDCC"/>
</svg>
