<svg width="24" height="24" viewBox="0 0 24 24" fill="none" xmlns="http://www.w3.org/2000/svg">
<g clip-path="url(#clip0_1_8147)">
<path d="M22.5 8.8125C22.5 15.375 12.7697 20.6869 12.3553 20.9062C12.2461 20.965 12.124 20.9958 12 20.9958C11.876 20.9958 11.7539 20.965 11.6447 20.9062C11.3306 20.7375 5.68687 17.6541 2.95594 13.3228C2.92071 13.2661 2.90127 13.201 2.89963 13.1342C2.89799 13.0674 2.91421 13.0015 2.94661 12.9431C2.97901 12.8847 3.02641 12.836 3.08393 12.802C3.14144 12.7681 3.20697 12.7501 3.27375 12.75H6.75C6.87351 12.7501 6.99512 12.7197 7.10405 12.6614C7.21297 12.6032 7.30583 12.519 7.37438 12.4163L8.25 11.1038L10.6256 14.6663C10.7167 14.8028 10.8499 14.9057 11.005 14.9592C11.1602 15.0127 11.3285 15.0139 11.4844 14.9625C11.6496 14.9067 11.7908 14.7963 11.8847 14.6494L13.1512 12.75H15C15.1028 12.7502 15.2046 12.7293 15.299 12.6885C15.3934 12.6478 15.4784 12.5881 15.5487 12.5131C15.619 12.4381 15.6732 12.3494 15.7078 12.2526C15.7425 12.1558 15.7568 12.0529 15.75 11.9503C15.7332 11.7575 15.6442 11.5782 15.5007 11.4483C15.3573 11.3185 15.1701 11.2476 14.9766 11.25H12.75C12.6265 11.2499 12.5049 11.2803 12.396 11.3386C12.287 11.3968 12.1942 11.481 12.1256 11.5837L11.25 12.8962L8.87438 9.33375C8.78335 9.19723 8.65007 9.09433 8.49495 9.04082C8.33984 8.98731 8.17146 8.98614 8.01562 9.0375C7.85044 9.09327 7.70922 9.20373 7.61531 9.35063L6.34875 11.25H2.20594C2.12579 11.2502 2.04768 11.2248 1.98307 11.1774C1.91845 11.1299 1.87072 11.0631 1.84688 10.9866C1.62067 10.2839 1.50368 9.55067 1.5 8.8125C1.50174 7.27146 2.11468 5.79404 3.20436 4.70436C4.29404 3.61468 5.77146 3.00174 7.3125 3C9.24844 3 10.9434 3.8325 12 5.23969C13.0566 3.8325 14.7516 3 16.6875 3C18.2285 3.00174 19.706 3.61468 20.7956 4.70436C21.8853 5.79404 22.4983 7.27146 22.5 8.8125Z" fill="#B9BDCC"/>
</g>
<defs>
<clipPath id="clip0_1_8147">
<rect width="24" height="24" fill="white"/>
</clipPath>
</defs>
</svg>
