<svg width="24" height="24" viewBox="0 0 24 24" fill="none" xmlns="http://www.w3.org/2000/svg">
<path fill-rule="evenodd" clip-rule="evenodd" d="M3 12C3 7.02944 7.02944 3 12 3C16.9705 3 21 7.02943 21 12C21 16.9705 16.9705 21 12 21C10.4459 21 8.98216 20.6055 7.70525 19.911L4.16144 20.5708C3.95795 20.6087 3.74887 20.5438 3.60251 20.3975C3.45615 20.2511 3.39133 20.0421 3.42921 19.8385L4.08901 16.2947C3.39443 15.0178 3 13.5541 3 12ZM10.6141 8.3189C10.3257 8.5636 10.1163 8.93667 10.1163 9.48838C10.1163 9.83516 9.83515 10.1163 9.48837 10.1163C9.14159 10.1163 8.86047 9.83516 8.86047 9.48838C8.86047 8.57497 9.22663 7.84919 9.80161 7.36133C10.3629 6.88505 11.089 6.66279 11.7907 6.66279C12.4924 6.66279 13.2185 6.88506 13.7798 7.36134C14.3547 7.8492 14.7209 8.57497 14.7209 9.48838C14.7209 10.1296 14.5567 10.6182 14.2884 11.0205C14.0631 11.3587 13.7701 11.6201 13.5396 11.8258C13.5144 11.8482 13.4901 11.87 13.4665 11.8911C13.2093 12.1226 13.0155 12.3134 12.8735 12.5644C12.7376 12.8045 12.6279 13.1399 12.6279 13.6743C12.6279 14.0211 12.3468 14.3022 12 14.3022C11.6532 14.3022 11.3721 14.0211 11.3721 13.6743C11.3721 12.9529 11.524 12.3988 11.7806 11.9457C12.031 11.5035 12.3604 11.1971 12.6265 10.9577L12.6869 10.9033C12.9383 10.6775 13.1115 10.5221 13.2435 10.3239C13.3677 10.1377 13.4651 9.8937 13.4651 9.48838C13.4651 8.93668 13.2557 8.56361 12.9673 8.31891C12.6652 8.06262 12.2401 7.9186 11.7907 7.9186C11.3412 7.9186 10.9161 8.06262 10.6141 8.3189ZM12.4749 17.4427C12.707 17.1851 12.6863 16.788 12.4287 16.5559C12.171 16.3239 11.774 16.3445 11.5419 16.6021L11.5335 16.6114C11.3013 16.8691 11.3221 17.2661 11.5797 17.4983C11.8374 17.7304 12.2344 17.7097 12.4665 17.452L12.4749 17.4427Z" fill="#8E35FF"/>
</svg>
