<svg width="24" height="24" viewBox="0 0 24 24" fill="none" xmlns="http://www.w3.org/2000/svg">
<path fill-rule="evenodd" clip-rule="evenodd" d="M12.9633 2.28608C12.903 2.20532 12.8271 2.13753 12.7401 2.08676C12.653 2.036 12.5566 2.00329 12.4567 1.99059C12.3567 1.9779 12.2552 1.98548 12.1582 2.01288C12.0613 2.04028 11.9708 2.08694 11.8923 2.15008C9.97583 3.68865 8.7117 5.89471 8.35328 8.32608C7.69646 7.84978 7.12073 7.27068 6.64828 6.61108C6.58411 6.52138 6.50095 6.44694 6.40472 6.39306C6.30849 6.33918 6.20156 6.30718 6.09155 6.29935C5.98154 6.29152 5.87116 6.30805 5.76827 6.34775C5.66538 6.38746 5.57251 6.44937 5.49628 6.52908C4.1756 7.91064 3.32903 9.67676 3.07919 11.5716C2.82935 13.4665 3.18922 15.3917 4.10668 17.0683C5.02413 18.745 6.45152 20.086 8.18209 20.8972C9.91265 21.7084 11.8565 21.9476 13.7321 21.5802C15.6077 21.2128 17.3177 20.2578 18.6143 18.8536C19.9108 17.4494 20.7267 15.6689 20.9438 13.77C21.1608 11.8711 20.7677 9.95244 19.8213 8.29191C18.875 6.63137 17.4246 5.31521 15.6803 4.53408C14.608 4.01265 13.6763 3.24178 12.9633 2.28608ZM15.7503 14.2501C15.7499 14.7925 15.6319 15.3284 15.4043 15.8208C15.1767 16.3132 14.845 16.7503 14.4321 17.1021C14.0192 17.4538 13.5349 17.7118 13.0126 17.8583C12.4903 18.0047 11.9425 18.0361 11.4069 17.9502C10.8713 17.8644 10.3607 17.6634 9.9103 17.3611C9.45992 17.0588 9.08049 16.6624 8.79818 16.1992C8.51588 15.736 8.33741 15.2171 8.2751 14.6782C8.2128 14.1394 8.26813 13.5935 8.43728 13.0781C9.06528 13.5431 9.78728 13.8881 10.5703 14.0781C10.7826 12.709 11.4629 11.4559 12.4953 10.5321C13.3963 10.6521 14.223 11.0952 14.8218 11.7791C15.4205 12.463 15.7505 13.3411 15.7503 14.2501Z" fill="black"/>
</svg>
