<svg width="25" height="24" viewBox="0 0 25 24" fill="none" xmlns="http://www.w3.org/2000/svg">
<path fill-rule="evenodd" clip-rule="evenodd" d="M12.833 2.25C7.44801 2.25 3.08301 6.615 3.08301 12C3.08301 17.385 7.44801 21.75 12.833 21.75C18.218 21.75 22.583 17.385 22.583 12C22.583 6.615 18.218 2.25 12.833 2.25ZM10.208 8.25C9.66801 8.25 9.38001 8.669 9.27201 8.884C9.14371 9.15445 9.07905 9.45069 9.08301 9.75C9.08301 10.048 9.14201 10.355 9.27201 10.616C9.38001 10.831 9.66701 11.25 10.208 11.25C10.748 11.25 11.036 10.831 11.144 10.616C11.274 10.356 11.333 10.048 11.333 9.75C11.333 9.452 11.274 9.145 11.144 8.884C11.036 8.669 10.749 8.25 10.208 8.25ZM14.522 8.884C14.63 8.669 14.917 8.25 15.458 8.25C15.998 8.25 16.286 8.669 16.394 8.884C16.524 9.144 16.583 9.452 16.583 9.75C16.583 10.048 16.524 10.355 16.394 10.616C16.286 10.831 15.999 11.25 15.458 11.25C14.918 11.25 14.63 10.831 14.522 10.616C14.3937 10.3456 14.3291 10.0493 14.333 9.75C14.333 9.452 14.392 9.145 14.522 8.884ZM16.545 15.712C16.6187 15.6433 16.6778 15.5605 16.7188 15.4685C16.7598 15.3765 16.7818 15.2772 16.7836 15.1765C16.7854 15.0758 16.7669 14.9758 16.7291 14.8824C16.6914 14.789 16.6353 14.7042 16.564 14.633C16.4928 14.5617 16.408 14.5056 16.3146 14.4679C16.2212 14.4302 16.1212 14.4116 16.0205 14.4134C15.9198 14.4152 15.8205 14.4372 15.7285 14.4782C15.6365 14.5192 15.5537 14.5783 15.485 14.652C15.1368 15.0003 14.7233 15.2766 14.2683 15.4652C13.8133 15.6537 13.3255 15.7507 12.833 15.7507C12.3405 15.7507 11.8528 15.6537 11.3977 15.4652C10.9427 15.2766 10.5292 15.0003 10.181 14.652C10.0388 14.5195 9.85079 14.4474 9.65649 14.4508C9.46218 14.4543 9.2768 14.533 9.13939 14.6704C9.00197 14.8078 8.92326 14.9932 8.91983 15.1875C8.91641 15.3818 8.98853 15.5698 9.12101 15.712C10.1055 16.6964 11.4408 17.2494 12.833 17.2494C14.2252 17.2494 15.5605 16.6964 16.545 15.712Z" fill="#8E35FF"/>
</svg>
