<svg width="24" height="24" viewBox="0 0 24 24" fill="none" xmlns="http://www.w3.org/2000/svg">
<path d="M15.0001 9L9.75012 14.25M6.37512 15.375L3.2195 18.5306C3.07895 18.6713 3 18.862 3 19.0608C3 19.2596 3.07895 19.4503 3.2195 19.5909L4.40637 20.7806C4.47603 20.8504 4.55874 20.9057 4.64979 20.9434C4.74084 20.9812 4.83843 21.0006 4.937 21.0006C5.03556 21.0006 5.13315 20.9812 5.2242 20.9434C5.31525 20.9057 5.39797 20.8504 5.46762 20.7806L8.62512 17.625M7.72887 12.2278L14.2501 3.75H20.2501V9.75L11.7723 16.2712M3.97009 11.9095L5.15935 10.7202C5.45261 10.4269 5.92808 10.4269 6.22134 10.7202L13.2794 17.7782C13.5726 18.0715 13.5726 18.5469 13.2794 18.8402L12.0901 20.0295C11.7968 20.3227 11.3214 20.3227 11.0281 20.0295L3.97009 12.9714C3.67683 12.6782 3.67683 12.2027 3.97009 11.9095Z" stroke="#8E35FF" stroke-width="1.5" stroke-linecap="round" stroke-linejoin="round"/>
</svg>
