<svg width="24" height="25" viewBox="0 0 24 25" fill="none" xmlns="http://www.w3.org/2000/svg">
<g clip-path="url(#clip0_32_42013)">
<path d="M20.25 5.85059H16.5V5.10059C16.5 4.50385 16.2629 3.93155 15.841 3.5096C15.419 3.08764 14.8467 2.85059 14.25 2.85059H9.75C9.15326 2.85059 8.58097 3.08764 8.15901 3.5096C7.73705 3.93155 7.5 4.50385 7.5 5.10059V5.85059H3.75C3.35218 5.85059 2.97064 6.00862 2.68934 6.28993C2.40804 6.57123 2.25 6.95276 2.25 7.35059V19.3506C2.25 19.7484 2.40804 20.1299 2.68934 20.4112C2.97064 20.6926 3.35218 20.8506 3.75 20.8506H20.25C20.6478 20.8506 21.0294 20.6926 21.3107 20.4112C21.592 20.1299 21.75 19.7484 21.75 19.3506V7.35059C21.75 6.95276 21.592 6.57123 21.3107 6.28993C21.0294 6.00862 20.6478 5.85059 20.25 5.85059ZM9 5.10059C9 4.90167 9.07902 4.71091 9.21967 4.57026C9.36032 4.4296 9.55109 4.35059 9.75 4.35059H14.25C14.4489 4.35059 14.6397 4.4296 14.7803 4.57026C14.921 4.71091 15 4.90167 15 5.10059V5.85059H9V5.10059ZM20.25 7.35059V14.1006H3.75V7.35059H20.25Z" fill="#B9BDCC"/>
</g>
<defs>
<clipPath id="clip0_32_42013">
<rect width="24" height="24" fill="white" transform="translate(0 0.600586)"/>
</clipPath>
</defs>
</svg>
