<svg width="24" height="24" viewBox="0 0 24 24" fill="none" xmlns="http://www.w3.org/2000/svg">
<path fill-rule="evenodd" clip-rule="evenodd" d="M19.9019 4.09817C19.5537 3.74984 19.1403 3.47353 18.6852 3.28502C18.2302 3.0965 17.7425 2.99947 17.2499 2.99947C16.7574 2.99947 16.2697 3.0965 15.8146 3.28502C15.3596 3.47353 14.9462 3.74984 14.5979 4.09817L10.0979 8.59817C9.67339 9.02234 9.35685 9.5422 9.1749 10.1141C8.99296 10.686 8.95093 11.2932 9.05234 11.8847C9.15374 12.4761 9.39563 13.0347 9.75767 13.5133C10.1197 13.9919 10.5913 14.3766 11.1329 14.6352C11.3062 14.7245 11.438 14.8778 11.5002 15.0625C11.5624 15.2473 11.5502 15.4491 11.4662 15.625C11.3822 15.8009 11.233 15.9373 11.0502 16.0051C10.8674 16.0729 10.6653 16.0668 10.4869 15.9882C9.72904 15.6261 9.06907 15.0876 8.56244 14.4176C8.05581 13.7477 7.71731 12.966 7.57535 12.1382C7.43339 11.3104 7.49213 10.4606 7.74663 9.66013C8.00112 8.8597 8.44395 8.13201 9.03793 7.53817L13.5379 3.03817C14.0231 2.5403 14.6023 2.14374 15.2419 1.8715C15.8815 1.59926 16.5689 1.45675 17.264 1.45226C17.9591 1.44776 18.6482 1.58136 19.2913 1.84531C19.9344 2.10925 20.5187 2.49829 21.0103 2.98984C21.5018 3.48139 21.8908 4.06566 22.1548 4.70876C22.4187 5.35185 22.5523 6.04097 22.5478 6.7361C22.5433 7.43124 22.4008 8.11857 22.1286 8.7582C21.8564 9.39783 21.4598 9.97702 20.9619 10.4622L19.2049 12.2192C19.1363 12.2929 19.0535 12.352 18.9615 12.393C18.8695 12.4339 18.7702 12.456 18.6694 12.4578C18.5687 12.4595 18.4687 12.441 18.3753 12.4033C18.2819 12.3656 18.1971 12.3094 18.1259 12.2382C18.0547 12.167 17.9985 12.0822 17.9608 11.9888C17.9231 11.8954 17.9046 11.7954 17.9063 11.6946C17.9081 11.5939 17.9302 11.4946 17.9711 11.4026C18.0121 11.3106 18.0712 11.2278 18.1449 11.1592L19.9019 9.40217C20.2502 9.05394 20.5266 8.6405 20.7151 8.18546C20.9036 7.73043 21.0006 7.24271 21.0006 6.75017C21.0006 6.25763 20.9036 5.76991 20.7151 5.31488C20.5266 4.85984 20.2502 4.4464 19.9019 4.09817ZM12.5129 8.36517C12.5987 8.18577 12.7523 8.04781 12.9398 7.98161C13.1274 7.91542 13.3335 7.92641 13.5129 8.01217C14.2708 8.3742 14.9308 8.91278 15.4374 9.58269C15.944 10.2526 16.2825 11.0343 16.4245 11.8621C16.5665 12.69 16.5077 13.5398 16.2532 14.3402C15.9987 15.1406 15.5559 15.8683 14.9619 16.4622L10.4619 20.9622C9.97678 21.46 9.39758 21.8566 8.75796 22.1288C8.11833 22.4011 7.431 22.5436 6.73586 22.5481C6.04072 22.5526 5.35161 22.419 4.70851 22.155C4.06542 21.8911 3.48114 21.5021 2.98959 21.0105C2.49805 20.519 2.10901 19.9347 1.84506 19.2916C1.58112 18.6485 1.44752 17.9594 1.45201 17.2642C1.45651 16.5691 1.59901 15.8818 1.87126 15.2421C2.1435 14.6025 2.54006 14.0233 3.03793 13.5382L4.79493 11.7812C4.86359 11.7075 4.94639 11.6484 5.03839 11.6074C5.13039 11.5664 5.2297 11.5444 5.3304 11.5426C5.43111 11.5408 5.53113 11.5593 5.62452 11.597C5.71791 11.6348 5.80274 11.6909 5.87396 11.7621C5.94518 11.8334 6.00133 11.9182 6.03905 12.0116C6.07677 12.105 6.09529 12.205 6.09352 12.3057C6.09174 12.4064 6.0697 12.5057 6.02871 12.5977C5.98771 12.6897 5.92861 12.7725 5.85493 12.8412L4.09793 14.5982C3.74966 14.9464 3.4734 15.3599 3.28492 15.8149C3.09644 16.2699 2.99943 16.7576 2.99943 17.2502C2.99943 17.7427 3.09644 18.2304 3.28492 18.6854C3.4734 19.1405 3.74966 19.5539 4.09793 19.9022C4.44619 20.2504 4.85964 20.5267 5.31467 20.7152C5.7697 20.9037 6.2574 21.0007 6.74993 21.0007C7.24245 21.0007 7.73015 20.9037 8.18518 20.7152C8.64021 20.5267 9.05366 20.2504 9.40193 19.9022L13.9019 15.4022C14.3265 14.978 14.643 14.4581 14.8249 13.8863C15.0069 13.3144 15.0489 12.7072 14.9475 12.1157C14.8461 11.5242 14.6042 10.9657 14.2422 10.4871C13.8801 10.0084 13.4085 9.6237 12.8669 9.36517C12.778 9.32276 12.6983 9.26326 12.6324 9.19005C12.5665 9.11684 12.5157 9.03136 12.4828 8.9385C12.4499 8.84564 12.4356 8.74721 12.4408 8.64884C12.446 8.55046 12.4705 8.45407 12.5129 8.36517Z" fill="#191A26"/>
</svg>
