<svg width="24" height="24" viewBox="0 0 24 24" fill="none" xmlns="http://www.w3.org/2000/svg">
<path fill-rule="evenodd" clip-rule="evenodd" d="M8.9998 2.25C9.19871 2.25 9.38948 2.32902 9.53013 2.46967C9.67078 2.61032 9.7498 2.80109 9.7498 3V4.506C11.5362 4.53293 13.3198 4.65678 15.0928 4.877C15.1906 4.88921 15.285 4.92056 15.3706 4.96926C15.4563 5.01796 15.5315 5.08305 15.592 5.16082C15.6525 5.23859 15.6971 5.32751 15.7232 5.42251C15.7494 5.51751 15.7565 5.61673 15.7443 5.7145C15.7321 5.81227 15.7007 5.90668 15.652 5.99233C15.6033 6.07798 15.5382 6.1532 15.4605 6.2137C15.3827 6.2742 15.2938 6.31879 15.1988 6.34492C15.1038 6.37105 15.0046 6.37821 14.9068 6.366C14.2468 6.283 13.5838 6.215 12.9168 6.16C12.3334 8.43576 11.3258 10.581 9.9468 12.483C10.2648 12.867 10.5968 13.236 10.9468 13.59C11.0863 13.7319 11.1637 13.9234 11.162 14.1224C11.1604 14.3213 11.0797 14.5115 10.9378 14.651C10.7959 14.7905 10.6044 14.8679 10.4054 14.8662C10.2065 14.8646 10.0163 14.7839 9.8768 14.642C9.57363 14.3338 9.28113 14.0153 8.9998 13.687C7.42119 15.5318 5.50056 17.0538 3.3438 18.169C3.16703 18.2602 2.96126 18.2775 2.77176 18.217C2.58225 18.1566 2.42453 18.0233 2.3333 17.8465C2.24207 17.6697 2.22479 17.464 2.28527 17.2745C2.34575 17.085 2.47903 16.9272 2.6558 16.836C4.72941 15.7634 6.56483 14.2828 8.0518 12.483C7.17936 11.2785 6.45358 9.97429 5.8898 8.598C5.81892 8.41482 5.82273 8.21115 5.9004 8.03074C5.97808 7.85034 6.12343 7.70761 6.30521 7.63322C6.48699 7.55883 6.6907 7.55872 6.87257 7.63291C7.05443 7.70711 7.19993 7.84968 7.2778 8.03C7.73764 9.15237 8.31485 10.223 8.9998 11.224C10.0786 9.64736 10.8867 7.90171 11.3908 6.059C8.62112 5.92164 5.84476 6.02436 3.0928 6.366C2.89535 6.39067 2.69618 6.33588 2.53912 6.2137C2.38206 6.09152 2.27997 5.91195 2.2553 5.7145C2.23064 5.51705 2.28542 5.31788 2.4076 5.16082C2.52978 5.00376 2.70935 4.90166 2.9068 4.877C4.67974 4.65633 6.46338 4.53248 8.2498 4.506V3C8.2498 2.80109 8.32882 2.61032 8.46947 2.46967C8.61012 2.32902 8.80089 2.25 8.9998 2.25ZM15.7498 9C15.8926 8.99995 16.0325 9.04066 16.1529 9.11737C16.2734 9.19407 16.3694 9.30357 16.4298 9.433L21.6798 20.683C21.7214 20.7723 21.7451 20.8689 21.7493 20.9674C21.7536 21.0658 21.7385 21.1641 21.7048 21.2567C21.6711 21.3493 21.6195 21.4343 21.5529 21.5069C21.4863 21.5796 21.4061 21.6384 21.3168 21.68C21.1365 21.7641 20.9301 21.7731 20.7431 21.705C20.5561 21.6369 20.4039 21.4973 20.3198 21.317L19.1218 18.75H12.3778L11.1798 21.317C11.0957 21.4973 10.9435 21.6369 10.7565 21.705C10.5695 21.7731 10.3631 21.7641 10.1828 21.68C10.0025 21.5959 9.86289 21.4437 9.79482 21.2567C9.72674 21.0697 9.73573 20.8633 9.8198 20.683L15.0698 9.433C15.1302 9.30357 15.2262 9.19407 15.3467 9.11737C15.4671 9.04066 15.607 8.99995 15.7498 9ZM13.0778 17.25H18.4218L15.7498 11.524L13.0778 17.25Z" fill="#191A26"/>
</svg>
