<svg width="21" height="21" viewBox="0 0 21 21" fill="none" xmlns="http://www.w3.org/2000/svg">
<path d="M5.5 15.8327V5.16602C5.5 4.88987 5.72386 4.66602 6 4.66602H8.33333C8.60947 4.66602 8.83333 4.88987 8.83333 5.16602V15.8327C8.83333 16.1088 8.60947 16.3327 8.33333 16.3327H6C5.72386 16.3327 5.5 16.1088 5.5 15.8327Z" fill="#B9BDCC" stroke="#B9BDCC" stroke-width="1.5"/>
<path d="M12.168 15.8327V5.16602C12.168 4.88987 12.3918 4.66602 12.668 4.66602H15.0013C15.2775 4.66602 15.5013 4.88987 15.5013 5.16602V15.8327C15.5013 16.1088 15.2775 16.3327 15.0013 16.3327H12.668C12.3918 16.3327 12.168 16.1088 12.168 15.8327Z" fill="#B9BDCC" stroke="#B9BDCC" stroke-width="1.5"/>
</svg>
