<svg width="24" height="24" viewBox="0 0 24 24" fill="none" xmlns="http://www.w3.org/2000/svg">
<path d="M5.2486 7C5.24907 7 5.24953 7 5.25 7H18.7496H18.75H5.2486ZM5.2486 7C5.30873 6.9549 5.37101 6.91243 5.43531 6.87273C5.83035 6.62885 6.2855 6.49978 6.74977 6.5H6.75H17.25H17.2501C17.7142 6.49994 18.1692 6.62908 18.564 6.87295C18.6282 6.91258 18.6904 6.95499 18.7504 7H5.2486ZM17.2504 4C17.2503 4 17.2501 4 17.25 4H6.75023C6.74969 4 6.74914 4 6.7486 4C6.80873 3.9549 6.87102 3.91243 6.93531 3.87273C7.33035 3.62885 7.7855 3.49978 8.24977 3.5H8.25L15.75 3.5L15.7501 3.5C16.2142 3.49994 16.6692 3.62908 17.064 3.87295C17.1282 3.91258 17.1904 3.95499 17.2504 4ZM2.75 12C2.75 11.337 3.01339 10.7011 3.48223 10.2322C3.95107 9.76339 4.58696 9.5 5.25 9.5H18.75C19.413 9.5 20.0489 9.76339 20.5178 10.2322C20.9866 10.7011 21.25 11.337 21.25 12V18C21.25 18.663 20.9866 19.2989 20.5178 19.7678C20.0489 20.2366 19.413 20.5 18.75 20.5H5.25C4.58696 20.5 3.95107 20.2366 3.48223 19.7678C3.01339 19.2989 2.75 18.663 2.75 18V12Z" fill="white" stroke="white"/>
</svg>
