<svg width="24" height="24" viewBox="0 0 24 24" fill="none" xmlns="http://www.w3.org/2000/svg">
<path fill-rule="evenodd" clip-rule="evenodd" d="M9.00029 2.25C9.1992 2.25 9.38997 2.32902 9.53062 2.46967C9.67127 2.61032 9.75029 2.80109 9.75029 3V4.506C11.5367 4.53293 13.3203 4.65678 15.0933 4.877C15.1911 4.88921 15.2855 4.92056 15.3711 4.96926C15.4568 5.01796 15.532 5.08305 15.5925 5.16082C15.653 5.23859 15.6976 5.32751 15.7237 5.42251C15.7498 5.51751 15.757 5.61673 15.7448 5.7145C15.7326 5.81227 15.7012 5.90668 15.6525 5.99233C15.6038 6.07798 15.5387 6.1532 15.461 6.2137C15.3832 6.2742 15.2943 6.31879 15.1993 6.34492C15.1043 6.37105 15.0051 6.37821 14.9073 6.366C14.2473 6.283 13.5843 6.215 12.9173 6.16C12.3339 8.43576 11.3263 10.581 9.94729 12.483C10.2653 12.867 10.5973 13.236 10.9473 13.59C11.0868 13.7319 11.1642 13.9234 11.1625 14.1224C11.1608 14.3213 11.0802 14.5115 10.9383 14.651C10.7964 14.7905 10.6049 14.8679 10.4059 14.8662C10.2069 14.8646 10.0168 14.7839 9.87729 14.642C9.57412 14.3338 9.28161 14.0153 9.00029 13.687C7.42167 15.5318 5.50105 17.0538 3.34429 18.169C3.16752 18.2602 2.96175 18.2775 2.77225 18.217C2.58274 18.1566 2.42502 18.0233 2.33379 17.8465C2.24255 17.6697 2.22528 17.464 2.28576 17.2745C2.34624 17.085 2.47952 16.9272 2.65629 16.836C4.7299 15.7634 6.56532 14.2828 8.05229 12.483C7.17985 11.2785 6.45407 9.97429 5.89029 8.598C5.81941 8.41482 5.82322 8.21115 5.90089 8.03074C5.97857 7.85034 6.12392 7.70761 6.3057 7.63322C6.48748 7.55883 6.69119 7.55872 6.87305 7.63291C7.05492 7.70711 7.20042 7.84968 7.27829 8.03C7.73813 9.15237 8.31534 10.223 9.00029 11.224C10.0791 9.64736 10.8872 7.90171 11.3913 6.059C8.62161 5.92164 5.84524 6.02436 3.09329 6.366C2.89584 6.39067 2.69667 6.33588 2.53961 6.2137C2.38255 6.09152 2.28045 5.91195 2.25579 5.7145C2.23112 5.51705 2.28591 5.31788 2.40809 5.16082C2.53027 5.00376 2.70984 4.90166 2.90729 4.877C4.68022 4.65633 6.46387 4.53248 8.25029 4.506V3C8.25029 2.80109 8.32931 2.61032 8.46996 2.46967C8.61061 2.32902 8.80138 2.25 9.00029 2.25ZM15.7503 9C15.8931 8.99995 16.033 9.04066 16.1534 9.11737C16.2739 9.19407 16.3699 9.30357 16.4303 9.433L21.6803 20.683C21.7219 20.7723 21.7455 20.8689 21.7498 20.9674C21.7541 21.0658 21.739 21.1641 21.7053 21.2567C21.6716 21.3493 21.62 21.4343 21.5534 21.5069C21.4868 21.5796 21.4066 21.6384 21.3173 21.68C21.1369 21.7641 20.9306 21.7731 20.7436 21.705C20.5566 21.6369 20.4044 21.4973 20.3203 21.317L19.1223 18.75H12.3783L11.1803 21.317C11.0962 21.4973 10.9439 21.6369 10.757 21.705C10.57 21.7731 10.3636 21.7641 10.1833 21.68C10.0029 21.5959 9.86338 21.4437 9.7953 21.2567C9.72723 21.0697 9.73622 20.8633 9.82029 20.683L15.0703 9.433C15.1306 9.30357 15.2267 9.19407 15.3472 9.11737C15.4676 9.04066 15.6075 8.99995 15.7503 9ZM13.0783 17.25H18.4223L15.7503 11.524L13.0783 17.25Z" fill="#B9BDCC"/>
</svg>
