<svg width="24" height="24" viewBox="0 0 24 24" fill="none" xmlns="http://www.w3.org/2000/svg">
<g clip-path="url(#clip0_1_8121)">
<path d="M23.1895 8.35929L19.7207 18.984C19.6858 19.0911 19.6273 19.1889 19.5494 19.2703C19.4715 19.3517 19.3763 19.4144 19.2709 19.454C19.1654 19.4935 19.0524 19.5088 18.9402 19.4987C18.828 19.4886 18.7196 19.4533 18.6229 19.3955C18.6013 19.3824 16.2042 18.0015 11.9967 18.0015C7.78916 18.0015 5.39197 19.3824 5.36853 19.3965C5.27188 19.4537 5.16361 19.4885 5.05172 19.4983C4.93983 19.508 4.82717 19.4925 4.72206 19.4529C4.61696 19.4134 4.52208 19.3507 4.44445 19.2695C4.36682 19.1883 4.30841 19.0907 4.27353 18.984L0.806657 8.35648C0.736804 8.14374 0.731421 7.91509 0.791185 7.69929C0.850949 7.4835 0.973191 7.2902 1.14254 7.1437C1.31188 6.9972 1.52076 6.90405 1.74291 6.87596C1.96506 6.84788 2.19056 6.88611 2.39103 6.98586L7.09634 9.32961L11.0263 2.79898C11.1274 2.63147 11.27 2.49291 11.4403 2.39673C11.6106 2.30054 11.8029 2.25 11.9985 2.25C12.1941 2.25 12.3864 2.30054 12.5568 2.39673C12.7271 2.49291 12.8697 2.63147 12.9707 2.79898L16.9007 9.32961L21.6079 6.98586C21.8086 6.88596 22.0344 6.84779 22.2568 6.87614C22.4792 6.90449 22.6882 6.99811 22.8574 7.14516C23.0266 7.29221 23.1485 7.48611 23.2076 7.70237C23.2667 7.91863 23.2604 8.14755 23.1895 8.36023V8.35929Z" fill="#B9BDCC"/>
</g>
<defs>
<clipPath id="clip0_1_8121">
<rect width="24" height="24" fill="white"/>
</clipPath>
</defs>
</svg>
