<svg width="24" height="24" viewBox="0 0 24 24" fill="none" xmlns="http://www.w3.org/2000/svg">
<path d="M20.97 6.2017L12.72 1.68764C12.4996 1.56584 12.2518 1.50195 12 1.50195C11.7482 1.50195 11.5004 1.56584 11.28 1.68764L3.03 6.20358C2.7944 6.33249 2.59772 6.52229 2.46052 6.75316C2.32331 6.98404 2.25061 7.24751 2.25 7.51608V16.4823C2.25061 16.7509 2.32331 17.0144 2.46052 17.2452C2.59772 17.4761 2.7944 17.6659 3.03 17.7948L11.28 22.3108C11.5004 22.4326 11.7482 22.4965 12 22.4965C12.2518 22.4965 12.4996 22.4326 12.72 22.3108L20.97 17.7948C21.2056 17.6659 21.4023 17.4761 21.5395 17.2452C21.6767 17.0144 21.7494 16.7509 21.75 16.4823V7.51701C21.7499 7.24797 21.6774 6.98391 21.5402 6.7525C21.403 6.52108 21.206 6.33084 20.97 6.2017ZM12 15.7501C11.2583 15.7501 10.5333 15.5302 9.91661 15.1182C9.29993 14.7061 8.81928 14.1204 8.53545 13.4352C8.25162 12.75 8.17736 11.996 8.32205 11.2685C8.46675 10.5411 8.8239 9.87294 9.34835 9.34849C9.8728 8.82404 10.541 8.46689 11.2684 8.32219C11.9958 8.1775 12.7498 8.25176 13.4351 8.53559C14.1203 8.81942 14.706 9.30007 15.118 9.91675C15.5301 10.5334 15.75 11.2585 15.75 12.0001C15.75 12.9947 15.3549 13.9485 14.6517 14.6518C13.9484 15.3551 12.9946 15.7501 12 15.7501Z" fill="#191A26"/>
</svg>
