<svg width="24" height="24" viewBox="0 0 24 24" fill="none" xmlns="http://www.w3.org/2000/svg">
<path d="M8.62576 21.25H8.625C6.24639 21.25 4.02126 20.5921 2.12298 19.4487L2.12226 19.4483C2.08587 19.4264 2.05565 19.3957 2.03442 19.359C2.01348 19.3227 2.00197 19.2818 2.00096 19.24C2.00095 19.2394 2.00093 19.2388 2.00092 19.2383L2 19.125C2 19.1243 2 19.1237 2 19.123C2.00053 17.3667 2.69846 15.6824 3.94042 14.4404C5.18285 13.198 6.86794 12.5 8.625 12.5C10.3821 12.5 12.0672 13.198 13.3096 14.4404C14.552 15.6828 15.25 17.3679 15.25 19.125V19.128L15.2491 19.2387C15.2491 19.2392 15.2491 19.2397 15.249 19.2402C15.2481 19.282 15.2366 19.323 15.2157 19.3593C15.1946 19.396 15.1644 19.4268 15.1281 19.4487L15.386 19.877L15.1281 19.4487C13.1654 20.6306 10.9169 21.2535 8.62576 21.25ZM17.75 19.1315L17.7506 19.0486L17.7488 19.0432C17.7361 17.322 17.2349 15.6437 16.3092 14.2017C16.8335 14.0363 17.3861 13.9706 17.938 14.0102C18.6895 14.0641 19.4143 14.311 20.0423 14.7273C20.6703 15.1435 21.1802 15.7148 21.5225 16.386C21.8649 17.0571 22.0281 17.8052 21.9964 18.558L21.9964 18.5585C21.9946 18.6035 21.9806 18.6472 21.9559 18.6849C21.9313 18.7226 21.8969 18.753 21.8564 18.7728L21.856 18.773C20.5594 19.4084 19.1386 19.7414 17.7003 19.7509C17.7299 19.5962 17.7463 19.4388 17.7489 19.2804H17.749L17.749 19.2755L17.75 19.1315ZM5 6.375C5 5.41359 5.38192 4.49156 6.06174 3.81174C6.74156 3.13192 7.66359 2.75 8.625 2.75C9.58641 2.75 10.5084 3.13192 11.1883 3.81174C11.8681 4.49156 12.25 5.41359 12.25 6.375C12.25 7.33641 11.8681 8.25844 11.1883 8.93826C10.5084 9.61808 9.58641 10 8.625 10C7.66359 10 6.74156 9.61808 6.06174 8.93826C5.38192 8.25844 5 7.33641 5 6.375ZM14.75 8.625C14.75 8.24745 14.8244 7.8736 14.9688 7.52479C15.1133 7.17597 15.3251 6.85904 15.5921 6.59207C15.859 6.3251 16.176 6.11333 16.5248 5.96885C16.8736 5.82436 17.2474 5.75 17.625 5.75C18.0026 5.75 18.3764 5.82436 18.7252 5.96885C19.074 6.11333 19.391 6.3251 19.6579 6.59207C19.9249 6.85904 20.1367 7.17597 20.2812 7.52478C20.4256 7.8736 20.5 8.24745 20.5 8.625C20.5 9.3875 20.1971 10.1188 19.6579 10.6579C19.1188 11.1971 18.3875 11.5 17.625 11.5C16.8625 11.5 16.1312 11.1971 15.5921 10.6579C15.0529 10.1188 14.75 9.3875 14.75 8.625Z" fill="#B9BDCC" stroke="#B9BDCC"/>
</svg>
