<svg width="24" height="24" viewBox="0 0 24 24" fill="none" xmlns="http://www.w3.org/2000/svg">
<path d="M11.6999 2.8048C11.7946 2.7635 11.8967 2.74219 11.9999 2.74219C12.1032 2.74219 12.2053 2.7635 12.2999 2.8048C15.998 4.4212 19.5255 6.40269 22.8299 8.7198C22.9464 8.80147 23.0372 8.91456 23.0918 9.0459C23.1464 9.17723 23.1626 9.32139 23.1384 9.46154C23.1141 9.6017 23.0506 9.73209 22.9551 9.83748C22.8596 9.94288 22.736 10.0189 22.5989 10.0568C19.1683 11.0043 15.8488 12.3157 12.6969 13.9688L12.6939 13.9708C12.5799 14.0308 12.4669 14.0898 12.3539 14.1508C12.2452 14.2089 12.1238 14.2393 12.0004 14.2393C11.8771 14.2393 11.7557 14.2089 11.6469 14.1508C10.2951 13.4294 8.91135 12.7694 7.49994 12.1728V11.9488C7.49994 11.8178 7.56694 11.7008 7.67194 11.6378C9.18131 10.7231 10.7341 9.88213 12.3249 9.1178C12.5042 9.03161 12.6419 8.87772 12.7078 8.69C12.7736 8.50227 12.7621 8.29609 12.6759 8.1168C12.5897 7.93751 12.4359 7.79981 12.2481 7.73399C12.0604 7.66816 11.8542 7.67961 11.6749 7.7658C10.0407 8.55108 8.44552 9.4151 6.89494 10.3548C6.67434 10.4886 6.48403 10.6669 6.33614 10.8784C6.18824 11.0898 6.08601 11.3297 6.03594 11.5828C4.51715 10.9984 2.97063 10.4888 1.40194 10.0558C1.26483 10.0179 1.14132 9.94188 1.04581 9.83648C0.9503 9.73109 0.886728 9.6007 0.862512 9.46055C0.838297 9.32039 0.854435 9.17623 0.909045 9.0449C0.963655 8.91357 1.05449 8.80047 1.17094 8.7188C4.47513 6.40211 8.00227 4.42096 11.6999 2.8048Z" fill="#B9BDCC"/>
<path d="M13.0607 15.4744C15.517 14.1621 18.0818 13.0641 20.7267 12.1924C20.8607 13.6064 20.9467 15.0354 20.9817 16.4764C20.9856 16.6275 20.9438 16.7762 20.8617 16.903C20.7796 17.0299 20.6611 17.129 20.5217 17.1874C17.687 18.3713 14.9728 19.8254 12.4167 21.5294C12.2935 21.6115 12.1488 21.6554 12.0007 21.6554C11.8527 21.6554 11.7079 21.6115 11.5847 21.5294C9.02898 19.8254 6.31513 18.3714 3.48074 17.1874C3.34134 17.1292 3.22275 17.0303 3.1405 16.9037C3.05824 16.777 3.01615 16.6284 3.01974 16.4774C3.05474 15.0354 3.14074 13.6074 3.27474 12.1914C4.19574 12.4954 5.10474 12.8254 6.00074 13.1814V14.4514C5.78468 14.5759 5.60306 14.7523 5.47231 14.9646C5.34156 15.177 5.26581 15.4185 5.25191 15.6675C5.23801 15.9165 5.28641 16.165 5.39271 16.3906C5.49901 16.6161 5.65987 16.8116 5.86074 16.9594C5.77074 17.3394 5.63874 17.7124 5.46374 18.0694C5.91574 18.2824 6.36474 18.5034 6.80974 18.7294C7.06058 18.2192 7.24573 17.6792 7.36074 17.1224C7.61363 17.01 7.83048 16.8298 7.98729 16.6017C8.14411 16.3737 8.23478 16.1067 8.24927 15.8303C8.26376 15.554 8.20151 15.279 8.0694 15.0358C7.93729 14.7926 7.74048 14.5907 7.50074 14.4524V13.8074C8.66885 14.3177 9.81641 14.8738 10.9407 15.4744C11.2669 15.6486 11.631 15.7397 12.0007 15.7397C12.3705 15.7397 12.7346 15.6486 13.0607 15.4744Z" fill="#B9BDCC"/>
<path d="M4.46201 19.4614C4.88201 19.0424 5.21501 18.5714 5.46201 18.0664C5.91501 18.2804 6.36401 18.5014 6.80901 18.7284C6.48181 19.393 6.04732 19.9991 5.52301 20.5224C5.38084 20.6549 5.19279 20.727 4.99849 20.7236C4.80419 20.7202 4.6188 20.6414 4.48139 20.504C4.34398 20.3666 4.26526 20.1812 4.26184 19.9869C4.25841 19.7926 4.33053 19.6046 4.46301 19.4624L4.46201 19.4614Z" fill="#B9BDCC"/>
</svg>
