<svg width="24" height="24" viewBox="0 0 24 24" fill="none" xmlns="http://www.w3.org/2000/svg">
<g clip-path="url(#clip0_846_35845)">
<path d="M20.25 3.74654V20.9965C20.25 21.1955 20.171 21.3862 20.0303 21.5269C19.8897 21.6675 19.6989 21.7465 19.5 21.7465C19.3011 21.7465 19.1103 21.6675 18.9697 21.5269C18.829 21.3862 18.75 21.1955 18.75 20.9965V16.4965H14.25C14.0511 16.4965 13.8603 16.4175 13.7197 16.2769C13.579 16.1362 13.5 15.9455 13.5 15.7465C13.5348 13.95 13.7617 12.1623 14.1769 10.414C15.0938 6.61811 16.8319 4.07373 19.2047 3.05748C19.3187 3.00863 19.4431 2.98883 19.5667 2.99987C19.6903 3.0109 19.8092 3.05242 19.9128 3.1207C20.0164 3.18899 20.1014 3.28191 20.1603 3.39113C20.2191 3.50035 20.2499 3.62247 20.25 3.74654ZM11.2397 3.62373C11.225 3.52525 11.1908 3.43068 11.1392 3.34554C11.0876 3.2604 11.0195 3.18638 10.939 3.12782C10.8585 3.06926 10.7671 3.02731 10.6702 3.00444C10.5733 2.98156 10.4728 2.97821 10.3746 2.99458C10.2764 3.01095 10.1824 3.04671 10.0982 3.09978C10.0139 3.15285 9.94107 3.22216 9.88389 3.30368C9.82671 3.38519 9.78634 3.47727 9.76512 3.57456C9.7439 3.67184 9.74227 3.77237 9.76031 3.87029L10.4897 8.24654H8.25V3.74654C8.25 3.54763 8.17098 3.35687 8.03033 3.21621C7.88968 3.07556 7.69891 2.99654 7.5 2.99654C7.30109 2.99654 7.11032 3.07556 6.96967 3.21621C6.82902 3.35687 6.75 3.54763 6.75 3.74654V8.24654H4.51031L5.23969 3.87029C5.25773 3.77237 5.2561 3.67184 5.23488 3.57456C5.21366 3.47727 5.17329 3.38519 5.11611 3.30368C5.05893 3.22216 4.98609 3.15285 4.90184 3.09978C4.81759 3.04671 4.72362 3.01095 4.62541 2.99458C4.52719 2.97821 4.4267 2.98156 4.32979 3.00444C4.23289 3.02731 4.14151 3.06926 4.06098 3.12782C3.98045 3.18638 3.9124 3.2604 3.86077 3.34554C3.80915 3.43068 3.775 3.52525 3.76031 3.62373L3.01031 8.12373C3.00358 8.16433 3.00013 8.2054 3 8.24654C3.0015 9.30949 3.37867 10.3377 4.06488 11.1495C4.75108 11.9613 5.70214 12.5043 6.75 12.6828V20.9965C6.75 21.1955 6.82902 21.3862 6.96967 21.5269C7.11032 21.6675 7.30109 21.7465 7.5 21.7465C7.69891 21.7465 7.88968 21.6675 8.03033 21.5269C8.17098 21.3862 8.25 21.1955 8.25 20.9965V12.6828C9.29786 12.5043 10.2489 11.9613 10.9351 11.1495C11.6213 10.3377 11.9985 9.30949 12 8.24654C11.9999 8.2054 11.9964 8.16433 11.9897 8.12373L11.2397 3.62373Z" fill="#B9BDCC"/>
</g>
<defs>
<clipPath id="clip0_846_35845">
<rect width="24" height="24" fill="white"/>
</clipPath>
</defs>
</svg>
