<svg width="24" height="24" viewBox="0 0 24 24" fill="none" xmlns="http://www.w3.org/2000/svg">
<g clip-path="url(#clip0_1_8168)">
<path d="M5.48368 12.6317L2.12556 10.2195C1.86748 10.0344 1.67485 9.77207 1.57541 9.4704C1.47596 9.16873 1.47485 8.84329 1.57222 8.54095C1.6696 8.23861 1.86043 7.97499 2.11724 7.78806C2.37404 7.60113 2.68355 7.50054 3.00118 7.50079H7.14868L5.48368 12.6317ZM4.984 19.032C4.88289 19.3333 4.88165 19.6591 4.98045 19.961C5.07925 20.263 5.27283 20.5251 5.53243 20.7083C5.78686 20.8973 6.09536 20.9993 6.41228 20.9993C6.7292 20.9993 7.0377 20.8973 7.29212 20.7083L10.7168 18.2445L6.27681 15.0495L4.984 19.032ZM13.429 1.80642C13.3355 1.50105 13.1467 1.23367 12.8901 1.04354C12.6335 0.853405 12.3227 0.750526 12.0034 0.750002C11.684 0.749478 11.3729 0.851335 11.1157 1.04063C10.8585 1.22992 10.6688 1.49667 10.5743 1.80173L9.21212 6.00079H14.7902L13.429 1.80642ZM15.2768 7.50079H8.72556L6.76243 13.5514L12.0012 17.3211L17.2399 13.5514L15.2768 7.50079ZM22.4243 8.53767C22.3299 8.23493 22.1405 7.97063 21.8842 7.78389C21.6279 7.59715 21.3183 7.49789 21.0012 7.50079H16.8537L18.5187 12.6327L21.8796 10.2139C22.1389 10.0303 22.3319 9.76782 22.4301 9.46564C22.5282 9.16346 22.5262 8.83767 22.4243 8.53673V8.53767ZM17.7256 15.0505L13.2856 18.2445L16.7102 20.7083C16.9665 20.8943 17.275 20.9944 17.5916 20.9944C17.9082 20.9944 18.2167 20.8941 18.4728 20.7081C18.729 20.522 18.9198 20.2597 19.0178 19.9586C19.1157 19.6576 19.116 19.3332 19.0184 19.032L17.7256 15.0505Z" fill="#B9BDCC"/>
</g>
<defs>
<clipPath id="clip0_1_8168">
<rect width="24" height="24" fill="white"/>
</clipPath>
</defs>
</svg>
