<svg width="24" height="24" viewBox="0 0 24 24" fill="none" xmlns="http://www.w3.org/2000/svg">
<g clip-path="url(#clip0_846_35874)">
<path d="M2.3216 10.8319C2.54308 8.97479 3.30267 7.22293 4.50691 5.79192C4.64016 5.63125 4.80547 5.50015 4.99228 5.40701C5.17909 5.31388 5.38328 5.26076 5.59179 5.25106C5.8003 5.24135 6.00855 5.27527 6.2032 5.35065C6.39785 5.42602 6.57463 5.54119 6.72223 5.6888L9.31629 8.33817C9.56611 8.58742 9.71921 8.91736 9.74823 9.26906C9.77725 9.62077 9.68031 9.97134 9.47473 10.2582C9.319 10.4791 9.20172 10.7247 9.12785 10.9847C9.10439 11.0614 9.05694 11.1286 8.99248 11.1764C8.92802 11.2241 8.84995 11.2499 8.76972 11.25H2.69473C2.64179 11.2501 2.58943 11.239 2.5411 11.2174C2.49277 11.1958 2.44957 11.1642 2.41432 11.1247C2.37907 11.0852 2.35259 11.0387 2.33661 10.9883C2.32063 10.9378 2.31551 10.8845 2.3216 10.8319ZM12.8816 2.25567C12.6744 2.2376 12.4657 2.26282 12.2688 2.32971C12.0719 2.3966 11.891 2.50372 11.7377 2.64424C11.5844 2.78477 11.462 2.95564 11.3783 3.14601C11.2945 3.33637 11.2513 3.54208 11.2513 3.75005V7.56286C11.2487 7.91665 11.3723 8.25978 11.6 8.53059C11.8277 8.8014 12.1445 8.98214 12.4935 9.04036C13.1506 9.14877 13.753 9.47277 14.2057 9.96129C14.6583 10.4498 14.9356 11.0751 14.9937 11.7386C15.0518 12.402 14.8875 13.066 14.5267 13.6258C14.1658 14.1856 13.6289 14.6094 13.0007 14.8304C12.9275 14.8572 12.8644 14.9059 12.8198 14.9697C12.7752 15.0336 12.7513 15.1096 12.7513 15.1875V21.3029C12.7509 21.356 12.7619 21.4085 12.7833 21.4571C12.8048 21.5056 12.8364 21.5491 12.8759 21.5845C12.9154 21.62 12.962 21.6466 13.0126 21.6627C13.0632 21.6788 13.1167 21.684 13.1694 21.6779C15.5093 21.389 17.6661 20.2647 19.2429 18.512C20.8198 16.7593 21.7105 14.4961 21.7513 12.1388C21.8216 7.04911 17.9253 2.70755 12.8816 2.25567ZM10.9935 14.8275C10.5742 14.678 10.1935 14.4371 9.87897 14.1222C9.56439 13.8073 9.32383 13.4263 9.17472 13.0069C9.14916 12.9325 9.10118 12.8679 9.03739 12.8219C8.97359 12.7759 8.89712 12.7508 8.81848 12.75H2.69379C2.64078 12.7497 2.58831 12.7606 2.53982 12.782C2.49134 12.8035 2.44795 12.8349 2.41252 12.8744C2.37708 12.9138 2.3504 12.9603 2.33425 13.0107C2.31809 13.0612 2.31282 13.1146 2.31879 13.1672C2.58139 15.3342 3.56288 17.3506 5.10636 18.894C6.64984 20.4375 8.66621 21.419 10.8332 21.6816C10.8858 21.6876 10.9392 21.6823 10.9897 21.6661C11.0401 21.65 11.0866 21.6233 11.126 21.5879C11.1655 21.5524 11.1969 21.5091 11.2184 21.4606C11.2398 21.4121 11.2507 21.3596 11.2503 21.3066V15.1875C11.2505 15.1082 11.2258 15.0309 11.1797 14.9663C11.1337 14.9017 11.0685 14.8532 10.9935 14.8275Z" fill="#B9BDCC"/>
</g>
<defs>
<clipPath id="clip0_846_35874">
<rect width="24" height="24" fill="white"/>
</clipPath>
</defs>
</svg>
