<svg width="147" height="224" viewBox="0 0 147 224" fill="none" xmlns="http://www.w3.org/2000/svg">
<mask id="mask0_123_44660" style="mask-type:alpha" maskUnits="userSpaceOnUse" x="0" y="0" width="147" height="224">
<path fill-rule="evenodd" clip-rule="evenodd" d="M81.2155 2.80717C76.4411 -0.935723 70.5589 -0.935723 65.7845 2.80717L7.7155 48.3307C2.94113 52.0736 0 58.9907 0 66.4765V157.523C0 165.009 2.94113 171.926 7.7155 175.669L65.7845 221.193C70.5589 224.936 76.4411 224.936 81.2155 221.193L139.285 175.669C144.059 171.926 147 165.009 147 157.523V66.4765C147 58.9907 144.059 52.0736 139.285 48.3307L81.2155 2.80717ZM85.3205 100.314L75.0431 92.2567C74.0882 91.5082 72.9118 91.5082 71.9569 92.2567L61.6795 100.314C60.7246 101.062 60.1364 102.446 60.1364 103.943V120.057C60.1364 121.554 60.7246 122.938 61.6795 123.686L71.9569 131.743C72.9118 132.492 74.0882 132.492 75.0431 131.743L85.3205 123.686C86.2754 122.938 86.8636 121.554 86.8636 120.057V103.943C86.8636 102.446 86.2754 101.062 85.3205 100.314Z" fill="#F36DFF"/>
<path d="M75.0431 92.2567L85.3205 100.314C86.2754 101.062 86.8636 102.446 86.8636 103.943V120.057C86.8636 121.554 86.2754 122.938 85.3205 123.686L75.0431 131.743C74.0882 132.492 72.9118 132.492 71.9569 131.743L61.6795 123.686C60.7246 122.938 60.1364 121.554 60.1364 120.057V103.943C60.1364 102.446 60.7246 101.062 61.6795 100.314L71.9569 92.2567C72.9118 91.5082 74.0882 91.5082 75.0431 92.2567Z" fill="#F36DFF"/>
</mask>
<g mask="url(#mask0_123_44660)">
<path fill-rule="evenodd" clip-rule="evenodd" d="M81.2155 2.80717C76.4411 -0.935723 70.5589 -0.935723 65.7845 2.80717L7.7155 48.3307C2.94113 52.0736 0 58.9907 0 66.4765V157.523C0 165.009 2.94113 171.926 7.7155 175.669L65.7845 221.193C70.5589 224.936 76.4411 224.936 81.2155 221.193L139.285 175.669C144.059 171.926 147 165.009 147 157.523V66.4765C147 58.9907 144.059 52.0736 139.285 48.3307L81.2155 2.80717ZM85.3205 100.314L75.0431 92.2567C74.0882 91.5082 72.9118 91.5082 71.9569 92.2567L61.6795 100.314C60.7246 101.062 60.1364 102.446 60.1364 103.943V120.057C60.1364 121.554 60.7246 122.938 61.6795 123.686L71.9569 131.743C72.9118 132.492 74.0882 132.492 75.0431 131.743L85.3205 123.686C86.2754 122.938 86.8636 121.554 86.8636 120.057V103.943C86.8636 102.446 86.2754 101.062 85.3205 100.314Z" fill="#17BAE6"/>
<path d="M75.0431 92.2567L85.3205 100.314C86.2754 101.062 86.8636 102.446 86.8636 103.943V120.057C86.8636 121.554 86.2754 122.938 85.3205 123.686L75.0431 131.743C74.0882 132.492 72.9118 132.492 71.9569 131.743L61.6795 123.686C60.7246 122.938 60.1364 121.554 60.1364 120.057V103.943C60.1364 102.446 60.7246 101.062 61.6795 100.314L71.9569 92.2567C72.9118 91.5082 74.0882 91.5082 75.0431 92.2567Z" fill="#17BAE6"/>
<g style="mix-blend-mode:difference">
<path d="M80.599 7.09974L136.345 50.9974C140.78 54.4895 143.561 60.997 143.561 68.1023V155.898C143.561 163.003 140.78 169.51 136.345 173.003L80.599 216.9C76.197 220.367 70.8058 220.367 66.4039 216.9L10.6576 173.003C6.22297 169.51 3.44141 163.003 3.44141 155.898V68.1023C3.44141 60.997 6.22297 54.4895 10.6576 50.9974L66.4039 7.09974C70.8058 3.63342 76.197 3.63342 80.599 7.09974Z" stroke="url(#paint0_linear_123_44660)" stroke-opacity="0.2"/>
</g>
<g style="mix-blend-mode:soft-light">
<path d="M-98.1913 -62.6894L-105.151 -68L-112.111 -62.6894V-52.0659M-98.1913 -62.6894V-52.0659M-98.1913 -62.6894L-91.5979 -68L-85.0045 -62.6894M-98.1913 -52.0659L-105.151 -46.7553M-98.1913 -52.0659L-91.5979 -46.7553M-105.151 -46.7553L-112.111 -52.0659M-105.151 -46.7553L-105.151 -36.1318M-112.111 -52.0659L-119.07 -46.7553V-36.1318L-112.111 -30.8188M-85.0045 -62.6894V-52.0659M-85.0045 -62.6894L-77.8617 -68L-70.7189 -62.6894M-85.0045 -52.0659L-91.5979 -46.7553M-85.0045 -52.0659L-77.8617 -46.7553L-70.7189 -52.0659M-91.5979 -46.7553L-98.2829 -52.0659L-104.968 -46.7553V-36.1318L-98.2829 -30.8188L-91.5979 -36.1318M-91.5979 -46.7553V-36.1318M-70.7189 -62.6894V-52.0659M-70.7189 -62.6894L-63.7592 -68L-56.7995 -62.6894M-70.7189 -52.0659L-63.7592 -46.7553L-56.7995 -52.0659M-56.7995 -62.6894V-52.0659M-56.7995 -62.6894L-49.7482 -68L-42.6969 -62.6894M-56.7995 -52.0659L-49.7482 -46.7553L-42.6969 -52.0659M-42.6969 -62.6894V-52.0659M-42.6969 -62.6894L-36.1035 -68L-29.5101 -62.6894M-42.6969 -52.0659L-36.1035 -46.7553M-29.5101 -62.6894V-52.0659M-29.5101 -62.6894L-22.5505 -68L-15.5908 -62.6894M-29.5101 -52.0659L-36.1035 -46.7553M-29.5101 -52.0659L-22.5505 -46.7553M-36.1035 -46.7553L-42.9717 -52.0659L-49.8398 -46.7553V-36.1318L-42.9717 -30.8188L-36.1035 -36.1318M-36.1035 -46.7553L-36.1035 -36.1318M-15.5908 -62.6894V-52.0659M-15.5908 -62.6894L-8.72264 -68L-1.85452 -62.6894M-15.5908 -52.0659L-22.5505 -46.7553M-15.5908 -52.0659L-8.72264 -46.7553L-1.85452 -52.0659M-15.5908 -52.0659L-8.63106 -46.7553M-22.5505 -46.7553L-29.4186 -52.0659L-36.2867 -46.7553V-36.1318L-29.4186 -30.8188L-22.5505 -36.1318M-22.5505 -46.7553V-36.1318M-105.151 -36.1318L-112.111 -30.8188M-105.151 -36.1318L-98.1913 -30.8188M-112.111 -30.8188L-112.111 -20.1977M-91.5979 -36.1318L-98.1913 -30.8188M-91.5979 -36.1318L-85.0045 -30.8188M-77.6786 -46.7553L-84.5467 -52.0659L-91.4148 -46.7553V-36.1318L-84.5467 -30.8188L-77.6786 -36.1318M-77.6786 -46.7553V-36.1318M-77.6786 -46.7553L-70.8104 -52.0659L-63.9423 -46.7553M-77.6786 -36.1318L-70.8104 -30.8188L-63.9423 -36.1318M-63.9423 -46.7553V-36.1318M-63.9423 -46.7553L-56.9826 -52.0659L-50.0229 -46.7553V-36.1318L-56.9826 -30.8188L-63.9423 -36.1318M-36.1035 -36.1318L-42.6969 -30.8188M-36.1035 -36.1318L-29.5101 -30.8188M-22.5505 -36.1318L-29.5101 -30.8188M-22.5505 -36.1318L-15.5908 -30.8188M-98.1913 -30.8188V-20.1977M-98.1913 -20.1977L-105.151 -14.8847M-98.1913 -20.1977L-91.5979 -14.8847M-105.151 -14.8847L-112.111 -20.1977M-105.151 -14.8847L-105.151 -4.26114L-112.111 1.04941L-119.07 -4.26114V-14.8847L-112.111 -20.1977M-85.0045 -30.8188V-20.1977M-85.0045 -30.8188L-77.8617 -36.1318L-70.7189 -30.8188M-85.0045 -20.1977L-91.5979 -14.8847M-85.0045 -20.1977L-77.8617 -14.8847M-91.5979 -14.8847L-98.2829 -20.1977L-104.968 -14.8847V-4.26114M-91.5979 -14.8847V-4.26114M-91.5979 -14.8847L-84.7298 -20.1977L-77.8617 -14.8847M-70.7189 -30.8188V-20.1977M-70.7189 -30.8188L-63.7592 -36.1318L-56.7995 -30.8188M-70.7189 -20.1977L-77.8617 -14.8847M-70.7189 -20.1977L-63.7592 -14.8847L-56.7995 -20.1977M-77.8617 -14.8847V-4.26114M-56.7995 -30.8188V-20.1977M-56.7995 -30.8188L-49.7482 -36.1318L-42.6969 -30.8188M-56.7995 -20.1977L-49.7482 -14.8847L-42.6969 -20.1977M-42.6969 -30.8188V-20.1977M-42.6969 -20.1977L-36.1035 -14.8847L-29.5101 -20.1977M-29.5101 -30.8188V-20.1977M-29.5101 -20.1977L-22.5505 -14.8847M-15.5908 -30.8188V-20.1977M-15.5908 -30.8188L-8.63106 -36.1318M-15.5908 -30.8188L-8.72264 -36.1318L-1.85452 -30.8188M-15.5908 -20.1977L-22.5505 -14.8847M-15.5908 -20.1977L-8.72264 -14.8847L-1.85452 -20.1977M-15.5908 -20.1977L-8.63106 -14.8847V-4.26114L-15.5908 1.04941M-22.5505 -14.8847L-29.4186 -20.1977L-36.2867 -14.8847M-22.5505 -14.8847V-4.26114M-91.5979 -4.26114L-98.2829 1.04941L-104.968 -4.26114M-91.5979 -4.26114L-84.7298 1.04941L-77.8617 -4.26114M-91.5979 -4.26114L-98.1913 1.04941V11.673L-91.5979 16.9835M-91.5979 -4.26114L-85.0045 1.04941M-104.968 -4.26114L-111.928 1.04941V11.673L-104.968 16.9835M-104.968 -4.26114L-98.0082 1.04941V11.673L-104.968 16.9835M-77.8617 -4.26114L-85.0045 1.04941M-77.8617 -4.26114L-70.7189 1.04941M-63.9423 -14.8847L-70.8104 -20.1977L-77.6786 -14.8847V-4.26114L-70.8104 1.04941L-63.9423 -4.26114M-63.9423 -14.8847V-4.26114M-63.9423 -14.8847L-56.9826 -20.1977L-50.0229 -14.8847M-63.9423 -4.26114L-56.9826 1.04941L-50.0229 -4.26114M-50.0229 -14.8847V-4.26114M-50.0229 -14.8847L-43.1548 -20.1977L-36.2867 -14.8847M-50.0229 -4.26114L-43.1548 1.04941L-36.2867 -4.26114M-36.2867 -14.8847V-4.26114M-36.2867 -4.26114L-29.4186 1.04941L-22.5505 -4.26114M-22.5505 -4.26114L-29.5101 1.04941M-22.5505 -4.26114L-15.5908 1.04941M-104.968 16.9835L-98.2829 11.673L-91.5979 16.9835M-104.968 16.9835V27.6071L-98.2829 32.9176L-91.5979 27.6071M-85.0045 1.04941V11.673M-85.0045 11.673L-91.5979 16.9835M-85.0045 11.673L-77.8617 16.9835L-70.7189 11.673M-91.5979 16.9835V27.6071M-70.7189 1.04941V11.673M-70.7189 1.04941L-63.7592 -4.26114L-56.7995 1.04941M-70.7189 11.673L-63.7592 16.9835L-56.7995 11.673M-56.7995 1.04941V11.673M-56.7995 1.04941L-49.7482 -4.26114L-42.6969 1.04941M-56.7995 11.673L-49.7482 16.9835L-42.6969 11.673M-42.6969 1.04941V11.673M-42.6969 1.04941L-36.1035 -4.26114L-29.5101 1.04941M-42.6969 11.673L-36.1035 16.9835L-29.5101 11.673M-29.5101 1.04941V11.673M-29.5101 11.673L-22.5505 16.9835M-15.5908 1.04941V11.673M-15.5908 1.04941L-8.72264 -4.26114L-1.85452 1.04941M-15.5908 11.673L-22.5505 16.9835M-15.5908 11.673L-8.72264 16.9835L-1.85452 11.673M-15.5908 11.673L-8.63106 16.9835M-22.5505 16.9835L-29.4186 11.673L-36.2867 16.9835M-22.5505 16.9835V27.6071M-105.151 27.6071V16.9835L-112.111 11.673L-119.07 16.9835V27.6071L-112.111 32.9176M-105.151 27.6071L-112.111 32.9176M-105.151 27.6071L-98.1913 32.9176M-112.111 32.9176L-112.111 43.5412M-91.5979 27.6071L-98.1913 32.9176M-91.5979 27.6071L-85.0045 32.9176M-77.6786 16.9835L-84.5467 11.673L-91.4148 16.9835V27.6071L-84.5467 32.9176L-77.6786 27.6071M-77.6786 16.9835V27.6071M-77.6786 16.9835L-70.8104 11.673L-63.9423 16.9835M-77.6786 27.6071L-70.8104 32.9176L-63.9423 27.6071M-63.9423 16.9835V27.6071M-63.9423 16.9835L-56.9826 11.673L-50.0229 16.9835M-63.9423 27.6071L-56.9826 32.9176L-50.0229 27.6071M-50.0229 16.9835V27.6071M-50.0229 16.9835L-43.1548 11.673L-36.2867 16.9835M-50.0229 27.6071L-43.1548 32.9176L-36.2867 27.6071M-36.2867 16.9835V27.6071M-36.2867 27.6071L-29.4186 32.9176L-22.5505 27.6071M-22.5505 27.6071L-29.5101 32.9176M-22.5505 27.6071L-15.5908 32.9176M-98.1913 32.9176V43.5412M-98.1913 43.5412L-105.151 48.8542M-98.1913 43.5412L-91.5979 48.8542M-105.151 48.8542L-112.111 43.5412M-105.151 48.8542L-105.151 59.4753M-112.111 43.5412L-119.07 48.8542V59.4753L-112.111 64.7883M-85.0045 32.9176V43.5412M-85.0045 32.9176L-77.8617 27.6071L-70.7189 32.9176M-85.0045 43.5412L-91.5979 48.8542M-85.0045 43.5412L-77.8617 48.8542L-70.7189 43.5412M-91.5979 48.8542L-98.2829 43.5412L-104.968 48.8542V59.4753L-98.2829 64.7883L-91.5979 59.4753M-91.5979 48.8542V59.4753M-70.7189 32.9176V43.5412M-70.7189 32.9176L-63.7592 27.6071L-56.7995 32.9176M-70.7189 43.5412L-63.7592 48.8542L-56.7995 43.5412M-56.7995 32.9176V43.5412M-56.7995 32.9176L-49.7482 27.6071L-42.6969 32.9176M-56.7995 43.5412L-49.7482 48.8542L-42.6969 43.5412M-42.6969 32.9176V43.5412M-42.6969 32.9176L-36.1035 27.6071L-29.5101 32.9176M-42.6969 43.5412L-36.1035 48.8542L-29.5101 43.5412M-29.5101 32.9176V43.5412M-29.5101 43.5412L-22.5505 48.8542M-15.5908 32.9176V43.5412M-15.5908 32.9176L-8.63106 27.6071M-15.5908 32.9176L-8.72264 27.6071L-1.85452 32.9176M-15.5908 43.5412L-22.5505 48.8542M-15.5908 43.5412L-8.72264 48.8542L-1.85452 43.5412M-15.5908 43.5412L-8.63106 48.8542M-22.5505 48.8542L-29.4186 43.5412L-36.2867 48.8542M-22.5505 48.8542V59.4753M-105.151 59.4753L-112.111 64.7883M-105.151 59.4753L-98.1913 64.7883M-112.111 64.7883L-112.111 75.4118M-91.5979 59.4753L-98.1913 64.7883M-91.5979 59.4753L-85.0045 64.7883M-77.6786 48.8542L-84.5467 43.5412L-91.4148 48.8542V59.4753L-84.5467 64.7883L-77.6786 59.4753M-77.6786 48.8542V59.4753M-77.6786 48.8542L-70.8104 43.5412L-63.9423 48.8542M-77.6786 59.4753L-70.8104 64.7883L-63.9423 59.4753M-63.9423 48.8542V59.4753M-63.9423 48.8542L-56.9826 43.5412L-50.0229 48.8542M-63.9423 59.4753L-56.9826 64.7883L-50.0229 59.4753M-50.0229 48.8542V59.4753M-50.0229 48.8542L-43.1548 43.5412L-36.2867 48.8542M-50.0229 59.4753L-43.1548 64.7883L-36.2867 59.4753M-36.2867 48.8542V59.4753M-36.2867 59.4753L-29.4186 64.7883L-22.5505 59.4753M-22.5505 59.4753L-29.5101 64.7883M-22.5505 59.4753L-15.5908 64.7883M-98.1913 64.7883V75.4118M-98.1913 75.4118L-105.151 80.7224M-98.1913 75.4118L-91.5979 80.7224M-105.151 80.7224L-112.111 75.4118M-105.151 80.7224L-105.151 91.3459L-112.111 96.6565L-119.07 91.3459V80.7224L-112.111 75.4118M-85.0045 64.7883V75.4118M-85.0045 64.7883L-77.8617 59.4753L-70.7189 64.7883M-85.0045 75.4118L-91.5979 80.7224M-85.0045 75.4118L-77.8617 80.7224L-70.7189 75.4118M-91.5979 80.7224L-98.2829 75.4118L-104.968 80.7224V91.3459L-98.2829 96.6565L-91.5979 91.3459V80.7224ZM-70.7189 64.7883V75.4118M-70.7189 64.7883L-63.7592 59.4753L-56.7995 64.7883M-70.7189 75.4118L-63.7592 80.7224L-56.7995 75.4118M-56.7995 64.7883V75.4118M-56.7995 64.7883L-49.7482 59.4753L-42.6969 64.7883M-56.7995 75.4118L-49.7482 80.7224L-42.6969 75.4118M-42.6969 64.7883V75.4118M-42.6969 64.7883L-36.1035 59.4753L-29.5101 64.7883M-42.6969 75.4118L-36.1035 80.7224M-29.5101 64.7883V75.4118M-29.5101 75.4118L-36.1035 80.7224M-29.5101 75.4118L-22.5505 80.7224M-36.1035 80.7224L-42.9717 75.4118L-49.8398 80.7224V91.3459L-42.9717 96.6565L-36.1035 91.3459L-36.1035 80.7224ZM-15.5908 64.7883V75.4118M-15.5908 64.7883L-8.63106 59.4753M-15.5908 64.7883L-8.72264 59.4753L-1.85452 64.7883M-15.5908 75.4118L-22.5505 80.7224M-15.5908 75.4118L-8.72264 80.7224L-1.85452 75.4118M-15.5908 75.4118L-8.63106 80.7224M-22.5505 80.7224L-29.4186 75.4118L-36.2867 80.7224V91.3459L-29.4186 96.6565L-22.5505 91.3459M-22.5505 80.7224V91.3459M-77.6786 80.7224L-84.5467 75.4118L-91.4148 80.7224V91.3459L-84.5467 96.6565L-77.6786 91.3459M-77.6786 80.7224V91.3459M-77.6786 80.7224L-70.8104 75.4118L-63.9423 80.7224M-77.6786 91.3459L-70.8104 96.6565L-63.9423 91.3459M-63.9423 80.7224V91.3459M-63.9423 80.7224L-56.9826 75.4118L-50.0229 80.7224V91.3459L-56.9826 96.6565L-63.9423 91.3459M-22.5505 91.3459L-15.5908 96.6565L-8.63106 91.3459M-1.85452 -62.6894V-52.0659M-1.85452 -62.6894L5.0136 -68L11.8817 -62.6894M-1.85452 -52.0659L5.0136 -46.7553L11.8817 -52.0659M11.8817 -62.6894V-52.0659M11.8817 -62.6894L18.8414 -68L25.8011 -62.6894M11.8817 -52.0659L18.8414 -46.7553L25.8011 -52.0659M25.8011 -62.6894V-52.0659M25.8011 -62.6894L32.3029 -68L38.8048 -62.6894M25.8011 -52.0659L32.3029 -46.7553L38.8048 -52.0659M25.8011 -52.0659L19.3909 -46.7553M25.8011 -52.0659L32.2113 -46.7553M38.8048 -62.6894V-52.0659M38.8048 -62.6894L46.0392 -68L53.2736 -62.6894M38.8048 -52.0659L46.0392 -46.7553L53.2736 -52.0659M53.2736 -62.6894V-52.0659M53.2736 -62.6894L60.0501 -68L66.8267 -62.6894M53.2736 -52.0659L60.0501 -46.7553L66.8267 -52.0659M66.8267 -62.6894V-52.0659M66.8267 -62.6894L73.6032 -68L80.3798 -62.6894M66.8267 -52.0659L73.6032 -46.7553L80.3798 -52.0659M80.3798 -62.6894V-52.0659M80.3798 -62.6894L87.3394 -68L94.2992 -62.6894M80.3798 -52.0659L87.3394 -46.7553L94.2992 -52.0659M-8.63106 -46.7553V-36.1318M-8.63106 -46.7553L-1.67136 -52.0659L5.28833 -46.7553M-8.63106 -36.1318L-1.67136 -30.8188L5.28833 -36.1318M5.28833 -46.7553V-36.1318M5.28833 -46.7553L12.3396 -52.0659L19.3909 -46.7553M5.28833 -36.1318L12.3396 -30.8188L19.3909 -36.1318M19.3909 -46.7553V-36.1318M19.3909 -36.1318L25.8011 -30.8188M32.2113 -46.7553V-36.1318M32.2113 -46.7553L38.9879 -52.0659L45.7644 -46.7553M32.2113 -36.1318L25.8011 -30.8188M32.2113 -36.1318L38.9879 -30.8188L45.7644 -36.1318M25.8011 -30.8188L18.8414 -36.1318L11.8817 -30.8188M25.8011 -30.8188V-20.1977M25.8011 -30.8188L32.3029 -36.1318L38.8048 -30.8188M45.7644 -46.7553V-36.1318M45.7644 -46.7553L52.8157 -52.0659L59.867 -46.7553M45.7644 -36.1318L52.8157 -30.8188L59.867 -36.1318M59.867 -46.7553V-36.1318M59.867 -46.7553L66.6435 -52.0659L73.4201 -46.7553M59.867 -36.1318L66.6435 -30.8188L73.4201 -36.1318M73.4201 -46.7553V-36.1318M73.4201 -46.7553L80.5629 -52.0659L87.7058 -46.7553M73.4201 -36.1318L80.5629 -30.8188L87.7058 -36.1318M-1.85452 -30.8188V-20.1977M-1.85452 -30.8188L5.0136 -36.1318L11.8817 -30.8188M-1.85452 -20.1977L5.0136 -14.8847L11.8817 -20.1977M-1.85452 -20.1977L-8.81422 -14.8847V-4.26114L-1.85452 1.04941M-1.85452 -20.1977L5.10518 -14.8847V-4.26114L-1.85452 1.04941M11.8817 -30.8188V-20.1977M11.8817 -20.1977L18.8414 -14.8847L25.8011 -20.1977M25.8011 -20.1977L32.3029 -14.8847L38.8048 -20.1977M38.8048 -30.8188V-20.1977M38.8048 -30.8188L46.0392 -36.1318L53.2736 -30.8188M38.8048 -20.1977L46.0392 -14.8847L53.2736 -20.1977M53.2736 -30.8188V-20.1977M53.2736 -30.8188L60.0501 -36.1318L66.8267 -30.8188M53.2736 -20.1977L60.0501 -14.8847L66.8267 -20.1977M66.8267 -30.8188V-20.1977M66.8267 -30.8188L73.6032 -36.1318L80.3798 -30.8188M66.8267 -20.1977L73.6032 -14.8847L80.3798 -20.1977M80.3798 -30.8188V-20.1977M80.3798 -30.8188L87.3394 -36.1318L94.2992 -30.8188M80.3798 -20.1977L87.3394 -14.8847L94.2992 -20.1977M-1.85452 1.04941V11.673M-1.85452 1.04941L5.0136 -4.26114L11.8817 1.04941V11.673L5.0136 16.9835L-1.85452 11.673M19.0246 -4.26114V-14.8847L11.9733 -20.1977L4.92202 -14.8847V-4.26114L11.9733 1.04941L19.0246 -4.26114ZM19.0246 -4.26114L12.0649 1.04941V11.673L19.0246 16.9835L25.9843 11.673V1.04941L19.0246 -4.26114ZM45.7644 -14.8847L38.9879 -20.1977L32.2114 -14.8847V-4.26114L38.9879 1.04941L45.7644 -4.26114M45.7644 -14.8847V-4.26114M45.7644 -14.8847L52.8157 -20.1977L59.867 -14.8847M45.7644 -4.26114L52.8157 1.04941L59.867 -4.26114M59.867 -14.8847V-4.26114M59.867 -14.8847L66.6435 -20.1977L73.4201 -14.8847M59.867 -4.26114L66.6435 1.04941L73.4201 -4.26114M73.4201 -14.8847V-4.26114M73.4201 -14.8847L80.5629 -20.1977L87.7058 -14.8847M73.4201 -4.26114L80.5629 1.04941L87.7058 -4.26114M38.8048 1.04941L32.3029 -4.26114L25.8011 1.04941V11.673M38.8048 1.04941V11.673M38.8048 1.04941L46.0392 -4.26114L53.2736 1.04941M38.8048 11.673L32.3029 16.9835L25.8011 11.673M38.8048 11.673L46.0392 16.9835L53.2736 11.673M25.8011 11.673L19.3909 16.9835M25.8011 11.673L32.2113 16.9835M53.2736 1.04941V11.673M53.2736 1.04941L60.0501 -4.26114L66.8267 1.04941M53.2736 11.673L60.0501 16.9835L66.8267 11.673M66.8267 1.04941V11.673M66.8267 1.04941L73.6032 -4.26114L80.3798 1.04941M66.8267 11.673L73.6032 16.9835L80.3798 11.673M80.3798 1.04941V11.673M80.3798 1.04941L87.3394 -4.26114L94.2992 1.04941M80.3798 11.673L87.3394 16.9835L94.2992 11.673M-8.63106 16.9835V27.6071M-8.63106 16.9835L-1.67136 11.673L5.28833 16.9835M-8.63106 27.6071L-1.67136 32.9176L5.28833 27.6071M5.28833 16.9835V27.6071M5.28833 16.9835L12.3396 11.673L19.3909 16.9835M5.28833 27.6071L12.3396 32.9176L19.3909 27.6071M19.3909 16.9835V27.6071M19.3909 27.6071L25.8011 32.9176M32.2113 16.9835V27.6071M32.2113 16.9835L38.9879 11.673L45.7644 16.9835M32.2113 27.6071L25.8011 32.9176M32.2113 27.6071L38.9879 32.9176L45.7644 27.6071M25.8011 32.9176L32.3029 27.6071L38.8048 32.9176M25.8011 32.9176V43.5412M45.7644 16.9835V27.6071M45.7644 16.9835L52.8157 11.673L59.867 16.9835M45.7644 27.6071L52.8157 32.9176L59.867 27.6071M59.867 16.9835V27.6071M59.867 16.9835L66.6435 11.673L73.4201 16.9835M59.867 27.6071L66.6435 32.9176L73.4201 27.6071M73.4201 16.9835V27.6071M73.4201 16.9835L80.5629 11.673L87.7058 16.9835M73.4201 27.6071L80.5629 32.9176L87.7058 27.6071M-1.85452 32.9176V43.5412M-1.85452 32.9176L5.0136 27.6071L11.8817 32.9176V43.5412L5.0136 48.8542L-1.85452 43.5412M38.8048 32.9176V43.5412M38.8048 32.9176L46.0392 27.6071L53.2736 32.9176M38.8048 43.5412L32.3029 48.8542L25.8011 43.5412M38.8048 43.5412L46.0392 48.8542L53.2736 43.5412M25.8011 43.5412L19.3909 48.8542V59.4753L25.8011 64.7883M25.8011 43.5412L32.2113 48.8542M53.2736 32.9176V43.5412M53.2736 32.9176L60.0501 27.6071L66.8267 32.9176M53.2736 43.5412L60.0501 48.8542M66.8267 32.9176V43.5412M66.8267 32.9176L73.6032 27.6071L80.3798 32.9176M66.8267 43.5412L60.0501 48.8542M66.8267 43.5412L73.6032 48.8542L80.3798 43.5412M60.0501 48.8542L52.9989 43.5412L45.9476 48.8542V59.4753L52.9989 64.7883L60.0501 59.4753M60.0501 48.8542V59.4753M80.3798 32.9176V43.5412M80.3798 32.9176L87.3394 27.6071L94.2992 32.9176M80.3798 43.5412L87.3394 48.8542L94.2992 43.5412M-8.63106 48.8542V59.4753M-8.63106 48.8542L-1.67136 43.5412L5.28833 48.8542V59.4753L-1.67136 64.7883L-8.63106 59.4753M32.2113 48.8542V59.4753M32.2113 48.8542L38.9879 43.5412L45.7644 48.8542V59.4753L38.9879 64.7883L32.2113 59.4753M32.2113 59.4753L25.8011 64.7883M25.8011 64.7883L32.3029 59.4753L38.8048 64.7883M25.8011 64.7883V75.4118L32.3029 80.7224L38.8048 75.4118M60.0501 59.4753L53.2736 64.7883M60.0501 59.4753L66.8267 64.7883M73.4201 48.8542L66.6435 43.5412L59.867 48.8542V59.4753L66.6435 64.7883L73.4201 59.4753M73.4201 48.8542V59.4753M73.4201 48.8542L80.5629 43.5412L87.7058 48.8542M73.4201 59.4753L80.5629 64.7883L87.7058 59.4753M-1.85452 64.7883V75.4118M-1.85452 64.7883L5.0136 59.4753L11.8817 64.7883V75.4118L5.0136 80.7224L-1.85452 75.4118M38.8048 64.7883V75.4118M38.8048 64.7883L46.0392 59.4753L53.2736 64.7883M38.8048 75.4118L46.0392 80.7224L53.2736 75.4118M53.2736 64.7883V75.4118M53.2736 75.4118L60.0501 80.7224M66.8267 64.7883V75.4118M66.8267 64.7883L73.6032 59.4753L80.3798 64.7883M66.8267 75.4118L60.0501 80.7224M66.8267 75.4118L73.6032 80.7224L80.3798 75.4118M60.0501 80.7224L52.9989 75.4118L45.9476 80.7224V91.3459L52.9989 96.6565L60.0501 91.3459V80.7224ZM80.3798 64.7883V75.4118M80.3798 64.7883L87.3394 59.4753L94.2992 64.7883M80.3798 75.4118L87.3394 80.7224L94.2992 75.4118M-8.63106 80.7224V91.3459M-8.63106 80.7224L-1.67136 75.4118L5.28833 80.7224V91.3459L-1.67136 96.6565L-8.63106 91.3459M19.2077 80.7224L12.1564 75.4118L5.10517 80.7224V91.3459L12.1564 96.6565L19.2077 91.3459M19.2077 80.7224V91.3459M19.2077 80.7224L25.618 75.4118L32.0282 80.7224V91.3459L25.618 96.6565L19.2077 91.3459M73.4201 80.7224L66.6435 75.4118L59.867 80.7224V91.3459L66.6435 96.6565L73.4201 91.3459M73.4201 80.7224V91.3459M73.4201 80.7224L80.5629 75.4118L87.7058 80.7224M73.4201 91.3459L80.5629 96.6565L87.7058 91.3459M94.2992 -62.6894V-52.0659M94.2992 -62.6894L101.076 -68L107.852 -62.6894M94.2992 -52.0659L101.076 -46.7553L107.852 -52.0659M107.852 -62.6894V-52.0659M107.852 -62.6894L114.904 -68L121.955 -62.6894M107.852 -52.0659L114.904 -46.7553L121.955 -52.0659M121.955 -62.6894V-52.0659M121.955 -62.6894L128.731 -68L135.508 -62.6894M121.955 -52.0659L128.731 -46.7553L135.508 -52.0659M135.508 -62.6894V-52.0659M135.508 -62.6894L142.468 -68L149.427 -62.6894M135.508 -52.0659L142.468 -46.7553L149.427 -52.0659M149.427 -62.6894V-52.0659M149.427 -62.6894L156.387 -68L163.347 -62.6894M149.427 -52.0659L156.387 -46.7553L163.347 -52.0659M163.347 -62.6894V-52.0659M163.347 -62.6894L170.215 -68L177.083 -62.6894M163.347 -52.0659L170.215 -46.7553L177.083 -52.0659M177.083 -62.6894V-52.0659M177.083 -62.6894L183.951 -68L190.819 -62.6894M177.083 -52.0659L183.951 -46.7553L190.819 -52.0659M177.083 -52.0659L170.489 -46.7553M177.083 -52.0659L183.676 -46.7553M87.7058 -46.7553V-36.1318M87.7058 -46.7553L94.4823 -52.0659L101.259 -46.7553M87.7058 -36.1318L94.4823 -30.8188L101.259 -36.1318M101.259 -46.7553V-36.1318M101.259 -46.7553L108.31 -52.0659L115.361 -46.7553M101.259 -36.1318L108.31 -30.8188L115.361 -36.1318M115.361 -46.7553V-36.1318M115.361 -46.7553L122.138 -52.0659L128.914 -46.7553M115.361 -36.1318L122.138 -30.8188L128.914 -36.1318M128.914 -46.7553V-36.1318M128.914 -46.7553L135.599 -52.0659L142.284 -46.7553M128.914 -36.1318L135.599 -30.8188L142.284 -36.1318M142.284 -46.7553V-36.1318M142.284 -46.7553L149.153 -52.0659L156.021 -46.7553M142.284 -36.1318L149.153 -30.8188L156.021 -36.1318M156.021 -46.7553V-36.1318M156.021 -46.7553L163.255 -52.0659L170.489 -46.7553M156.021 -36.1318L163.255 -30.8188L170.489 -36.1318M170.489 -46.7553V-36.1318M170.489 -36.1318L177.083 -30.8188M94.2992 -30.8188V-20.1977M94.2992 -30.8188L101.076 -36.1318L107.852 -30.8188M94.2992 -20.1977L101.076 -14.8847M107.852 -30.8188V-20.1977M107.852 -30.8188L114.904 -36.1318L121.955 -30.8188M107.852 -20.1977L101.076 -14.8847M107.852 -20.1977L114.904 -14.8847L121.955 -20.1977M101.076 -14.8847L108.127 -20.1977L115.178 -14.8847V-4.26114L108.127 1.04941L101.076 -4.26114M101.076 -14.8847L101.076 -4.26114M121.955 -30.8188V-20.1977M121.955 -30.8188L128.731 -36.1318L135.508 -30.8188M121.955 -20.1977L128.731 -14.8847L135.508 -20.1977M135.508 -30.8188V-20.1977M135.508 -30.8188L142.468 -36.1318L149.427 -30.8188M135.508 -20.1977L142.468 -14.8847L149.427 -20.1977M149.427 -30.8188V-20.1977M149.427 -30.8188L156.387 -36.1318L163.347 -30.8188M149.427 -20.1977L156.387 -14.8847L163.347 -20.1977M163.347 -30.8188V-20.1977M163.347 -30.8188L170.215 -36.1318L177.083 -30.8188M163.347 -20.1977L170.215 -14.8847L177.083 -20.1977M177.083 -30.8188V-20.1977M177.083 -30.8188L183.676 -36.1318M177.083 -30.8188L183.951 -36.1318L190.819 -30.8188M177.083 -20.1977L183.951 -14.8847L190.819 -20.1977M177.083 -20.1977L170.489 -14.8847M177.083 -20.1977L183.676 -14.8847M87.7058 -14.8847V-4.26114M87.7058 -14.8847L94.4823 -20.1977L101.259 -14.8847V-4.26114L94.4823 1.04941L87.7058 -4.26114M101.076 -4.26114L94.2992 1.04941M101.076 -4.26114L107.852 1.04941M128.914 -14.8847L122.138 -20.1977L115.361 -14.8847V-4.26114L122.138 1.04941L128.914 -4.26114M128.914 -14.8847V-4.26114M128.914 -14.8847L135.599 -20.1977L142.284 -14.8847M128.914 -4.26114L135.599 1.04941L142.284 -4.26114M142.284 -14.8847V-4.26114M142.284 -14.8847L149.153 -20.1977L156.021 -14.8847M142.284 -4.26114L149.153 1.04941L156.021 -4.26114M156.021 -14.8847V-4.26114M156.021 -14.8847L163.255 -20.1977L170.489 -14.8847M156.021 -4.26114L163.255 1.04941L170.489 -4.26114M170.489 -14.8847V-4.26114M170.489 -4.26114L177.083 1.04941M94.2992 1.04941V11.673M94.2992 11.673L101.076 16.9835M107.852 1.04941V11.673M107.852 1.04941L114.904 -4.26114L121.955 1.04941M107.852 11.673L101.076 16.9835M107.852 11.673L114.904 16.9835L121.955 11.673M101.076 16.9835L108.127 11.673L115.178 16.9835V27.6071L108.127 32.9176L101.076 27.6071M101.076 16.9835L101.076 27.6071M121.955 1.04941V11.673M121.955 1.04941L128.731 -4.26114L135.508 1.04941M121.955 11.673L128.731 16.9835L135.508 11.673M135.508 1.04941V11.673M135.508 1.04941L142.468 -4.26114L149.427 1.04941M135.508 11.673L142.468 16.9835L149.427 11.673M149.427 1.04941V11.673M149.427 1.04941L156.387 -4.26114L163.347 1.04941M149.427 11.673L156.387 16.9835L163.347 11.673M163.347 1.04941V11.673M163.347 1.04941L170.215 -4.26114L177.083 1.04941M163.347 11.673L170.215 16.9835L177.083 11.673M177.083 1.04941V11.673M177.083 1.04941L183.676 -4.26114M177.083 1.04941L183.951 -4.26114L190.819 1.04941M177.083 11.673L183.951 16.9835L190.819 11.673M177.083 11.673L170.489 16.9835M177.083 11.673L183.676 16.9835M87.7058 16.9835V27.6071M87.7058 16.9835L94.4823 11.673L101.259 16.9835V27.6071L94.4823 32.9176L87.7058 27.6071M101.076 27.6071L94.2992 32.9176M101.076 27.6071L107.852 32.9176M128.914 16.9835L122.138 11.673L115.361 16.9835V27.6071L122.138 32.9176L128.914 27.6071M128.914 16.9835V27.6071M128.914 16.9835L135.599 11.673L142.284 16.9835M128.914 27.6071L135.599 32.9176L142.284 27.6071M142.284 16.9835V27.6071M142.284 16.9835L149.153 11.673L156.021 16.9835M142.284 27.6071L149.153 32.9176L156.021 27.6071M156.021 16.9835V27.6071M156.021 16.9835L163.255 11.673L170.489 16.9835M156.021 27.6071L163.255 32.9176L170.489 27.6071M170.489 16.9835V27.6071M170.489 27.6071L177.083 32.9176M94.2992 32.9176V43.5412M94.2992 43.5412L101.076 48.8542M107.852 32.9176V43.5412M107.852 32.9176L114.904 27.6071L121.955 32.9176M107.852 43.5412L101.076 48.8542M107.852 43.5412L114.904 48.8542L121.955 43.5412M101.076 48.8542L108.127 43.5412L115.178 48.8542V59.4753L108.127 64.7883L101.076 59.4753M101.076 48.8542L101.076 59.4753M121.955 32.9176V43.5412M121.955 32.9176L128.731 27.6071L135.508 32.9176M121.955 43.5412L128.731 48.8542L135.508 43.5412M135.508 32.9176V43.5412M135.508 32.9176L142.468 27.6071L149.427 32.9176M135.508 43.5412L142.468 48.8542L149.427 43.5412M149.427 32.9176V43.5412M149.427 32.9176L156.387 27.6071L163.347 32.9176M149.427 43.5412L156.387 48.8542L163.347 43.5412M163.347 32.9176V43.5412M163.347 32.9176L170.215 27.6071L177.083 32.9176M163.347 43.5412L170.215 48.8542L177.083 43.5412M177.083 32.9176V43.5412M177.083 32.9176L183.676 27.6071M177.083 32.9176L183.951 27.6071L190.819 32.9176M177.083 43.5412L183.951 48.8542L190.819 43.5412M177.083 43.5412L170.489 48.8542M177.083 43.5412L183.676 48.8542M87.7058 48.8542V59.4753M87.7058 48.8542L94.4823 43.5412L101.259 48.8542V59.4753L94.4823 64.7883L87.7058 59.4753M101.076 59.4753L94.2992 64.7883M101.076 59.4753L107.852 64.7883M128.914 48.8542L122.138 43.5412L115.361 48.8542V59.4753L122.138 64.7883L128.914 59.4753M128.914 48.8542V59.4753M128.914 48.8542L135.599 43.5412L142.284 48.8542M128.914 59.4753L135.599 64.7883L142.284 59.4753M142.284 48.8542V59.4753M142.284 48.8542L149.153 43.5412L156.021 48.8542M142.284 59.4753L149.153 64.7883L156.021 59.4753M156.021 48.8542V59.4753M156.021 48.8542L163.255 43.5412L170.489 48.8542M156.021 59.4753L163.255 64.7883L170.489 59.4753M170.489 48.8542V59.4753M170.489 59.4753L177.083 64.7883M94.2992 64.7883V75.4118M94.2992 75.4118L101.076 80.7224M107.852 64.7883V75.4118M107.852 64.7883L114.904 59.4753L121.955 64.7883M107.852 75.4118L101.076 80.7224M107.852 75.4118L114.904 80.7224L121.955 75.4118M101.076 80.7224L108.127 75.4118L115.178 80.7224M101.076 80.7224L101.076 91.3459L108.127 96.6565L115.178 91.3459M121.955 64.7883V75.4118M121.955 64.7883L128.731 59.4753L135.508 64.7883M121.955 75.4118L128.731 80.7224M121.955 75.4118L115.178 80.7224M135.508 64.7883V75.4118M135.508 64.7883L142.468 59.4753L149.427 64.7883M135.508 75.4118L128.731 80.7224M135.508 75.4118L142.468 80.7224L149.427 75.4118M128.731 80.7224L128.731 91.3459L121.955 96.6565L115.178 91.3459M149.427 64.7883V75.4118M149.427 64.7883L156.387 59.4753L163.347 64.7883M149.427 75.4118L156.387 80.7224L163.347 75.4118M163.347 64.7883V75.4118M163.347 64.7883L170.215 59.4753L177.083 64.7883M163.347 75.4118L170.215 80.7224L177.083 75.4118M177.083 64.7883V75.4118M177.083 64.7883L183.676 59.4753M177.083 64.7883L183.951 59.4753L190.819 64.7883M177.083 75.4118L183.951 80.7224L190.819 75.4118M177.083 75.4118L170.489 80.7224M177.083 75.4118L183.676 80.7224M87.7058 80.7224V91.3459M87.7058 80.7224L94.4823 75.4118L101.259 80.7224V91.3459L94.4823 96.6565L87.7058 91.3459M115.178 80.7224V91.3459M142.284 80.7224L135.599 75.4118L128.914 80.7224V91.3459L135.599 96.6565L142.284 91.3459M142.284 80.7224V91.3459M142.284 80.7224L149.153 75.4118L156.021 80.7224M142.284 91.3459L149.153 96.6565L156.021 91.3459M156.021 80.7224V91.3459M156.021 80.7224L163.255 75.4118L170.489 80.7224M156.021 91.3459L163.255 96.6565L170.489 91.3459M170.489 80.7224V91.3459M170.489 91.3459L177.083 96.6565L183.676 91.3459M190.819 -62.6894V-52.0659M190.819 -62.6894L197.687 -68L204.555 -62.6894M190.819 -52.0659L197.687 -46.7553L204.555 -52.0659M190.819 -52.0659L183.676 -46.7553M190.819 -52.0659L197.962 -46.7553M204.555 -62.6894V-52.0659M204.555 -62.6894L211.332 -68L218.108 -62.6894M204.555 -52.0659L211.332 -46.7553M218.108 -62.6894V-52.0659M218.108 -62.6894L225.068 -68L232.028 -62.6894M218.108 -52.0659L211.332 -46.7553M218.108 -52.0659L225.068 -46.7553L232.028 -52.0659M211.332 -46.7553L204.647 -52.0659L197.962 -46.7553M211.332 -46.7553V-36.1318M211.332 -46.7553L218.383 -52.0659L225.434 -46.7553M232.028 -62.6894V-52.0659M232.028 -62.6894L239.079 -68L246.13 -62.6894M232.028 -52.0659L239.079 -46.7553L246.13 -52.0659M246.13 -62.6894V-52.0659M246.13 -62.6894L252.907 -68L259.683 -62.6894M246.13 -52.0659L252.907 -46.7553L259.683 -52.0659M259.683 -62.6894V-52.0659M259.683 -62.6894L266.552 -68L273.42 -62.6894V-52.0659L266.552 -46.7553L259.683 -52.0659M183.676 -46.7553V-36.1318M183.676 -36.1318L190.819 -30.8188M197.962 -46.7553V-36.1318M197.962 -36.1318L190.819 -30.8188M197.962 -36.1318L204.647 -30.8188L211.332 -36.1318M190.819 -30.8188L190.819 -20.1977M190.819 -30.8188L197.687 -36.1318L204.555 -30.8188M211.332 -36.1318L218.383 -30.8188L225.434 -36.1318M211.332 -36.1318L204.555 -30.8188M211.332 -36.1318L218.108 -30.8188M225.434 -46.7553V-36.1318M225.434 -46.7553L232.303 -52.0659L239.171 -46.7553M225.434 -36.1318L232.303 -30.8188L239.171 -36.1318M239.171 -46.7553V-36.1318M239.171 -46.7553L245.947 -52.0659L252.724 -46.7553M239.171 -36.1318L245.947 -30.8188L252.724 -36.1318M252.724 -46.7553V-36.1318M252.724 -46.7553L259.5 -52.0659L266.277 -46.7553V-36.1318L259.5 -30.8188L252.724 -36.1318M190.819 -20.1977L197.687 -14.8847L204.555 -20.1977M190.819 -20.1977L183.676 -14.8847M190.819 -20.1977L197.962 -14.8847M204.555 -30.8188V-20.1977M204.555 -20.1977L211.332 -14.8847M218.108 -30.8188V-20.1977M218.108 -30.8188L225.068 -36.1318L232.028 -30.8188M218.108 -20.1977L211.332 -14.8847M218.108 -20.1977L225.068 -14.8847L232.028 -20.1977M211.332 -14.8847L204.647 -20.1977L197.962 -14.8847M211.332 -14.8847V-4.26114M211.332 -14.8847L218.383 -20.1977L225.434 -14.8847M232.028 -30.8188V-20.1977M232.028 -30.8188L239.079 -36.1318L246.13 -30.8188M232.028 -20.1977L239.079 -14.8847L246.13 -20.1977M246.13 -30.8188V-20.1977M246.13 -30.8188L252.907 -36.1318L259.683 -30.8188M246.13 -20.1977L252.907 -14.8847L259.683 -20.1977M259.683 -30.8188V-20.1977M259.683 -30.8188L266.552 -36.1318L273.42 -30.8188V-20.1977L266.552 -14.8847L259.683 -20.1977M183.676 -14.8847V-4.26114M183.676 -4.26114L190.819 1.04941M197.962 -14.8847V-4.26114M197.962 -4.26114L190.819 1.04941M197.962 -4.26114L204.647 1.04941L211.332 -4.26114M190.819 1.04941L190.819 11.673M190.819 1.04941L197.687 -4.26114L204.555 1.04941M211.332 -4.26114L218.383 1.04941L225.434 -4.26114M211.332 -4.26114L204.555 1.04941M211.332 -4.26114L218.108 1.04941M225.434 -14.8847V-4.26114M225.434 -14.8847L232.303 -20.1977L239.171 -14.8847M225.434 -4.26114L232.303 1.04941L239.171 -4.26114M239.171 -14.8847V-4.26114M239.171 -14.8847L245.947 -20.1977L252.724 -14.8847M239.171 -4.26114L245.947 1.04941L252.724 -4.26114M252.724 -14.8847V-4.26114M252.724 -14.8847L259.5 -20.1977L266.277 -14.8847V-4.26114L259.5 1.04941L252.724 -4.26114M190.819 11.673L197.687 16.9835L204.555 11.673M190.819 11.673L183.676 16.9835M190.819 11.673L197.962 16.9835M204.555 1.04941V11.673M204.555 11.673L211.332 16.9835M218.108 1.04941V11.673M218.108 1.04941L225.068 -4.26114L232.028 1.04941M218.108 11.673L211.332 16.9835M218.108 11.673L225.068 16.9835L232.028 11.673M211.332 16.9835L204.647 11.673L197.962 16.9835M211.332 16.9835V27.6071M211.332 16.9835L218.383 11.673L225.434 16.9835M232.028 1.04941V11.673M232.028 1.04941L239.079 -4.26114L246.13 1.04941M232.028 11.673L239.079 16.9835L246.13 11.673M246.13 1.04941V11.673M246.13 1.04941L252.907 -4.26114L259.683 1.04941M246.13 11.673L252.907 16.9835L259.683 11.673M259.683 1.04941V11.673M259.683 1.04941L266.552 -4.26114L273.42 1.04941V11.673L266.552 16.9835L259.683 11.673M183.676 16.9835V27.6071M183.676 27.6071L190.819 32.9176M197.962 16.9835V27.6071M197.962 27.6071L190.819 32.9176M197.962 27.6071L204.647 32.9176L211.332 27.6071M190.819 32.9176L190.819 43.5412M190.819 32.9176L197.687 27.6071L204.555 32.9176M211.332 27.6071L218.383 32.9176L225.434 27.6071M211.332 27.6071L204.555 32.9176M211.332 27.6071L218.108 32.9176M225.434 16.9835V27.6071M225.434 16.9835L232.303 11.673L239.171 16.9835M225.434 27.6071L232.303 32.9176L239.171 27.6071M239.171 16.9835V27.6071M239.171 16.9835L245.947 11.673L252.724 16.9835M239.171 27.6071L245.947 32.9176L252.724 27.6071M252.724 16.9835V27.6071M252.724 16.9835L259.5 11.673L266.277 16.9835V27.6071L259.5 32.9176L252.724 27.6071M190.819 43.5412L197.687 48.8542L204.555 43.5412M190.819 43.5412L183.676 48.8542M190.819 43.5412L197.962 48.8542M204.555 32.9176V43.5412M204.555 43.5412L211.332 48.8542M218.108 32.9176V43.5412M218.108 32.9176L225.068 27.6071L232.028 32.9176M218.108 43.5412L211.332 48.8542M218.108 43.5412L225.068 48.8542L232.028 43.5412M211.332 48.8542L204.647 43.5412L197.962 48.8542M211.332 48.8542V59.4753M211.332 48.8542L218.383 43.5412L225.434 48.8542M232.028 32.9176V43.5412M232.028 32.9176L239.079 27.6071L246.13 32.9176M232.028 43.5412L239.079 48.8542L246.13 43.5412M246.13 32.9176V43.5412M246.13 32.9176L252.907 27.6071L259.683 32.9176M246.13 43.5412L252.907 48.8542L259.683 43.5412M259.683 32.9176V43.5412M259.683 32.9176L266.552 27.6071L273.42 32.9176V43.5412L266.552 48.8542L259.683 43.5412M183.676 48.8542V59.4753M183.676 59.4753L190.819 64.7883M197.962 48.8542V59.4753M197.962 59.4753L190.819 64.7883M197.962 59.4753L204.647 64.7883L211.332 59.4753M190.819 64.7883L190.819 75.4118M190.819 64.7883L197.687 59.4753L204.555 64.7883M211.332 59.4753L218.383 64.7883L225.434 59.4753M211.332 59.4753L204.555 64.7883M211.332 59.4753L218.108 64.7883M225.434 48.8542V59.4753M225.434 48.8542L232.303 43.5412L239.171 48.8542M225.434 59.4753L232.303 64.7883L239.171 59.4753M239.171 48.8542V59.4753M239.171 48.8542L245.947 43.5412L252.724 48.8542M239.171 59.4753L245.947 64.7883L252.724 59.4753M252.724 48.8542V59.4753M252.724 48.8542L259.5 43.5412L266.277 48.8542V59.4753L259.5 64.7883L252.724 59.4753M190.819 75.4118L197.687 80.7224L204.555 75.4118M190.819 75.4118L183.676 80.7224M190.819 75.4118L197.962 80.7224M204.555 64.7883V75.4118M204.555 75.4118L211.332 80.7224M218.108 64.7883V75.4118M218.108 64.7883L225.068 59.4753L232.028 64.7883M218.108 75.4118L211.332 80.7224M218.108 75.4118L225.068 80.7224L232.028 75.4118M211.332 80.7224L204.647 75.4118L197.962 80.7224M211.332 80.7224V91.3459M211.332 80.7224L218.383 75.4118L225.434 80.7224M232.028 64.7883V75.4118M232.028 64.7883L239.079 59.4753L246.13 64.7883M232.028 75.4118L239.079 80.7224L246.13 75.4118M246.13 64.7883V75.4118M246.13 64.7883L252.907 59.4753L259.683 64.7883M246.13 75.4118L252.907 80.7224L259.683 75.4118M259.683 64.7883V75.4118M259.683 64.7883L266.552 59.4753L273.42 64.7883V75.4118L266.552 80.7224L259.683 75.4118M183.676 80.7224V91.3459M183.676 91.3459L190.819 96.6565L197.962 91.3459M197.962 80.7224V91.3459M197.962 91.3459L204.647 96.6565L211.332 91.3459M211.332 91.3459L218.383 96.6565L225.434 91.3459M225.434 80.7224V91.3459M225.434 80.7224L232.303 75.4118L239.171 80.7224M225.434 91.3459L232.303 96.6565L239.171 91.3459M239.171 80.7224V91.3459M239.171 80.7224L245.947 75.4118L252.724 80.7224M239.171 91.3459L245.947 96.6565L252.724 91.3459M252.724 80.7224V91.3459M252.724 80.7224L259.5 75.4118L266.277 80.7224V91.3459L259.5 96.6565L252.724 91.3459M-98.1913 96.6516L-105.151 91.341L-112.111 96.6516V107.275M-98.1913 96.6516V107.275M-98.1913 96.6516L-91.5979 91.341L-85.0045 96.6516M-98.1913 107.275L-105.151 112.586M-98.1913 107.275L-91.5979 112.586M-105.151 112.586L-112.111 107.275M-105.151 112.586L-105.151 123.209M-112.111 107.275L-119.07 112.586V123.209L-112.111 128.522M-85.0045 96.6516V107.275M-85.0045 96.6516L-77.8617 91.341L-70.7189 96.6516M-85.0045 107.275L-91.5979 112.586M-85.0045 107.275L-77.8617 112.586L-70.7189 107.275M-91.5979 112.586L-98.2829 107.275L-104.968 112.586V123.209L-98.2829 128.522L-91.5979 123.209M-91.5979 112.586V123.209M-70.7189 96.6516V107.275M-70.7189 96.6516L-63.7592 91.341L-56.7995 96.6516M-70.7189 107.275L-63.7592 112.586L-56.7995 107.275M-56.7995 96.6516V107.275M-56.7995 96.6516L-49.7482 91.341L-42.6969 96.6516M-56.7995 107.275L-49.7482 112.586L-42.6969 107.275M-42.6969 96.6516V107.275M-42.6969 96.6516L-36.1035 91.341L-29.5101 96.6516M-42.6969 107.275L-36.1035 112.586L-29.5101 107.275M-29.5101 96.6516V107.275M-29.5101 96.6516L-22.5505 91.341L-15.5908 96.6516M-29.5101 107.275L-22.5505 112.586M-15.5908 96.6516V107.275M-15.5908 96.6516L-8.72264 91.341L-1.85452 96.6516M-15.5908 107.275L-22.5505 112.586M-15.5908 107.275L-8.72264 112.586L-1.85452 107.275M-15.5908 107.275L-8.63106 112.586M-22.5505 112.586L-29.4186 107.275L-36.2867 112.586M-22.5505 112.586V123.209M-105.151 123.209L-112.111 128.522M-105.151 123.209L-98.1913 128.522M-112.111 128.522L-112.111 139.146M-91.5979 123.209L-98.1913 128.522M-91.5979 123.209L-85.0045 128.522M-77.6786 112.586L-84.5467 107.275L-91.4148 112.586V123.209L-84.5467 128.522L-77.6786 123.209M-77.6786 112.586V123.209M-77.6786 112.586L-70.8104 107.275L-63.9423 112.586M-77.6786 123.209L-70.8104 128.522L-63.9423 123.209M-63.9423 112.586V123.209M-63.9423 112.586L-56.9826 107.275L-50.0229 112.586M-63.9423 123.209L-56.9826 128.522L-50.0229 123.209M-50.0229 112.586V123.209M-50.0229 112.586L-43.1548 107.275L-36.2867 112.586M-50.0229 123.209L-43.1548 128.522L-36.2867 123.209M-36.2867 112.586V123.209M-36.2867 123.209L-29.4186 128.522L-22.5505 123.209M-22.5505 123.209L-29.5101 128.522M-22.5505 123.209L-15.5908 128.522M-98.1913 128.522V139.146M-98.1913 139.146L-105.151 144.456M-98.1913 139.146L-91.5979 144.456M-105.151 144.456L-112.111 139.146M-105.151 144.456L-105.151 155.08M-112.111 139.146L-119.07 144.456V155.08L-112.111 160.39M-85.0045 128.522V139.146M-85.0045 128.522L-77.8617 123.209L-70.7189 128.522M-85.0045 139.146L-91.5979 144.456M-85.0045 139.146L-77.8617 144.456M-91.5979 144.456L-98.2829 139.146L-104.968 144.456V155.08L-98.2829 160.39L-91.5979 155.08M-91.5979 144.456V155.08M-91.5979 144.456L-84.7298 139.146L-77.8617 144.456M-70.7189 128.522V139.146M-70.7189 128.522L-63.7592 123.209L-56.7995 128.522M-70.7189 139.146L-77.8617 144.456M-70.7189 139.146L-63.7592 144.456L-56.7995 139.146M-77.8617 144.456V155.08M-56.7995 128.522V139.146M-56.7995 128.522L-49.7482 123.209L-42.6969 128.522M-56.7995 139.146L-49.7482 144.456L-42.6969 139.146M-42.6969 128.522V139.146M-42.6969 128.522L-36.1035 123.209L-29.5101 128.522M-42.6969 139.146L-36.1035 144.456M-29.5101 128.522V139.146M-29.5101 139.146L-36.1035 144.456M-29.5101 139.146L-22.5505 144.456M-36.1035 144.456L-42.9717 139.146L-49.8398 144.456V155.08L-42.9717 160.39L-36.1035 155.08L-36.1035 144.456ZM-15.5908 128.522V139.146M-15.5908 128.522L-8.63106 123.209M-15.5908 128.522L-8.72264 123.209L-1.85452 128.522M-15.5908 139.146L-22.5505 144.456M-15.5908 139.146L-8.72264 144.456L-1.85452 139.146M-15.5908 139.146L-8.63106 144.456M-22.5505 144.456L-29.4186 139.146L-36.2867 144.456V155.08M-22.5505 144.456V155.08M-105.151 155.08L-112.111 160.39M-105.151 155.08L-98.1913 160.39M-112.111 160.39L-112.111 171.014M-91.5979 155.08L-84.7298 160.39L-77.8617 155.08M-91.5979 155.08L-98.1913 160.39M-91.5979 155.08L-85.0045 160.39M-77.8617 155.08L-85.0045 160.39M-77.8617 155.08L-70.7189 160.39M-63.9423 144.456L-70.8104 139.146L-77.6786 144.456V155.08L-70.8104 160.39L-63.9423 155.08M-63.9423 144.456V155.08M-63.9423 144.456L-56.9826 139.146L-50.0229 144.456V155.08L-56.9826 160.39M-63.9423 155.08L-56.9826 160.39M-56.9826 160.39L-49.9313 155.08L-42.8801 160.39M-56.9826 160.39V171.014M-22.5505 155.08L-29.4186 160.39L-36.2867 155.08M-22.5505 155.08L-29.5101 160.39V171.014L-22.5505 176.325M-22.5505 155.08L-15.5908 160.39M-36.2867 155.08L-42.8801 160.39M-36.2867 155.08L-29.6933 160.39V171.014L-36.2867 176.325M-98.1913 160.39V171.014M-98.1913 171.014L-105.151 176.325M-98.1913 171.014L-91.5979 176.325M-105.151 176.325L-112.111 171.014M-105.151 176.325L-105.151 186.948M-112.111 171.014L-119.07 176.325V186.948L-112.111 192.261M-85.0045 160.39V171.014M-85.0045 171.014L-91.5979 176.325M-85.0045 171.014L-77.8617 176.325M-91.5979 176.325L-98.2829 171.014L-104.968 176.325V186.948L-98.2829 192.261L-91.5979 186.948M-91.5979 176.325V186.948M-91.5979 176.325L-84.7298 171.014L-77.8617 176.325M-70.7189 160.39V171.014M-70.7189 160.39L-63.7592 155.08L-56.7995 160.39V171.014L-63.7592 176.325L-70.7189 171.014M-70.7189 171.014L-77.8617 176.325M-77.8617 176.325V186.948M-42.8801 160.39V171.014M-42.8801 171.014L-49.9313 176.325L-56.9826 171.014M-42.8801 171.014L-36.2867 176.325M-56.9826 171.014L-63.9423 176.325M-56.9826 171.014L-50.0229 176.325V186.948L-56.9826 192.261L-63.9423 186.948M-36.2867 176.325L-29.4186 171.014L-22.5505 176.325M-36.2867 176.325L-36.2867 186.948L-29.4186 192.261L-22.5505 186.948M-15.5908 160.39V171.014M-15.5908 160.39L-8.63106 155.08M-15.5908 160.39L-8.72264 155.08L-1.85452 160.39M-15.5908 171.014L-22.5505 176.325M-15.5908 171.014L-8.72264 176.325L-1.85452 171.014M-15.5908 171.014L-8.63106 176.325M-22.5505 176.325V186.948M-105.151 186.948L-112.111 192.261M-105.151 186.948L-98.1913 192.261M-112.111 192.261L-112.111 202.882M-91.5979 186.948L-84.7298 192.261L-77.8617 186.948M-91.5979 186.948L-98.1913 192.261M-91.5979 186.948L-85.0045 192.261M-77.8617 186.948L-85.0045 192.261M-77.8617 186.948L-70.7189 192.261M-63.9423 176.325L-70.8104 171.014L-77.6786 176.325V186.948L-70.8104 192.261L-63.9423 186.948M-63.9423 176.325V186.948M-36.1035 186.948V176.325L-42.9717 171.014L-49.8398 176.325V186.948L-42.9717 192.261L-36.1035 186.948ZM-36.1035 186.948L-42.6969 192.261M-36.1035 186.948L-29.5101 192.261M-22.5505 186.948L-29.5101 192.261M-22.5505 186.948L-15.5908 192.261M-98.1913 192.261V202.882M-98.1913 202.882L-105.151 208.195M-98.1913 202.882L-91.5979 208.195M-105.151 208.195L-112.111 202.882M-105.151 208.195L-105.151 218.819M-112.111 202.882L-119.07 208.195V218.819L-112.111 224.129M-85.0045 192.261V202.882M-85.0045 202.882L-91.5979 208.195M-85.0045 202.882L-77.8617 208.195L-70.7189 202.882M-91.5979 208.195L-98.2829 202.882L-104.968 208.195V218.819L-98.2829 224.129L-91.5979 218.819M-91.5979 208.195V218.819M-70.7189 192.261V202.882M-70.7189 192.261L-63.7592 186.948L-56.7995 192.261M-70.7189 202.882L-63.7592 208.195L-56.7995 202.882M-56.7995 192.261V202.882M-56.7995 192.261L-49.7482 186.948L-42.6969 192.261M-56.7995 202.882L-49.7482 208.195L-42.6969 202.882M-42.6969 192.261V202.882M-42.6969 202.882L-36.1035 208.195L-29.5101 202.882M-29.5101 192.261V202.882M-29.5101 202.882L-22.5505 208.195M-15.5908 192.261V202.882M-15.5908 192.261L-8.63106 186.948M-15.5908 192.261L-8.72264 186.948L-1.85452 192.261M-15.5908 202.882L-22.5505 208.195M-15.5908 202.882L-8.72264 208.195L-1.85452 202.882M-15.5908 202.882L-8.63106 208.195M-22.5505 208.195L-29.4186 202.882L-36.2867 208.195M-22.5505 208.195V218.819M-105.151 218.819L-112.111 224.129M-105.151 218.819L-98.1913 224.129M-112.111 224.129L-112.111 234.753M-91.5979 218.819L-98.1913 224.129M-91.5979 218.819L-85.0045 224.129V234.753L-91.5979 240.063M-77.6786 208.195L-84.5467 202.882L-91.4148 208.195V218.819L-84.5467 224.129L-77.6786 218.819M-77.6786 208.195V218.819M-77.6786 208.195L-70.8104 202.882L-63.9423 208.195M-77.6786 218.819L-70.8104 224.129L-63.9423 218.819M-77.6786 218.819L-84.8214 224.129V234.753L-77.6786 240.063M-77.6786 218.819L-70.5357 224.129V234.753L-77.6786 240.063M-63.9423 208.195V218.819M-63.9423 208.195L-56.9826 202.882L-50.0229 208.195M-63.9423 218.819L-56.9826 224.129L-50.0229 218.819M-50.0229 208.195V218.819M-50.0229 208.195L-43.1548 202.882L-36.2867 208.195M-50.0229 218.819L-43.1548 224.129L-36.2867 218.819M-36.2867 208.195V218.819M-36.2867 218.819L-29.4186 224.129L-22.5505 218.819M-22.5505 218.819L-29.5101 224.129M-22.5505 218.819L-15.5908 224.129M-98.1913 224.129V234.753M-98.1913 234.753L-105.151 240.063M-98.1913 234.753L-91.5979 240.063M-105.151 240.063L-112.111 234.753M-105.151 240.063L-105.151 250.687L-112.111 256L-119.07 250.687V240.063L-112.111 234.753M-91.5979 240.063L-98.2829 234.753L-104.968 240.063V250.687L-98.2829 256L-91.5979 250.687M-91.5979 240.063V250.687M-91.5979 240.063L-84.7298 234.753L-77.8617 240.063V250.687L-84.7298 256L-91.5979 250.687M-77.6786 240.063L-70.8104 234.753L-63.9423 240.063V250.687L-70.8104 256L-77.6786 250.687V240.063ZM-56.7995 224.129L-63.7592 218.819L-70.7189 224.129V234.753L-63.7592 240.063M-56.7995 224.129V234.753M-56.7995 224.129L-49.7482 218.819L-42.6969 224.129M-56.7995 234.753L-63.7592 240.063M-56.7995 234.753L-49.7482 240.063L-42.6969 234.753M-56.7995 234.753L-49.8398 240.063V250.687L-56.7995 256L-63.7592 250.687V240.063M-42.6969 224.129V234.753M-42.6969 224.129L-36.1035 218.819L-29.5101 224.129M-42.6969 234.753L-36.1035 240.063L-29.5101 234.753M-29.5101 224.129V234.753M-29.5101 234.753L-22.5505 240.063M-15.5908 224.129V234.753M-15.5908 224.129L-8.63106 218.819M-15.5908 234.753L-22.5505 240.063M-15.5908 234.753L-8.63106 240.063M-22.5505 240.063L-29.4186 234.753L-36.2867 240.063M-22.5505 240.063V250.687M-36.2867 240.063L-43.1548 234.753L-50.0229 240.063V250.687L-43.1548 256L-36.2867 250.687M-36.2867 240.063V250.687M-36.2867 250.687L-29.4186 256L-22.5505 250.687M-22.5505 250.687L-15.5908 256L-8.63106 250.687M-1.85452 96.6516V107.275M-1.85452 96.6516L5.0136 91.341L11.8817 96.6516M-1.85452 107.275L5.0136 112.586L11.8817 107.275M11.8817 96.6516V107.275M11.8817 96.6516L18.8414 91.341L25.8011 96.6516M11.8817 107.275L18.8414 112.586L25.8011 107.275M25.8011 96.6516V107.275M25.8011 96.6516L32.3029 91.341L38.8048 96.6516M25.8011 107.275L32.3029 112.586L38.8048 107.275M38.8048 96.6516V107.275M38.8048 96.6516L46.0392 91.341L53.2736 96.6516M38.8048 107.275L46.0392 112.586L53.2736 107.275M53.2736 96.6516V107.275M53.2736 96.6516L60.0501 91.341L66.8267 96.6516M53.2736 107.275L60.0501 112.586M66.8267 96.6516V107.275M66.8267 96.6516L73.6032 91.341L80.3798 96.6516M66.8267 107.275L60.0501 112.586M66.8267 107.275L73.6032 112.586L80.3798 107.275M60.0501 112.586L52.9989 107.275L45.9476 112.586V123.209L52.9989 128.522L60.0501 123.209M60.0501 112.586V123.209M80.3798 96.6516V107.275M80.3798 96.6516L87.3394 91.341L94.2992 96.6516M80.3798 107.275L87.3394 112.586L94.2992 107.275M-8.63106 112.586V123.209M-8.63106 112.586L-1.67136 107.275L5.28833 112.586V123.209L-1.67136 128.522L-8.63106 123.209M19.2077 112.586L12.1564 107.275L5.10517 112.586V123.209L12.1564 128.522L19.2077 123.209M19.2077 112.586V123.209M19.2077 112.586L25.618 107.275L32.0282 112.586V123.209L25.618 128.522L19.2077 123.209M60.0501 123.209L53.2736 128.522M60.0501 123.209L66.8267 128.522M73.4201 112.586L66.6435 107.275L59.867 112.586V123.209L66.6435 128.522L73.4201 123.209M73.4201 112.586V123.209M73.4201 112.586L80.5629 107.275L87.7058 112.586M73.4201 123.209L80.5629 128.522L87.7058 123.209M-1.85452 128.522V139.146M-1.85452 128.522L5.0136 123.209L11.8817 128.522M-1.85452 139.146L5.0136 144.456L11.8817 139.146M11.8817 128.522V139.146M11.8817 128.522L18.8414 123.209L25.8011 128.522M11.8817 139.146L18.8414 144.456L25.8011 139.146M25.8011 128.522V139.146M25.8011 128.522L32.3029 123.209L38.8048 128.522M25.8011 139.146L32.3029 144.456L38.8048 139.146M38.8048 128.522V139.146M38.8048 128.522L46.0392 123.209L53.2736 128.522M38.8048 139.146L46.0392 144.456L53.2736 139.146M53.2736 128.522V139.146M53.2736 139.146L60.0501 144.456M66.8267 128.522V139.146M66.8267 128.522L73.6032 123.209L80.3798 128.522M66.8267 139.146L60.0501 144.456M66.8267 139.146L73.6032 144.456L80.3798 139.146M60.0501 144.456L52.9989 139.146L45.9476 144.456V155.08L52.9989 160.39L60.0501 155.08M60.0501 144.456V155.08M80.3798 128.522V139.146M80.3798 128.522L87.3394 123.209L94.2992 128.522M80.3798 139.146L87.3394 144.456L94.2992 139.146M-8.63106 144.456V155.08M-8.63106 144.456L-1.67136 139.146L5.28833 144.456V155.08L-1.67136 160.39L-8.63106 155.08M19.2077 144.456L12.1564 139.146L5.10517 144.456V155.08L12.1564 160.39L19.2077 155.08M19.2077 144.456V155.08M19.2077 144.456L25.618 139.146L32.0282 144.456V155.08L25.618 160.39L19.2077 155.08M60.0501 155.08L53.2736 160.39M60.0501 155.08L66.8267 160.39M73.4201 144.456L66.6435 139.146L59.867 144.456V155.08L66.6435 160.39L73.4201 155.08M73.4201 144.456V155.08M73.4201 144.456L80.5629 139.146L87.7058 144.456M73.4201 155.08L80.5629 160.39L87.7058 155.08M-1.85452 160.39V171.014M-1.85452 160.39L5.0136 155.08L11.8817 160.39V171.014L5.0136 176.325L-1.85452 171.014M38.8048 160.39L32.3029 155.08L25.8011 160.39V171.014M38.8048 160.39V171.014M38.8048 160.39L46.0392 155.08L53.2736 160.39M38.8048 171.014L32.3029 176.325L25.8011 171.014M38.8048 171.014L46.0392 176.325L53.2736 171.014M25.8011 171.014L19.3909 176.325V186.948L25.8011 192.261M25.8011 171.014L32.2113 176.325M53.2736 160.39V171.014M53.2736 171.014L60.0501 176.325L66.8267 171.014M66.8267 160.39V171.014M66.8267 160.39L73.6032 155.08L80.3798 160.39M66.8267 171.014L73.6032 176.325L80.3798 171.014M80.3798 160.39V171.014M80.3798 160.39L87.3394 155.08L94.2992 160.39M80.3798 171.014L87.3394 176.325L94.2992 171.014M-8.63106 176.325V186.948M-8.63106 176.325L-1.67136 171.014L5.28833 176.325V186.948L-1.67136 192.261L-8.63106 186.948M32.2113 176.325V186.948M32.2113 176.325L38.9879 171.014L45.7644 176.325M32.2113 186.948L25.8011 192.261M32.2113 186.948L38.9879 192.261L45.7644 186.948M25.8011 192.261L32.3029 186.948L38.8048 192.261M25.8011 192.261V202.882M45.7644 176.325V186.948M45.7644 176.325L52.8157 171.014L59.867 176.325M45.7644 186.948L52.8157 192.261L59.867 186.948M59.867 176.325V186.948M59.867 176.325L66.6435 171.014L73.4201 176.325M59.867 186.948L66.6435 192.261L73.4201 186.948M73.4201 176.325V186.948M73.4201 176.325L80.5629 171.014L87.7058 176.325M73.4201 186.948L80.5629 192.261L87.7058 186.948M-1.85452 192.261V202.882M-1.85452 192.261L5.0136 186.948L11.8817 192.261V202.882L5.0136 208.195L-1.85452 202.882M38.8048 192.261V202.882M38.8048 192.261L46.0392 186.948L53.2736 192.261M38.8048 202.882L32.3029 208.195L25.8011 202.882M38.8048 202.882L46.0392 208.195L53.2736 202.882M25.8011 202.882L19.3909 208.195M25.8011 202.882L32.2113 208.195M53.2736 192.261V202.882M53.2736 192.261L60.0501 186.948L66.8267 192.261M53.2736 202.882L60.0501 208.195L66.8267 202.882M66.8267 192.261V202.882M66.8267 192.261L73.6032 186.948L80.3798 192.261M66.8267 202.882L73.6032 208.195L80.3798 202.882M80.3798 192.261V202.882M80.3798 192.261L87.3394 186.948L94.2992 192.261V202.882L87.3394 208.195L80.3798 202.882M-8.63106 208.195V218.819M-8.63106 208.195L-1.67136 202.882L5.28833 208.195M-8.63106 218.819L-1.67136 224.129M5.28833 208.195V218.819M5.28833 208.195L12.3396 202.882L19.3909 208.195M5.28833 218.819L-1.67136 224.129M5.28833 218.819L12.3396 224.129L19.3909 218.819M-1.67136 224.129L-8.53949 218.819L-15.4076 224.129V234.753L-8.53949 240.063L-1.67136 234.753M-1.67136 224.129V234.753M-1.67136 224.129L5.19676 218.819L12.0649 224.129M19.3909 208.195V218.819M19.3909 218.819L25.8011 224.129M32.2113 208.195V218.819M32.2113 208.195L38.9879 202.882L45.7644 208.195M32.2113 218.819L25.8011 224.129M32.2113 218.819L38.9879 224.129L45.7644 218.819M25.8011 224.129L32.3029 218.819L38.8048 224.129M25.8011 224.129V234.753M45.7644 208.195V218.819M45.7644 208.195L52.8157 202.882L59.867 208.195M45.7644 218.819L52.8157 224.129L59.867 218.819M59.867 208.195V218.819M59.867 208.195L66.6435 202.882L73.4201 208.195M59.867 218.819L66.6435 224.129L73.4201 218.819M73.4201 208.195V218.819M73.4201 208.195L80.5629 202.882L87.7058 208.195M73.4201 218.819L80.5629 224.129L87.7058 218.819M-1.67136 234.753L5.19676 240.063L12.0649 234.753M-1.67136 234.753L-8.63106 240.063M-1.67136 234.753L5.28833 240.063M12.0649 224.129V234.753M12.0649 224.129L19.0246 218.819L25.9843 224.129V234.753L19.0246 240.063L12.0649 234.753M38.8048 224.129V234.753M38.8048 224.129L46.0392 218.819L53.2736 224.129M38.8048 234.753L32.3029 240.063L25.8011 234.753M38.8048 234.753L46.0392 240.063L53.2736 234.753M25.8011 234.753L19.3909 240.063M25.8011 234.753L32.2113 240.063M53.2736 224.129V234.753M53.2736 224.129L60.0501 218.819L66.8267 224.129M53.2736 234.753L60.0501 240.063L66.8267 234.753M66.8267 224.129V234.753M66.8267 224.129L73.6032 218.819L80.3798 224.129M66.8267 234.753L73.6032 240.063L80.3798 234.753M80.3798 224.129V234.753M80.3798 224.129L87.3394 218.819L94.2992 224.129M80.3798 234.753L87.3394 240.063L94.2992 234.753M-8.63106 240.063V250.687M-8.63106 250.687L-1.67136 256L5.28833 250.687M5.28833 240.063V250.687M5.28833 240.063L12.3396 234.753L19.3909 240.063M5.28833 250.687L12.3396 256L19.3909 250.687M19.3909 240.063V250.687M19.3909 250.687L25.8011 256L32.2113 250.687M32.2113 240.063V250.687M32.2113 240.063L38.9879 234.753L45.7644 240.063M32.2113 250.687L38.9879 256L45.7644 250.687M45.7644 240.063V250.687M45.7644 240.063L52.8157 234.753L59.867 240.063M45.7644 250.687L52.8157 256L59.867 250.687M59.867 240.063V250.687M59.867 240.063L66.6435 234.753L73.4201 240.063M59.867 250.687L66.6435 256L73.4201 250.687M73.4201 240.063V250.687M73.4201 240.063L80.5629 234.753L87.7058 240.063M73.4201 250.687L80.5629 256L87.7058 250.687M94.2992 96.6516V107.275M94.2992 96.6516L101.076 91.341L107.852 96.6516M94.2992 107.275L101.076 112.586L107.852 107.275M107.852 96.6516V107.275M107.852 96.6516L114.904 91.341L121.955 96.6516M107.852 107.275L114.904 112.586L121.955 107.275M121.955 96.6516V107.275M121.955 96.6516L128.731 91.341L135.508 96.6516M121.955 107.275L128.731 112.586L135.508 107.275M135.508 96.6516V107.275M135.508 96.6516L142.468 91.341L149.427 96.6516M135.508 107.275L142.468 112.586L149.427 107.275M149.427 96.6516V107.275M149.427 96.6516L156.387 91.341L163.347 96.6516M149.427 107.275L156.387 112.586L163.347 107.275M163.347 96.6516V107.275M163.347 96.6516L170.215 91.341L177.083 96.6516M163.347 107.275L170.215 112.586L177.083 107.275M177.083 96.6516V107.275M177.083 96.6516L183.951 91.341L190.819 96.6516M177.083 107.275L183.951 112.586L190.819 107.275M177.083 107.275L170.489 112.586M177.083 107.275L183.676 112.586M87.7058 112.586V123.209M87.7058 112.586L94.4823 107.275L101.259 112.586M87.7058 123.209L94.4823 128.522L101.259 123.209M101.259 112.586V123.209M101.259 112.586L108.31 107.275L115.361 112.586M101.259 123.209L108.31 128.522L115.361 123.209M115.361 112.586V123.209M115.361 112.586L122.138 107.275L128.914 112.586M115.361 123.209L122.138 128.522L128.914 123.209M128.914 112.586V123.209M128.914 112.586L135.599 107.275L142.284 112.586M128.914 123.209L135.599 128.522L142.284 123.209M142.284 112.586V123.209M142.284 112.586L149.153 107.275L156.021 112.586M142.284 123.209L149.153 128.522L156.021 123.209M156.021 112.586V123.209M156.021 112.586L163.255 107.275L170.489 112.586M156.021 123.209L163.255 128.522L170.489 123.209M170.489 112.586V123.209M170.489 123.209L177.083 128.522M94.2992 128.522V139.146M94.2992 128.522L101.076 123.209L107.852 128.522M94.2992 139.146L101.076 144.456L107.852 139.146M107.852 128.522V139.146M107.852 128.522L114.904 123.209L121.955 128.522M107.852 139.146L114.904 144.456L121.955 139.146M121.955 128.522V139.146M121.955 128.522L128.731 123.209L135.508 128.522M121.955 139.146L128.731 144.456L135.508 139.146M135.508 128.522V139.146M135.508 128.522L142.468 123.209L149.427 128.522M135.508 139.146L142.468 144.456L149.427 139.146M149.427 128.522V139.146M149.427 128.522L156.387 123.209L163.347 128.522M149.427 139.146L156.387 144.456L163.347 139.146M163.347 128.522V139.146M163.347 128.522L170.215 123.209L177.083 128.522M163.347 139.146L170.215 144.456L177.083 139.146M177.083 128.522V139.146M177.083 128.522L183.676 123.209M177.083 128.522L183.951 123.209L190.819 128.522M177.083 139.146L183.951 144.456L190.819 139.146M177.083 139.146L170.489 144.456M177.083 139.146L183.676 144.456M87.7058 144.456V155.08M87.7058 144.456L94.4823 139.146L101.259 144.456M87.7058 155.08L94.4823 160.39L101.259 155.08M101.259 144.456V155.08M101.259 144.456L108.31 139.146L115.361 144.456M101.259 155.08L108.31 160.39L115.361 155.08M115.361 144.456V155.08M115.361 144.456L122.138 139.146L128.914 144.456M115.361 155.08L122.138 160.39L128.914 155.08M128.914 144.456V155.08M128.914 144.456L135.599 139.146L142.284 144.456M128.914 155.08L135.599 160.39L142.284 155.08M142.284 144.456V155.08M142.284 144.456L149.153 139.146L156.021 144.456M142.284 155.08L149.153 160.39L156.021 155.08M156.021 144.456V155.08M156.021 144.456L163.255 139.146L170.489 144.456M156.021 155.08L163.255 160.39L170.489 155.08M170.489 144.456V155.08M170.489 155.08L177.083 160.39M94.2992 160.39V171.014M94.2992 160.39L101.076 155.08L107.852 160.39M94.2992 171.014L101.076 176.325L107.852 171.014M107.852 160.39V171.014M107.852 160.39L114.904 155.08L121.955 160.39M107.852 171.014L114.904 176.325L121.955 171.014M121.955 160.39V171.014M121.955 160.39L128.731 155.08L135.508 160.39M121.955 171.014L128.731 176.325L135.508 171.014M135.508 160.39V171.014M135.508 160.39L142.468 155.08L149.427 160.39M135.508 171.014L142.468 176.325L149.427 171.014M149.427 160.39V171.014M149.427 160.39L156.387 155.08L163.347 160.39M149.427 171.014L156.387 176.325L163.347 171.014M163.347 160.39V171.014M163.347 160.39L170.215 155.08L177.083 160.39M163.347 171.014L170.215 176.325L177.083 171.014M177.083 160.39V171.014M177.083 160.39L183.676 155.08M177.083 160.39L183.951 155.08L190.819 160.39M177.083 171.014L183.951 176.325L190.819 171.014M177.083 171.014L170.489 176.325M177.083 171.014L183.676 176.325M87.7058 176.325V186.948M87.7058 176.325L94.4823 171.014L101.259 176.325M87.7058 186.948L94.4823 192.261M101.259 176.325V186.948M101.259 176.325L108.31 171.014L115.361 176.325M101.259 186.948L94.4823 192.261M101.259 186.948L108.31 192.261L115.361 186.948M101.259 186.948L108.035 192.261M94.4823 192.261V202.882M115.361 176.325V186.948M115.361 176.325L122.138 171.014L128.914 176.325M115.361 186.948L122.138 192.261M128.914 176.325V186.948M128.914 176.325L135.599 171.014L142.284 176.325M128.914 186.948L122.138 192.261M128.914 186.948L135.599 192.261L142.284 186.948M122.138 192.261L115.087 186.948L108.035 192.261M122.138 192.261L122.138 202.882M142.284 176.325V186.948M142.284 176.325L149.153 171.014L156.021 176.325M142.284 186.948L149.153 192.261L156.021 186.948M156.021 176.325V186.948M156.021 176.325L163.255 171.014L170.489 176.325M156.021 186.948L163.255 192.261L170.489 186.948M170.489 176.325V186.948M170.489 186.948L177.083 192.261M108.035 192.261V202.882M108.035 202.882L101.259 208.195M108.035 202.882L115.087 208.195L122.138 202.882M101.259 208.195L94.4823 202.882M101.259 208.195V218.819M101.259 208.195L108.31 202.882L115.361 208.195M94.4823 202.882L87.7058 208.195M122.138 202.882L115.361 208.195M122.138 202.882L128.914 208.195M135.508 192.261L128.731 186.948L121.955 192.261V202.882L128.731 208.195L135.508 202.882M135.508 192.261V202.882M135.508 192.261L142.468 186.948L149.427 192.261M135.508 202.882L142.468 208.195L149.427 202.882M149.427 192.261V202.882M149.427 192.261L156.387 186.948L163.347 192.261M149.427 202.882L156.387 208.195L163.347 202.882M163.347 192.261V202.882M163.347 192.261L170.215 186.948L177.083 192.261M163.347 202.882L170.215 208.195L177.083 202.882M177.083 192.261V202.882M177.083 192.261L183.676 186.948M177.083 192.261L183.951 186.948L190.819 192.261M177.083 202.882L183.951 208.195L190.819 202.882M177.083 202.882L170.489 208.195M177.083 202.882L183.676 208.195M87.7058 208.195V218.819M87.7058 218.819L94.4823 224.129L101.259 218.819M101.259 218.819L108.31 224.129L115.361 218.819M115.361 208.195V218.819M115.361 218.819L122.138 224.129M128.914 208.195V218.819M128.914 208.195L135.599 202.882L142.284 208.195M128.914 218.819L122.138 224.129M128.914 218.819L135.599 224.129L142.284 218.819M122.138 224.129L115.087 218.819L108.035 224.129V234.753L115.087 240.063L122.138 234.753M122.138 224.129L122.138 234.753M142.284 208.195V218.819M142.284 208.195L149.153 202.882L156.021 208.195M142.284 218.819L149.153 224.129L156.021 218.819M156.021 208.195V218.819M156.021 208.195L163.255 202.882L170.489 208.195M156.021 218.819L163.255 224.129L170.489 218.819M170.489 208.195V218.819M170.489 218.819L177.083 224.129M94.2992 224.129V234.753M94.2992 224.129L101.076 218.819L107.852 224.129V234.753L101.076 240.063L94.2992 234.753M122.138 234.753L115.361 240.063M122.138 234.753L128.914 240.063M135.508 224.129L128.731 218.819L121.955 224.129V234.753L128.731 240.063L135.508 234.753M135.508 224.129V234.753M135.508 224.129L142.468 218.819L149.427 224.129M135.508 234.753L142.468 240.063L149.427 234.753M149.427 224.129V234.753M149.427 224.129L156.387 218.819L163.347 224.129M149.427 234.753L156.387 240.063L163.347 234.753M163.347 224.129V234.753M163.347 224.129L170.215 218.819L177.083 224.129M163.347 234.753L170.215 240.063L177.083 234.753M177.083 224.129V234.753M177.083 224.129L183.676 218.819M177.083 224.129L183.951 218.819L190.819 224.129M177.083 234.753L183.951 240.063L190.819 234.753M177.083 234.753L170.489 240.063M177.083 234.753L183.676 240.063M87.7058 240.063V250.687M87.7058 240.063L94.4823 234.753L101.259 240.063M87.7058 250.687L94.4823 256L101.259 250.687M101.259 240.063V250.687M101.259 240.063L108.31 234.753L115.361 240.063M101.259 250.687L108.31 256L115.361 250.687M115.361 240.063V250.687M115.361 250.687L122.138 256L128.914 250.687M128.914 240.063V250.687M128.914 240.063L135.599 234.753L142.284 240.063M128.914 250.687L135.599 256L142.284 250.687M142.284 240.063V250.687M142.284 240.063L149.153 234.753L156.021 240.063M142.284 250.687L149.153 256L156.021 250.687M156.021 240.063V250.687M156.021 240.063L163.255 234.753L170.489 240.063M156.021 250.687L163.255 256L170.489 250.687M170.489 240.063V250.687M170.489 250.687L177.083 256L183.676 250.687M190.819 96.6516V107.275M190.819 96.6516L197.687 91.341L204.555 96.6516M190.819 107.275L197.687 112.586L204.555 107.275M190.819 107.275L183.676 112.586M190.819 107.275L197.962 112.586M204.555 96.6516V107.275M204.555 96.6516L211.332 91.341L218.108 96.6516M204.555 107.275L211.332 112.586M218.108 96.6516V107.275M218.108 96.6516L225.068 91.341L232.028 96.6516M218.108 107.275L211.332 112.586M218.108 107.275L225.068 112.586L232.028 107.275M211.332 112.586L204.647 107.275L197.962 112.586M211.332 112.586V123.209M211.332 112.586L218.383 107.275L225.434 112.586M232.028 96.6516V107.275M232.028 96.6516L239.079 91.341L246.13 96.6516M232.028 107.275L239.079 112.586L246.13 107.275M246.13 96.6516V107.275M246.13 96.6516L252.907 91.341L259.683 96.6516M246.13 107.275L252.907 112.586L259.683 107.275M259.683 96.6516V107.275M259.683 96.6516L266.552 91.341L273.42 96.6516V107.275L266.552 112.586L259.683 107.275M183.676 112.586V123.209M183.676 123.209L190.819 128.522M197.962 112.586V123.209M197.962 123.209L190.819 128.522M197.962 123.209L204.647 128.522L211.332 123.209M190.819 128.522L190.819 139.146M190.819 128.522L197.687 123.209L204.555 128.522M211.332 123.209L218.383 128.522L225.434 123.209M211.332 123.209L204.555 128.522M211.332 123.209L218.108 128.522M225.434 112.586V123.209M225.434 112.586L232.303 107.275L239.171 112.586M225.434 123.209L232.303 128.522L239.171 123.209M239.171 112.586V123.209M239.171 112.586L245.947 107.275L252.724 112.586M239.171 123.209L245.947 128.522L252.724 123.209M252.724 112.586V123.209M252.724 112.586L259.5 107.275L266.277 112.586V123.209L259.5 128.522L252.724 123.209M190.819 139.146L197.687 144.456L204.555 139.146M190.819 139.146L183.676 144.456M190.819 139.146L197.962 144.456M204.555 128.522V139.146M204.555 139.146L211.332 144.456M218.108 128.522V139.146M218.108 128.522L225.068 123.209L232.028 128.522M218.108 139.146L211.332 144.456M218.108 139.146L225.068 144.456L232.028 139.146M211.332 144.456L204.647 139.146L197.962 144.456M211.332 144.456V155.08M211.332 144.456L218.383 139.146L225.434 144.456M232.028 128.522V139.146M232.028 128.522L239.079 123.209L246.13 128.522M232.028 139.146L239.079 144.456L246.13 139.146M246.13 128.522V139.146M246.13 128.522L252.907 123.209L259.683 128.522M246.13 139.146L252.907 144.456L259.683 139.146M259.683 128.522V139.146M259.683 128.522L266.552 123.209L273.42 128.522V139.146L266.552 144.456L259.683 139.146M183.676 144.456V155.08M183.676 155.08L190.819 160.39M197.962 144.456V155.08M197.962 155.08L190.819 160.39M197.962 155.08L204.647 160.39L211.332 155.08M190.819 160.39L190.819 171.014M190.819 160.39L197.687 155.08L204.555 160.39M211.332 155.08L218.383 160.39L225.434 155.08M211.332 155.08L204.555 160.39M211.332 155.08L218.108 160.39M225.434 144.456V155.08M225.434 144.456L232.303 139.146L239.171 144.456M225.434 155.08L232.303 160.39L239.171 155.08M239.171 144.456V155.08M239.171 144.456L245.947 139.146L252.724 144.456M239.171 155.08L245.947 160.39L252.724 155.08M252.724 144.456V155.08M252.724 144.456L259.5 139.146L266.277 144.456V155.08L259.5 160.39L252.724 155.08M190.819 171.014L197.687 176.325L204.555 171.014M190.819 171.014L183.676 176.325M190.819 171.014L197.962 176.325M204.555 160.39V171.014M204.555 171.014L211.332 176.325M218.108 160.39V171.014M218.108 160.39L225.068 155.08L232.028 160.39M218.108 171.014L211.332 176.325M218.108 171.014L225.068 176.325L232.028 171.014M211.332 176.325L204.647 171.014L197.962 176.325M211.332 176.325V186.948M211.332 176.325L218.383 171.014L225.434 176.325M232.028 160.39V171.014M232.028 160.39L239.079 155.08L246.13 160.39M232.028 171.014L239.079 176.325L246.13 171.014M246.13 160.39V171.014M246.13 160.39L252.907 155.08L259.683 160.39M246.13 171.014L252.907 176.325L259.683 171.014M259.683 160.39V171.014M259.683 160.39L266.552 155.08L273.42 160.39V171.014L266.552 176.325L259.683 171.014M183.676 176.325V186.948M183.676 186.948L190.819 192.261M197.962 176.325V186.948M197.962 186.948L190.819 192.261M197.962 186.948L204.647 192.261L211.332 186.948M190.819 192.261L190.819 202.882M190.819 192.261L197.687 186.948L204.555 192.261M211.332 186.948L218.383 192.261L225.434 186.948M211.332 186.948L204.555 192.261M211.332 186.948L218.108 192.261M225.434 176.325V186.948M225.434 176.325L232.303 171.014L239.171 176.325M225.434 186.948L232.303 192.261L239.171 186.948M239.171 176.325V186.948M239.171 176.325L245.947 171.014L252.724 176.325M239.171 186.948L245.947 192.261L252.724 186.948M252.724 176.325V186.948M252.724 176.325L259.5 171.014L266.277 176.325V186.948L259.5 192.261L252.724 186.948M190.819 202.882L197.687 208.195L204.555 202.882M190.819 202.882L183.676 208.195M190.819 202.882L197.962 208.195M204.555 192.261V202.882M204.555 202.882L211.332 208.195M218.108 192.261V202.882M218.108 192.261L225.068 186.948L232.028 192.261M218.108 202.882L211.332 208.195M218.108 202.882L225.068 208.195L232.028 202.882M211.332 208.195L204.647 202.882L197.962 208.195M211.332 208.195V218.819M211.332 208.195L218.383 202.882L225.434 208.195M232.028 192.261V202.882M232.028 192.261L239.079 186.948L246.13 192.261M232.028 202.882L239.079 208.195L246.13 202.882M246.13 192.261V202.882M246.13 192.261L252.907 186.948L259.683 192.261M246.13 202.882L252.907 208.195L259.683 202.882M259.683 192.261V202.882M259.683 192.261L266.552 186.948L273.42 192.261V202.882L266.552 208.195L259.683 202.882M183.676 208.195V218.819M183.676 218.819L190.819 224.129M197.962 208.195V218.819M197.962 218.819L190.819 224.129M197.962 218.819L204.647 224.129L211.332 218.819M190.819 224.129L190.819 234.753M190.819 224.129L197.687 218.819L204.555 224.129M211.332 218.819L218.383 224.129L225.434 218.819M211.332 218.819L204.555 224.129M211.332 218.819L218.108 224.129M225.434 208.195V218.819M225.434 208.195L232.303 202.882L239.171 208.195M225.434 218.819L232.303 224.129L239.171 218.819M239.171 208.195V218.819M239.171 208.195L245.947 202.882L252.724 208.195M239.171 218.819L245.947 224.129L252.724 218.819M252.724 208.195V218.819M252.724 208.195L259.5 202.882L266.277 208.195V218.819L259.5 224.129L252.724 218.819M190.819 234.753L197.687 240.063L204.555 234.753M190.819 234.753L183.676 240.063M190.819 234.753L197.962 240.063M204.555 224.129V234.753M204.555 234.753L211.332 240.063M218.108 224.129V234.753M218.108 224.129L225.068 218.819L232.028 224.129M218.108 234.753L211.332 240.063M218.108 234.753L225.068 240.063L232.028 234.753M211.332 240.063L204.647 234.753L197.962 240.063M211.332 240.063V250.687M211.332 240.063L218.383 234.753L225.434 240.063M232.028 224.129V234.753M232.028 224.129L239.079 218.819L246.13 224.129M232.028 234.753L239.079 240.063L246.13 234.753M246.13 224.129V234.753M246.13 224.129L252.907 218.819L259.683 224.129M246.13 234.753L252.907 240.063L259.683 234.753M259.683 224.129V234.753M259.683 224.129L266.552 218.819L273.42 224.129V234.753L266.552 240.063L259.683 234.753M183.676 240.063V250.687M183.676 250.687L190.819 256L197.962 250.687M197.962 240.063V250.687M197.962 250.687L204.647 256L211.332 250.687M211.332 250.687L218.383 256L225.434 250.687M225.434 240.063V250.687M225.434 240.063L232.303 234.753L239.171 240.063M225.434 250.687L232.303 256L239.171 250.687M239.171 240.063V250.687M239.171 240.063L245.947 234.753L252.724 240.063M239.171 250.687L245.947 256L252.724 250.687M252.724 240.063V250.687M252.724 240.063L259.5 234.753L266.277 240.063V250.687L259.5 256L252.724 250.687M19.2077 -14.8847L25.618 -20.1977L32.0282 -14.8847V-4.26114L25.618 1.04941L19.2077 -4.26114V-14.8847ZM12.0649 32.9176L19.0246 27.6071L25.9843 32.9176V43.5412L19.0246 48.8542L12.0649 43.5412V32.9176ZM5.10517 48.8542L12.1564 43.5412L19.2077 48.8542V59.4753L12.1564 64.7883L5.10517 59.4753V48.8542ZM12.0649 64.7883L19.0246 59.4753L25.9843 64.7883V75.4118L19.0246 80.7224L12.0649 75.4118V64.7883ZM32.2114 80.7224L38.9879 75.4118L45.7644 80.7224V91.3459L38.9879 96.6565L32.2114 91.3459V80.7224ZM32.2114 112.586L38.9879 107.275L45.7644 112.586V123.209L38.9879 128.522L32.2114 123.209V112.586ZM32.2114 144.456L38.9879 139.146L45.7644 144.456V155.08L38.9879 160.39L32.2114 155.08V144.456ZM12.0649 160.39L19.0246 155.08L25.9843 160.39V171.014L19.0246 176.325L12.0649 171.014V160.39ZM5.10517 176.325L12.1564 171.014L19.2077 176.325V186.948L12.1564 192.261L5.10517 186.948V176.325ZM12.0649 192.261L19.0246 186.948L25.9843 192.261V202.882L19.0246 208.195L12.0649 202.882V192.261Z" stroke="url(#paint1_linear_123_44660)" stroke-opacity="0.6" stroke-miterlimit="10"/>
</g>
</g>
<defs>
<linearGradient id="paint0_linear_123_44660" x1="2.94141" y1="4" x2="192.833" y2="161.017" gradientUnits="userSpaceOnUse">
<stop stop-color="white"/>
<stop offset="0.505" stop-color="white" stop-opacity="0"/>
<stop offset="1" stop-color="white"/>
</linearGradient>
<linearGradient id="paint1_linear_123_44660" x1="-119.07" y1="-163.488" x2="213.717" y2="85.7187" gradientUnits="userSpaceOnUse">
<stop offset="0.55" stop-color="white" stop-opacity="0"/>
<stop offset="0.73" stop-color="white"/>
<stop offset="0.88" stop-color="white" stop-opacity="0"/>
</linearGradient>
</defs>
</svg>
