<svg width="176" height="224" viewBox="0 0 176 224" fill="none" xmlns="http://www.w3.org/2000/svg">
<mask id="mask0_123_44708" style="mask-type:alpha" maskUnits="userSpaceOnUse" x="0" y="0" width="176" height="224">
<path d="M97.2376 2.80717L166.762 48.3307C172.479 52.0736 176 58.9907 176 66.4765V157.523C176 165.009 172.479 171.926 166.762 175.669L97.2376 221.193C91.5214 224.936 84.4787 224.936 78.7624 221.193L9.23761 175.669C3.52136 171.926 0 165.009 0 157.523V66.4765C0 58.9907 3.52136 52.0736 9.23761 48.3307L78.7624 2.80717C84.4787 -0.935723 91.5214 -0.935723 97.2376 2.80717Z" fill="#D9D9D9"/>
</mask>
<g mask="url(#mask0_123_44708)">
<path d="M97.2376 2.80717L166.762 48.3307C172.479 52.0736 176 58.9907 176 66.4765V157.523C176 165.009 172.479 171.926 166.762 175.669L97.2376 221.193C91.5214 224.936 84.4787 224.936 78.7624 221.193L9.23761 175.669C3.52136 171.926 0 165.009 0 157.523V66.4765C0 58.9907 3.52136 52.0736 9.23761 48.3307L78.7624 2.80717C84.4787 -0.935723 91.5214 -0.935723 97.2376 2.80717Z" fill="#10C38D"/>
<g style="mix-blend-mode:difference">
<path d="M96.5929 7.12466L163.337 51.0223C168.668 54.5287 171.979 61.0325 171.979 68.1023V155.898C171.979 162.968 168.668 169.471 163.337 172.978L96.5929 216.875C91.272 220.375 84.727 220.375 79.4062 216.875L12.6624 172.978C7.33109 169.471 4.01953 162.968 4.01953 155.898V68.1023C4.01953 61.0325 7.33109 54.5287 12.6624 51.0223L79.4062 7.12466C84.727 3.62511 91.272 3.62511 96.5929 7.12466Z" stroke="url(#paint0_linear_123_44708)" stroke-opacity="0.2"/>
</g>
<g style="mix-blend-mode:soft-light">
<path d="M-117.561 -62.6894L-125.893 -68L-134.226 -62.6894V-52.0659M-117.561 -62.6894V-52.0659M-117.561 -62.6894L-109.667 -68L-101.772 -62.6894M-117.561 -52.0659L-125.893 -46.7553M-117.561 -52.0659L-109.667 -46.7553M-125.893 -46.7553L-134.226 -52.0659M-125.893 -46.7553L-125.893 -36.1318M-134.226 -52.0659L-142.559 -46.7553V-36.1318L-134.226 -30.8188M-101.772 -62.6894V-52.0659M-101.772 -62.6894L-93.2204 -68L-84.6684 -62.6894M-101.772 -52.0659L-109.667 -46.7553M-101.772 -52.0659L-93.2204 -46.7553L-84.6684 -52.0659M-109.667 -46.7553L-117.67 -52.0659L-125.674 -46.7553V-36.1318L-117.67 -30.8188L-109.667 -36.1318M-109.667 -46.7553V-36.1318M-84.6684 -62.6894V-52.0659M-84.6684 -62.6894L-76.3357 -68L-68.003 -62.6894M-84.6684 -52.0659L-76.3357 -46.7553L-68.003 -52.0659M-68.003 -62.6894V-52.0659M-68.003 -62.6894L-59.5607 -68L-51.1184 -62.6894M-68.003 -52.0659L-59.5607 -46.7553L-51.1184 -52.0659M-51.1184 -62.6894V-52.0659M-51.1184 -62.6894L-43.2242 -68L-35.3301 -62.6894M-51.1184 -52.0659L-43.2242 -46.7553M-35.3301 -62.6894V-52.0659M-35.3301 -62.6894L-26.9974 -68L-18.6647 -62.6894M-35.3301 -52.0659L-43.2242 -46.7553M-35.3301 -52.0659L-26.9974 -46.7553M-43.2242 -46.7553L-51.4473 -52.0659L-59.6704 -46.7553V-36.1318L-51.4473 -30.8188L-43.2243 -36.1318M-43.2242 -46.7553L-43.2243 -36.1318M-18.6647 -62.6894V-52.0659M-18.6647 -62.6894L-10.4417 -68L-2.21863 -62.6894M-18.6647 -52.0659L-26.9974 -46.7553M-18.6647 -52.0659L-10.4417 -46.7553L-2.21863 -52.0659M-18.6647 -52.0659L-10.332 -46.7553M-26.9974 -46.7553L-35.2205 -52.0659L-43.4435 -46.7553V-36.1318L-35.2205 -30.8188L-26.9974 -36.1318M-26.9974 -46.7553V-36.1318M-125.893 -36.1318L-134.226 -30.8188M-125.893 -36.1318L-117.561 -30.8188M-134.226 -30.8188L-134.226 -20.1977M-109.667 -36.1318L-117.561 -30.8188M-109.667 -36.1318L-101.772 -30.8188M-93.0011 -46.7553L-101.224 -52.0659L-109.447 -46.7553V-36.1318L-101.224 -30.8188L-93.0011 -36.1318M-93.0011 -46.7553V-36.1318M-93.0011 -46.7553L-84.7781 -52.0659L-76.555 -46.7553M-93.0011 -36.1318L-84.7781 -30.8188L-76.555 -36.1318M-76.555 -46.7553V-36.1318M-76.555 -46.7553L-68.2223 -52.0659L-59.8896 -46.7553V-36.1318L-68.2223 -30.8188L-76.555 -36.1318M-43.2243 -36.1318L-51.1184 -30.8188M-43.2243 -36.1318L-35.3301 -30.8188M-26.9974 -36.1318L-35.3301 -30.8188M-26.9974 -36.1318L-18.6647 -30.8188M-117.561 -30.8188V-20.1977M-117.561 -20.1977L-125.893 -14.8847M-117.561 -20.1977L-109.667 -14.8847M-125.893 -14.8847L-134.226 -20.1977M-125.893 -14.8847L-125.893 -4.26114L-134.226 1.04941L-142.559 -4.26114V-14.8847L-134.226 -20.1977M-101.772 -30.8188V-20.1977M-101.772 -30.8188L-93.2204 -36.1318L-84.6684 -30.8188M-101.772 -20.1977L-109.667 -14.8847M-101.772 -20.1977L-93.2204 -14.8847M-109.667 -14.8847L-117.67 -20.1977L-125.674 -14.8847V-4.26114M-109.667 -14.8847V-4.26114M-109.667 -14.8847L-101.443 -20.1977L-93.2204 -14.8847M-84.6684 -30.8188V-20.1977M-84.6684 -30.8188L-76.3357 -36.1318L-68.003 -30.8188M-84.6684 -20.1977L-93.2204 -14.8847M-84.6684 -20.1977L-76.3357 -14.8847L-68.003 -20.1977M-93.2204 -14.8847V-4.26114M-68.003 -30.8188V-20.1977M-68.003 -30.8188L-59.5607 -36.1318L-51.1184 -30.8188M-68.003 -20.1977L-59.5607 -14.8847L-51.1184 -20.1977M-51.1184 -30.8188V-20.1977M-51.1184 -20.1977L-43.2242 -14.8847L-35.3301 -20.1977M-35.3301 -30.8188V-20.1977M-35.3301 -20.1977L-26.9974 -14.8847M-18.6647 -30.8188V-20.1977M-18.6647 -30.8188L-10.332 -36.1318M-18.6647 -30.8188L-10.4417 -36.1318L-2.21863 -30.8188M-18.6647 -20.1977L-26.9974 -14.8847M-18.6647 -20.1977L-10.4417 -14.8847L-2.21863 -20.1977M-18.6647 -20.1977L-10.332 -14.8847V-4.26114L-18.6647 1.04941M-26.9974 -14.8847L-35.2205 -20.1977L-43.4435 -14.8847M-26.9974 -14.8847V-4.26114M-109.667 -4.26114L-117.67 1.04941L-125.674 -4.26114M-109.667 -4.26114L-101.443 1.04941L-93.2204 -4.26114M-109.667 -4.26114L-117.561 1.04941V11.673L-109.667 16.9835M-109.667 -4.26114L-101.772 1.04941M-125.674 -4.26114L-134.007 1.04941V11.673L-125.674 16.9835M-125.674 -4.26114L-117.341 1.04941V11.673L-125.674 16.9835M-93.2204 -4.26114L-101.772 1.04941M-93.2204 -4.26114L-84.6684 1.04941M-76.555 -14.8847L-84.7781 -20.1977L-93.0011 -14.8847V-4.26114L-84.7781 1.04941L-76.555 -4.26114M-76.555 -14.8847V-4.26114M-76.555 -14.8847L-68.2223 -20.1977L-59.8896 -14.8847M-76.555 -4.26114L-68.2223 1.04941L-59.8896 -4.26114M-59.8896 -14.8847V-4.26114M-59.8896 -14.8847L-51.6666 -20.1977L-43.4435 -14.8847M-59.8896 -4.26114L-51.6666 1.04941L-43.4435 -4.26114M-43.4435 -14.8847V-4.26114M-43.4435 -4.26114L-35.2205 1.04941L-26.9974 -4.26114M-26.9974 -4.26114L-35.3301 1.04941M-26.9974 -4.26114L-18.6647 1.04941M-125.674 16.9835L-117.67 11.673L-109.667 16.9835M-125.674 16.9835V27.6071L-117.67 32.9176L-109.667 27.6071M-101.772 1.04941V11.673M-101.772 11.673L-109.667 16.9835M-101.772 11.673L-93.2204 16.9835L-84.6684 11.673M-109.667 16.9835V27.6071M-84.6684 1.04941V11.673M-84.6684 1.04941L-76.3357 -4.26114L-68.003 1.04941M-84.6684 11.673L-76.3357 16.9835L-68.003 11.673M-68.003 1.04941V11.673M-68.003 1.04941L-59.5607 -4.26114L-51.1184 1.04941M-68.003 11.673L-59.5607 16.9835L-51.1184 11.673M-51.1184 1.04941V11.673M-51.1184 1.04941L-43.2242 -4.26114L-35.3301 1.04941M-51.1184 11.673L-43.2242 16.9835L-35.3301 11.673M-35.3301 1.04941V11.673M-35.3301 11.673L-26.9974 16.9835M-18.6647 1.04941V11.673M-18.6647 1.04941L-10.4417 -4.26114L-2.21863 1.04941M-18.6647 11.673L-26.9974 16.9835M-18.6647 11.673L-10.4417 16.9835L-2.21863 11.673M-18.6647 11.673L-10.332 16.9835M-26.9974 16.9835L-35.2205 11.673L-43.4435 16.9835M-26.9974 16.9835V27.6071M-125.893 27.6071V16.9835L-134.226 11.673L-142.559 16.9835V27.6071L-134.226 32.9176M-125.893 27.6071L-134.226 32.9176M-125.893 27.6071L-117.561 32.9176M-134.226 32.9176L-134.226 43.5412M-109.667 27.6071L-117.561 32.9176M-109.667 27.6071L-101.772 32.9176M-93.0011 16.9835L-101.224 11.673L-109.447 16.9835V27.6071L-101.224 32.9176L-93.0011 27.6071M-93.0011 16.9835V27.6071M-93.0011 16.9835L-84.7781 11.673L-76.555 16.9835M-93.0011 27.6071L-84.7781 32.9176L-76.555 27.6071M-76.555 16.9835V27.6071M-76.555 16.9835L-68.2223 11.673L-59.8896 16.9835M-76.555 27.6071L-68.2223 32.9176L-59.8896 27.6071M-59.8896 16.9835V27.6071M-59.8896 16.9835L-51.6666 11.673L-43.4435 16.9835M-59.8896 27.6071L-51.6666 32.9176L-43.4435 27.6071M-43.4435 16.9835V27.6071M-43.4435 27.6071L-35.2205 32.9176L-26.9974 27.6071M-26.9974 27.6071L-35.3301 32.9176M-26.9974 27.6071L-18.6647 32.9176M-117.561 32.9176V43.5412M-117.561 43.5412L-125.893 48.8542M-117.561 43.5412L-109.667 48.8542M-125.893 48.8542L-134.226 43.5412M-125.893 48.8542L-125.893 59.4753M-134.226 43.5412L-142.559 48.8542V59.4753L-134.226 64.7883M-101.772 32.9176V43.5412M-101.772 32.9176L-93.2204 27.6071L-84.6684 32.9176M-101.772 43.5412L-109.667 48.8542M-101.772 43.5412L-93.2204 48.8542L-84.6684 43.5412M-109.667 48.8542L-117.67 43.5412L-125.674 48.8542V59.4753L-117.67 64.7883L-109.667 59.4753M-109.667 48.8542V59.4753M-84.6684 32.9176V43.5412M-84.6684 32.9176L-76.3357 27.6071L-68.003 32.9176M-84.6684 43.5412L-76.3357 48.8542L-68.003 43.5412M-68.003 32.9176V43.5412M-68.003 32.9176L-59.5607 27.6071L-51.1184 32.9176M-68.003 43.5412L-59.5607 48.8542L-51.1184 43.5412M-51.1184 32.9176V43.5412M-51.1184 32.9176L-43.2242 27.6071L-35.3301 32.9176M-51.1184 43.5412L-43.2242 48.8542L-35.3301 43.5412M-35.3301 32.9176V43.5412M-35.3301 43.5412L-26.9974 48.8542M-18.6647 32.9176V43.5412M-18.6647 32.9176L-10.332 27.6071M-18.6647 32.9176L-10.4417 27.6071L-2.21863 32.9176M-18.6647 43.5412L-26.9974 48.8542M-18.6647 43.5412L-10.4417 48.8542L-2.21863 43.5412M-18.6647 43.5412L-10.332 48.8542M-26.9974 48.8542L-35.2205 43.5412L-43.4435 48.8542M-26.9974 48.8542V59.4753M-125.893 59.4753L-134.226 64.7883M-125.893 59.4753L-117.561 64.7883M-134.226 64.7883L-134.226 75.4118M-109.667 59.4753L-117.561 64.7883M-109.667 59.4753L-101.772 64.7883M-93.0011 48.8542L-101.224 43.5412L-109.447 48.8542V59.4753L-101.224 64.7883L-93.0011 59.4753M-93.0011 48.8542V59.4753M-93.0011 48.8542L-84.7781 43.5412L-76.555 48.8542M-93.0011 59.4753L-84.7781 64.7883L-76.555 59.4753M-76.555 48.8542V59.4753M-76.555 48.8542L-68.2223 43.5412L-59.8896 48.8542M-76.555 59.4753L-68.2223 64.7883L-59.8896 59.4753M-59.8896 48.8542V59.4753M-59.8896 48.8542L-51.6666 43.5412L-43.4435 48.8542M-59.8896 59.4753L-51.6666 64.7883L-43.4435 59.4753M-43.4435 48.8542V59.4753M-43.4435 59.4753L-35.2205 64.7883L-26.9974 59.4753M-26.9974 59.4753L-35.3301 64.7883M-26.9974 59.4753L-18.6647 64.7883M-117.561 64.7883V75.4118M-117.561 75.4118L-125.893 80.7224M-117.561 75.4118L-109.667 80.7224M-125.893 80.7224L-134.226 75.4118M-125.893 80.7224L-125.893 91.3459L-134.226 96.6565L-142.559 91.3459V80.7224L-134.226 75.4118M-101.772 64.7883V75.4118M-101.772 64.7883L-93.2204 59.4753L-84.6684 64.7883M-101.772 75.4118L-109.667 80.7224M-101.772 75.4118L-93.2204 80.7224L-84.6684 75.4118M-109.667 80.7224L-117.67 75.4118L-125.674 80.7224V91.3459L-117.67 96.6565L-109.667 91.3459V80.7224ZM-84.6684 64.7883V75.4118M-84.6684 64.7883L-76.3357 59.4753L-68.003 64.7883M-84.6684 75.4118L-76.3357 80.7224L-68.003 75.4118M-68.003 64.7883V75.4118M-68.003 64.7883L-59.5607 59.4753L-51.1184 64.7883M-68.003 75.4118L-59.5607 80.7224L-51.1184 75.4118M-51.1184 64.7883V75.4118M-51.1184 64.7883L-43.2242 59.4753L-35.3301 64.7883M-51.1184 75.4118L-43.2242 80.7224M-35.3301 64.7883V75.4118M-35.3301 75.4118L-43.2242 80.7224M-35.3301 75.4118L-26.9974 80.7224M-43.2242 80.7224L-51.4473 75.4118L-59.6704 80.7224V91.3459L-51.4473 96.6565L-43.2243 91.3459L-43.2242 80.7224ZM-18.6647 64.7883V75.4118M-18.6647 64.7883L-10.332 59.4753M-18.6647 64.7883L-10.4417 59.4753L-2.21863 64.7883M-18.6647 75.4118L-26.9974 80.7224M-18.6647 75.4118L-10.4417 80.7224L-2.21863 75.4118M-18.6647 75.4118L-10.332 80.7224M-26.9974 80.7224L-35.2205 75.4118L-43.4435 80.7224V91.3459L-35.2205 96.6565L-26.9974 91.3459M-26.9974 80.7224V91.3459M-93.0011 80.7224L-101.224 75.4118L-109.447 80.7224V91.3459L-101.224 96.6565L-93.0011 91.3459M-93.0011 80.7224V91.3459M-93.0011 80.7224L-84.7781 75.4118L-76.555 80.7224M-93.0011 91.3459L-84.7781 96.6565L-76.555 91.3459M-76.555 80.7224V91.3459M-76.555 80.7224L-68.2223 75.4118L-59.8896 80.7224V91.3459L-68.2223 96.6565L-76.555 91.3459M-26.9974 91.3459L-18.6647 96.6565L-10.332 91.3459M-2.21863 -62.6894V-52.0659M-2.21863 -62.6894L6.00442 -68L14.2275 -62.6894M-2.21863 -52.0659L6.00442 -46.7553L14.2275 -52.0659M14.2275 -62.6894V-52.0659M14.2275 -62.6894L22.5602 -68L30.8929 -62.6894M14.2275 -52.0659L22.5602 -46.7553L30.8929 -52.0659M30.8929 -62.6894V-52.0659M30.8929 -62.6894L38.6773 -68L46.4618 -62.6894M30.8929 -52.0659L38.6773 -46.7553L46.4618 -52.0659M30.8929 -52.0659L23.218 -46.7553M30.8929 -52.0659L38.5677 -46.7553M46.4618 -62.6894V-52.0659M46.4618 -62.6894L55.1235 -68L63.7851 -62.6894M46.4618 -52.0659L55.1235 -46.7553L63.7851 -52.0659M63.7851 -62.6894V-52.0659M63.7851 -62.6894L71.8985 -68L80.0119 -62.6894M63.7851 -52.0659L71.8985 -46.7553L80.0119 -52.0659M80.0119 -62.6894V-52.0659M80.0119 -62.6894L88.1253 -68L96.2387 -62.6894M80.0119 -52.0659L88.1253 -46.7553L96.2387 -52.0659M96.2387 -62.6894V-52.0659M96.2387 -62.6894L104.571 -68L112.904 -62.6894M96.2387 -52.0659L104.571 -46.7553L112.904 -52.0659M-10.332 -46.7553V-36.1318M-10.332 -46.7553L-1.99934 -52.0659L6.33335 -46.7553M-10.332 -36.1318L-1.99934 -30.8188L6.33335 -36.1318M6.33335 -46.7553V-36.1318M6.33335 -46.7553L14.7757 -52.0659L23.218 -46.7553M6.33335 -36.1318L14.7757 -30.8188L23.218 -36.1318M23.218 -46.7553V-36.1318M23.218 -36.1318L30.8929 -30.8188M38.5677 -46.7553V-36.1318M38.5677 -46.7553L46.6811 -52.0659L54.7945 -46.7553M38.5677 -36.1318L30.8929 -30.8188M38.5677 -36.1318L46.6811 -30.8188L54.7945 -36.1318M30.8929 -30.8188L22.5602 -36.1318L14.2275 -30.8188M30.8929 -30.8188V-20.1977M30.8929 -30.8188L38.6773 -36.1318L46.4618 -30.8188M54.7945 -46.7553V-36.1318M54.7945 -46.7553L63.2369 -52.0659L71.6792 -46.7553M54.7945 -36.1318L63.2369 -30.8188L71.6792 -36.1318M71.6792 -46.7553V-36.1318M71.6792 -46.7553L79.7926 -52.0659L87.906 -46.7553M71.6792 -36.1318L79.7926 -30.8188L87.906 -36.1318M87.906 -46.7553V-36.1318M87.906 -46.7553L96.458 -52.0659L105.01 -46.7553M87.906 -36.1318L96.458 -30.8188L105.01 -36.1318M-2.21863 -30.8188V-20.1977M-2.21863 -30.8188L6.00442 -36.1318L14.2275 -30.8188M-2.21863 -20.1977L6.00442 -14.8847L14.2275 -20.1977M-2.21863 -20.1977L-10.5513 -14.8847V-4.26114L-2.21863 1.04941M-2.21863 -20.1977L6.11407 -14.8847V-4.26114L-2.21863 1.04941M14.2275 -30.8188V-20.1977M14.2275 -20.1977L22.5602 -14.8847L30.8929 -20.1977M30.8929 -20.1977L38.6773 -14.8847L46.4618 -20.1977M46.4618 -30.8188V-20.1977M46.4618 -30.8188L55.1235 -36.1318L63.7851 -30.8188M46.4618 -20.1977L55.1235 -14.8847L63.7851 -20.1977M63.7851 -30.8188V-20.1977M63.7851 -30.8188L71.8985 -36.1318L80.0119 -30.8188M63.7851 -20.1977L71.8985 -14.8847L80.0119 -20.1977M80.0119 -30.8188V-20.1977M80.0119 -30.8188L88.1253 -36.1318L96.2387 -30.8188M80.0119 -20.1977L88.1253 -14.8847L96.2387 -20.1977M96.2387 -30.8188V-20.1977M96.2387 -30.8188L104.571 -36.1318L112.904 -30.8188M96.2387 -20.1977L104.571 -14.8847L112.904 -20.1977M-2.21863 1.04941V11.673M-2.21863 1.04941L6.00442 -4.26114L14.2275 1.04941V11.673L6.00442 16.9835L-2.21863 11.673M22.7794 -4.26114V-14.8847L14.3371 -20.1977L5.89478 -14.8847V-4.26114L14.3371 1.04941L22.7794 -4.26114ZM22.7794 -4.26114L14.4468 1.04941V11.673L22.7794 16.9835L31.1122 11.673V1.04941L22.7794 -4.26114ZM54.7945 -14.8847L46.6811 -20.1977L38.5677 -14.8847V-4.26114L46.6811 1.04941L54.7945 -4.26114M54.7945 -14.8847V-4.26114M54.7945 -14.8847L63.2369 -20.1977L71.6792 -14.8847M54.7945 -4.26114L63.2369 1.04941L71.6792 -4.26114M71.6792 -14.8847V-4.26114M71.6792 -14.8847L79.7926 -20.1977L87.906 -14.8847M71.6792 -4.26114L79.7926 1.04941L87.906 -4.26114M87.906 -14.8847V-4.26114M87.906 -14.8847L96.458 -20.1977L105.01 -14.8847M87.906 -4.26114L96.458 1.04941L105.01 -4.26114M46.4618 1.04941L38.6773 -4.26114L30.8929 1.04941V11.673M46.4618 1.04941V11.673M46.4618 1.04941L55.1235 -4.26114L63.7851 1.04941M46.4618 11.673L38.6773 16.9835L30.8929 11.673M46.4618 11.673L55.1235 16.9835L63.7851 11.673M30.8929 11.673L23.218 16.9835M30.8929 11.673L38.5677 16.9835M63.7851 1.04941V11.673M63.7851 1.04941L71.8985 -4.26114L80.0119 1.04941M63.7851 11.673L71.8985 16.9835L80.0119 11.673M80.0119 1.04941V11.673M80.0119 1.04941L88.1253 -4.26114L96.2387 1.04941M80.0119 11.673L88.1253 16.9835L96.2387 11.673M96.2387 1.04941V11.673M96.2387 1.04941L104.571 -4.26114L112.904 1.04941M96.2387 11.673L104.571 16.9835L112.904 11.673M-10.332 16.9835V27.6071M-10.332 16.9835L-1.99934 11.673L6.33335 16.9835M-10.332 27.6071L-1.99934 32.9176L6.33335 27.6071M6.33335 16.9835V27.6071M6.33335 16.9835L14.7757 11.673L23.218 16.9835M6.33335 27.6071L14.7757 32.9176L23.218 27.6071M23.218 16.9835V27.6071M23.218 27.6071L30.8929 32.9176M38.5677 16.9835V27.6071M38.5677 16.9835L46.6811 11.673L54.7945 16.9835M38.5677 27.6071L30.8929 32.9176M38.5677 27.6071L46.6811 32.9176L54.7945 27.6071M30.8929 32.9176L38.6773 27.6071L46.4618 32.9176M30.8929 32.9176V43.5412M54.7945 16.9835V27.6071M54.7945 16.9835L63.2369 11.673L71.6792 16.9835M54.7945 27.6071L63.2369 32.9176L71.6792 27.6071M71.6792 16.9835V27.6071M71.6792 16.9835L79.7926 11.673L87.906 16.9835M71.6792 27.6071L79.7926 32.9176L87.906 27.6071M87.906 16.9835V27.6071M87.906 16.9835L96.458 11.673L105.01 16.9835M87.906 27.6071L96.458 32.9176L105.01 27.6071M-2.21863 32.9176V43.5412M-2.21863 32.9176L6.00442 27.6071L14.2275 32.9176V43.5412L6.00442 48.8542L-2.21863 43.5412M46.4618 32.9176V43.5412M46.4618 32.9176L55.1235 27.6071L63.7851 32.9176M46.4618 43.5412L38.6773 48.8542L30.8929 43.5412M46.4618 43.5412L55.1235 48.8542L63.7851 43.5412M30.8929 43.5412L23.218 48.8542V59.4753L30.8929 64.7883M30.8929 43.5412L38.5677 48.8542M63.7851 32.9176V43.5412M63.7851 32.9176L71.8985 27.6071L80.0119 32.9176M63.7851 43.5412L71.8985 48.8542M80.0119 32.9176V43.5412M80.0119 32.9176L88.1253 27.6071L96.2387 32.9176M80.0119 43.5412L71.8985 48.8542M80.0119 43.5412L88.1253 48.8542L96.2387 43.5412M71.8985 48.8542L63.4562 43.5412L55.0138 48.8542V59.4753L63.4562 64.7883L71.8985 59.4753M71.8985 48.8542V59.4753M96.2387 32.9176V43.5412M96.2387 32.9176L104.571 27.6071L112.904 32.9176M96.2387 43.5412L104.571 48.8542L112.904 43.5412M-10.332 48.8542V59.4753M-10.332 48.8542L-1.99934 43.5412L6.33335 48.8542V59.4753L-1.99934 64.7883L-10.332 59.4753M38.5677 48.8542V59.4753M38.5677 48.8542L46.6811 43.5412L54.7945 48.8542V59.4753L46.6811 64.7883L38.5677 59.4753M38.5677 59.4753L30.8929 64.7883M30.8929 64.7883L38.6773 59.4753L46.4618 64.7883M30.8929 64.7883V75.4118L38.6773 80.7224L46.4618 75.4118M71.8985 59.4753L63.7851 64.7883M71.8985 59.4753L80.0119 64.7883M87.906 48.8542L79.7926 43.5412L71.6792 48.8542V59.4753L79.7926 64.7883L87.906 59.4753M87.906 48.8542V59.4753M87.906 48.8542L96.458 43.5412L105.01 48.8542M87.906 59.4753L96.458 64.7883L105.01 59.4753M-2.21863 64.7883V75.4118M-2.21863 64.7883L6.00442 59.4753L14.2275 64.7883V75.4118L6.00442 80.7224L-2.21863 75.4118M46.4618 64.7883V75.4118M46.4618 64.7883L55.1235 59.4753L63.7851 64.7883M46.4618 75.4118L55.1235 80.7224L63.7851 75.4118M63.7851 64.7883V75.4118M63.7851 75.4118L71.8985 80.7224M80.0119 64.7883V75.4118M80.0119 64.7883L88.1253 59.4753L96.2387 64.7883M80.0119 75.4118L71.8985 80.7224M80.0119 75.4118L88.1253 80.7224L96.2387 75.4118M71.8985 80.7224L63.4562 75.4118L55.0138 80.7224V91.3459L63.4562 96.6565L71.8985 91.3459V80.7224ZM96.2387 64.7883V75.4118M96.2387 64.7883L104.571 59.4753L112.904 64.7883M96.2387 75.4118L104.571 80.7224L112.904 75.4118M-10.332 80.7224V91.3459M-10.332 80.7224L-1.99934 75.4118L6.33335 80.7224V91.3459L-1.99934 96.6565L-10.332 91.3459M22.9987 80.7224L14.5564 75.4118L6.11405 80.7224V91.3459L14.5564 96.6565L22.9987 91.3459M22.9987 80.7224V91.3459M22.9987 80.7224L30.6736 75.4118L38.3484 80.7224V91.3459L30.6736 96.6565L22.9987 91.3459M87.906 80.7224L79.7926 75.4118L71.6792 80.7224V91.3459L79.7926 96.6565L87.906 91.3459M87.906 80.7224V91.3459M87.906 80.7224L96.458 75.4118L105.01 80.7224M87.906 91.3459L96.458 96.6565L105.01 91.3459M112.904 -62.6894V-52.0659M112.904 -62.6894L121.018 -68L129.131 -62.6894M112.904 -52.0659L121.018 -46.7553L129.131 -52.0659M129.131 -62.6894V-52.0659M129.131 -62.6894L137.573 -68L146.016 -62.6894M129.131 -52.0659L137.573 -46.7553L146.016 -52.0659M146.016 -62.6894V-52.0659M146.016 -62.6894L154.129 -68L162.242 -62.6894M146.016 -52.0659L154.129 -46.7553L162.242 -52.0659M162.242 -62.6894V-52.0659M162.242 -62.6894L170.575 -68L178.908 -62.6894M162.242 -52.0659L170.575 -46.7553L178.908 -52.0659M178.908 -62.6894V-52.0659M178.908 -62.6894L187.24 -68L195.573 -62.6894M178.908 -52.0659L187.24 -46.7553L195.573 -52.0659M195.573 -62.6894V-52.0659M195.573 -62.6894L203.796 -68L212.019 -62.6894M195.573 -52.0659L203.796 -46.7553L212.019 -52.0659M212.019 -62.6894V-52.0659M212.019 -62.6894L220.242 -68L228.465 -62.6894M212.019 -52.0659L220.242 -46.7553L228.465 -52.0659M212.019 -52.0659L204.125 -46.7553M212.019 -52.0659L219.913 -46.7553M105.01 -46.7553V-36.1318M105.01 -46.7553L113.123 -52.0659L121.237 -46.7553M105.01 -36.1318L113.123 -30.8188L121.237 -36.1318M121.237 -46.7553V-36.1318M121.237 -46.7553L129.679 -52.0659L138.121 -46.7553M121.237 -36.1318L129.679 -30.8188L138.121 -36.1318M138.121 -46.7553V-36.1318M138.121 -46.7553L146.235 -52.0659L154.348 -46.7553M138.121 -36.1318L146.235 -30.8188L154.348 -36.1318M154.348 -46.7553V-36.1318M154.348 -46.7553L162.352 -52.0659L170.356 -46.7553M154.348 -36.1318L162.352 -30.8188L170.356 -36.1318M170.356 -46.7553V-36.1318M170.356 -46.7553L178.579 -52.0659L186.802 -46.7553M170.356 -36.1318L178.579 -30.8188L186.802 -36.1318M186.802 -46.7553V-36.1318M186.802 -46.7553L195.464 -52.0659L204.125 -46.7553M186.802 -36.1318L195.464 -30.8188L204.125 -36.1318M204.125 -46.7553V-36.1318M204.125 -36.1318L212.019 -30.8188M112.904 -30.8188V-20.1977M112.904 -30.8188L121.018 -36.1318L129.131 -30.8188M112.904 -20.1977L121.018 -14.8847M129.131 -30.8188V-20.1977M129.131 -30.8188L137.573 -36.1318L146.016 -30.8188M129.131 -20.1977L121.018 -14.8847M129.131 -20.1977L137.573 -14.8847L146.016 -20.1977M121.018 -14.8847L129.46 -20.1977L137.902 -14.8847V-4.26114L129.46 1.04941L121.017 -4.26114M121.018 -14.8847L121.017 -4.26114M146.016 -30.8188V-20.1977M146.016 -30.8188L154.129 -36.1318L162.242 -30.8188M146.016 -20.1977L154.129 -14.8847L162.242 -20.1977M162.242 -30.8188V-20.1977M162.242 -30.8188L170.575 -36.1318L178.908 -30.8188M162.242 -20.1977L170.575 -14.8847L178.908 -20.1977M178.908 -30.8188V-20.1977M178.908 -30.8188L187.24 -36.1318L195.573 -30.8188M178.908 -20.1977L187.24 -14.8847L195.573 -20.1977M195.573 -30.8188V-20.1977M195.573 -30.8188L203.796 -36.1318L212.019 -30.8188M195.573 -20.1977L203.796 -14.8847L212.019 -20.1977M212.019 -30.8188V-20.1977M212.019 -30.8188L219.913 -36.1318M212.019 -30.8188L220.242 -36.1318L228.465 -30.8188M212.019 -20.1977L220.242 -14.8847L228.465 -20.1977M212.019 -20.1977L204.125 -14.8847M212.019 -20.1977L219.913 -14.8847M105.01 -14.8847V-4.26114M105.01 -14.8847L113.123 -20.1977L121.237 -14.8847V-4.26114L113.123 1.04941L105.01 -4.26114M121.017 -4.26114L112.904 1.04941M121.017 -4.26114L129.131 1.04941M154.348 -14.8847L146.235 -20.1977L138.121 -14.8847V-4.26114L146.235 1.04941L154.348 -4.26114M154.348 -14.8847V-4.26114M154.348 -14.8847L162.352 -20.1977L170.356 -14.8847M154.348 -4.26114L162.352 1.04941L170.356 -4.26114M170.356 -14.8847V-4.26114M170.356 -14.8847L178.579 -20.1977L186.802 -14.8847M170.356 -4.26114L178.579 1.04941L186.802 -4.26114M186.802 -14.8847V-4.26114M186.802 -14.8847L195.464 -20.1977L204.125 -14.8847M186.802 -4.26114L195.464 1.04941L204.125 -4.26114M204.125 -14.8847V-4.26114M204.125 -4.26114L212.019 1.04941M112.904 1.04941V11.673M112.904 11.673L121.018 16.9835M129.131 1.04941V11.673M129.131 1.04941L137.573 -4.26114L146.016 1.04941M129.131 11.673L121.018 16.9835M129.131 11.673L137.573 16.9835L146.016 11.673M121.018 16.9835L129.46 11.673L137.902 16.9835V27.6071L129.46 32.9176L121.017 27.6071M121.018 16.9835L121.017 27.6071M146.016 1.04941V11.673M146.016 1.04941L154.129 -4.26114L162.242 1.04941M146.016 11.673L154.129 16.9835L162.242 11.673M162.242 1.04941V11.673M162.242 1.04941L170.575 -4.26114L178.908 1.04941M162.242 11.673L170.575 16.9835L178.908 11.673M178.908 1.04941V11.673M178.908 1.04941L187.24 -4.26114L195.573 1.04941M178.908 11.673L187.24 16.9835L195.573 11.673M195.573 1.04941V11.673M195.573 1.04941L203.796 -4.26114L212.019 1.04941M195.573 11.673L203.796 16.9835L212.019 11.673M212.019 1.04941V11.673M212.019 1.04941L219.913 -4.26114M212.019 1.04941L220.242 -4.26114L228.465 1.04941M212.019 11.673L220.242 16.9835L228.465 11.673M212.019 11.673L204.125 16.9835M212.019 11.673L219.913 16.9835M105.01 16.9835V27.6071M105.01 16.9835L113.123 11.673L121.237 16.9835V27.6071L113.123 32.9176L105.01 27.6071M121.017 27.6071L112.904 32.9176M121.017 27.6071L129.131 32.9176M154.348 16.9835L146.235 11.673L138.121 16.9835V27.6071L146.235 32.9176L154.348 27.6071M154.348 16.9835V27.6071M154.348 16.9835L162.352 11.673L170.356 16.9835M154.348 27.6071L162.352 32.9176L170.356 27.6071M170.356 16.9835V27.6071M170.356 16.9835L178.579 11.673L186.802 16.9835M170.356 27.6071L178.579 32.9176L186.802 27.6071M186.802 16.9835V27.6071M186.802 16.9835L195.464 11.673L204.125 16.9835M186.802 27.6071L195.464 32.9176L204.125 27.6071M204.125 16.9835V27.6071M204.125 27.6071L212.019 32.9176M112.904 32.9176V43.5412M112.904 43.5412L121.018 48.8542M129.131 32.9176V43.5412M129.131 32.9176L137.573 27.6071L146.016 32.9176M129.131 43.5412L121.018 48.8542M129.131 43.5412L137.573 48.8542L146.016 43.5412M121.018 48.8542L129.46 43.5412L137.902 48.8542V59.4753L129.46 64.7883L121.017 59.4753M121.018 48.8542L121.017 59.4753M146.016 32.9176V43.5412M146.016 32.9176L154.129 27.6071L162.242 32.9176M146.016 43.5412L154.129 48.8542L162.242 43.5412M162.242 32.9176V43.5412M162.242 32.9176L170.575 27.6071L178.908 32.9176M162.242 43.5412L170.575 48.8542L178.908 43.5412M178.908 32.9176V43.5412M178.908 32.9176L187.24 27.6071L195.573 32.9176M178.908 43.5412L187.24 48.8542L195.573 43.5412M195.573 32.9176V43.5412M195.573 32.9176L203.796 27.6071L212.019 32.9176M195.573 43.5412L203.796 48.8542L212.019 43.5412M212.019 32.9176V43.5412M212.019 32.9176L219.913 27.6071M212.019 32.9176L220.242 27.6071L228.465 32.9176M212.019 43.5412L220.242 48.8542L228.465 43.5412M212.019 43.5412L204.125 48.8542M212.019 43.5412L219.913 48.8542M105.01 48.8542V59.4753M105.01 48.8542L113.123 43.5412L121.237 48.8542V59.4753L113.123 64.7883L105.01 59.4753M121.017 59.4753L112.904 64.7883M121.017 59.4753L129.131 64.7883M154.348 48.8542L146.235 43.5412L138.121 48.8542V59.4753L146.235 64.7883L154.348 59.4753M154.348 48.8542V59.4753M154.348 48.8542L162.352 43.5412L170.356 48.8542M154.348 59.4753L162.352 64.7883L170.356 59.4753M170.356 48.8542V59.4753M170.356 48.8542L178.579 43.5412L186.802 48.8542M170.356 59.4753L178.579 64.7883L186.802 59.4753M186.802 48.8542V59.4753M186.802 48.8542L195.464 43.5412L204.125 48.8542M186.802 59.4753L195.464 64.7883L204.125 59.4753M204.125 48.8542V59.4753M204.125 59.4753L212.019 64.7883M112.904 64.7883V75.4118M112.904 75.4118L121.018 80.7224M129.131 64.7883V75.4118M129.131 64.7883L137.573 59.4753L146.016 64.7883M129.131 75.4118L121.018 80.7224M129.131 75.4118L137.573 80.7224L146.016 75.4118M121.018 80.7224L129.46 75.4118L137.902 80.7224M121.018 80.7224L121.017 91.3459L129.46 96.6565L137.902 91.3459M146.016 64.7883V75.4118M146.016 64.7883L154.129 59.4753L162.242 64.7883M146.016 75.4118L154.129 80.7224M146.016 75.4118L137.902 80.7224M162.242 64.7883V75.4118M162.242 64.7883L170.575 59.4753L178.908 64.7883M162.242 75.4118L154.129 80.7224M162.242 75.4118L170.575 80.7224L178.908 75.4118M154.129 80.7224L154.129 91.3459L146.016 96.6565L137.902 91.3459M178.908 64.7883V75.4118M178.908 64.7883L187.24 59.4753L195.573 64.7883M178.908 75.4118L187.24 80.7224L195.573 75.4118M195.573 64.7883V75.4118M195.573 64.7883L203.796 59.4753L212.019 64.7883M195.573 75.4118L203.796 80.7224L212.019 75.4118M212.019 64.7883V75.4118M212.019 64.7883L219.913 59.4753M212.019 64.7883L220.242 59.4753L228.465 64.7883M212.019 75.4118L220.242 80.7224L228.465 75.4118M212.019 75.4118L204.125 80.7224M212.019 75.4118L219.913 80.7224M105.01 80.7224V91.3459M105.01 80.7224L113.123 75.4118L121.237 80.7224V91.3459L113.123 96.6565L105.01 91.3459M137.902 80.7224V91.3459M170.356 80.7224L162.352 75.4118L154.348 80.7224V91.3459L162.352 96.6565L170.356 91.3459M170.356 80.7224V91.3459M170.356 80.7224L178.579 75.4118L186.802 80.7224M170.356 91.3459L178.579 96.6565L186.802 91.3459M186.802 80.7224V91.3459M186.802 80.7224L195.464 75.4118L204.125 80.7224M186.802 91.3459L195.464 96.6565L204.125 91.3459M204.125 80.7224V91.3459M204.125 91.3459L212.019 96.6565L219.913 91.3459M228.465 -62.6894V-52.0659M228.465 -62.6894L236.688 -68L244.911 -62.6894M228.465 -52.0659L236.688 -46.7553L244.911 -52.0659M228.465 -52.0659L219.913 -46.7553M228.465 -52.0659L237.017 -46.7553M244.911 -62.6894V-52.0659M244.911 -62.6894L253.025 -68L261.138 -62.6894M244.911 -52.0659L253.025 -46.7553M261.138 -62.6894V-52.0659M261.138 -62.6894L269.471 -68L277.804 -62.6894M261.138 -52.0659L253.025 -46.7553M261.138 -52.0659L269.471 -46.7553L277.804 -52.0659M253.025 -46.7553L245.021 -52.0659L237.017 -46.7553M253.025 -46.7553V-36.1318M253.025 -46.7553L261.467 -52.0659L269.91 -46.7553M277.804 -62.6894V-52.0659M277.804 -62.6894L286.246 -68L294.688 -62.6894M277.804 -52.0659L286.246 -46.7553L294.688 -52.0659M294.688 -62.6894V-52.0659M294.688 -62.6894L302.802 -68L310.915 -62.6894M294.688 -52.0659L302.802 -46.7553L310.915 -52.0659M310.915 -62.6894V-52.0659M310.915 -62.6894L319.138 -68L327.361 -62.6894V-52.0659L319.138 -46.7553L310.915 -52.0659M219.913 -46.7553V-36.1318M219.913 -36.1318L228.465 -30.8188M237.017 -46.7553V-36.1318M237.017 -36.1318L228.465 -30.8188M237.017 -36.1318L245.021 -30.8188L253.025 -36.1318M228.465 -30.8188L228.465 -20.1977M228.465 -30.8188L236.688 -36.1318L244.911 -30.8188M253.025 -36.1318L261.467 -30.8188L269.91 -36.1318M253.025 -36.1318L244.911 -30.8188M253.025 -36.1318L261.138 -30.8188M269.91 -46.7553V-36.1318M269.91 -46.7553L278.133 -52.0659L286.356 -46.7553M269.91 -36.1318L278.133 -30.8188L286.356 -36.1318M286.356 -46.7553V-36.1318M286.356 -46.7553L294.469 -52.0659L302.582 -46.7553M286.356 -36.1318L294.469 -30.8188L302.582 -36.1318M302.582 -46.7553V-36.1318M302.582 -46.7553L310.696 -52.0659L318.809 -46.7553V-36.1318L310.696 -30.8188L302.582 -36.1318M228.465 -20.1977L236.688 -14.8847L244.911 -20.1977M228.465 -20.1977L219.913 -14.8847M228.465 -20.1977L237.017 -14.8847M244.911 -30.8188V-20.1977M244.911 -20.1977L253.025 -14.8847M261.138 -30.8188V-20.1977M261.138 -30.8188L269.471 -36.1318L277.804 -30.8188M261.138 -20.1977L253.025 -14.8847M261.138 -20.1977L269.471 -14.8847L277.804 -20.1977M253.025 -14.8847L245.021 -20.1977L237.017 -14.8847M253.025 -14.8847V-4.26114M253.025 -14.8847L261.467 -20.1977L269.91 -14.8847M277.804 -30.8188V-20.1977M277.804 -30.8188L286.246 -36.1318L294.688 -30.8188M277.804 -20.1977L286.246 -14.8847L294.688 -20.1977M294.688 -30.8188V-20.1977M294.688 -30.8188L302.802 -36.1318L310.915 -30.8188M294.688 -20.1977L302.802 -14.8847L310.915 -20.1977M310.915 -30.8188V-20.1977M310.915 -30.8188L319.138 -36.1318L327.361 -30.8188V-20.1977L319.138 -14.8847L310.915 -20.1977M219.913 -14.8847V-4.26114M219.913 -4.26114L228.465 1.04941M237.017 -14.8847V-4.26114M237.017 -4.26114L228.465 1.04941M237.017 -4.26114L245.021 1.04941L253.025 -4.26114M228.465 1.04941L228.465 11.673M228.465 1.04941L236.688 -4.26114L244.911 1.04941M253.025 -4.26114L261.467 1.04941L269.91 -4.26114M253.025 -4.26114L244.911 1.04941M253.025 -4.26114L261.138 1.04941M269.91 -14.8847V-4.26114M269.91 -14.8847L278.133 -20.1977L286.356 -14.8847M269.91 -4.26114L278.133 1.04941L286.356 -4.26114M286.356 -14.8847V-4.26114M286.356 -14.8847L294.469 -20.1977L302.582 -14.8847M286.356 -4.26114L294.469 1.04941L302.582 -4.26114M302.582 -14.8847V-4.26114M302.582 -14.8847L310.696 -20.1977L318.809 -14.8847V-4.26114L310.696 1.04941L302.582 -4.26114M228.465 11.673L236.688 16.9835L244.911 11.673M228.465 11.673L219.913 16.9835M228.465 11.673L237.017 16.9835M244.911 1.04941V11.673M244.911 11.673L253.025 16.9835M261.138 1.04941V11.673M261.138 1.04941L269.471 -4.26114L277.804 1.04941M261.138 11.673L253.025 16.9835M261.138 11.673L269.471 16.9835L277.804 11.673M253.025 16.9835L245.021 11.673L237.017 16.9835M253.025 16.9835V27.6071M253.025 16.9835L261.467 11.673L269.91 16.9835M277.804 1.04941V11.673M277.804 1.04941L286.246 -4.26114L294.688 1.04941M277.804 11.673L286.246 16.9835L294.688 11.673M294.688 1.04941V11.673M294.688 1.04941L302.802 -4.26114L310.915 1.04941M294.688 11.673L302.802 16.9835L310.915 11.673M310.915 1.04941V11.673M310.915 1.04941L319.138 -4.26114L327.361 1.04941V11.673L319.138 16.9835L310.915 11.673M219.913 16.9835V27.6071M219.913 27.6071L228.465 32.9176M237.017 16.9835V27.6071M237.017 27.6071L228.465 32.9176M237.017 27.6071L245.021 32.9176L253.025 27.6071M228.465 32.9176L228.465 43.5412M228.465 32.9176L236.688 27.6071L244.911 32.9176M253.025 27.6071L261.467 32.9176L269.91 27.6071M253.025 27.6071L244.911 32.9176M253.025 27.6071L261.138 32.9176M269.91 16.9835V27.6071M269.91 16.9835L278.133 11.673L286.356 16.9835M269.91 27.6071L278.133 32.9176L286.356 27.6071M286.356 16.9835V27.6071M286.356 16.9835L294.469 11.673L302.582 16.9835M286.356 27.6071L294.469 32.9176L302.582 27.6071M302.582 16.9835V27.6071M302.582 16.9835L310.696 11.673L318.809 16.9835V27.6071L310.696 32.9176L302.582 27.6071M228.465 43.5412L236.688 48.8542L244.911 43.5412M228.465 43.5412L219.913 48.8542M228.465 43.5412L237.017 48.8542M244.911 32.9176V43.5412M244.911 43.5412L253.025 48.8542M261.138 32.9176V43.5412M261.138 32.9176L269.471 27.6071L277.804 32.9176M261.138 43.5412L253.025 48.8542M261.138 43.5412L269.471 48.8542L277.804 43.5412M253.025 48.8542L245.021 43.5412L237.017 48.8542M253.025 48.8542V59.4753M253.025 48.8542L261.467 43.5412L269.91 48.8542M277.804 32.9176V43.5412M277.804 32.9176L286.246 27.6071L294.688 32.9176M277.804 43.5412L286.246 48.8542L294.688 43.5412M294.688 32.9176V43.5412M294.688 32.9176L302.802 27.6071L310.915 32.9176M294.688 43.5412L302.802 48.8542L310.915 43.5412M310.915 32.9176V43.5412M310.915 32.9176L319.138 27.6071L327.361 32.9176V43.5412L319.138 48.8542L310.915 43.5412M219.913 48.8542V59.4753M219.913 59.4753L228.465 64.7883M237.017 48.8542V59.4753M237.017 59.4753L228.465 64.7883M237.017 59.4753L245.021 64.7883L253.025 59.4753M228.465 64.7883L228.465 75.4118M228.465 64.7883L236.688 59.4753L244.911 64.7883M253.025 59.4753L261.467 64.7883L269.91 59.4753M253.025 59.4753L244.911 64.7883M253.025 59.4753L261.138 64.7883M269.91 48.8542V59.4753M269.91 48.8542L278.133 43.5412L286.356 48.8542M269.91 59.4753L278.133 64.7883L286.356 59.4753M286.356 48.8542V59.4753M286.356 48.8542L294.469 43.5412L302.582 48.8542M286.356 59.4753L294.469 64.7883L302.582 59.4753M302.582 48.8542V59.4753M302.582 48.8542L310.696 43.5412L318.809 48.8542V59.4753L310.696 64.7883L302.582 59.4753M228.465 75.4118L236.688 80.7224L244.911 75.4118M228.465 75.4118L219.913 80.7224M228.465 75.4118L237.017 80.7224M244.911 64.7883V75.4118M244.911 75.4118L253.025 80.7224M261.138 64.7883V75.4118M261.138 64.7883L269.471 59.4753L277.804 64.7883M261.138 75.4118L253.025 80.7224M261.138 75.4118L269.471 80.7224L277.804 75.4118M253.025 80.7224L245.021 75.4118L237.017 80.7224M253.025 80.7224V91.3459M253.025 80.7224L261.467 75.4118L269.91 80.7224M277.804 64.7883V75.4118M277.804 64.7883L286.246 59.4753L294.688 64.7883M277.804 75.4118L286.246 80.7224L294.688 75.4118M294.688 64.7883V75.4118M294.688 64.7883L302.802 59.4753L310.915 64.7883M294.688 75.4118L302.802 80.7224L310.915 75.4118M310.915 64.7883V75.4118M310.915 64.7883L319.138 59.4753L327.361 64.7883V75.4118L319.138 80.7224L310.915 75.4118M219.913 80.7224V91.3459M219.913 91.3459L228.465 96.6565L237.017 91.3459M237.017 80.7224V91.3459M237.017 91.3459L245.021 96.6565L253.025 91.3459M253.025 91.3459L261.467 96.6565L269.91 91.3459M269.91 80.7224V91.3459M269.91 80.7224L278.133 75.4118L286.356 80.7224M269.91 91.3459L278.133 96.6565L286.356 91.3459M286.356 80.7224V91.3459M286.356 80.7224L294.469 75.4118L302.582 80.7224M286.356 91.3459L294.469 96.6565L302.582 91.3459M302.582 80.7224V91.3459M302.582 80.7224L310.696 75.4118L318.809 80.7224V91.3459L310.696 96.6565L302.582 91.3459M-117.561 96.6516L-125.893 91.341L-134.226 96.6516V107.275M-117.561 96.6516V107.275M-117.561 96.6516L-109.667 91.341L-101.772 96.6516M-117.561 107.275L-125.893 112.586M-117.561 107.275L-109.667 112.586M-125.893 112.586L-134.226 107.275M-125.893 112.586L-125.893 123.209M-134.226 107.275L-142.559 112.586V123.209L-134.226 128.522M-101.772 96.6516V107.275M-101.772 96.6516L-93.2204 91.341L-84.6684 96.6516M-101.772 107.275L-109.667 112.586M-101.772 107.275L-93.2204 112.586L-84.6684 107.275M-109.667 112.586L-117.67 107.275L-125.674 112.586V123.209L-117.67 128.522L-109.667 123.209M-109.667 112.586V123.209M-84.6684 96.6516V107.275M-84.6684 96.6516L-76.3357 91.341L-68.003 96.6516M-84.6684 107.275L-76.3357 112.586L-68.003 107.275M-68.003 96.6516V107.275M-68.003 96.6516L-59.5607 91.341L-51.1184 96.6516M-68.003 107.275L-59.5607 112.586L-51.1184 107.275M-51.1184 96.6516V107.275M-51.1184 96.6516L-43.2242 91.341L-35.3301 96.6516M-51.1184 107.275L-43.2242 112.586L-35.3301 107.275M-35.3301 96.6516V107.275M-35.3301 96.6516L-26.9974 91.341L-18.6647 96.6516M-35.3301 107.275L-26.9974 112.586M-18.6647 96.6516V107.275M-18.6647 96.6516L-10.4417 91.341L-2.21863 96.6516M-18.6647 107.275L-26.9974 112.586M-18.6647 107.275L-10.4417 112.586L-2.21863 107.275M-18.6647 107.275L-10.332 112.586M-26.9974 112.586L-35.2205 107.275L-43.4435 112.586M-26.9974 112.586V123.209M-125.893 123.209L-134.226 128.522M-125.893 123.209L-117.561 128.522M-134.226 128.522L-134.226 139.146M-109.667 123.209L-117.561 128.522M-109.667 123.209L-101.772 128.522M-93.0011 112.586L-101.224 107.275L-109.447 112.586V123.209L-101.224 128.522L-93.0011 123.209M-93.0011 112.586V123.209M-93.0011 112.586L-84.7781 107.275L-76.555 112.586M-93.0011 123.209L-84.7781 128.522L-76.555 123.209M-76.555 112.586V123.209M-76.555 112.586L-68.2223 107.275L-59.8896 112.586M-76.555 123.209L-68.2223 128.522L-59.8896 123.209M-59.8896 112.586V123.209M-59.8896 112.586L-51.6666 107.275L-43.4435 112.586M-59.8896 123.209L-51.6666 128.522L-43.4435 123.209M-43.4435 112.586V123.209M-43.4435 123.209L-35.2205 128.522L-26.9974 123.209M-26.9974 123.209L-35.3301 128.522M-26.9974 123.209L-18.6647 128.522M-117.561 128.522V139.146M-117.561 139.146L-125.893 144.456M-117.561 139.146L-109.667 144.456M-125.893 144.456L-134.226 139.146M-125.893 144.456L-125.893 155.08M-134.226 139.146L-142.559 144.456V155.08L-134.226 160.39M-101.772 128.522V139.146M-101.772 128.522L-93.2204 123.209L-84.6684 128.522M-101.772 139.146L-109.667 144.456M-101.772 139.146L-93.2204 144.456M-109.667 144.456L-117.67 139.146L-125.674 144.456V155.08L-117.67 160.39L-109.667 155.08M-109.667 144.456V155.08M-109.667 144.456L-101.443 139.146L-93.2204 144.456M-84.6684 128.522V139.146M-84.6684 128.522L-76.3357 123.209L-68.003 128.522M-84.6684 139.146L-93.2204 144.456M-84.6684 139.146L-76.3357 144.456L-68.003 139.146M-93.2204 144.456V155.08M-68.003 128.522V139.146M-68.003 128.522L-59.5607 123.209L-51.1184 128.522M-68.003 139.146L-59.5607 144.456L-51.1184 139.146M-51.1184 128.522V139.146M-51.1184 128.522L-43.2242 123.209L-35.3301 128.522M-51.1184 139.146L-43.2242 144.456M-35.3301 128.522V139.146M-35.3301 139.146L-43.2242 144.456M-35.3301 139.146L-26.9974 144.456M-43.2242 144.456L-51.4473 139.146L-59.6704 144.456V155.08L-51.4473 160.39L-43.2243 155.08L-43.2242 144.456ZM-18.6647 128.522V139.146M-18.6647 128.522L-10.332 123.209M-18.6647 128.522L-10.4417 123.209L-2.21863 128.522M-18.6647 139.146L-26.9974 144.456M-18.6647 139.146L-10.4417 144.456L-2.21863 139.146M-18.6647 139.146L-10.332 144.456M-26.9974 144.456L-35.2205 139.146L-43.4435 144.456V155.08M-26.9974 144.456V155.08M-125.893 155.08L-134.226 160.39M-125.893 155.08L-117.561 160.39M-134.226 160.39L-134.226 171.014M-109.667 155.08L-101.443 160.39L-93.2204 155.08M-109.667 155.08L-117.561 160.39M-109.667 155.08L-101.772 160.39M-93.2204 155.08L-101.772 160.39M-93.2204 155.08L-84.6684 160.39M-76.555 144.456L-84.7781 139.146L-93.0011 144.456V155.08L-84.7781 160.39L-76.555 155.08M-76.555 144.456V155.08M-76.555 144.456L-68.2223 139.146L-59.8896 144.456V155.08L-68.2223 160.39M-76.555 155.08L-68.2223 160.39M-68.2223 160.39L-59.78 155.08L-51.3377 160.39M-68.2223 160.39V171.014M-26.9974 155.08L-35.2205 160.39L-43.4435 155.08M-26.9974 155.08L-35.3301 160.39V171.014L-26.9974 176.325M-26.9974 155.08L-18.6647 160.39M-43.4435 155.08L-51.3377 160.39M-43.4435 155.08L-35.5494 160.39V171.014L-43.4435 176.325M-117.561 160.39V171.014M-117.561 171.014L-125.893 176.325M-117.561 171.014L-109.667 176.325M-125.893 176.325L-134.226 171.014M-125.893 176.325L-125.893 186.948M-134.226 171.014L-142.559 176.325V186.948L-134.226 192.261M-101.772 160.39V171.014M-101.772 171.014L-109.667 176.325M-101.772 171.014L-93.2204 176.325M-109.667 176.325L-117.67 171.014L-125.674 176.325V186.948L-117.67 192.261L-109.667 186.948M-109.667 176.325V186.948M-109.667 176.325L-101.443 171.014L-93.2204 176.325M-84.6684 160.39V171.014M-84.6684 160.39L-76.3357 155.08L-68.003 160.39V171.014L-76.3357 176.325L-84.6684 171.014M-84.6684 171.014L-93.2204 176.325M-93.2204 176.325V186.948M-51.3377 160.39V171.014M-51.3377 171.014L-59.78 176.325L-68.2223 171.014M-51.3377 171.014L-43.4435 176.325M-68.2223 171.014L-76.555 176.325M-68.2223 171.014L-59.8896 176.325V186.948L-68.2223 192.261L-76.555 186.948M-43.4435 176.325L-35.2205 171.014L-26.9974 176.325M-43.4435 176.325L-43.4435 186.948L-35.2205 192.261L-26.9974 186.948M-18.6647 160.39V171.014M-18.6647 160.39L-10.332 155.08M-18.6647 160.39L-10.4417 155.08L-2.21863 160.39M-18.6647 171.014L-26.9974 176.325M-18.6647 171.014L-10.4417 176.325L-2.21863 171.014M-18.6647 171.014L-10.332 176.325M-26.9974 176.325V186.948M-125.893 186.948L-134.226 192.261M-125.893 186.948L-117.561 192.261M-134.226 192.261L-134.226 202.882M-109.667 186.948L-101.443 192.261L-93.2204 186.948M-109.667 186.948L-117.561 192.261M-109.667 186.948L-101.772 192.261M-93.2204 186.948L-101.772 192.261M-93.2204 186.948L-84.6684 192.261M-76.555 176.325L-84.7781 171.014L-93.0011 176.325V186.948L-84.7781 192.261L-76.555 186.948M-76.555 176.325V186.948M-43.2243 186.948V176.325L-51.4473 171.014L-59.6704 176.325V186.948L-51.4473 192.261L-43.2243 186.948ZM-43.2243 186.948L-51.1184 192.261M-43.2243 186.948L-35.3301 192.261M-26.9974 186.948L-35.3301 192.261M-26.9974 186.948L-18.6647 192.261M-117.561 192.261V202.882M-117.561 202.882L-125.893 208.195M-117.561 202.882L-109.667 208.195M-125.893 208.195L-134.226 202.882M-125.893 208.195L-125.893 218.819M-134.226 202.882L-142.559 208.195V218.819L-134.226 224.129M-101.772 192.261V202.882M-101.772 202.882L-109.667 208.195M-101.772 202.882L-93.2204 208.195L-84.6684 202.882M-109.667 208.195L-117.67 202.882L-125.674 208.195V218.819L-117.67 224.129L-109.667 218.819M-109.667 208.195V218.819M-84.6684 192.261V202.882M-84.6684 192.261L-76.3357 186.948L-68.003 192.261M-84.6684 202.882L-76.3357 208.195L-68.003 202.882M-68.003 192.261V202.882M-68.003 192.261L-59.5607 186.948L-51.1184 192.261M-68.003 202.882L-59.5607 208.195L-51.1184 202.882M-51.1184 192.261V202.882M-51.1184 202.882L-43.2242 208.195L-35.3301 202.882M-35.3301 192.261V202.882M-35.3301 202.882L-26.9974 208.195M-18.6647 192.261V202.882M-18.6647 192.261L-10.332 186.948M-18.6647 192.261L-10.4417 186.948L-2.21863 192.261M-18.6647 202.882L-26.9974 208.195M-18.6647 202.882L-10.4417 208.195L-2.21863 202.882M-18.6647 202.882L-10.332 208.195M-26.9974 208.195L-35.2205 202.882L-43.4435 208.195M-26.9974 208.195V218.819M-125.893 218.819L-134.226 224.129M-125.893 218.819L-117.561 224.129M-134.226 224.129L-134.226 234.753M-109.667 218.819L-117.561 224.129M-109.667 218.819L-101.772 224.129V234.753L-109.667 240.063M-93.0011 208.195L-101.224 202.882L-109.447 208.195V218.819L-101.224 224.129L-93.0011 218.819M-93.0011 208.195V218.819M-93.0011 208.195L-84.7781 202.882L-76.555 208.195M-93.0011 218.819L-84.7781 224.129L-76.555 218.819M-93.0011 218.819L-101.553 224.129V234.753L-93.0011 240.063M-93.0011 218.819L-84.4491 224.129V234.753L-93.0011 240.063M-76.555 208.195V218.819M-76.555 208.195L-68.2223 202.882L-59.8896 208.195M-76.555 218.819L-68.2223 224.129L-59.8896 218.819M-59.8896 208.195V218.819M-59.8896 208.195L-51.6666 202.882L-43.4435 208.195M-59.8896 218.819L-51.6666 224.129L-43.4435 218.819M-43.4435 208.195V218.819M-43.4435 218.819L-35.2205 224.129L-26.9974 218.819M-26.9974 218.819L-35.3301 224.129M-26.9974 218.819L-18.6647 224.129M-117.561 224.129V234.753M-117.561 234.753L-125.893 240.063M-117.561 234.753L-109.667 240.063M-125.893 240.063L-134.226 234.753M-125.893 240.063L-125.893 250.687L-134.226 256L-142.559 250.687V240.063L-134.226 234.753M-109.667 240.063L-117.67 234.753L-125.674 240.063V250.687L-117.67 256L-109.667 250.687M-109.667 240.063V250.687M-109.667 240.063L-101.443 234.753L-93.2204 240.063V250.687L-101.443 256L-109.667 250.687M-93.0011 240.063L-84.7781 234.753L-76.555 240.063V250.687L-84.7781 256L-93.0011 250.687V240.063ZM-68.003 224.129L-76.3357 218.819L-84.6684 224.129V234.753L-76.3357 240.063M-68.003 224.129V234.753M-68.003 224.129L-59.5607 218.819L-51.1184 224.129M-68.003 234.753L-76.3357 240.063M-68.003 234.753L-59.5607 240.063L-51.1184 234.753M-68.003 234.753L-59.6704 240.063V250.687L-68.003 256L-76.3357 250.687V240.063M-51.1184 224.129V234.753M-51.1184 224.129L-43.2242 218.819L-35.3301 224.129M-51.1184 234.753L-43.2242 240.063L-35.3301 234.753M-35.3301 224.129V234.753M-35.3301 234.753L-26.9974 240.063M-18.6647 224.129V234.753M-18.6647 224.129L-10.332 218.819M-18.6647 234.753L-26.9974 240.063M-18.6647 234.753L-10.332 240.063M-26.9974 240.063L-35.2205 234.753L-43.4435 240.063M-26.9974 240.063V250.687M-43.4435 240.063L-51.6666 234.753L-59.8896 240.063V250.687L-51.6666 256L-43.4435 250.687M-43.4435 240.063V250.687M-43.4435 250.687L-35.2205 256L-26.9974 250.687M-26.9974 250.687L-18.6647 256L-10.332 250.687M-2.21863 96.6516V107.275M-2.21863 96.6516L6.00442 91.341L14.2275 96.6516M-2.21863 107.275L6.00442 112.586L14.2275 107.275M14.2275 96.6516V107.275M14.2275 96.6516L22.5602 91.341L30.8929 96.6516M14.2275 107.275L22.5602 112.586L30.8929 107.275M30.8929 96.6516V107.275M30.8929 96.6516L38.6773 91.341L46.4618 96.6516M30.8929 107.275L38.6773 112.586L46.4618 107.275M46.4618 96.6516V107.275M46.4618 96.6516L55.1235 91.341L63.7851 96.6516M46.4618 107.275L55.1235 112.586L63.7851 107.275M63.7851 96.6516V107.275M63.7851 96.6516L71.8985 91.341L80.0119 96.6516M63.7851 107.275L71.8985 112.586M80.0119 96.6516V107.275M80.0119 96.6516L88.1253 91.341L96.2387 96.6516M80.0119 107.275L71.8985 112.586M80.0119 107.275L88.1253 112.586L96.2387 107.275M71.8985 112.586L63.4562 107.275L55.0138 112.586V123.209L63.4562 128.522L71.8985 123.209M71.8985 112.586V123.209M96.2387 96.6516V107.275M96.2387 96.6516L104.571 91.341L112.904 96.6516M96.2387 107.275L104.571 112.586L112.904 107.275M-10.332 112.586V123.209M-10.332 112.586L-1.99934 107.275L6.33335 112.586V123.209L-1.99934 128.522L-10.332 123.209M22.9987 112.586L14.5564 107.275L6.11405 112.586V123.209L14.5564 128.522L22.9987 123.209M22.9987 112.586V123.209M22.9987 112.586L30.6736 107.275L38.3484 112.586V123.209L30.6736 128.522L22.9987 123.209M71.8985 123.209L63.7851 128.522M71.8985 123.209L80.0119 128.522M87.906 112.586L79.7926 107.275L71.6792 112.586V123.209L79.7926 128.522L87.906 123.209M87.906 112.586V123.209M87.906 112.586L96.458 107.275L105.01 112.586M87.906 123.209L96.458 128.522L105.01 123.209M-2.21863 128.522V139.146M-2.21863 128.522L6.00442 123.209L14.2275 128.522M-2.21863 139.146L6.00442 144.456L14.2275 139.146M14.2275 128.522V139.146M14.2275 128.522L22.5602 123.209L30.8929 128.522M14.2275 139.146L22.5602 144.456L30.8929 139.146M30.8929 128.522V139.146M30.8929 128.522L38.6773 123.209L46.4618 128.522M30.8929 139.146L38.6773 144.456L46.4618 139.146M46.4618 128.522V139.146M46.4618 128.522L55.1235 123.209L63.7851 128.522M46.4618 139.146L55.1235 144.456L63.7851 139.146M63.7851 128.522V139.146M63.7851 139.146L71.8985 144.456M80.0119 128.522V139.146M80.0119 128.522L88.1253 123.209L96.2387 128.522M80.0119 139.146L71.8985 144.456M80.0119 139.146L88.1253 144.456L96.2387 139.146M71.8985 144.456L63.4562 139.146L55.0138 144.456V155.08L63.4562 160.39L71.8985 155.08M71.8985 144.456V155.08M96.2387 128.522V139.146M96.2387 128.522L104.571 123.209L112.904 128.522M96.2387 139.146L104.571 144.456L112.904 139.146M-10.332 144.456V155.08M-10.332 144.456L-1.99934 139.146L6.33335 144.456V155.08L-1.99934 160.39L-10.332 155.08M22.9987 144.456L14.5564 139.146L6.11405 144.456V155.08L14.5564 160.39L22.9987 155.08M22.9987 144.456V155.08M22.9987 144.456L30.6736 139.146L38.3484 144.456V155.08L30.6736 160.39L22.9987 155.08M71.8985 155.08L63.7851 160.39M71.8985 155.08L80.0119 160.39M87.906 144.456L79.7926 139.146L71.6792 144.456V155.08L79.7926 160.39L87.906 155.08M87.906 144.456V155.08M87.906 144.456L96.458 139.146L105.01 144.456M87.906 155.08L96.458 160.39L105.01 155.08M-2.21863 160.39V171.014M-2.21863 160.39L6.00442 155.08L14.2275 160.39V171.014L6.00442 176.325L-2.21863 171.014M46.4618 160.39L38.6773 155.08L30.8929 160.39V171.014M46.4618 160.39V171.014M46.4618 160.39L55.1235 155.08L63.7851 160.39M46.4618 171.014L38.6773 176.325L30.8929 171.014M46.4618 171.014L55.1235 176.325L63.7851 171.014M30.8929 171.014L23.218 176.325V186.948L30.8929 192.261M30.8929 171.014L38.5677 176.325M63.7851 160.39V171.014M63.7851 171.014L71.8985 176.325L80.0119 171.014M80.0119 160.39V171.014M80.0119 160.39L88.1253 155.08L96.2387 160.39M80.0119 171.014L88.1253 176.325L96.2387 171.014M96.2387 160.39V171.014M96.2387 160.39L104.571 155.08L112.904 160.39M96.2387 171.014L104.571 176.325L112.904 171.014M-10.332 176.325V186.948M-10.332 176.325L-1.99934 171.014L6.33335 176.325V186.948L-1.99934 192.261L-10.332 186.948M38.5677 176.325V186.948M38.5677 176.325L46.6811 171.014L54.7945 176.325M38.5677 186.948L30.8929 192.261M38.5677 186.948L46.6811 192.261L54.7945 186.948M30.8929 192.261L38.6773 186.948L46.4618 192.261M30.8929 192.261V202.882M54.7945 176.325V186.948M54.7945 176.325L63.2369 171.014L71.6792 176.325M54.7945 186.948L63.2369 192.261L71.6792 186.948M71.6792 176.325V186.948M71.6792 176.325L79.7926 171.014L87.906 176.325M71.6792 186.948L79.7926 192.261L87.906 186.948M87.906 176.325V186.948M87.906 176.325L96.458 171.014L105.01 176.325M87.906 186.948L96.458 192.261L105.01 186.948M-2.21863 192.261V202.882M-2.21863 192.261L6.00442 186.948L14.2275 192.261V202.882L6.00442 208.195L-2.21863 202.882M46.4618 192.261V202.882M46.4618 192.261L55.1235 186.948L63.7851 192.261M46.4618 202.882L38.6773 208.195L30.8929 202.882M46.4618 202.882L55.1235 208.195L63.7851 202.882M30.8929 202.882L23.218 208.195M30.8929 202.882L38.5677 208.195M63.7851 192.261V202.882M63.7851 192.261L71.8985 186.948L80.0119 192.261M63.7851 202.882L71.8985 208.195L80.0119 202.882M80.0119 192.261V202.882M80.0119 192.261L88.1253 186.948L96.2387 192.261M80.0119 202.882L88.1253 208.195L96.2387 202.882M96.2387 192.261V202.882M96.2387 192.261L104.571 186.948L112.904 192.261V202.882L104.571 208.195L96.2387 202.882M-10.332 208.195V218.819M-10.332 208.195L-1.99934 202.882L6.33335 208.195M-10.332 218.819L-1.99934 224.129M6.33335 208.195V218.819M6.33335 208.195L14.7757 202.882L23.218 208.195M6.33335 218.819L-1.99934 224.129M6.33335 218.819L14.7757 224.129L23.218 218.819M-1.99934 224.129L-10.2224 218.819L-18.4455 224.129V234.753L-10.2224 240.063L-1.99934 234.753M-1.99934 224.129V234.753M-1.99934 224.129L6.22371 218.819L14.4468 224.129M23.218 208.195V218.819M23.218 218.819L30.8929 224.129M38.5677 208.195V218.819M38.5677 208.195L46.6811 202.882L54.7945 208.195M38.5677 218.819L30.8929 224.129M38.5677 218.819L46.6811 224.129L54.7945 218.819M30.8929 224.129L38.6773 218.819L46.4618 224.129M30.8929 224.129V234.753M54.7945 208.195V218.819M54.7945 208.195L63.2369 202.882L71.6792 208.195M54.7945 218.819L63.2369 224.129L71.6792 218.819M71.6792 208.195V218.819M71.6792 208.195L79.7926 202.882L87.906 208.195M71.6792 218.819L79.7926 224.129L87.906 218.819M87.906 208.195V218.819M87.906 208.195L96.458 202.882L105.01 208.195M87.906 218.819L96.458 224.129L105.01 218.819M-1.99934 234.753L6.22371 240.063L14.4468 234.753M-1.99934 234.753L-10.332 240.063M-1.99934 234.753L6.33335 240.063M14.4468 224.129V234.753M14.4468 224.129L22.7794 218.819L31.1122 224.129V234.753L22.7794 240.063L14.4468 234.753M46.4618 224.129V234.753M46.4618 224.129L55.1235 218.819L63.7851 224.129M46.4618 234.753L38.6773 240.063L30.8929 234.753M46.4618 234.753L55.1235 240.063L63.7851 234.753M30.8929 234.753L23.218 240.063M30.8929 234.753L38.5677 240.063M63.7851 224.129V234.753M63.7851 224.129L71.8985 218.819L80.0119 224.129M63.7851 234.753L71.8985 240.063L80.0119 234.753M80.0119 224.129V234.753M80.0119 224.129L88.1253 218.819L96.2387 224.129M80.0119 234.753L88.1253 240.063L96.2387 234.753M96.2387 224.129V234.753M96.2387 224.129L104.571 218.819L112.904 224.129M96.2387 234.753L104.571 240.063L112.904 234.753M-10.332 240.063V250.687M-10.332 250.687L-1.99934 256L6.33335 250.687M6.33335 240.063V250.687M6.33335 240.063L14.7757 234.753L23.218 240.063M6.33335 250.687L14.7757 256L23.218 250.687M23.218 240.063V250.687M23.218 250.687L30.8929 256L38.5677 250.687M38.5677 240.063V250.687M38.5677 240.063L46.6811 234.753L54.7945 240.063M38.5677 250.687L46.6811 256L54.7945 250.687M54.7945 240.063V250.687M54.7945 240.063L63.2369 234.753L71.6792 240.063M54.7945 250.687L63.2369 256L71.6792 250.687M71.6792 240.063V250.687M71.6792 240.063L79.7926 234.753L87.906 240.063M71.6792 250.687L79.7926 256L87.906 250.687M87.906 240.063V250.687M87.906 240.063L96.458 234.753L105.01 240.063M87.906 250.687L96.458 256L105.01 250.687M112.904 96.6516V107.275M112.904 96.6516L121.018 91.341L129.131 96.6516M112.904 107.275L121.018 112.586L129.131 107.275M129.131 96.6516V107.275M129.131 96.6516L137.573 91.341L146.016 96.6516M129.131 107.275L137.573 112.586L146.016 107.275M146.016 96.6516V107.275M146.016 96.6516L154.129 91.341L162.242 96.6516M146.016 107.275L154.129 112.586L162.242 107.275M162.242 96.6516V107.275M162.242 96.6516L170.575 91.341L178.908 96.6516M162.242 107.275L170.575 112.586L178.908 107.275M178.908 96.6516V107.275M178.908 96.6516L187.24 91.341L195.573 96.6516M178.908 107.275L187.24 112.586L195.573 107.275M195.573 96.6516V107.275M195.573 96.6516L203.796 91.341L212.019 96.6516M195.573 107.275L203.796 112.586L212.019 107.275M212.019 96.6516V107.275M212.019 96.6516L220.242 91.341L228.465 96.6516M212.019 107.275L220.242 112.586L228.465 107.275M212.019 107.275L204.125 112.586M212.019 107.275L219.913 112.586M105.01 112.586V123.209M105.01 112.586L113.123 107.275L121.237 112.586M105.01 123.209L113.123 128.522L121.237 123.209M121.237 112.586V123.209M121.237 112.586L129.679 107.275L138.121 112.586M121.237 123.209L129.679 128.522L138.121 123.209M138.121 112.586V123.209M138.121 112.586L146.235 107.275L154.348 112.586M138.121 123.209L146.235 128.522L154.348 123.209M154.348 112.586V123.209M154.348 112.586L162.352 107.275L170.356 112.586M154.348 123.209L162.352 128.522L170.356 123.209M170.356 112.586V123.209M170.356 112.586L178.579 107.275L186.802 112.586M170.356 123.209L178.579 128.522L186.802 123.209M186.802 112.586V123.209M186.802 112.586L195.464 107.275L204.125 112.586M186.802 123.209L195.464 128.522L204.125 123.209M204.125 112.586V123.209M204.125 123.209L212.019 128.522M112.904 128.522V139.146M112.904 128.522L121.018 123.209L129.131 128.522M112.904 139.146L121.018 144.456L129.131 139.146M129.131 128.522V139.146M129.131 128.522L137.573 123.209L146.016 128.522M129.131 139.146L137.573 144.456L146.016 139.146M146.016 128.522V139.146M146.016 128.522L154.129 123.209L162.242 128.522M146.016 139.146L154.129 144.456L162.242 139.146M162.242 128.522V139.146M162.242 128.522L170.575 123.209L178.908 128.522M162.242 139.146L170.575 144.456L178.908 139.146M178.908 128.522V139.146M178.908 128.522L187.24 123.209L195.573 128.522M178.908 139.146L187.24 144.456L195.573 139.146M195.573 128.522V139.146M195.573 128.522L203.796 123.209L212.019 128.522M195.573 139.146L203.796 144.456L212.019 139.146M212.019 128.522V139.146M212.019 128.522L219.913 123.209M212.019 128.522L220.242 123.209L228.465 128.522M212.019 139.146L220.242 144.456L228.465 139.146M212.019 139.146L204.125 144.456M212.019 139.146L219.913 144.456M105.01 144.456V155.08M105.01 144.456L113.123 139.146L121.237 144.456M105.01 155.08L113.123 160.39L121.237 155.08M121.237 144.456V155.08M121.237 144.456L129.679 139.146L138.121 144.456M121.237 155.08L129.679 160.39L138.121 155.08M138.121 144.456V155.08M138.121 144.456L146.235 139.146L154.348 144.456M138.121 155.08L146.235 160.39L154.348 155.08M154.348 144.456V155.08M154.348 144.456L162.352 139.146L170.356 144.456M154.348 155.08L162.352 160.39L170.356 155.08M170.356 144.456V155.08M170.356 144.456L178.579 139.146L186.802 144.456M170.356 155.08L178.579 160.39L186.802 155.08M186.802 144.456V155.08M186.802 144.456L195.464 139.146L204.125 144.456M186.802 155.08L195.464 160.39L204.125 155.08M204.125 144.456V155.08M204.125 155.08L212.019 160.39M112.904 160.39V171.014M112.904 160.39L121.018 155.08L129.131 160.39M112.904 171.014L121.018 176.325L129.131 171.014M129.131 160.39V171.014M129.131 160.39L137.573 155.08L146.016 160.39M129.131 171.014L137.573 176.325L146.016 171.014M146.016 160.39V171.014M146.016 160.39L154.129 155.08L162.242 160.39M146.016 171.014L154.129 176.325L162.242 171.014M162.242 160.39V171.014M162.242 160.39L170.575 155.08L178.908 160.39M162.242 171.014L170.575 176.325L178.908 171.014M178.908 160.39V171.014M178.908 160.39L187.24 155.08L195.573 160.39M178.908 171.014L187.24 176.325L195.573 171.014M195.573 160.39V171.014M195.573 160.39L203.796 155.08L212.019 160.39M195.573 171.014L203.796 176.325L212.019 171.014M212.019 160.39V171.014M212.019 160.39L219.913 155.08M212.019 160.39L220.242 155.08L228.465 160.39M212.019 171.014L220.242 176.325L228.465 171.014M212.019 171.014L204.125 176.325M212.019 171.014L219.913 176.325M105.01 176.325V186.948M105.01 176.325L113.123 171.014L121.237 176.325M105.01 186.948L113.123 192.261M121.237 176.325V186.948M121.237 176.325L129.679 171.014L138.121 176.325M121.237 186.948L113.123 192.261M121.237 186.948L129.679 192.261L138.121 186.948M121.237 186.948L129.35 192.261M113.123 192.261V202.882M138.121 176.325V186.948M138.121 176.325L146.235 171.014L154.348 176.325M138.121 186.948L146.235 192.261M154.348 176.325V186.948M154.348 176.325L162.352 171.014L170.356 176.325M154.348 186.948L146.235 192.261M154.348 186.948L162.352 192.261L170.356 186.948M146.235 192.261L137.793 186.948L129.35 192.261M146.235 192.261L146.235 202.882M170.356 176.325V186.948M170.356 176.325L178.579 171.014L186.802 176.325M170.356 186.948L178.579 192.261L186.802 186.948M186.802 176.325V186.948M186.802 176.325L195.464 171.014L204.125 176.325M186.802 186.948L195.464 192.261L204.125 186.948M204.125 176.325V186.948M204.125 186.948L212.019 192.261M129.35 192.261V202.882M129.35 202.882L121.237 208.195M129.35 202.882L137.793 208.195L146.235 202.882M121.237 208.195L113.123 202.882M121.237 208.195V218.819M121.237 208.195L129.679 202.882L138.121 208.195M113.123 202.882L105.01 208.195M146.235 202.882L138.121 208.195M146.235 202.882L154.348 208.195M162.242 192.261L154.129 186.948L146.016 192.261V202.882L154.129 208.195L162.242 202.882M162.242 192.261V202.882M162.242 192.261L170.575 186.948L178.908 192.261M162.242 202.882L170.575 208.195L178.908 202.882M178.908 192.261V202.882M178.908 192.261L187.24 186.948L195.573 192.261M178.908 202.882L187.24 208.195L195.573 202.882M195.573 192.261V202.882M195.573 192.261L203.796 186.948L212.019 192.261M195.573 202.882L203.796 208.195L212.019 202.882M212.019 192.261V202.882M212.019 192.261L219.913 186.948M212.019 192.261L220.242 186.948L228.465 192.261M212.019 202.882L220.242 208.195L228.465 202.882M212.019 202.882L204.125 208.195M212.019 202.882L219.913 208.195M105.01 208.195V218.819M105.01 218.819L113.123 224.129L121.237 218.819M121.237 218.819L129.679 224.129L138.121 218.819M138.121 208.195V218.819M138.121 218.819L146.235 224.129M154.348 208.195V218.819M154.348 208.195L162.352 202.882L170.356 208.195M154.348 218.819L146.235 224.129M154.348 218.819L162.352 224.129L170.356 218.819M146.235 224.129L137.793 218.819L129.35 224.129V234.753L137.793 240.063L146.235 234.753M146.235 224.129L146.235 234.753M170.356 208.195V218.819M170.356 208.195L178.579 202.882L186.802 208.195M170.356 218.819L178.579 224.129L186.802 218.819M186.802 208.195V218.819M186.802 208.195L195.464 202.882L204.125 208.195M186.802 218.819L195.464 224.129L204.125 218.819M204.125 208.195V218.819M204.125 218.819L212.019 224.129M112.904 224.129V234.753M112.904 224.129L121.018 218.819L129.131 224.129V234.753L121.018 240.063L112.904 234.753M146.235 234.753L138.121 240.063M146.235 234.753L154.348 240.063M162.242 224.129L154.129 218.819L146.016 224.129V234.753L154.129 240.063L162.242 234.753M162.242 224.129V234.753M162.242 224.129L170.575 218.819L178.908 224.129M162.242 234.753L170.575 240.063L178.908 234.753M178.908 224.129V234.753M178.908 224.129L187.24 218.819L195.573 224.129M178.908 234.753L187.24 240.063L195.573 234.753M195.573 224.129V234.753M195.573 224.129L203.796 218.819L212.019 224.129M195.573 234.753L203.796 240.063L212.019 234.753M212.019 224.129V234.753M212.019 224.129L219.913 218.819M212.019 224.129L220.242 218.819L228.465 224.129M212.019 234.753L220.242 240.063L228.465 234.753M212.019 234.753L204.125 240.063M212.019 234.753L219.913 240.063M105.01 240.063V250.687M105.01 240.063L113.123 234.753L121.237 240.063M105.01 250.687L113.123 256L121.237 250.687M121.237 240.063V250.687M121.237 240.063L129.679 234.753L138.121 240.063M121.237 250.687L129.679 256L138.121 250.687M138.121 240.063V250.687M138.121 250.687L146.235 256L154.348 250.687M154.348 240.063V250.687M154.348 240.063L162.352 234.753L170.356 240.063M154.348 250.687L162.352 256L170.356 250.687M170.356 240.063V250.687M170.356 240.063L178.579 234.753L186.802 240.063M170.356 250.687L178.579 256L186.802 250.687M186.802 240.063V250.687M186.802 240.063L195.464 234.753L204.125 240.063M186.802 250.687L195.464 256L204.125 250.687M204.125 240.063V250.687M204.125 250.687L212.019 256L219.913 250.687M228.465 96.6516V107.275M228.465 96.6516L236.688 91.341L244.911 96.6516M228.465 107.275L236.688 112.586L244.911 107.275M228.465 107.275L219.913 112.586M228.465 107.275L237.017 112.586M244.911 96.6516V107.275M244.911 96.6516L253.025 91.341L261.138 96.6516M244.911 107.275L253.025 112.586M261.138 96.6516V107.275M261.138 96.6516L269.471 91.341L277.804 96.6516M261.138 107.275L253.025 112.586M261.138 107.275L269.471 112.586L277.804 107.275M253.025 112.586L245.021 107.275L237.017 112.586M253.025 112.586V123.209M253.025 112.586L261.467 107.275L269.91 112.586M277.804 96.6516V107.275M277.804 96.6516L286.246 91.341L294.688 96.6516M277.804 107.275L286.246 112.586L294.688 107.275M294.688 96.6516V107.275M294.688 96.6516L302.802 91.341L310.915 96.6516M294.688 107.275L302.802 112.586L310.915 107.275M310.915 96.6516V107.275M310.915 96.6516L319.138 91.341L327.361 96.6516V107.275L319.138 112.586L310.915 107.275M219.913 112.586V123.209M219.913 123.209L228.465 128.522M237.017 112.586V123.209M237.017 123.209L228.465 128.522M237.017 123.209L245.021 128.522L253.025 123.209M228.465 128.522L228.465 139.146M228.465 128.522L236.688 123.209L244.911 128.522M253.025 123.209L261.467 128.522L269.91 123.209M253.025 123.209L244.911 128.522M253.025 123.209L261.138 128.522M269.91 112.586V123.209M269.91 112.586L278.133 107.275L286.356 112.586M269.91 123.209L278.133 128.522L286.356 123.209M286.356 112.586V123.209M286.356 112.586L294.469 107.275L302.582 112.586M286.356 123.209L294.469 128.522L302.582 123.209M302.582 112.586V123.209M302.582 112.586L310.696 107.275L318.809 112.586V123.209L310.696 128.522L302.582 123.209M228.465 139.146L236.688 144.456L244.911 139.146M228.465 139.146L219.913 144.456M228.465 139.146L237.017 144.456M244.911 128.522V139.146M244.911 139.146L253.025 144.456M261.138 128.522V139.146M261.138 128.522L269.471 123.209L277.804 128.522M261.138 139.146L253.025 144.456M261.138 139.146L269.471 144.456L277.804 139.146M253.025 144.456L245.021 139.146L237.017 144.456M253.025 144.456V155.08M253.025 144.456L261.467 139.146L269.91 144.456M277.804 128.522V139.146M277.804 128.522L286.246 123.209L294.688 128.522M277.804 139.146L286.246 144.456L294.688 139.146M294.688 128.522V139.146M294.688 128.522L302.802 123.209L310.915 128.522M294.688 139.146L302.802 144.456L310.915 139.146M310.915 128.522V139.146M310.915 128.522L319.138 123.209L327.361 128.522V139.146L319.138 144.456L310.915 139.146M219.913 144.456V155.08M219.913 155.08L228.465 160.39M237.017 144.456V155.08M237.017 155.08L228.465 160.39M237.017 155.08L245.021 160.39L253.025 155.08M228.465 160.39L228.465 171.014M228.465 160.39L236.688 155.08L244.911 160.39M253.025 155.08L261.467 160.39L269.91 155.08M253.025 155.08L244.911 160.39M253.025 155.08L261.138 160.39M269.91 144.456V155.08M269.91 144.456L278.133 139.146L286.356 144.456M269.91 155.08L278.133 160.39L286.356 155.08M286.356 144.456V155.08M286.356 144.456L294.469 139.146L302.582 144.456M286.356 155.08L294.469 160.39L302.582 155.08M302.582 144.456V155.08M302.582 144.456L310.696 139.146L318.809 144.456V155.08L310.696 160.39L302.582 155.08M228.465 171.014L236.688 176.325L244.911 171.014M228.465 171.014L219.913 176.325M228.465 171.014L237.017 176.325M244.911 160.39V171.014M244.911 171.014L253.025 176.325M261.138 160.39V171.014M261.138 160.39L269.471 155.08L277.804 160.39M261.138 171.014L253.025 176.325M261.138 171.014L269.471 176.325L277.804 171.014M253.025 176.325L245.021 171.014L237.017 176.325M253.025 176.325V186.948M253.025 176.325L261.467 171.014L269.91 176.325M277.804 160.39V171.014M277.804 160.39L286.246 155.08L294.688 160.39M277.804 171.014L286.246 176.325L294.688 171.014M294.688 160.39V171.014M294.688 160.39L302.802 155.08L310.915 160.39M294.688 171.014L302.802 176.325L310.915 171.014M310.915 160.39V171.014M310.915 160.39L319.138 155.08L327.361 160.39V171.014L319.138 176.325L310.915 171.014M219.913 176.325V186.948M219.913 186.948L228.465 192.261M237.017 176.325V186.948M237.017 186.948L228.465 192.261M237.017 186.948L245.021 192.261L253.025 186.948M228.465 192.261L228.465 202.882M228.465 192.261L236.688 186.948L244.911 192.261M253.025 186.948L261.467 192.261L269.91 186.948M253.025 186.948L244.911 192.261M253.025 186.948L261.138 192.261M269.91 176.325V186.948M269.91 176.325L278.133 171.014L286.356 176.325M269.91 186.948L278.133 192.261L286.356 186.948M286.356 176.325V186.948M286.356 176.325L294.469 171.014L302.582 176.325M286.356 186.948L294.469 192.261L302.582 186.948M302.582 176.325V186.948M302.582 176.325L310.696 171.014L318.809 176.325V186.948L310.696 192.261L302.582 186.948M228.465 202.882L236.688 208.195L244.911 202.882M228.465 202.882L219.913 208.195M228.465 202.882L237.017 208.195M244.911 192.261V202.882M244.911 202.882L253.025 208.195M261.138 192.261V202.882M261.138 192.261L269.471 186.948L277.804 192.261M261.138 202.882L253.025 208.195M261.138 202.882L269.471 208.195L277.804 202.882M253.025 208.195L245.021 202.882L237.017 208.195M253.025 208.195V218.819M253.025 208.195L261.467 202.882L269.91 208.195M277.804 192.261V202.882M277.804 192.261L286.246 186.948L294.688 192.261M277.804 202.882L286.246 208.195L294.688 202.882M294.688 192.261V202.882M294.688 192.261L302.802 186.948L310.915 192.261M294.688 202.882L302.802 208.195L310.915 202.882M310.915 192.261V202.882M310.915 192.261L319.138 186.948L327.361 192.261V202.882L319.138 208.195L310.915 202.882M219.913 208.195V218.819M219.913 218.819L228.465 224.129M237.017 208.195V218.819M237.017 218.819L228.465 224.129M237.017 218.819L245.021 224.129L253.025 218.819M228.465 224.129L228.465 234.753M228.465 224.129L236.688 218.819L244.911 224.129M253.025 218.819L261.467 224.129L269.91 218.819M253.025 218.819L244.911 224.129M253.025 218.819L261.138 224.129M269.91 208.195V218.819M269.91 208.195L278.133 202.882L286.356 208.195M269.91 218.819L278.133 224.129L286.356 218.819M286.356 208.195V218.819M286.356 208.195L294.469 202.882L302.582 208.195M286.356 218.819L294.469 224.129L302.582 218.819M302.582 208.195V218.819M302.582 208.195L310.696 202.882L318.809 208.195V218.819L310.696 224.129L302.582 218.819M228.465 234.753L236.688 240.063L244.911 234.753M228.465 234.753L219.913 240.063M228.465 234.753L237.017 240.063M244.911 224.129V234.753M244.911 234.753L253.025 240.063M261.138 224.129V234.753M261.138 224.129L269.471 218.819L277.804 224.129M261.138 234.753L253.025 240.063M261.138 234.753L269.471 240.063L277.804 234.753M253.025 240.063L245.021 234.753L237.017 240.063M253.025 240.063V250.687M253.025 240.063L261.467 234.753L269.91 240.063M277.804 224.129V234.753M277.804 224.129L286.246 218.819L294.688 224.129M277.804 234.753L286.246 240.063L294.688 234.753M294.688 224.129V234.753M294.688 224.129L302.802 218.819L310.915 224.129M294.688 234.753L302.802 240.063L310.915 234.753M310.915 224.129V234.753M310.915 224.129L319.138 218.819L327.361 224.129V234.753L319.138 240.063L310.915 234.753M219.913 240.063V250.687M219.913 250.687L228.465 256L237.017 250.687M237.017 240.063V250.687M237.017 250.687L245.021 256L253.025 250.687M253.025 250.687L261.467 256L269.91 250.687M269.91 240.063V250.687M269.91 240.063L278.133 234.753L286.356 240.063M269.91 250.687L278.133 256L286.356 250.687M286.356 240.063V250.687M286.356 240.063L294.469 234.753L302.582 240.063M286.356 250.687L294.469 256L302.582 250.687M302.582 240.063V250.687M302.582 240.063L310.696 234.753L318.809 240.063V250.687L310.696 256L302.582 250.687M22.9987 -14.8847L30.6736 -20.1977L38.3484 -14.8847V-4.26114L30.6736 1.04941L22.9987 -4.26114V-14.8847ZM14.4468 32.9176L22.7794 27.6071L31.1122 32.9176V43.5412L22.7794 48.8542L14.4468 43.5412V32.9176ZM6.11405 48.8542L14.5564 43.5412L22.9987 48.8542V59.4753L14.5564 64.7883L6.11405 59.4753V48.8542ZM14.4468 64.7883L22.7794 59.4753L31.1122 64.7883V75.4118L22.7794 80.7224L14.4468 75.4118V64.7883ZM38.5677 80.7224L46.6811 75.4118L54.7945 80.7224V91.3459L46.6811 96.6565L38.5677 91.3459V80.7224ZM38.5677 112.586L46.6811 107.275L54.7945 112.586V123.209L46.6811 128.522L38.5677 123.209V112.586ZM38.5677 144.456L46.6811 139.146L54.7945 144.456V155.08L46.6811 160.39L38.5677 155.08V144.456ZM14.4468 160.39L22.7794 155.08L31.1122 160.39V171.014L22.7794 176.325L14.4468 171.014V160.39ZM6.11405 176.325L14.5564 171.014L22.9987 176.325V186.948L14.5564 192.261L6.11405 186.948V176.325ZM14.4468 192.261L22.7794 186.948L31.1122 192.261V202.882L22.7794 208.195L14.4468 202.882V192.261Z" stroke="url(#paint1_linear_123_44708)" stroke-opacity="0.6" stroke-miterlimit="10"/>
</g>
</g>
<defs>
<linearGradient id="paint0_linear_123_44708" x1="3.51953" y1="4" x2="196.843" y2="195.39" gradientUnits="userSpaceOnUse">
<stop stop-color="white"/>
<stop offset="0.505" stop-color="white" stop-opacity="0"/>
<stop offset="1" stop-color="white"/>
</linearGradient>
<linearGradient id="paint1_linear_123_44708" x1="-142.559" y1="-163.488" x2="202.188" y2="145.604" gradientUnits="userSpaceOnUse">
<stop offset="0.55" stop-color="white" stop-opacity="0"/>
<stop offset="0.73" stop-color="white"/>
<stop offset="0.88" stop-color="white" stop-opacity="0"/>
</linearGradient>
</defs>
</svg>
