<svg width="200" height="188" viewBox="0 0 200 188" fill="none" xmlns="http://www.w3.org/2000/svg">
<mask id="mask0_123_44696" style="mask-type:alpha" maskUnits="userSpaceOnUse" x="0" y="0" width="200" height="188">
<path fill-rule="evenodd" clip-rule="evenodd" d="M110.497 2.35602C104.002 -0.785338 95.9985 -0.785339 89.5027 2.35602L10.4973 40.5632C4.00154 43.7046 0 49.5101 0 55.7928V132.207C0 138.49 4.00154 144.295 10.4973 147.437L89.5027 185.644C95.9985 188.785 104.002 188.785 110.497 185.644L189.503 147.437C195.998 144.295 200 138.49 200 132.207V55.7928C200 49.5101 195.998 43.7046 189.503 40.5632L110.497 2.35602ZM116.082 84.1919L102.099 77.4298C100.8 76.8015 99.1997 76.8015 97.9006 77.4298L83.9177 84.1919C82.6185 84.8202 81.8182 85.9813 81.8182 87.2378V100.762C81.8182 102.019 82.6185 103.18 83.9177 103.808L97.9006 110.57C99.1997 111.199 100.8 111.199 102.099 110.57L116.082 103.808C117.382 103.18 118.182 102.019 118.182 100.762V87.2378C118.182 85.9813 117.382 84.8202 116.082 84.1919Z" fill="#F36DFF"/>
<path d="M102.099 77.4298L116.082 84.1919C117.382 84.8202 118.182 85.9813 118.182 87.2378V100.762C118.182 102.019 117.382 103.18 116.082 103.808L102.099 110.57C100.8 111.199 99.1997 111.199 97.9006 110.57L83.9177 103.808C82.6185 103.18 81.8182 102.019 81.8182 100.762V87.2378C81.8182 85.9813 82.6185 84.8202 83.9177 84.1919L97.9006 77.4298C99.1997 76.8015 100.8 76.8015 102.099 77.4298Z" fill="#F36DFF"/>
</mask>
<g mask="url(#mask0_123_44696)">
<path fill-rule="evenodd" clip-rule="evenodd" d="M110.497 2.35602C104.002 -0.785338 95.9985 -0.785339 89.5027 2.35602L10.4973 40.5632C4.00154 43.7046 0 49.5101 0 55.7928V132.207C0 138.49 4.00154 144.295 10.4973 147.437L89.5027 185.644C95.9985 188.785 104.002 188.785 110.497 185.644L189.503 147.437C195.998 144.295 200 138.49 200 132.207V55.7928C200 49.5101 195.998 43.7046 189.503 40.5632L110.497 2.35602ZM116.082 84.1919L102.099 77.4298C100.8 76.8015 99.1997 76.8015 97.9006 77.4298L83.9177 84.1919C82.6185 84.8202 81.8182 85.9813 81.8182 87.2378V100.762C81.8182 102.019 82.6185 103.18 83.9177 103.808L97.9006 110.57C99.1997 111.199 100.8 111.199 102.099 110.57L116.082 103.808C117.382 103.18 118.182 102.019 118.182 100.762V87.2378C118.182 85.9813 117.382 84.8202 116.082 84.1919Z" fill="#F36DFF"/>
<path d="M102.099 77.4298L116.082 84.1919C117.382 84.8202 118.182 85.9813 118.182 87.2378V100.762C118.182 102.019 117.382 103.18 116.082 103.808L102.099 110.57C100.8 111.199 99.1997 111.199 97.9006 110.57L83.9177 103.808C82.6185 103.18 81.8182 102.019 81.8182 100.762V87.2378C81.8182 85.9813 82.6185 84.8202 83.9177 84.1919L97.9006 77.4298C99.1997 76.8015 100.8 76.8015 102.099 77.4298Z" fill="#F36DFF"/>
<g style="mix-blend-mode:difference">
<path d="M109.859 6.07904L185.704 42.9217C191.799 45.8822 195.5 51.3227 195.5 57.1576V130.843C195.5 136.678 191.799 142.118 185.704 145.079L109.859 181.922C103.761 184.884 96.2391 184.884 90.1411 181.922L14.2959 145.079C8.20137 142.118 4.5 136.678 4.5 130.843V57.1576C4.5 51.3227 8.20137 45.8822 14.2959 42.9217L90.1411 6.07904C96.2391 3.11688 103.761 3.11688 109.859 6.07904Z" stroke="url(#paint0_linear_123_44696)" stroke-opacity="0.2"/>
</g>
<g style="mix-blend-mode:soft-light">
<path d="M-133.593 -52.6152L-143.062 -57.0723L-152.531 -52.6152V-43.699M-133.593 -52.6152V-43.699M-133.593 -52.6152L-124.623 -57.0723L-115.652 -52.6152M-133.593 -43.699L-143.062 -39.2419M-133.593 -43.699L-124.623 -39.2419M-143.062 -39.2419L-152.531 -43.699M-143.062 -39.2419L-143.062 -30.3257M-152.531 -43.699L-162 -39.2419V-30.3257L-152.531 -25.8666M-115.652 -52.6152V-43.699M-115.652 -52.6152L-105.934 -57.0723L-96.2157 -52.6152M-115.652 -43.699L-124.623 -39.2419M-115.652 -43.699L-105.934 -39.2419L-96.2157 -43.699M-124.623 -39.2419L-133.718 -43.699L-142.813 -39.2419V-30.3257L-133.718 -25.8666L-124.623 -30.3257M-124.623 -39.2419V-30.3257M-96.2157 -52.6152V-43.699M-96.2157 -52.6152L-86.7467 -57.0723L-77.2778 -52.6152M-96.2157 -43.699L-86.7467 -39.2419L-77.2778 -43.699M-77.2778 -52.6152V-43.699M-77.2778 -52.6152L-67.6842 -57.0723L-58.0906 -52.6152M-77.2778 -43.699L-67.6842 -39.2419L-58.0906 -43.699M-58.0906 -52.6152V-43.699M-58.0906 -52.6152L-49.12 -57.0723L-40.1494 -52.6152M-58.0906 -43.699L-49.12 -39.2419M-40.1494 -52.6152V-43.699M-40.1494 -52.6152L-30.6805 -57.0723L-21.2115 -52.6152M-40.1494 -43.699L-49.12 -39.2419M-40.1494 -43.699L-30.6805 -39.2419M-49.12 -39.2419L-58.4644 -43.699L-67.8088 -39.2419V-30.3257L-58.4644 -25.8666L-49.12 -30.3257M-49.12 -39.2419L-49.12 -30.3257M-21.2115 -52.6152V-43.699M-21.2115 -52.6152L-11.8671 -57.0723L-2.52272 -52.6152M-21.2115 -43.699L-30.6805 -39.2419M-21.2115 -43.699L-11.8671 -39.2419L-2.52272 -43.699M-21.2115 -43.699L-11.7425 -39.2419M-30.6805 -39.2419L-40.0248 -43.699L-49.3692 -39.2419V-30.3257L-40.0248 -25.8666L-30.6805 -30.3257M-30.6805 -39.2419V-30.3257M-143.062 -30.3257L-152.531 -25.8666M-143.062 -30.3257L-133.593 -25.8666M-152.531 -25.8666L-152.531 -16.9525M-124.623 -30.3257L-133.593 -25.8666M-124.623 -30.3257L-115.652 -25.8666M-105.685 -39.2419L-115.029 -43.699L-124.373 -39.2419V-30.3257L-115.029 -25.8666L-105.685 -30.3257M-105.685 -39.2419V-30.3257M-105.685 -39.2419L-96.3403 -43.699L-86.9959 -39.2419M-105.685 -30.3257L-96.3403 -25.8666L-86.9959 -30.3257M-86.9959 -39.2419V-30.3257M-86.9959 -39.2419L-77.5269 -43.699L-68.058 -39.2419V-30.3257L-77.5269 -25.8666L-86.9959 -30.3257M-49.12 -30.3257L-58.0906 -25.8666M-49.12 -30.3257L-40.1494 -25.8666M-30.6805 -30.3257L-40.1494 -25.8666M-30.6805 -30.3257L-21.2115 -25.8666M-133.593 -25.8666V-16.9525M-133.593 -16.9525L-143.062 -12.4933M-133.593 -16.9525L-124.623 -12.4933M-143.062 -12.4933L-152.531 -16.9525M-143.062 -12.4933L-143.062 -3.57716L-152.531 0.879916L-162 -3.57716V-12.4933L-152.531 -16.9525M-115.652 -25.8666V-16.9525M-115.652 -25.8666L-105.934 -30.3257L-96.2157 -25.8666M-115.652 -16.9525L-124.623 -12.4933M-115.652 -16.9525L-105.934 -12.4933M-124.623 -12.4933L-133.718 -16.9525L-142.813 -12.4933V-3.57716M-124.623 -12.4933V-3.57716M-124.623 -12.4933L-115.278 -16.9525L-105.934 -12.4933M-96.2157 -25.8666V-16.9525M-96.2157 -25.8666L-86.7467 -30.3257L-77.2778 -25.8666M-96.2157 -16.9525L-105.934 -12.4933M-96.2157 -16.9525L-86.7467 -12.4933L-77.2778 -16.9525M-105.934 -12.4933V-3.57716M-77.2778 -25.8666V-16.9525M-77.2778 -25.8666L-67.6842 -30.3257L-58.0906 -25.8666M-77.2778 -16.9525L-67.6842 -12.4933L-58.0906 -16.9525M-58.0906 -25.8666V-16.9525M-58.0906 -16.9525L-49.12 -12.4933L-40.1494 -16.9525M-40.1494 -25.8666V-16.9525M-40.1494 -16.9525L-30.6805 -12.4933M-21.2115 -25.8666V-16.9525M-21.2115 -25.8666L-11.7425 -30.3257M-21.2115 -25.8666L-11.8671 -30.3257L-2.52272 -25.8666M-21.2115 -16.9525L-30.6805 -12.4933M-21.2115 -16.9525L-11.8671 -12.4933L-2.52272 -16.9525M-21.2115 -16.9525L-11.7425 -12.4933V-3.57716L-21.2115 0.879916M-30.6805 -12.4933L-40.0248 -16.9525L-49.3692 -12.4933M-30.6805 -12.4933V-3.57716M-124.623 -3.57716L-133.718 0.879916L-142.813 -3.57716M-124.623 -3.57716L-115.278 0.879916L-105.934 -3.57716M-124.623 -3.57716L-133.593 0.879916V9.79611L-124.623 14.2532M-124.623 -3.57716L-115.652 0.879916M-142.813 -3.57716L-152.282 0.879916V9.79611L-142.813 14.2532M-142.813 -3.57716L-133.344 0.879916V9.79611L-142.813 14.2532M-105.934 -3.57716L-115.652 0.879916M-105.934 -3.57716L-96.2157 0.879916M-86.9959 -12.4933L-96.3403 -16.9525L-105.685 -12.4933V-3.57716L-96.3403 0.879916L-86.9959 -3.57716M-86.9959 -12.4933V-3.57716M-86.9959 -12.4933L-77.5269 -16.9525L-68.058 -12.4933M-86.9959 -3.57716L-77.5269 0.879916L-68.058 -3.57716M-68.058 -12.4933V-3.57716M-68.058 -12.4933L-58.7136 -16.9525L-49.3692 -12.4933M-68.058 -3.57716L-58.7136 0.879916L-49.3692 -3.57716M-49.3692 -12.4933V-3.57716M-49.3692 -3.57716L-40.0248 0.879916L-30.6805 -3.57716M-30.6805 -3.57716L-40.1494 0.879916M-30.6805 -3.57716L-21.2115 0.879916M-142.813 14.2532L-133.718 9.79611L-124.623 14.2532M-142.813 14.2532V23.1694L-133.718 27.6265L-124.623 23.1694M-115.652 0.879916V9.79611M-115.652 9.79611L-124.623 14.2532M-115.652 9.79611L-105.934 14.2532L-96.2157 9.79611M-124.623 14.2532V23.1694M-96.2157 0.879916V9.79611M-96.2157 0.879916L-86.7467 -3.57716L-77.2778 0.879916M-96.2157 9.79611L-86.7467 14.2532L-77.2778 9.79611M-77.2778 0.879916V9.79611M-77.2778 0.879916L-67.6842 -3.57716L-58.0906 0.879916M-77.2778 9.79611L-67.6842 14.2532L-58.0906 9.79611M-58.0906 0.879916V9.79611M-58.0906 0.879916L-49.12 -3.57716L-40.1494 0.879916M-58.0906 9.79611L-49.12 14.2532L-40.1494 9.79611M-40.1494 0.879916V9.79611M-40.1494 9.79611L-30.6805 14.2532M-21.2115 0.879916V9.79611M-21.2115 0.879916L-11.8671 -3.57716L-2.52272 0.879916M-21.2115 9.79611L-30.6805 14.2532M-21.2115 9.79611L-11.8671 14.2532L-2.52272 9.79611M-21.2115 9.79611L-11.7425 14.2532M-30.6805 14.2532L-40.0248 9.79611L-49.3692 14.2532M-30.6805 14.2532V23.1694M-143.062 23.1694V14.2532L-152.531 9.79611L-162 14.2532V23.1694L-152.531 27.6265M-143.062 23.1694L-152.531 27.6265M-143.062 23.1694L-133.593 27.6265M-152.531 27.6265L-152.531 36.5426M-124.623 23.1694L-133.593 27.6265M-124.623 23.1694L-115.652 27.6265M-105.685 14.2532L-115.029 9.79611L-124.373 14.2532V23.1694L-115.029 27.6265L-105.685 23.1694M-105.685 14.2532V23.1694M-105.685 14.2532L-96.3403 9.79611L-86.9959 14.2532M-105.685 23.1694L-96.3403 27.6265L-86.9959 23.1694M-86.9959 14.2532V23.1694M-86.9959 14.2532L-77.5269 9.79611L-68.058 14.2532M-86.9959 23.1694L-77.5269 27.6265L-68.058 23.1694M-68.058 14.2532V23.1694M-68.058 14.2532L-58.7136 9.79611L-49.3692 14.2532M-68.058 23.1694L-58.7136 27.6265L-49.3692 23.1694M-49.3692 14.2532V23.1694M-49.3692 23.1694L-40.0248 27.6265L-30.6805 23.1694M-30.6805 23.1694L-40.1494 27.6265M-30.6805 23.1694L-21.2115 27.6265M-133.593 27.6265V36.5426M-133.593 36.5426L-143.062 41.0018M-133.593 36.5426L-124.623 41.0018M-143.062 41.0018L-152.531 36.5426M-143.062 41.0018L-143.062 49.9159M-152.531 36.5426L-162 41.0018V49.9159L-152.531 54.375M-115.652 27.6265V36.5426M-115.652 27.6265L-105.934 23.1694L-96.2157 27.6265M-115.652 36.5426L-124.623 41.0018M-115.652 36.5426L-105.934 41.0018L-96.2157 36.5426M-124.623 41.0018L-133.718 36.5426L-142.813 41.0018V49.9159L-133.718 54.375L-124.623 49.9159M-124.623 41.0018V49.9159M-96.2157 27.6265V36.5426M-96.2157 27.6265L-86.7467 23.1694L-77.2778 27.6265M-96.2157 36.5426L-86.7467 41.0018L-77.2778 36.5426M-77.2778 27.6265V36.5426M-77.2778 27.6265L-67.6842 23.1694L-58.0906 27.6265M-77.2778 36.5426L-67.6842 41.0018L-58.0906 36.5426M-58.0906 27.6265V36.5426M-58.0906 27.6265L-49.12 23.1694L-40.1494 27.6265M-58.0906 36.5426L-49.12 41.0018L-40.1494 36.5426M-40.1494 27.6265V36.5426M-40.1494 36.5426L-30.6805 41.0018M-21.2115 27.6265V36.5426M-21.2115 27.6265L-11.7425 23.1694M-21.2115 27.6265L-11.8671 23.1694L-2.52272 27.6265M-21.2115 36.5426L-30.6805 41.0018M-21.2115 36.5426L-11.8671 41.0018L-2.52272 36.5426M-21.2115 36.5426L-11.7425 41.0018M-30.6805 41.0018L-40.0248 36.5426L-49.3692 41.0018M-30.6805 41.0018V49.9159M-143.062 49.9159L-152.531 54.375M-143.062 49.9159L-133.593 54.375M-152.531 54.375L-152.531 63.2912M-124.623 49.9159L-133.593 54.375M-124.623 49.9159L-115.652 54.375M-105.685 41.0018L-115.029 36.5426L-124.373 41.0018V49.9159L-115.029 54.375L-105.685 49.9159M-105.685 41.0018V49.9159M-105.685 41.0018L-96.3403 36.5426L-86.9959 41.0018M-105.685 49.9159L-96.3403 54.375L-86.9959 49.9159M-86.9959 41.0018V49.9159M-86.9959 41.0018L-77.5269 36.5426L-68.058 41.0018M-86.9959 49.9159L-77.5269 54.375L-68.058 49.9159M-68.058 41.0018V49.9159M-68.058 41.0018L-58.7136 36.5426L-49.3692 41.0018M-68.058 49.9159L-58.7136 54.375L-49.3692 49.9159M-49.3692 41.0018V49.9159M-49.3692 49.9159L-40.0248 54.375L-30.6805 49.9159M-30.6805 49.9159L-40.1494 54.375M-30.6805 49.9159L-21.2115 54.375M-133.593 54.375V63.2912M-133.593 63.2912L-143.062 67.7483M-133.593 63.2912L-124.623 67.7483M-143.062 67.7483L-152.531 63.2912M-143.062 67.7483L-143.062 76.6645L-152.531 81.1216L-162 76.6645V67.7483L-152.531 63.2912M-115.652 54.375V63.2912M-115.652 54.375L-105.934 49.9159L-96.2157 54.375M-115.652 63.2912L-124.623 67.7483M-115.652 63.2912L-105.934 67.7483L-96.2157 63.2912M-124.623 67.7483L-133.718 63.2912L-142.813 67.7483V76.6645L-133.718 81.1216L-124.623 76.6645V67.7483ZM-96.2157 54.375V63.2912M-96.2157 54.375L-86.7467 49.9159L-77.2778 54.375M-96.2157 63.2912L-86.7467 67.7483L-77.2778 63.2912M-77.2778 54.375V63.2912M-77.2778 54.375L-67.6842 49.9159L-58.0906 54.375M-77.2778 63.2912L-67.6842 67.7483L-58.0906 63.2912M-58.0906 54.375V63.2912M-58.0906 54.375L-49.12 49.9159L-40.1494 54.375M-58.0906 63.2912L-49.12 67.7483M-40.1494 54.375V63.2912M-40.1494 63.2912L-49.12 67.7483M-40.1494 63.2912L-30.6805 67.7483M-49.12 67.7483L-58.4644 63.2912L-67.8088 67.7483V76.6645L-58.4644 81.1216L-49.12 76.6645L-49.12 67.7483ZM-21.2115 54.375V63.2912M-21.2115 54.375L-11.7425 49.9159M-21.2115 54.375L-11.8671 49.9159L-2.52272 54.375M-21.2115 63.2912L-30.6805 67.7483M-21.2115 63.2912L-11.8671 67.7483L-2.52272 63.2912M-21.2115 63.2912L-11.7425 67.7483M-30.6805 67.7483L-40.0248 63.2912L-49.3692 67.7483V76.6645L-40.0248 81.1216L-30.6805 76.6645M-30.6805 67.7483V76.6645M-105.685 67.7483L-115.029 63.2912L-124.373 67.7483V76.6645L-115.029 81.1216L-105.685 76.6645M-105.685 67.7483V76.6645M-105.685 67.7483L-96.3403 63.2912L-86.9959 67.7483M-105.685 76.6645L-96.3403 81.1216L-86.9959 76.6645M-86.9959 67.7483V76.6645M-86.9959 67.7483L-77.5269 63.2912L-68.058 67.7483V76.6645L-77.5269 81.1216L-86.9959 76.6645M-30.6805 76.6645L-21.2115 81.1216L-11.7425 76.6645M-2.52272 -52.6152V-43.699M-2.52272 -52.6152L6.82166 -57.0723L16.166 -52.6152M-2.52272 -43.699L6.82166 -39.2419L16.166 -43.699M16.166 -52.6152V-43.699M16.166 -52.6152L25.635 -57.0723L35.104 -52.6152M16.166 -43.699L25.635 -39.2419L35.104 -43.699M35.104 -52.6152V-43.699M35.104 -52.6152L43.95 -57.0723L52.796 -52.6152M35.104 -43.699L43.95 -39.2419L52.796 -43.699M35.104 -43.699L26.3826 -39.2419M35.104 -43.699L43.8254 -39.2419M52.796 -52.6152V-43.699M52.796 -52.6152L62.6388 -57.0723L72.4815 -52.6152M52.796 -43.699L62.6388 -39.2419L72.4815 -43.699M72.4815 -52.6152V-43.699M72.4815 -52.6152L81.7013 -57.0723L90.9211 -52.6152M72.4815 -43.699L81.7013 -39.2419L90.9211 -43.699M90.9211 -52.6152V-43.699M90.9211 -52.6152L100.141 -57.0723L109.361 -52.6152M90.9211 -43.699L100.141 -39.2419L109.361 -43.699M109.361 -52.6152V-43.699M109.361 -52.6152L118.83 -57.0723L128.299 -52.6152M109.361 -43.699L118.83 -39.2419L128.299 -43.699M-11.7425 -39.2419V-30.3257M-11.7425 -39.2419L-2.27352 -43.699L7.19544 -39.2419M-11.7425 -30.3257L-2.27352 -25.8666L7.19544 -30.3257M7.19544 -39.2419V-30.3257M7.19544 -39.2419L16.789 -43.699L26.3826 -39.2419M7.19544 -30.3257L16.789 -25.8666L26.3826 -30.3257M26.3826 -39.2419V-30.3257M26.3826 -30.3257L35.104 -25.8666M43.8254 -39.2419V-30.3257M43.8254 -39.2419L53.0452 -43.699L62.265 -39.2419M43.8254 -30.3257L35.104 -25.8666M43.8254 -30.3257L53.0452 -25.8666L62.265 -30.3257M35.104 -25.8666L25.635 -30.3257L16.166 -25.8666M35.104 -25.8666V-16.9525M35.104 -25.8666L43.95 -30.3257L52.796 -25.8666M62.265 -39.2419V-30.3257M62.265 -39.2419L71.8586 -43.699L81.4521 -39.2419M62.265 -30.3257L71.8586 -25.8666L81.4521 -30.3257M81.4521 -39.2419V-30.3257M81.4521 -39.2419L90.6719 -43.699L99.8917 -39.2419M81.4521 -30.3257L90.6719 -25.8666L99.8917 -30.3257M99.8917 -39.2419V-30.3257M99.8917 -39.2419L109.61 -43.699L119.328 -39.2419M99.8917 -30.3257L109.61 -25.8666L119.328 -30.3257M-2.52272 -25.8666V-16.9525M-2.52272 -25.8666L6.82166 -30.3257L16.166 -25.8666M-2.52272 -16.9525L6.82166 -12.4933L16.166 -16.9525M-2.52272 -16.9525L-11.9917 -12.4933V-3.57716L-2.52272 0.879916M-2.52272 -16.9525L6.94626 -12.4933V-3.57716L-2.52272 0.879916M16.166 -25.8666V-16.9525M16.166 -16.9525L25.635 -12.4933L35.104 -16.9525M35.104 -16.9525L43.95 -12.4933L52.796 -16.9525M52.796 -25.8666V-16.9525M52.796 -25.8666L62.6388 -30.3257L72.4815 -25.8666M52.796 -16.9525L62.6388 -12.4933L72.4815 -16.9525M72.4815 -25.8666V-16.9525M72.4815 -25.8666L81.7013 -30.3257L90.9211 -25.8666M72.4815 -16.9525L81.7013 -12.4933L90.9211 -16.9525M90.9211 -25.8666V-16.9525M90.9211 -25.8666L100.141 -30.3257L109.361 -25.8666M90.9211 -16.9525L100.141 -12.4933L109.361 -16.9525M109.361 -25.8666V-16.9525M109.361 -25.8666L118.83 -30.3257L128.299 -25.8666M109.361 -16.9525L118.83 -12.4933L128.299 -16.9525M-2.52272 0.879916V9.79611M-2.52272 0.879916L6.82166 -3.57716L16.166 0.879916V9.79611L6.82166 14.2532L-2.52272 9.79611M25.8842 -3.57716V-12.4933L16.2906 -16.9525L6.69707 -12.4933V-3.57716L16.2906 0.879916L25.8842 -3.57716ZM25.8842 -3.57716L16.4152 0.879916V9.79611L25.8842 14.2532L35.3532 9.79611V0.879916L25.8842 -3.57716ZM62.265 -12.4933L53.0452 -16.9525L43.8254 -12.4933V-3.57716L53.0452 0.879916L62.265 -3.57716M62.265 -12.4933V-3.57716M62.265 -12.4933L71.8586 -16.9525L81.4521 -12.4933M62.265 -3.57716L71.8586 0.879916L81.4521 -3.57716M81.4521 -12.4933V-3.57716M81.4521 -12.4933L90.6719 -16.9525L99.8917 -12.4933M81.4521 -3.57716L90.6719 0.879916L99.8917 -3.57716M99.8917 -12.4933V-3.57716M99.8917 -12.4933L109.61 -16.9525L119.328 -12.4933M99.8917 -3.57716L109.61 0.879916L119.328 -3.57716M52.796 0.879916L43.95 -3.57716L35.104 0.879916V9.79611M52.796 0.879916V9.79611M52.796 0.879916L62.6388 -3.57716L72.4815 0.879916M52.796 9.79611L43.95 14.2532L35.104 9.79611M52.796 9.79611L62.6388 14.2532L72.4815 9.79611M35.104 9.79611L26.3826 14.2532M35.104 9.79611L43.8254 14.2532M72.4815 0.879916V9.79611M72.4815 0.879916L81.7013 -3.57716L90.9211 0.879916M72.4815 9.79611L81.7013 14.2532L90.9211 9.79611M90.9211 0.879916V9.79611M90.9211 0.879916L100.141 -3.57716L109.361 0.879916M90.9211 9.79611L100.141 14.2532L109.361 9.79611M109.361 0.879916V9.79611M109.361 0.879916L118.83 -3.57716L128.299 0.879916M109.361 9.79611L118.83 14.2532L128.299 9.79611M-11.7425 14.2532V23.1694M-11.7425 14.2532L-2.27352 9.79611L7.19544 14.2532M-11.7425 23.1694L-2.27352 27.6265L7.19544 23.1694M7.19544 14.2532V23.1694M7.19544 14.2532L16.789 9.79611L26.3826 14.2532M7.19544 23.1694L16.789 27.6265L26.3826 23.1694M26.3826 14.2532V23.1694M26.3826 23.1694L35.104 27.6265M43.8254 14.2532V23.1694M43.8254 14.2532L53.0452 9.79611L62.265 14.2532M43.8254 23.1694L35.104 27.6265M43.8254 23.1694L53.0452 27.6265L62.265 23.1694M35.104 27.6265L43.95 23.1694L52.796 27.6265M35.104 27.6265V36.5426M62.265 14.2532V23.1694M62.265 14.2532L71.8586 9.79611L81.4521 14.2532M62.265 23.1694L71.8586 27.6265L81.4521 23.1694M81.4521 14.2532V23.1694M81.4521 14.2532L90.6719 9.79611L99.8917 14.2532M81.4521 23.1694L90.6719 27.6265L99.8917 23.1694M99.8917 14.2532V23.1694M99.8917 14.2532L109.61 9.79611L119.328 14.2532M99.8917 23.1694L109.61 27.6265L119.328 23.1694M-2.52272 27.6265V36.5426M-2.52272 27.6265L6.82166 23.1694L16.166 27.6265V36.5426L6.82166 41.0018L-2.52272 36.5426M52.796 27.6265V36.5426M52.796 27.6265L62.6388 23.1694L72.4815 27.6265M52.796 36.5426L43.95 41.0018L35.104 36.5426M52.796 36.5426L62.6388 41.0018L72.4815 36.5426M35.104 36.5426L26.3826 41.0018V49.9159L35.104 54.375M35.104 36.5426L43.8254 41.0018M72.4815 27.6265V36.5426M72.4815 27.6265L81.7013 23.1694L90.9211 27.6265M72.4815 36.5426L81.7013 41.0018M90.9211 27.6265V36.5426M90.9211 27.6265L100.141 23.1694L109.361 27.6265M90.9211 36.5426L81.7013 41.0018M90.9211 36.5426L100.141 41.0018L109.361 36.5426M81.7013 41.0018L72.1078 36.5426L62.5142 41.0018V49.9159L72.1078 54.375L81.7013 49.9159M81.7013 41.0018V49.9159M109.361 27.6265V36.5426M109.361 27.6265L118.83 23.1694L128.299 27.6265M109.361 36.5426L118.83 41.0018L128.299 36.5426M-11.7425 41.0018V49.9159M-11.7425 41.0018L-2.27352 36.5426L7.19544 41.0018V49.9159L-2.27352 54.375L-11.7425 49.9159M43.8254 41.0018V49.9159M43.8254 41.0018L53.0452 36.5426L62.265 41.0018V49.9159L53.0452 54.375L43.8254 49.9159M43.8254 49.9159L35.104 54.375M35.104 54.375L43.95 49.9159L52.796 54.375M35.104 54.375V63.2912L43.95 67.7483L52.796 63.2912M81.7013 49.9159L72.4815 54.375M81.7013 49.9159L90.9211 54.375M99.8917 41.0018L90.6719 36.5426L81.4521 41.0018V49.9159L90.6719 54.375L99.8917 49.9159M99.8917 41.0018V49.9159M99.8917 41.0018L109.61 36.5426L119.328 41.0018M99.8917 49.9159L109.61 54.375L119.328 49.9159M-2.52272 54.375V63.2912M-2.52272 54.375L6.82166 49.9159L16.166 54.375V63.2912L6.82166 67.7483L-2.52272 63.2912M52.796 54.375V63.2912M52.796 54.375L62.6388 49.9159L72.4815 54.375M52.796 63.2912L62.6388 67.7483L72.4815 63.2912M72.4815 54.375V63.2912M72.4815 63.2912L81.7013 67.7483M90.9211 54.375V63.2912M90.9211 54.375L100.141 49.9159L109.361 54.375M90.9211 63.2912L81.7013 67.7483M90.9211 63.2912L100.141 67.7483L109.361 63.2912M81.7013 67.7483L72.1078 63.2912L62.5142 67.7483V76.6645L72.1078 81.1216L81.7013 76.6645V67.7483ZM109.361 54.375V63.2912M109.361 54.375L118.83 49.9159L128.299 54.375M109.361 63.2912L118.83 67.7483L128.299 63.2912M-11.7425 67.7483V76.6645M-11.7425 67.7483L-2.27352 63.2912L7.19544 67.7483V76.6645L-2.27352 81.1216L-11.7425 76.6645M26.1334 67.7483L16.5398 63.2912L6.94625 67.7483V76.6645L16.5398 81.1216L26.1334 76.6645M26.1334 67.7483V76.6645M26.1334 67.7483L34.8548 63.2912L43.5762 67.7483V76.6645L34.8548 81.1216L26.1334 76.6645M99.8917 67.7483L90.6719 63.2912L81.4521 67.7483V76.6645L90.6719 81.1216L99.8917 76.6645M99.8917 67.7483V76.6645M99.8917 67.7483L109.61 63.2912L119.328 67.7483M99.8917 76.6645L109.61 81.1216L119.328 76.6645M128.299 -52.6152V-43.699M128.299 -52.6152L137.518 -57.0723L146.738 -52.6152M128.299 -43.699L137.518 -39.2419L146.738 -43.699M146.738 -52.6152V-43.699M146.738 -52.6152L156.332 -57.0723L165.925 -52.6152M146.738 -43.699L156.332 -39.2419L165.925 -43.699M165.925 -52.6152V-43.699M165.925 -52.6152L175.145 -57.0723L184.365 -52.6152M165.925 -43.699L175.145 -39.2419L184.365 -43.699M184.365 -52.6152V-43.699M184.365 -52.6152L193.834 -57.0723L203.303 -52.6152M184.365 -43.699L193.834 -39.2419L203.303 -43.699M203.303 -52.6152V-43.699M203.303 -52.6152L212.772 -57.0723L222.241 -52.6152M203.303 -43.699L212.772 -39.2419L222.241 -43.699M222.241 -52.6152V-43.699M222.241 -52.6152L231.585 -57.0723L240.93 -52.6152M222.241 -43.699L231.585 -39.2419L240.93 -43.699M240.93 -52.6152V-43.699M240.93 -52.6152L250.274 -57.0723L259.618 -52.6152M240.93 -43.699L250.274 -39.2419L259.618 -43.699M240.93 -43.699L231.959 -39.2419M240.93 -43.699L249.9 -39.2419M119.328 -39.2419V-30.3257M119.328 -39.2419L128.548 -43.699L137.768 -39.2419M119.328 -30.3257L128.548 -25.8666L137.768 -30.3257M137.768 -39.2419V-30.3257M137.768 -39.2419L147.361 -43.699L156.955 -39.2419M137.768 -30.3257L147.361 -25.8666L156.955 -30.3257M156.955 -39.2419V-30.3257M156.955 -39.2419L166.174 -43.699L175.394 -39.2419M156.955 -30.3257L166.174 -25.8666L175.394 -30.3257M175.394 -39.2419V-30.3257M175.394 -39.2419L184.49 -43.699L193.585 -39.2419M175.394 -30.3257L184.49 -25.8666L193.585 -30.3257M193.585 -39.2419V-30.3257M193.585 -39.2419L202.929 -43.699L212.273 -39.2419M193.585 -30.3257L202.929 -25.8666L212.273 -30.3257M212.273 -39.2419V-30.3257M212.273 -39.2419L222.116 -43.699L231.959 -39.2419M212.273 -30.3257L222.116 -25.8666L231.959 -30.3257M231.959 -39.2419V-30.3257M231.959 -30.3257L240.93 -25.8666M128.299 -25.8666V-16.9525M128.299 -25.8666L137.518 -30.3257L146.738 -25.8666M128.299 -16.9525L137.518 -12.4933M146.738 -25.8666V-16.9525M146.738 -25.8666L156.332 -30.3257L165.925 -25.8666M146.738 -16.9525L137.518 -12.4933M146.738 -16.9525L156.332 -12.4933L165.925 -16.9525M137.518 -12.4933L147.112 -16.9525L156.706 -12.4933V-3.57716L147.112 0.879916L137.518 -3.57716M137.518 -12.4933L137.518 -3.57716M165.925 -25.8666V-16.9525M165.925 -25.8666L175.145 -30.3257L184.365 -25.8666M165.925 -16.9525L175.145 -12.4933L184.365 -16.9525M184.365 -25.8666V-16.9525M184.365 -25.8666L193.834 -30.3257L203.303 -25.8666M184.365 -16.9525L193.834 -12.4933L203.303 -16.9525M203.303 -25.8666V-16.9525M203.303 -25.8666L212.772 -30.3257L222.241 -25.8666M203.303 -16.9525L212.772 -12.4933L222.241 -16.9525M222.241 -25.8666V-16.9525M222.241 -25.8666L231.585 -30.3257L240.93 -25.8666M222.241 -16.9525L231.585 -12.4933L240.93 -16.9525M240.93 -25.8666V-16.9525M240.93 -25.8666L249.9 -30.3257M240.93 -25.8666L250.274 -30.3257L259.618 -25.8666M240.93 -16.9525L250.274 -12.4933L259.618 -16.9525M240.93 -16.9525L231.959 -12.4933M240.93 -16.9525L249.9 -12.4933M119.328 -12.4933V-3.57716M119.328 -12.4933L128.548 -16.9525L137.768 -12.4933V-3.57716L128.548 0.879916L119.328 -3.57716M137.518 -3.57716L128.299 0.879916M137.518 -3.57716L146.738 0.879916M175.394 -12.4933L166.174 -16.9525L156.955 -12.4933V-3.57716L166.174 0.879916L175.394 -3.57716M175.394 -12.4933V-3.57716M175.394 -12.4933L184.49 -16.9525L193.585 -12.4933M175.394 -3.57716L184.49 0.879916L193.585 -3.57716M193.585 -12.4933V-3.57716M193.585 -12.4933L202.929 -16.9525L212.273 -12.4933M193.585 -3.57716L202.929 0.879916L212.273 -3.57716M212.273 -12.4933V-3.57716M212.273 -12.4933L222.116 -16.9525L231.959 -12.4933M212.273 -3.57716L222.116 0.879916L231.959 -3.57716M231.959 -12.4933V-3.57716M231.959 -3.57716L240.93 0.879916M128.299 0.879916V9.79611M128.299 9.79611L137.518 14.2532M146.738 0.879916V9.79611M146.738 0.879916L156.332 -3.57716L165.925 0.879916M146.738 9.79611L137.518 14.2532M146.738 9.79611L156.332 14.2532L165.925 9.79611M137.518 14.2532L147.112 9.79611L156.706 14.2532V23.1694L147.112 27.6265L137.518 23.1694M137.518 14.2532L137.518 23.1694M165.925 0.879916V9.79611M165.925 0.879916L175.145 -3.57716L184.365 0.879916M165.925 9.79611L175.145 14.2532L184.365 9.79611M184.365 0.879916V9.79611M184.365 0.879916L193.834 -3.57716L203.303 0.879916M184.365 9.79611L193.834 14.2532L203.303 9.79611M203.303 0.879916V9.79611M203.303 0.879916L212.772 -3.57716L222.241 0.879916M203.303 9.79611L212.772 14.2532L222.241 9.79611M222.241 0.879916V9.79611M222.241 0.879916L231.585 -3.57716L240.93 0.879916M222.241 9.79611L231.585 14.2532L240.93 9.79611M240.93 0.879916V9.79611M240.93 0.879916L249.9 -3.57716M240.93 0.879916L250.274 -3.57716L259.618 0.879916M240.93 9.79611L250.274 14.2532L259.618 9.79611M240.93 9.79611L231.959 14.2532M240.93 9.79611L249.9 14.2532M119.328 14.2532V23.1694M119.328 14.2532L128.548 9.79611L137.768 14.2532V23.1694L128.548 27.6265L119.328 23.1694M137.518 23.1694L128.299 27.6265M137.518 23.1694L146.738 27.6265M175.394 14.2532L166.174 9.79611L156.955 14.2532V23.1694L166.174 27.6265L175.394 23.1694M175.394 14.2532V23.1694M175.394 14.2532L184.49 9.79611L193.585 14.2532M175.394 23.1694L184.49 27.6265L193.585 23.1694M193.585 14.2532V23.1694M193.585 14.2532L202.929 9.79611L212.273 14.2532M193.585 23.1694L202.929 27.6265L212.273 23.1694M212.273 14.2532V23.1694M212.273 14.2532L222.116 9.79611L231.959 14.2532M212.273 23.1694L222.116 27.6265L231.959 23.1694M231.959 14.2532V23.1694M231.959 23.1694L240.93 27.6265M128.299 27.6265V36.5426M128.299 36.5426L137.518 41.0018M146.738 27.6265V36.5426M146.738 27.6265L156.332 23.1694L165.925 27.6265M146.738 36.5426L137.518 41.0018M146.738 36.5426L156.332 41.0018L165.925 36.5426M137.518 41.0018L147.112 36.5426L156.706 41.0018V49.9159L147.112 54.375L137.518 49.9159M137.518 41.0018L137.518 49.9159M165.925 27.6265V36.5426M165.925 27.6265L175.145 23.1694L184.365 27.6265M165.925 36.5426L175.145 41.0018L184.365 36.5426M184.365 27.6265V36.5426M184.365 27.6265L193.834 23.1694L203.303 27.6265M184.365 36.5426L193.834 41.0018L203.303 36.5426M203.303 27.6265V36.5426M203.303 27.6265L212.772 23.1694L222.241 27.6265M203.303 36.5426L212.772 41.0018L222.241 36.5426M222.241 27.6265V36.5426M222.241 27.6265L231.585 23.1694L240.93 27.6265M222.241 36.5426L231.585 41.0018L240.93 36.5426M240.93 27.6265V36.5426M240.93 27.6265L249.9 23.1694M240.93 27.6265L250.274 23.1694L259.618 27.6265M240.93 36.5426L250.274 41.0018L259.618 36.5426M240.93 36.5426L231.959 41.0018M240.93 36.5426L249.9 41.0018M119.328 41.0018V49.9159M119.328 41.0018L128.548 36.5426L137.768 41.0018V49.9159L128.548 54.375L119.328 49.9159M137.518 49.9159L128.299 54.375M137.518 49.9159L146.738 54.375M175.394 41.0018L166.174 36.5426L156.955 41.0018V49.9159L166.174 54.375L175.394 49.9159M175.394 41.0018V49.9159M175.394 41.0018L184.49 36.5426L193.585 41.0018M175.394 49.9159L184.49 54.375L193.585 49.9159M193.585 41.0018V49.9159M193.585 41.0018L202.929 36.5426L212.273 41.0018M193.585 49.9159L202.929 54.375L212.273 49.9159M212.273 41.0018V49.9159M212.273 41.0018L222.116 36.5426L231.959 41.0018M212.273 49.9159L222.116 54.375L231.959 49.9159M231.959 41.0018V49.9159M231.959 49.9159L240.93 54.375M128.299 54.375V63.2912M128.299 63.2912L137.518 67.7483M146.738 54.375V63.2912M146.738 54.375L156.332 49.9159L165.925 54.375M146.738 63.2912L137.518 67.7483M146.738 63.2912L156.332 67.7483L165.925 63.2912M137.518 67.7483L147.112 63.2912L156.706 67.7483M137.518 67.7483L137.518 76.6645L147.112 81.1216L156.706 76.6645M165.925 54.375V63.2912M165.925 54.375L175.145 49.9159L184.365 54.375M165.925 63.2912L175.145 67.7483M165.925 63.2912L156.706 67.7483M184.365 54.375V63.2912M184.365 54.375L193.834 49.9159L203.303 54.375M184.365 63.2912L175.145 67.7483M184.365 63.2912L193.834 67.7483L203.303 63.2912M175.145 67.7483L175.145 76.6645L165.925 81.1216L156.706 76.6645M203.303 54.375V63.2912M203.303 54.375L212.772 49.9159L222.241 54.375M203.303 63.2912L212.772 67.7483L222.241 63.2912M222.241 54.375V63.2912M222.241 54.375L231.585 49.9159L240.93 54.375M222.241 63.2912L231.585 67.7483L240.93 63.2912M240.93 54.375V63.2912M240.93 54.375L249.9 49.9159M240.93 54.375L250.274 49.9159L259.618 54.375M240.93 63.2912L250.274 67.7483L259.618 63.2912M240.93 63.2912L231.959 67.7483M240.93 63.2912L249.9 67.7483M119.328 67.7483V76.6645M119.328 67.7483L128.548 63.2912L137.768 67.7483V76.6645L128.548 81.1216L119.328 76.6645M156.706 67.7483V76.6645M193.585 67.7483L184.49 63.2912L175.394 67.7483V76.6645L184.49 81.1216L193.585 76.6645M193.585 67.7483V76.6645M193.585 67.7483L202.929 63.2912L212.273 67.7483M193.585 76.6645L202.929 81.1216L212.273 76.6645M212.273 67.7483V76.6645M212.273 67.7483L222.116 63.2912L231.959 67.7483M212.273 76.6645L222.116 81.1216L231.959 76.6645M231.959 67.7483V76.6645M231.959 76.6645L240.93 81.1216L249.9 76.6645M259.618 -52.6152V-43.699M259.618 -52.6152L268.963 -57.0723L278.307 -52.6152M259.618 -43.699L268.963 -39.2419L278.307 -43.699M259.618 -43.699L249.9 -39.2419M259.618 -43.699L269.336 -39.2419M278.307 -52.6152V-43.699M278.307 -52.6152L287.527 -57.0723L296.747 -52.6152M278.307 -43.699L287.527 -39.2419M296.747 -52.6152V-43.699M296.747 -52.6152L306.216 -57.0723L315.685 -52.6152M296.747 -43.699L287.527 -39.2419M296.747 -43.699L306.216 -39.2419L315.685 -43.699M287.527 -39.2419L278.432 -43.699L269.336 -39.2419M287.527 -39.2419V-30.3257M287.527 -39.2419L297.12 -43.699L306.714 -39.2419M315.685 -52.6152V-43.699M315.685 -52.6152L325.278 -57.0723L334.872 -52.6152M315.685 -43.699L325.278 -39.2419L334.872 -43.699M334.872 -52.6152V-43.699M334.872 -52.6152L344.091 -57.0723L353.311 -52.6152M334.872 -43.699L344.091 -39.2419L353.311 -43.699M353.311 -52.6152V-43.699M353.311 -52.6152L362.656 -57.0723L372 -52.6152V-43.699L362.656 -39.2419L353.311 -43.699M249.9 -39.2419V-30.3257M249.9 -30.3257L259.618 -25.8666M269.336 -39.2419V-30.3257M269.336 -30.3257L259.618 -25.8666M269.336 -30.3257L278.432 -25.8666L287.527 -30.3257M259.618 -25.8666L259.618 -16.9525M259.618 -25.8666L268.963 -30.3257L278.307 -25.8666M287.527 -30.3257L297.12 -25.8666L306.714 -30.3257M287.527 -30.3257L278.307 -25.8666M287.527 -30.3257L296.747 -25.8666M306.714 -39.2419V-30.3257M306.714 -39.2419L316.058 -43.699L325.403 -39.2419M306.714 -30.3257L316.058 -25.8666L325.403 -30.3257M325.403 -39.2419V-30.3257M325.403 -39.2419L334.623 -43.699L343.842 -39.2419M325.403 -30.3257L334.623 -25.8666L343.842 -30.3257M343.842 -39.2419V-30.3257M343.842 -39.2419L353.062 -43.699L362.282 -39.2419V-30.3257L353.062 -25.8666L343.842 -30.3257M259.618 -16.9525L268.963 -12.4933L278.307 -16.9525M259.618 -16.9525L249.9 -12.4933M259.618 -16.9525L269.336 -12.4933M278.307 -25.8666V-16.9525M278.307 -16.9525L287.527 -12.4933M296.747 -25.8666V-16.9525M296.747 -25.8666L306.216 -30.3257L315.685 -25.8666M296.747 -16.9525L287.527 -12.4933M296.747 -16.9525L306.216 -12.4933L315.685 -16.9525M287.527 -12.4933L278.432 -16.9525L269.336 -12.4933M287.527 -12.4933V-3.57716M287.527 -12.4933L297.12 -16.9525L306.714 -12.4933M315.685 -25.8666V-16.9525M315.685 -25.8666L325.278 -30.3257L334.872 -25.8666M315.685 -16.9525L325.278 -12.4933L334.872 -16.9525M334.872 -25.8666V-16.9525M334.872 -25.8666L344.091 -30.3257L353.311 -25.8666M334.872 -16.9525L344.091 -12.4933L353.311 -16.9525M353.311 -25.8666V-16.9525M353.311 -25.8666L362.656 -30.3257L372 -25.8666V-16.9525L362.656 -12.4933L353.311 -16.9525M249.9 -12.4933V-3.57716M249.9 -3.57716L259.618 0.879916M269.336 -12.4933V-3.57716M269.336 -3.57716L259.618 0.879916M269.336 -3.57716L278.432 0.879916L287.527 -3.57716M259.618 0.879916L259.618 9.79611M259.618 0.879916L268.963 -3.57716L278.307 0.879916M287.527 -3.57716L297.12 0.879916L306.714 -3.57716M287.527 -3.57716L278.307 0.879916M287.527 -3.57716L296.747 0.879916M306.714 -12.4933V-3.57716M306.714 -12.4933L316.058 -16.9525L325.403 -12.4933M306.714 -3.57716L316.058 0.879916L325.403 -3.57716M325.403 -12.4933V-3.57716M325.403 -12.4933L334.623 -16.9525L343.842 -12.4933M325.403 -3.57716L334.623 0.879916L343.842 -3.57716M343.842 -12.4933V-3.57716M343.842 -12.4933L353.062 -16.9525L362.282 -12.4933V-3.57716L353.062 0.879916L343.842 -3.57716M259.618 9.79611L268.963 14.2532L278.307 9.79611M259.618 9.79611L249.9 14.2532M259.618 9.79611L269.336 14.2532M278.307 0.879916V9.79611M278.307 9.79611L287.527 14.2532M296.747 0.879916V9.79611M296.747 0.879916L306.216 -3.57716L315.685 0.879916M296.747 9.79611L287.527 14.2532M296.747 9.79611L306.216 14.2532L315.685 9.79611M287.527 14.2532L278.432 9.79611L269.336 14.2532M287.527 14.2532V23.1694M287.527 14.2532L297.12 9.79611L306.714 14.2532M315.685 0.879916V9.79611M315.685 0.879916L325.278 -3.57716L334.872 0.879916M315.685 9.79611L325.278 14.2532L334.872 9.79611M334.872 0.879916V9.79611M334.872 0.879916L344.091 -3.57716L353.311 0.879916M334.872 9.79611L344.091 14.2532L353.311 9.79611M353.311 0.879916V9.79611M353.311 0.879916L362.656 -3.57716L372 0.879916V9.79611L362.656 14.2532L353.311 9.79611M249.9 14.2532V23.1694M249.9 23.1694L259.618 27.6265M269.336 14.2532V23.1694M269.336 23.1694L259.618 27.6265M269.336 23.1694L278.432 27.6265L287.527 23.1694M259.618 27.6265L259.618 36.5426M259.618 27.6265L268.963 23.1694L278.307 27.6265M287.527 23.1694L297.12 27.6265L306.714 23.1694M287.527 23.1694L278.307 27.6265M287.527 23.1694L296.747 27.6265M306.714 14.2532V23.1694M306.714 14.2532L316.058 9.79611L325.403 14.2532M306.714 23.1694L316.058 27.6265L325.403 23.1694M325.403 14.2532V23.1694M325.403 14.2532L334.623 9.79611L343.842 14.2532M325.403 23.1694L334.623 27.6265L343.842 23.1694M343.842 14.2532V23.1694M343.842 14.2532L353.062 9.79611L362.282 14.2532V23.1694L353.062 27.6265L343.842 23.1694M259.618 36.5426L268.963 41.0018L278.307 36.5426M259.618 36.5426L249.9 41.0018M259.618 36.5426L269.336 41.0018M278.307 27.6265V36.5426M278.307 36.5426L287.527 41.0018M296.747 27.6265V36.5426M296.747 27.6265L306.216 23.1694L315.685 27.6265M296.747 36.5426L287.527 41.0018M296.747 36.5426L306.216 41.0018L315.685 36.5426M287.527 41.0018L278.432 36.5426L269.336 41.0018M287.527 41.0018V49.9159M287.527 41.0018L297.12 36.5426L306.714 41.0018M315.685 27.6265V36.5426M315.685 27.6265L325.278 23.1694L334.872 27.6265M315.685 36.5426L325.278 41.0018L334.872 36.5426M334.872 27.6265V36.5426M334.872 27.6265L344.091 23.1694L353.311 27.6265M334.872 36.5426L344.091 41.0018L353.311 36.5426M353.311 27.6265V36.5426M353.311 27.6265L362.656 23.1694L372 27.6265V36.5426L362.656 41.0018L353.311 36.5426M249.9 41.0018V49.9159M249.9 49.9159L259.618 54.375M269.336 41.0018V49.9159M269.336 49.9159L259.618 54.375M269.336 49.9159L278.432 54.375L287.527 49.9159M259.618 54.375L259.618 63.2912M259.618 54.375L268.963 49.9159L278.307 54.375M287.527 49.9159L297.12 54.375L306.714 49.9159M287.527 49.9159L278.307 54.375M287.527 49.9159L296.747 54.375M306.714 41.0018V49.9159M306.714 41.0018L316.058 36.5426L325.403 41.0018M306.714 49.9159L316.058 54.375L325.403 49.9159M325.403 41.0018V49.9159M325.403 41.0018L334.623 36.5426L343.842 41.0018M325.403 49.9159L334.623 54.375L343.842 49.9159M343.842 41.0018V49.9159M343.842 41.0018L353.062 36.5426L362.282 41.0018V49.9159L353.062 54.375L343.842 49.9159M259.618 63.2912L268.963 67.7483L278.307 63.2912M259.618 63.2912L249.9 67.7483M259.618 63.2912L269.336 67.7483M278.307 54.375V63.2912M278.307 63.2912L287.527 67.7483M296.747 54.375V63.2912M296.747 54.375L306.216 49.9159L315.685 54.375M296.747 63.2912L287.527 67.7483M296.747 63.2912L306.216 67.7483L315.685 63.2912M287.527 67.7483L278.432 63.2912L269.336 67.7483M287.527 67.7483V76.6645M287.527 67.7483L297.12 63.2912L306.714 67.7483M315.685 54.375V63.2912M315.685 54.375L325.278 49.9159L334.872 54.375M315.685 63.2912L325.278 67.7483L334.872 63.2912M334.872 54.375V63.2912M334.872 54.375L344.091 49.9159L353.311 54.375M334.872 63.2912L344.091 67.7483L353.311 63.2912M353.311 54.375V63.2912M353.311 54.375L362.656 49.9159L372 54.375V63.2912L362.656 67.7483L353.311 63.2912M249.9 67.7483V76.6645M249.9 76.6645L259.618 81.1216L269.336 76.6645M269.336 67.7483V76.6645M269.336 76.6645L278.432 81.1216L287.527 76.6645M287.527 76.6645L297.12 81.1216L306.714 76.6645M306.714 67.7483V76.6645M306.714 67.7483L316.058 63.2912L325.403 67.7483M306.714 76.6645L316.058 81.1216L325.403 76.6645M325.403 67.7483V76.6645M325.403 67.7483L334.623 63.2912L343.842 67.7483M325.403 76.6645L334.623 81.1216L343.842 76.6645M343.842 67.7483V76.6645M343.842 67.7483L353.062 63.2912L362.282 67.7483V76.6645L353.062 81.1216L343.842 76.6645M-133.593 81.1175L-143.062 76.6604L-152.531 81.1175V90.0336M-133.593 81.1175V90.0336M-133.593 81.1175L-124.623 76.6604L-115.652 81.1175M-133.593 90.0336L-143.062 94.4907M-133.593 90.0336L-124.623 94.4907M-143.062 94.4907L-152.531 90.0336M-143.062 94.4907L-143.062 103.407M-152.531 90.0336L-162 94.4907V103.407L-152.531 107.866M-115.652 81.1175V90.0336M-115.652 81.1175L-105.934 76.6604L-96.2157 81.1175M-115.652 90.0336L-124.623 94.4907M-115.652 90.0336L-105.934 94.4907L-96.2157 90.0336M-124.623 94.4907L-133.718 90.0336L-142.813 94.4907V103.407L-133.718 107.866L-124.623 103.407M-124.623 94.4907V103.407M-96.2157 81.1175V90.0336M-96.2157 81.1175L-86.7467 76.6604L-77.2778 81.1175M-96.2157 90.0336L-86.7467 94.4907L-77.2778 90.0336M-77.2778 81.1175V90.0336M-77.2778 81.1175L-67.6842 76.6604L-58.0906 81.1175M-77.2778 90.0336L-67.6842 94.4907L-58.0906 90.0336M-58.0906 81.1175V90.0336M-58.0906 81.1175L-49.12 76.6604L-40.1494 81.1175M-58.0906 90.0336L-49.12 94.4907L-40.1494 90.0336M-40.1494 81.1175V90.0336M-40.1494 81.1175L-30.6805 76.6604L-21.2115 81.1175M-40.1494 90.0336L-30.6805 94.4907M-21.2115 81.1175V90.0336M-21.2115 81.1175L-11.8671 76.6604L-2.52272 81.1175M-21.2115 90.0336L-30.6805 94.4907M-21.2115 90.0336L-11.8671 94.4907L-2.52272 90.0336M-21.2115 90.0336L-11.7425 94.4907M-30.6805 94.4907L-40.0248 90.0336L-49.3692 94.4907M-30.6805 94.4907V103.407M-143.062 103.407L-152.531 107.866M-143.062 103.407L-133.593 107.866M-152.531 107.866L-152.531 116.782M-124.623 103.407L-133.593 107.866M-124.623 103.407L-115.652 107.866M-105.685 94.4907L-115.029 90.0336L-124.373 94.4907V103.407L-115.029 107.866L-105.685 103.407M-105.685 94.4907V103.407M-105.685 94.4907L-96.3403 90.0336L-86.9959 94.4907M-105.685 103.407L-96.3403 107.866L-86.9959 103.407M-86.9959 94.4907V103.407M-86.9959 94.4907L-77.5269 90.0336L-68.058 94.4907M-86.9959 103.407L-77.5269 107.866L-68.058 103.407M-68.058 94.4907V103.407M-68.058 94.4907L-58.7136 90.0336L-49.3692 94.4907M-68.058 103.407L-58.7136 107.866L-49.3692 103.407M-49.3692 94.4907V103.407M-49.3692 103.407L-40.0248 107.866L-30.6805 103.407M-30.6805 103.407L-40.1494 107.866M-30.6805 103.407L-21.2115 107.866M-133.593 107.866V116.782M-133.593 116.782L-143.062 121.239M-133.593 116.782L-124.623 121.239M-143.062 121.239L-152.531 116.782M-143.062 121.239L-143.062 130.156M-152.531 116.782L-162 121.239V130.156L-152.531 134.613M-115.652 107.866V116.782M-115.652 107.866L-105.934 103.407L-96.2157 107.866M-115.652 116.782L-124.623 121.239M-115.652 116.782L-105.934 121.239M-124.623 121.239L-133.718 116.782L-142.813 121.239V130.156L-133.718 134.613L-124.623 130.156M-124.623 121.239V130.156M-124.623 121.239L-115.278 116.782L-105.934 121.239M-96.2157 107.866V116.782M-96.2157 107.866L-86.7467 103.407L-77.2778 107.866M-96.2157 116.782L-105.934 121.239M-96.2157 116.782L-86.7467 121.239L-77.2778 116.782M-105.934 121.239V130.156M-77.2778 107.866V116.782M-77.2778 107.866L-67.6842 103.407L-58.0906 107.866M-77.2778 116.782L-67.6842 121.239L-58.0906 116.782M-58.0906 107.866V116.782M-58.0906 107.866L-49.12 103.407L-40.1494 107.866M-58.0906 116.782L-49.12 121.239M-40.1494 107.866V116.782M-40.1494 116.782L-49.12 121.239M-40.1494 116.782L-30.6805 121.239M-49.12 121.239L-58.4644 116.782L-67.8088 121.239V130.156L-58.4644 134.613L-49.12 130.156L-49.12 121.239ZM-21.2115 107.866V116.782M-21.2115 107.866L-11.7425 103.407M-21.2115 107.866L-11.8671 103.407L-2.52272 107.866M-21.2115 116.782L-30.6805 121.239M-21.2115 116.782L-11.8671 121.239L-2.52272 116.782M-21.2115 116.782L-11.7425 121.239M-30.6805 121.239L-40.0248 116.782L-49.3692 121.239V130.156M-30.6805 121.239V130.156M-143.062 130.156L-152.531 134.613M-143.062 130.156L-133.593 134.613M-152.531 134.613L-152.531 143.529M-124.623 130.156L-115.278 134.613L-105.934 130.156M-124.623 130.156L-133.593 134.613M-124.623 130.156L-115.652 134.613M-105.934 130.156L-115.652 134.613M-105.934 130.156L-96.2157 134.613M-86.9959 121.239L-96.3403 116.782L-105.685 121.239V130.156L-96.3403 134.613L-86.9959 130.156M-86.9959 121.239V130.156M-86.9959 121.239L-77.5269 116.782L-68.058 121.239V130.156L-77.5269 134.613M-86.9959 130.156L-77.5269 134.613M-77.5269 134.613L-67.9334 130.155L-58.3398 134.613M-77.5269 134.613V143.529M-30.6805 130.156L-40.0248 134.613L-49.3692 130.156M-30.6805 130.156L-40.1494 134.613V143.529L-30.6805 147.986M-30.6805 130.156L-21.2115 134.613M-49.3692 130.156L-58.3398 134.613M-49.3692 130.156L-40.3986 134.613V143.529L-49.3692 147.986M-133.593 134.613V143.529M-133.593 143.529L-143.062 147.986M-133.593 143.529L-124.623 147.986M-143.062 147.986L-152.531 143.529M-143.062 147.986L-143.062 156.902M-152.531 143.529L-162 147.986V156.902L-152.531 161.361M-115.652 134.613V143.529M-115.652 143.529L-124.623 147.986M-115.652 143.529L-105.934 147.986M-124.623 147.986L-133.718 143.529L-142.813 147.986V156.902L-133.718 161.361L-124.623 156.902M-124.623 147.986V156.902M-124.623 147.986L-115.278 143.529L-105.934 147.986M-96.2157 134.613V143.529M-96.2157 134.613L-86.7467 130.155L-77.2778 134.613V143.529L-86.7467 147.986L-96.2157 143.529M-96.2157 143.529L-105.934 147.986M-105.934 147.986V156.902M-58.3398 134.613V143.529M-58.3398 143.529L-67.9334 147.986L-77.5269 143.529M-58.3398 143.529L-49.3692 147.986M-77.5269 143.529L-86.9959 147.986M-77.5269 143.529L-68.058 147.986V156.902L-77.5269 161.361L-86.9959 156.902M-49.3692 147.986L-40.0248 143.529L-30.6805 147.986M-49.3692 147.986L-49.3692 156.902L-40.0248 161.361L-30.6805 156.902M-21.2115 134.613V143.529M-21.2115 134.613L-11.7425 130.156M-21.2115 134.613L-11.8671 130.155L-2.52272 134.613M-21.2115 143.529L-30.6805 147.986M-21.2115 143.529L-11.8671 147.986L-2.52272 143.529M-21.2115 143.529L-11.7425 147.986M-30.6805 147.986V156.902M-143.062 156.902L-152.531 161.361M-143.062 156.902L-133.593 161.361M-152.531 161.361L-152.531 170.275M-124.623 156.902L-115.278 161.361L-105.934 156.902M-124.623 156.902L-133.593 161.361M-124.623 156.902L-115.652 161.361M-105.934 156.902L-115.652 161.361M-105.934 156.902L-96.2157 161.361M-86.9959 147.986L-96.3403 143.529L-105.685 147.986V156.902L-96.3403 161.361L-86.9959 156.902M-86.9959 147.986V156.902M-49.12 156.902V147.986L-58.4644 143.529L-67.8088 147.986V156.902L-58.4644 161.361L-49.12 156.902ZM-49.12 156.902L-58.0906 161.361M-49.12 156.902L-40.1494 161.361M-30.6805 156.902L-40.1494 161.361M-30.6805 156.902L-21.2115 161.361M-133.593 161.361V170.275M-133.593 170.275L-143.062 174.734M-133.593 170.275L-124.623 174.734M-143.062 174.734L-152.531 170.275M-143.062 174.734L-143.062 183.651M-152.531 170.275L-162 174.734V183.651L-152.531 188.108M-115.652 161.361V170.275M-115.652 170.275L-124.623 174.734M-115.652 170.275L-105.934 174.734L-96.2157 170.275M-124.623 174.734L-133.718 170.275L-142.813 174.734V183.651L-133.718 188.108L-124.623 183.651M-124.623 174.734V183.651M-96.2157 161.361V170.275M-96.2157 161.361L-86.7467 156.902L-77.2778 161.361M-96.2157 170.275L-86.7467 174.734L-77.2778 170.275M-77.2778 161.361V170.275M-77.2778 161.361L-67.6842 156.902L-58.0906 161.361M-77.2778 170.275L-67.6842 174.734L-58.0906 170.275M-58.0906 161.361V170.275M-58.0906 170.275L-49.12 174.734L-40.1494 170.275M-40.1494 161.361V170.275M-40.1494 170.275L-30.6805 174.734M-21.2115 161.361V170.275M-21.2115 161.361L-11.7425 156.902M-21.2115 161.361L-11.8671 156.902L-2.52272 161.361M-21.2115 170.275L-30.6805 174.734M-21.2115 170.275L-11.8671 174.734L-2.52272 170.275M-21.2115 170.275L-11.7425 174.734M-30.6805 174.734L-40.0248 170.275L-49.3692 174.734M-30.6805 174.734V183.651M-143.062 183.651L-152.531 188.108M-143.062 183.651L-133.593 188.108M-152.531 188.108L-152.531 197.024M-124.623 183.651L-133.593 188.108M-124.623 183.651L-115.652 188.108V197.024L-124.623 201.481M-105.685 174.734L-115.029 170.275L-124.373 174.734V183.651L-115.029 188.108L-105.685 183.651M-105.685 174.734V183.651M-105.685 174.734L-96.3403 170.275L-86.9959 174.734M-105.685 183.651L-96.3403 188.108L-86.9959 183.651M-105.685 183.651L-115.403 188.108V197.024L-105.685 201.481M-105.685 183.651L-95.9665 188.108V197.024L-105.685 201.481M-86.9959 174.734V183.651M-86.9959 174.734L-77.5269 170.275L-68.058 174.734M-86.9959 183.651L-77.5269 188.108L-68.058 183.651M-68.058 174.734V183.651M-68.058 174.734L-58.7136 170.275L-49.3692 174.734M-68.058 183.651L-58.7136 188.108L-49.3692 183.651M-49.3692 174.734V183.651M-49.3692 183.651L-40.0248 188.108L-30.6805 183.651M-30.6805 183.651L-40.1494 188.108M-30.6805 183.651L-21.2115 188.108M-133.593 188.108V197.024M-133.593 197.024L-143.062 201.481M-133.593 197.024L-124.623 201.481M-143.062 201.481L-152.531 197.024M-143.062 201.481L-143.062 210.397L-152.531 214.856L-162 210.397V201.481L-152.531 197.024M-124.623 201.481L-133.718 197.024L-142.813 201.481V210.397L-133.718 214.856L-124.623 210.397M-124.623 201.481V210.397M-124.623 201.481L-115.278 197.024L-105.934 201.481V210.397L-115.278 214.856L-124.623 210.397M-105.685 201.481L-96.3403 197.024L-86.9959 201.481V210.397L-96.3403 214.856L-105.685 210.397V201.481ZM-77.2778 188.108L-86.7467 183.651L-96.2157 188.108V197.024L-86.7467 201.481M-77.2778 188.108V197.024M-77.2778 188.108L-67.6842 183.651L-58.0906 188.108M-77.2778 197.024L-86.7467 201.481M-77.2778 197.024L-67.6842 201.481L-58.0906 197.024M-77.2778 197.024L-67.8088 201.481V210.397L-77.2778 214.856L-86.7467 210.397V201.481M-58.0906 188.108V197.024M-58.0906 188.108L-49.12 183.651L-40.1494 188.108M-58.0906 197.024L-49.12 201.481L-40.1494 197.024M-40.1494 188.108V197.024M-40.1494 197.024L-30.6805 201.481M-21.2115 188.108V197.024M-21.2115 188.108L-11.7425 183.651M-21.2115 197.024L-30.6805 201.481M-21.2115 197.024L-11.7425 201.481M-30.6805 201.481L-40.0248 197.024L-49.3692 201.481M-30.6805 201.481V210.397M-49.3692 201.481L-58.7136 197.024L-68.058 201.481V210.397L-58.7136 214.856L-49.3692 210.397M-49.3692 201.481V210.397M-49.3692 210.397L-40.0248 214.856L-30.6805 210.397M-30.6805 210.397L-21.2115 214.856L-11.7425 210.397M-2.52272 81.1175V90.0336M-2.52272 81.1175L6.82166 76.6604L16.166 81.1175M-2.52272 90.0336L6.82166 94.4907L16.166 90.0336M16.166 81.1175V90.0336M16.166 81.1175L25.635 76.6604L35.104 81.1175M16.166 90.0336L25.635 94.4907L35.104 90.0336M35.104 81.1175V90.0336M35.104 81.1175L43.95 76.6604L52.796 81.1175M35.104 90.0336L43.95 94.4907L52.796 90.0336M52.796 81.1175V90.0336M52.796 81.1175L62.6388 76.6604L72.4815 81.1175M52.796 90.0336L62.6388 94.4907L72.4815 90.0336M72.4815 81.1175V90.0336M72.4815 81.1175L81.7013 76.6604L90.9211 81.1175M72.4815 90.0336L81.7013 94.4907M90.9211 81.1175V90.0336M90.9211 81.1175L100.141 76.6604L109.361 81.1175M90.9211 90.0336L81.7013 94.4907M90.9211 90.0336L100.141 94.4907L109.361 90.0336M81.7013 94.4907L72.1078 90.0336L62.5142 94.4907V103.407L72.1078 107.866L81.7013 103.407M81.7013 94.4907V103.407M109.361 81.1175V90.0336M109.361 81.1175L118.83 76.6604L128.299 81.1175M109.361 90.0336L118.83 94.4907L128.299 90.0336M-11.7425 94.4907V103.407M-11.7425 94.4907L-2.27352 90.0336L7.19544 94.4907V103.407L-2.27352 107.866L-11.7425 103.407M26.1334 94.4907L16.5398 90.0336L6.94625 94.4907V103.407L16.5398 107.866L26.1334 103.407M26.1334 94.4907V103.407M26.1334 94.4907L34.8548 90.0336L43.5762 94.4907V103.407L34.8548 107.866L26.1334 103.407M81.7013 103.407L72.4815 107.866M81.7013 103.407L90.9211 107.866M99.8917 94.4907L90.6719 90.0336L81.4521 94.4907V103.407L90.6719 107.866L99.8917 103.407M99.8917 94.4907V103.407M99.8917 94.4907L109.61 90.0336L119.328 94.4907M99.8917 103.407L109.61 107.866L119.328 103.407M-2.52272 107.866V116.782M-2.52272 107.866L6.82166 103.407L16.166 107.866M-2.52272 116.782L6.82166 121.239L16.166 116.782M16.166 107.866V116.782M16.166 107.866L25.635 103.407L35.104 107.866M16.166 116.782L25.635 121.239L35.104 116.782M35.104 107.866V116.782M35.104 107.866L43.95 103.407L52.796 107.866M35.104 116.782L43.95 121.239L52.796 116.782M52.796 107.866V116.782M52.796 107.866L62.6388 103.407L72.4815 107.866M52.796 116.782L62.6388 121.239L72.4815 116.782M72.4815 107.866V116.782M72.4815 116.782L81.7013 121.239M90.9211 107.866V116.782M90.9211 107.866L100.141 103.407L109.361 107.866M90.9211 116.782L81.7013 121.239M90.9211 116.782L100.141 121.239L109.361 116.782M81.7013 121.239L72.1078 116.782L62.5142 121.239V130.156L72.1078 134.613L81.7013 130.156M81.7013 121.239V130.156M109.361 107.866V116.782M109.361 107.866L118.83 103.407L128.299 107.866M109.361 116.782L118.83 121.239L128.299 116.782M-11.7425 121.239V130.156M-11.7425 121.239L-2.27352 116.782L7.19544 121.239V130.156L-2.27352 134.613L-11.7425 130.156M26.1334 121.239L16.5398 116.782L6.94625 121.239V130.156L16.5398 134.613L26.1334 130.156M26.1334 121.239V130.156M26.1334 121.239L34.8548 116.782L43.5762 121.239V130.156L34.8548 134.613L26.1334 130.156M81.7013 130.156L72.4815 134.613M81.7013 130.156L90.9211 134.613M99.8917 121.239L90.6719 116.782L81.4521 121.239V130.156L90.6719 134.613L99.8917 130.156M99.8917 121.239V130.156M99.8917 121.239L109.61 116.782L119.328 121.239M99.8917 130.156L109.61 134.613L119.328 130.156M-2.52272 134.613V143.529M-2.52272 134.613L6.82166 130.155L16.166 134.613V143.529L6.82166 147.986L-2.52272 143.529M52.796 134.613L43.95 130.155L35.104 134.613V143.529M52.796 134.613V143.529M52.796 134.613L62.6388 130.155L72.4815 134.613M52.796 143.529L43.95 147.986L35.104 143.529M52.796 143.529L62.6388 147.986L72.4815 143.529M35.104 143.529L26.3826 147.986V156.902L35.104 161.361M35.104 143.529L43.8254 147.986M72.4815 134.613V143.529M72.4815 143.529L81.7013 147.986L90.9211 143.529M90.9211 134.613V143.529M90.9211 134.613L100.141 130.155L109.361 134.613M90.9211 143.529L100.141 147.986L109.361 143.529M109.361 134.613V143.529M109.361 134.613L118.83 130.155L128.299 134.613M109.361 143.529L118.83 147.986L128.299 143.529M-11.7425 147.986V156.902M-11.7425 147.986L-2.27352 143.529L7.19544 147.986V156.902L-2.27352 161.361L-11.7425 156.902M43.8254 147.986V156.902M43.8254 147.986L53.0452 143.529L62.265 147.986M43.8254 156.902L35.104 161.361M43.8254 156.902L53.0452 161.361L62.265 156.902M35.104 161.361L43.95 156.902L52.796 161.361M35.104 161.361V170.275M62.265 147.986V156.902M62.265 147.986L71.8586 143.529L81.4521 147.986M62.265 156.902L71.8586 161.361L81.4521 156.902M81.4521 147.986V156.902M81.4521 147.986L90.6719 143.529L99.8917 147.986M81.4521 156.902L90.6719 161.361L99.8917 156.902M99.8917 147.986V156.902M99.8917 147.986L109.61 143.529L119.328 147.986M99.8917 156.902L109.61 161.361L119.328 156.902M-2.52272 161.361V170.275M-2.52272 161.361L6.82166 156.902L16.166 161.361V170.275L6.82166 174.734L-2.52272 170.275M52.796 161.361V170.275M52.796 161.361L62.6388 156.902L72.4815 161.361M52.796 170.275L43.95 174.734L35.104 170.275M52.796 170.275L62.6388 174.734L72.4815 170.275M35.104 170.275L26.3826 174.734M35.104 170.275L43.8254 174.734M72.4815 161.361V170.275M72.4815 161.361L81.7013 156.902L90.9211 161.361M72.4815 170.275L81.7013 174.734L90.9211 170.275M90.9211 161.361V170.275M90.9211 161.361L100.141 156.902L109.361 161.361M90.9211 170.275L100.141 174.734L109.361 170.275M109.361 161.361V170.275M109.361 161.361L118.83 156.902L128.299 161.361V170.275L118.83 174.734L109.361 170.275M-11.7425 174.734V183.651M-11.7425 174.734L-2.27352 170.275L7.19544 174.734M-11.7425 183.651L-2.27352 188.108M7.19544 174.734V183.651M7.19544 174.734L16.789 170.275L26.3826 174.734M7.19544 183.651L-2.27352 188.108M7.19544 183.651L16.789 188.108L26.3826 183.651M-2.27352 188.108L-11.6179 183.651L-20.9623 188.108V197.024L-11.6179 201.481L-2.27352 197.024M-2.27352 188.108V197.024M-2.27352 188.108L7.07086 183.651L16.4152 188.108M26.3826 174.734V183.651M26.3826 183.651L35.104 188.108M43.8254 174.734V183.651M43.8254 174.734L53.0452 170.275L62.265 174.734M43.8254 183.651L35.104 188.108M43.8254 183.651L53.0452 188.108L62.265 183.651M35.104 188.108L43.95 183.651L52.796 188.108M35.104 188.108V197.024M62.265 174.734V183.651M62.265 174.734L71.8586 170.275L81.4521 174.734M62.265 183.651L71.8586 188.108L81.4521 183.651M81.4521 174.734V183.651M81.4521 174.734L90.6719 170.275L99.8917 174.734M81.4521 183.651L90.6719 188.108L99.8917 183.651M99.8917 174.734V183.651M99.8917 174.734L109.61 170.275L119.328 174.734M99.8917 183.651L109.61 188.108L119.328 183.651M-2.27352 197.024L7.07086 201.481L16.4152 197.024M-2.27352 197.024L-11.7425 201.481M-2.27352 197.024L7.19544 201.481M16.4152 188.108V197.024M16.4152 188.108L25.8842 183.651L35.3532 188.108V197.024L25.8842 201.481L16.4152 197.024M52.796 188.108V197.024M52.796 188.108L62.6388 183.651L72.4815 188.108M52.796 197.024L43.95 201.481L35.104 197.024M52.796 197.024L62.6388 201.481L72.4815 197.024M35.104 197.024L26.3826 201.481M35.104 197.024L43.8254 201.481M72.4815 188.108V197.024M72.4815 188.108L81.7013 183.651L90.9211 188.108M72.4815 197.024L81.7013 201.481L90.9211 197.024M90.9211 188.108V197.024M90.9211 188.108L100.141 183.651L109.361 188.108M90.9211 197.024L100.141 201.481L109.361 197.024M109.361 188.108V197.024M109.361 188.108L118.83 183.651L128.299 188.108M109.361 197.024L118.83 201.481L128.299 197.024M-11.7425 201.481V210.397M-11.7425 210.397L-2.27352 214.856L7.19544 210.397M7.19544 201.481V210.397M7.19544 201.481L16.789 197.024L26.3826 201.481M7.19544 210.397L16.789 214.856L26.3826 210.397M26.3826 201.481V210.397M26.3826 210.397L35.104 214.856L43.8254 210.397M43.8254 201.481V210.397M43.8254 201.481L53.0452 197.024L62.265 201.481M43.8254 210.397L53.0452 214.856L62.265 210.397M62.265 201.481V210.397M62.265 201.481L71.8586 197.024L81.4521 201.481M62.265 210.397L71.8586 214.856L81.4521 210.397M81.4521 201.481V210.397M81.4521 201.481L90.6719 197.024L99.8917 201.481M81.4521 210.397L90.6719 214.856L99.8917 210.397M99.8917 201.481V210.397M99.8917 201.481L109.61 197.024L119.328 201.481M99.8917 210.397L109.61 214.856L119.328 210.397M128.299 81.1175V90.0336M128.299 81.1175L137.518 76.6604L146.738 81.1175M128.299 90.0336L137.518 94.4907L146.738 90.0336M146.738 81.1175V90.0336M146.738 81.1175L156.332 76.6604L165.925 81.1175M146.738 90.0336L156.332 94.4907L165.925 90.0336M165.925 81.1175V90.0336M165.925 81.1175L175.145 76.6604L184.365 81.1175M165.925 90.0336L175.145 94.4907L184.365 90.0336M184.365 81.1175V90.0336M184.365 81.1175L193.834 76.6604L203.303 81.1175M184.365 90.0336L193.834 94.4907L203.303 90.0336M203.303 81.1175V90.0336M203.303 81.1175L212.772 76.6604L222.241 81.1175M203.303 90.0336L212.772 94.4907L222.241 90.0336M222.241 81.1175V90.0336M222.241 81.1175L231.585 76.6604L240.93 81.1175M222.241 90.0336L231.585 94.4907L240.93 90.0336M240.93 81.1175V90.0336M240.93 81.1175L250.274 76.6604L259.618 81.1175M240.93 90.0336L250.274 94.4907L259.618 90.0336M240.93 90.0336L231.959 94.4907M240.93 90.0336L249.9 94.4907M119.328 94.4907V103.407M119.328 94.4907L128.548 90.0336L137.768 94.4907M119.328 103.407L128.548 107.866L137.768 103.407M137.768 94.4907V103.407M137.768 94.4907L147.361 90.0336L156.955 94.4907M137.768 103.407L147.361 107.866L156.955 103.407M156.955 94.4907V103.407M156.955 94.4907L166.174 90.0336L175.394 94.4907M156.955 103.407L166.174 107.866L175.394 103.407M175.394 94.4907V103.407M175.394 94.4907L184.49 90.0336L193.585 94.4907M175.394 103.407L184.49 107.866L193.585 103.407M193.585 94.4907V103.407M193.585 94.4907L202.929 90.0336L212.273 94.4907M193.585 103.407L202.929 107.866L212.273 103.407M212.273 94.4907V103.407M212.273 94.4907L222.116 90.0336L231.959 94.4907M212.273 103.407L222.116 107.866L231.959 103.407M231.959 94.4907V103.407M231.959 103.407L240.93 107.866M128.299 107.866V116.782M128.299 107.866L137.518 103.407L146.738 107.866M128.299 116.782L137.518 121.239L146.738 116.782M146.738 107.866V116.782M146.738 107.866L156.332 103.407L165.925 107.866M146.738 116.782L156.332 121.239L165.925 116.782M165.925 107.866V116.782M165.925 107.866L175.145 103.407L184.365 107.866M165.925 116.782L175.145 121.239L184.365 116.782M184.365 107.866V116.782M184.365 107.866L193.834 103.407L203.303 107.866M184.365 116.782L193.834 121.239L203.303 116.782M203.303 107.866V116.782M203.303 107.866L212.772 103.407L222.241 107.866M203.303 116.782L212.772 121.239L222.241 116.782M222.241 107.866V116.782M222.241 107.866L231.585 103.407L240.93 107.866M222.241 116.782L231.585 121.239L240.93 116.782M240.93 107.866V116.782M240.93 107.866L249.9 103.407M240.93 107.866L250.274 103.407L259.618 107.866M240.93 116.782L250.274 121.239L259.618 116.782M240.93 116.782L231.959 121.239M240.93 116.782L249.9 121.239M119.328 121.239V130.156M119.328 121.239L128.548 116.782L137.768 121.239M119.328 130.156L128.548 134.613L137.768 130.156M137.768 121.239V130.156M137.768 121.239L147.361 116.782L156.955 121.239M137.768 130.156L147.361 134.613L156.955 130.156M156.955 121.239V130.156M156.955 121.239L166.174 116.782L175.394 121.239M156.955 130.156L166.174 134.613L175.394 130.156M175.394 121.239V130.156M175.394 121.239L184.49 116.782L193.585 121.239M175.394 130.156L184.49 134.613L193.585 130.156M193.585 121.239V130.156M193.585 121.239L202.929 116.782L212.273 121.239M193.585 130.156L202.929 134.613L212.273 130.156M212.273 121.239V130.156M212.273 121.239L222.116 116.782L231.959 121.239M212.273 130.156L222.116 134.613L231.959 130.156M231.959 121.239V130.156M231.959 130.156L240.93 134.613M128.299 134.613V143.529M128.299 134.613L137.518 130.155L146.738 134.613M128.299 143.529L137.518 147.986L146.738 143.529M146.738 134.613V143.529M146.738 134.613L156.332 130.155L165.925 134.613M146.738 143.529L156.332 147.986L165.925 143.529M165.925 134.613V143.529M165.925 134.613L175.145 130.155L184.365 134.613M165.925 143.529L175.145 147.986L184.365 143.529M184.365 134.613V143.529M184.365 134.613L193.834 130.155L203.303 134.613M184.365 143.529L193.834 147.986L203.303 143.529M203.303 134.613V143.529M203.303 134.613L212.772 130.155L222.241 134.613M203.303 143.529L212.772 147.986L222.241 143.529M222.241 134.613V143.529M222.241 134.613L231.585 130.155L240.93 134.613M222.241 143.529L231.585 147.986L240.93 143.529M240.93 134.613V143.529M240.93 134.613L249.9 130.156M240.93 134.613L250.274 130.155L259.618 134.613M240.93 143.529L250.274 147.986L259.618 143.529M240.93 143.529L231.959 147.986M240.93 143.529L249.9 147.986M119.328 147.986V156.902M119.328 147.986L128.548 143.529L137.768 147.986M119.328 156.902L128.548 161.361M137.768 147.986V156.902M137.768 147.986L147.361 143.529L156.955 147.986M137.768 156.902L128.548 161.361M137.768 156.902L147.361 161.361L156.955 156.902M137.768 156.902L146.987 161.361M128.548 161.361V170.275M156.955 147.986V156.902M156.955 147.986L166.174 143.529L175.394 147.986M156.955 156.902L166.174 161.361M175.394 147.986V156.902M175.394 147.986L184.49 143.529L193.585 147.986M175.394 156.902L166.174 161.361M175.394 156.902L184.49 161.361L193.585 156.902M166.174 161.361L156.581 156.902L146.987 161.361M166.174 161.361L166.175 170.275M193.585 147.986V156.902M193.585 147.986L202.929 143.529L212.273 147.986M193.585 156.902L202.929 161.361L212.273 156.902M212.273 147.986V156.902M212.273 147.986L222.116 143.529L231.959 147.986M212.273 156.902L222.116 161.361L231.959 156.902M231.959 147.986V156.902M231.959 156.902L240.93 161.361M146.987 161.361V170.275M146.987 170.275L137.768 174.734M146.987 170.275L156.581 174.734L166.175 170.275M137.768 174.734L128.548 170.275M137.768 174.734V183.651M137.768 174.734L147.361 170.275L156.955 174.734M128.548 170.275L119.328 174.734M166.175 170.275L156.955 174.734M166.175 170.275L175.394 174.734M184.365 161.361L175.145 156.902L165.925 161.361V170.275L175.145 174.734L184.365 170.275M184.365 161.361V170.275M184.365 161.361L193.834 156.902L203.303 161.361M184.365 170.275L193.834 174.734L203.303 170.275M203.303 161.361V170.275M203.303 161.361L212.772 156.902L222.241 161.361M203.303 170.275L212.772 174.734L222.241 170.275M222.241 161.361V170.275M222.241 161.361L231.585 156.902L240.93 161.361M222.241 170.275L231.585 174.734L240.93 170.275M240.93 161.361V170.275M240.93 161.361L249.9 156.902M240.93 161.361L250.274 156.902L259.618 161.361M240.93 170.275L250.274 174.734L259.618 170.275M240.93 170.275L231.959 174.734M240.93 170.275L249.9 174.734M119.328 174.734V183.651M119.328 183.651L128.548 188.108L137.768 183.651M137.768 183.651L147.361 188.108L156.955 183.651M156.955 174.734V183.651M156.955 183.651L166.174 188.108M175.394 174.734V183.651M175.394 174.734L184.49 170.275L193.585 174.734M175.394 183.651L166.174 188.108M175.394 183.651L184.49 188.108L193.585 183.651M166.174 188.108L156.581 183.651L146.987 188.108V197.024L156.581 201.481L166.175 197.024M166.174 188.108L166.175 197.024M193.585 174.734V183.651M193.585 174.734L202.929 170.275L212.273 174.734M193.585 183.651L202.929 188.108L212.273 183.651M212.273 174.734V183.651M212.273 174.734L222.116 170.275L231.959 174.734M212.273 183.651L222.116 188.108L231.959 183.651M231.959 174.734V183.651M231.959 183.651L240.93 188.108M128.299 188.108V197.024M128.299 188.108L137.518 183.651L146.738 188.108V197.024L137.518 201.481L128.299 197.024M166.175 197.024L156.955 201.481M166.175 197.024L175.394 201.481M184.365 188.108L175.145 183.651L165.925 188.108V197.024L175.145 201.481L184.365 197.024M184.365 188.108V197.024M184.365 188.108L193.834 183.651L203.303 188.108M184.365 197.024L193.834 201.481L203.303 197.024M203.303 188.108V197.024M203.303 188.108L212.772 183.651L222.241 188.108M203.303 197.024L212.772 201.481L222.241 197.024M222.241 188.108V197.024M222.241 188.108L231.585 183.651L240.93 188.108M222.241 197.024L231.585 201.481L240.93 197.024M240.93 188.108V197.024M240.93 188.108L249.9 183.651M240.93 188.108L250.274 183.651L259.618 188.108M240.93 197.024L250.274 201.481L259.618 197.024M240.93 197.024L231.959 201.481M240.93 197.024L249.9 201.481M119.328 201.481V210.397M119.328 201.481L128.548 197.024L137.768 201.481M119.328 210.397L128.548 214.856L137.768 210.397M137.768 201.481V210.397M137.768 201.481L147.361 197.024L156.955 201.481M137.768 210.397L147.361 214.856L156.955 210.397M156.955 201.481V210.397M156.955 210.397L166.174 214.856L175.394 210.397M175.394 201.481V210.397M175.394 201.481L184.49 197.024L193.585 201.481M175.394 210.397L184.49 214.856L193.585 210.397M193.585 201.481V210.397M193.585 201.481L202.929 197.024L212.273 201.481M193.585 210.397L202.929 214.856L212.273 210.397M212.273 201.481V210.397M212.273 201.481L222.116 197.024L231.959 201.481M212.273 210.397L222.116 214.856L231.959 210.397M231.959 201.481V210.397M231.959 210.397L240.93 214.856L249.9 210.397M259.618 81.1175V90.0336M259.618 81.1175L268.963 76.6604L278.307 81.1175M259.618 90.0336L268.963 94.4907L278.307 90.0336M259.618 90.0336L249.9 94.4907M259.618 90.0336L269.336 94.4907M278.307 81.1175V90.0336M278.307 81.1175L287.527 76.6604L296.747 81.1175M278.307 90.0336L287.527 94.4907M296.747 81.1175V90.0336M296.747 81.1175L306.216 76.6604L315.685 81.1175M296.747 90.0336L287.527 94.4907M296.747 90.0336L306.216 94.4907L315.685 90.0336M287.527 94.4907L278.432 90.0336L269.336 94.4907M287.527 94.4907V103.407M287.527 94.4907L297.12 90.0336L306.714 94.4907M315.685 81.1175V90.0336M315.685 81.1175L325.278 76.6604L334.872 81.1175M315.685 90.0336L325.278 94.4907L334.872 90.0336M334.872 81.1175V90.0336M334.872 81.1175L344.091 76.6604L353.311 81.1175M334.872 90.0336L344.091 94.4907L353.311 90.0336M353.311 81.1175V90.0336M353.311 81.1175L362.656 76.6604L372 81.1175V90.0336L362.656 94.4907L353.311 90.0336M249.9 94.4907V103.407M249.9 103.407L259.618 107.866M269.336 94.4907V103.407M269.336 103.407L259.618 107.866M269.336 103.407L278.432 107.866L287.527 103.407M259.618 107.866L259.618 116.782M259.618 107.866L268.963 103.407L278.307 107.866M287.527 103.407L297.12 107.866L306.714 103.407M287.527 103.407L278.307 107.866M287.527 103.407L296.747 107.866M306.714 94.4907V103.407M306.714 94.4907L316.058 90.0336L325.403 94.4907M306.714 103.407L316.058 107.866L325.403 103.407M325.403 94.4907V103.407M325.403 94.4907L334.623 90.0336L343.842 94.4907M325.403 103.407L334.623 107.866L343.842 103.407M343.842 94.4907V103.407M343.842 94.4907L353.062 90.0336L362.282 94.4907V103.407L353.062 107.866L343.842 103.407M259.618 116.782L268.963 121.239L278.307 116.782M259.618 116.782L249.9 121.239M259.618 116.782L269.336 121.239M278.307 107.866V116.782M278.307 116.782L287.527 121.239M296.747 107.866V116.782M296.747 107.866L306.216 103.407L315.685 107.866M296.747 116.782L287.527 121.239M296.747 116.782L306.216 121.239L315.685 116.782M287.527 121.239L278.432 116.782L269.336 121.239M287.527 121.239V130.156M287.527 121.239L297.12 116.782L306.714 121.239M315.685 107.866V116.782M315.685 107.866L325.278 103.407L334.872 107.866M315.685 116.782L325.278 121.239L334.872 116.782M334.872 107.866V116.782M334.872 107.866L344.091 103.407L353.311 107.866M334.872 116.782L344.091 121.239L353.311 116.782M353.311 107.866V116.782M353.311 107.866L362.656 103.407L372 107.866V116.782L362.656 121.239L353.311 116.782M249.9 121.239V130.156M249.9 130.156L259.618 134.613M269.336 121.239V130.156M269.336 130.156L259.618 134.613M269.336 130.156L278.432 134.613L287.527 130.156M259.618 134.613L259.618 143.529M259.618 134.613L268.963 130.155L278.307 134.613M287.527 130.156L297.12 134.613L306.714 130.156M287.527 130.156L278.307 134.613M287.527 130.156L296.747 134.613M306.714 121.239V130.156M306.714 121.239L316.058 116.782L325.403 121.239M306.714 130.156L316.058 134.613L325.403 130.156M325.403 121.239V130.156M325.403 121.239L334.623 116.782L343.842 121.239M325.403 130.156L334.623 134.613L343.842 130.156M343.842 121.239V130.156M343.842 121.239L353.062 116.782L362.282 121.239V130.156L353.062 134.613L343.842 130.156M259.618 143.529L268.963 147.986L278.307 143.529M259.618 143.529L249.9 147.986M259.618 143.529L269.336 147.986M278.307 134.613V143.529M278.307 143.529L287.527 147.986M296.747 134.613V143.529M296.747 134.613L306.216 130.155L315.685 134.613M296.747 143.529L287.527 147.986M296.747 143.529L306.216 147.986L315.685 143.529M287.527 147.986L278.432 143.529L269.336 147.986M287.527 147.986V156.902M287.527 147.986L297.12 143.529L306.714 147.986M315.685 134.613V143.529M315.685 134.613L325.278 130.155L334.872 134.613M315.685 143.529L325.278 147.986L334.872 143.529M334.872 134.613V143.529M334.872 134.613L344.091 130.155L353.311 134.613M334.872 143.529L344.091 147.986L353.311 143.529M353.311 134.613V143.529M353.311 134.613L362.656 130.155L372 134.613V143.529L362.656 147.986L353.311 143.529M249.9 147.986V156.902M249.9 156.902L259.618 161.361M269.336 147.986V156.902M269.336 156.902L259.618 161.361M269.336 156.902L278.432 161.361L287.527 156.902M259.618 161.361L259.618 170.275M259.618 161.361L268.963 156.902L278.307 161.361M287.527 156.902L297.12 161.361L306.714 156.902M287.527 156.902L278.307 161.361M287.527 156.902L296.747 161.361M306.714 147.986V156.902M306.714 147.986L316.058 143.529L325.403 147.986M306.714 156.902L316.058 161.361L325.403 156.902M325.403 147.986V156.902M325.403 147.986L334.623 143.529L343.842 147.986M325.403 156.902L334.623 161.361L343.842 156.902M343.842 147.986V156.902M343.842 147.986L353.062 143.529L362.282 147.986V156.902L353.062 161.361L343.842 156.902M259.618 170.275L268.963 174.734L278.307 170.275M259.618 170.275L249.9 174.734M259.618 170.275L269.336 174.734M278.307 161.361V170.275M278.307 170.275L287.527 174.734M296.747 161.361V170.275M296.747 161.361L306.216 156.902L315.685 161.361M296.747 170.275L287.527 174.734M296.747 170.275L306.216 174.734L315.685 170.275M287.527 174.734L278.432 170.275L269.336 174.734M287.527 174.734V183.651M287.527 174.734L297.12 170.275L306.714 174.734M315.685 161.361V170.275M315.685 161.361L325.278 156.902L334.872 161.361M315.685 170.275L325.278 174.734L334.872 170.275M334.872 161.361V170.275M334.872 161.361L344.091 156.902L353.311 161.361M334.872 170.275L344.091 174.734L353.311 170.275M353.311 161.361V170.275M353.311 161.361L362.656 156.902L372 161.361V170.275L362.656 174.734L353.311 170.275M249.9 174.734V183.651M249.9 183.651L259.618 188.108M269.336 174.734V183.651M269.336 183.651L259.618 188.108M269.336 183.651L278.432 188.108L287.527 183.651M259.618 188.108L259.618 197.024M259.618 188.108L268.963 183.651L278.307 188.108M287.527 183.651L297.12 188.108L306.714 183.651M287.527 183.651L278.307 188.108M287.527 183.651L296.747 188.108M306.714 174.734V183.651M306.714 174.734L316.058 170.275L325.403 174.734M306.714 183.651L316.058 188.108L325.403 183.651M325.403 174.734V183.651M325.403 174.734L334.623 170.275L343.842 174.734M325.403 183.651L334.623 188.108L343.842 183.651M343.842 174.734V183.651M343.842 174.734L353.062 170.275L362.282 174.734V183.651L353.062 188.108L343.842 183.651M259.618 197.024L268.963 201.481L278.307 197.024M259.618 197.024L249.9 201.481M259.618 197.024L269.336 201.481M278.307 188.108V197.024M278.307 197.024L287.527 201.481M296.747 188.108V197.024M296.747 188.108L306.216 183.651L315.685 188.108M296.747 197.024L287.527 201.481M296.747 197.024L306.216 201.481L315.685 197.024M287.527 201.481L278.432 197.024L269.336 201.481M287.527 201.481V210.397M287.527 201.481L297.12 197.024L306.714 201.481M315.685 188.108V197.024M315.685 188.108L325.278 183.651L334.872 188.108M315.685 197.024L325.278 201.481L334.872 197.024M334.872 188.108V197.024M334.872 188.108L344.091 183.651L353.311 188.108M334.872 197.024L344.091 201.481L353.311 197.024M353.311 188.108V197.024M353.311 188.108L362.656 183.651L372 188.108V197.024L362.656 201.481L353.311 197.024M249.9 201.481V210.397M249.9 210.397L259.618 214.856L269.336 210.397M269.336 201.481V210.397M269.336 210.397L278.432 214.856L287.527 210.397M287.527 210.397L297.12 214.856L306.714 210.397M306.714 201.481V210.397M306.714 201.481L316.058 197.024L325.403 201.481M306.714 210.397L316.058 214.856L325.403 210.397M325.403 201.481V210.397M325.403 201.481L334.623 197.024L343.842 201.481M325.403 210.397L334.623 214.856L343.842 210.397M343.842 201.481V210.397M343.842 201.481L353.062 197.024L362.282 201.481V210.397L353.062 214.856L343.842 210.397M26.1334 -12.4933L34.8548 -16.9525L43.5762 -12.4933V-3.57716L34.8548 0.879916L26.1334 -3.57716V-12.4933ZM16.4152 27.6265L25.8842 23.1694L35.3532 27.6265V36.5426L25.8842 41.0018L16.4152 36.5426V27.6265ZM6.94625 41.0018L16.5398 36.5426L26.1334 41.0018V49.9159L16.5398 54.375L6.94625 49.9159V41.0018ZM16.4152 54.375L25.8842 49.9159L35.3532 54.375V63.2912L25.8842 67.7483L16.4152 63.2912V54.375ZM43.8254 67.7483L53.0452 63.2912L62.265 67.7483V76.6645L53.0452 81.1216L43.8254 76.6645V67.7483ZM43.8254 94.4907L53.0452 90.0336L62.265 94.4907V103.407L53.0452 107.866L43.8254 103.407V94.4907ZM43.8254 121.239L53.0452 116.782L62.265 121.239V130.156L53.0452 134.613L43.8254 130.156V121.239ZM16.4152 134.613L25.8842 130.155L35.3532 134.613V143.529L25.8842 147.986L16.4152 143.529V134.613ZM6.94625 147.986L16.5398 143.529L26.1334 147.986V156.902L16.5398 161.361L6.94625 156.902V147.986ZM16.4152 161.361L25.8842 156.902L35.3532 161.361V170.275L25.8842 174.734L16.4152 170.275V161.361Z" stroke="url(#paint1_linear_123_44696)" stroke-opacity="0.6" stroke-miterlimit="10"/>
</g>
</g>
<defs>
<linearGradient id="paint0_linear_123_44696" x1="4" y1="3.35742" x2="159.538" y2="211.845" gradientUnits="userSpaceOnUse">
<stop stop-color="white"/>
<stop offset="0.505" stop-color="white" stop-opacity="0"/>
<stop offset="1" stop-color="white"/>
</linearGradient>
<linearGradient id="paint1_linear_123_44696" x1="-162" y1="-137.214" x2="123.681" y2="209.585" gradientUnits="userSpaceOnUse">
<stop offset="0.55" stop-color="white" stop-opacity="0"/>
<stop offset="0.73" stop-color="white"/>
<stop offset="0.88" stop-color="white" stop-opacity="0"/>
</linearGradient>
</defs>
</svg>
