<svg width="157" height="224" viewBox="0 0 157 224" fill="none" xmlns="http://www.w3.org/2000/svg">
<mask id="mask0_123_44684" style="mask-type:alpha" maskUnits="userSpaceOnUse" x="0" y="0" width="157" height="224">
<path fill-rule="evenodd" clip-rule="evenodd" d="M86.7404 2.80717C81.6412 -0.935723 75.3588 -0.935723 70.2596 2.80717L8.24036 48.3307C3.14121 52.0736 0 58.9907 0 66.4765V157.523C0 165.009 3.14121 171.926 8.24036 175.669L70.2596 221.193C75.3588 224.936 81.6412 224.936 86.7404 221.193L148.76 175.669C153.859 171.926 157 165.009 157 157.523V66.4765C157 58.9907 153.859 52.0736 148.76 48.3307L86.7404 2.80717ZM91.1247 100.314L80.1481 92.2567C79.1282 91.5082 77.8718 91.5082 76.8519 92.2567L65.8754 100.314C64.8555 101.062 64.2273 102.446 64.2273 103.943V120.057C64.2273 121.554 64.8555 122.938 65.8754 123.686L76.8519 131.743C77.8718 132.492 79.1282 132.492 80.1481 131.743L91.1247 123.686C92.1445 122.938 92.7727 121.554 92.7727 120.057V103.943C92.7727 102.446 92.1445 101.062 91.1247 100.314Z" fill="#F36DFF"/>
<path d="M80.1481 92.2567L91.1247 100.314C92.1445 101.062 92.7727 102.446 92.7727 103.943V120.057C92.7727 121.554 92.1445 122.938 91.1247 123.686L80.1481 131.743C79.1282 132.492 77.8718 132.492 76.8519 131.743L65.8754 123.686C64.8555 122.938 64.2273 121.554 64.2273 120.057V103.943C64.2273 102.446 64.8555 101.062 65.8754 100.314L76.8519 92.2567C77.8718 91.5082 79.1282 91.5082 80.1481 92.2567Z" fill="#F36DFF"/>
</mask>
<g mask="url(#mask0_123_44684)">
<path fill-rule="evenodd" clip-rule="evenodd" d="M86.7404 2.80717C81.6412 -0.935723 75.3588 -0.935723 70.2596 2.80717L8.24036 48.3307C3.14121 52.0736 0 58.9907 0 66.4765V157.523C0 165.009 3.14121 171.926 8.24036 175.669L70.2596 221.193C75.3588 224.936 81.6412 224.936 86.7404 221.193L148.76 175.669C153.859 171.926 157 165.009 157 157.523V66.4765C157 58.9907 153.859 52.0736 148.76 48.3307L86.7404 2.80717ZM91.1247 100.314L80.1481 92.2567C79.1282 91.5082 77.8718 91.5082 76.8519 92.2567L65.8754 100.314C64.8555 101.062 64.2273 102.446 64.2273 103.943V120.057C64.2273 121.554 64.8555 122.938 65.8754 123.686L76.8519 131.743C77.8718 132.492 79.1282 132.492 80.1481 131.743L91.1247 123.686C92.1445 122.938 92.7727 121.554 92.7727 120.057V103.943C92.7727 102.446 92.1445 101.062 91.1247 100.314Z" fill="#8E35FF"/>
<path d="M80.1481 92.2567L91.1247 100.314C92.1445 101.062 92.7727 102.446 92.7727 103.943V120.057C92.7727 121.554 92.1445 122.938 91.1247 123.686L80.1481 131.743C79.1282 132.492 77.8718 132.492 76.8519 131.743L65.8754 123.686C64.8555 122.938 64.2273 121.554 64.2273 120.057V103.943C64.2273 102.446 64.8555 101.062 65.8754 100.314L76.8519 92.2567C77.8718 91.5082 79.1282 91.5082 80.1481 92.2567Z" fill="#8E35FF"/>
<g style="mix-blend-mode:difference">
<path d="M86.1147 7.10935L145.653 51.007C150.396 54.5037 153.361 61.0091 153.361 68.1023V155.898C153.361 162.991 150.396 169.496 145.653 172.993L86.1147 216.891C81.3959 220.37 75.6054 220.37 70.8866 216.891L11.3481 172.993C6.60555 169.496 3.64062 162.991 3.64062 155.898V68.1023C3.64062 61.0091 6.60555 54.5037 11.3481 51.007L70.8866 7.10935C75.6054 3.63022 81.3959 3.63022 86.1147 7.10935Z" stroke="url(#paint0_linear_123_44684)" stroke-opacity="0.2"/>
</g>
<g style="mix-blend-mode:soft-light">
<path d="M-104.871 -62.6894L-112.304 -68L-119.737 -62.6894V-52.0659M-104.871 -62.6894V-52.0659M-104.871 -62.6894L-97.8287 -68L-90.7868 -62.6894M-104.871 -52.0659L-112.304 -46.7553M-104.871 -52.0659L-97.8287 -46.7553M-112.304 -46.7553L-119.737 -52.0659M-112.304 -46.7553L-112.304 -36.1318M-119.737 -52.0659L-127.17 -46.7553V-36.1318L-119.737 -30.8188M-90.7868 -62.6894V-52.0659M-90.7868 -62.6894L-83.158 -68L-75.5293 -62.6894M-90.7868 -52.0659L-97.8287 -46.7553M-90.7868 -52.0659L-83.158 -46.7553L-75.5293 -52.0659M-97.8287 -46.7553L-104.968 -52.0659L-112.108 -46.7553V-36.1318L-104.968 -30.8188L-97.8287 -36.1318M-97.8287 -46.7553V-36.1318M-75.5293 -62.6894V-52.0659M-75.5293 -62.6894L-68.0961 -68L-60.663 -62.6894M-75.5293 -52.0659L-68.0961 -46.7553L-60.663 -52.0659M-60.663 -62.6894V-52.0659M-60.663 -62.6894L-53.132 -68L-45.6011 -62.6894M-60.663 -52.0659L-53.132 -46.7553L-45.6011 -52.0659M-45.6011 -62.6894V-52.0659M-45.6011 -62.6894L-38.5591 -68L-31.5172 -62.6894M-45.6011 -52.0659L-38.5591 -46.7553M-31.5172 -62.6894V-52.0659M-31.5172 -62.6894L-24.0841 -68L-16.6509 -62.6894M-31.5172 -52.0659L-38.5591 -46.7553M-31.5172 -52.0659L-24.0841 -46.7553M-38.5591 -46.7553L-45.8945 -52.0659L-53.2298 -46.7553V-36.1318L-45.8945 -30.8188L-38.5591 -36.1318M-38.5591 -46.7553L-38.5591 -36.1318M-16.6509 -62.6894V-52.0659M-16.6509 -62.6894L-9.3156 -68L-1.98026 -62.6894M-16.6509 -52.0659L-24.0841 -46.7553M-16.6509 -52.0659L-9.3156 -46.7553L-1.98026 -52.0659M-16.6509 -52.0659L-9.21779 -46.7553M-24.0841 -46.7553L-31.4194 -52.0659L-38.7548 -46.7553V-36.1318L-31.4194 -30.8188L-24.0841 -36.1318M-24.0841 -46.7553V-36.1318M-112.304 -36.1318L-119.737 -30.8188M-112.304 -36.1318L-104.871 -30.8188M-119.737 -30.8188L-119.737 -20.1977M-97.8287 -36.1318L-104.871 -30.8188M-97.8287 -36.1318L-90.7868 -30.8188M-82.9624 -46.7553L-90.2977 -52.0659L-97.6331 -46.7553V-36.1318L-90.2977 -30.8188L-82.9624 -36.1318M-82.9624 -46.7553V-36.1318M-82.9624 -46.7553L-75.6271 -52.0659L-68.2917 -46.7553M-82.9624 -36.1318L-75.6271 -30.8188L-68.2917 -36.1318M-68.2917 -46.7553V-36.1318M-68.2917 -46.7553L-60.8586 -52.0659L-53.4254 -46.7553V-36.1318L-60.8586 -30.8188L-68.2917 -36.1318M-38.5591 -36.1318L-45.6011 -30.8188M-38.5591 -36.1318L-31.5172 -30.8188M-24.0841 -36.1318L-31.5172 -30.8188M-24.0841 -36.1318L-16.6509 -30.8188M-104.871 -30.8188V-20.1977M-104.871 -20.1977L-112.304 -14.8847M-104.871 -20.1977L-97.8287 -14.8847M-112.304 -14.8847L-119.737 -20.1977M-112.304 -14.8847L-112.304 -4.26114L-119.737 1.04941L-127.17 -4.26114V-14.8847L-119.737 -20.1977M-90.7868 -30.8188V-20.1977M-90.7868 -30.8188L-83.158 -36.1318L-75.5293 -30.8188M-90.7868 -20.1977L-97.8287 -14.8847M-90.7868 -20.1977L-83.158 -14.8847M-97.8287 -14.8847L-104.968 -20.1977L-112.108 -14.8847V-4.26114M-97.8287 -14.8847V-4.26114M-97.8287 -14.8847L-90.4933 -20.1977L-83.158 -14.8847M-75.5293 -30.8188V-20.1977M-75.5293 -30.8188L-68.0961 -36.1318L-60.663 -30.8188M-75.5293 -20.1977L-83.158 -14.8847M-75.5293 -20.1977L-68.0961 -14.8847L-60.663 -20.1977M-83.158 -14.8847V-4.26114M-60.663 -30.8188V-20.1977M-60.663 -30.8188L-53.132 -36.1318L-45.6011 -30.8188M-60.663 -20.1977L-53.132 -14.8847L-45.6011 -20.1977M-45.6011 -30.8188V-20.1977M-45.6011 -20.1977L-38.5591 -14.8847L-31.5172 -20.1977M-31.5172 -30.8188V-20.1977M-31.5172 -20.1977L-24.0841 -14.8847M-16.6509 -30.8188V-20.1977M-16.6509 -30.8188L-9.21779 -36.1318M-16.6509 -30.8188L-9.3156 -36.1318L-1.98026 -30.8188M-16.6509 -20.1977L-24.0841 -14.8847M-16.6509 -20.1977L-9.3156 -14.8847L-1.98026 -20.1977M-16.6509 -20.1977L-9.21779 -14.8847V-4.26114L-16.6509 1.04941M-24.0841 -14.8847L-31.4194 -20.1977L-38.7548 -14.8847M-24.0841 -14.8847V-4.26114M-97.8287 -4.26114L-104.968 1.04941L-112.108 -4.26114M-97.8287 -4.26114L-90.4933 1.04941L-83.158 -4.26114M-97.8287 -4.26114L-104.871 1.04941V11.673L-97.8287 16.9835M-97.8287 -4.26114L-90.7868 1.04941M-112.108 -4.26114L-119.541 1.04941V11.673L-112.108 16.9835M-112.108 -4.26114L-104.675 1.04941V11.673L-112.108 16.9835M-83.158 -4.26114L-90.7868 1.04941M-83.158 -4.26114L-75.5293 1.04941M-68.2917 -14.8847L-75.6271 -20.1977L-82.9624 -14.8847V-4.26114L-75.6271 1.04941L-68.2917 -4.26114M-68.2917 -14.8847V-4.26114M-68.2917 -14.8847L-60.8586 -20.1977L-53.4254 -14.8847M-68.2917 -4.26114L-60.8586 1.04941L-53.4254 -4.26114M-53.4254 -14.8847V-4.26114M-53.4254 -14.8847L-46.0901 -20.1977L-38.7548 -14.8847M-53.4254 -4.26114L-46.0901 1.04941L-38.7548 -4.26114M-38.7548 -14.8847V-4.26114M-38.7548 -4.26114L-31.4194 1.04941L-24.0841 -4.26114M-24.0841 -4.26114L-31.5172 1.04941M-24.0841 -4.26114L-16.6509 1.04941M-112.108 16.9835L-104.968 11.673L-97.8287 16.9835M-112.108 16.9835V27.6071L-104.968 32.9176L-97.8287 27.6071M-90.7868 1.04941V11.673M-90.7868 11.673L-97.8287 16.9835M-90.7868 11.673L-83.158 16.9835L-75.5293 11.673M-97.8287 16.9835V27.6071M-75.5293 1.04941V11.673M-75.5293 1.04941L-68.0961 -4.26114L-60.663 1.04941M-75.5293 11.673L-68.0961 16.9835L-60.663 11.673M-60.663 1.04941V11.673M-60.663 1.04941L-53.132 -4.26114L-45.6011 1.04941M-60.663 11.673L-53.132 16.9835L-45.6011 11.673M-45.6011 1.04941V11.673M-45.6011 1.04941L-38.5591 -4.26114L-31.5172 1.04941M-45.6011 11.673L-38.5591 16.9835L-31.5172 11.673M-31.5172 1.04941V11.673M-31.5172 11.673L-24.0841 16.9835M-16.6509 1.04941V11.673M-16.6509 1.04941L-9.3156 -4.26114L-1.98026 1.04941M-16.6509 11.673L-24.0841 16.9835M-16.6509 11.673L-9.3156 16.9835L-1.98026 11.673M-16.6509 11.673L-9.21779 16.9835M-24.0841 16.9835L-31.4194 11.673L-38.7548 16.9835M-24.0841 16.9835V27.6071M-112.304 27.6071V16.9835L-119.737 11.673L-127.17 16.9835V27.6071L-119.737 32.9176M-112.304 27.6071L-119.737 32.9176M-112.304 27.6071L-104.871 32.9176M-119.737 32.9176L-119.737 43.5412M-97.8287 27.6071L-104.871 32.9176M-97.8287 27.6071L-90.7868 32.9176M-82.9624 16.9835L-90.2977 11.673L-97.6331 16.9835V27.6071L-90.2977 32.9176L-82.9624 27.6071M-82.9624 16.9835V27.6071M-82.9624 16.9835L-75.6271 11.673L-68.2917 16.9835M-82.9624 27.6071L-75.6271 32.9176L-68.2917 27.6071M-68.2917 16.9835V27.6071M-68.2917 16.9835L-60.8586 11.673L-53.4254 16.9835M-68.2917 27.6071L-60.8586 32.9176L-53.4254 27.6071M-53.4254 16.9835V27.6071M-53.4254 16.9835L-46.0901 11.673L-38.7548 16.9835M-53.4254 27.6071L-46.0901 32.9176L-38.7548 27.6071M-38.7548 16.9835V27.6071M-38.7548 27.6071L-31.4194 32.9176L-24.0841 27.6071M-24.0841 27.6071L-31.5172 32.9176M-24.0841 27.6071L-16.6509 32.9176M-104.871 32.9176V43.5412M-104.871 43.5412L-112.304 48.8542M-104.871 43.5412L-97.8287 48.8542M-112.304 48.8542L-119.737 43.5412M-112.304 48.8542L-112.304 59.4753M-119.737 43.5412L-127.17 48.8542V59.4753L-119.737 64.7883M-90.7868 32.9176V43.5412M-90.7868 32.9176L-83.158 27.6071L-75.5293 32.9176M-90.7868 43.5412L-97.8287 48.8542M-90.7868 43.5412L-83.158 48.8542L-75.5293 43.5412M-97.8287 48.8542L-104.968 43.5412L-112.108 48.8542V59.4753L-104.968 64.7883L-97.8287 59.4753M-97.8287 48.8542V59.4753M-75.5293 32.9176V43.5412M-75.5293 32.9176L-68.0961 27.6071L-60.663 32.9176M-75.5293 43.5412L-68.0961 48.8542L-60.663 43.5412M-60.663 32.9176V43.5412M-60.663 32.9176L-53.132 27.6071L-45.6011 32.9176M-60.663 43.5412L-53.132 48.8542L-45.6011 43.5412M-45.6011 32.9176V43.5412M-45.6011 32.9176L-38.5591 27.6071L-31.5172 32.9176M-45.6011 43.5412L-38.5591 48.8542L-31.5172 43.5412M-31.5172 32.9176V43.5412M-31.5172 43.5412L-24.0841 48.8542M-16.6509 32.9176V43.5412M-16.6509 32.9176L-9.21779 27.6071M-16.6509 32.9176L-9.3156 27.6071L-1.98026 32.9176M-16.6509 43.5412L-24.0841 48.8542M-16.6509 43.5412L-9.3156 48.8542L-1.98026 43.5412M-16.6509 43.5412L-9.21779 48.8542M-24.0841 48.8542L-31.4194 43.5412L-38.7548 48.8542M-24.0841 48.8542V59.4753M-112.304 59.4753L-119.737 64.7883M-112.304 59.4753L-104.871 64.7883M-119.737 64.7883L-119.737 75.4118M-97.8287 59.4753L-104.871 64.7883M-97.8287 59.4753L-90.7868 64.7883M-82.9624 48.8542L-90.2977 43.5412L-97.6331 48.8542V59.4753L-90.2977 64.7883L-82.9624 59.4753M-82.9624 48.8542V59.4753M-82.9624 48.8542L-75.6271 43.5412L-68.2917 48.8542M-82.9624 59.4753L-75.6271 64.7883L-68.2917 59.4753M-68.2917 48.8542V59.4753M-68.2917 48.8542L-60.8586 43.5412L-53.4254 48.8542M-68.2917 59.4753L-60.8586 64.7883L-53.4254 59.4753M-53.4254 48.8542V59.4753M-53.4254 48.8542L-46.0901 43.5412L-38.7548 48.8542M-53.4254 59.4753L-46.0901 64.7883L-38.7548 59.4753M-38.7548 48.8542V59.4753M-38.7548 59.4753L-31.4194 64.7883L-24.0841 59.4753M-24.0841 59.4753L-31.5172 64.7883M-24.0841 59.4753L-16.6509 64.7883M-104.871 64.7883V75.4118M-104.871 75.4118L-112.304 80.7224M-104.871 75.4118L-97.8287 80.7224M-112.304 80.7224L-119.737 75.4118M-112.304 80.7224L-112.304 91.3459L-119.737 96.6565L-127.17 91.3459V80.7224L-119.737 75.4118M-90.7868 64.7883V75.4118M-90.7868 64.7883L-83.158 59.4753L-75.5293 64.7883M-90.7868 75.4118L-97.8287 80.7224M-90.7868 75.4118L-83.158 80.7224L-75.5293 75.4118M-97.8287 80.7224L-104.968 75.4118L-112.108 80.7224V91.3459L-104.968 96.6565L-97.8287 91.3459V80.7224ZM-75.5293 64.7883V75.4118M-75.5293 64.7883L-68.0961 59.4753L-60.663 64.7883M-75.5293 75.4118L-68.0961 80.7224L-60.663 75.4118M-60.663 64.7883V75.4118M-60.663 64.7883L-53.132 59.4753L-45.6011 64.7883M-60.663 75.4118L-53.132 80.7224L-45.6011 75.4118M-45.6011 64.7883V75.4118M-45.6011 64.7883L-38.5591 59.4753L-31.5172 64.7883M-45.6011 75.4118L-38.5591 80.7224M-31.5172 64.7883V75.4118M-31.5172 75.4118L-38.5591 80.7224M-31.5172 75.4118L-24.0841 80.7224M-38.5591 80.7224L-45.8945 75.4118L-53.2298 80.7224V91.3459L-45.8945 96.6565L-38.5591 91.3459L-38.5591 80.7224ZM-16.6509 64.7883V75.4118M-16.6509 64.7883L-9.21779 59.4753M-16.6509 64.7883L-9.3156 59.4753L-1.98026 64.7883M-16.6509 75.4118L-24.0841 80.7224M-16.6509 75.4118L-9.3156 80.7224L-1.98026 75.4118M-16.6509 75.4118L-9.21779 80.7224M-24.0841 80.7224L-31.4194 75.4118L-38.7548 80.7224V91.3459L-31.4194 96.6565L-24.0841 91.3459M-24.0841 80.7224V91.3459M-82.9624 80.7224L-90.2977 75.4118L-97.6331 80.7224V91.3459L-90.2977 96.6565L-82.9624 91.3459M-82.9624 80.7224V91.3459M-82.9624 80.7224L-75.6271 75.4118L-68.2917 80.7224M-82.9624 91.3459L-75.6271 96.6565L-68.2917 91.3459M-68.2917 80.7224V91.3459M-68.2917 80.7224L-60.8586 75.4118L-53.4254 80.7224V91.3459L-60.8586 96.6565L-68.2917 91.3459M-24.0841 91.3459L-16.6509 96.6565L-9.21779 91.3459M-1.98026 -62.6894V-52.0659M-1.98026 -62.6894L5.35508 -68L12.6904 -62.6894M-1.98026 -52.0659L5.35508 -46.7553L12.6904 -52.0659M12.6904 -62.6894V-52.0659M12.6904 -62.6894L20.1236 -68L27.5567 -62.6894M12.6904 -52.0659L20.1236 -46.7553L27.5567 -52.0659M27.5567 -62.6894V-52.0659M27.5567 -62.6894L34.5008 -68L41.445 -62.6894M27.5567 -52.0659L34.5008 -46.7553L41.445 -52.0659M27.5567 -52.0659L20.7104 -46.7553M27.5567 -52.0659L34.403 -46.7553M41.445 -62.6894V-52.0659M41.445 -62.6894L49.1715 -68L56.8981 -62.6894M41.445 -52.0659L49.1715 -46.7553L56.8981 -52.0659M56.8981 -62.6894V-52.0659M56.8981 -62.6894L64.1356 -68L71.3731 -62.6894M56.8981 -52.0659L64.1356 -46.7553L71.3731 -52.0659M71.3731 -62.6894V-52.0659M71.3731 -62.6894L78.6106 -68L85.8482 -62.6894M71.3731 -52.0659L78.6106 -46.7553L85.8482 -52.0659M85.8482 -62.6894V-52.0659M85.8482 -62.6894L93.2813 -68L100.714 -62.6894M85.8482 -52.0659L93.2813 -46.7553L100.714 -52.0659M-9.21779 -46.7553V-36.1318M-9.21779 -46.7553L-1.78464 -52.0659L5.64849 -46.7553M-9.21779 -36.1318L-1.78464 -30.8188L5.64849 -36.1318M5.64849 -46.7553V-36.1318M5.64849 -46.7553L13.1795 -52.0659L20.7104 -46.7553M5.64849 -36.1318L13.1795 -30.8188L20.7104 -36.1318M20.7104 -46.7553V-36.1318M20.7104 -36.1318L27.5567 -30.8188M34.403 -46.7553V-36.1318M34.403 -46.7553L41.6406 -52.0659L48.8781 -46.7553M34.403 -36.1318L27.5567 -30.8188M34.403 -36.1318L41.6406 -30.8188L48.8781 -36.1318M27.5567 -30.8188L20.1236 -36.1318L12.6904 -30.8188M27.5567 -30.8188V-20.1977M27.5567 -30.8188L34.5008 -36.1318L41.445 -30.8188M48.8781 -46.7553V-36.1318M48.8781 -46.7553L56.409 -52.0659L63.94 -46.7553M48.8781 -36.1318L56.409 -30.8188L63.94 -36.1318M63.94 -46.7553V-36.1318M63.94 -46.7553L71.1775 -52.0659L78.4151 -46.7553M63.94 -36.1318L71.1775 -30.8188L78.4151 -36.1318M78.4151 -46.7553V-36.1318M78.4151 -46.7553L86.0438 -52.0659L93.6726 -46.7553M78.4151 -36.1318L86.0438 -30.8188L93.6726 -36.1318M-1.98026 -30.8188V-20.1977M-1.98026 -30.8188L5.35508 -36.1318L12.6904 -30.8188M-1.98026 -20.1977L5.35508 -14.8847L12.6904 -20.1977M-1.98026 -20.1977L-9.4134 -14.8847V-4.26114L-1.98026 1.04941M-1.98026 -20.1977L5.45289 -14.8847V-4.26114L-1.98026 1.04941M12.6904 -30.8188V-20.1977M12.6904 -20.1977L20.1236 -14.8847L27.5567 -20.1977M27.5567 -20.1977L34.5008 -14.8847L41.445 -20.1977M41.445 -30.8188V-20.1977M41.445 -30.8188L49.1715 -36.1318L56.8981 -30.8188M41.445 -20.1977L49.1715 -14.8847L56.8981 -20.1977M56.8981 -30.8188V-20.1977M56.8981 -30.8188L64.1356 -36.1318L71.3731 -30.8188M56.8981 -20.1977L64.1356 -14.8847L71.3731 -20.1977M71.3731 -30.8188V-20.1977M71.3731 -30.8188L78.6106 -36.1318L85.8482 -30.8188M71.3731 -20.1977L78.6106 -14.8847L85.8482 -20.1977M85.8482 -30.8188V-20.1977M85.8482 -30.8188L93.2813 -36.1318L100.714 -30.8188M85.8482 -20.1977L93.2813 -14.8847L100.714 -20.1977M-1.98026 1.04941V11.673M-1.98026 1.04941L5.35508 -4.26114L12.6904 1.04941V11.673L5.35508 16.9835L-1.98026 11.673M20.3192 -4.26114V-14.8847L12.7882 -20.1977L5.25727 -14.8847V-4.26114L12.7882 1.04941L20.3192 -4.26114ZM20.3192 -4.26114L12.886 1.04941V11.673L20.3192 16.9835L27.7523 11.673V1.04941L20.3192 -4.26114ZM48.8781 -14.8847L41.6406 -20.1977L34.403 -14.8847V-4.26114L41.6406 1.04941L48.8781 -4.26114M48.8781 -14.8847V-4.26114M48.8781 -14.8847L56.409 -20.1977L63.94 -14.8847M48.8781 -4.26114L56.409 1.04941L63.94 -4.26114M63.94 -14.8847V-4.26114M63.94 -14.8847L71.1775 -20.1977L78.4151 -14.8847M63.94 -4.26114L71.1775 1.04941L78.4151 -4.26114M78.4151 -14.8847V-4.26114M78.4151 -14.8847L86.0438 -20.1977L93.6726 -14.8847M78.4151 -4.26114L86.0438 1.04941L93.6726 -4.26114M41.445 1.04941L34.5008 -4.26114L27.5567 1.04941V11.673M41.445 1.04941V11.673M41.445 1.04941L49.1715 -4.26114L56.8981 1.04941M41.445 11.673L34.5008 16.9835L27.5567 11.673M41.445 11.673L49.1715 16.9835L56.8981 11.673M27.5567 11.673L20.7104 16.9835M27.5567 11.673L34.403 16.9835M56.8981 1.04941V11.673M56.8981 1.04941L64.1356 -4.26114L71.3731 1.04941M56.8981 11.673L64.1356 16.9835L71.3731 11.673M71.3731 1.04941V11.673M71.3731 1.04941L78.6106 -4.26114L85.8482 1.04941M71.3731 11.673L78.6106 16.9835L85.8482 11.673M85.8482 1.04941V11.673M85.8482 1.04941L93.2813 -4.26114L100.714 1.04941M85.8482 11.673L93.2813 16.9835L100.714 11.673M-9.21779 16.9835V27.6071M-9.21779 16.9835L-1.78464 11.673L5.64849 16.9835M-9.21779 27.6071L-1.78464 32.9176L5.64849 27.6071M5.64849 16.9835V27.6071M5.64849 16.9835L13.1795 11.673L20.7104 16.9835M5.64849 27.6071L13.1795 32.9176L20.7104 27.6071M20.7104 16.9835V27.6071M20.7104 27.6071L27.5567 32.9176M34.403 16.9835V27.6071M34.403 16.9835L41.6406 11.673L48.8781 16.9835M34.403 27.6071L27.5567 32.9176M34.403 27.6071L41.6406 32.9176L48.8781 27.6071M27.5567 32.9176L34.5008 27.6071L41.445 32.9176M27.5567 32.9176V43.5412M48.8781 16.9835V27.6071M48.8781 16.9835L56.409 11.673L63.94 16.9835M48.8781 27.6071L56.409 32.9176L63.94 27.6071M63.94 16.9835V27.6071M63.94 16.9835L71.1775 11.673L78.4151 16.9835M63.94 27.6071L71.1775 32.9176L78.4151 27.6071M78.4151 16.9835V27.6071M78.4151 16.9835L86.0438 11.673L93.6726 16.9835M78.4151 27.6071L86.0438 32.9176L93.6726 27.6071M-1.98026 32.9176V43.5412M-1.98026 32.9176L5.35508 27.6071L12.6904 32.9176V43.5412L5.35508 48.8542L-1.98026 43.5412M41.445 32.9176V43.5412M41.445 32.9176L49.1715 27.6071L56.8981 32.9176M41.445 43.5412L34.5008 48.8542L27.5567 43.5412M41.445 43.5412L49.1715 48.8542L56.8981 43.5412M27.5567 43.5412L20.7104 48.8542V59.4753L27.5567 64.7883M27.5567 43.5412L34.403 48.8542M56.8981 32.9176V43.5412M56.8981 32.9176L64.1356 27.6071L71.3731 32.9176M56.8981 43.5412L64.1356 48.8542M71.3731 32.9176V43.5412M71.3731 32.9176L78.6106 27.6071L85.8482 32.9176M71.3731 43.5412L64.1356 48.8542M71.3731 43.5412L78.6106 48.8542L85.8482 43.5412M64.1356 48.8542L56.6047 43.5412L49.0737 48.8542V59.4753L56.6047 64.7883L64.1356 59.4753M64.1356 48.8542V59.4753M85.8482 32.9176V43.5412M85.8482 32.9176L93.2813 27.6071L100.714 32.9176M85.8482 43.5412L93.2813 48.8542L100.714 43.5412M-9.21779 48.8542V59.4753M-9.21779 48.8542L-1.78464 43.5412L5.64849 48.8542V59.4753L-1.78464 64.7883L-9.21779 59.4753M34.403 48.8542V59.4753M34.403 48.8542L41.6406 43.5412L48.8781 48.8542V59.4753L41.6406 64.7883L34.403 59.4753M34.403 59.4753L27.5567 64.7883M27.5567 64.7883L34.5008 59.4753L41.445 64.7883M27.5567 64.7883V75.4118L34.5008 80.7224L41.445 75.4118M64.1356 59.4753L56.8981 64.7883M64.1356 59.4753L71.3731 64.7883M78.4151 48.8542L71.1775 43.5412L63.94 48.8542V59.4753L71.1775 64.7883L78.4151 59.4753M78.4151 48.8542V59.4753M78.4151 48.8542L86.0438 43.5412L93.6726 48.8542M78.4151 59.4753L86.0438 64.7883L93.6726 59.4753M-1.98026 64.7883V75.4118M-1.98026 64.7883L5.35508 59.4753L12.6904 64.7883V75.4118L5.35508 80.7224L-1.98026 75.4118M41.445 64.7883V75.4118M41.445 64.7883L49.1715 59.4753L56.8981 64.7883M41.445 75.4118L49.1715 80.7224L56.8981 75.4118M56.8981 64.7883V75.4118M56.8981 75.4118L64.1356 80.7224M71.3731 64.7883V75.4118M71.3731 64.7883L78.6106 59.4753L85.8482 64.7883M71.3731 75.4118L64.1356 80.7224M71.3731 75.4118L78.6106 80.7224L85.8482 75.4118M64.1356 80.7224L56.6047 75.4118L49.0737 80.7224V91.3459L56.6047 96.6565L64.1356 91.3459V80.7224ZM85.8482 64.7883V75.4118M85.8482 64.7883L93.2813 59.4753L100.714 64.7883M85.8482 75.4118L93.2813 80.7224L100.714 75.4118M-9.21779 80.7224V91.3459M-9.21779 80.7224L-1.78464 75.4118L5.64849 80.7224V91.3459L-1.78464 96.6565L-9.21779 91.3459M20.5148 80.7224L12.9838 75.4118L5.45288 80.7224V91.3459L12.9838 96.6565L20.5148 91.3459M20.5148 80.7224V91.3459M20.5148 80.7224L27.3611 75.4118L34.2074 80.7224V91.3459L27.3611 96.6565L20.5148 91.3459M78.4151 80.7224L71.1775 75.4118L63.94 80.7224V91.3459L71.1775 96.6565L78.4151 91.3459M78.4151 80.7224V91.3459M78.4151 80.7224L86.0438 75.4118L93.6726 80.7224M78.4151 91.3459L86.0438 96.6565L93.6726 91.3459M100.714 -62.6894V-52.0659M100.714 -62.6894L107.952 -68L115.19 -62.6894M100.714 -52.0659L107.952 -46.7553L115.19 -52.0659M115.19 -62.6894V-52.0659M115.19 -62.6894L122.721 -68L130.251 -62.6894M115.19 -52.0659L122.721 -46.7553L130.251 -52.0659M130.251 -62.6894V-52.0659M130.251 -62.6894L137.489 -68L144.727 -62.6894M130.251 -52.0659L137.489 -46.7553L144.727 -52.0659M144.727 -62.6894V-52.0659M144.727 -62.6894L152.16 -68L159.593 -62.6894M144.727 -52.0659L152.16 -46.7553L159.593 -52.0659M159.593 -62.6894V-52.0659M159.593 -62.6894L167.026 -68L174.459 -62.6894M159.593 -52.0659L167.026 -46.7553L174.459 -52.0659M174.459 -62.6894V-52.0659M174.459 -62.6894L181.794 -68L189.13 -62.6894M174.459 -52.0659L181.794 -46.7553L189.13 -52.0659M189.13 -62.6894V-52.0659M189.13 -62.6894L196.465 -68L203.8 -62.6894M189.13 -52.0659L196.465 -46.7553L203.8 -52.0659M189.13 -52.0659L182.088 -46.7553M189.13 -52.0659L196.172 -46.7553M93.6726 -46.7553V-36.1318M93.6726 -46.7553L100.91 -52.0659L108.148 -46.7553M93.6726 -36.1318L100.91 -30.8188L108.148 -36.1318M108.148 -46.7553V-36.1318M108.148 -46.7553L115.679 -52.0659L123.21 -46.7553M108.148 -36.1318L115.679 -30.8188L123.21 -36.1318M123.21 -46.7553V-36.1318M123.21 -46.7553L130.447 -52.0659L137.685 -46.7553M123.21 -36.1318L130.447 -30.8188L137.685 -36.1318M137.685 -46.7553V-36.1318M137.685 -46.7553L144.824 -52.0659L151.964 -46.7553M137.685 -36.1318L144.824 -30.8188L151.964 -36.1318M151.964 -46.7553V-36.1318M151.964 -46.7553L159.299 -52.0659L166.635 -46.7553M151.964 -36.1318L159.299 -30.8188L166.635 -36.1318M166.635 -46.7553V-36.1318M166.635 -46.7553L174.361 -52.0659L182.088 -46.7553M166.635 -36.1318L174.361 -30.8188L182.088 -36.1318M182.088 -46.7553V-36.1318M182.088 -36.1318L189.13 -30.8188M100.714 -30.8188V-20.1977M100.714 -30.8188L107.952 -36.1318L115.19 -30.8188M100.714 -20.1977L107.952 -14.8847M115.19 -30.8188V-20.1977M115.19 -30.8188L122.721 -36.1318L130.251 -30.8188M115.19 -20.1977L107.952 -14.8847M115.19 -20.1977L122.721 -14.8847L130.251 -20.1977M107.952 -14.8847L115.483 -20.1977L123.014 -14.8847V-4.26114L115.483 1.04941L107.952 -4.26114M107.952 -14.8847L107.952 -4.26114M130.251 -30.8188V-20.1977M130.251 -30.8188L137.489 -36.1318L144.727 -30.8188M130.251 -20.1977L137.489 -14.8847L144.727 -20.1977M144.727 -30.8188V-20.1977M144.727 -30.8188L152.16 -36.1318L159.593 -30.8188M144.727 -20.1977L152.16 -14.8847L159.593 -20.1977M159.593 -30.8188V-20.1977M159.593 -30.8188L167.026 -36.1318L174.459 -30.8188M159.593 -20.1977L167.026 -14.8847L174.459 -20.1977M174.459 -30.8188V-20.1977M174.459 -30.8188L181.794 -36.1318L189.13 -30.8188M174.459 -20.1977L181.794 -14.8847L189.13 -20.1977M189.13 -30.8188V-20.1977M189.13 -30.8188L196.172 -36.1318M189.13 -30.8188L196.465 -36.1318L203.8 -30.8188M189.13 -20.1977L196.465 -14.8847L203.8 -20.1977M189.13 -20.1977L182.088 -14.8847M189.13 -20.1977L196.172 -14.8847M93.6726 -14.8847V-4.26114M93.6726 -14.8847L100.91 -20.1977L108.148 -14.8847V-4.26114L100.91 1.04941L93.6726 -4.26114M107.952 -4.26114L100.714 1.04941M107.952 -4.26114L115.19 1.04941M137.685 -14.8847L130.447 -20.1977L123.21 -14.8847V-4.26114L130.447 1.04941L137.685 -4.26114M137.685 -14.8847V-4.26114M137.685 -14.8847L144.824 -20.1977L151.964 -14.8847M137.685 -4.26114L144.824 1.04941L151.964 -4.26114M151.964 -14.8847V-4.26114M151.964 -14.8847L159.299 -20.1977L166.635 -14.8847M151.964 -4.26114L159.299 1.04941L166.635 -4.26114M166.635 -14.8847V-4.26114M166.635 -14.8847L174.361 -20.1977L182.088 -14.8847M166.635 -4.26114L174.361 1.04941L182.088 -4.26114M182.088 -14.8847V-4.26114M182.088 -4.26114L189.13 1.04941M100.714 1.04941V11.673M100.714 11.673L107.952 16.9835M115.19 1.04941V11.673M115.19 1.04941L122.721 -4.26114L130.251 1.04941M115.19 11.673L107.952 16.9835M115.19 11.673L122.721 16.9835L130.251 11.673M107.952 16.9835L115.483 11.673L123.014 16.9835V27.6071L115.483 32.9176L107.952 27.6071M107.952 16.9835L107.952 27.6071M130.251 1.04941V11.673M130.251 1.04941L137.489 -4.26114L144.727 1.04941M130.251 11.673L137.489 16.9835L144.727 11.673M144.727 1.04941V11.673M144.727 1.04941L152.16 -4.26114L159.593 1.04941M144.727 11.673L152.16 16.9835L159.593 11.673M159.593 1.04941V11.673M159.593 1.04941L167.026 -4.26114L174.459 1.04941M159.593 11.673L167.026 16.9835L174.459 11.673M174.459 1.04941V11.673M174.459 1.04941L181.794 -4.26114L189.13 1.04941M174.459 11.673L181.794 16.9835L189.13 11.673M189.13 1.04941V11.673M189.13 1.04941L196.172 -4.26114M189.13 1.04941L196.465 -4.26114L203.8 1.04941M189.13 11.673L196.465 16.9835L203.8 11.673M189.13 11.673L182.088 16.9835M189.13 11.673L196.172 16.9835M93.6726 16.9835V27.6071M93.6726 16.9835L100.91 11.673L108.148 16.9835V27.6071L100.91 32.9176L93.6726 27.6071M107.952 27.6071L100.714 32.9176M107.952 27.6071L115.19 32.9176M137.685 16.9835L130.447 11.673L123.21 16.9835V27.6071L130.447 32.9176L137.685 27.6071M137.685 16.9835V27.6071M137.685 16.9835L144.824 11.673L151.964 16.9835M137.685 27.6071L144.824 32.9176L151.964 27.6071M151.964 16.9835V27.6071M151.964 16.9835L159.299 11.673L166.635 16.9835M151.964 27.6071L159.299 32.9176L166.635 27.6071M166.635 16.9835V27.6071M166.635 16.9835L174.361 11.673L182.088 16.9835M166.635 27.6071L174.361 32.9176L182.088 27.6071M182.088 16.9835V27.6071M182.088 27.6071L189.13 32.9176M100.714 32.9176V43.5412M100.714 43.5412L107.952 48.8542M115.19 32.9176V43.5412M115.19 32.9176L122.721 27.6071L130.251 32.9176M115.19 43.5412L107.952 48.8542M115.19 43.5412L122.721 48.8542L130.251 43.5412M107.952 48.8542L115.483 43.5412L123.014 48.8542V59.4753L115.483 64.7883L107.952 59.4753M107.952 48.8542L107.952 59.4753M130.251 32.9176V43.5412M130.251 32.9176L137.489 27.6071L144.727 32.9176M130.251 43.5412L137.489 48.8542L144.727 43.5412M144.727 32.9176V43.5412M144.727 32.9176L152.16 27.6071L159.593 32.9176M144.727 43.5412L152.16 48.8542L159.593 43.5412M159.593 32.9176V43.5412M159.593 32.9176L167.026 27.6071L174.459 32.9176M159.593 43.5412L167.026 48.8542L174.459 43.5412M174.459 32.9176V43.5412M174.459 32.9176L181.794 27.6071L189.13 32.9176M174.459 43.5412L181.794 48.8542L189.13 43.5412M189.13 32.9176V43.5412M189.13 32.9176L196.172 27.6071M189.13 32.9176L196.465 27.6071L203.8 32.9176M189.13 43.5412L196.465 48.8542L203.8 43.5412M189.13 43.5412L182.088 48.8542M189.13 43.5412L196.172 48.8542M93.6726 48.8542V59.4753M93.6726 48.8542L100.91 43.5412L108.148 48.8542V59.4753L100.91 64.7883L93.6726 59.4753M107.952 59.4753L100.714 64.7883M107.952 59.4753L115.19 64.7883M137.685 48.8542L130.447 43.5412L123.21 48.8542V59.4753L130.447 64.7883L137.685 59.4753M137.685 48.8542V59.4753M137.685 48.8542L144.824 43.5412L151.964 48.8542M137.685 59.4753L144.824 64.7883L151.964 59.4753M151.964 48.8542V59.4753M151.964 48.8542L159.299 43.5412L166.635 48.8542M151.964 59.4753L159.299 64.7883L166.635 59.4753M166.635 48.8542V59.4753M166.635 48.8542L174.361 43.5412L182.088 48.8542M166.635 59.4753L174.361 64.7883L182.088 59.4753M182.088 48.8542V59.4753M182.088 59.4753L189.13 64.7883M100.714 64.7883V75.4118M100.714 75.4118L107.952 80.7224M115.19 64.7883V75.4118M115.19 64.7883L122.721 59.4753L130.251 64.7883M115.19 75.4118L107.952 80.7224M115.19 75.4118L122.721 80.7224L130.251 75.4118M107.952 80.7224L115.483 75.4118L123.014 80.7224M107.952 80.7224L107.952 91.3459L115.483 96.6565L123.014 91.3459M130.251 64.7883V75.4118M130.251 64.7883L137.489 59.4753L144.727 64.7883M130.251 75.4118L137.489 80.7224M130.251 75.4118L123.014 80.7224M144.727 64.7883V75.4118M144.727 64.7883L152.16 59.4753L159.593 64.7883M144.727 75.4118L137.489 80.7224M144.727 75.4118L152.16 80.7224L159.593 75.4118M137.489 80.7224L137.489 91.3459L130.251 96.6565L123.014 91.3459M159.593 64.7883V75.4118M159.593 64.7883L167.026 59.4753L174.459 64.7883M159.593 75.4118L167.026 80.7224L174.459 75.4118M174.459 64.7883V75.4118M174.459 64.7883L181.794 59.4753L189.13 64.7883M174.459 75.4118L181.794 80.7224L189.13 75.4118M189.13 64.7883V75.4118M189.13 64.7883L196.172 59.4753M189.13 64.7883L196.465 59.4753L203.8 64.7883M189.13 75.4118L196.465 80.7224L203.8 75.4118M189.13 75.4118L182.088 80.7224M189.13 75.4118L196.172 80.7224M93.6726 80.7224V91.3459M93.6726 80.7224L100.91 75.4118L108.148 80.7224V91.3459L100.91 96.6565L93.6726 91.3459M123.014 80.7224V91.3459M151.964 80.7224L144.824 75.4118L137.685 80.7224V91.3459L144.824 96.6565L151.964 91.3459M151.964 80.7224V91.3459M151.964 80.7224L159.299 75.4118L166.635 80.7224M151.964 91.3459L159.299 96.6565L166.635 91.3459M166.635 80.7224V91.3459M166.635 80.7224L174.361 75.4118L182.088 80.7224M166.635 91.3459L174.361 96.6565L182.088 91.3459M182.088 80.7224V91.3459M182.088 91.3459L189.13 96.6565L196.172 91.3459M203.8 -62.6894V-52.0659M203.8 -62.6894L211.136 -68L218.471 -62.6894M203.8 -52.0659L211.136 -46.7553L218.471 -52.0659M203.8 -52.0659L196.172 -46.7553M203.8 -52.0659L211.429 -46.7553M218.471 -62.6894V-52.0659M218.471 -62.6894L225.709 -68L232.946 -62.6894M218.471 -52.0659L225.709 -46.7553M232.946 -62.6894V-52.0659M232.946 -62.6894L240.379 -68L247.812 -62.6894M232.946 -52.0659L225.709 -46.7553M232.946 -52.0659L240.379 -46.7553L247.812 -52.0659M225.709 -46.7553L218.569 -52.0659L211.429 -46.7553M225.709 -46.7553V-36.1318M225.709 -46.7553L233.24 -52.0659L240.771 -46.7553M247.812 -62.6894V-52.0659M247.812 -62.6894L255.343 -68L262.874 -62.6894M247.812 -52.0659L255.343 -46.7553L262.874 -52.0659M262.874 -62.6894V-52.0659M262.874 -62.6894L270.112 -68L277.349 -62.6894M262.874 -52.0659L270.112 -46.7553L277.349 -52.0659M277.349 -62.6894V-52.0659M277.349 -62.6894L284.685 -68L292.02 -62.6894V-52.0659L284.685 -46.7553L277.349 -52.0659M196.172 -46.7553V-36.1318M196.172 -36.1318L203.8 -30.8188M211.429 -46.7553V-36.1318M211.429 -36.1318L203.8 -30.8188M211.429 -36.1318L218.569 -30.8188L225.709 -36.1318M203.8 -30.8188L203.8 -20.1977M203.8 -30.8188L211.136 -36.1318L218.471 -30.8188M225.709 -36.1318L233.24 -30.8188L240.771 -36.1318M225.709 -36.1318L218.471 -30.8188M225.709 -36.1318L232.946 -30.8188M240.771 -46.7553V-36.1318M240.771 -46.7553L248.106 -52.0659L255.441 -46.7553M240.771 -36.1318L248.106 -30.8188L255.441 -36.1318M255.441 -46.7553V-36.1318M255.441 -46.7553L262.679 -52.0659L269.916 -46.7553M255.441 -36.1318L262.679 -30.8188L269.916 -36.1318M269.916 -46.7553V-36.1318M269.916 -46.7553L277.154 -52.0659L284.391 -46.7553V-36.1318L277.154 -30.8188L269.916 -36.1318M203.8 -20.1977L211.136 -14.8847L218.471 -20.1977M203.8 -20.1977L196.172 -14.8847M203.8 -20.1977L211.429 -14.8847M218.471 -30.8188V-20.1977M218.471 -20.1977L225.709 -14.8847M232.946 -30.8188V-20.1977M232.946 -30.8188L240.379 -36.1318L247.812 -30.8188M232.946 -20.1977L225.709 -14.8847M232.946 -20.1977L240.379 -14.8847L247.812 -20.1977M225.709 -14.8847L218.569 -20.1977L211.429 -14.8847M225.709 -14.8847V-4.26114M225.709 -14.8847L233.24 -20.1977L240.771 -14.8847M247.812 -30.8188V-20.1977M247.812 -30.8188L255.343 -36.1318L262.874 -30.8188M247.812 -20.1977L255.343 -14.8847L262.874 -20.1977M262.874 -30.8188V-20.1977M262.874 -30.8188L270.112 -36.1318L277.349 -30.8188M262.874 -20.1977L270.112 -14.8847L277.349 -20.1977M277.349 -30.8188V-20.1977M277.349 -30.8188L284.685 -36.1318L292.02 -30.8188V-20.1977L284.685 -14.8847L277.349 -20.1977M196.172 -14.8847V-4.26114M196.172 -4.26114L203.8 1.04941M211.429 -14.8847V-4.26114M211.429 -4.26114L203.8 1.04941M211.429 -4.26114L218.569 1.04941L225.709 -4.26114M203.8 1.04941L203.8 11.673M203.8 1.04941L211.136 -4.26114L218.471 1.04941M225.709 -4.26114L233.24 1.04941L240.771 -4.26114M225.709 -4.26114L218.471 1.04941M225.709 -4.26114L232.946 1.04941M240.771 -14.8847V-4.26114M240.771 -14.8847L248.106 -20.1977L255.441 -14.8847M240.771 -4.26114L248.106 1.04941L255.441 -4.26114M255.441 -14.8847V-4.26114M255.441 -14.8847L262.679 -20.1977L269.916 -14.8847M255.441 -4.26114L262.679 1.04941L269.916 -4.26114M269.916 -14.8847V-4.26114M269.916 -14.8847L277.154 -20.1977L284.391 -14.8847V-4.26114L277.154 1.04941L269.916 -4.26114M203.8 11.673L211.136 16.9835L218.471 11.673M203.8 11.673L196.172 16.9835M203.8 11.673L211.429 16.9835M218.471 1.04941V11.673M218.471 11.673L225.709 16.9835M232.946 1.04941V11.673M232.946 1.04941L240.379 -4.26114L247.812 1.04941M232.946 11.673L225.709 16.9835M232.946 11.673L240.379 16.9835L247.812 11.673M225.709 16.9835L218.569 11.673L211.429 16.9835M225.709 16.9835V27.6071M225.709 16.9835L233.24 11.673L240.771 16.9835M247.812 1.04941V11.673M247.812 1.04941L255.343 -4.26114L262.874 1.04941M247.812 11.673L255.343 16.9835L262.874 11.673M262.874 1.04941V11.673M262.874 1.04941L270.112 -4.26114L277.349 1.04941M262.874 11.673L270.112 16.9835L277.349 11.673M277.349 1.04941V11.673M277.349 1.04941L284.685 -4.26114L292.02 1.04941V11.673L284.685 16.9835L277.349 11.673M196.172 16.9835V27.6071M196.172 27.6071L203.8 32.9176M211.429 16.9835V27.6071M211.429 27.6071L203.8 32.9176M211.429 27.6071L218.569 32.9176L225.709 27.6071M203.8 32.9176L203.8 43.5412M203.8 32.9176L211.136 27.6071L218.471 32.9176M225.709 27.6071L233.24 32.9176L240.771 27.6071M225.709 27.6071L218.471 32.9176M225.709 27.6071L232.946 32.9176M240.771 16.9835V27.6071M240.771 16.9835L248.106 11.673L255.441 16.9835M240.771 27.6071L248.106 32.9176L255.441 27.6071M255.441 16.9835V27.6071M255.441 16.9835L262.679 11.673L269.916 16.9835M255.441 27.6071L262.679 32.9176L269.916 27.6071M269.916 16.9835V27.6071M269.916 16.9835L277.154 11.673L284.391 16.9835V27.6071L277.154 32.9176L269.916 27.6071M203.8 43.5412L211.136 48.8542L218.471 43.5412M203.8 43.5412L196.172 48.8542M203.8 43.5412L211.429 48.8542M218.471 32.9176V43.5412M218.471 43.5412L225.709 48.8542M232.946 32.9176V43.5412M232.946 32.9176L240.379 27.6071L247.812 32.9176M232.946 43.5412L225.709 48.8542M232.946 43.5412L240.379 48.8542L247.812 43.5412M225.709 48.8542L218.569 43.5412L211.429 48.8542M225.709 48.8542V59.4753M225.709 48.8542L233.24 43.5412L240.771 48.8542M247.812 32.9176V43.5412M247.812 32.9176L255.343 27.6071L262.874 32.9176M247.812 43.5412L255.343 48.8542L262.874 43.5412M262.874 32.9176V43.5412M262.874 32.9176L270.112 27.6071L277.349 32.9176M262.874 43.5412L270.112 48.8542L277.349 43.5412M277.349 32.9176V43.5412M277.349 32.9176L284.685 27.6071L292.02 32.9176V43.5412L284.685 48.8542L277.349 43.5412M196.172 48.8542V59.4753M196.172 59.4753L203.8 64.7883M211.429 48.8542V59.4753M211.429 59.4753L203.8 64.7883M211.429 59.4753L218.569 64.7883L225.709 59.4753M203.8 64.7883L203.8 75.4118M203.8 64.7883L211.136 59.4753L218.471 64.7883M225.709 59.4753L233.24 64.7883L240.771 59.4753M225.709 59.4753L218.471 64.7883M225.709 59.4753L232.946 64.7883M240.771 48.8542V59.4753M240.771 48.8542L248.106 43.5412L255.441 48.8542M240.771 59.4753L248.106 64.7883L255.441 59.4753M255.441 48.8542V59.4753M255.441 48.8542L262.679 43.5412L269.916 48.8542M255.441 59.4753L262.679 64.7883L269.916 59.4753M269.916 48.8542V59.4753M269.916 48.8542L277.154 43.5412L284.391 48.8542V59.4753L277.154 64.7883L269.916 59.4753M203.8 75.4118L211.136 80.7224L218.471 75.4118M203.8 75.4118L196.172 80.7224M203.8 75.4118L211.429 80.7224M218.471 64.7883V75.4118M218.471 75.4118L225.709 80.7224M232.946 64.7883V75.4118M232.946 64.7883L240.379 59.4753L247.812 64.7883M232.946 75.4118L225.709 80.7224M232.946 75.4118L240.379 80.7224L247.812 75.4118M225.709 80.7224L218.569 75.4118L211.429 80.7224M225.709 80.7224V91.3459M225.709 80.7224L233.24 75.4118L240.771 80.7224M247.812 64.7883V75.4118M247.812 64.7883L255.343 59.4753L262.874 64.7883M247.812 75.4118L255.343 80.7224L262.874 75.4118M262.874 64.7883V75.4118M262.874 64.7883L270.112 59.4753L277.349 64.7883M262.874 75.4118L270.112 80.7224L277.349 75.4118M277.349 64.7883V75.4118M277.349 64.7883L284.685 59.4753L292.02 64.7883V75.4118L284.685 80.7224L277.349 75.4118M196.172 80.7224V91.3459M196.172 91.3459L203.8 96.6565L211.429 91.3459M211.429 80.7224V91.3459M211.429 91.3459L218.569 96.6565L225.709 91.3459M225.709 91.3459L233.24 96.6565L240.771 91.3459M240.771 80.7224V91.3459M240.771 80.7224L248.106 75.4118L255.441 80.7224M240.771 91.3459L248.106 96.6565L255.441 91.3459M255.441 80.7224V91.3459M255.441 80.7224L262.679 75.4118L269.916 80.7224M255.441 91.3459L262.679 96.6565L269.916 91.3459M269.916 80.7224V91.3459M269.916 80.7224L277.154 75.4118L284.391 80.7224V91.3459L277.154 96.6565L269.916 91.3459M-104.871 96.6516L-112.304 91.341L-119.737 96.6516V107.275M-104.871 96.6516V107.275M-104.871 96.6516L-97.8287 91.341L-90.7868 96.6516M-104.871 107.275L-112.304 112.586M-104.871 107.275L-97.8287 112.586M-112.304 112.586L-119.737 107.275M-112.304 112.586L-112.304 123.209M-119.737 107.275L-127.17 112.586V123.209L-119.737 128.522M-90.7868 96.6516V107.275M-90.7868 96.6516L-83.158 91.341L-75.5293 96.6516M-90.7868 107.275L-97.8287 112.586M-90.7868 107.275L-83.158 112.586L-75.5293 107.275M-97.8287 112.586L-104.968 107.275L-112.108 112.586V123.209L-104.968 128.522L-97.8287 123.209M-97.8287 112.586V123.209M-75.5293 96.6516V107.275M-75.5293 96.6516L-68.0961 91.341L-60.663 96.6516M-75.5293 107.275L-68.0961 112.586L-60.663 107.275M-60.663 96.6516V107.275M-60.663 96.6516L-53.132 91.341L-45.6011 96.6516M-60.663 107.275L-53.132 112.586L-45.6011 107.275M-45.6011 96.6516V107.275M-45.6011 96.6516L-38.5591 91.341L-31.5172 96.6516M-45.6011 107.275L-38.5591 112.586L-31.5172 107.275M-31.5172 96.6516V107.275M-31.5172 96.6516L-24.0841 91.341L-16.6509 96.6516M-31.5172 107.275L-24.0841 112.586M-16.6509 96.6516V107.275M-16.6509 96.6516L-9.3156 91.341L-1.98026 96.6516M-16.6509 107.275L-24.0841 112.586M-16.6509 107.275L-9.3156 112.586L-1.98026 107.275M-16.6509 107.275L-9.21779 112.586M-24.0841 112.586L-31.4194 107.275L-38.7548 112.586M-24.0841 112.586V123.209M-112.304 123.209L-119.737 128.522M-112.304 123.209L-104.871 128.522M-119.737 128.522L-119.737 139.146M-97.8287 123.209L-104.871 128.522M-97.8287 123.209L-90.7868 128.522M-82.9624 112.586L-90.2977 107.275L-97.6331 112.586V123.209L-90.2977 128.522L-82.9624 123.209M-82.9624 112.586V123.209M-82.9624 112.586L-75.6271 107.275L-68.2917 112.586M-82.9624 123.209L-75.6271 128.522L-68.2917 123.209M-68.2917 112.586V123.209M-68.2917 112.586L-60.8586 107.275L-53.4254 112.586M-68.2917 123.209L-60.8586 128.522L-53.4254 123.209M-53.4254 112.586V123.209M-53.4254 112.586L-46.0901 107.275L-38.7548 112.586M-53.4254 123.209L-46.0901 128.522L-38.7548 123.209M-38.7548 112.586V123.209M-38.7548 123.209L-31.4194 128.522L-24.0841 123.209M-24.0841 123.209L-31.5172 128.522M-24.0841 123.209L-16.6509 128.522M-104.871 128.522V139.146M-104.871 139.146L-112.304 144.456M-104.871 139.146L-97.8287 144.456M-112.304 144.456L-119.737 139.146M-112.304 144.456L-112.304 155.08M-119.737 139.146L-127.17 144.456V155.08L-119.737 160.39M-90.7868 128.522V139.146M-90.7868 128.522L-83.158 123.209L-75.5293 128.522M-90.7868 139.146L-97.8287 144.456M-90.7868 139.146L-83.158 144.456M-97.8287 144.456L-104.968 139.146L-112.108 144.456V155.08L-104.968 160.39L-97.8287 155.08M-97.8287 144.456V155.08M-97.8287 144.456L-90.4933 139.146L-83.158 144.456M-75.5293 128.522V139.146M-75.5293 128.522L-68.0961 123.209L-60.663 128.522M-75.5293 139.146L-83.158 144.456M-75.5293 139.146L-68.0961 144.456L-60.663 139.146M-83.158 144.456V155.08M-60.663 128.522V139.146M-60.663 128.522L-53.132 123.209L-45.6011 128.522M-60.663 139.146L-53.132 144.456L-45.6011 139.146M-45.6011 128.522V139.146M-45.6011 128.522L-38.5591 123.209L-31.5172 128.522M-45.6011 139.146L-38.5591 144.456M-31.5172 128.522V139.146M-31.5172 139.146L-38.5591 144.456M-31.5172 139.146L-24.0841 144.456M-38.5591 144.456L-45.8945 139.146L-53.2298 144.456V155.08L-45.8945 160.39L-38.5591 155.08L-38.5591 144.456ZM-16.6509 128.522V139.146M-16.6509 128.522L-9.21779 123.209M-16.6509 128.522L-9.3156 123.209L-1.98026 128.522M-16.6509 139.146L-24.0841 144.456M-16.6509 139.146L-9.3156 144.456L-1.98026 139.146M-16.6509 139.146L-9.21779 144.456M-24.0841 144.456L-31.4194 139.146L-38.7548 144.456V155.08M-24.0841 144.456V155.08M-112.304 155.08L-119.737 160.39M-112.304 155.08L-104.871 160.39M-119.737 160.39L-119.737 171.014M-97.8287 155.08L-90.4933 160.39L-83.158 155.08M-97.8287 155.08L-104.871 160.39M-97.8287 155.08L-90.7868 160.39M-83.158 155.08L-90.7868 160.39M-83.158 155.08L-75.5293 160.39M-68.2917 144.456L-75.6271 139.146L-82.9624 144.456V155.08L-75.6271 160.39L-68.2917 155.08M-68.2917 144.456V155.08M-68.2917 144.456L-60.8586 139.146L-53.4254 144.456V155.08L-60.8586 160.39M-68.2917 155.08L-60.8586 160.39M-60.8586 160.39L-53.3276 155.08L-45.7967 160.39M-60.8586 160.39V171.014M-24.0841 155.08L-31.4194 160.39L-38.7548 155.08M-24.0841 155.08L-31.5172 160.39V171.014L-24.0841 176.325M-24.0841 155.08L-16.6509 160.39M-38.7548 155.08L-45.7967 160.39M-38.7548 155.08L-31.7128 160.39V171.014L-38.7547 176.325M-104.871 160.39V171.014M-104.871 171.014L-112.304 176.325M-104.871 171.014L-97.8287 176.325M-112.304 176.325L-119.737 171.014M-112.304 176.325L-112.304 186.948M-119.737 171.014L-127.17 176.325V186.948L-119.737 192.261M-90.7868 160.39V171.014M-90.7868 171.014L-97.8287 176.325M-90.7868 171.014L-83.158 176.325M-97.8287 176.325L-104.968 171.014L-112.108 176.325V186.948L-104.968 192.261L-97.8287 186.948M-97.8287 176.325V186.948M-97.8287 176.325L-90.4933 171.014L-83.158 176.325M-75.5293 160.39V171.014M-75.5293 160.39L-68.0961 155.08L-60.663 160.39V171.014L-68.0961 176.325L-75.5293 171.014M-75.5293 171.014L-83.158 176.325M-83.158 176.325V186.948M-45.7967 160.39V171.014M-45.7967 171.014L-53.3276 176.325L-60.8586 171.014M-45.7967 171.014L-38.7547 176.325M-60.8586 171.014L-68.2917 176.325M-60.8586 171.014L-53.4254 176.325V186.948L-60.8586 192.261L-68.2917 186.948M-38.7547 176.325L-31.4194 171.014L-24.0841 176.325M-38.7547 176.325L-38.7548 186.948L-31.4194 192.261L-24.0841 186.948M-16.6509 160.39V171.014M-16.6509 160.39L-9.21779 155.08M-16.6509 160.39L-9.3156 155.08L-1.98026 160.39M-16.6509 171.014L-24.0841 176.325M-16.6509 171.014L-9.3156 176.325L-1.98026 171.014M-16.6509 171.014L-9.21779 176.325M-24.0841 176.325V186.948M-112.304 186.948L-119.737 192.261M-112.304 186.948L-104.871 192.261M-119.737 192.261L-119.737 202.882M-97.8287 186.948L-90.4933 192.261L-83.158 186.948M-97.8287 186.948L-104.871 192.261M-97.8287 186.948L-90.7868 192.261M-83.158 186.948L-90.7868 192.261M-83.158 186.948L-75.5293 192.261M-68.2917 176.325L-75.6271 171.014L-82.9624 176.325V186.948L-75.6271 192.261L-68.2917 186.948M-68.2917 176.325V186.948M-38.5591 186.948V176.325L-45.8945 171.014L-53.2298 176.325V186.948L-45.8945 192.261L-38.5591 186.948ZM-38.5591 186.948L-45.6011 192.261M-38.5591 186.948L-31.5172 192.261M-24.0841 186.948L-31.5172 192.261M-24.0841 186.948L-16.6509 192.261M-104.871 192.261V202.882M-104.871 202.882L-112.304 208.195M-104.871 202.882L-97.8287 208.195M-112.304 208.195L-119.737 202.882M-112.304 208.195L-112.304 218.819M-119.737 202.882L-127.17 208.195V218.819L-119.737 224.129M-90.7868 192.261V202.882M-90.7868 202.882L-97.8287 208.195M-90.7868 202.882L-83.158 208.195L-75.5293 202.882M-97.8287 208.195L-104.968 202.882L-112.108 208.195V218.819L-104.968 224.129L-97.8287 218.819M-97.8287 208.195V218.819M-75.5293 192.261V202.882M-75.5293 192.261L-68.0961 186.948L-60.663 192.261M-75.5293 202.882L-68.0961 208.195L-60.663 202.882M-60.663 192.261V202.882M-60.663 192.261L-53.132 186.948L-45.6011 192.261M-60.663 202.882L-53.132 208.195L-45.6011 202.882M-45.6011 192.261V202.882M-45.6011 202.882L-38.5591 208.195L-31.5172 202.882M-31.5172 192.261V202.882M-31.5172 202.882L-24.0841 208.195M-16.6509 192.261V202.882M-16.6509 192.261L-9.21779 186.948M-16.6509 192.261L-9.3156 186.948L-1.98026 192.261M-16.6509 202.882L-24.0841 208.195M-16.6509 202.882L-9.3156 208.195L-1.98026 202.882M-16.6509 202.882L-9.21779 208.195M-24.0841 208.195L-31.4194 202.882L-38.7548 208.195M-24.0841 208.195V218.819M-112.304 218.819L-119.737 224.129M-112.304 218.819L-104.871 224.129M-119.737 224.129L-119.737 234.753M-97.8287 218.819L-104.871 224.129M-97.8287 218.819L-90.7868 224.129V234.753L-97.8287 240.063M-82.9624 208.195L-90.2977 202.882L-97.6331 208.195V218.819L-90.2977 224.129L-82.9624 218.819M-82.9624 208.195V218.819M-82.9624 208.195L-75.6271 202.882L-68.2917 208.195M-82.9624 218.819L-75.6271 224.129L-68.2917 218.819M-82.9624 218.819L-90.5911 224.129V234.753L-82.9624 240.063M-82.9624 218.819L-75.3336 224.129V234.753L-82.9624 240.063M-68.2917 208.195V218.819M-68.2917 208.195L-60.8586 202.882L-53.4254 208.195M-68.2917 218.819L-60.8586 224.129L-53.4254 218.819M-53.4254 208.195V218.819M-53.4254 208.195L-46.0901 202.882L-38.7548 208.195M-53.4254 218.819L-46.0901 224.129L-38.7548 218.819M-38.7548 208.195V218.819M-38.7548 218.819L-31.4194 224.129L-24.0841 218.819M-24.0841 218.819L-31.5172 224.129M-24.0841 218.819L-16.6509 224.129M-104.871 224.129V234.753M-104.871 234.753L-112.304 240.063M-104.871 234.753L-97.8287 240.063M-112.304 240.063L-119.737 234.753M-112.304 240.063L-112.304 250.687L-119.737 256L-127.17 250.687V240.063L-119.737 234.753M-97.8287 240.063L-104.968 234.753L-112.108 240.063V250.687L-104.968 256L-97.8287 250.687M-97.8287 240.063V250.687M-97.8287 240.063L-90.4933 234.753L-83.158 240.063V250.687L-90.4933 256L-97.8287 250.687M-82.9624 240.063L-75.6271 234.753L-68.2917 240.063V250.687L-75.6271 256L-82.9624 250.687V240.063ZM-60.663 224.129L-68.0961 218.819L-75.5293 224.129V234.753L-68.0961 240.063M-60.663 224.129V234.753M-60.663 224.129L-53.132 218.819L-45.6011 224.129M-60.663 234.753L-68.0961 240.063M-60.663 234.753L-53.132 240.063L-45.6011 234.753M-60.663 234.753L-53.2298 240.063V250.687L-60.663 256L-68.0961 250.687V240.063M-45.6011 224.129V234.753M-45.6011 224.129L-38.5591 218.819L-31.5172 224.129M-45.6011 234.753L-38.5591 240.063L-31.5172 234.753M-31.5172 224.129V234.753M-31.5172 234.753L-24.0841 240.063M-16.6509 224.129V234.753M-16.6509 224.129L-9.21779 218.819M-16.6509 234.753L-24.0841 240.063M-16.6509 234.753L-9.21779 240.063M-24.0841 240.063L-31.4194 234.753L-38.7548 240.063M-24.0841 240.063V250.687M-38.7548 240.063L-46.0901 234.753L-53.4254 240.063V250.687L-46.0901 256L-38.7548 250.687M-38.7548 240.063V250.687M-38.7548 250.687L-31.4194 256L-24.0841 250.687M-24.0841 250.687L-16.6509 256L-9.21779 250.687M-1.98026 96.6516V107.275M-1.98026 96.6516L5.35508 91.341L12.6904 96.6516M-1.98026 107.275L5.35508 112.586L12.6904 107.275M12.6904 96.6516V107.275M12.6904 96.6516L20.1236 91.341L27.5567 96.6516M12.6904 107.275L20.1236 112.586L27.5567 107.275M27.5567 96.6516V107.275M27.5567 96.6516L34.5008 91.341L41.445 96.6516M27.5567 107.275L34.5008 112.586L41.445 107.275M41.445 96.6516V107.275M41.445 96.6516L49.1715 91.341L56.8981 96.6516M41.445 107.275L49.1715 112.586L56.8981 107.275M56.8981 96.6516V107.275M56.8981 96.6516L64.1356 91.341L71.3731 96.6516M56.8981 107.275L64.1356 112.586M71.3731 96.6516V107.275M71.3731 96.6516L78.6106 91.341L85.8482 96.6516M71.3731 107.275L64.1356 112.586M71.3731 107.275L78.6106 112.586L85.8482 107.275M64.1356 112.586L56.6047 107.275L49.0737 112.586V123.209L56.6047 128.522L64.1356 123.209M64.1356 112.586V123.209M85.8482 96.6516V107.275M85.8482 96.6516L93.2813 91.341L100.714 96.6516M85.8482 107.275L93.2813 112.586L100.714 107.275M-9.21779 112.586V123.209M-9.21779 112.586L-1.78464 107.275L5.64849 112.586V123.209L-1.78464 128.522L-9.21779 123.209M20.5148 112.586L12.9838 107.275L5.45288 112.586V123.209L12.9838 128.522L20.5148 123.209M20.5148 112.586V123.209M20.5148 112.586L27.3611 107.275L34.2074 112.586V123.209L27.3611 128.522L20.5148 123.209M64.1356 123.209L56.8981 128.522M64.1356 123.209L71.3731 128.522M78.4151 112.586L71.1775 107.275L63.94 112.586V123.209L71.1775 128.522L78.4151 123.209M78.4151 112.586V123.209M78.4151 112.586L86.0438 107.275L93.6726 112.586M78.4151 123.209L86.0438 128.522L93.6726 123.209M-1.98026 128.522V139.146M-1.98026 128.522L5.35508 123.209L12.6904 128.522M-1.98026 139.146L5.35508 144.456L12.6904 139.146M12.6904 128.522V139.146M12.6904 128.522L20.1236 123.209L27.5567 128.522M12.6904 139.146L20.1236 144.456L27.5567 139.146M27.5567 128.522V139.146M27.5567 128.522L34.5008 123.209L41.445 128.522M27.5567 139.146L34.5008 144.456L41.445 139.146M41.445 128.522V139.146M41.445 128.522L49.1715 123.209L56.8981 128.522M41.445 139.146L49.1715 144.456L56.8981 139.146M56.8981 128.522V139.146M56.8981 139.146L64.1356 144.456M71.3731 128.522V139.146M71.3731 128.522L78.6106 123.209L85.8482 128.522M71.3731 139.146L64.1356 144.456M71.3731 139.146L78.6106 144.456L85.8482 139.146M64.1356 144.456L56.6047 139.146L49.0737 144.456V155.08L56.6047 160.39L64.1356 155.08M64.1356 144.456V155.08M85.8482 128.522V139.146M85.8482 128.522L93.2813 123.209L100.714 128.522M85.8482 139.146L93.2813 144.456L100.714 139.146M-9.21779 144.456V155.08M-9.21779 144.456L-1.78464 139.146L5.64849 144.456V155.08L-1.78464 160.39L-9.21779 155.08M20.5148 144.456L12.9838 139.146L5.45288 144.456V155.08L12.9838 160.39L20.5148 155.08M20.5148 144.456V155.08M20.5148 144.456L27.3611 139.146L34.2074 144.456V155.08L27.3611 160.39L20.5148 155.08M64.1356 155.08L56.8981 160.39M64.1356 155.08L71.3731 160.39M78.4151 144.456L71.1775 139.146L63.94 144.456V155.08L71.1775 160.39L78.4151 155.08M78.4151 144.456V155.08M78.4151 144.456L86.0438 139.146L93.6726 144.456M78.4151 155.08L86.0438 160.39L93.6726 155.08M-1.98026 160.39V171.014M-1.98026 160.39L5.35508 155.08L12.6904 160.39V171.014L5.35508 176.325L-1.98026 171.014M41.445 160.39L34.5008 155.08L27.5567 160.39V171.014M41.445 160.39V171.014M41.445 160.39L49.1715 155.08L56.8981 160.39M41.445 171.014L34.5008 176.325L27.5567 171.014M41.445 171.014L49.1715 176.325L56.8981 171.014M27.5567 171.014L20.7104 176.325V186.948L27.5567 192.261M27.5567 171.014L34.403 176.325M56.8981 160.39V171.014M56.8981 171.014L64.1356 176.325L71.3731 171.014M71.3731 160.39V171.014M71.3731 160.39L78.6106 155.08L85.8482 160.39M71.3731 171.014L78.6106 176.325L85.8482 171.014M85.8482 160.39V171.014M85.8482 160.39L93.2813 155.08L100.714 160.39M85.8482 171.014L93.2813 176.325L100.714 171.014M-9.21779 176.325V186.948M-9.21779 176.325L-1.78464 171.014L5.64849 176.325V186.948L-1.78464 192.261L-9.21779 186.948M34.403 176.325V186.948M34.403 176.325L41.6406 171.014L48.8781 176.325M34.403 186.948L27.5567 192.261M34.403 186.948L41.6406 192.261L48.8781 186.948M27.5567 192.261L34.5008 186.948L41.445 192.261M27.5567 192.261V202.882M48.8781 176.325V186.948M48.8781 176.325L56.409 171.014L63.94 176.325M48.8781 186.948L56.409 192.261L63.94 186.948M63.94 176.325V186.948M63.94 176.325L71.1775 171.014L78.4151 176.325M63.94 186.948L71.1775 192.261L78.4151 186.948M78.4151 176.325V186.948M78.4151 176.325L86.0438 171.014L93.6726 176.325M78.4151 186.948L86.0438 192.261L93.6726 186.948M-1.98026 192.261V202.882M-1.98026 192.261L5.35508 186.948L12.6904 192.261V202.882L5.35508 208.195L-1.98026 202.882M41.445 192.261V202.882M41.445 192.261L49.1715 186.948L56.8981 192.261M41.445 202.882L34.5008 208.195L27.5567 202.882M41.445 202.882L49.1715 208.195L56.8981 202.882M27.5567 202.882L20.7104 208.195M27.5567 202.882L34.403 208.195M56.8981 192.261V202.882M56.8981 192.261L64.1356 186.948L71.3731 192.261M56.8981 202.882L64.1356 208.195L71.3731 202.882M71.3731 192.261V202.882M71.3731 192.261L78.6106 186.948L85.8482 192.261M71.3731 202.882L78.6106 208.195L85.8482 202.882M85.8482 192.261V202.882M85.8482 192.261L93.2813 186.948L100.714 192.261V202.882L93.2813 208.195L85.8482 202.882M-9.21779 208.195V218.819M-9.21779 208.195L-1.78464 202.882L5.64849 208.195M-9.21779 218.819L-1.78464 224.129M5.64849 208.195V218.819M5.64849 208.195L13.1795 202.882L20.7104 208.195M5.64849 218.819L-1.78464 224.129M5.64849 218.819L13.1795 224.129L20.7104 218.819M-1.78464 224.129L-9.11999 218.819L-16.4553 224.129V234.753L-9.11999 240.063L-1.78464 234.753M-1.78464 224.129V234.753M-1.78464 224.129L5.5507 218.819L12.886 224.129M20.7104 208.195V218.819M20.7104 218.819L27.5567 224.129M34.403 208.195V218.819M34.403 208.195L41.6406 202.882L48.8781 208.195M34.403 218.819L27.5567 224.129M34.403 218.819L41.6406 224.129L48.8781 218.819M27.5567 224.129L34.5008 218.819L41.445 224.129M27.5567 224.129V234.753M48.8781 208.195V218.819M48.8781 208.195L56.409 202.882L63.94 208.195M48.8781 218.819L56.409 224.129L63.94 218.819M63.94 208.195V218.819M63.94 208.195L71.1775 202.882L78.4151 208.195M63.94 218.819L71.1775 224.129L78.4151 218.819M78.4151 208.195V218.819M78.4151 208.195L86.0438 202.882L93.6726 208.195M78.4151 218.819L86.0438 224.129L93.6726 218.819M-1.78464 234.753L5.5507 240.063L12.886 234.753M-1.78464 234.753L-9.21779 240.063M-1.78464 234.753L5.64849 240.063M12.886 224.129V234.753M12.886 224.129L20.3192 218.819L27.7523 224.129V234.753L20.3192 240.063L12.886 234.753M41.445 224.129V234.753M41.445 224.129L49.1715 218.819L56.8981 224.129M41.445 234.753L34.5008 240.063L27.5567 234.753M41.445 234.753L49.1715 240.063L56.8981 234.753M27.5567 234.753L20.7104 240.063M27.5567 234.753L34.403 240.063M56.8981 224.129V234.753M56.8981 224.129L64.1356 218.819L71.3731 224.129M56.8981 234.753L64.1356 240.063L71.3731 234.753M71.3731 224.129V234.753M71.3731 224.129L78.6106 218.819L85.8482 224.129M71.3731 234.753L78.6106 240.063L85.8482 234.753M85.8482 224.129V234.753M85.8482 224.129L93.2813 218.819L100.714 224.129M85.8482 234.753L93.2813 240.063L100.714 234.753M-9.21779 240.063V250.687M-9.21779 250.687L-1.78464 256L5.64849 250.687M5.64849 240.063V250.687M5.64849 240.063L13.1795 234.753L20.7104 240.063M5.64849 250.687L13.1795 256L20.7104 250.687M20.7104 240.063V250.687M20.7104 250.687L27.5567 256L34.403 250.687M34.403 240.063V250.687M34.403 240.063L41.6406 234.753L48.8781 240.063M34.403 250.687L41.6406 256L48.8781 250.687M48.8781 240.063V250.687M48.8781 240.063L56.409 234.753L63.94 240.063M48.8781 250.687L56.409 256L63.94 250.687M63.94 240.063V250.687M63.94 240.063L71.1775 234.753L78.4151 240.063M63.94 250.687L71.1775 256L78.4151 250.687M78.4151 240.063V250.687M78.4151 240.063L86.0438 234.753L93.6726 240.063M78.4151 250.687L86.0438 256L93.6726 250.687M100.714 96.6516V107.275M100.714 96.6516L107.952 91.341L115.19 96.6516M100.714 107.275L107.952 112.586L115.19 107.275M115.19 96.6516V107.275M115.19 96.6516L122.721 91.341L130.251 96.6516M115.19 107.275L122.721 112.586L130.251 107.275M130.251 96.6516V107.275M130.251 96.6516L137.489 91.341L144.727 96.6516M130.251 107.275L137.489 112.586L144.727 107.275M144.727 96.6516V107.275M144.727 96.6516L152.16 91.341L159.593 96.6516M144.727 107.275L152.16 112.586L159.593 107.275M159.593 96.6516V107.275M159.593 96.6516L167.026 91.341L174.459 96.6516M159.593 107.275L167.026 112.586L174.459 107.275M174.459 96.6516V107.275M174.459 96.6516L181.794 91.341L189.13 96.6516M174.459 107.275L181.794 112.586L189.13 107.275M189.13 96.6516V107.275M189.13 96.6516L196.465 91.341L203.8 96.6516M189.13 107.275L196.465 112.586L203.8 107.275M189.13 107.275L182.088 112.586M189.13 107.275L196.172 112.586M93.6726 112.586V123.209M93.6726 112.586L100.91 107.275L108.148 112.586M93.6726 123.209L100.91 128.522L108.148 123.209M108.148 112.586V123.209M108.148 112.586L115.679 107.275L123.21 112.586M108.148 123.209L115.679 128.522L123.21 123.209M123.21 112.586V123.209M123.21 112.586L130.447 107.275L137.685 112.586M123.21 123.209L130.447 128.522L137.685 123.209M137.685 112.586V123.209M137.685 112.586L144.824 107.275L151.964 112.586M137.685 123.209L144.824 128.522L151.964 123.209M151.964 112.586V123.209M151.964 112.586L159.299 107.275L166.635 112.586M151.964 123.209L159.299 128.522L166.635 123.209M166.635 112.586V123.209M166.635 112.586L174.361 107.275L182.088 112.586M166.635 123.209L174.361 128.522L182.088 123.209M182.088 112.586V123.209M182.088 123.209L189.13 128.522M100.714 128.522V139.146M100.714 128.522L107.952 123.209L115.19 128.522M100.714 139.146L107.952 144.456L115.19 139.146M115.19 128.522V139.146M115.19 128.522L122.721 123.209L130.251 128.522M115.19 139.146L122.721 144.456L130.251 139.146M130.251 128.522V139.146M130.251 128.522L137.489 123.209L144.727 128.522M130.251 139.146L137.489 144.456L144.727 139.146M144.727 128.522V139.146M144.727 128.522L152.16 123.209L159.593 128.522M144.727 139.146L152.16 144.456L159.593 139.146M159.593 128.522V139.146M159.593 128.522L167.026 123.209L174.459 128.522M159.593 139.146L167.026 144.456L174.459 139.146M174.459 128.522V139.146M174.459 128.522L181.794 123.209L189.13 128.522M174.459 139.146L181.794 144.456L189.13 139.146M189.13 128.522V139.146M189.13 128.522L196.172 123.209M189.13 128.522L196.465 123.209L203.8 128.522M189.13 139.146L196.465 144.456L203.8 139.146M189.13 139.146L182.088 144.456M189.13 139.146L196.172 144.456M93.6726 144.456V155.08M93.6726 144.456L100.91 139.146L108.148 144.456M93.6726 155.08L100.91 160.39L108.148 155.08M108.148 144.456V155.08M108.148 144.456L115.679 139.146L123.21 144.456M108.148 155.08L115.679 160.39L123.21 155.08M123.21 144.456V155.08M123.21 144.456L130.447 139.146L137.685 144.456M123.21 155.08L130.447 160.39L137.685 155.08M137.685 144.456V155.08M137.685 144.456L144.824 139.146L151.964 144.456M137.685 155.08L144.824 160.39L151.964 155.08M151.964 144.456V155.08M151.964 144.456L159.299 139.146L166.635 144.456M151.964 155.08L159.299 160.39L166.635 155.08M166.635 144.456V155.08M166.635 144.456L174.361 139.146L182.088 144.456M166.635 155.08L174.361 160.39L182.088 155.08M182.088 144.456V155.08M182.088 155.08L189.13 160.39M100.714 160.39V171.014M100.714 160.39L107.952 155.08L115.19 160.39M100.714 171.014L107.952 176.325L115.19 171.014M115.19 160.39V171.014M115.19 160.39L122.721 155.08L130.251 160.39M115.19 171.014L122.721 176.325L130.251 171.014M130.251 160.39V171.014M130.251 160.39L137.489 155.08L144.727 160.39M130.251 171.014L137.489 176.325L144.727 171.014M144.727 160.39V171.014M144.727 160.39L152.16 155.08L159.593 160.39M144.727 171.014L152.16 176.325L159.593 171.014M159.593 160.39V171.014M159.593 160.39L167.026 155.08L174.459 160.39M159.593 171.014L167.026 176.325L174.459 171.014M174.459 160.39V171.014M174.459 160.39L181.794 155.08L189.13 160.39M174.459 171.014L181.794 176.325L189.13 171.014M189.13 160.39V171.014M189.13 160.39L196.172 155.08M189.13 160.39L196.465 155.08L203.8 160.39M189.13 171.014L196.465 176.325L203.8 171.014M189.13 171.014L182.088 176.325M189.13 171.014L196.172 176.325M93.6726 176.325V186.948M93.6726 176.325L100.91 171.014L108.148 176.325M93.6726 186.948L100.91 192.261M108.148 176.325V186.948M108.148 176.325L115.679 171.014L123.21 176.325M108.148 186.948L100.91 192.261M108.148 186.948L115.679 192.261L123.21 186.948M108.148 186.948L115.385 192.261M100.91 192.261V202.882M123.21 176.325V186.948M123.21 176.325L130.447 171.014L137.685 176.325M123.21 186.948L130.447 192.261M137.685 176.325V186.948M137.685 176.325L144.824 171.014L151.964 176.325M137.685 186.948L130.447 192.261M137.685 186.948L144.824 192.261L151.964 186.948M130.447 192.261L122.916 186.948L115.385 192.261M130.447 192.261L130.447 202.882M151.964 176.325V186.948M151.964 176.325L159.299 171.014L166.635 176.325M151.964 186.948L159.299 192.261L166.635 186.948M166.635 176.325V186.948M166.635 176.325L174.361 171.014L182.088 176.325M166.635 186.948L174.361 192.261L182.088 186.948M182.088 176.325V186.948M182.088 186.948L189.13 192.261M115.385 192.261V202.882M115.385 202.882L108.148 208.195M115.385 202.882L122.916 208.195L130.447 202.882M108.148 208.195L100.91 202.882M108.148 208.195V218.819M108.148 208.195L115.679 202.882L123.21 208.195M100.91 202.882L93.6726 208.195M130.447 202.882L123.21 208.195M130.447 202.882L137.685 208.195M144.727 192.261L137.489 186.948L130.251 192.261V202.882L137.489 208.195L144.727 202.882M144.727 192.261V202.882M144.727 192.261L152.16 186.948L159.593 192.261M144.727 202.882L152.16 208.195L159.593 202.882M159.593 192.261V202.882M159.593 192.261L167.026 186.948L174.459 192.261M159.593 202.882L167.026 208.195L174.459 202.882M174.459 192.261V202.882M174.459 192.261L181.794 186.948L189.13 192.261M174.459 202.882L181.794 208.195L189.13 202.882M189.13 192.261V202.882M189.13 192.261L196.172 186.948M189.13 192.261L196.465 186.948L203.8 192.261M189.13 202.882L196.465 208.195L203.8 202.882M189.13 202.882L182.088 208.195M189.13 202.882L196.172 208.195M93.6726 208.195V218.819M93.6726 218.819L100.91 224.129L108.148 218.819M108.148 218.819L115.679 224.129L123.21 218.819M123.21 208.195V218.819M123.21 218.819L130.447 224.129M137.685 208.195V218.819M137.685 208.195L144.824 202.882L151.964 208.195M137.685 218.819L130.447 224.129M137.685 218.819L144.824 224.129L151.964 218.819M130.447 224.129L122.916 218.819L115.385 224.129V234.753L122.916 240.063L130.447 234.753M130.447 224.129L130.447 234.753M151.964 208.195V218.819M151.964 208.195L159.299 202.882L166.635 208.195M151.964 218.819L159.299 224.129L166.635 218.819M166.635 208.195V218.819M166.635 208.195L174.361 202.882L182.088 208.195M166.635 218.819L174.361 224.129L182.088 218.819M182.088 208.195V218.819M182.088 218.819L189.13 224.129M100.714 224.129V234.753M100.714 224.129L107.952 218.819L115.19 224.129V234.753L107.952 240.063L100.714 234.753M130.447 234.753L123.21 240.063M130.447 234.753L137.685 240.063M144.727 224.129L137.489 218.819L130.251 224.129V234.753L137.489 240.063L144.727 234.753M144.727 224.129V234.753M144.727 224.129L152.16 218.819L159.593 224.129M144.727 234.753L152.16 240.063L159.593 234.753M159.593 224.129V234.753M159.593 224.129L167.026 218.819L174.459 224.129M159.593 234.753L167.026 240.063L174.459 234.753M174.459 224.129V234.753M174.459 224.129L181.794 218.819L189.13 224.129M174.459 234.753L181.794 240.063L189.13 234.753M189.13 224.129V234.753M189.13 224.129L196.172 218.819M189.13 224.129L196.465 218.819L203.8 224.129M189.13 234.753L196.465 240.063L203.8 234.753M189.13 234.753L182.088 240.063M189.13 234.753L196.172 240.063M93.6726 240.063V250.687M93.6726 240.063L100.91 234.753L108.148 240.063M93.6726 250.687L100.91 256L108.148 250.687M108.148 240.063V250.687M108.148 240.063L115.679 234.753L123.21 240.063M108.148 250.687L115.679 256L123.21 250.687M123.21 240.063V250.687M123.21 250.687L130.447 256L137.685 250.687M137.685 240.063V250.687M137.685 240.063L144.824 234.753L151.964 240.063M137.685 250.687L144.824 256L151.964 250.687M151.964 240.063V250.687M151.964 240.063L159.299 234.753L166.635 240.063M151.964 250.687L159.299 256L166.635 250.687M166.635 240.063V250.687M166.635 240.063L174.361 234.753L182.088 240.063M166.635 250.687L174.361 256L182.088 250.687M182.088 240.063V250.687M182.088 250.687L189.13 256L196.172 250.687M203.8 96.6516V107.275M203.8 96.6516L211.136 91.341L218.471 96.6516M203.8 107.275L211.136 112.586L218.471 107.275M203.8 107.275L196.172 112.586M203.8 107.275L211.429 112.586M218.471 96.6516V107.275M218.471 96.6516L225.709 91.341L232.946 96.6516M218.471 107.275L225.709 112.586M232.946 96.6516V107.275M232.946 96.6516L240.379 91.341L247.812 96.6516M232.946 107.275L225.709 112.586M232.946 107.275L240.379 112.586L247.812 107.275M225.709 112.586L218.569 107.275L211.429 112.586M225.709 112.586V123.209M225.709 112.586L233.24 107.275L240.771 112.586M247.812 96.6516V107.275M247.812 96.6516L255.343 91.341L262.874 96.6516M247.812 107.275L255.343 112.586L262.874 107.275M262.874 96.6516V107.275M262.874 96.6516L270.112 91.341L277.349 96.6516M262.874 107.275L270.112 112.586L277.349 107.275M277.349 96.6516V107.275M277.349 96.6516L284.685 91.341L292.02 96.6516V107.275L284.685 112.586L277.349 107.275M196.172 112.586V123.209M196.172 123.209L203.8 128.522M211.429 112.586V123.209M211.429 123.209L203.8 128.522M211.429 123.209L218.569 128.522L225.709 123.209M203.8 128.522L203.8 139.146M203.8 128.522L211.136 123.209L218.471 128.522M225.709 123.209L233.24 128.522L240.771 123.209M225.709 123.209L218.471 128.522M225.709 123.209L232.946 128.522M240.771 112.586V123.209M240.771 112.586L248.106 107.275L255.441 112.586M240.771 123.209L248.106 128.522L255.441 123.209M255.441 112.586V123.209M255.441 112.586L262.679 107.275L269.916 112.586M255.441 123.209L262.679 128.522L269.916 123.209M269.916 112.586V123.209M269.916 112.586L277.154 107.275L284.391 112.586V123.209L277.154 128.522L269.916 123.209M203.8 139.146L211.136 144.456L218.471 139.146M203.8 139.146L196.172 144.456M203.8 139.146L211.429 144.456M218.471 128.522V139.146M218.471 139.146L225.709 144.456M232.946 128.522V139.146M232.946 128.522L240.379 123.209L247.812 128.522M232.946 139.146L225.709 144.456M232.946 139.146L240.379 144.456L247.812 139.146M225.709 144.456L218.569 139.146L211.429 144.456M225.709 144.456V155.08M225.709 144.456L233.24 139.146L240.771 144.456M247.812 128.522V139.146M247.812 128.522L255.343 123.209L262.874 128.522M247.812 139.146L255.343 144.456L262.874 139.146M262.874 128.522V139.146M262.874 128.522L270.112 123.209L277.349 128.522M262.874 139.146L270.112 144.456L277.349 139.146M277.349 128.522V139.146M277.349 128.522L284.685 123.209L292.02 128.522V139.146L284.685 144.456L277.349 139.146M196.172 144.456V155.08M196.172 155.08L203.8 160.39M211.429 144.456V155.08M211.429 155.08L203.8 160.39M211.429 155.08L218.569 160.39L225.709 155.08M203.8 160.39L203.8 171.014M203.8 160.39L211.136 155.08L218.471 160.39M225.709 155.08L233.24 160.39L240.771 155.08M225.709 155.08L218.471 160.39M225.709 155.08L232.946 160.39M240.771 144.456V155.08M240.771 144.456L248.106 139.146L255.441 144.456M240.771 155.08L248.106 160.39L255.441 155.08M255.441 144.456V155.08M255.441 144.456L262.679 139.146L269.916 144.456M255.441 155.08L262.679 160.39L269.916 155.08M269.916 144.456V155.08M269.916 144.456L277.154 139.146L284.391 144.456V155.08L277.154 160.39L269.916 155.08M203.8 171.014L211.136 176.325L218.471 171.014M203.8 171.014L196.172 176.325M203.8 171.014L211.429 176.325M218.471 160.39V171.014M218.471 171.014L225.709 176.325M232.946 160.39V171.014M232.946 160.39L240.379 155.08L247.812 160.39M232.946 171.014L225.709 176.325M232.946 171.014L240.379 176.325L247.812 171.014M225.709 176.325L218.569 171.014L211.429 176.325M225.709 176.325V186.948M225.709 176.325L233.24 171.014L240.771 176.325M247.812 160.39V171.014M247.812 160.39L255.343 155.08L262.874 160.39M247.812 171.014L255.343 176.325L262.874 171.014M262.874 160.39V171.014M262.874 160.39L270.112 155.08L277.349 160.39M262.874 171.014L270.112 176.325L277.349 171.014M277.349 160.39V171.014M277.349 160.39L284.685 155.08L292.02 160.39V171.014L284.685 176.325L277.349 171.014M196.172 176.325V186.948M196.172 186.948L203.8 192.261M211.429 176.325V186.948M211.429 186.948L203.8 192.261M211.429 186.948L218.569 192.261L225.709 186.948M203.8 192.261L203.8 202.882M203.8 192.261L211.136 186.948L218.471 192.261M225.709 186.948L233.24 192.261L240.771 186.948M225.709 186.948L218.471 192.261M225.709 186.948L232.946 192.261M240.771 176.325V186.948M240.771 176.325L248.106 171.014L255.441 176.325M240.771 186.948L248.106 192.261L255.441 186.948M255.441 176.325V186.948M255.441 176.325L262.679 171.014L269.916 176.325M255.441 186.948L262.679 192.261L269.916 186.948M269.916 176.325V186.948M269.916 176.325L277.154 171.014L284.391 176.325V186.948L277.154 192.261L269.916 186.948M203.8 202.882L211.136 208.195L218.471 202.882M203.8 202.882L196.172 208.195M203.8 202.882L211.429 208.195M218.471 192.261V202.882M218.471 202.882L225.709 208.195M232.946 192.261V202.882M232.946 192.261L240.379 186.948L247.812 192.261M232.946 202.882L225.709 208.195M232.946 202.882L240.379 208.195L247.812 202.882M225.709 208.195L218.569 202.882L211.429 208.195M225.709 208.195V218.819M225.709 208.195L233.24 202.882L240.771 208.195M247.812 192.261V202.882M247.812 192.261L255.343 186.948L262.874 192.261M247.812 202.882L255.343 208.195L262.874 202.882M262.874 192.261V202.882M262.874 192.261L270.112 186.948L277.349 192.261M262.874 202.882L270.112 208.195L277.349 202.882M277.349 192.261V202.882M277.349 192.261L284.685 186.948L292.02 192.261V202.882L284.685 208.195L277.349 202.882M196.172 208.195V218.819M196.172 218.819L203.8 224.129M211.429 208.195V218.819M211.429 218.819L203.8 224.129M211.429 218.819L218.569 224.129L225.709 218.819M203.8 224.129L203.8 234.753M203.8 224.129L211.136 218.819L218.471 224.129M225.709 218.819L233.24 224.129L240.771 218.819M225.709 218.819L218.471 224.129M225.709 218.819L232.946 224.129M240.771 208.195V218.819M240.771 208.195L248.106 202.882L255.441 208.195M240.771 218.819L248.106 224.129L255.441 218.819M255.441 208.195V218.819M255.441 208.195L262.679 202.882L269.916 208.195M255.441 218.819L262.679 224.129L269.916 218.819M269.916 208.195V218.819M269.916 208.195L277.154 202.882L284.391 208.195V218.819L277.154 224.129L269.916 218.819M203.8 234.753L211.136 240.063L218.471 234.753M203.8 234.753L196.172 240.063M203.8 234.753L211.429 240.063M218.471 224.129V234.753M218.471 234.753L225.709 240.063M232.946 224.129V234.753M232.946 224.129L240.379 218.819L247.812 224.129M232.946 234.753L225.709 240.063M232.946 234.753L240.379 240.063L247.812 234.753M225.709 240.063L218.569 234.753L211.429 240.063M225.709 240.063V250.687M225.709 240.063L233.24 234.753L240.771 240.063M247.812 224.129V234.753M247.812 224.129L255.343 218.819L262.874 224.129M247.812 234.753L255.343 240.063L262.874 234.753M262.874 224.129V234.753M262.874 224.129L270.112 218.819L277.349 224.129M262.874 234.753L270.112 240.063L277.349 234.753M277.349 224.129V234.753M277.349 224.129L284.685 218.819L292.02 224.129V234.753L284.685 240.063L277.349 234.753M196.172 240.063V250.687M196.172 250.687L203.8 256L211.429 250.687M211.429 240.063V250.687M211.429 250.687L218.569 256L225.709 250.687M225.709 250.687L233.24 256L240.771 250.687M240.771 240.063V250.687M240.771 240.063L248.106 234.753L255.441 240.063M240.771 250.687L248.106 256L255.441 250.687M255.441 240.063V250.687M255.441 240.063L262.679 234.753L269.916 240.063M255.441 250.687L262.679 256L269.916 250.687M269.916 240.063V250.687M269.916 240.063L277.154 234.753L284.391 240.063V250.687L277.154 256L269.916 250.687M20.5148 -14.8847L27.3611 -20.1977L34.2074 -14.8847V-4.26114L27.3611 1.04941L20.5148 -4.26114V-14.8847ZM12.886 32.9176L20.3192 27.6071L27.7523 32.9176V43.5412L20.3192 48.8542L12.886 43.5412V32.9176ZM5.45288 48.8542L12.9838 43.5412L20.5148 48.8542V59.4753L12.9838 64.7883L5.45288 59.4753V48.8542ZM12.886 64.7883L20.3192 59.4753L27.7523 64.7883V75.4118L20.3192 80.7224L12.886 75.4118V64.7883ZM34.403 80.7224L41.6406 75.4118L48.8781 80.7224V91.3459L41.6406 96.6565L34.403 91.3459V80.7224ZM34.403 112.586L41.6406 107.275L48.8781 112.586V123.209L41.6406 128.522L34.403 123.209V112.586ZM34.403 144.456L41.6406 139.146L48.8781 144.456V155.08L41.6406 160.39L34.403 155.08V144.456ZM12.886 160.39L20.3192 155.08L27.7523 160.39V171.014L20.3192 176.325L12.886 171.014V160.39ZM5.45288 176.325L12.9838 171.014L20.5148 176.325V186.948L12.9838 192.261L5.45288 186.948V176.325ZM12.886 192.261L20.3192 186.948L27.7523 192.261V202.882L20.3192 208.195L12.886 202.882V192.261Z" stroke="url(#paint1_linear_123_44684)" stroke-opacity="0.6" stroke-miterlimit="10"/>
</g>
</g>
<defs>
<linearGradient id="paint0_linear_123_44684" x1="3.14062" y1="4" x2="194.99" y2="173.427" gradientUnits="userSpaceOnUse">
<stop stop-color="white"/>
<stop offset="0.505" stop-color="white" stop-opacity="0"/>
<stop offset="1" stop-color="white"/>
</linearGradient>
<linearGradient id="paint1_linear_123_44684" x1="-127.17" y1="-163.488" x2="211.155" y2="107.101" gradientUnits="userSpaceOnUse">
<stop offset="0.55" stop-color="white" stop-opacity="0"/>
<stop offset="0.73" stop-color="white"/>
<stop offset="0.88" stop-color="white" stop-opacity="0"/>
</linearGradient>
</defs>
</svg>
