<svg width="200" height="169" viewBox="0 0 200 169" fill="none" xmlns="http://www.w3.org/2000/svg">
<mask id="mask0_123_44672" style="mask-type:alpha" maskUnits="userSpaceOnUse" x="0" y="0" width="200" height="169">
<path fill-rule="evenodd" clip-rule="evenodd" d="M110.497 2.11791C104.002 -0.705969 95.9985 -0.70597 89.5027 2.11791L10.4973 36.4638C4.00154 39.2876 0 44.5064 0 50.1541V118.846C0 124.494 4.00154 129.712 10.4973 132.536L89.5027 166.882C95.9985 169.706 104.002 169.706 110.497 166.882L189.503 132.536C195.998 129.712 200 124.494 200 118.846V50.1541C200 44.5064 195.998 39.2876 189.503 36.4638L110.497 2.11791ZM116.082 75.6832L102.099 69.6044C100.8 69.0396 99.1997 69.0396 97.9006 69.6044L83.9177 75.6832C82.6185 76.2479 81.8182 77.2917 81.8182 78.4212V90.5788C81.8182 91.7083 82.6185 92.7521 83.9177 93.3168L97.9006 99.3956C99.1997 99.9604 100.8 99.9604 102.099 99.3956L116.082 93.3168C117.382 92.7521 118.182 91.7083 118.182 90.5788V78.4212C118.182 77.2917 117.382 76.2479 116.082 75.6832Z" fill="#F36DFF"/>
<path d="M102.099 69.6044L116.082 75.6832C117.382 76.2479 118.182 77.2917 118.182 78.4212V90.5788C118.182 91.7083 117.382 92.7521 116.082 93.3168L102.099 99.3956C100.8 99.9604 99.1997 99.9604 97.9006 99.3956L83.9177 93.3168C82.6185 92.7521 81.8182 91.7083 81.8182 90.5788V78.4212C81.8182 77.2917 82.6185 76.2479 83.9177 75.6832L97.9006 69.6044C99.1997 69.0396 100.8 69.0396 102.099 69.6044Z" fill="#F36DFF"/>
</mask>
<g mask="url(#mask0_123_44672)">
<path fill-rule="evenodd" clip-rule="evenodd" d="M110.497 2.11791C104.002 -0.705969 95.9985 -0.70597 89.5027 2.11791L10.4973 36.4638C4.00154 39.2876 0 44.5064 0 50.1541V118.846C0 124.494 4.00154 129.712 10.4973 132.536L89.5027 166.882C95.9985 169.706 104.002 169.706 110.497 166.882L189.503 132.536C195.998 129.712 200 124.494 200 118.846V50.1541C200 44.5064 195.998 39.2876 189.503 36.4638L110.497 2.11791ZM116.082 75.6832L102.099 69.6044C100.8 69.0396 99.1997 69.0396 97.9006 69.6044L83.9177 75.6832C82.6185 76.2479 81.8182 77.2917 81.8182 78.4212V90.5788C81.8182 91.7083 82.6185 92.7521 83.9177 93.3168L97.9006 99.3956C99.1997 99.9604 100.8 99.9604 102.099 99.3956L116.082 93.3168C117.382 92.7521 118.182 91.7083 118.182 90.5788V78.4212C118.182 77.2917 117.382 76.2479 116.082 75.6832Z" fill="#FAC602"/>
<path d="M102.099 69.6044L116.082 75.6832C117.382 76.2479 118.182 77.2917 118.182 78.4212V90.5788C118.182 91.7083 117.382 92.7521 116.082 93.3168L102.099 99.3956C100.8 99.9604 99.1997 99.9604 97.9006 99.3956L83.9177 93.3168C82.6185 92.7521 81.8182 91.7083 81.8182 90.5788V78.4212C81.8182 77.2917 82.6185 76.2479 83.9177 75.6832L97.9006 69.6044C99.1997 69.0396 100.8 69.0396 102.099 69.6044Z" fill="#FAC602"/>
<g style="mix-blend-mode:difference">
<path d="M109.877 5.51807L185.723 38.6373C191.832 41.3051 195.5 46.1877 195.5 51.3805V117.619C195.5 122.812 191.832 127.694 185.723 130.362L109.877 163.481C103.769 166.149 96.231 166.149 90.1227 163.481L14.2775 130.362C8.16795 127.694 4.5 122.812 4.5 117.619V51.3805C4.5 46.1877 8.16795 41.3051 14.2775 38.6373L90.1227 5.51806C96.231 2.85075 103.769 2.85075 109.877 5.51807Z" stroke="url(#paint0_linear_123_44672)" stroke-opacity="0.2"/>
</g>
<g style="mix-blend-mode:soft-light">
<path d="M-133.593 -47.2961L-143.062 -51.3027L-152.531 -47.2961V-39.281M-133.593 -47.2961V-39.281M-133.593 -47.2961L-124.623 -51.3027L-115.652 -47.2961M-133.593 -39.281L-143.062 -35.2744M-133.593 -39.281L-124.623 -35.2744M-143.062 -35.2744L-152.531 -39.281M-143.062 -35.2744L-143.062 -27.2593M-152.531 -39.281L-162 -35.2744V-27.2593L-152.531 -23.2508M-115.652 -47.2961V-39.281M-115.652 -47.2961L-105.934 -51.3027L-96.2157 -47.2961M-115.652 -39.281L-124.623 -35.2744M-115.652 -39.281L-105.934 -35.2744L-96.2157 -39.281M-124.623 -35.2744L-133.718 -39.281L-142.813 -35.2744V-27.2593L-133.718 -23.2508L-124.623 -27.2593M-124.623 -35.2744V-27.2593M-96.2157 -47.2961V-39.281M-96.2157 -47.2961L-86.7467 -51.3027L-77.2778 -47.2961M-96.2157 -39.281L-86.7467 -35.2744L-77.2778 -39.281M-77.2778 -47.2961V-39.281M-77.2778 -47.2961L-67.6842 -51.3027L-58.0906 -47.2961M-77.2778 -39.281L-67.6842 -35.2744L-58.0906 -39.281M-58.0906 -47.2961V-39.281M-58.0906 -47.2961L-49.12 -51.3027L-40.1494 -47.2961M-58.0906 -39.281L-49.12 -35.2744M-40.1494 -47.2961V-39.281M-40.1494 -47.2961L-30.6805 -51.3027L-21.2115 -47.2961M-40.1494 -39.281L-49.12 -35.2744M-40.1494 -39.281L-30.6805 -35.2744M-49.12 -35.2744L-58.4644 -39.281L-67.8088 -35.2744V-27.2593L-58.4644 -23.2508L-49.12 -27.2593M-49.12 -35.2744L-49.12 -27.2593M-21.2115 -47.2961V-39.281M-21.2115 -47.2961L-11.8671 -51.3027L-2.52272 -47.2961M-21.2115 -39.281L-30.6805 -35.2744M-21.2115 -39.281L-11.8671 -35.2744L-2.52272 -39.281M-21.2115 -39.281L-11.7425 -35.2744M-30.6805 -35.2744L-40.0248 -39.281L-49.3692 -35.2744V-27.2593L-40.0248 -23.2508L-30.6805 -27.2593M-30.6805 -35.2744V-27.2593M-143.062 -27.2593L-152.531 -23.2508M-143.062 -27.2593L-133.593 -23.2508M-152.531 -23.2508L-152.531 -15.2376M-124.623 -27.2593L-133.593 -23.2508M-124.623 -27.2593L-115.652 -23.2508M-105.685 -35.2744L-115.029 -39.281L-124.373 -35.2744V-27.2593L-115.029 -23.2508L-105.685 -27.2593M-105.685 -35.2744V-27.2593M-105.685 -35.2744L-96.3403 -39.281L-86.9959 -35.2744M-105.685 -27.2593L-96.3403 -23.2508L-86.9959 -27.2593M-86.9959 -35.2744V-27.2593M-86.9959 -35.2744L-77.5269 -39.281L-68.058 -35.2744V-27.2593L-77.5269 -23.2508L-86.9959 -27.2593M-49.12 -27.2593L-58.0906 -23.2508M-49.12 -27.2593L-40.1494 -23.2508M-30.6805 -27.2593L-40.1494 -23.2508M-30.6805 -27.2593L-21.2115 -23.2508M-133.593 -23.2508V-15.2376M-133.593 -15.2376L-143.062 -11.2291M-133.593 -15.2376L-124.623 -11.2291M-143.062 -11.2291L-152.531 -15.2376M-143.062 -11.2291L-143.062 -3.21404L-152.531 0.792579L-162 -3.21404V-11.2291L-152.531 -15.2376M-115.652 -23.2508V-15.2376M-115.652 -23.2508L-105.934 -27.2593L-96.2157 -23.2508M-115.652 -15.2376L-124.623 -11.2291M-115.652 -15.2376L-105.934 -11.2291M-124.623 -11.2291L-133.718 -15.2376L-142.813 -11.2291V-3.21404M-124.623 -11.2291V-3.21404M-124.623 -11.2291L-115.278 -15.2376L-105.934 -11.2291M-96.2157 -23.2508V-15.2376M-96.2157 -23.2508L-86.7467 -27.2593L-77.2778 -23.2508M-96.2157 -15.2376L-105.934 -11.2291M-96.2157 -15.2376L-86.7467 -11.2291L-77.2778 -15.2376M-105.934 -11.2291V-3.21404M-77.2778 -23.2508V-15.2376M-77.2778 -23.2508L-67.6842 -27.2593L-58.0906 -23.2508M-77.2778 -15.2376L-67.6842 -11.2291L-58.0906 -15.2376M-58.0906 -23.2508V-15.2376M-58.0906 -15.2376L-49.12 -11.2291L-40.1494 -15.2376M-40.1494 -23.2508V-15.2376M-40.1494 -15.2376L-30.6805 -11.2291M-21.2115 -23.2508V-15.2376M-21.2115 -23.2508L-11.7425 -27.2593M-21.2115 -23.2508L-11.8671 -27.2593L-2.52272 -23.2508M-21.2115 -15.2376L-30.6805 -11.2291M-21.2115 -15.2376L-11.8671 -11.2291L-2.52272 -15.2376M-21.2115 -15.2376L-11.7425 -11.2291V-3.21404L-21.2115 0.792579M-30.6805 -11.2291L-40.0248 -15.2376L-49.3692 -11.2291M-30.6805 -11.2291V-3.21404M-124.623 -3.21404L-133.718 0.792579L-142.813 -3.21404M-124.623 -3.21404L-115.278 0.792579L-105.934 -3.21404M-124.623 -3.21404L-133.593 0.792579V8.80767L-124.623 12.8143M-124.623 -3.21404L-115.652 0.792579M-142.813 -3.21404L-152.282 0.792579V8.80767L-142.813 12.8143M-142.813 -3.21404L-133.344 0.792579V8.80767L-142.813 12.8143M-105.934 -3.21404L-115.652 0.792579M-105.934 -3.21404L-96.2157 0.792579M-86.9959 -11.2291L-96.3403 -15.2376L-105.685 -11.2291V-3.21404L-96.3403 0.792579L-86.9959 -3.21404M-86.9959 -11.2291V-3.21404M-86.9959 -11.2291L-77.5269 -15.2376L-68.058 -11.2291M-86.9959 -3.21404L-77.5269 0.792579L-68.058 -3.21404M-68.058 -11.2291V-3.21404M-68.058 -11.2291L-58.7136 -15.2376L-49.3692 -11.2291M-68.058 -3.21404L-58.7136 0.792579L-49.3692 -3.21404M-49.3692 -11.2291V-3.21404M-49.3692 -3.21404L-40.0248 0.792579L-30.6805 -3.21404M-30.6805 -3.21404L-40.1494 0.792579M-30.6805 -3.21404L-21.2115 0.792579M-142.813 12.8143L-133.718 8.80767L-124.623 12.8143M-142.813 12.8143V20.8294L-133.718 24.836L-124.623 20.8294M-115.652 0.792579V8.80767M-115.652 8.80767L-124.623 12.8143M-115.652 8.80767L-105.934 12.8143L-96.2157 8.80767M-124.623 12.8143V20.8294M-96.2157 0.792579V8.80767M-96.2157 0.792579L-86.7467 -3.21404L-77.2778 0.792579M-96.2157 8.80767L-86.7467 12.8143L-77.2778 8.80767M-77.2778 0.792579V8.80767M-77.2778 0.792579L-67.6842 -3.21404L-58.0906 0.792579M-77.2778 8.80767L-67.6842 12.8143L-58.0906 8.80767M-58.0906 0.792579V8.80767M-58.0906 0.792579L-49.12 -3.21404L-40.1494 0.792579M-58.0906 8.80767L-49.12 12.8143L-40.1494 8.80767M-40.1494 0.792579V8.80767M-40.1494 8.80767L-30.6805 12.8143M-21.2115 0.792579V8.80767M-21.2115 0.792579L-11.8671 -3.21404L-2.52272 0.792579M-21.2115 8.80767L-30.6805 12.8143M-21.2115 8.80767L-11.8671 12.8143L-2.52272 8.80767M-21.2115 8.80767L-11.7425 12.8143M-30.6805 12.8143L-40.0248 8.80767L-49.3692 12.8143M-30.6805 12.8143V20.8294M-143.062 20.8294V12.8143L-152.531 8.80767L-162 12.8143V20.8294L-152.531 24.836M-143.062 20.8294L-152.531 24.836M-143.062 20.8294L-133.593 24.836M-152.531 24.836L-152.531 32.8511M-124.623 20.8294L-133.593 24.836M-124.623 20.8294L-115.652 24.836M-105.685 12.8143L-115.029 8.80767L-124.373 12.8143V20.8294L-115.029 24.836L-105.685 20.8294M-105.685 12.8143V20.8294M-105.685 12.8143L-96.3403 8.80767L-86.9959 12.8143M-105.685 20.8294L-96.3403 24.836L-86.9959 20.8294M-86.9959 12.8143V20.8294M-86.9959 12.8143L-77.5269 8.80767L-68.058 12.8143M-86.9959 20.8294L-77.5269 24.836L-68.058 20.8294M-68.058 12.8143V20.8294M-68.058 12.8143L-58.7136 8.80767L-49.3692 12.8143M-68.058 20.8294L-58.7136 24.836L-49.3692 20.8294M-49.3692 12.8143V20.8294M-49.3692 20.8294L-40.0248 24.836L-30.6805 20.8294M-30.6805 20.8294L-40.1494 24.836M-30.6805 20.8294L-21.2115 24.836M-133.593 24.836V32.8511M-133.593 32.8511L-143.062 36.8596M-133.593 32.8511L-124.623 36.8596M-143.062 36.8596L-152.531 32.8511M-143.062 36.8596L-143.062 44.8728M-152.531 32.8511L-162 36.8596V44.8728L-152.531 48.8813M-115.652 24.836V32.8511M-115.652 24.836L-105.934 20.8294L-96.2157 24.836M-115.652 32.8511L-124.623 36.8596M-115.652 32.8511L-105.934 36.8596L-96.2157 32.8511M-124.623 36.8596L-133.718 32.8511L-142.813 36.8596V44.8728L-133.718 48.8813L-124.623 44.8728M-124.623 36.8596V44.8728M-96.2157 24.836V32.8511M-96.2157 24.836L-86.7467 20.8294L-77.2778 24.836M-96.2157 32.8511L-86.7467 36.8596L-77.2778 32.8511M-77.2778 24.836V32.8511M-77.2778 24.836L-67.6842 20.8294L-58.0906 24.836M-77.2778 32.8511L-67.6842 36.8596L-58.0906 32.8511M-58.0906 24.836V32.8511M-58.0906 24.836L-49.12 20.8294L-40.1494 24.836M-58.0906 32.8511L-49.12 36.8596L-40.1494 32.8511M-40.1494 24.836V32.8511M-40.1494 32.8511L-30.6805 36.8596M-21.2115 24.836V32.8511M-21.2115 24.836L-11.7425 20.8294M-21.2115 24.836L-11.8671 20.8294L-2.52272 24.836M-21.2115 32.8511L-30.6805 36.8596M-21.2115 32.8511L-11.8671 36.8596L-2.52272 32.8511M-21.2115 32.8511L-11.7425 36.8596M-30.6805 36.8596L-40.0248 32.8511L-49.3692 36.8596M-30.6805 36.8596V44.8728M-143.062 44.8728L-152.531 48.8813M-143.062 44.8728L-133.593 48.8813M-152.531 48.8813L-152.531 56.8963M-124.623 44.8728L-133.593 48.8813M-124.623 44.8728L-115.652 48.8813M-105.685 36.8596L-115.029 32.8511L-124.373 36.8596V44.8728L-115.029 48.8813L-105.685 44.8728M-105.685 36.8596V44.8728M-105.685 36.8596L-96.3403 32.8511L-86.9959 36.8596M-105.685 44.8728L-96.3403 48.8813L-86.9959 44.8728M-86.9959 36.8596V44.8728M-86.9959 36.8596L-77.5269 32.8511L-68.058 36.8596M-86.9959 44.8728L-77.5269 48.8813L-68.058 44.8728M-68.058 36.8596V44.8728M-68.058 36.8596L-58.7136 32.8511L-49.3692 36.8596M-68.058 44.8728L-58.7136 48.8813L-49.3692 44.8728M-49.3692 36.8596V44.8728M-49.3692 44.8728L-40.0248 48.8813L-30.6805 44.8728M-30.6805 44.8728L-40.1494 48.8813M-30.6805 44.8728L-21.2115 48.8813M-133.593 48.8813V56.8963M-133.593 56.8963L-143.062 60.903M-133.593 56.8963L-124.623 60.903M-143.062 60.903L-152.531 56.8963M-143.062 60.903L-143.062 68.9181L-152.531 72.9247L-162 68.9181V60.903L-152.531 56.8963M-115.652 48.8813V56.8963M-115.652 48.8813L-105.934 44.8728L-96.2157 48.8813M-115.652 56.8963L-124.623 60.903M-115.652 56.8963L-105.934 60.903L-96.2157 56.8963M-124.623 60.903L-133.718 56.8963L-142.813 60.903V68.9181L-133.718 72.9247L-124.623 68.9181V60.903ZM-96.2157 48.8813V56.8963M-96.2157 48.8813L-86.7467 44.8728L-77.2778 48.8813M-96.2157 56.8963L-86.7467 60.903L-77.2778 56.8963M-77.2778 48.8813V56.8963M-77.2778 48.8813L-67.6842 44.8728L-58.0906 48.8813M-77.2778 56.8963L-67.6842 60.903L-58.0906 56.8963M-58.0906 48.8813V56.8963M-58.0906 48.8813L-49.12 44.8728L-40.1494 48.8813M-58.0906 56.8963L-49.12 60.903M-40.1494 48.8813V56.8963M-40.1494 56.8963L-49.12 60.903M-40.1494 56.8963L-30.6805 60.903M-49.12 60.903L-58.4644 56.8963L-67.8088 60.903V68.9181L-58.4644 72.9247L-49.12 68.9181L-49.12 60.903ZM-21.2115 48.8813V56.8963M-21.2115 48.8813L-11.7425 44.8728M-21.2115 48.8813L-11.8671 44.8728L-2.52272 48.8813M-21.2115 56.8963L-30.6805 60.903M-21.2115 56.8963L-11.8671 60.903L-2.52272 56.8963M-21.2115 56.8963L-11.7425 60.903M-30.6805 60.903L-40.0248 56.8963L-49.3692 60.903V68.9181L-40.0248 72.9247L-30.6805 68.9181M-30.6805 60.903V68.9181M-105.685 60.903L-115.029 56.8963L-124.373 60.903V68.9181L-115.029 72.9247L-105.685 68.9181M-105.685 60.903V68.9181M-105.685 60.903L-96.3403 56.8963L-86.9959 60.903M-105.685 68.9181L-96.3403 72.9247L-86.9959 68.9181M-86.9959 60.903V68.9181M-86.9959 60.903L-77.5269 56.8963L-68.058 60.903V68.9181L-77.5269 72.9247L-86.9959 68.9181M-30.6805 68.9181L-21.2115 72.9247L-11.7425 68.9181M-2.52272 -47.2961V-39.281M-2.52272 -47.2961L6.82166 -51.3027L16.166 -47.2961M-2.52272 -39.281L6.82166 -35.2744L16.166 -39.281M16.166 -47.2961V-39.281M16.166 -47.2961L25.635 -51.3027L35.104 -47.2961M16.166 -39.281L25.635 -35.2744L35.104 -39.281M35.104 -47.2961V-39.281M35.104 -47.2961L43.95 -51.3027L52.796 -47.2961M35.104 -39.281L43.95 -35.2744L52.796 -39.281M35.104 -39.281L26.3826 -35.2744M35.104 -39.281L43.8254 -35.2744M52.796 -47.2961V-39.281M52.796 -47.2961L62.6388 -51.3027L72.4815 -47.2961M52.796 -39.281L62.6388 -35.2744L72.4815 -39.281M72.4815 -47.2961V-39.281M72.4815 -47.2961L81.7013 -51.3027L90.9211 -47.2961M72.4815 -39.281L81.7013 -35.2744L90.9211 -39.281M90.9211 -47.2961V-39.281M90.9211 -47.2961L100.141 -51.3027L109.361 -47.2961M90.9211 -39.281L100.141 -35.2744L109.361 -39.281M109.361 -47.2961V-39.281M109.361 -47.2961L118.83 -51.3027L128.299 -47.2961M109.361 -39.281L118.83 -35.2744L128.299 -39.281M-11.7425 -35.2744V-27.2593M-11.7425 -35.2744L-2.27352 -39.281L7.19544 -35.2744M-11.7425 -27.2593L-2.27352 -23.2508L7.19544 -27.2593M7.19544 -35.2744V-27.2593M7.19544 -35.2744L16.789 -39.281L26.3826 -35.2744M7.19544 -27.2593L16.789 -23.2508L26.3826 -27.2593M26.3826 -35.2744V-27.2593M26.3826 -27.2593L35.104 -23.2508M43.8254 -35.2744V-27.2593M43.8254 -35.2744L53.0452 -39.281L62.265 -35.2744M43.8254 -27.2593L35.104 -23.2508M43.8254 -27.2593L53.0452 -23.2508L62.265 -27.2593M35.104 -23.2508L25.635 -27.2593L16.166 -23.2508M35.104 -23.2508V-15.2376M35.104 -23.2508L43.95 -27.2593L52.796 -23.2508M62.265 -35.2744V-27.2593M62.265 -35.2744L71.8586 -39.281L81.4521 -35.2744M62.265 -27.2593L71.8586 -23.2508L81.4521 -27.2593M81.4521 -35.2744V-27.2593M81.4521 -35.2744L90.6719 -39.281L99.8917 -35.2744M81.4521 -27.2593L90.6719 -23.2508L99.8917 -27.2593M99.8917 -35.2744V-27.2593M99.8917 -35.2744L109.61 -39.281L119.328 -35.2744M99.8917 -27.2593L109.61 -23.2508L119.328 -27.2593M-2.52272 -23.2508V-15.2376M-2.52272 -23.2508L6.82166 -27.2593L16.166 -23.2508M-2.52272 -15.2376L6.82166 -11.2291L16.166 -15.2376M-2.52272 -15.2376L-11.9917 -11.2291V-3.21404L-2.52272 0.792579M-2.52272 -15.2376L6.94626 -11.2291V-3.21404L-2.52272 0.792579M16.166 -23.2508V-15.2376M16.166 -15.2376L25.635 -11.2291L35.104 -15.2376M35.104 -15.2376L43.95 -11.2291L52.796 -15.2376M52.796 -23.2508V-15.2376M52.796 -23.2508L62.6388 -27.2593L72.4815 -23.2508M52.796 -15.2376L62.6388 -11.2291L72.4815 -15.2376M72.4815 -23.2508V-15.2376M72.4815 -23.2508L81.7013 -27.2593L90.9211 -23.2508M72.4815 -15.2376L81.7013 -11.2291L90.9211 -15.2376M90.9211 -23.2508V-15.2376M90.9211 -23.2508L100.141 -27.2593L109.361 -23.2508M90.9211 -15.2376L100.141 -11.2291L109.361 -15.2376M109.361 -23.2508V-15.2376M109.361 -23.2508L118.83 -27.2593L128.299 -23.2508M109.361 -15.2376L118.83 -11.2291L128.299 -15.2376M-2.52272 0.792579V8.80767M-2.52272 0.792579L6.82166 -3.21404L16.166 0.792579V8.80767L6.82166 12.8143L-2.52272 8.80767M25.8842 -3.21404V-11.2291L16.2906 -15.2376L6.69707 -11.2291V-3.21404L16.2906 0.792579L25.8842 -3.21404ZM25.8842 -3.21404L16.4152 0.792579V8.80767L25.8842 12.8143L35.3532 8.80767V0.792579L25.8842 -3.21404ZM62.265 -11.2291L53.0452 -15.2376L43.8254 -11.2291V-3.21404L53.0452 0.792579L62.265 -3.21404M62.265 -11.2291V-3.21404M62.265 -11.2291L71.8586 -15.2376L81.4521 -11.2291M62.265 -3.21404L71.8586 0.792579L81.4521 -3.21404M81.4521 -11.2291V-3.21404M81.4521 -11.2291L90.6719 -15.2376L99.8917 -11.2291M81.4521 -3.21404L90.6719 0.792579L99.8917 -3.21404M99.8917 -11.2291V-3.21404M99.8917 -11.2291L109.61 -15.2376L119.328 -11.2291M99.8917 -3.21404L109.61 0.792579L119.328 -3.21404M52.796 0.792579L43.95 -3.21404L35.104 0.792579V8.80767M52.796 0.792579V8.80767M52.796 0.792579L62.6388 -3.21404L72.4815 0.792579M52.796 8.80767L43.95 12.8143L35.104 8.80767M52.796 8.80767L62.6388 12.8143L72.4815 8.80767M35.104 8.80767L26.3826 12.8143M35.104 8.80767L43.8254 12.8143M72.4815 0.792579V8.80767M72.4815 0.792579L81.7013 -3.21404L90.9211 0.792579M72.4815 8.80767L81.7013 12.8143L90.9211 8.80767M90.9211 0.792579V8.80767M90.9211 0.792579L100.141 -3.21404L109.361 0.792579M90.9211 8.80767L100.141 12.8143L109.361 8.80767M109.361 0.792579V8.80767M109.361 0.792579L118.83 -3.21404L128.299 0.792579M109.361 8.80767L118.83 12.8143L128.299 8.80767M-11.7425 12.8143V20.8294M-11.7425 12.8143L-2.27352 8.80767L7.19544 12.8143M-11.7425 20.8294L-2.27352 24.836L7.19544 20.8294M7.19544 12.8143V20.8294M7.19544 12.8143L16.789 8.80767L26.3826 12.8143M7.19544 20.8294L16.789 24.836L26.3826 20.8294M26.3826 12.8143V20.8294M26.3826 20.8294L35.104 24.836M43.8254 12.8143V20.8294M43.8254 12.8143L53.0452 8.80767L62.265 12.8143M43.8254 20.8294L35.104 24.836M43.8254 20.8294L53.0452 24.836L62.265 20.8294M35.104 24.836L43.95 20.8294L52.796 24.836M35.104 24.836V32.8511M62.265 12.8143V20.8294M62.265 12.8143L71.8586 8.80767L81.4521 12.8143M62.265 20.8294L71.8586 24.836L81.4521 20.8294M81.4521 12.8143V20.8294M81.4521 12.8143L90.6719 8.80767L99.8917 12.8143M81.4521 20.8294L90.6719 24.836L99.8917 20.8294M99.8917 12.8143V20.8294M99.8917 12.8143L109.61 8.80767L119.328 12.8143M99.8917 20.8294L109.61 24.836L119.328 20.8294M-2.52272 24.836V32.8511M-2.52272 24.836L6.82166 20.8294L16.166 24.836V32.8511L6.82166 36.8596L-2.52272 32.8511M52.796 24.836V32.8511M52.796 24.836L62.6388 20.8294L72.4815 24.836M52.796 32.8511L43.95 36.8596L35.104 32.8511M52.796 32.8511L62.6388 36.8596L72.4815 32.8511M35.104 32.8511L26.3826 36.8596V44.8728L35.104 48.8813M35.104 32.8511L43.8254 36.8596M72.4815 24.836V32.8511M72.4815 24.836L81.7013 20.8294L90.9211 24.836M72.4815 32.8511L81.7013 36.8596M90.9211 24.836V32.8511M90.9211 24.836L100.141 20.8294L109.361 24.836M90.9211 32.8511L81.7013 36.8596M90.9211 32.8511L100.141 36.8596L109.361 32.8511M81.7013 36.8596L72.1078 32.8511L62.5142 36.8596V44.8728L72.1078 48.8813L81.7013 44.8728M81.7013 36.8596V44.8728M109.361 24.836V32.8511M109.361 24.836L118.83 20.8294L128.299 24.836M109.361 32.8511L118.83 36.8596L128.299 32.8511M-11.7425 36.8596V44.8728M-11.7425 36.8596L-2.27352 32.8511L7.19544 36.8596V44.8728L-2.27352 48.8813L-11.7425 44.8728M43.8254 36.8596V44.8728M43.8254 36.8596L53.0452 32.8511L62.265 36.8596V44.8728L53.0452 48.8813L43.8254 44.8728M43.8254 44.8728L35.104 48.8813M35.104 48.8813L43.95 44.8728L52.796 48.8813M35.104 48.8813V56.8963L43.95 60.903L52.796 56.8963M81.7013 44.8728L72.4815 48.8813M81.7013 44.8728L90.9211 48.8813M99.8917 36.8596L90.6719 32.8511L81.4521 36.8596V44.8728L90.6719 48.8813L99.8917 44.8728M99.8917 36.8596V44.8728M99.8917 36.8596L109.61 32.8511L119.328 36.8596M99.8917 44.8728L109.61 48.8813L119.328 44.8728M-2.52272 48.8813V56.8963M-2.52272 48.8813L6.82166 44.8728L16.166 48.8813V56.8963L6.82166 60.903L-2.52272 56.8963M52.796 48.8813V56.8963M52.796 48.8813L62.6388 44.8728L72.4815 48.8813M52.796 56.8963L62.6388 60.903L72.4815 56.8963M72.4815 48.8813V56.8963M72.4815 56.8963L81.7013 60.903M90.9211 48.8813V56.8963M90.9211 48.8813L100.141 44.8728L109.361 48.8813M90.9211 56.8963L81.7013 60.903M90.9211 56.8963L100.141 60.903L109.361 56.8963M81.7013 60.903L72.1078 56.8963L62.5142 60.903V68.9181L72.1078 72.9247L81.7013 68.9181V60.903ZM109.361 48.8813V56.8963M109.361 48.8813L118.83 44.8728L128.299 48.8813M109.361 56.8963L118.83 60.903L128.299 56.8963M-11.7425 60.903V68.9181M-11.7425 60.903L-2.27352 56.8963L7.19544 60.903V68.9181L-2.27352 72.9247L-11.7425 68.9181M26.1334 60.903L16.5398 56.8963L6.94625 60.903V68.9181L16.5398 72.9247L26.1334 68.9181M26.1334 60.903V68.9181M26.1334 60.903L34.8548 56.8963L43.5762 60.903V68.9181L34.8548 72.9247L26.1334 68.9181M99.8917 60.903L90.6719 56.8963L81.4521 60.903V68.9181L90.6719 72.9247L99.8917 68.9181M99.8917 60.903V68.9181M99.8917 60.903L109.61 56.8963L119.328 60.903M99.8917 68.9181L109.61 72.9247L119.328 68.9181M128.299 -47.2961V-39.281M128.299 -47.2961L137.518 -51.3027L146.738 -47.2961M128.299 -39.281L137.518 -35.2744L146.738 -39.281M146.738 -47.2961V-39.281M146.738 -47.2961L156.332 -51.3027L165.925 -47.2961M146.738 -39.281L156.332 -35.2744L165.925 -39.281M165.925 -47.2961V-39.281M165.925 -47.2961L175.145 -51.3027L184.365 -47.2961M165.925 -39.281L175.145 -35.2744L184.365 -39.281M184.365 -47.2961V-39.281M184.365 -47.2961L193.834 -51.3027L203.303 -47.2961M184.365 -39.281L193.834 -35.2744L203.303 -39.281M203.303 -47.2961V-39.281M203.303 -47.2961L212.772 -51.3027L222.241 -47.2961M203.303 -39.281L212.772 -35.2744L222.241 -39.281M222.241 -47.2961V-39.281M222.241 -47.2961L231.585 -51.3027L240.93 -47.2961M222.241 -39.281L231.585 -35.2744L240.93 -39.281M240.93 -47.2961V-39.281M240.93 -47.2961L250.274 -51.3027L259.618 -47.2961M240.93 -39.281L250.274 -35.2744L259.618 -39.281M240.93 -39.281L231.959 -35.2744M240.93 -39.281L249.9 -35.2744M119.328 -35.2744V-27.2593M119.328 -35.2744L128.548 -39.281L137.768 -35.2744M119.328 -27.2593L128.548 -23.2508L137.768 -27.2593M137.768 -35.2744V-27.2593M137.768 -35.2744L147.361 -39.281L156.955 -35.2744M137.768 -27.2593L147.361 -23.2508L156.955 -27.2593M156.955 -35.2744V-27.2593M156.955 -35.2744L166.174 -39.281L175.394 -35.2744M156.955 -27.2593L166.174 -23.2508L175.394 -27.2593M175.394 -35.2744V-27.2593M175.394 -35.2744L184.49 -39.281L193.585 -35.2744M175.394 -27.2593L184.49 -23.2508L193.585 -27.2593M193.585 -35.2744V-27.2593M193.585 -35.2744L202.929 -39.281L212.273 -35.2744M193.585 -27.2593L202.929 -23.2508L212.273 -27.2593M212.273 -35.2744V-27.2593M212.273 -35.2744L222.116 -39.281L231.959 -35.2744M212.273 -27.2593L222.116 -23.2508L231.959 -27.2593M231.959 -35.2744V-27.2593M231.959 -27.2593L240.93 -23.2508M128.299 -23.2508V-15.2376M128.299 -23.2508L137.518 -27.2593L146.738 -23.2508M128.299 -15.2376L137.518 -11.2291M146.738 -23.2508V-15.2376M146.738 -23.2508L156.332 -27.2593L165.925 -23.2508M146.738 -15.2376L137.518 -11.2291M146.738 -15.2376L156.332 -11.2291L165.925 -15.2376M137.518 -11.2291L147.112 -15.2376L156.706 -11.2291V-3.21404L147.112 0.792579L137.518 -3.21404M137.518 -11.2291L137.518 -3.21404M165.925 -23.2508V-15.2376M165.925 -23.2508L175.145 -27.2593L184.365 -23.2508M165.925 -15.2376L175.145 -11.2291L184.365 -15.2376M184.365 -23.2508V-15.2376M184.365 -23.2508L193.834 -27.2593L203.303 -23.2508M184.365 -15.2376L193.834 -11.2291L203.303 -15.2376M203.303 -23.2508V-15.2376M203.303 -23.2508L212.772 -27.2593L222.241 -23.2508M203.303 -15.2376L212.772 -11.2291L222.241 -15.2376M222.241 -23.2508V-15.2376M222.241 -23.2508L231.585 -27.2593L240.93 -23.2508M222.241 -15.2376L231.585 -11.2291L240.93 -15.2376M240.93 -23.2508V-15.2376M240.93 -23.2508L249.9 -27.2593M240.93 -23.2508L250.274 -27.2593L259.618 -23.2508M240.93 -15.2376L250.274 -11.2291L259.618 -15.2376M240.93 -15.2376L231.959 -11.2291M240.93 -15.2376L249.9 -11.2291M119.328 -11.2291V-3.21404M119.328 -11.2291L128.548 -15.2376L137.768 -11.2291V-3.21404L128.548 0.792579L119.328 -3.21404M137.518 -3.21404L128.299 0.792579M137.518 -3.21404L146.738 0.792579M175.394 -11.2291L166.174 -15.2376L156.955 -11.2291V-3.21404L166.174 0.792579L175.394 -3.21404M175.394 -11.2291V-3.21404M175.394 -11.2291L184.49 -15.2376L193.585 -11.2291M175.394 -3.21404L184.49 0.792579L193.585 -3.21404M193.585 -11.2291V-3.21404M193.585 -11.2291L202.929 -15.2376L212.273 -11.2291M193.585 -3.21404L202.929 0.792579L212.273 -3.21404M212.273 -11.2291V-3.21404M212.273 -11.2291L222.116 -15.2376L231.959 -11.2291M212.273 -3.21404L222.116 0.792579L231.959 -3.21404M231.959 -11.2291V-3.21404M231.959 -3.21404L240.93 0.792579M128.299 0.792579V8.80767M128.299 8.80767L137.518 12.8143M146.738 0.792579V8.80767M146.738 0.792579L156.332 -3.21404L165.925 0.792579M146.738 8.80767L137.518 12.8143M146.738 8.80767L156.332 12.8143L165.925 8.80767M137.518 12.8143L147.112 8.80767L156.706 12.8143V20.8294L147.112 24.836L137.518 20.8294M137.518 12.8143L137.518 20.8294M165.925 0.792579V8.80767M165.925 0.792579L175.145 -3.21404L184.365 0.792579M165.925 8.80767L175.145 12.8143L184.365 8.80767M184.365 0.792579V8.80767M184.365 0.792579L193.834 -3.21404L203.303 0.792579M184.365 8.80767L193.834 12.8143L203.303 8.80767M203.303 0.792579V8.80767M203.303 0.792579L212.772 -3.21404L222.241 0.792579M203.303 8.80767L212.772 12.8143L222.241 8.80767M222.241 0.792579V8.80767M222.241 0.792579L231.585 -3.21404L240.93 0.792579M222.241 8.80767L231.585 12.8143L240.93 8.80767M240.93 0.792579V8.80767M240.93 0.792579L249.9 -3.21404M240.93 0.792579L250.274 -3.21404L259.618 0.792579M240.93 8.80767L250.274 12.8143L259.618 8.80767M240.93 8.80767L231.959 12.8143M240.93 8.80767L249.9 12.8143M119.328 12.8143V20.8294M119.328 12.8143L128.548 8.80767L137.768 12.8143V20.8294L128.548 24.836L119.328 20.8294M137.518 20.8294L128.299 24.836M137.518 20.8294L146.738 24.836M175.394 12.8143L166.174 8.80767L156.955 12.8143V20.8294L166.174 24.836L175.394 20.8294M175.394 12.8143V20.8294M175.394 12.8143L184.49 8.80767L193.585 12.8143M175.394 20.8294L184.49 24.836L193.585 20.8294M193.585 12.8143V20.8294M193.585 12.8143L202.929 8.80767L212.273 12.8143M193.585 20.8294L202.929 24.836L212.273 20.8294M212.273 12.8143V20.8294M212.273 12.8143L222.116 8.80767L231.959 12.8143M212.273 20.8294L222.116 24.836L231.959 20.8294M231.959 12.8143V20.8294M231.959 20.8294L240.93 24.836M128.299 24.836V32.8511M128.299 32.8511L137.518 36.8596M146.738 24.836V32.8511M146.738 24.836L156.332 20.8294L165.925 24.836M146.738 32.8511L137.518 36.8596M146.738 32.8511L156.332 36.8596L165.925 32.8511M137.518 36.8596L147.112 32.8511L156.706 36.8596V44.8728L147.112 48.8813L137.518 44.8728M137.518 36.8596L137.518 44.8728M165.925 24.836V32.8511M165.925 24.836L175.145 20.8294L184.365 24.836M165.925 32.8511L175.145 36.8596L184.365 32.8511M184.365 24.836V32.8511M184.365 24.836L193.834 20.8294L203.303 24.836M184.365 32.8511L193.834 36.8596L203.303 32.8511M203.303 24.836V32.8511M203.303 24.836L212.772 20.8294L222.241 24.836M203.303 32.8511L212.772 36.8596L222.241 32.8511M222.241 24.836V32.8511M222.241 24.836L231.585 20.8294L240.93 24.836M222.241 32.8511L231.585 36.8596L240.93 32.8511M240.93 24.836V32.8511M240.93 24.836L249.9 20.8294M240.93 24.836L250.274 20.8294L259.618 24.836M240.93 32.8511L250.274 36.8596L259.618 32.8511M240.93 32.8511L231.959 36.8596M240.93 32.8511L249.9 36.8596M119.328 36.8596V44.8728M119.328 36.8596L128.548 32.8511L137.768 36.8596V44.8728L128.548 48.8813L119.328 44.8728M137.518 44.8728L128.299 48.8813M137.518 44.8728L146.738 48.8813M175.394 36.8596L166.174 32.8511L156.955 36.8596V44.8728L166.174 48.8813L175.394 44.8728M175.394 36.8596V44.8728M175.394 36.8596L184.49 32.8511L193.585 36.8596M175.394 44.8728L184.49 48.8813L193.585 44.8728M193.585 36.8596V44.8728M193.585 36.8596L202.929 32.8511L212.273 36.8596M193.585 44.8728L202.929 48.8813L212.273 44.8728M212.273 36.8596V44.8728M212.273 36.8596L222.116 32.8511L231.959 36.8596M212.273 44.8728L222.116 48.8813L231.959 44.8728M231.959 36.8596V44.8728M231.959 44.8728L240.93 48.8813M128.299 48.8813V56.8963M128.299 56.8963L137.518 60.903M146.738 48.8813V56.8963M146.738 48.8813L156.332 44.8728L165.925 48.8813M146.738 56.8963L137.518 60.903M146.738 56.8963L156.332 60.903L165.925 56.8963M137.518 60.903L147.112 56.8963L156.706 60.903M137.518 60.903L137.518 68.9181L147.112 72.9247L156.706 68.9181M165.925 48.8813V56.8963M165.925 48.8813L175.145 44.8728L184.365 48.8813M165.925 56.8963L175.145 60.903M165.925 56.8963L156.706 60.903M184.365 48.8813V56.8963M184.365 48.8813L193.834 44.8728L203.303 48.8813M184.365 56.8963L175.145 60.903M184.365 56.8963L193.834 60.903L203.303 56.8963M175.145 60.903L175.145 68.9181L165.925 72.9247L156.706 68.9181M203.303 48.8813V56.8963M203.303 48.8813L212.772 44.8728L222.241 48.8813M203.303 56.8963L212.772 60.903L222.241 56.8963M222.241 48.8813V56.8963M222.241 48.8813L231.585 44.8728L240.93 48.8813M222.241 56.8963L231.585 60.903L240.93 56.8963M240.93 48.8813V56.8963M240.93 48.8813L249.9 44.8728M240.93 48.8813L250.274 44.8728L259.618 48.8813M240.93 56.8963L250.274 60.903L259.618 56.8963M240.93 56.8963L231.959 60.903M240.93 56.8963L249.9 60.903M119.328 60.903V68.9181M119.328 60.903L128.548 56.8963L137.768 60.903V68.9181L128.548 72.9247L119.328 68.9181M156.706 60.903V68.9181M193.585 60.903L184.49 56.8963L175.394 60.903V68.9181L184.49 72.9247L193.585 68.9181M193.585 60.903V68.9181M193.585 60.903L202.929 56.8963L212.273 60.903M193.585 68.9181L202.929 72.9247L212.273 68.9181M212.273 60.903V68.9181M212.273 60.903L222.116 56.8963L231.959 60.903M212.273 68.9181L222.116 72.9247L231.959 68.9181M231.959 60.903V68.9181M231.959 68.9181L240.93 72.9247L249.9 68.9181M259.618 -47.2961V-39.281M259.618 -47.2961L268.963 -51.3027L278.307 -47.2961M259.618 -39.281L268.963 -35.2744L278.307 -39.281M259.618 -39.281L249.9 -35.2744M259.618 -39.281L269.336 -35.2744M278.307 -47.2961V-39.281M278.307 -47.2961L287.527 -51.3027L296.747 -47.2961M278.307 -39.281L287.527 -35.2744M296.747 -47.2961V-39.281M296.747 -47.2961L306.216 -51.3027L315.685 -47.2961M296.747 -39.281L287.527 -35.2744M296.747 -39.281L306.216 -35.2744L315.685 -39.281M287.527 -35.2744L278.432 -39.281L269.336 -35.2744M287.527 -35.2744V-27.2593M287.527 -35.2744L297.12 -39.281L306.714 -35.2744M315.685 -47.2961V-39.281M315.685 -47.2961L325.278 -51.3027L334.872 -47.2961M315.685 -39.281L325.278 -35.2744L334.872 -39.281M334.872 -47.2961V-39.281M334.872 -47.2961L344.091 -51.3027L353.311 -47.2961M334.872 -39.281L344.091 -35.2744L353.311 -39.281M353.311 -47.2961V-39.281M353.311 -47.2961L362.656 -51.3027L372 -47.2961V-39.281L362.656 -35.2744L353.311 -39.281M249.9 -35.2744V-27.2593M249.9 -27.2593L259.618 -23.2508M269.336 -35.2744V-27.2593M269.336 -27.2593L259.618 -23.2508M269.336 -27.2593L278.432 -23.2508L287.527 -27.2593M259.618 -23.2508L259.618 -15.2376M259.618 -23.2508L268.963 -27.2593L278.307 -23.2508M287.527 -27.2593L297.12 -23.2508L306.714 -27.2593M287.527 -27.2593L278.307 -23.2508M287.527 -27.2593L296.747 -23.2508M306.714 -35.2744V-27.2593M306.714 -35.2744L316.058 -39.281L325.403 -35.2744M306.714 -27.2593L316.058 -23.2508L325.403 -27.2593M325.403 -35.2744V-27.2593M325.403 -35.2744L334.623 -39.281L343.842 -35.2744M325.403 -27.2593L334.623 -23.2508L343.842 -27.2593M343.842 -35.2744V-27.2593M343.842 -35.2744L353.062 -39.281L362.282 -35.2744V-27.2593L353.062 -23.2508L343.842 -27.2593M259.618 -15.2376L268.963 -11.2291L278.307 -15.2376M259.618 -15.2376L249.9 -11.2291M259.618 -15.2376L269.336 -11.2291M278.307 -23.2508V-15.2376M278.307 -15.2376L287.527 -11.2291M296.747 -23.2508V-15.2376M296.747 -23.2508L306.216 -27.2593L315.685 -23.2508M296.747 -15.2376L287.527 -11.2291M296.747 -15.2376L306.216 -11.2291L315.685 -15.2376M287.527 -11.2291L278.432 -15.2376L269.336 -11.2291M287.527 -11.2291V-3.21404M287.527 -11.2291L297.12 -15.2376L306.714 -11.2291M315.685 -23.2508V-15.2376M315.685 -23.2508L325.278 -27.2593L334.872 -23.2508M315.685 -15.2376L325.278 -11.2291L334.872 -15.2376M334.872 -23.2508V-15.2376M334.872 -23.2508L344.091 -27.2593L353.311 -23.2508M334.872 -15.2376L344.091 -11.2291L353.311 -15.2376M353.311 -23.2508V-15.2376M353.311 -23.2508L362.656 -27.2593L372 -23.2508V-15.2376L362.656 -11.2291L353.311 -15.2376M249.9 -11.2291V-3.21404M249.9 -3.21404L259.618 0.792579M269.336 -11.2291V-3.21404M269.336 -3.21404L259.618 0.792579M269.336 -3.21404L278.432 0.792579L287.527 -3.21404M259.618 0.792579L259.618 8.80767M259.618 0.792579L268.963 -3.21404L278.307 0.792579M287.527 -3.21404L297.12 0.792579L306.714 -3.21404M287.527 -3.21404L278.307 0.792579M287.527 -3.21404L296.747 0.792579M306.714 -11.2291V-3.21404M306.714 -11.2291L316.058 -15.2376L325.403 -11.2291M306.714 -3.21404L316.058 0.792579L325.403 -3.21404M325.403 -11.2291V-3.21404M325.403 -11.2291L334.623 -15.2376L343.842 -11.2291M325.403 -3.21404L334.623 0.792579L343.842 -3.21404M343.842 -11.2291V-3.21404M343.842 -11.2291L353.062 -15.2376L362.282 -11.2291V-3.21404L353.062 0.792579L343.842 -3.21404M259.618 8.80767L268.963 12.8143L278.307 8.80767M259.618 8.80767L249.9 12.8143M259.618 8.80767L269.336 12.8143M278.307 0.792579V8.80767M278.307 8.80767L287.527 12.8143M296.747 0.792579V8.80767M296.747 0.792579L306.216 -3.21404L315.685 0.792579M296.747 8.80767L287.527 12.8143M296.747 8.80767L306.216 12.8143L315.685 8.80767M287.527 12.8143L278.432 8.80767L269.336 12.8143M287.527 12.8143V20.8294M287.527 12.8143L297.12 8.80767L306.714 12.8143M315.685 0.792579V8.80767M315.685 0.792579L325.278 -3.21404L334.872 0.792579M315.685 8.80767L325.278 12.8143L334.872 8.80767M334.872 0.792579V8.80767M334.872 0.792579L344.091 -3.21404L353.311 0.792579M334.872 8.80767L344.091 12.8143L353.311 8.80767M353.311 0.792579V8.80767M353.311 0.792579L362.656 -3.21404L372 0.792579V8.80767L362.656 12.8143L353.311 8.80767M249.9 12.8143V20.8294M249.9 20.8294L259.618 24.836M269.336 12.8143V20.8294M269.336 20.8294L259.618 24.836M269.336 20.8294L278.432 24.836L287.527 20.8294M259.618 24.836L259.618 32.8511M259.618 24.836L268.963 20.8294L278.307 24.836M287.527 20.8294L297.12 24.836L306.714 20.8294M287.527 20.8294L278.307 24.836M287.527 20.8294L296.747 24.836M306.714 12.8143V20.8294M306.714 12.8143L316.058 8.80767L325.403 12.8143M306.714 20.8294L316.058 24.836L325.403 20.8294M325.403 12.8143V20.8294M325.403 12.8143L334.623 8.80767L343.842 12.8143M325.403 20.8294L334.623 24.836L343.842 20.8294M343.842 12.8143V20.8294M343.842 12.8143L353.062 8.80767L362.282 12.8143V20.8294L353.062 24.836L343.842 20.8294M259.618 32.8511L268.963 36.8596L278.307 32.8511M259.618 32.8511L249.9 36.8596M259.618 32.8511L269.336 36.8596M278.307 24.836V32.8511M278.307 32.8511L287.527 36.8596M296.747 24.836V32.8511M296.747 24.836L306.216 20.8294L315.685 24.836M296.747 32.8511L287.527 36.8596M296.747 32.8511L306.216 36.8596L315.685 32.8511M287.527 36.8596L278.432 32.8511L269.336 36.8596M287.527 36.8596V44.8728M287.527 36.8596L297.12 32.8511L306.714 36.8596M315.685 24.836V32.8511M315.685 24.836L325.278 20.8294L334.872 24.836M315.685 32.8511L325.278 36.8596L334.872 32.8511M334.872 24.836V32.8511M334.872 24.836L344.091 20.8294L353.311 24.836M334.872 32.8511L344.091 36.8596L353.311 32.8511M353.311 24.836V32.8511M353.311 24.836L362.656 20.8294L372 24.836V32.8511L362.656 36.8596L353.311 32.8511M249.9 36.8596V44.8728M249.9 44.8728L259.618 48.8813M269.336 36.8596V44.8728M269.336 44.8728L259.618 48.8813M269.336 44.8728L278.432 48.8813L287.527 44.8728M259.618 48.8813L259.618 56.8963M259.618 48.8813L268.963 44.8728L278.307 48.8813M287.527 44.8728L297.12 48.8813L306.714 44.8728M287.527 44.8728L278.307 48.8813M287.527 44.8728L296.747 48.8813M306.714 36.8596V44.8728M306.714 36.8596L316.058 32.8511L325.403 36.8596M306.714 44.8728L316.058 48.8813L325.403 44.8728M325.403 36.8596V44.8728M325.403 36.8596L334.623 32.8511L343.842 36.8596M325.403 44.8728L334.623 48.8813L343.842 44.8728M343.842 36.8596V44.8728M343.842 36.8596L353.062 32.8511L362.282 36.8596V44.8728L353.062 48.8813L343.842 44.8728M259.618 56.8963L268.963 60.903L278.307 56.8963M259.618 56.8963L249.9 60.903M259.618 56.8963L269.336 60.903M278.307 48.8813V56.8963M278.307 56.8963L287.527 60.903M296.747 48.8813V56.8963M296.747 48.8813L306.216 44.8728L315.685 48.8813M296.747 56.8963L287.527 60.903M296.747 56.8963L306.216 60.903L315.685 56.8963M287.527 60.903L278.432 56.8963L269.336 60.903M287.527 60.903V68.9181M287.527 60.903L297.12 56.8963L306.714 60.903M315.685 48.8813V56.8963M315.685 48.8813L325.278 44.8728L334.872 48.8813M315.685 56.8963L325.278 60.903L334.872 56.8963M334.872 48.8813V56.8963M334.872 48.8813L344.091 44.8728L353.311 48.8813M334.872 56.8963L344.091 60.903L353.311 56.8963M353.311 48.8813V56.8963M353.311 48.8813L362.656 44.8728L372 48.8813V56.8963L362.656 60.903L353.311 56.8963M249.9 60.903V68.9181M249.9 68.9181L259.618 72.9247L269.336 68.9181M269.336 60.903V68.9181M269.336 68.9181L278.432 72.9247L287.527 68.9181M287.527 68.9181L297.12 72.9247L306.714 68.9181M306.714 60.903V68.9181M306.714 60.903L316.058 56.8963L325.403 60.903M306.714 68.9181L316.058 72.9247L325.403 68.9181M325.403 60.903V68.9181M325.403 60.903L334.623 56.8963L343.842 60.903M325.403 68.9181L334.623 72.9247L343.842 68.9181M343.842 60.903V68.9181M343.842 60.903L353.062 56.8963L362.282 60.903V68.9181L353.062 72.9247L343.842 68.9181M-133.593 72.921L-143.062 68.9144L-152.531 72.921V80.9361M-133.593 72.921V80.9361M-133.593 72.921L-124.623 68.9144L-115.652 72.921M-133.593 80.9361L-143.062 84.9427M-133.593 80.9361L-124.623 84.9427M-143.062 84.9427L-152.531 80.9361M-143.062 84.9427L-143.062 92.9578M-152.531 80.9361L-162 84.9427V92.9578L-152.531 96.9663M-115.652 72.921V80.9361M-115.652 72.921L-105.934 68.9144L-96.2157 72.921M-115.652 80.9361L-124.623 84.9427M-115.652 80.9361L-105.934 84.9427L-96.2157 80.9361M-124.623 84.9427L-133.718 80.9361L-142.813 84.9427V92.9578L-133.718 96.9663L-124.623 92.9578M-124.623 84.9427V92.9578M-96.2157 72.921V80.9361M-96.2157 72.921L-86.7467 68.9144L-77.2778 72.921M-96.2157 80.9361L-86.7467 84.9427L-77.2778 80.9361M-77.2778 72.921V80.9361M-77.2778 72.921L-67.6842 68.9144L-58.0906 72.921M-77.2778 80.9361L-67.6842 84.9427L-58.0906 80.9361M-58.0906 72.921V80.9361M-58.0906 72.921L-49.12 68.9144L-40.1494 72.921M-58.0906 80.9361L-49.12 84.9427L-40.1494 80.9361M-40.1494 72.921V80.9361M-40.1494 72.921L-30.6805 68.9144L-21.2115 72.921M-40.1494 80.9361L-30.6805 84.9427M-21.2115 72.921V80.9361M-21.2115 72.921L-11.8671 68.9144L-2.52272 72.921M-21.2115 80.9361L-30.6805 84.9427M-21.2115 80.9361L-11.8671 84.9427L-2.52272 80.9361M-21.2115 80.9361L-11.7425 84.9427M-30.6805 84.9427L-40.0248 80.9361L-49.3692 84.9427M-30.6805 84.9427V92.9578M-143.062 92.9578L-152.531 96.9663M-143.062 92.9578L-133.593 96.9663M-152.531 96.9663L-152.531 104.981M-124.623 92.9578L-133.593 96.9663M-124.623 92.9578L-115.652 96.9663M-105.685 84.9427L-115.029 80.9361L-124.373 84.9427V92.9578L-115.029 96.9663L-105.685 92.9578M-105.685 84.9427V92.9578M-105.685 84.9427L-96.3403 80.9361L-86.9959 84.9427M-105.685 92.9578L-96.3403 96.9663L-86.9959 92.9578M-86.9959 84.9427V92.9578M-86.9959 84.9427L-77.5269 80.9361L-68.058 84.9427M-86.9959 92.9578L-77.5269 96.9663L-68.058 92.9578M-68.058 84.9427V92.9578M-68.058 84.9427L-58.7136 80.9361L-49.3692 84.9427M-68.058 92.9578L-58.7136 96.9663L-49.3692 92.9578M-49.3692 84.9427V92.9578M-49.3692 92.9578L-40.0248 96.9663L-30.6805 92.9578M-30.6805 92.9578L-40.1494 96.9663M-30.6805 92.9578L-21.2115 96.9663M-133.593 96.9663V104.981M-133.593 104.981L-143.062 108.988M-133.593 104.981L-124.623 108.988M-143.062 108.988L-152.531 104.981M-143.062 108.988L-143.062 117.003M-152.531 104.981L-162 108.988V117.003L-152.531 121.01M-115.652 96.9663V104.981M-115.652 96.9663L-105.934 92.9578L-96.2157 96.9663M-115.652 104.981L-124.623 108.988M-115.652 104.981L-105.934 108.988M-124.623 108.988L-133.718 104.981L-142.813 108.988V117.003L-133.718 121.01L-124.623 117.003M-124.623 108.988V117.003M-124.623 108.988L-115.278 104.981L-105.934 108.988M-96.2157 96.9663V104.981M-96.2157 96.9663L-86.7467 92.9578L-77.2778 96.9663M-96.2157 104.981L-105.934 108.988M-96.2157 104.981L-86.7467 108.988L-77.2778 104.981M-105.934 108.988V117.003M-77.2778 96.9663V104.981M-77.2778 96.9663L-67.6842 92.9578L-58.0906 96.9663M-77.2778 104.981L-67.6842 108.988L-58.0906 104.981M-58.0906 96.9663V104.981M-58.0906 96.9663L-49.12 92.9578L-40.1494 96.9663M-58.0906 104.981L-49.12 108.988M-40.1494 96.9663V104.981M-40.1494 104.981L-49.12 108.988M-40.1494 104.981L-30.6805 108.988M-49.12 108.988L-58.4644 104.981L-67.8088 108.988V117.003L-58.4644 121.01L-49.12 117.003L-49.12 108.988ZM-21.2115 96.9663V104.981M-21.2115 96.9663L-11.7425 92.9578M-21.2115 96.9663L-11.8671 92.9578L-2.52272 96.9663M-21.2115 104.981L-30.6805 108.988M-21.2115 104.981L-11.8671 108.988L-2.52272 104.981M-21.2115 104.981L-11.7425 108.988M-30.6805 108.988L-40.0248 104.981L-49.3692 108.988V117.003M-30.6805 108.988V117.003M-143.062 117.003L-152.531 121.01M-143.062 117.003L-133.593 121.01M-152.531 121.01L-152.531 129.025M-124.623 117.003L-115.278 121.01L-105.934 117.003M-124.623 117.003L-133.593 121.01M-124.623 117.003L-115.652 121.01M-105.934 117.003L-115.652 121.01M-105.934 117.003L-96.2157 121.01M-86.9959 108.988L-96.3403 104.981L-105.685 108.988V117.003L-96.3403 121.01L-86.9959 117.003M-86.9959 108.988V117.003M-86.9959 108.988L-77.5269 104.981L-68.058 108.988V117.003L-77.5269 121.01M-86.9959 117.003L-77.5269 121.01M-77.5269 121.01L-67.9334 117.003L-58.3398 121.01M-77.5269 121.01V129.025M-30.6805 117.003L-40.0248 121.01L-49.3692 117.003M-30.6805 117.003L-40.1494 121.01V129.025L-30.6805 133.031M-30.6805 117.003L-21.2115 121.01M-49.3692 117.003L-58.3398 121.01M-49.3692 117.003L-40.3986 121.01V129.025L-49.3692 133.031M-133.593 121.01V129.025M-133.593 129.025L-143.062 133.031M-133.593 129.025L-124.623 133.031M-143.062 133.031L-152.531 129.025M-143.062 133.031L-143.062 141.046M-152.531 129.025L-162 133.031V141.046L-152.531 145.055M-115.652 121.01V129.025M-115.652 129.025L-124.623 133.031M-115.652 129.025L-105.934 133.031M-124.623 133.031L-133.718 129.025L-142.813 133.031V141.046L-133.718 145.055L-124.623 141.046M-124.623 133.031V141.046M-124.623 133.031L-115.278 129.025L-105.934 133.031M-96.2157 121.01V129.025M-96.2157 121.01L-86.7467 117.003L-77.2778 121.01V129.025L-86.7467 133.031L-96.2157 129.025M-96.2157 129.025L-105.934 133.031M-105.934 133.031V141.046M-58.3398 121.01V129.025M-58.3398 129.025L-67.9334 133.031L-77.5269 129.025M-58.3398 129.025L-49.3692 133.031M-77.5269 129.025L-86.9959 133.031M-77.5269 129.025L-68.058 133.031V141.046L-77.5269 145.055L-86.9959 141.046M-49.3692 133.031L-40.0248 129.025L-30.6805 133.031M-49.3692 133.031L-49.3692 141.046L-40.0248 145.055L-30.6805 141.046M-21.2115 121.01V129.025M-21.2115 121.01L-11.7425 117.003M-21.2115 121.01L-11.8671 117.003L-2.52272 121.01M-21.2115 129.025L-30.6805 133.031M-21.2115 129.025L-11.8671 133.031L-2.52272 129.025M-21.2115 129.025L-11.7425 133.031M-30.6805 133.031V141.046M-143.062 141.046L-152.531 145.055M-143.062 141.046L-133.593 145.055M-152.531 145.055L-152.531 153.068M-124.623 141.046L-115.278 145.055L-105.934 141.046M-124.623 141.046L-133.593 145.055M-124.623 141.046L-115.652 145.055M-105.934 141.046L-115.652 145.055M-105.934 141.046L-96.2157 145.055M-86.9959 133.031L-96.3403 129.025L-105.685 133.031V141.046L-96.3403 145.055L-86.9959 141.046M-86.9959 133.031V141.046M-49.12 141.046V133.031L-58.4644 129.025L-67.8088 133.031V141.046L-58.4644 145.055L-49.12 141.046ZM-49.12 141.046L-58.0906 145.055M-49.12 141.046L-40.1494 145.055M-30.6805 141.046L-40.1494 145.055M-30.6805 141.046L-21.2115 145.055M-133.593 145.055V153.068M-133.593 153.068L-143.062 157.077M-133.593 153.068L-124.623 157.077M-143.062 157.077L-152.531 153.068M-143.062 157.077L-143.062 165.092M-152.531 153.068L-162 157.077V165.092L-152.531 169.098M-115.652 145.055V153.068M-115.652 153.068L-124.623 157.077M-115.652 153.068L-105.934 157.077L-96.2157 153.068M-124.623 157.077L-133.718 153.068L-142.813 157.077V165.092L-133.718 169.098L-124.623 165.092M-124.623 157.077V165.092M-96.2157 145.055V153.068M-96.2157 145.055L-86.7467 141.047L-77.2778 145.055M-96.2157 153.068L-86.7467 157.077L-77.2778 153.068M-77.2778 145.055V153.068M-77.2778 145.055L-67.6842 141.047L-58.0906 145.055M-77.2778 153.068L-67.6842 157.077L-58.0906 153.068M-58.0906 145.055V153.068M-58.0906 153.068L-49.12 157.077L-40.1494 153.068M-40.1494 145.055V153.068M-40.1494 153.068L-30.6805 157.077M-21.2115 145.055V153.068M-21.2115 145.055L-11.7425 141.046M-21.2115 145.055L-11.8671 141.047L-2.52272 145.055M-21.2115 153.068L-30.6805 157.077M-21.2115 153.068L-11.8671 157.077L-2.52272 153.068M-21.2115 153.068L-11.7425 157.077M-30.6805 157.077L-40.0248 153.068L-49.3692 157.077M-30.6805 157.077V165.092M-143.062 165.092L-152.531 169.098M-143.062 165.092L-133.593 169.098M-152.531 169.098L-152.531 177.113M-124.623 165.092L-133.593 169.098M-124.623 165.092L-115.652 169.098V177.113L-124.623 181.12M-105.685 157.077L-115.029 153.068L-124.373 157.077V165.092L-115.029 169.098L-105.685 165.092M-105.685 157.077V165.092M-105.685 157.077L-96.3403 153.068L-86.9959 157.077M-105.685 165.092L-96.3403 169.098L-86.9959 165.092M-105.685 165.092L-115.403 169.098V177.113L-105.685 181.12M-105.685 165.092L-95.9665 169.098V177.113L-105.685 181.12M-86.9959 157.077V165.092M-86.9959 157.077L-77.5269 153.068L-68.058 157.077M-86.9959 165.092L-77.5269 169.098L-68.058 165.092M-68.058 157.077V165.092M-68.058 157.077L-58.7136 153.068L-49.3692 157.077M-68.058 165.092L-58.7136 169.098L-49.3692 165.092M-49.3692 157.077V165.092M-49.3692 165.092L-40.0248 169.098L-30.6805 165.092M-30.6805 165.092L-40.1494 169.098M-30.6805 165.092L-21.2115 169.098M-133.593 169.098V177.113M-133.593 177.113L-143.062 181.12M-133.593 177.113L-124.623 181.12M-143.062 181.12L-152.531 177.113M-143.062 181.12L-143.062 189.135L-152.531 193.144L-162 189.135V181.12L-152.531 177.113M-124.623 181.12L-133.718 177.113L-142.813 181.12V189.135L-133.718 193.144L-124.623 189.135M-124.623 181.12V189.135M-124.623 181.12L-115.278 177.113L-105.934 181.12V189.135L-115.278 193.144L-124.623 189.135M-105.685 181.12L-96.3403 177.113L-86.9959 181.12V189.135L-96.3403 193.144L-105.685 189.135V181.12ZM-77.2778 169.098L-86.7467 165.092L-96.2157 169.098V177.113L-86.7467 181.12M-77.2778 169.098V177.113M-77.2778 169.098L-67.6842 165.092L-58.0906 169.098M-77.2778 177.113L-86.7467 181.12M-77.2778 177.113L-67.6842 181.12L-58.0906 177.113M-77.2778 177.113L-67.8088 181.12V189.135L-77.2778 193.144L-86.7467 189.135V181.12M-58.0906 169.098V177.113M-58.0906 169.098L-49.12 165.092L-40.1494 169.098M-58.0906 177.113L-49.12 181.12L-40.1494 177.113M-40.1494 169.098V177.113M-40.1494 177.113L-30.6805 181.12M-21.2115 169.098V177.113M-21.2115 169.098L-11.7425 165.092M-21.2115 177.113L-30.6805 181.12M-21.2115 177.113L-11.7425 181.12M-30.6805 181.12L-40.0248 177.113L-49.3692 181.12M-30.6805 181.12V189.135M-49.3692 181.12L-58.7136 177.113L-68.058 181.12V189.135L-58.7136 193.144L-49.3692 189.135M-49.3692 181.12V189.135M-49.3692 189.135L-40.0248 193.144L-30.6805 189.135M-30.6805 189.135L-21.2115 193.144L-11.7425 189.135M-2.52272 72.921V80.9361M-2.52272 72.921L6.82166 68.9144L16.166 72.921M-2.52272 80.9361L6.82166 84.9427L16.166 80.9361M16.166 72.921V80.9361M16.166 72.921L25.635 68.9144L35.104 72.921M16.166 80.9361L25.635 84.9427L35.104 80.9361M35.104 72.921V80.9361M35.104 72.921L43.95 68.9144L52.796 72.921M35.104 80.9361L43.95 84.9427L52.796 80.9361M52.796 72.921V80.9361M52.796 72.921L62.6388 68.9144L72.4815 72.921M52.796 80.9361L62.6388 84.9427L72.4815 80.9361M72.4815 72.921V80.9361M72.4815 72.921L81.7013 68.9144L90.9211 72.921M72.4815 80.9361L81.7013 84.9427M90.9211 72.921V80.9361M90.9211 72.921L100.141 68.9144L109.361 72.921M90.9211 80.9361L81.7013 84.9427M90.9211 80.9361L100.141 84.9427L109.361 80.9361M81.7013 84.9427L72.1078 80.9361L62.5142 84.9427V92.9578L72.1078 96.9663L81.7013 92.9578M81.7013 84.9427V92.9578M109.361 72.921V80.9361M109.361 72.921L118.83 68.9144L128.299 72.921M109.361 80.9361L118.83 84.9427L128.299 80.9361M-11.7425 84.9427V92.9578M-11.7425 84.9427L-2.27352 80.9361L7.19544 84.9427V92.9578L-2.27352 96.9663L-11.7425 92.9578M26.1334 84.9427L16.5398 80.9361L6.94625 84.9427V92.9578L16.5398 96.9663L26.1334 92.9578M26.1334 84.9427V92.9578M26.1334 84.9427L34.8548 80.9361L43.5762 84.9427V92.9578L34.8548 96.9663L26.1334 92.9578M81.7013 92.9578L72.4815 96.9663M81.7013 92.9578L90.9211 96.9663M99.8917 84.9427L90.6719 80.9361L81.4521 84.9427V92.9578L90.6719 96.9663L99.8917 92.9578M99.8917 84.9427V92.9578M99.8917 84.9427L109.61 80.9361L119.328 84.9427M99.8917 92.9578L109.61 96.9663L119.328 92.9578M-2.52272 96.9663V104.981M-2.52272 96.9663L6.82166 92.9578L16.166 96.9663M-2.52272 104.981L6.82166 108.988L16.166 104.981M16.166 96.9663V104.981M16.166 96.9663L25.635 92.9578L35.104 96.9663M16.166 104.981L25.635 108.988L35.104 104.981M35.104 96.9663V104.981M35.104 96.9663L43.95 92.9578L52.796 96.9663M35.104 104.981L43.95 108.988L52.796 104.981M52.796 96.9663V104.981M52.796 96.9663L62.6388 92.9578L72.4815 96.9663M52.796 104.981L62.6388 108.988L72.4815 104.981M72.4815 96.9663V104.981M72.4815 104.981L81.7013 108.988M90.9211 96.9663V104.981M90.9211 96.9663L100.141 92.9578L109.361 96.9663M90.9211 104.981L81.7013 108.988M90.9211 104.981L100.141 108.988L109.361 104.981M81.7013 108.988L72.1078 104.981L62.5142 108.988V117.003L72.1078 121.01L81.7013 117.003M81.7013 108.988V117.003M109.361 96.9663V104.981M109.361 96.9663L118.83 92.9578L128.299 96.9663M109.361 104.981L118.83 108.988L128.299 104.981M-11.7425 108.988V117.003M-11.7425 108.988L-2.27352 104.981L7.19544 108.988V117.003L-2.27352 121.01L-11.7425 117.003M26.1334 108.988L16.5398 104.981L6.94625 108.988V117.003L16.5398 121.01L26.1334 117.003M26.1334 108.988V117.003M26.1334 108.988L34.8548 104.981L43.5762 108.988V117.003L34.8548 121.01L26.1334 117.003M81.7013 117.003L72.4815 121.01M81.7013 117.003L90.9211 121.01M99.8917 108.988L90.6719 104.981L81.4521 108.988V117.003L90.6719 121.01L99.8917 117.003M99.8917 108.988V117.003M99.8917 108.988L109.61 104.981L119.328 108.988M99.8917 117.003L109.61 121.01L119.328 117.003M-2.52272 121.01V129.025M-2.52272 121.01L6.82166 117.003L16.166 121.01V129.025L6.82166 133.031L-2.52272 129.025M52.796 121.01L43.95 117.003L35.104 121.01V129.025M52.796 121.01V129.025M52.796 121.01L62.6388 117.003L72.4815 121.01M52.796 129.025L43.95 133.031L35.104 129.025M52.796 129.025L62.6388 133.031L72.4815 129.025M35.104 129.025L26.3826 133.031V141.046L35.104 145.055M35.104 129.025L43.8254 133.031M72.4815 121.01V129.025M72.4815 129.025L81.7013 133.031L90.9211 129.025M90.9211 121.01V129.025M90.9211 121.01L100.141 117.003L109.361 121.01M90.9211 129.025L100.141 133.031L109.361 129.025M109.361 121.01V129.025M109.361 121.01L118.83 117.003L128.299 121.01M109.361 129.025L118.83 133.031L128.299 129.025M-11.7425 133.031V141.046M-11.7425 133.031L-2.27352 129.025L7.19544 133.031V141.046L-2.27352 145.055L-11.7425 141.046M43.8254 133.031V141.046M43.8254 133.031L53.0452 129.025L62.265 133.031M43.8254 141.046L35.104 145.055M43.8254 141.046L53.0452 145.055L62.265 141.046M35.104 145.055L43.95 141.047L52.796 145.055M35.104 145.055V153.068M62.265 133.031V141.046M62.265 133.031L71.8586 129.025L81.4521 133.031M62.265 141.046L71.8586 145.055L81.4521 141.046M81.4521 133.031V141.046M81.4521 133.031L90.6719 129.025L99.8917 133.031M81.4521 141.046L90.6719 145.055L99.8917 141.046M99.8917 133.031V141.046M99.8917 133.031L109.61 129.025L119.328 133.031M99.8917 141.046L109.61 145.055L119.328 141.046M-2.52272 145.055V153.068M-2.52272 145.055L6.82166 141.047L16.166 145.055V153.068L6.82166 157.077L-2.52272 153.068M52.796 145.055V153.068M52.796 145.055L62.6388 141.047L72.4815 145.055M52.796 153.068L43.95 157.077L35.104 153.068M52.796 153.068L62.6388 157.077L72.4815 153.068M35.104 153.068L26.3826 157.077M35.104 153.068L43.8254 157.077M72.4815 145.055V153.068M72.4815 145.055L81.7013 141.047L90.9211 145.055M72.4815 153.068L81.7013 157.077L90.9211 153.068M90.9211 145.055V153.068M90.9211 145.055L100.141 141.047L109.361 145.055M90.9211 153.068L100.141 157.077L109.361 153.068M109.361 145.055V153.068M109.361 145.055L118.83 141.047L128.299 145.055V153.068L118.83 157.077L109.361 153.068M-11.7425 157.077V165.092M-11.7425 157.077L-2.27352 153.068L7.19544 157.077M-11.7425 165.092L-2.27352 169.098M7.19544 157.077V165.092M7.19544 157.077L16.789 153.068L26.3826 157.077M7.19544 165.092L-2.27352 169.098M7.19544 165.092L16.789 169.098L26.3826 165.092M-2.27352 169.098L-11.6179 165.092L-20.9623 169.098V177.113L-11.6179 181.12L-2.27352 177.113M-2.27352 169.098V177.113M-2.27352 169.098L7.07086 165.092L16.4152 169.098M26.3826 157.077V165.092M26.3826 165.092L35.104 169.098M43.8254 157.077V165.092M43.8254 157.077L53.0452 153.068L62.265 157.077M43.8254 165.092L35.104 169.098M43.8254 165.092L53.0452 169.098L62.265 165.092M35.104 169.098L43.95 165.092L52.796 169.098M35.104 169.098V177.113M62.265 157.077V165.092M62.265 157.077L71.8586 153.068L81.4521 157.077M62.265 165.092L71.8586 169.098L81.4521 165.092M81.4521 157.077V165.092M81.4521 157.077L90.6719 153.068L99.8917 157.077M81.4521 165.092L90.6719 169.098L99.8917 165.092M99.8917 157.077V165.092M99.8917 157.077L109.61 153.068L119.328 157.077M99.8917 165.092L109.61 169.098L119.328 165.092M-2.27352 177.113L7.07086 181.12L16.4152 177.113M-2.27352 177.113L-11.7425 181.12M-2.27352 177.113L7.19544 181.12M16.4152 169.098V177.113M16.4152 169.098L25.8842 165.092L35.3532 169.098V177.113L25.8842 181.12L16.4152 177.113M52.796 169.098V177.113M52.796 169.098L62.6388 165.092L72.4815 169.098M52.796 177.113L43.95 181.12L35.104 177.113M52.796 177.113L62.6388 181.12L72.4815 177.113M35.104 177.113L26.3826 181.12M35.104 177.113L43.8254 181.12M72.4815 169.098V177.113M72.4815 169.098L81.7013 165.092L90.9211 169.098M72.4815 177.113L81.7013 181.12L90.9211 177.113M90.9211 169.098V177.113M90.9211 169.098L100.141 165.092L109.361 169.098M90.9211 177.113L100.141 181.12L109.361 177.113M109.361 169.098V177.113M109.361 169.098L118.83 165.092L128.299 169.098M109.361 177.113L118.83 181.12L128.299 177.113M-11.7425 181.12V189.135M-11.7425 189.135L-2.27352 193.144L7.19544 189.135M7.19544 181.12V189.135M7.19544 181.12L16.789 177.113L26.3826 181.12M7.19544 189.135L16.789 193.144L26.3826 189.135M26.3826 181.12V189.135M26.3826 189.135L35.104 193.144L43.8254 189.135M43.8254 181.12V189.135M43.8254 181.12L53.0452 177.113L62.265 181.12M43.8254 189.135L53.0452 193.144L62.265 189.135M62.265 181.12V189.135M62.265 181.12L71.8586 177.113L81.4521 181.12M62.265 189.135L71.8586 193.144L81.4521 189.135M81.4521 181.12V189.135M81.4521 181.12L90.6719 177.113L99.8917 181.12M81.4521 189.135L90.6719 193.144L99.8917 189.135M99.8917 181.12V189.135M99.8917 181.12L109.61 177.113L119.328 181.12M99.8917 189.135L109.61 193.144L119.328 189.135M128.299 72.921V80.9361M128.299 72.921L137.518 68.9144L146.738 72.921M128.299 80.9361L137.518 84.9427L146.738 80.9361M146.738 72.921V80.9361M146.738 72.921L156.332 68.9144L165.925 72.921M146.738 80.9361L156.332 84.9427L165.925 80.9361M165.925 72.921V80.9361M165.925 72.921L175.145 68.9144L184.365 72.921M165.925 80.9361L175.145 84.9427L184.365 80.9361M184.365 72.921V80.9361M184.365 72.921L193.834 68.9144L203.303 72.921M184.365 80.9361L193.834 84.9427L203.303 80.9361M203.303 72.921V80.9361M203.303 72.921L212.772 68.9144L222.241 72.921M203.303 80.9361L212.772 84.9427L222.241 80.9361M222.241 72.921V80.9361M222.241 72.921L231.585 68.9144L240.93 72.921M222.241 80.9361L231.585 84.9427L240.93 80.9361M240.93 72.921V80.9361M240.93 72.921L250.274 68.9144L259.618 72.921M240.93 80.9361L250.274 84.9427L259.618 80.9361M240.93 80.9361L231.959 84.9427M240.93 80.9361L249.9 84.9427M119.328 84.9427V92.9578M119.328 84.9427L128.548 80.9361L137.768 84.9427M119.328 92.9578L128.548 96.9663L137.768 92.9578M137.768 84.9427V92.9578M137.768 84.9427L147.361 80.9361L156.955 84.9427M137.768 92.9578L147.361 96.9663L156.955 92.9578M156.955 84.9427V92.9578M156.955 84.9427L166.174 80.9361L175.394 84.9427M156.955 92.9578L166.174 96.9663L175.394 92.9578M175.394 84.9427V92.9578M175.394 84.9427L184.49 80.9361L193.585 84.9427M175.394 92.9578L184.49 96.9663L193.585 92.9578M193.585 84.9427V92.9578M193.585 84.9427L202.929 80.9361L212.273 84.9427M193.585 92.9578L202.929 96.9663L212.273 92.9578M212.273 84.9427V92.9578M212.273 84.9427L222.116 80.9361L231.959 84.9427M212.273 92.9578L222.116 96.9663L231.959 92.9578M231.959 84.9427V92.9578M231.959 92.9578L240.93 96.9663M128.299 96.9663V104.981M128.299 96.9663L137.518 92.9578L146.738 96.9663M128.299 104.981L137.518 108.988L146.738 104.981M146.738 96.9663V104.981M146.738 96.9663L156.332 92.9578L165.925 96.9663M146.738 104.981L156.332 108.988L165.925 104.981M165.925 96.9663V104.981M165.925 96.9663L175.145 92.9578L184.365 96.9663M165.925 104.981L175.145 108.988L184.365 104.981M184.365 96.9663V104.981M184.365 96.9663L193.834 92.9578L203.303 96.9663M184.365 104.981L193.834 108.988L203.303 104.981M203.303 96.9663V104.981M203.303 96.9663L212.772 92.9578L222.241 96.9663M203.303 104.981L212.772 108.988L222.241 104.981M222.241 96.9663V104.981M222.241 96.9663L231.585 92.9578L240.93 96.9663M222.241 104.981L231.585 108.988L240.93 104.981M240.93 96.9663V104.981M240.93 96.9663L249.9 92.9578M240.93 96.9663L250.274 92.9578L259.618 96.9663M240.93 104.981L250.274 108.988L259.618 104.981M240.93 104.981L231.959 108.988M240.93 104.981L249.9 108.988M119.328 108.988V117.003M119.328 108.988L128.548 104.981L137.768 108.988M119.328 117.003L128.548 121.01L137.768 117.003M137.768 108.988V117.003M137.768 108.988L147.361 104.981L156.955 108.988M137.768 117.003L147.361 121.01L156.955 117.003M156.955 108.988V117.003M156.955 108.988L166.174 104.981L175.394 108.988M156.955 117.003L166.174 121.01L175.394 117.003M175.394 108.988V117.003M175.394 108.988L184.49 104.981L193.585 108.988M175.394 117.003L184.49 121.01L193.585 117.003M193.585 108.988V117.003M193.585 108.988L202.929 104.981L212.273 108.988M193.585 117.003L202.929 121.01L212.273 117.003M212.273 108.988V117.003M212.273 108.988L222.116 104.981L231.959 108.988M212.273 117.003L222.116 121.01L231.959 117.003M231.959 108.988V117.003M231.959 117.003L240.93 121.01M128.299 121.01V129.025M128.299 121.01L137.518 117.003L146.738 121.01M128.299 129.025L137.518 133.031L146.738 129.025M146.738 121.01V129.025M146.738 121.01L156.332 117.003L165.925 121.01M146.738 129.025L156.332 133.031L165.925 129.025M165.925 121.01V129.025M165.925 121.01L175.145 117.003L184.365 121.01M165.925 129.025L175.145 133.031L184.365 129.025M184.365 121.01V129.025M184.365 121.01L193.834 117.003L203.303 121.01M184.365 129.025L193.834 133.031L203.303 129.025M203.303 121.01V129.025M203.303 121.01L212.772 117.003L222.241 121.01M203.303 129.025L212.772 133.031L222.241 129.025M222.241 121.01V129.025M222.241 121.01L231.585 117.003L240.93 121.01M222.241 129.025L231.585 133.031L240.93 129.025M240.93 121.01V129.025M240.93 121.01L249.9 117.003M240.93 121.01L250.274 117.003L259.618 121.01M240.93 129.025L250.274 133.031L259.618 129.025M240.93 129.025L231.959 133.031M240.93 129.025L249.9 133.031M119.328 133.031V141.046M119.328 133.031L128.548 129.025L137.768 133.031M119.328 141.046L128.548 145.055M137.768 133.031V141.046M137.768 133.031L147.361 129.025L156.955 133.031M137.768 141.046L128.548 145.055M137.768 141.046L147.361 145.055L156.955 141.046M137.768 141.046L146.987 145.055M128.548 145.055V153.068M156.955 133.031V141.046M156.955 133.031L166.174 129.025L175.394 133.031M156.955 141.046L166.174 145.055M175.394 133.031V141.046M175.394 133.031L184.49 129.025L193.585 133.031M175.394 141.046L166.174 145.055M175.394 141.046L184.49 145.055L193.585 141.046M166.174 145.055L156.581 141.047L146.987 145.055M166.174 145.055L166.175 153.068M193.585 133.031V141.046M193.585 133.031L202.929 129.025L212.273 133.031M193.585 141.046L202.929 145.055L212.273 141.046M212.273 133.031V141.046M212.273 133.031L222.116 129.025L231.959 133.031M212.273 141.046L222.116 145.055L231.959 141.046M231.959 133.031V141.046M231.959 141.046L240.93 145.055M146.987 145.055V153.068M146.987 153.068L137.768 157.077M146.987 153.068L156.581 157.077L166.175 153.068M137.768 157.077L128.548 153.068M137.768 157.077V165.092M137.768 157.077L147.361 153.068L156.955 157.077M128.548 153.068L119.328 157.077M166.175 153.068L156.955 157.077M166.175 153.068L175.394 157.077M184.365 145.055L175.145 141.047L165.925 145.055V153.068L175.145 157.077L184.365 153.068M184.365 145.055V153.068M184.365 145.055L193.834 141.047L203.303 145.055M184.365 153.068L193.834 157.077L203.303 153.068M203.303 145.055V153.068M203.303 145.055L212.772 141.047L222.241 145.055M203.303 153.068L212.772 157.077L222.241 153.068M222.241 145.055V153.068M222.241 145.055L231.585 141.047L240.93 145.055M222.241 153.068L231.585 157.077L240.93 153.068M240.93 145.055V153.068M240.93 145.055L249.9 141.046M240.93 145.055L250.274 141.047L259.618 145.055M240.93 153.068L250.274 157.077L259.618 153.068M240.93 153.068L231.959 157.077M240.93 153.068L249.9 157.077M119.328 157.077V165.092M119.328 165.092L128.548 169.098L137.768 165.092M137.768 165.092L147.361 169.098L156.955 165.092M156.955 157.077V165.092M156.955 165.092L166.174 169.098M175.394 157.077V165.092M175.394 157.077L184.49 153.068L193.585 157.077M175.394 165.092L166.174 169.098M175.394 165.092L184.49 169.098L193.585 165.092M166.174 169.098L156.581 165.092L146.987 169.098V177.113L156.581 181.12L166.175 177.113M166.174 169.098L166.175 177.113M193.585 157.077V165.092M193.585 157.077L202.929 153.068L212.273 157.077M193.585 165.092L202.929 169.098L212.273 165.092M212.273 157.077V165.092M212.273 157.077L222.116 153.068L231.959 157.077M212.273 165.092L222.116 169.098L231.959 165.092M231.959 157.077V165.092M231.959 165.092L240.93 169.098M128.299 169.098V177.113M128.299 169.098L137.518 165.092L146.738 169.098V177.113L137.518 181.12L128.299 177.113M166.175 177.113L156.955 181.12M166.175 177.113L175.394 181.12M184.365 169.098L175.145 165.092L165.925 169.098V177.113L175.145 181.12L184.365 177.113M184.365 169.098V177.113M184.365 169.098L193.834 165.092L203.303 169.098M184.365 177.113L193.834 181.12L203.303 177.113M203.303 169.098V177.113M203.303 169.098L212.772 165.092L222.241 169.098M203.303 177.113L212.772 181.12L222.241 177.113M222.241 169.098V177.113M222.241 169.098L231.585 165.092L240.93 169.098M222.241 177.113L231.585 181.12L240.93 177.113M240.93 169.098V177.113M240.93 169.098L249.9 165.092M240.93 169.098L250.274 165.092L259.618 169.098M240.93 177.113L250.274 181.12L259.618 177.113M240.93 177.113L231.959 181.12M240.93 177.113L249.9 181.12M119.328 181.12V189.135M119.328 181.12L128.548 177.113L137.768 181.12M119.328 189.135L128.548 193.144L137.768 189.135M137.768 181.12V189.135M137.768 181.12L147.361 177.113L156.955 181.12M137.768 189.135L147.361 193.144L156.955 189.135M156.955 181.12V189.135M156.955 189.135L166.174 193.144L175.394 189.135M175.394 181.12V189.135M175.394 181.12L184.49 177.113L193.585 181.12M175.394 189.135L184.49 193.144L193.585 189.135M193.585 181.12V189.135M193.585 181.12L202.929 177.113L212.273 181.12M193.585 189.135L202.929 193.144L212.273 189.135M212.273 181.12V189.135M212.273 181.12L222.116 177.113L231.959 181.12M212.273 189.135L222.116 193.144L231.959 189.135M231.959 181.12V189.135M231.959 189.135L240.93 193.144L249.9 189.135M259.618 72.921V80.9361M259.618 72.921L268.963 68.9144L278.307 72.921M259.618 80.9361L268.963 84.9427L278.307 80.9361M259.618 80.9361L249.9 84.9427M259.618 80.9361L269.336 84.9427M278.307 72.921V80.9361M278.307 72.921L287.527 68.9144L296.747 72.921M278.307 80.9361L287.527 84.9427M296.747 72.921V80.9361M296.747 72.921L306.216 68.9144L315.685 72.921M296.747 80.9361L287.527 84.9427M296.747 80.9361L306.216 84.9427L315.685 80.9361M287.527 84.9427L278.432 80.9361L269.336 84.9427M287.527 84.9427V92.9578M287.527 84.9427L297.12 80.9361L306.714 84.9427M315.685 72.921V80.9361M315.685 72.921L325.278 68.9144L334.872 72.921M315.685 80.9361L325.278 84.9427L334.872 80.9361M334.872 72.921V80.9361M334.872 72.921L344.091 68.9144L353.311 72.921M334.872 80.9361L344.091 84.9427L353.311 80.9361M353.311 72.921V80.9361M353.311 72.921L362.656 68.9144L372 72.921V80.9361L362.656 84.9427L353.311 80.9361M249.9 84.9427V92.9578M249.9 92.9578L259.618 96.9663M269.336 84.9427V92.9578M269.336 92.9578L259.618 96.9663M269.336 92.9578L278.432 96.9663L287.527 92.9578M259.618 96.9663L259.618 104.981M259.618 96.9663L268.963 92.9578L278.307 96.9663M287.527 92.9578L297.12 96.9663L306.714 92.9578M287.527 92.9578L278.307 96.9663M287.527 92.9578L296.747 96.9663M306.714 84.9427V92.9578M306.714 84.9427L316.058 80.9361L325.403 84.9427M306.714 92.9578L316.058 96.9663L325.403 92.9578M325.403 84.9427V92.9578M325.403 84.9427L334.623 80.9361L343.842 84.9427M325.403 92.9578L334.623 96.9663L343.842 92.9578M343.842 84.9427V92.9578M343.842 84.9427L353.062 80.9361L362.282 84.9427V92.9578L353.062 96.9663L343.842 92.9578M259.618 104.981L268.963 108.988L278.307 104.981M259.618 104.981L249.9 108.988M259.618 104.981L269.336 108.988M278.307 96.9663V104.981M278.307 104.981L287.527 108.988M296.747 96.9663V104.981M296.747 96.9663L306.216 92.9578L315.685 96.9663M296.747 104.981L287.527 108.988M296.747 104.981L306.216 108.988L315.685 104.981M287.527 108.988L278.432 104.981L269.336 108.988M287.527 108.988V117.003M287.527 108.988L297.12 104.981L306.714 108.988M315.685 96.9663V104.981M315.685 96.9663L325.278 92.9578L334.872 96.9663M315.685 104.981L325.278 108.988L334.872 104.981M334.872 96.9663V104.981M334.872 96.9663L344.091 92.9578L353.311 96.9663M334.872 104.981L344.091 108.988L353.311 104.981M353.311 96.9663V104.981M353.311 96.9663L362.656 92.9578L372 96.9663V104.981L362.656 108.988L353.311 104.981M249.9 108.988V117.003M249.9 117.003L259.618 121.01M269.336 108.988V117.003M269.336 117.003L259.618 121.01M269.336 117.003L278.432 121.01L287.527 117.003M259.618 121.01L259.618 129.025M259.618 121.01L268.963 117.003L278.307 121.01M287.527 117.003L297.12 121.01L306.714 117.003M287.527 117.003L278.307 121.01M287.527 117.003L296.747 121.01M306.714 108.988V117.003M306.714 108.988L316.058 104.981L325.403 108.988M306.714 117.003L316.058 121.01L325.403 117.003M325.403 108.988V117.003M325.403 108.988L334.623 104.981L343.842 108.988M325.403 117.003L334.623 121.01L343.842 117.003M343.842 108.988V117.003M343.842 108.988L353.062 104.981L362.282 108.988V117.003L353.062 121.01L343.842 117.003M259.618 129.025L268.963 133.031L278.307 129.025M259.618 129.025L249.9 133.031M259.618 129.025L269.336 133.031M278.307 121.01V129.025M278.307 129.025L287.527 133.031M296.747 121.01V129.025M296.747 121.01L306.216 117.003L315.685 121.01M296.747 129.025L287.527 133.031M296.747 129.025L306.216 133.031L315.685 129.025M287.527 133.031L278.432 129.025L269.336 133.031M287.527 133.031V141.046M287.527 133.031L297.12 129.025L306.714 133.031M315.685 121.01V129.025M315.685 121.01L325.278 117.003L334.872 121.01M315.685 129.025L325.278 133.031L334.872 129.025M334.872 121.01V129.025M334.872 121.01L344.091 117.003L353.311 121.01M334.872 129.025L344.091 133.031L353.311 129.025M353.311 121.01V129.025M353.311 121.01L362.656 117.003L372 121.01V129.025L362.656 133.031L353.311 129.025M249.9 133.031V141.046M249.9 141.046L259.618 145.055M269.336 133.031V141.046M269.336 141.046L259.618 145.055M269.336 141.046L278.432 145.055L287.527 141.046M259.618 145.055L259.618 153.068M259.618 145.055L268.963 141.047L278.307 145.055M287.527 141.046L297.12 145.055L306.714 141.046M287.527 141.046L278.307 145.055M287.527 141.046L296.747 145.055M306.714 133.031V141.046M306.714 133.031L316.058 129.025L325.403 133.031M306.714 141.046L316.058 145.055L325.403 141.046M325.403 133.031V141.046M325.403 133.031L334.623 129.025L343.842 133.031M325.403 141.046L334.623 145.055L343.842 141.046M343.842 133.031V141.046M343.842 133.031L353.062 129.025L362.282 133.031V141.046L353.062 145.055L343.842 141.046M259.618 153.068L268.963 157.077L278.307 153.068M259.618 153.068L249.9 157.077M259.618 153.068L269.336 157.077M278.307 145.055V153.068M278.307 153.068L287.527 157.077M296.747 145.055V153.068M296.747 145.055L306.216 141.047L315.685 145.055M296.747 153.068L287.527 157.077M296.747 153.068L306.216 157.077L315.685 153.068M287.527 157.077L278.432 153.068L269.336 157.077M287.527 157.077V165.092M287.527 157.077L297.12 153.068L306.714 157.077M315.685 145.055V153.068M315.685 145.055L325.278 141.047L334.872 145.055M315.685 153.068L325.278 157.077L334.872 153.068M334.872 145.055V153.068M334.872 145.055L344.091 141.047L353.311 145.055M334.872 153.068L344.091 157.077L353.311 153.068M353.311 145.055V153.068M353.311 145.055L362.656 141.047L372 145.055V153.068L362.656 157.077L353.311 153.068M249.9 157.077V165.092M249.9 165.092L259.618 169.098M269.336 157.077V165.092M269.336 165.092L259.618 169.098M269.336 165.092L278.432 169.098L287.527 165.092M259.618 169.098L259.618 177.113M259.618 169.098L268.963 165.092L278.307 169.098M287.527 165.092L297.12 169.098L306.714 165.092M287.527 165.092L278.307 169.098M287.527 165.092L296.747 169.098M306.714 157.077V165.092M306.714 157.077L316.058 153.068L325.403 157.077M306.714 165.092L316.058 169.098L325.403 165.092M325.403 157.077V165.092M325.403 157.077L334.623 153.068L343.842 157.077M325.403 165.092L334.623 169.098L343.842 165.092M343.842 157.077V165.092M343.842 157.077L353.062 153.068L362.282 157.077V165.092L353.062 169.098L343.842 165.092M259.618 177.113L268.963 181.12L278.307 177.113M259.618 177.113L249.9 181.12M259.618 177.113L269.336 181.12M278.307 169.098V177.113M278.307 177.113L287.527 181.12M296.747 169.098V177.113M296.747 169.098L306.216 165.092L315.685 169.098M296.747 177.113L287.527 181.12M296.747 177.113L306.216 181.12L315.685 177.113M287.527 181.12L278.432 177.113L269.336 181.12M287.527 181.12V189.135M287.527 181.12L297.12 177.113L306.714 181.12M315.685 169.098V177.113M315.685 169.098L325.278 165.092L334.872 169.098M315.685 177.113L325.278 181.12L334.872 177.113M334.872 169.098V177.113M334.872 169.098L344.091 165.092L353.311 169.098M334.872 177.113L344.091 181.12L353.311 177.113M353.311 169.098V177.113M353.311 169.098L362.656 165.092L372 169.098V177.113L362.656 181.12L353.311 177.113M249.9 181.12V189.135M249.9 189.135L259.618 193.144L269.336 189.135M269.336 181.12V189.135M269.336 189.135L278.432 193.144L287.527 189.135M287.527 189.135L297.12 193.144L306.714 189.135M306.714 181.12V189.135M306.714 181.12L316.058 177.113L325.403 181.12M306.714 189.135L316.058 193.144L325.403 189.135M325.403 181.12V189.135M325.403 181.12L334.623 177.113L343.842 181.12M325.403 189.135L334.623 193.144L343.842 189.135M343.842 181.12V189.135M343.842 181.12L353.062 177.113L362.282 181.12V189.135L353.062 193.144L343.842 189.135M26.1334 -11.2291L34.8548 -15.2376L43.5762 -11.2291V-3.21404L34.8548 0.792579L26.1334 -3.21404V-11.2291ZM16.4152 24.836L25.8842 20.8294L35.3532 24.836V32.8511L25.8842 36.8596L16.4152 32.8511V24.836ZM6.94625 36.8596L16.5398 32.8511L26.1334 36.8596V44.8728L16.5398 48.8813L6.94625 44.8728V36.8596ZM16.4152 48.8813L25.8842 44.8728L35.3532 48.8813V56.8963L25.8842 60.903L16.4152 56.8963V48.8813ZM43.8254 60.903L53.0452 56.8963L62.265 60.903V68.9181L53.0452 72.9247L43.8254 68.9181V60.903ZM43.8254 84.9427L53.0452 80.9361L62.265 84.9427V92.9578L53.0452 96.9663L43.8254 92.9578V84.9427ZM43.8254 108.988L53.0452 104.981L62.265 108.988V117.003L53.0452 121.01L43.8254 117.003V108.988ZM16.4152 121.01L25.8842 117.003L35.3532 121.01V129.025L25.8842 133.031L16.4152 129.025V121.01ZM6.94625 133.031L16.5398 129.025L26.1334 133.031V141.046L16.5398 145.055L6.94625 141.046V133.031ZM16.4152 145.055L25.8842 141.047L35.3532 145.055V153.068L25.8842 157.077L16.4152 153.068V145.055Z" stroke="url(#paint1_linear_123_44672)" stroke-opacity="0.6" stroke-miterlimit="10"/>
</g>
</g>
<defs>
<linearGradient id="paint0_linear_123_44672" x1="4" y1="3.01758" x2="138.949" y2="204.243" gradientUnits="userSpaceOnUse">
<stop stop-color="white"/>
<stop offset="0.505" stop-color="white" stop-opacity="0"/>
<stop offset="1" stop-color="white"/>
</linearGradient>
<linearGradient id="paint1_linear_123_44672" x1="-162" y1="-123.345" x2="88.272" y2="214.626" gradientUnits="userSpaceOnUse">
<stop offset="0.55" stop-color="white" stop-opacity="0"/>
<stop offset="0.73" stop-color="white"/>
<stop offset="0.88" stop-color="white" stop-opacity="0"/>
</linearGradient>
</defs>
</svg>
