<svg width="343" height="48" viewBox="0 0 343 48" fill="none" xmlns="http://www.w3.org/2000/svg">
<path d="M34.2122 31.4422L34.2121 31.4431C34.2078 31.4821 34.1943 31.5197 34.1728 31.5526C34.1512 31.5854 34.1223 31.6127 34.0882 31.6323C32.2357 32.6953 30.1366 33.2531 28.0008 33.25H28.0001C25.7846 33.25 23.7052 32.662 21.9121 31.6324C21.8779 31.6128 21.8489 31.5855 21.8274 31.5526C21.8059 31.5197 21.7924 31.4822 21.7881 31.4431C21.6326 30.0228 21.9656 28.592 22.732 27.3862L22.7708 27.3253C23.3321 26.4675 24.0962 25.7608 24.9959 25.268C25.9167 24.7635 26.9499 24.4994 27.9998 24.5H28.0005C28.88 24.4992 29.7496 24.6841 30.5526 25.0427C31.3556 25.4013 32.0738 25.9254 32.6602 26.5808C33.2466 27.2361 33.688 28.008 33.9554 28.8457C34.2229 29.6835 34.3104 30.5683 34.2122 31.4422ZM28.0001 24C28.9499 23.9991 29.8892 24.1989 30.7565 24.5862C31.6238 24.9734 32.3995 25.5395 33.0328 26.2474C33.6662 26.9552 34.1429 27.7888 34.4317 28.6936C34.7206 29.5985 34.8151 30.5541 34.7091 31.498L28.0001 24ZM19.847 27.0687C19.9354 27.0264 20.0255 26.9882 20.117 26.9541C19.5438 28.147 19.2466 29.4561 19.2502 30.7834C18.8865 30.7033 18.5278 30.6011 18.1761 30.4774L18.1743 30.4767L18.0623 30.4378C18.0621 30.4377 18.0618 30.4376 18.0616 30.4375C18.0504 30.4334 18.0406 30.4262 18.0334 30.4167C18.026 30.4071 18.0215 30.3955 18.0206 30.3833L18.0204 30.3808L18.0105 30.2609C18.0105 30.2607 18.0104 30.2605 18.0104 30.2604C17.9755 29.8254 18.0285 29.3879 18.1663 28.9739C18.3041 28.5598 18.524 28.1776 18.8128 27.8503C19.1015 27.5229 19.4533 27.2571 19.847 27.0687ZM37.9798 30.3808L37.9797 30.3824C37.9787 30.3945 37.9742 30.4061 37.9668 30.4158C37.9596 30.4252 37.9498 30.4324 37.9387 30.4365C37.9384 30.4366 37.9382 30.4367 37.9379 30.4368L37.8258 30.4757L37.8238 30.4765C37.4742 30.5998 37.1161 30.7026 36.75 30.7834C36.7536 29.456 36.4563 28.1469 35.8832 26.9541C35.9747 26.9882 36.0648 27.0264 36.1532 27.0687C36.5469 27.2571 36.8986 27.5229 37.1874 27.8503C37.4762 28.1776 37.696 28.5598 37.8339 28.9739C37.9716 29.3879 38.0246 29.8253 37.9897 30.2602C37.9897 30.2604 37.9897 30.2607 37.9897 30.2609L37.9798 30.3808ZM24.7501 18.75C24.7501 17.888 25.0925 17.0614 25.702 16.4519C26.3115 15.8424 27.1381 15.5 28.0001 15.5C28.862 15.5 29.6887 15.8424 30.2982 16.4519C30.9077 17.0614 31.2501 17.888 31.2501 18.75C31.2501 19.612 30.9077 20.4386 30.2982 21.0481C29.6887 21.6576 28.862 22 28.0001 22C27.1381 22 26.3115 21.6576 25.702 21.0481C25.0925 20.4386 24.7501 19.612 24.7501 18.75ZM32.2501 21.75C32.2501 21.087 32.5135 20.4511 32.9823 19.9822C33.4512 19.5134 34.087 19.25 34.7501 19.25C35.4131 19.25 36.049 19.5134 36.5178 19.9822C36.9867 20.4511 37.2501 21.087 37.2501 21.75C37.2501 22.413 36.9867 23.0489 36.5178 23.5178C36.049 23.9866 35.4131 24.25 34.7501 24.25C34.087 24.25 33.4512 23.9866 32.9823 23.5178C32.5135 23.0489 32.2501 22.413 32.2501 21.75ZM18.7501 21.75C18.7501 21.087 19.0135 20.4511 19.4823 19.9822C19.9512 19.5134 20.587 19.25 21.2501 19.25C21.9131 19.25 22.549 19.5134 23.0178 19.9822C23.4867 20.4511 23.7501 21.087 23.7501 21.75C23.7501 22.413 23.4867 23.0489 23.0178 23.5178C22.549 23.9866 21.9131 24.25 21.2501 24.25C20.587 24.25 19.9512 23.9866 19.4823 23.5178C19.0135 23.0489 18.7501 22.413 18.7501 21.75Z" fill="#B9BDCC" stroke="#B9BDCC"/>
<path d="M60.2969 18.3594V19.8828H54.7969V30H53.0625V18.3594H60.2969ZM60.0666 33.2656V21.75H61.6838V22.9375H61.7072C61.9676 22.4844 62.3244 22.1458 62.7775 21.9219C63.2306 21.6979 63.7254 21.5859 64.2619 21.5859C64.9702 21.5859 65.5926 21.7682 66.1291 22.1328C66.6655 22.4922 67.0822 22.9948 67.3791 23.6406C67.6811 24.2812 67.8322 25.026 67.8322 25.875C67.8322 26.724 67.6838 27.4714 67.3869 28.1172C67.09 28.7578 66.6733 29.2604 66.1369 29.625C65.6004 29.9844 64.9728 30.1641 64.2541 30.1641C63.7176 30.1641 63.2332 30.0469 62.8009 29.8125C62.3686 29.5781 62.0145 29.2266 61.7384 28.7578H61.715V33.2656H60.0666ZM63.9181 28.7422C64.5848 28.7422 65.1239 28.4974 65.5353 28.0078C65.952 27.5182 66.1603 26.8073 66.1603 25.875C66.1603 24.9427 65.952 24.2318 65.5353 23.7422C65.1239 23.2474 64.5848 23 63.9181 23C63.215 23 62.6525 23.263 62.2306 23.7891C61.814 24.3099 61.6056 25.0052 61.6056 25.875C61.6056 26.7396 61.814 27.4349 62.2306 27.9609C62.6525 28.4818 63.215 28.7422 63.9181 28.7422ZM68.9222 33.2656V31.875H69.8128C70.0732 31.875 70.2842 31.7995 70.4456 31.6484C70.6123 31.5026 70.7581 31.2604 70.8831 30.9219L71.2581 29.9453L68.0706 21.75H69.8363L71.4847 26.2734C71.5941 26.5807 71.7008 26.8906 71.805 27.2031C71.9092 27.5104 72.0107 27.8177 72.1097 28.125C72.2086 27.8177 72.3102 27.5104 72.4144 27.2031C72.5238 26.8906 72.6331 26.5807 72.7425 26.2734L74.3675 21.75H76.1097L72.3597 31.4453C71.8961 32.6589 71.0993 33.2656 69.9691 33.2656H68.9222ZM84.2309 21.75V30H82.5825V23.2266H78.7231V30H77.0747V21.75H84.2309ZM93.0866 21.75V30H91.4381V23.2266H87.5788V30H85.9303V21.75H93.0866ZM96.4344 24.5078H98.5984C99.5516 24.5078 100.32 24.7578 100.903 25.2578C101.486 25.7578 101.778 26.4141 101.778 27.2266C101.778 28.0547 101.486 28.724 100.903 29.2344C100.32 29.7448 99.5516 30 98.5984 30H94.7859V21.75H96.4344V24.5078ZM96.4344 25.9453V28.5547H98.5359C99.0359 28.5547 99.4292 28.4349 99.7156 28.1953C100.007 27.9557 100.153 27.6328 100.153 27.2266C100.153 26.8307 100.007 26.5182 99.7156 26.2891C99.4292 26.0599 99.0359 25.9453 98.5359 25.9453H96.4344ZM102.497 30V21.75H104.145V30H102.497Z" fill="#8B8E9A"/>
</svg>
