<svg width="22" height="24" viewBox="0 0 22 24" fill="none" xmlns="http://www.w3.org/2000/svg">
<path fill-rule="evenodd" clip-rule="evenodd" d="M13.117 0.565036C11.807 -0.188345 10.193 -0.188345 8.88305 0.565036L2.11695 4.45629C0.806977 5.20967 0 6.60198 0 8.10874V15.8913C0 17.398 0.806977 18.7903 2.11695 19.5437L8.88305 23.435C10.193 24.1883 11.807 24.1883 13.117 23.435L19.8831 19.5437C21.193 18.7903 22 17.398 22 15.8913V8.10874C22 7.62266 21.916 7.14848 21.7583 6.70383L11.2956 17.6897C11.1068 17.8878 10.8451 18 10.5714 18C10.2978 18 10.036 17.8878 9.84729 17.6897L5.27586 12.8897C4.89498 12.4897 4.91041 11.8567 5.31034 11.4759C5.71028 11.095 6.34325 11.1104 6.72414 11.5103L10.5714 15.55L20.6229 4.99592C20.3992 4.79218 20.1517 4.6108 19.8831 4.45629L13.117 0.565036Z" fill="#8E35FF"/>
<path d="M12.8677 0.998468L19.6338 4.88973C20.7892 5.55422 21.5 6.78156 21.5 8.10874V15.8913C21.5 17.2184 20.7892 18.4458 19.6338 19.1103L12.8677 23.0015C11.712 23.6662 10.288 23.6662 9.13232 23.0015L2.36622 19.1103C1.2108 18.4458 0.5 17.2184 0.5 15.8913V8.10874C0.5 6.78156 1.2108 5.55423 2.36622 4.88973L9.13232 0.998468C10.288 0.333844 11.712 0.333844 12.8677 0.998468Z" stroke="#DEE3E8"/>
</svg>
