<svg width="148" height="48" viewBox="0 0 148 48" fill="none" xmlns="http://www.w3.org/2000/svg">
<g clip-path="url(#clip0_1_4223)">
<mask id="mask0_1_4223" style="mask-type:alpha" maskUnits="userSpaceOnUse" x="2" y="0" width="44" height="48">
<path d="M20 1.3094C22.4752 -0.119662 25.5248 -0.119661 28 1.3094L41.6506 9.1906C44.1258 10.6197 45.6506 13.2607 45.6506 16.1188V31.8812C45.6506 34.7393 44.1258 37.3803 41.6506 38.8094L28 46.6906C25.5248 48.1197 22.4752 48.1197 20 46.6906L6.34936 38.8094C3.87416 37.3803 2.34937 34.7393 2.34937 31.8812V16.1188C2.34937 13.2607 3.87416 10.6197 6.34936 9.1906L20 1.3094Z" fill="#D9D9D9"/>
</mask>
<g mask="url(#mask0_1_4223)">
<path d="M20 1.3094C22.4752 -0.119662 25.5248 -0.119661 28 1.3094L41.6506 9.1906C44.1258 10.6197 45.6506 13.2607 45.6506 16.1188V31.8812C45.6506 34.7393 44.1258 37.3803 41.6506 38.8094L28 46.6906C25.5248 48.1197 22.4752 48.1197 20 46.6906L6.34936 38.8094C3.87416 37.3803 2.34937 34.7393 2.34937 31.8812V16.1188C2.34937 13.2607 3.87416 10.6197 6.34936 9.1906L20 1.3094Z" fill="white"/>
<path fill-rule="evenodd" clip-rule="evenodd" d="M46.3949 63.0281L46.5526 62.9574L46.7979 62.8337L47.3411 61.579L69 23.7261L46.4299 -15.1871C46.465 -15.2931 46.2897 -15.4522 46.2897 -15.4522L45.4661 -16H24.5082L2.8493 -15.9647L1.72781 -15.3992H1.69276L-21 24.0442L1.60514 63.5229L2.88435 64L45.2033 63.5935L46.3949 63.0281ZM31.1671 17.8414C31.2021 17.9828 31.2547 18.1418 31.2897 18.2832C31.7804 17.8591 32.2886 17.4526 32.7792 17.0285L35.3902 14.4484C36.1087 13.5825 36.8446 12.7343 37.5631 11.8683C38.0713 11.1968 38.5794 10.5076 39.1051 9.83609C39.736 8.89949 40.3493 7.96289 40.9801 7.02629C41.5058 6.10735 42.014 5.17075 42.5397 4.25182C42.9778 3.27987 43.3984 2.29026 43.8365 1.31831C44.1344 0.470068 44.4498 -0.378175 44.7477 -1.24409L45.4837 -4.21294C45.7115 -5.46764 45.9568 -6.72233 46.1846 -7.95936L46.4124 -10.5218V17.6293L41.5234 17.8237L38.8949 18.1948L36.5467 18.6896L34.7944 19.1138L32.8493 19.7146L32.4813 19.9267L32.4287 20.1741H32.7442L33.3575 19.9267L34.3213 19.6616L35.8984 19.2375C35.8984 19.2375 37.3353 18.884 37.3879 18.884C37.4404 18.884 38.8423 18.5483 38.8423 18.5483L40.3143 18.2832C40.7523 18.2125 41.1729 18.0888 41.6285 18.0888L46.4474 17.9651V29.8052C46.4474 29.8052 45.5012 29.9112 44.8528 29.9289C44.1869 29.9465 43.1005 29.8759 42.6974 29.8228C42.0666 29.7345 41.5234 29.4871 41.3481 29.3987C41.3657 29.3457 41.3657 29.275 41.3657 29.2043C41.3657 28.7272 40.9626 28.3914 40.472 28.3914C40.0164 28.3914 39.6308 28.7095 39.5958 29.1336H39.4206C39.4731 28.9569 39.5082 28.7802 39.5082 28.5858C39.5082 27.5609 38.632 26.6949 37.6332 26.6949C36.722 26.6949 35.9334 27.4018 35.7932 28.3031L35.7786 28.3009C35.2887 28.2277 33.7552 27.9987 33.2348 27.6139C32.9019 27.3665 32.7442 27.2428 32.6741 27.1721L33.0245 26.5182L34.3037 23.9735L29.8353 32.0141L28.0829 35.3894L25.2617 40.5496H25.2091L26.4533 26.1294L26.5409 25.0868L26.7687 22.33L28.153 21.4464L28.0304 21.3051L26.7862 22.0826L27.014 19.3788L34.2161 23.7084L27.0491 19.1491L24.9813 7.0793L27.715 12.0274L29.0467 14.5545L30.6589 17.7707L33.7956 22.9132L30.7115 17.5056L29.1343 14.2717L24.736 5.98366L22.2827 10.0128L21.5818 8.334L21.1612 7.22068L20.3026 5.24144L19.4439 3.56262L18.8832 2.50232L18.0245 0.911861L17.0432 -0.713939L15.7991 -2.64016L14.8353 -3.96554L13.889 -5.22023L12.8551 -6.47493L11.5409 -7.95936L9.70094 -9.67351L8.10631 -11.0873L6.47663 -12.448L5.17991 -13.4729L4.09346 -14.2858L3.48014 -14.71L2.65654 -15.1518L3.04206 -15.2401L18.1647 -15.2048C18.2173 -11.9355 20.6881 -9.28474 23.7372 -9.28474C26.7862 -9.28474 29.257 -11.9178 29.3096 -15.1694H31.3248L46.0444 -15.0634C46.0093 -15.0457 45.9568 -15.0104 45.9042 -14.975C44.0818 -13.7203 42.2243 -11.9178 40.3143 -10.3804C39.5608 -9.70886 38.8072 -8.96664 38.0537 -8.27745C36.7395 -6.82836 35.5829 -5.66203 34.0058 -3.84184C28.6612 3.54495 28.1706 5.50652 26.8388 9.80075C26.8037 9.92446 27.1192 10.0482 27.1367 9.9598C29.9054 1.389 33.5327 -2.9936 39.4381 -9.19638C40.0865 -9.7442 40.7173 -10.4511 41.3657 -10.9989C41.9615 -11.4937 42.5573 -11.9708 43.153 -12.4657C43.5386 -12.7661 45.3259 -14.3035 46.132 -14.8337C46.2547 -14.922 46.3248 -14.9574 46.3598 -14.9927V-11.1226L45.8341 -7.60592C45.6939 -6.84604 45.5362 -6.08615 45.396 -5.32626C45.2033 -4.49569 45.028 -3.66512 44.8353 -2.83455C44.222 -1.15573 43.5911 0.505413 42.9778 2.18423C42.3294 3.45659 41.6636 4.74663 41.0152 6.019C40.4194 6.93793 39.8236 7.85686 39.2453 8.77579C38.4918 9.80075 37.7208 10.8434 36.9673 11.8683C36.1612 12.7873 35.3551 13.7239 34.5666 14.6428C33.8832 15.3143 33.1998 15.9859 32.4988 16.6574C32.0795 17.0275 31.6252 17.4327 31.1709 17.838L31.1671 17.8414ZM29.8703 42.5995C27.6974 37.8105 27.7675 36.4144 27.7675 36.4144L29.8002 32.3322L31.5701 29.0806L32.4638 27.4018C32.5514 27.5255 32.8318 27.7729 33.7605 28.091C34.7593 28.4268 35.4428 28.5151 35.7056 28.5328C35.7056 29.5578 36.5818 30.3883 37.5806 30.3883C37.896 30.3883 38.2115 30.3 38.4743 30.1586L38.5619 30.6004C38.5619 30.6004 38.5794 32.2439 38.7722 33.4809C38.9632 34.7065 39.6358 35.3423 40.1936 35.8695L40.2091 35.8842C40.7699 36.4321 42.1893 37.8281 42.6098 38.3053C43.0304 38.7824 43.1005 39.0121 43.1005 39.0121C43.1005 39.0121 43.486 40.0018 43.6087 41.5922C43.6787 42.7055 43.4509 43.1473 43.2932 43.3417C43.2056 43.3241 43.1355 43.3064 43.0479 43.3064C42.7325 43.3064 42.4171 43.4654 42.1717 43.7128L40.8925 40.9384L39.5082 38.3583L37.896 36.061L35.3902 32.8094L33.5678 30.8478L31.7979 28.9923L31.6577 29.328L32.7091 30.4237L35.0397 33.0921L37.0199 35.5485L38.8248 38.0225L40.0514 40.2138C40.0514 40.2138 41.5584 43.059 41.5759 43.218C41.5935 43.3417 41.7862 43.8365 41.8914 44.1016C41.7862 44.3137 41.7161 44.5434 41.7161 44.7555C41.7161 45.427 42.1717 46.0808 42.9428 46.1515C42.9428 46.1515 44.8178 50.216 45.764 55.8357C46.1495 58.0976 46.3248 59.3346 46.3949 60.0062V60.7484V61.6497C45.4136 61.1018 42.8551 59.5821 40.8049 57.9386C38.2115 55.8533 37.1075 54.687 35.9159 53.2026C35.3201 52.4603 34.1636 50.9406 33.0421 48.926C32.0257 47.0881 30.9042 44.8792 29.8703 42.5995ZM46.0619 62.2858L46.1671 62.5509L31.3423 62.6393C30.6764 60.0062 28.2407 58.0623 25.3143 58.0623C22.3528 58.0623 19.8645 60.0769 19.2512 62.763L2.58645 62.9574L2.44626 62.9043C2.7792 62.6923 5.63551 60.9074 9.10514 57.5852C11.7862 55.0227 14.4848 52.319 16.465 49.7036C17.2009 48.7316 17.7617 47.7597 18.3049 46.8054C20.2675 43.3241 21.021 41.6099 21.4416 40.3905C21.7921 39.3479 22.2126 37.3333 22.3353 36.7325L22.493 36.9799L24.6834 40.5496L25.139 41.1681C25.2266 41.1681 26.5409 38.8354 26.5409 38.8354L27.347 37.2273C27.347 37.2273 28.153 39.772 28.2582 40.0371C28.3808 40.3022 29.1519 42.0517 29.1519 42.0517C29.1519 42.0517 30.3259 44.7731 31.1495 46.3106C32.1659 48.2191 33.6729 50.9229 34.882 52.5664C35.4428 53.3263 36.0911 53.9978 36.757 54.8107C39.1402 57.6558 46.0619 62.2858 46.0619 62.2858ZM15.8692 30.3353C16.7453 29.5401 17.2535 29.2573 17.4638 29.1513L18.1297 30.194L19.3563 32.0848L21.1612 34.9123L22.0724 36.3084C22.0023 36.7678 21.7745 38.0755 21.5993 38.6764C21.389 39.4009 20.5304 41.6452 20.5304 41.6452C20.5304 41.6452 18.6904 45.6391 17.5164 47.5299C16.3423 49.4208 13.889 52.319 13.7138 52.4957C13.5386 52.6724 11.0678 55.3232 10.9801 55.4469C10.8925 55.5706 4.07594 61.9147 2.21846 62.816L1.62267 62.5863V61.8264L2.14837 58.0623C2.14837 58.0623 2.69159 54.899 3.12968 52.6194C3.56776 50.3397 3.62033 51.0113 4.18108 48.767C4.28622 48.3252 4.4965 47.8303 4.74182 47.2649C5.39019 45.6921 6.45911 43.6598 7.58061 41.3448C7.93108 40.6026 8.56192 39.613 8.98248 38.9238C10.3318 36.7678 11.7687 35.0537 12.715 33.799C13.9942 32.1202 15.0981 31.0245 15.8692 30.3353ZM3.95327 48.6963C2.65654 52.7784 1.86799 57.161 1.62267 59.2993L1.65771 29.8228C2.18341 29.8052 4.09346 29.7698 6.54673 29.5401C9.45561 29.275 11.7336 28.8686 13.5386 28.4268C14.9054 28.091 15.9568 27.6315 16.3949 27.4372L17.236 28.7802C17.1133 28.9039 16.8855 29.0983 16.5 29.4341C16.3248 29.5931 16.0444 29.8405 15.7815 30.0879C15.3785 30.4944 14.9229 30.8478 14.5549 31.2189C14.1869 31.5723 13.889 31.9434 13.521 32.3852C12.4521 33.6399 11.0152 35.3718 9.73598 37.245C8.38668 39.2242 7.21262 41.3448 6.23131 43.218C5.42523 44.7731 4.58411 46.6994 3.95327 48.6963ZM38.8598 31.431C38.8598 30.512 38.8949 30.0526 38.9299 29.8582C39.0701 29.6991 39.1928 29.5401 39.2629 29.3457H39.5432C39.6308 29.7345 39.9813 30.0172 40.4194 30.0172C40.7523 30.0172 41.0327 29.8405 41.1904 29.5931C41.3832 29.6991 42.0666 30.0172 43.3108 30.0702C44.4848 30.1409 45.8867 30.1056 46.3949 30.0879V58.0976C46.2372 56.896 45.8867 54.4749 45.4486 52.7254C44.8353 50.2867 44.1694 48.5372 44.1694 48.5372L43.3984 46.1692C44.0643 46.0102 44.4673 45.4093 44.4673 44.7908C44.4673 44.4197 44.2921 44.0486 44.0117 43.7659C43.9942 43.4831 43.9766 42.9706 43.9591 42.7055C43.9416 42.3168 43.7313 40.6733 43.6437 40.0725C43.521 39.2242 43.521 39.2596 43.2407 38.6941C43.0304 38.2523 41.6986 36.9622 41.6986 36.9622C41.6986 36.9622 41.1904 36.4321 40.3844 35.7075C39.5783 34.983 39.3505 34.4352 39.1928 34.0464C39.0175 33.6576 38.8773 32.774 38.8598 31.431ZM29.4498 62.6569L31.0094 62.6393C30.361 60.1829 28.0479 58.3627 25.2967 58.3804C22.493 58.3804 20.1624 60.2536 19.5491 62.7806L29.4498 62.6569ZM24.333 19.9973L24.1928 14.9609L24.3855 14.8725L24.5432 19.8736L26.8213 19.0961L24.7185 6.7082L24.6484 6.6375L24.5432 6.8319L24.0526 11.2498L23.9124 11.1791L24.3855 7.0793L22.5981 10.0482L18.0421 17.5233L15.7991 21.2697L14.4322 23.3903L20.6005 21.2697L19.7769 20.6689L19.9171 20.5452L20.8458 21.199L24.333 19.9973ZM24.4381 23.4433L24.333 20.1387L21.0386 21.3227L24 23.408L24.4381 23.4433ZM24.6659 31.1306L24.4556 23.9381L24.2629 23.8675L20.7407 26.3592L20.6881 26.2355L24 23.7614L20.7757 21.4111L14.4322 23.6907L15.5187 24.2209L15.4486 24.3623L14.4147 23.8498L16.6051 27.3665L17.4112 28.6565L18.8131 30.9008L20.5304 33.5516L25.0164 40.5496L26.2255 26.2355L26.3131 25.1752L24.7185 24.0618L24.9287 30.7948L24.6659 31.1306ZM24.7009 23.7261V23.7968L26.3131 24.9454L26.5234 22.4891L24.8411 23.5494L24.7009 23.7261ZM24.5783 20.0504L24.6834 23.408L26.5409 22.224L26.7862 19.3258L24.5783 20.0504ZM26.8563 19.3258H26.9089L26.8914 19.3082L26.8563 19.3258ZM11.1028 14.9079C11.6986 15.6854 11.9965 16.6397 12.0841 17.0108C11.3832 17.1169 10.7173 17.6293 10.5421 18.3185C10.3843 18.3009 10.1565 18.2655 10.0689 18.2478V18.2302C10.0689 17.6647 9.61332 17.2052 9.12266 17.2052C8.71963 17.2052 8.28154 17.5233 8.15888 17.9651C7.91355 17.9474 6.72197 17.8591 5.89837 17.8237C5.10982 17.7884 2.37617 17.8944 1.65771 17.9298L1.69276 -12.3773L2.58645 -7.51756L3.49766 -3.77115L3.90071 -2.4281L4.51402 -0.943672C3.95327 -0.713939 3.51519 -0.148443 3.51519 0.48774C3.51519 1.14159 3.97079 1.68942 4.56659 1.88381C4.4965 2.30793 4.2687 3.93373 4.40888 5.13541C4.56659 6.5138 4.63669 6.65518 4.96963 7.90987C5.30258 9.1469 6.38902 10.5253 7.52804 11.3912C8.66705 12.2571 10.3493 13.9006 11.1028 14.9079ZM4.7243 2.59068C4.79439 2.3256 4.86449 2.09587 4.93458 1.93682C4.96963 1.95449 5.0222 1.95449 5.05725 1.93682C5.14486 1.93682 5.23248 1.93682 5.3201 1.91915L6.51168 4.69361L7.87851 7.46808L9.5958 10.2779L11.0152 12.3101L13.1881 14.8902L15.764 17.4526L17.0608 18.6013L16.2372 19.9267C16.1495 19.8913 16.0269 19.8383 15.7815 19.7676C15.2033 19.5732 14.7652 19.5025 14.1869 19.4672L13.7664 19.4495C13.9241 19.2021 14.0117 18.9194 14.0117 18.6366C14.0117 17.8061 13.3283 17.1169 12.5397 16.9932C12.5397 16.9932 12.4346 16.4277 11.8213 15.4734C11.2079 14.5368 10.7348 13.989 10.2967 13.5295C9.85865 13.07 9.03505 12.2395 8.57944 11.9037C8.12383 11.5679 6.87968 10.649 5.93341 9.3943C4.98715 8.15728 4.88201 6.81423 4.63668 5.80694C4.39136 4.79965 4.61916 3.12083 4.7243 2.59068ZM1.67524 18.5129L1.65771 29.3457C1.90304 29.381 2.42874 29.3987 3.53271 29.381C5.61799 29.3634 7.31776 29.169 7.31776 29.169C7.31776 29.169 9.64837 28.8862 10.9977 28.6388C12.347 28.3914 16.2021 27.2604 16.2021 27.2604L16.2897 27.2781L15.2383 25.5993L13.9942 23.4964L15.9042 20.4922L16.0093 20.3154C15.9568 20.2624 15.8692 20.2094 15.764 20.1564C15.5012 20.015 14.9755 19.8913 14.4673 19.8383C14.0993 19.7853 13.7138 19.7676 13.5386 19.7499C13.2056 20.0857 12.7325 20.3154 12.2593 20.3154C11.3832 20.3154 10.507 19.5556 10.507 18.6366V18.6013L10.0164 18.5483C9.87617 18.9547 9.49065 19.2551 9.10514 19.2551C8.64953 19.2551 8.21145 18.8487 8.14136 18.3362C7.93108 18.3009 7.125 18.1772 4.77687 18.1772C4.00584 18.1772 2.18341 18.4422 1.67524 18.5129ZM-16.3037 26.2708L-17.6005 27.1898L-17.1974 27.8613L-15.7956 26.5182L-15.6554 24.433L-13.9206 25.67L-12.2558 24.0795L-11.9229 23.2313L-14.0607 24.7334L-16.3914 23.2489L-16.3037 26.2708ZM-15.3575 28.3738L-16.9521 28.3384L-15.1297 31.6077L-14.6741 32.0672L-13.2372 29.3104L-10.2757 28.8332L-10.2932 28.7095L-11.8878 26.4652L-11.8178 26.1825L-10.8189 23.1783L-12.0806 24.6804L-12.6589 26.7656L-11.4322 28.3031L-13.5 28.4621L-14.6565 30.5474L-15.3575 28.3738ZM-13.0619 29.6285L-14.639 32.4736C-14.639 32.4736 0.378506 59.3523 0.378506 59.317L0.623835 10.2956L-0.532709 11.5856L-2.44275 14.0066L-4.51051 16.5337L-6.92874 19.0961L-10.4334 22.7365L-11.4848 26.3062L-9.59229 28.9569L-13.0619 29.6285ZM-1.39135 11.7623L0.623835 8.75812L0.676405 -1.40314C0.501171 -0.802296 0.255843 0.0812908 -0.129671 1.37133C-1.26869 5.22377 -4.47547 11.8507 -5.42173 13.4765C-6.38551 15.1023 -7.29673 15.8975 -7.29673 15.8975C-7.29673 15.8975 -6.94626 14.8725 -6.7535 14.5191C-6.66589 14.3601 -6.12266 12.5045 -5.68458 10.4723C-5.19392 8.21029 -4.68575 5.73625 -4.63318 5.02938C-4.52804 3.65098 -4.0549 -2.76386 -4.0549 -2.76386L-6.35047 1.37133L-6.28037 3.65098L-6.38551 6.90258L-6.84112 10.8257L-7.36682 12.8756L-8.06776 15.1199L-9.75 19.1491L-10.5911 20.934L-11.3797 22.9309L-11.7126 23.6731L-11.59 23.5847L-9.48715 21.04L-8.31308 19.7853L-5.43925 16.7281L-3.38902 14.2894L-1.39135 11.7623ZM-6.96378 2.7674L-7.0514 2.6437L-19.1425 24.433L-17.7582 26.907L-16.6192 26.0588L-16.7243 22.7365L-13.9731 24.0795L-11.6951 22.6481L-10.5386 20.1034L-9.08411 16.4453L-8.27804 13.8829L-7.54206 10.9848L-7.0514 7.66247L-6.91121 4.888L-6.96378 2.7674ZM-15.3925 26.748L-16.8294 27.9496L-15.1121 28.0557L-14.5864 29.8228L-13.8329 28.1087L-12.2033 28.038L-13.1671 26.7833L-12.4486 24.9278L-14.0432 26.0764L-15.3575 24.9985L-15.3925 26.748ZM44.1168 44.7908C44.1168 44.1193 43.521 43.7658 43.0654 43.7482C42.6098 43.7305 41.9965 44.1193 41.9965 44.7908C41.9965 45.4623 42.3995 45.8865 43.0654 45.8865C43.7313 45.8865 44.1168 45.4623 44.1168 44.7908ZM-0.672895 -0.236802C-0.567755 -0.607909 0.308412 -3.57676 0.693926 -4.91982L0.746496 -11.4937L-3.0736 -4.51336C-3.10864 -3.64745 -3.16121 -2.16302 -3.09112 -1.82726C-3.0035 -1.35012 -3.70444 4.90568 -4.01986 6.28407C-4.33528 7.6448 -4.91355 10.7197 -4.91355 10.7197C-4.91355 10.7197 -4.86098 10.755 -4.44042 10.1188C-4.03738 9.48266 -0.795559 0.240335 -0.672895 -0.236802ZM9.91122 18.2302C9.91122 17.6823 9.61332 17.3643 9.14019 17.3643C8.66706 17.3643 8.33411 17.6823 8.33411 18.2302C8.33411 18.7603 8.66706 19.0961 9.14019 19.0961C9.61332 19.0961 9.91122 18.7603 9.91122 18.2302ZM13.7313 18.6366C13.7313 17.7707 13.1706 17.2582 12.3294 17.2582C11.4708 17.2582 10.875 17.7884 10.875 18.6366C10.875 19.5202 11.4883 20.0504 12.3294 20.0504C13.1881 20.0504 13.7313 19.5025 13.7313 18.6366ZM15.9393 17.0462L17.2886 18.2478L19.4965 14.6958L22.0549 10.49L20.653 6.92026L19.4965 4.37552L18.6203 2.66136L17.5514 0.823502L15.764 -1.95096L15.0456 -2.99359L13.9065 -4.61939L12.9428 -5.76806L11.646 -7.1818L9.66589 -9.14336L8.40421 -10.292L7.49299 -11.1226L6.19626 -12.2536L4.91706 -13.3316L3.6729 -14.2505L2.23598 -15.0811L1.93808 -14.9927L1.85047 -13.0665L2.91939 -7.21714L3.51519 -4.93749L4.37383 -2.44577L4.7944 -1.03203C4.88201 -1.0497 4.98715 -1.06737 5.07477 -1.06737C5.88084 -1.06737 6.63435 -0.342832 6.63435 0.470068C6.63435 1.08858 6.21379 1.60106 5.65304 1.8308L5.88084 2.573L7.7208 6.40778L9.19276 9.16457L11.4708 12.2571L13.8715 15.0316L15.9393 17.0462ZM29.0643 -15.2224L18.4626 -15.2401C18.4977 -12.1299 20.8633 -9.6205 23.7722 -9.63817C26.6636 -9.63817 29.0117 -12.1299 29.0643 -15.2224ZM61.0619 22.4714L61.0817 22.44L60.4311 22.9485L60.6764 20.2801L59.0467 18.619L61.7453 18.2302L62.7617 16.0035L64.5666 19.2551L63.8481 19.2021L62.9895 17.5763L62.1133 19.1314L60.2734 19.3082L61.5701 20.4038L61.3073 22.0826L61.0817 22.44L61.132 22.4007L61.0619 22.4714ZM64.0409 20.5805L64.9521 19.962L65.5129 20.9693L64.6893 21.1107L64.6717 23.9381L62.6741 22.4714L60.6063 23.567L60.8867 23.0722L62.6215 21.6055L64.0409 22.5774V20.5805ZM62.604 21.2697L61.4124 22.1886L61.5 22.1003L61.8855 20.3154L60.8516 19.4849L62.271 19.5379L62.9544 18.1241L63.6203 19.5202L64.5841 19.6439L63.8131 20.4391V22.118L62.604 21.2697ZM57.4171 30.406C58.2582 28.5681 59.7827 25.2635 60.2383 24.2916C60.361 24.0265 62.6215 22.8602 62.6215 22.8778L64.9696 24.486L65.0923 21.4464L65.7757 21.4111L67.1951 23.9735L55.1215 45.0912C55.0689 44.7555 55.0339 44.2607 55.0514 43.5008C55.0689 41.7513 55.6122 36.5734 55.9626 35.3894C56.3131 34.2054 56.4358 32.5796 57.4171 30.406ZM61.5526 17.8591L62.4638 15.438L47.3061 -12.0062L47.4813 37.9695C47.8493 37.4747 48.4977 36.5734 49.4439 35.0713C50.9509 32.6326 56.4708 27.0484 56.4708 27.0484L59.8703 23.6377L60.1507 20.4391L58.486 18.3362L61.5526 17.8591ZM52.9136 31.9081C50.7757 34.2761 48.1297 38.6057 47.4638 39.719V45.8511L52.5631 35.9903C53.8248 33.3925 55.139 31.7314 56.1028 30.8125C56.1028 30.8125 53.9124 37.6161 53.0362 40.9384C52.16 44.2607 52.3703 46.3106 52.2477 48.8376C52.2301 49.4561 52.2301 49.8626 52.2477 50.11L54.3154 46.4696C54.3505 45.2679 54.4381 42.6702 54.5783 40.4082C54.771 37.3863 56.0678 32.4559 56.9264 29.9642C57.7851 27.4725 59.1519 25.2989 59.1519 25.2989C59.1519 25.2989 55.3844 29.1513 52.9136 31.9081ZM52.2827 41.0621C52.8435 38.6764 54.6659 33.4809 54.6659 33.4809C53.9474 34.7533 50.25 40.2668 48.4801 46.452C47.639 49.3678 47.4988 49.7742 47.4988 49.7742L47.5339 58.3627L51.5117 51.3824C51.3715 48.6963 51.722 43.3947 52.2827 41.0621ZM6.38902 0.470068C6.38902 -0.307489 5.82828 -0.819968 5.05725 -0.819968C4.2687 -0.819968 3.77804 -0.289817 3.77804 0.470068C3.77804 1.22995 4.28622 1.70709 5.05725 1.70709C5.82828 1.70709 6.38902 1.24762 6.38902 0.470068ZM41.1379 29.1867C41.1379 28.7449 40.8925 28.5858 40.4194 28.5858C39.9638 28.5858 39.736 28.7449 39.736 29.1867C39.736 29.6285 39.9463 29.8052 40.4194 29.8052C40.8925 29.8052 41.1379 29.6285 41.1379 29.1867ZM39.2278 28.5505C39.2278 27.5785 38.5444 26.9247 37.5981 26.9247C36.6519 26.9247 35.9509 27.5785 35.9685 28.5505C35.9685 29.5224 36.6519 30.1409 37.5981 30.1409C38.5444 30.1409 39.2278 29.5224 39.2278 28.5505Z" fill="#8E35FF"/>
<path d="M31.1671 17.8414C31.2021 17.9828 31.2547 18.1418 31.2897 18.2832C31.7804 17.8591 32.2886 17.4526 32.7792 17.0285M31.1671 17.8414L31.1709 17.838M31.1671 17.8414C31.1683 17.8403 31.1696 17.8391 31.1709 17.838M32.7792 17.0285C33.6554 16.1626 34.514 15.3143 35.3902 14.4484M32.7792 17.0285L35.3902 14.4484M35.3902 14.4484C36.1087 13.5825 36.8446 12.7343 37.5631 11.8683C38.0713 11.1968 38.5794 10.5076 39.1051 9.83609C39.736 8.89949 40.3493 7.96289 40.9801 7.02629C41.5058 6.10735 42.014 5.17075 42.5397 4.25182C42.9778 3.27987 43.3984 2.29026 43.8365 1.31831C44.1344 0.470068 44.4498 -0.378175 44.7477 -1.24409M44.7477 -1.24409C44.993 -2.23371 45.2383 -3.22333 45.4837 -4.21294M44.7477 -1.24409L45.4837 -4.21294M45.4837 -4.21294C45.7115 -5.46764 45.9568 -6.72233 46.1846 -7.95936L46.4124 -10.5218V17.6293L41.5234 17.8237L38.8949 18.1948L36.5467 18.6896L34.7944 19.1138L32.8493 19.7146L32.4813 19.9267L32.4287 20.1741H32.7442L33.3575 19.9267L34.3213 19.6616L35.8984 19.2375C35.8984 19.2375 37.3353 18.884 37.3879 18.884C37.4404 18.884 38.8423 18.5483 38.8423 18.5483L40.3143 18.2832C40.7523 18.2125 41.1729 18.0888 41.6285 18.0888L46.4474 17.9651V29.8052C46.4474 29.8052 45.5012 29.9112 44.8528 29.9289C44.1869 29.9465 43.1005 29.8759 42.6974 29.8228C42.0666 29.7345 41.5234 29.4871 41.3481 29.3987C41.3657 29.3457 41.3657 29.275 41.3657 29.2043C41.3657 28.7272 40.9626 28.3914 40.472 28.3914C40.0164 28.3914 39.6308 28.7095 39.5958 29.1336H39.4206C39.4731 28.9569 39.5082 28.7802 39.5082 28.5858C39.5082 27.5609 38.632 26.6949 37.6332 26.6949C36.722 26.6949 35.9334 27.4018 35.7932 28.3031M35.7932 28.3031L35.7786 28.3009M35.7932 28.3031C35.7884 28.3024 35.7836 28.3016 35.7786 28.3009M34.3037 23.9735L33.0245 26.5182L32.6741 27.1721C32.7442 27.2428 32.9019 27.3665 33.2348 27.6139C33.7552 27.9987 35.2887 28.2277 35.7786 28.3009M34.3037 23.9735L34.2161 23.7084M34.3037 23.9735L29.8353 32.0141L28.0829 35.3894L25.2617 40.5496H25.2091L26.4533 26.1294L26.5409 25.0868L26.7687 22.33L28.153 21.4464L28.0304 21.3051L26.7862 22.0826L27.014 19.3788L34.2161 23.7084M34.2161 23.7084L33.7956 22.9132M34.2161 23.7084L27.0491 19.1491L24.9813 7.0793L27.715 12.0274L29.0467 14.5545L30.6589 17.7707L33.7956 22.9132M33.7956 22.9132L30.7115 17.5056L29.1343 14.2717L24.736 5.98366L22.2827 10.0128L21.5818 8.334L21.1612 7.22068L20.3026 5.24144L19.4439 3.56262L18.8832 2.50232L18.0245 0.911861L17.0432 -0.713939L15.7991 -2.64016L14.8353 -3.96554L13.889 -5.22023L12.8551 -6.47493L11.5409 -7.95936L9.70094 -9.67351L8.10631 -11.0873L6.47663 -12.448L5.17991 -13.4729L4.09346 -14.2858L3.48014 -14.71L2.65654 -15.1518L3.04206 -15.2401L18.1647 -15.2048C18.2173 -11.9355 20.6881 -9.28474 23.7372 -9.28474C26.7862 -9.28474 29.257 -11.9178 29.3096 -15.1694H31.3248L46.0444 -15.0634C46.0093 -15.0457 45.9568 -15.0104 45.9042 -14.975C44.0818 -13.7203 42.2243 -11.9178 40.3143 -10.3804C39.5608 -9.70886 38.8072 -8.96664 38.0537 -8.27745C36.7395 -6.82836 35.5829 -5.66203 34.0058 -3.84184C28.6612 3.54495 28.1706 5.50652 26.8388 9.80075C26.8037 9.92446 27.1192 10.0482 27.1367 9.9598C29.9054 1.389 33.5327 -2.9936 39.4381 -9.19638C40.0865 -9.7442 40.7173 -10.4511 41.3657 -10.9989C41.9615 -11.4937 42.5573 -11.9708 43.153 -12.4657C43.5386 -12.7661 45.3259 -14.3035 46.132 -14.8337C46.2547 -14.922 46.3248 -14.9574 46.3598 -14.9927V-11.1226L45.8341 -7.60592C45.6939 -6.84604 45.5362 -6.08615 45.396 -5.32626C45.2033 -4.49569 45.028 -3.66512 44.8353 -2.83455C44.222 -1.15573 43.5911 0.505413 42.9778 2.18423C42.3294 3.45659 41.6636 4.74663 41.0152 6.019C40.4194 6.93793 39.8236 7.85686 39.2453 8.77579C38.4918 9.80075 37.7208 10.8434 36.9673 11.8683C36.1612 12.7873 35.3551 13.7239 34.5666 14.6428C33.8832 15.3143 33.1998 15.9859 32.4988 16.6574C32.0795 17.0275 31.6252 17.4327 31.1709 17.838M40.2091 35.8842C40.7699 36.4321 42.1893 37.8281 42.6098 38.3053C43.0304 38.7824 43.1005 39.0121 43.1005 39.0121C43.1005 39.0121 43.486 40.0018 43.6087 41.5922C43.6787 42.7055 43.4509 43.1473 43.2932 43.3417C43.2056 43.3241 43.1355 43.3064 43.0479 43.3064C42.7325 43.3064 42.4171 43.4654 42.1717 43.7128L40.8925 40.9384L39.5082 38.3583L37.896 36.061L35.3902 32.8094L33.5678 30.8478L31.7979 28.9923L31.6577 29.328L32.7091 30.4237L35.0397 33.0921L37.0199 35.5485L38.8248 38.0225L40.0514 40.2138C40.0514 40.2138 41.5584 43.059 41.5759 43.218C41.5935 43.3417 41.7862 43.8365 41.8914 44.1016C41.7862 44.3137 41.7161 44.5434 41.7161 44.7555C41.7161 45.427 42.1717 46.0808 42.9428 46.1515C42.9428 46.1515 44.8178 50.216 45.764 55.8357C46.1495 58.0976 46.3248 59.3346 46.3949 60.0062V60.7484V61.6497C45.4136 61.1018 42.8551 59.5821 40.8049 57.9386C38.2115 55.8533 37.1075 54.687 35.9159 53.2026C35.3201 52.4603 34.1636 50.9406 33.0421 48.926C32.0257 47.0881 30.9042 44.8792 29.8703 42.5995C27.6974 37.8105 27.7675 36.4144 27.7675 36.4144L29.8002 32.3322L31.5701 29.0806L32.4638 27.4018C32.5514 27.5255 32.8318 27.7729 33.7605 28.091C34.7593 28.4268 35.4428 28.5151 35.7056 28.5328C35.7056 29.5578 36.5818 30.3883 37.5806 30.3883C37.896 30.3883 38.2115 30.3 38.4743 30.1586L38.5619 30.6004C38.5619 30.6004 38.5794 32.2439 38.7722 33.4809C38.9632 34.7065 39.6358 35.3423 40.1936 35.8695M40.2091 35.8842L40.1936 35.8695M40.2091 35.8842C40.2039 35.8794 40.1988 35.8744 40.1936 35.8695M10.507 18.6013L10.0164 18.5483C9.87617 18.9547 9.49065 19.2551 9.10514 19.2551C8.64953 19.2551 8.21145 18.8487 8.14136 18.3362C7.93108 18.3009 7.125 18.1772 4.77687 18.1772C4.00584 18.1772 2.18341 18.4422 1.67524 18.5129L1.65771 29.3457C1.90304 29.381 2.42874 29.3987 3.53271 29.381C5.61799 29.3634 7.31776 29.169 7.31776 29.169C7.31776 29.169 9.64837 28.8862 10.9977 28.6388C12.347 28.3914 16.2021 27.2604 16.2021 27.2604L16.2897 27.2781L15.2383 25.5993L13.9942 23.4964L15.9042 20.4922L16.0093 20.3154C15.9568 20.2624 15.8692 20.2094 15.764 20.1564C15.5012 20.015 14.9755 19.8913 14.4673 19.8383C14.0993 19.7853 13.7138 19.7676 13.5386 19.7499C13.2056 20.0857 12.7325 20.3154 12.2593 20.3154C11.3832 20.3154 10.507 19.5556 10.507 18.6366M10.507 18.6013C10.507 18.619 10.507 18.619 10.507 18.6366M10.507 18.6013V18.6366M-14.6741 32.0672L-13.2372 29.3104L-10.2757 28.8332L-10.2932 28.7095L-11.8878 26.4652L-11.8178 26.1825L-10.8189 23.1783L-12.0806 24.6804L-12.6589 26.7656L-11.4322 28.3031L-13.5 28.4621L-14.6565 30.5474L-15.3575 28.3738L-16.9521 28.3384L-15.1297 31.6077M-14.6741 32.0672C-14.8318 31.9081 -14.9895 31.7491 -15.1297 31.6077M-14.6741 32.0672L-15.1297 31.6077M61.0817 22.44L61.0619 22.4714L61.132 22.4007L61.0817 22.44ZM61.0817 22.44L60.4311 22.9485L60.6764 20.2801L59.0467 18.619L61.7453 18.2302L62.7617 16.0035L64.5666 19.2551L63.8481 19.2021L62.9895 17.5763L62.1133 19.1314L60.2734 19.3082L61.5701 20.4038L61.3073 22.0826L61.0817 22.44ZM46.1671 62.5509L46.0619 62.2858C46.0619 62.2858 39.1402 57.6558 36.757 54.8107C36.0911 53.9978 35.4428 53.3263 34.882 52.5664C33.6729 50.9229 32.1659 48.2191 31.1495 46.3106C30.3259 44.7731 29.1519 42.0517 29.1519 42.0517C29.1519 42.0517 28.3808 40.3022 28.2582 40.0371C28.153 39.772 27.347 37.2273 27.347 37.2273L26.5409 38.8354C26.5409 38.8354 25.2266 41.1681 25.139 41.1681L24.6834 40.5496L22.493 36.9799L22.3353 36.7325C22.2126 37.3333 21.7921 39.3479 21.4416 40.3905C21.021 41.6099 20.2675 43.3241 18.3049 46.8054C17.7617 47.7597 17.2009 48.7316 16.465 49.7036C14.4848 52.319 11.7862 55.0227 9.10514 57.5852C5.63551 60.9074 2.7792 62.6923 2.44626 62.9043L2.58645 62.9574L19.2512 62.763C19.8645 60.0769 22.3528 58.0623 25.3143 58.0623C28.2407 58.0623 30.6764 60.0062 31.3423 62.6393L46.1671 62.5509ZM17.4638 29.1513C17.2535 29.2573 16.7453 29.5401 15.8692 30.3353C15.0981 31.0245 13.9942 32.1202 12.715 33.799C11.7687 35.0537 10.3318 36.7678 8.98248 38.9238C8.56192 39.613 7.93108 40.6026 7.58061 41.3448C6.45911 43.6598 5.39019 45.6921 4.74182 47.2649C4.4965 47.8303 4.28622 48.3252 4.18108 48.767C3.62033 51.0113 3.56776 50.3397 3.12968 52.6194C2.69159 54.899 2.14837 58.0623 2.14837 58.0623L1.62267 61.8264V62.5863L2.21846 62.816C4.07594 61.9147 10.8925 55.5706 10.9801 55.4469C11.0678 55.3232 13.5386 52.6724 13.7138 52.4957C13.889 52.319 16.3423 49.4208 17.5164 47.5299C18.6904 45.6391 20.5304 41.6452 20.5304 41.6452C20.5304 41.6452 21.389 39.4009 21.5993 38.6764C21.7745 38.0755 22.0023 36.7678 22.0724 36.3084L21.1612 34.9123L19.3563 32.0848L18.1297 30.194L17.4638 29.1513ZM1.62267 59.2993C1.86799 57.161 2.65654 52.7784 3.95327 48.6963C4.58411 46.6994 5.42523 44.7731 6.23131 43.218C7.21262 41.3448 8.38668 39.2242 9.73598 37.245C11.0152 35.3718 12.4521 33.6399 13.521 32.3852C13.889 31.9434 14.1869 31.5723 14.5549 31.2189C14.9229 30.8478 15.3785 30.4944 15.7815 30.0879C16.0444 29.8405 16.3248 29.5931 16.5 29.4341C16.8855 29.0983 17.1133 28.9039 17.236 28.7802L16.3949 27.4372C15.9568 27.6315 14.9054 28.091 13.5386 28.4268C11.7336 28.8686 9.45561 29.275 6.54673 29.5401C4.09346 29.7698 2.18341 29.8052 1.65771 29.8228L1.62267 59.2993ZM38.9299 29.8582C38.8949 30.0526 38.8598 30.512 38.8598 31.431C38.8773 32.774 39.0175 33.6576 39.1928 34.0464C39.3505 34.4352 39.5783 34.983 40.3844 35.7075C41.1904 36.4321 41.6986 36.9622 41.6986 36.9622C41.6986 36.9622 43.0304 38.2523 43.2407 38.6941C43.521 39.2596 43.521 39.2242 43.6437 40.0725C43.7313 40.6733 43.9416 42.3168 43.9591 42.7055C43.9766 42.9706 43.9942 43.4831 44.0117 43.7659C44.2921 44.0486 44.4673 44.4197 44.4673 44.7908C44.4673 45.4093 44.0643 46.0102 43.3984 46.1692L44.1694 48.5372C44.1694 48.5372 44.8353 50.2867 45.4486 52.7254C45.8867 54.4749 46.2372 56.896 46.3949 58.0976V30.0879C45.8867 30.1056 44.4848 30.1409 43.3108 30.0702C42.0666 30.0172 41.3832 29.6991 41.1904 29.5931C41.0327 29.8405 40.7523 30.0172 40.4194 30.0172C39.9813 30.0172 39.6308 29.7345 39.5432 29.3457H39.2629C39.1928 29.5401 39.0701 29.6991 38.9299 29.8582ZM46.3949 63.0281L46.5526 62.9574L46.7979 62.8337L47.3411 61.579L69 23.7261L46.4299 -15.1871C46.465 -15.2931 46.2897 -15.4522 46.2897 -15.4522L45.4661 -16H24.5082L2.8493 -15.9647L1.72781 -15.3992H1.69276L-21 24.0442L1.60514 63.5229L2.88435 64L45.2033 63.5935L46.3949 63.0281ZM31.0094 62.6393L29.4498 62.6569L19.5491 62.7806C20.1624 60.2536 22.493 58.3804 25.2967 58.3804C28.0479 58.3627 30.361 60.1829 31.0094 62.6393ZM24.1928 14.9609L24.333 19.9973L20.8458 21.199L19.9171 20.5452L19.7769 20.6689L20.6005 21.2697L14.4322 23.3903L15.7991 21.2697L18.0421 17.5233L22.5981 10.0482L24.3855 7.0793L23.9124 11.1791L24.0526 11.2498L24.5432 6.8319L24.6484 6.6375L24.7185 6.7082L26.8213 19.0961L24.5432 19.8736L24.3855 14.8725L24.1928 14.9609ZM24.333 20.1387L24.4381 23.4433L24 23.408L21.0386 21.3227L24.333 20.1387ZM24.4556 23.9381L24.6659 31.1306L24.9287 30.7948L24.7185 24.0618L26.3131 25.1752L26.2255 26.2355L25.0164 40.5496L20.5304 33.5516L18.8131 30.9008L17.4112 28.6565L16.6051 27.3665L14.4147 23.8498L15.4486 24.3623L15.5187 24.2209L14.4322 23.6907L20.7757 21.4111L24 23.7614L20.6881 26.2355L20.7407 26.3592L24.2629 23.8675L24.4556 23.9381ZM24.7009 23.7968V23.7261L24.8411 23.5494L26.5234 22.4891L26.3131 24.9454L24.7009 23.7968ZM24.6834 23.408L24.5783 20.0504L26.7862 19.3258L26.5409 22.224L24.6834 23.408ZM23.8598 36.3614L24.5783 39.56L24.7886 39.7544L24.0526 36.3614H23.8598ZM26.9089 19.3258H26.8563L26.8914 19.3082L26.9089 19.3258ZM12.0841 17.0108C11.9965 16.6397 11.6986 15.6854 11.1028 14.9079C10.3493 13.9006 8.66705 12.2571 7.52804 11.3912C6.38902 10.5253 5.30258 9.1469 4.96963 7.90987C4.63669 6.65518 4.56659 6.5138 4.40888 5.13541C4.2687 3.93373 4.4965 2.30793 4.56659 1.88381C3.97079 1.68942 3.51519 1.14159 3.51519 0.48774C3.51519 -0.148443 3.95327 -0.713939 4.51402 -0.943672L3.90071 -2.4281L3.49766 -3.77115L2.58645 -7.51756L1.69276 -12.3773L1.65771 17.9298C2.37617 17.8944 5.10982 17.7884 5.89837 17.8237C6.72197 17.8591 7.91355 17.9474 8.15888 17.9651C8.28154 17.5233 8.71963 17.2052 9.12266 17.2052C9.61332 17.2052 10.0689 17.6647 10.0689 18.2302V18.2478C10.1565 18.2655 10.3843 18.3009 10.5421 18.3185C10.7173 17.6293 11.3832 17.1169 12.0841 17.0108ZM4.93458 1.93682C4.86449 2.09587 4.79439 2.3256 4.7243 2.59068C4.61916 3.12083 4.39136 4.79965 4.63668 5.80694C4.88201 6.81423 4.98715 8.15728 5.93341 9.3943C6.87968 10.649 8.12383 11.5679 8.57944 11.9037C9.03505 12.2395 9.85865 13.07 10.2967 13.5295C10.7348 13.989 11.2079 14.5368 11.8213 15.4734C12.4346 16.4277 12.5397 16.9932 12.5397 16.9932C13.3283 17.1169 14.0117 17.8061 14.0117 18.6366C14.0117 18.9194 13.9241 19.2021 13.7664 19.4495L14.1869 19.4672C14.7652 19.5025 15.2033 19.5732 15.7815 19.7676C16.0269 19.8383 16.1495 19.8913 16.2372 19.9267L17.0608 18.6013L15.764 17.4526L13.1881 14.8902L11.0152 12.3101L9.5958 10.2779L7.87851 7.46808L6.51168 4.69361L5.3201 1.91915C5.23248 1.93682 5.14486 1.93682 5.05725 1.93682C5.0222 1.95449 4.96963 1.95449 4.93458 1.93682ZM-17.6005 27.1898L-16.3037 26.2708L-16.3914 23.2489L-14.0607 24.7334L-11.9229 23.2313L-12.2558 24.0795L-13.9206 25.67L-15.6554 24.433L-15.7956 26.5182L-17.1974 27.8613L-17.6005 27.1898ZM-14.639 32.4736L-13.0619 29.6285L-9.59229 28.9569L-11.4848 26.3062L-10.4334 22.7365L-6.92874 19.0961L-4.51051 16.5337L-2.44275 14.0066L-0.532709 11.5856L0.623835 10.2956L0.378506 59.317C0.378506 59.3523 -14.639 32.4736 -14.639 32.4736ZM0.623835 8.75812L-1.39135 11.7623L-3.38902 14.2894L-5.43925 16.7281L-8.31308 19.7853L-9.48715 21.04L-11.59 23.5847L-11.7126 23.6731L-11.3797 22.9309L-10.5911 20.934L-9.75 19.1491L-8.06776 15.1199L-7.36682 12.8756L-6.84112 10.8257L-6.38551 6.90258L-6.28037 3.65098L-6.35047 1.37133L-4.0549 -2.76386C-4.0549 -2.76386 -4.52804 3.65098 -4.63318 5.02938C-4.68575 5.73625 -5.19392 8.21029 -5.68458 10.4723C-6.12266 12.5045 -6.66589 14.3601 -6.7535 14.5191C-6.94626 14.8725 -7.29673 15.8975 -7.29673 15.8975C-7.29673 15.8975 -6.38551 15.1023 -5.42173 13.4765C-4.47547 11.8507 -1.26869 5.22377 -0.129671 1.37133C0.255843 0.0812908 0.501171 -0.802296 0.676405 -1.40314L0.623835 8.75812ZM-7.0514 2.6437L-6.96378 2.7674L-6.91121 4.888L-7.0514 7.66247L-7.54206 10.9848L-8.27804 13.8829L-9.08411 16.4453L-10.5386 20.1034L-11.6951 22.6481L-13.9731 24.0795L-16.7243 22.7365L-16.6192 26.0588L-17.7582 26.907L-19.1425 24.433L-7.0514 2.6437ZM-16.8294 27.9496L-15.3925 26.748L-15.3575 24.9985L-14.0432 26.0764L-12.4486 24.9278L-13.1671 26.7833L-12.2033 28.038L-13.8329 28.1087L-14.5864 29.8228L-15.1121 28.0557L-16.8294 27.9496ZM43.0654 43.7482C43.521 43.7658 44.1168 44.1193 44.1168 44.7908C44.1168 45.4623 43.7313 45.8865 43.0654 45.8865C42.3995 45.8865 41.9965 45.4623 41.9965 44.7908C41.9965 44.1193 42.6098 43.7305 43.0654 43.7482ZM0.693926 -4.91982C0.308412 -3.57676 -0.567755 -0.607909 -0.672895 -0.236802C-0.795559 0.240335 -4.03738 9.48266 -4.44042 10.1188C-4.86098 10.755 -4.91355 10.7197 -4.91355 10.7197C-4.91355 10.7197 -4.33528 7.6448 -4.01986 6.28407C-3.70444 4.90568 -3.0035 -1.35012 -3.09112 -1.82726C-3.16121 -2.16302 -3.10864 -3.64745 -3.0736 -4.51336L0.746496 -11.4937L0.693926 -4.91982ZM9.14019 17.3643C9.61332 17.3643 9.91122 17.6823 9.91122 18.2302C9.91122 18.7603 9.61332 19.0961 9.14019 19.0961C8.66706 19.0961 8.33411 18.7603 8.33411 18.2302C8.33411 17.6823 8.66706 17.3643 9.14019 17.3643ZM12.3294 17.2582C13.1706 17.2582 13.7313 17.7707 13.7313 18.6366C13.7313 19.5025 13.1881 20.0504 12.3294 20.0504C11.4883 20.0504 10.875 19.5202 10.875 18.6366C10.875 17.7884 11.4708 17.2582 12.3294 17.2582ZM17.2886 18.2478L15.9393 17.0462L13.8715 15.0316L11.4708 12.2571L9.19276 9.16457L7.7208 6.40778L5.88084 2.573L5.65304 1.8308C6.21379 1.60106 6.63435 1.08858 6.63435 0.470068C6.63435 -0.342832 5.88084 -1.06737 5.07477 -1.06737C4.98715 -1.06737 4.88201 -1.0497 4.7944 -1.03203L4.37383 -2.44577L3.51519 -4.93749L2.91939 -7.21714L1.85047 -13.0665L1.93808 -14.9927L2.23598 -15.0811L3.6729 -14.2505L4.91706 -13.3316L6.19626 -12.2536L7.49299 -11.1226L8.40421 -10.292L9.66589 -9.14336L11.646 -7.1818L12.9428 -5.76806L13.9065 -4.61939L15.0456 -2.99359L15.764 -1.95096L17.5514 0.823502L18.6203 2.66136L19.4965 4.37552L20.653 6.92026L22.0549 10.49L19.4965 14.6958L17.2886 18.2478ZM18.4626 -15.2401L29.0643 -15.2224C29.0117 -12.1299 26.6636 -9.63817 23.7722 -9.63817C20.8633 -9.6205 18.4977 -12.1299 18.4626 -15.2401ZM64.9521 19.962L64.0409 20.5805V22.5774L62.6215 21.6055L60.8867 23.0722L60.6063 23.567L62.6741 22.4714L64.6717 23.9381L64.6893 21.1107L65.5129 20.9693L64.9521 19.962ZM61.4124 22.1886L62.604 21.2697L63.8131 22.118V20.4391L64.5841 19.6439L63.6203 19.5202L62.9544 18.1241L62.271 19.5379L60.8516 19.4849L61.8855 20.3154L61.5 22.1003L61.4124 22.1886ZM60.2383 24.2916C59.7827 25.2635 58.2582 28.5681 57.4171 30.406C56.4358 32.5796 56.3131 34.2054 55.9626 35.3894C55.6122 36.5734 55.0689 41.7513 55.0514 43.5008C55.0339 44.2607 55.0689 44.7555 55.1215 45.0912L67.1951 23.9735L65.7757 21.4111L65.0923 21.4464L64.9696 24.486L62.6215 22.8778C62.6215 22.8602 60.361 24.0265 60.2383 24.2916ZM62.4638 15.438L61.5526 17.8591L58.486 18.3362L60.1507 20.4391L59.8703 23.6377L56.4708 27.0484C56.4708 27.0484 50.9509 32.6326 49.4439 35.0713C48.4977 36.5734 47.8493 37.4747 47.4813 37.9695L47.3061 -12.0062L62.4638 15.438ZM47.4638 39.719C48.1297 38.6057 50.7757 34.2761 52.9136 31.9081C55.3844 29.1513 59.1519 25.2989 59.1519 25.2989C59.1519 25.2989 57.7851 27.4725 56.9264 29.9642C56.0678 32.4559 54.771 37.3863 54.5783 40.4082C54.4381 42.6702 54.3505 45.2679 54.3154 46.4696L52.2477 50.11C52.2301 49.8626 52.2301 49.4561 52.2477 48.8376C52.3703 46.3106 52.16 44.2607 53.0362 40.9384C53.9124 37.6161 56.1028 30.8125 56.1028 30.8125C55.139 31.7314 53.8248 33.3925 52.5631 35.9903L47.4638 45.8511V39.719ZM54.6659 33.4809C54.6659 33.4809 52.8435 38.6764 52.2827 41.0621C51.722 43.3947 51.3715 48.6963 51.5117 51.3824L47.5339 58.3627L47.4988 49.7742C47.4988 49.7742 47.639 49.3678 48.4801 46.452C50.25 40.2668 53.9474 34.7533 54.6659 33.4809ZM5.05725 -0.819968C5.82828 -0.819968 6.38902 -0.307489 6.38902 0.470068C6.38902 1.24762 5.82828 1.70709 5.05725 1.70709C4.28622 1.70709 3.77804 1.22995 3.77804 0.470068C3.77804 -0.289817 4.2687 -0.819968 5.05725 -0.819968ZM40.4194 28.5858C40.8925 28.5858 41.1379 28.7449 41.1379 29.1867C41.1379 29.6285 40.8925 29.8052 40.4194 29.8052C39.9463 29.8052 39.736 29.6285 39.736 29.1867C39.736 28.7449 39.9638 28.5858 40.4194 28.5858ZM37.5981 26.9247C38.5444 26.9247 39.2278 27.5785 39.2278 28.5505C39.2278 29.5224 38.5444 30.1409 37.5981 30.1409C36.6519 30.1409 35.9685 29.5224 35.9685 28.5505C35.9509 27.5785 36.6519 26.9247 37.5981 26.9247Z" stroke="#8E35FF" stroke-width="0.5" stroke-miterlimit="10"/>
<path d="M27.5 2.17543L41.1506 10.0566C43.3164 11.3071 44.6506 13.6179 44.6506 16.1188V31.8812C44.6506 34.3821 43.3164 36.6929 41.1506 37.9434L27.5 45.8246C25.3342 47.075 22.6658 47.075 20.5 45.8246L6.84936 37.9434C4.68356 36.6929 3.34937 34.3821 3.34937 31.8812V16.1188C3.34937 13.6179 4.68356 11.3071 6.84936 10.0566L20.5 2.17543C22.6658 0.924996 25.3342 0.924997 27.5 2.17543Z" stroke="#8E35FF" stroke-width="2"/>
</g>
</g>
<path d="M65.8008 32.7305V26.6602L60 15.668H64.7109L67.6523 21.4453C67.7539 21.6484 67.8398 21.8477 67.9102 22.043C67.9883 22.2383 68.0625 22.4375 68.1328 22.6406H68.2031C68.2734 22.4375 68.3438 22.2422 68.4141 22.0547C68.4922 21.8594 68.5859 21.6562 68.6953 21.4453L71.6719 15.668H75.7617L70.1016 26.4609V32.7305H65.8008Z" fill="#191A26"/>
<path d="M73.6533 29.2148C73.6533 27.8633 74.1728 26.8477 75.2119 26.168C76.2509 25.4883 77.5713 25.1484 79.1728 25.1484H81.5634V24.5273C81.5634 24.0586 81.4423 23.6836 81.2002 23.4023C80.9658 23.1133 80.5517 22.9688 79.958 22.9688C79.3642 22.9688 78.9384 23.0859 78.6806 23.3203C78.4306 23.5547 78.3056 23.8555 78.3056 24.2227V24.457L74.3095 24.4453V24.2227C74.3095 23.0742 74.8525 22.1484 75.9384 21.4453C77.0244 20.7422 78.4384 20.3906 80.1806 20.3906C81.9384 20.3906 83.2978 20.7305 84.2588 21.4102C85.2197 22.082 85.7002 23.1445 85.7002 24.5977V30.0586C85.7002 30.543 85.747 31.0039 85.8408 31.4414C85.9345 31.8789 86.0595 32.25 86.2158 32.5547V32.7305H82.1259C82.0322 32.5508 81.9502 32.3242 81.8798 32.0508C81.8173 31.7695 81.7705 31.4961 81.7392 31.2305C81.5127 31.668 81.0556 32.0625 80.3681 32.4141C79.6884 32.7656 78.8447 32.9414 77.8369 32.9414C76.6181 32.9414 75.6142 32.6328 74.8252 32.0156C74.0439 31.3984 73.6533 30.4648 73.6533 29.2148ZM77.79 28.8398C77.79 29.3008 77.9228 29.6758 78.1884 29.9648C78.4541 30.2461 78.8681 30.3867 79.4306 30.3867C80.0634 30.3867 80.5752 30.1875 80.9658 29.7891C81.3642 29.3906 81.5634 28.8984 81.5634 28.3125V27.3984H79.9931C79.2353 27.3984 78.6767 27.5195 78.3173 27.7617C77.9658 27.9961 77.79 28.3555 77.79 28.8398Z" fill="#191A26"/>
<path d="M87.4589 32.7305V20.7305H91.5019L91.5487 22.043H91.6073C91.8417 21.5977 92.1777 21.2188 92.6152 20.9062C93.0527 20.5859 93.5292 20.4258 94.0448 20.4258C94.2245 20.4258 94.4003 20.4453 94.5722 20.4844C94.7441 20.5234 94.8652 20.5586 94.9355 20.5898V23.9648C94.8027 23.918 94.6542 23.8867 94.4902 23.8711C94.3261 23.8477 94.1425 23.8359 93.9394 23.8359C93.4628 23.8359 93.0097 23.9883 92.58 24.293C92.1581 24.5898 91.8456 24.9766 91.6425 25.4531V32.7305H87.4589Z" fill="#191A26"/>
<path d="M95.6395 32.7305V15H99.788V24.5391L103.245 20.7188H107.839L99.788 29.2617V32.7305H95.6395ZM103.479 32.7305L99.6005 27.3398L102.214 24.4336L108.343 32.7305H103.479Z" fill="#191A26"/>
<path d="M108.367 32.7305V20.7305H112.539V32.7305H108.367ZM108.086 17.3086C108.086 16.707 108.289 16.2031 108.695 15.7969C109.101 15.3828 109.687 15.1758 110.453 15.1758C111.219 15.1758 111.805 15.3828 112.211 15.7969C112.617 16.2031 112.82 16.707 112.82 17.3086C112.82 17.918 112.613 18.4297 112.199 18.8438C111.793 19.2578 111.207 19.4648 110.441 19.4648C109.683 19.4648 109.101 19.2578 108.695 18.8438C108.289 18.4297 108.086 17.918 108.086 17.3086Z" fill="#191A26"/>
<path d="M114.227 32.7305V20.7305H118.223L118.27 22.1367H118.341C118.684 21.5977 119.161 21.1875 119.77 20.9062C120.388 20.6172 121.052 20.4727 121.763 20.4727C122.622 20.4727 123.368 20.6562 124.001 21.0234C124.634 21.3828 125.087 21.8984 125.36 22.5703H125.395C125.786 21.9062 126.352 21.3906 127.095 21.0234C127.845 20.6562 128.63 20.4727 129.45 20.4727C130.653 20.4727 131.63 20.8516 132.38 21.6094C133.13 22.3594 133.505 23.6172 133.505 25.3828V32.7305H129.345V25.3828C129.345 24.7734 129.22 24.3203 128.97 24.0234C128.727 23.7188 128.356 23.5664 127.856 23.5664C127.419 23.5586 127.036 23.6797 126.708 23.9297C126.38 24.1797 126.122 24.5312 125.934 24.9844V32.7305H121.786V25.4297C121.786 24.7891 121.657 24.3203 121.399 24.0234C121.149 23.7188 120.766 23.5664 120.251 23.5664C119.813 23.5664 119.434 23.6875 119.114 23.9297C118.802 24.1641 118.555 24.5156 118.376 24.9844V32.7305H114.227Z" fill="#191A26"/>
<path d="M134.502 29.2148C134.502 27.8633 135.021 26.8477 136.06 26.168C137.099 25.4883 138.42 25.1484 140.021 25.1484H142.412V24.5273C142.412 24.0586 142.291 23.6836 142.049 23.4023C141.814 23.1133 141.4 22.9688 140.806 22.9688C140.213 22.9688 139.787 23.0859 139.529 23.3203C139.279 23.5547 139.154 23.8555 139.154 24.2227V24.457L135.158 24.4453V24.2227C135.158 23.0742 135.701 22.1484 136.787 21.4453C137.873 20.7422 139.287 20.3906 141.029 20.3906C142.787 20.3906 144.146 20.7305 145.107 21.4102C146.068 22.082 146.549 23.1445 146.549 24.5977V30.0586C146.549 30.543 146.595 31.0039 146.689 31.4414C146.783 31.8789 146.908 32.25 147.064 32.5547V32.7305H142.974C142.881 32.5508 142.799 32.3242 142.728 32.0508C142.666 31.7695 142.619 31.4961 142.588 31.2305C142.361 31.668 141.904 32.0625 141.217 32.4141C140.537 32.7656 139.693 32.9414 138.685 32.9414C137.467 32.9414 136.463 32.6328 135.674 32.0156C134.892 31.3984 134.502 30.4648 134.502 29.2148ZM138.638 28.8398C138.638 29.3008 138.771 29.6758 139.037 29.9648C139.302 30.2461 139.717 30.3867 140.279 30.3867C140.912 30.3867 141.424 30.1875 141.814 29.7891C142.213 29.3906 142.412 28.8984 142.412 28.3125V27.3984H140.842C140.084 27.3984 139.525 27.5195 139.166 27.7617C138.814 27.9961 138.638 28.3555 138.638 28.8398Z" fill="#191A26"/>
<defs>
<clipPath id="clip0_1_4223">
<rect width="48" height="48" fill="white"/>
</clipPath>
</defs>
</svg>
