<svg width="24" height="24" viewBox="0 0 24 24" fill="none" xmlns="http://www.w3.org/2000/svg">
<path d="M17.5001 17.5C20.0001 21 23.9487 18.4151 23.0001 15C21.5754 9.87113 20.8002 7.01556 20.397 5.50793C20.1598 4.62136 19.3563 4 18.4385 4H5.56161C4.64388 4 3.84406 4.62481 3.62091 5.515C2.78156 8.86349 2.03266 11.8016 1.14421 15C0.195561 18.4151 4.14421 21 6.64421 17.5M18.0001 8.5L18.0112 8.51M16.4901 7L16.5012 7.01M16.4901 10L16.5012 10.01M15.0001 8.5L15.0112 8.51M7.00006 7V10M5.50006 8.5H8.50006M8.00006 16C9.10463 16 10.0001 15.1046 10.0001 14C10.0001 12.8954 9.10463 12 8.00006 12C6.89549 12 6.00006 12.8954 6.00006 14C6.00006 15.1046 6.89549 16 8.00006 16ZM16.0001 16C17.1047 16 18.0001 15.1046 18.0001 14C18.0001 12.8954 17.1047 12 16.0001 12C14.8955 12 14.0001 12.8954 14.0001 14C14.0001 15.1046 14.8955 16 16.0001 16Z" stroke="#8E35FF" stroke-width="1.5" stroke-linecap="round" stroke-linejoin="round"/>
</svg>
