<svg width="32" height="32" viewBox="0 0 32 32" fill="none" xmlns="http://www.w3.org/2000/svg">
<g clip-path="url(#clip0_77_42366)">
<path d="M15.2563 1.55426C15.8503 1.21128 16.5822 1.21128 17.1763 1.55426L28.4726 8.07618C29.0666 8.41918 29.4326 9.05308 29.4326 9.73898V22.783C29.4326 23.4689 29.0666 24.1028 28.4726 24.4458L17.1763 30.9677C16.5822 31.3107 15.8503 31.3107 15.2563 30.9677L3.96 24.4458C3.36595 24.1028 3 23.4689 3 22.783V9.73898C3 9.05308 3.36595 8.41918 3.96 8.07618L15.2563 1.55426Z" fill="url(#paint0_radial_77_42366)"/>
<path d="M17.1763 1.55426C16.5822 1.21128 15.8503 1.21128 15.2563 1.55426L3.96 8.07618C3.36595 8.41918 3 9.05308 3 9.73898V22.783C3 23.4689 3.36595 24.1028 3.96 24.4458L15.2563 30.9677C15.8503 31.3107 16.5822 31.3107 17.1763 30.9677L28.4726 24.4458C29.0666 24.1028 29.4326 23.4689 29.4326 22.783V9.73898C29.4326 9.05308 29.0666 8.41918 28.4726 8.07618L17.1763 1.55426ZM17.1763 1.55426L17.4963 1" stroke="#17BAE6" stroke-width="1.28001"/>
<g filter="url(#filter0_d_77_42366)">
<path d="M15.574 3.83116C15.97 3.60251 16.4579 3.60251 16.854 3.83116L26.659 9.49217C27.055 9.72077 27.299 10.1434 27.299 10.6007V21.9227C27.299 22.38 27.055 22.8025 26.659 23.0312L16.854 28.6922C16.4579 28.9208 15.97 28.9208 15.574 28.6922L5.76891 23.0312C5.37287 22.8025 5.12891 22.38 5.12891 21.9227V10.6007C5.12891 10.1434 5.37287 9.72077 5.76891 9.49217L15.574 3.83116Z" fill="white" fill-opacity="0.5"/>
<g style="mix-blend-mode:overlay">
<path d="M16.9338 3.69256C16.4882 3.43532 15.9393 3.43532 15.4938 3.69256L5.68875 9.35353C5.24321 9.61073 4.96875 10.0861 4.96875 10.6006V21.9226C4.96875 22.437 5.24321 22.9124 5.68875 23.1697L15.4938 28.8306C15.9393 29.0879 16.4882 29.0879 16.9338 28.8306L26.7388 23.1697C27.1844 22.9124 27.4588 22.437 27.4588 21.9226V10.6006C27.4588 10.0861 27.1844 9.61073 26.7388 9.35353L16.9338 3.69256Z" stroke="white" stroke-width="0.320002"/>
</g>
</g>
<g style="mix-blend-mode:multiply">
<path fill-rule="evenodd" clip-rule="evenodd" d="M14.217 9.76099C14.3496 9.76099 14.4768 9.81369 14.5705 9.90739C14.6643 10.0012 14.717 10.1284 14.717 10.261V11.265C15.9079 11.283 17.097 11.3655 18.279 11.5123C18.3442 11.5205 18.4071 11.5414 18.4642 11.5738C18.5213 11.6063 18.5715 11.6497 18.6118 11.7015C18.6521 11.7534 18.6818 11.8127 18.6993 11.876C18.7167 11.9393 18.7215 12.0055 18.7133 12.0707C18.7052 12.1358 18.6843 12.1988 18.6518 12.2559C18.6194 12.313 18.576 12.3631 18.5241 12.4035C18.4723 12.4438 18.413 12.4735 18.3496 12.4909C18.2863 12.5084 18.2202 12.5131 18.155 12.505C17.715 12.4497 17.273 12.4043 16.8283 12.3677C16.4394 13.8848 15.7677 15.315 14.8483 16.583C15.0603 16.839 15.2817 17.085 15.515 17.321C15.608 17.4156 15.6596 17.5433 15.6585 17.6759C15.6574 17.8086 15.6036 17.9353 15.509 18.0283C15.4144 18.1213 15.2867 18.173 15.1541 18.1718C15.0214 18.1707 14.8947 18.1169 14.8017 18.0223C14.5995 17.8169 14.4045 17.6045 14.217 17.3857C13.1646 18.6155 11.8842 19.6302 10.4463 20.3737C10.3285 20.4345 10.1913 20.446 10.065 20.4057C9.93858 20.3654 9.83348 20.2765 9.77268 20.1587C9.71178 20.0408 9.70028 19.9036 9.74058 19.7773C9.78098 19.651 9.86978 19.5458 9.98768 19.485C11.3701 18.77 12.5937 17.7829 13.585 16.583C13.0034 15.78 12.5195 14.9105 12.1437 13.993C12.0964 13.8709 12.0989 13.7351 12.1507 13.6148C12.2025 13.4946 12.2994 13.3994 12.4206 13.3498C12.5418 13.3002 12.6776 13.3001 12.7988 13.3496C12.9201 13.3991 13.0171 13.4941 13.069 13.6143C13.3756 14.3626 13.7604 15.0763 14.217 15.7437C14.9362 14.6926 15.4749 13.5288 15.811 12.3003C13.9645 12.2088 12.1136 12.2772 10.279 12.505C10.1474 12.5214 10.0146 12.4849 9.90988 12.4035C9.80518 12.322 9.73708 12.2023 9.72068 12.0707C9.70418 11.939 9.74068 11.8063 9.82218 11.7015C9.90358 11.5968 10.0234 11.5288 10.155 11.5123C11.3369 11.3652 12.526 11.2827 13.717 11.265V10.261C13.717 10.1284 13.7697 10.0012 13.8634 9.90739C13.9572 9.81369 14.0844 9.76099 14.217 9.76099ZM18.717 14.261C18.8122 14.261 18.9054 14.2881 18.9857 14.3392C19.066 14.3904 19.1301 14.4634 19.1703 14.5497L22.6703 22.0497C22.6981 22.1092 22.7138 22.1736 22.7167 22.2392C22.7195 22.3049 22.7095 22.3704 22.687 22.4321C22.6645 22.4938 22.6301 22.5505 22.5857 22.599C22.5413 22.6474 22.4879 22.6866 22.4283 22.7143C22.3081 22.7704 22.1705 22.7764 22.0459 22.731C21.9212 22.6856 21.8197 22.5926 21.7637 22.4723L20.965 20.761H16.469L15.6703 22.4723C15.6143 22.5926 15.5128 22.6856 15.3881 22.731C15.2635 22.7764 15.1259 22.7704 15.0057 22.7143C14.8854 22.6583 14.7924 22.5568 14.747 22.4321C14.7016 22.3075 14.7076 22.1699 14.7637 22.0497L18.2637 14.5497C18.3039 14.4634 18.3679 14.3904 18.4482 14.3392C18.5286 14.2881 18.6218 14.261 18.717 14.261ZM16.9357 19.761H20.4983L18.717 15.9437L16.9357 19.761Z" fill="#17BAE6"/>
</g>
</g>
<defs>
<filter id="filter0_d_77_42366" x="-0.471436" y="-1.94043" width="35.9306" height="38.9641" filterUnits="userSpaceOnUse" color-interpolation-filters="sRGB">
<feFlood flood-opacity="0" result="BackgroundImageFix"/>
<feColorMatrix in="SourceAlpha" type="matrix" values="0 0 0 0 0 0 0 0 0 0 0 0 0 0 0 0 0 0 127 0" result="hardAlpha"/>
<feOffset dx="1.28001" dy="1.28001"/>
<feGaussianBlur stdDeviation="3.28002"/>
<feComposite in2="hardAlpha" operator="out"/>
<feColorMatrix type="matrix" values="0 0 0 0 0 0 0 0 0 0 0 0 0 0 0 0 0 0 0.05 0"/>
<feBlend mode="normal" in2="BackgroundImageFix" result="effect1_dropShadow_77_42366"/>
<feBlend mode="normal" in="SourceGraphic" in2="effect1_dropShadow_77_42366" result="shape"/>
</filter>
<radialGradient id="paint0_radial_77_42366" cx="0" cy="0" r="1" gradientUnits="userSpaceOnUse" gradientTransform="translate(16.2163 16.261) rotate(90) scale(16 15.9999)">
<stop stop-color="#17BAE6"/>
<stop offset="1" stop-color="#17BAE6" stop-opacity="0.4"/>
</radialGradient>
<clipPath id="clip0_77_42366">
<rect width="32" height="32" fill="white"/>
</clipPath>
</defs>
</svg>
