<svg width="32" height="32" viewBox="0 0 32 32" fill="none" xmlns="http://www.w3.org/2000/svg">
<g clip-path="url(#clip0_241_57144)">
<path d="M15.2563 1.55426C15.8503 1.21128 16.5822 1.21128 17.1763 1.55426L28.4726 8.07618C29.0666 8.41918 29.4326 9.05308 29.4326 9.73898V22.783C29.4326 23.4689 29.0666 24.1028 28.4726 24.4458L17.1763 30.9677C16.5822 31.3107 15.8503 31.3107 15.2563 30.9677L3.96 24.4458C3.36595 24.1028 3 23.4689 3 22.783V9.73898C3 9.05308 3.36595 8.41918 3.96 8.07618L15.2563 1.55426Z" fill="url(#paint0_radial_241_57144)"/>
<path d="M17.1763 1.55426C16.5822 1.21128 15.8503 1.21128 15.2563 1.55426L3.96 8.07618C3.36595 8.41918 3 9.05308 3 9.73898V22.783C3 23.4689 3.36595 24.1028 3.96 24.4458L15.2563 30.9677C15.8503 31.3107 16.5822 31.3107 17.1763 30.9677L28.4726 24.4458C29.0666 24.1028 29.4326 23.4689 29.4326 22.783V9.73898C29.4326 9.05308 29.0666 8.41918 28.4726 8.07618L17.1763 1.55426ZM17.1763 1.55426L17.4963 1" stroke="#10C38D" stroke-width="1.28001"/>
<g filter="url(#filter0_d_241_57144)">
<path d="M15.574 3.83116C15.97 3.60251 16.4579 3.60251 16.854 3.83116L26.659 9.49217C27.055 9.72077 27.299 10.1434 27.299 10.6007V21.9227C27.299 22.38 27.055 22.8025 26.659 23.0312L16.854 28.6922C16.4579 28.9208 15.97 28.9208 15.574 28.6922L5.76891 23.0312C5.37287 22.8025 5.12891 22.38 5.12891 21.9227V10.6007C5.12891 10.1434 5.37287 9.72077 5.76891 9.49217L15.574 3.83116Z" fill="white" fill-opacity="0.5"/>
<g style="mix-blend-mode:overlay">
<path d="M16.9338 3.69269C16.4882 3.43545 15.9393 3.43545 15.4938 3.69269L5.68875 9.35366C5.24321 9.61086 4.96875 10.0863 4.96875 10.6008V21.9228C4.96875 22.4372 5.24321 22.9126 5.68875 23.1699L15.4938 28.8308C15.9393 29.0881 16.4882 29.0881 16.9338 28.8308L26.7388 23.1699C27.1844 22.9126 27.4588 22.4372 27.4588 21.9228V10.6008C27.4588 10.0863 27.1844 9.61086 26.7388 9.35366L16.9338 3.69269Z" stroke="white" stroke-width="0.320002"/>
</g>
</g>
<mask id="mask0_241_57144" style="mask-type:luminance" maskUnits="userSpaceOnUse" x="8" y="8" width="17" height="17">
<path d="M24.3749 8.26099H8.375V24.261H24.3749V8.26099Z" fill="white"/>
</mask>
<g mask="url(#mask0_241_57144)">
<g style="mix-blend-mode:multiply">
<path d="M12.859 19.6069C12.0428 18.8922 11.4639 17.9456 11.1996 16.8933C10.9354 15.841 10.9984 14.7332 11.3801 13.7176C11.7619 12.7021 12.4443 11.8271 13.3363 11.2095C14.2283 10.5919 15.2874 10.261 16.3723 10.261C17.4573 10.261 18.5164 10.5919 19.4084 11.2095C20.3004 11.8271 20.9828 12.7021 21.3645 13.7176C21.7463 14.7332 21.8093 15.841 21.545 16.8933C21.2808 17.9456 20.7019 18.8922 19.8856 19.6069" stroke="#10C38D" stroke-linecap="round" stroke-linejoin="round"/>
<path d="M11.707 20.9264C11.707 21.28 11.8475 21.6191 12.0975 21.8692C12.3476 22.1192 12.6867 22.2597 13.0403 22.2597H19.707C20.0606 22.2597 20.3997 22.1192 20.6498 21.8692C20.8998 21.6191 21.0403 21.28 21.0403 20.9264C21.0403 20.5727 20.8998 20.2336 20.6498 19.9836C20.3997 19.7335 20.0606 19.593 19.707 19.593H13.0403C12.6867 19.593 12.3476 19.7335 12.0975 19.9836C11.8475 20.2336 11.707 20.5727 11.707 20.9264Z" stroke="#10C38D" stroke-linecap="round" stroke-linejoin="round"/>
<path d="M15.7148 12.929C15.1843 12.929 14.6756 13.1397 14.3006 13.5148C13.9255 13.8898 13.7148 14.3985 13.7148 14.929" stroke="#10C38D" stroke-linecap="round" stroke-linejoin="round"/>
</g>
</g>
</g>
<defs>
<filter id="filter0_d_241_57144" x="-0.471436" y="-1.94019" width="35.9287" height="38.9641" filterUnits="userSpaceOnUse" color-interpolation-filters="sRGB">
<feFlood flood-opacity="0" result="BackgroundImageFix"/>
<feColorMatrix in="SourceAlpha" type="matrix" values="0 0 0 0 0 0 0 0 0 0 0 0 0 0 0 0 0 0 127 0" result="hardAlpha"/>
<feOffset dx="1.28001" dy="1.28001"/>
<feGaussianBlur stdDeviation="3.28002"/>
<feComposite in2="hardAlpha" operator="out"/>
<feColorMatrix type="matrix" values="0 0 0 0 0 0 0 0 0 0 0 0 0 0 0 0 0 0 0.05 0"/>
<feBlend mode="normal" in2="BackgroundImageFix" result="effect1_dropShadow_241_57144"/>
<feBlend mode="normal" in="SourceGraphic" in2="effect1_dropShadow_241_57144" result="shape"/>
</filter>
<radialGradient id="paint0_radial_241_57144" cx="0" cy="0" r="1" gradientUnits="userSpaceOnUse" gradientTransform="translate(16.2163 16.261) rotate(90) scale(16 15.9999)">
<stop stop-color="#10C38D"/>
<stop offset="1" stop-color="#10C38D" stop-opacity="0.4"/>
</radialGradient>
<clipPath id="clip0_241_57144">
<rect width="32" height="32" fill="white"/>
</clipPath>
</defs>
</svg>
