<svg width="32" height="32" viewBox="0 0 32 32" fill="none" xmlns="http://www.w3.org/2000/svg">
<g clip-path="url(#clip0_241_57144)">
<path d="M15.2564 1.25723C15.8504 0.914257 16.5823 0.914257 17.1764 1.25723L28.4728 7.77917C29.0669 8.12217 29.4328 8.75607 29.4328 9.44197V22.486C29.4328 23.1719 29.0669 23.8058 28.4728 24.1488L17.1764 30.6707C16.5823 31.0137 15.8504 31.0137 15.2564 30.6707L3.96 24.1488C3.36595 23.8058 3 23.1719 3 22.486V9.44197C3 8.75607 3.36595 8.12217 3.96 7.77917L15.2564 1.25723Z" fill="url(#paint0_radial_241_57144)" stroke="#F36DFF" stroke-width="1.28"/>
<g filter="url(#filter0_d_241_57144)">
<path d="M15.574 3.53355C15.97 3.3049 16.458 3.3049 16.854 3.53355L26.6591 9.19455C27.0552 9.42315 27.2991 9.84575 27.2991 10.303V21.625C27.2991 22.0823 27.0552 22.5048 26.6591 22.7335L16.854 28.3945C16.458 28.6231 15.97 28.6231 15.574 28.3945L5.76891 22.7335C5.37288 22.5048 5.12891 22.0823 5.12891 21.625V10.303C5.12891 9.84575 5.37288 9.42315 5.76891 9.19455L15.574 3.53355Z" fill="white" fill-opacity="0.5"/>
<g style="mix-blend-mode:overlay">
<path d="M16.9339 3.39508C16.4884 3.13784 15.9394 3.13784 15.4939 3.39508L5.68875 9.05604C5.24321 9.31334 4.96875 9.78864 4.96875 10.3031V21.6251C4.96875 22.1396 5.24321 22.6149 5.68875 22.8722L15.4939 28.5332C15.9394 28.7904 16.4884 28.7904 16.9339 28.5332L26.739 22.8722C27.1846 22.6149 27.459 22.1396 27.459 21.6251V10.3031C27.459 9.78864 27.1846 9.31334 26.739 9.05604L16.9339 3.39508Z" stroke="white" stroke-width="0.32"/>
</g>
</g>
<g style="mix-blend-mode:multiply">
<path fill-rule="evenodd" clip-rule="evenodd" d="M14.215 9.46387C14.3476 9.46387 14.4748 9.51657 14.5685 9.61027C14.6623 9.70407 14.715 9.83127 14.715 9.96387V10.9679C15.9059 10.9859 17.095 11.0684 18.277 11.2152C18.3422 11.2234 18.4051 11.2443 18.4622 11.2767C18.5193 11.3092 18.5695 11.3526 18.6098 11.4044C18.6501 11.4563 18.6799 11.5156 18.6973 11.5789C18.7147 11.6422 18.7195 11.7084 18.7113 11.7736C18.7032 11.8387 18.6823 11.9017 18.6498 11.9588C18.6174 12.0159 18.574 12.066 18.5221 12.1064C18.4703 12.1467 18.411 12.1764 18.3477 12.1938C18.2843 12.2113 18.2182 12.216 18.153 12.2079C17.713 12.1526 17.271 12.1072 16.8263 12.0706C16.4374 13.5877 15.7657 15.0179 14.8463 16.2859C15.0583 16.5419 15.2797 16.7879 15.513 17.0239C15.606 17.1185 15.6576 17.2462 15.6565 17.3788C15.6554 17.5115 15.6016 17.6382 15.507 17.7312C15.4124 17.8242 15.2847 17.8759 15.1521 17.8747C15.0194 17.8736 14.8927 17.8198 14.7997 17.7252C14.5975 17.5198 14.4025 17.3074 14.215 17.0886C13.1626 18.3184 11.8822 19.3331 10.4443 20.0766C10.3265 20.1374 10.1893 20.1489 10.063 20.1086C9.93663 20.0683 9.83153 19.9794 9.77073 19.8616C9.70983 19.7437 9.69833 19.6065 9.73863 19.4802C9.77903 19.3539 9.86783 19.2487 9.98573 19.1879C11.3681 18.4729 12.5917 17.4858 13.583 16.2859C13.0014 15.4829 12.5175 14.6134 12.1417 13.6959C12.0944 13.5738 12.0969 13.438 12.1487 13.3177C12.2005 13.1975 12.2974 13.1023 12.4186 13.0527C12.5398 13.0031 12.6756 13.003 12.7968 13.0525C12.9181 13.102 13.0151 13.197 13.067 13.3172C13.3736 14.0655 13.7584 14.7792 14.215 15.4466C14.9342 14.3955 15.4729 13.2317 15.809 12.0032C13.9625 11.9117 12.1116 11.9801 10.277 12.2079C10.1454 12.2243 10.0126 12.1878 9.90793 12.1064C9.80323 12.0249 9.73513 11.9052 9.71873 11.7736C9.70223 11.6419 9.73873 11.5092 9.82023 11.4044C9.90163 11.2997 10.0214 11.2317 10.153 11.2152C11.3349 11.0681 12.524 10.9856 13.715 10.9679V9.96387C13.715 9.83127 13.7677 9.70407 13.8614 9.61027C13.9552 9.51657 14.0824 9.46387 14.215 9.46387ZM18.715 13.9639C18.8102 13.9639 18.9034 13.991 18.9837 14.0421C19.064 14.0933 19.1281 14.1663 19.1683 14.2526L22.6683 21.7526C22.6961 21.8121 22.7118 21.8765 22.7147 21.9421C22.7176 22.0078 22.7075 22.0733 22.685 22.135C22.6625 22.1967 22.6281 22.2534 22.5837 22.3019C22.5393 22.3503 22.4859 22.3895 22.4263 22.4172C22.3061 22.4733 22.1685 22.4793 22.0439 22.4339C21.9192 22.3885 21.8177 22.2955 21.7617 22.1752L20.963 20.4639H16.467L15.6683 22.1752C15.6123 22.2955 15.5108 22.3885 15.3861 22.4339C15.2615 22.4793 15.1239 22.4733 15.0037 22.4172C14.8834 22.3612 14.7904 22.2597 14.745 22.135C14.6996 22.0104 14.7056 21.8728 14.7617 21.7526L18.2617 14.2526C18.3019 14.1663 18.3659 14.0933 18.4462 14.0421C18.5266 13.991 18.6198 13.9639 18.715 13.9639ZM16.9337 19.4639H20.4963L18.715 15.6466L16.9337 19.4639Z" fill="#F36DFF"/>
</g>
</g>
<defs>
<filter id="filter0_d_241_57144" x="-0.471406" y="-2.23776" width="35.9286" height="38.964" filterUnits="userSpaceOnUse" color-interpolation-filters="sRGB">
<feFlood flood-opacity="0" result="BackgroundImageFix"/>
<feColorMatrix in="SourceAlpha" type="matrix" values="0 0 0 0 0 0 0 0 0 0 0 0 0 0 0 0 0 0 127 0" result="hardAlpha"/>
<feOffset dx="1.28" dy="1.28"/>
<feGaussianBlur stdDeviation="3.28"/>
<feComposite in2="hardAlpha" operator="out"/>
<feColorMatrix type="matrix" values="0 0 0 0 0 0 0 0 0 0 0 0 0 0 0 0 0 0 0.05 0"/>
<feBlend mode="normal" in2="BackgroundImageFix" result="effect1_dropShadow_241_57144"/>
<feBlend mode="normal" in="SourceGraphic" in2="effect1_dropShadow_241_57144" result="shape"/>
</filter>
<radialGradient id="paint0_radial_241_57144" cx="0" cy="0" r="1" gradientUnits="userSpaceOnUse" gradientTransform="translate(16.2164 15.964) rotate(90) scale(16)">
<stop stop-color="#F16DFD"/>
<stop offset="1" stop-color="#F16DFD" stop-opacity="0.4"/>
</radialGradient>
<clipPath id="clip0_241_57144">
<rect width="32" height="32" fill="white"/>
</clipPath>
</defs>
</svg>
