<svg width="113" height="122" viewBox="0 0 113 122" fill="none" xmlns="http://www.w3.org/2000/svg">
<path d="M49.4004 11.0417C51.2568 9.9699 53.544 9.9699 55.4004 11.0417L90.7016 31.4229C92.5581 32.4947 93.7016 34.4755 93.7016 36.619V77.3814C93.7016 79.525 92.5581 81.5058 90.7016 82.5776L55.4004 102.959C53.544 104.031 51.2568 104.031 49.4004 102.959L14.0991 82.5776C12.2427 81.5058 11.0991 79.525 11.0991 77.3814V36.619C11.0991 34.4755 12.2427 32.4947 14.0991 31.4229L49.4004 11.0417Z" fill="url(#paint0_angular_1_6345)" stroke="#17BAE6" stroke-width="4"/>
<g filter="url(#filter0_d_1_6345)">
<path d="M50.4004 18.1549C51.638 17.4404 53.1628 17.4404 54.4004 18.1549L85.0414 35.8455C86.279 36.5601 87.0414 37.8806 87.0414 39.3096V74.6908C87.0414 76.1199 86.279 77.4404 85.0414 78.1549L54.4004 95.8455C53.1628 96.5601 51.638 96.5601 50.4004 95.8455L19.7594 78.1549C18.5218 77.4404 17.7594 76.1199 17.7594 74.6908V39.3096C17.7594 37.8806 18.5218 36.5601 19.7594 35.8455L50.4004 18.1549Z" fill="white" fill-opacity="0.5" shape-rendering="crispEdges"/>
<path d="M54.6504 17.7219C53.2581 16.9181 51.5427 16.9181 50.1504 17.7219L19.5094 35.4125C18.1171 36.2164 17.2594 37.702 17.2594 39.3096V74.6908C17.2594 76.2985 18.1171 77.7841 19.5094 78.588L50.1504 96.2786C51.5427 97.0824 53.2581 97.0824 54.6504 96.2786L85.2914 78.588C86.6837 77.7841 87.5414 76.2985 87.5414 74.6908V39.3096C87.5414 37.702 86.6837 36.2164 85.2914 35.4125L54.6504 17.7219Z" stroke="white" style="mix-blend-mode:overlay" shape-rendering="crispEdges"/>
</g>
<g style="mix-blend-mode:multiply">
<path fill-rule="evenodd" clip-rule="evenodd" d="M49.4007 47.2502C49.5996 47.2502 49.7904 47.3293 49.931 47.4699C50.0717 47.6106 50.1507 47.8013 50.1507 48.0002V49.5062C51.9371 49.5332 53.7207 49.657 55.4937 49.8772C55.5914 49.8895 55.6859 49.9208 55.7715 49.9695C55.8572 50.0182 55.9324 50.0833 55.9929 50.1611C56.0534 50.2388 56.098 50.3278 56.1241 50.4228C56.1502 50.5178 56.1574 50.617 56.1452 50.7147C56.133 50.8125 56.1016 50.9069 56.0529 50.9926C56.0042 51.0782 55.9391 51.1534 55.8614 51.2139C55.7836 51.2744 55.6947 51.319 55.5997 51.3452C55.5047 51.3713 55.4054 51.3785 55.3077 51.3662C54.6477 51.2832 53.9847 51.2152 53.3177 51.1602C52.7343 53.436 51.7267 55.5812 50.3477 57.4832C50.6657 57.8672 50.9977 58.2362 51.3477 58.5902C51.4872 58.7321 51.5646 58.9236 51.5629 59.1226C51.5612 59.3216 51.4806 59.5117 51.3387 59.6512C51.1968 59.7907 51.0053 59.8682 50.8063 59.8665C50.6073 59.8648 50.4172 59.7841 50.2777 59.6422C49.9745 59.334 49.682 59.0155 49.4007 58.6872C47.8221 60.5321 45.9014 62.054 43.7447 63.1692C43.5679 63.2605 43.3621 63.2778 43.1726 63.2173C42.9831 63.1568 42.8254 63.0235 42.7342 62.8467C42.6429 62.67 42.6257 62.4642 42.6861 62.2747C42.7466 62.0852 42.8799 61.9275 43.0567 61.8362C45.1303 60.7637 46.9657 59.283 48.4527 57.4832C47.5802 56.2787 46.8545 54.9745 46.2907 53.5982C46.2198 53.4151 46.2236 53.2114 46.3013 53.031C46.379 52.8506 46.5243 52.7079 46.7061 52.6335C46.8879 52.5591 47.0916 52.559 47.2734 52.6332C47.4553 52.7074 47.6008 52.8499 47.6787 53.0302C48.1385 54.1526 48.7157 55.2232 49.4007 56.2242C50.4795 54.6476 51.2876 52.902 51.7917 51.0592C49.022 50.9219 46.2456 51.0246 43.4937 51.3662C43.2962 51.3909 43.0971 51.3361 42.94 51.2139C42.7829 51.0918 42.6808 50.9122 42.6562 50.7147C42.6315 50.5173 42.6863 50.3181 42.8085 50.1611C42.9307 50.004 43.1102 49.9019 43.3077 49.8772C45.0806 49.6566 46.8643 49.5327 48.6507 49.5062V48.0002C48.6507 47.8013 48.7297 47.6106 48.8703 47.4699C49.011 47.3293 49.2018 47.2502 49.4007 47.2502ZM56.1507 54.0002C56.2935 54.0002 56.4333 54.0409 56.5538 54.1176C56.6743 54.1943 56.7703 54.3038 56.8307 54.4332L62.0807 65.6832C62.1223 65.7725 62.1459 65.8692 62.1502 65.9676C62.1545 66.066 62.1394 66.1643 62.1057 66.2569C62.072 66.3495 62.0203 66.4345 61.9538 66.5072C61.8872 66.5798 61.807 66.6386 61.7177 66.6802C61.5373 66.7643 61.331 66.7733 61.144 66.7052C60.957 66.6372 60.8048 66.4976 60.7207 66.3172L59.5227 63.7502H52.7787L51.5807 66.3172C51.4966 66.4976 51.3443 66.6372 51.1574 66.7052C50.9704 66.7733 50.764 66.7643 50.5837 66.6802C50.4033 66.5962 50.2638 66.4439 50.1957 66.2569C50.1276 66.07 50.1366 65.8636 50.2207 65.6832L55.4707 54.4332C55.531 54.3038 55.6271 54.1943 55.7476 54.1176C55.868 54.0409 56.0079 54.0002 56.1507 54.0002ZM53.4787 62.2502H58.8227L56.1507 56.5242L53.4787 62.2502Z" fill="#17BAE6"/>
</g>
<defs>
<filter id="filter0_d_1_6345" x="0.259766" y="0.119141" width="112.281" height="121.762" filterUnits="userSpaceOnUse" color-interpolation-filters="sRGB">
<feFlood flood-opacity="0" result="BackgroundImageFix"/>
<feColorMatrix in="SourceAlpha" type="matrix" values="0 0 0 0 0 0 0 0 0 0 0 0 0 0 0 0 0 0 127 0" result="hardAlpha"/>
<feOffset dx="4" dy="4"/>
<feGaussianBlur stdDeviation="10.25"/>
<feComposite in2="hardAlpha" operator="out"/>
<feColorMatrix type="matrix" values="0 0 0 0 0 0 0 0 0 0 0 0 0 0 0 0 0 0 0.05 0"/>
<feBlend mode="normal" in2="BackgroundImageFix" result="effect1_dropShadow_1_6345"/>
<feBlend mode="normal" in="SourceGraphic" in2="effect1_dropShadow_1_6345" result="shape"/>
</filter>
<radialGradient id="paint0_angular_1_6345" cx="0" cy="0" r="1" gradientUnits="userSpaceOnUse" gradientTransform="translate(52.4004 57.0002) rotate(90) scale(50 50)">
<stop stop-color="#17BAE6"/>
<stop offset="1" stop-color="#17BAE6" stop-opacity="0.4"/>
</radialGradient>
</defs>
</svg>
