<svg width="114" height="122" viewBox="0 0 114 122" fill="none" xmlns="http://www.w3.org/2000/svg">
<path d="M50 11.0417C51.8564 9.9699 54.1436 9.9699 56 11.0417L91.3013 31.4229C93.1577 32.4947 94.3013 34.4755 94.3013 36.619V77.3814C94.3013 79.525 93.1577 81.5058 91.3013 82.5776L56 102.959C54.1436 104.031 51.8564 104.031 50 102.959L14.6987 82.5776C12.8423 81.5058 11.6987 79.525 11.6987 77.3814V36.619C11.6987 34.4755 12.8423 32.4947 14.6987 31.4229L50 11.0417Z" fill="url(#paint0_angular_1_6361)" stroke="#F36DFF" stroke-width="4"/>
<g filter="url(#filter0_d_1_6361)">
<path d="M51 18.1549C52.2376 17.4404 53.7624 17.4404 55 18.1549L85.641 35.8455C86.8786 36.5601 87.641 37.8806 87.641 39.3096V74.6908C87.641 76.1199 86.8786 77.4404 85.641 78.1549L55 95.8455C53.7624 96.5601 52.2376 96.5601 51 95.8455L20.359 78.1549C19.1214 77.4404 18.359 76.1199 18.359 74.6908V39.3096C18.359 37.8806 19.1214 36.5601 20.359 35.8455L51 18.1549Z" fill="white" fill-opacity="0.5" shape-rendering="crispEdges"/>
<path d="M55.25 17.7219C53.8577 16.9181 52.1423 16.9181 50.75 17.7219L20.109 35.4125C18.7167 36.2164 17.859 37.702 17.859 39.3096V74.6908C17.859 76.2985 18.7167 77.7841 20.109 78.588L50.75 96.2786C52.1423 97.0824 53.8577 97.0824 55.25 96.2786L85.891 78.588C87.2833 77.7841 88.141 76.2985 88.141 74.6908V39.3096C88.141 37.702 87.2833 36.2164 85.891 35.4125L55.25 17.7219Z" stroke="white" style="mix-blend-mode:overlay" shape-rendering="crispEdges"/>
</g>
<g style="mix-blend-mode:multiply">
<path fill-rule="evenodd" clip-rule="evenodd" d="M50.0003 47.2502C50.1992 47.2502 50.39 47.3293 50.5306 47.4699C50.6713 47.6106 50.7503 47.8013 50.7503 48.0002V49.5062C52.5367 49.5332 54.3203 49.657 56.0933 49.8772C56.1911 49.8895 56.2855 49.9208 56.3711 49.9695C56.4568 50.0182 56.532 50.0833 56.5925 50.1611C56.653 50.2388 56.6976 50.3278 56.7237 50.4228C56.7498 50.5178 56.757 50.617 56.7448 50.7147C56.7326 50.8125 56.7012 50.9069 56.6525 50.9926C56.6038 51.0782 56.5387 51.1534 56.461 51.2139C56.3832 51.2744 56.2943 51.319 56.1993 51.3452C56.1043 51.3713 56.0051 51.3785 55.9073 51.3662C55.2473 51.2832 54.5843 51.2152 53.9173 51.1602C53.3339 53.436 52.3263 55.5812 50.9473 57.4832C51.2653 57.8672 51.5973 58.2362 51.9473 58.5902C52.0868 58.7321 52.1642 58.9236 52.1625 59.1226C52.1608 59.3216 52.0802 59.5117 51.9383 59.6512C51.7964 59.7907 51.6049 59.8682 51.4059 59.8665C51.2069 59.8648 51.0168 59.7841 50.8773 59.6422C50.5741 59.334 50.2816 59.0155 50.0003 58.6872C48.4217 60.5321 46.501 62.054 44.3443 63.1692C44.1675 63.2605 43.9618 63.2778 43.7722 63.2173C43.5827 63.1568 43.425 63.0235 43.3338 62.8467C43.2426 62.67 43.2253 62.4642 43.2858 62.2747C43.3462 62.0852 43.4795 61.9275 43.6563 61.8362C45.7299 60.7637 47.5653 59.283 49.0523 57.4832C48.1799 56.2787 47.4541 54.9745 46.8903 53.5982C46.8194 53.4151 46.8232 53.2114 46.9009 53.031C46.9786 52.8506 47.1239 52.7079 47.3057 52.6335C47.4875 52.5591 47.6912 52.559 47.8731 52.6332C48.0549 52.7074 48.2004 52.8499 48.2783 53.0302C48.7381 54.1526 49.3153 55.2232 50.0003 56.2242C51.0791 54.6476 51.8872 52.902 52.3913 51.0592C49.6216 50.9219 46.8452 51.0246 44.0933 51.3662C43.8958 51.3909 43.6967 51.3361 43.5396 51.2139C43.3825 51.0918 43.2805 50.9122 43.2558 50.7147C43.2311 50.5173 43.2859 50.3181 43.4081 50.1611C43.5303 50.004 43.7098 49.9019 43.9073 49.8772C45.6802 49.6566 47.4639 49.5327 49.2503 49.5062V48.0002C49.2503 47.8013 49.3293 47.6106 49.47 47.4699C49.6106 47.3293 49.8014 47.2502 50.0003 47.2502ZM56.7503 54.0002C56.8931 54.0002 57.033 54.0409 57.1534 54.1176C57.2739 54.1943 57.3699 54.3038 57.4303 54.4332L62.6803 65.6832C62.7219 65.7725 62.7455 65.8692 62.7498 65.9676C62.7541 66.066 62.739 66.1643 62.7053 66.2569C62.6716 66.3495 62.62 66.4345 62.5534 66.5072C62.4868 66.5798 62.4066 66.6386 62.3173 66.6802C62.1369 66.7643 61.9306 66.7733 61.7436 66.7052C61.5566 66.6372 61.4044 66.4976 61.3203 66.3172L60.1223 63.7502H53.3783L52.1803 66.3172C52.0962 66.4976 51.9439 66.6372 51.757 66.7052C51.57 66.7733 51.3636 66.7643 51.1833 66.6802C51.0029 66.5962 50.8634 66.4439 50.7953 66.2569C50.7272 66.07 50.7362 65.8636 50.8203 65.6832L56.0703 54.4332C56.1306 54.3038 56.2267 54.1943 56.3472 54.1176C56.4676 54.0409 56.6075 54.0002 56.7503 54.0002ZM54.0783 62.2502H59.4223L56.7503 56.5242L54.0783 62.2502Z" fill="#F36DFF"/>
</g>
<defs>
<filter id="filter0_d_1_6361" x="0.859375" y="0.119141" width="112.281" height="121.762" filterUnits="userSpaceOnUse" color-interpolation-filters="sRGB">
<feFlood flood-opacity="0" result="BackgroundImageFix"/>
<feColorMatrix in="SourceAlpha" type="matrix" values="0 0 0 0 0 0 0 0 0 0 0 0 0 0 0 0 0 0 127 0" result="hardAlpha"/>
<feOffset dx="4" dy="4"/>
<feGaussianBlur stdDeviation="10.25"/>
<feComposite in2="hardAlpha" operator="out"/>
<feColorMatrix type="matrix" values="0 0 0 0 0 0 0 0 0 0 0 0 0 0 0 0 0 0 0.05 0"/>
<feBlend mode="normal" in2="BackgroundImageFix" result="effect1_dropShadow_1_6361"/>
<feBlend mode="normal" in="SourceGraphic" in2="effect1_dropShadow_1_6361" result="shape"/>
</filter>
<radialGradient id="paint0_angular_1_6361" cx="0" cy="0" r="1" gradientUnits="userSpaceOnUse" gradientTransform="translate(53 57.0002) rotate(90) scale(50 50)">
<stop stop-color="#F16DFD"/>
<stop offset="1" stop-color="#F16DFD" stop-opacity="0.4"/>
</radialGradient>
</defs>
</svg>
