<svg width="113" height="122" viewBox="0 0 113 122" fill="none" xmlns="http://www.w3.org/2000/svg">
<path d="M49.6006 11.0417C51.457 9.9699 53.7442 9.9699 55.6006 11.0417L90.9018 31.4229C92.7582 32.4947 93.9018 34.4755 93.9018 36.619V77.3814C93.9018 79.525 92.7582 81.5058 90.9018 82.5776L55.6006 102.959C53.7442 104.031 51.457 104.031 49.6006 102.959L14.2993 82.5776C12.4429 81.5058 11.2993 79.525 11.2993 77.3814V36.619C11.2993 34.4755 12.4429 32.4947 14.2993 31.4229L49.6006 11.0417Z" fill="url(#paint0_angular_1_6377)" stroke="#8E35FF" stroke-width="4"/>
<g filter="url(#filter0_d_1_6377)">
<path d="M50.6006 18.1549C51.8382 17.4404 53.363 17.4404 54.6006 18.1549L85.2416 35.8455C86.4792 36.5601 87.2416 37.8806 87.2416 39.3096V74.6908C87.2416 76.1199 86.4792 77.4404 85.2416 78.1549L54.6006 95.8455C53.363 96.5601 51.8382 96.5601 50.6006 95.8455L19.9596 78.1549C18.722 77.4404 17.9596 76.1199 17.9596 74.6908V39.3096C17.9596 37.8806 18.722 36.5601 19.9596 35.8455L50.6006 18.1549Z" fill="white" fill-opacity="0.5" shape-rendering="crispEdges"/>
<path d="M54.8506 17.7219C53.4583 16.9181 51.7429 16.9181 50.3506 17.7219L19.7096 35.4125C18.3173 36.2164 17.4596 37.702 17.4596 39.3096V74.6908C17.4596 76.2985 18.3173 77.7841 19.7096 78.588L50.3506 96.2786C51.7429 97.0824 53.4583 97.0824 54.8506 96.2786L85.4916 78.588C86.8839 77.7841 87.7416 76.2985 87.7416 74.6908V39.3096C87.7416 37.702 86.8839 36.2164 85.4916 35.4125L54.8506 17.7219Z" stroke="white" style="mix-blend-mode:overlay" shape-rendering="crispEdges"/>
</g>
<g style="mix-blend-mode:multiply" clip-path="url(#clip0_1_6377)">
<path d="M47.3306 62.0191C46.1062 60.9471 45.2379 59.5271 44.8415 57.9487C44.4451 56.3703 44.5396 54.7085 45.1122 53.1852C45.6849 51.6619 46.7085 50.3494 48.0465 49.423C49.3845 48.4966 50.9732 48.0002 52.6006 48.0002C54.228 48.0002 55.8167 48.4966 57.1547 49.423C58.4927 50.3494 59.5163 51.6619 60.089 53.1852C60.6616 54.7085 60.756 56.3703 60.3597 57.9487C59.9633 59.5271 59.095 60.9471 57.8706 62.0191" stroke="#8E35FF" stroke-width="1.5" stroke-linecap="round" stroke-linejoin="round"/>
<path d="M45.6006 64.0002C45.6006 64.5307 45.8113 65.0394 46.1864 65.4145C46.5614 65.7895 47.0702 66.0002 47.6006 66.0002H57.6006C58.131 66.0002 58.6397 65.7895 59.0148 65.4145C59.3899 65.0394 59.6006 64.5307 59.6006 64.0002C59.6006 63.4698 59.3899 62.9611 59.0148 62.586C58.6397 62.211 58.131 62.0002 57.6006 62.0002H47.6006C47.0702 62.0002 46.5614 62.211 46.1864 62.586C45.8113 62.9611 45.6006 63.4698 45.6006 64.0002Z" stroke="#8E35FF" stroke-width="1.5" stroke-linecap="round" stroke-linejoin="round"/>
<path d="M51.6006 52.0002C50.8049 52.0002 50.0419 52.3163 49.4793 52.8789C48.9167 53.4415 48.6006 54.2046 48.6006 55.0002" stroke="#8E35FF" stroke-width="1.5" stroke-linecap="round" stroke-linejoin="round"/>
</g>
<defs>
<filter id="filter0_d_1_6377" x="0.459961" y="0.119141" width="112.281" height="121.762" filterUnits="userSpaceOnUse" color-interpolation-filters="sRGB">
<feFlood flood-opacity="0" result="BackgroundImageFix"/>
<feColorMatrix in="SourceAlpha" type="matrix" values="0 0 0 0 0 0 0 0 0 0 0 0 0 0 0 0 0 0 127 0" result="hardAlpha"/>
<feOffset dx="4" dy="4"/>
<feGaussianBlur stdDeviation="10.25"/>
<feComposite in2="hardAlpha" operator="out"/>
<feColorMatrix type="matrix" values="0 0 0 0 0 0 0 0 0 0 0 0 0 0 0 0 0 0 0.05 0"/>
<feBlend mode="normal" in2="BackgroundImageFix" result="effect1_dropShadow_1_6377"/>
<feBlend mode="normal" in="SourceGraphic" in2="effect1_dropShadow_1_6377" result="shape"/>
</filter>
<radialGradient id="paint0_angular_1_6377" cx="0" cy="0" r="1" gradientUnits="userSpaceOnUse" gradientTransform="translate(52.6006 57.0002) rotate(90) scale(50 50)">
<stop stop-color="#8E36FE"/>
<stop offset="1" stop-color="#8E36FE" stop-opacity="0.4"/>
</radialGradient>
<clipPath id="clip0_1_6377">
<rect width="24" height="24" fill="white" transform="translate(40.6006 45.0002)"/>
</clipPath>
</defs>
</svg>
