<svg width="114" height="122" viewBox="0 0 114 122" fill="none" xmlns="http://www.w3.org/2000/svg">
<path d="M50 11.0415C51.8564 9.96965 54.1436 9.96965 56 11.0415L91.3013 31.4226C93.1577 32.4944 94.3013 34.4752 94.3013 36.6188V77.3812C94.3013 79.5248 93.1577 81.5056 91.3013 82.5774L56 102.959C54.1436 104.03 51.8564 104.03 50 102.959L14.6987 82.5774C12.8423 81.5056 11.6987 79.5248 11.6987 77.3812V36.6188C11.6987 34.4752 12.8423 32.4944 14.6987 31.4226L50 11.0415Z" fill="url(#paint0_angular_1_3998)" stroke="#17BAE6" stroke-width="4"/>
<g filter="url(#filter0_d_1_3998)">
<path d="M51 18.1547C52.2376 17.4402 53.7624 17.4402 55 18.1547L85.641 35.8453C86.8786 36.5598 87.641 37.8803 87.641 39.3094V74.6906C87.641 76.1197 86.8786 77.4402 85.641 78.1547L55 95.8453C53.7624 96.5598 52.2376 96.5598 51 95.8453L20.359 78.1547C19.1214 77.4402 18.359 76.1197 18.359 74.6906V39.3094C18.359 37.8803 19.1214 36.5598 20.359 35.8453L51 18.1547Z" fill="white" fill-opacity="0.5" shape-rendering="crispEdges"/>
<path d="M55.25 17.7217C53.8577 16.9178 52.1423 16.9178 50.75 17.7217L20.109 35.4123C18.7167 36.2161 17.859 37.7017 17.859 39.3094V74.6906C17.859 76.2983 18.7167 77.7839 20.109 78.5877L50.75 96.2783C52.1423 97.0822 53.8577 97.0822 55.25 96.2783L85.891 78.5877C87.2833 77.7839 88.141 76.2983 88.141 74.6906V39.3094C88.141 37.7017 87.2833 36.2161 85.891 35.4123L55.25 17.7217Z" stroke="white" style="mix-blend-mode:overlay" shape-rendering="crispEdges"/>
</g>
<g style="mix-blend-mode:multiply">
<path fill-rule="evenodd" clip-rule="evenodd" d="M50 47.25C50.199 47.25 50.3897 47.329 50.5304 47.4697C50.671 47.6103 50.75 47.8011 50.75 48V49.506C52.5364 49.5329 54.3201 49.6568 56.093 49.877C56.1908 49.8892 56.2852 49.9206 56.3709 49.9693C56.4565 50.018 56.5317 50.0831 56.5922 50.1608C56.6527 50.2386 56.6973 50.3275 56.7235 50.4225C56.7496 50.5175 56.7568 50.6167 56.7445 50.7145C56.7323 50.8123 56.701 50.9067 56.6523 50.9923C56.6036 51.078 56.5385 51.1532 56.4607 51.2137C56.383 51.2742 56.294 51.3188 56.199 51.3449C56.104 51.371 56.0048 51.3782 55.907 51.366C55.247 51.283 54.584 51.215 53.917 51.16C53.3337 53.4358 52.3261 55.581 50.947 57.483C51.265 57.867 51.597 58.236 51.947 58.59C52.0865 58.7319 52.164 58.9234 52.1623 59.1224C52.1606 59.3213 52.0799 59.5115 51.938 59.651C51.7962 59.7905 51.6047 59.8679 51.4057 59.8662C51.2067 59.8646 51.0165 59.7839 50.877 59.642C50.5739 59.3338 50.2814 59.0153 50 58.687C48.4214 60.5318 46.5008 62.0538 44.344 63.169C44.1673 63.2602 43.9615 63.2775 43.772 63.217C43.5825 63.1566 43.4248 63.0233 43.3335 62.8465C43.2423 62.6697 43.225 62.464 43.2855 62.2745C43.346 62.085 43.4793 61.9272 43.656 61.836C45.7297 60.7634 47.5651 59.2828 49.052 57.483C48.1796 56.2785 47.4538 54.9743 46.89 53.598C46.8192 53.4148 46.823 53.2111 46.9006 53.0307C46.9783 52.8503 47.1237 52.7076 47.3055 52.6332C47.4872 52.5588 47.6909 52.5587 47.8728 52.6329C48.0547 52.7071 48.2002 52.8497 48.278 53.03C48.7379 54.1524 49.3151 55.223 50 56.224C51.0789 54.6474 51.887 52.9017 52.391 51.059C49.6214 50.9216 46.845 51.0244 44.093 51.366C43.8956 51.3907 43.6964 51.3359 43.5394 51.2137C43.3823 51.0915 43.2802 50.912 43.2555 50.7145C43.2309 50.517 43.2857 50.3179 43.4078 50.1608C43.53 50.0038 43.7096 49.9017 43.907 49.877C45.68 49.6563 47.4636 49.5325 49.25 49.506V48C49.25 47.8011 49.3291 47.6103 49.4697 47.4697C49.6104 47.329 49.8011 47.25 50 47.25ZM56.75 54C56.8929 53.9999 57.0327 54.0407 57.1532 54.1174C57.2736 54.1941 57.3697 54.3036 57.43 54.433L62.68 65.683C62.7217 65.7723 62.7453 65.8689 62.7496 65.9674C62.7539 66.0658 62.7387 66.1641 62.705 66.2567C62.6713 66.3493 62.6197 66.4343 62.5531 66.5069C62.4866 66.5796 62.4063 66.6384 62.317 66.68C62.1367 66.7641 61.9303 66.7731 61.7434 66.705C61.5564 66.6369 61.4041 66.4973 61.32 66.317L60.122 63.75H53.378L52.18 66.317C52.096 66.4973 51.9437 66.6369 51.7567 66.705C51.5698 66.7731 51.3634 66.7641 51.183 66.68C51.0027 66.5959 50.8631 66.4437 50.7951 66.2567C50.727 66.0697 50.736 65.8633 50.82 65.683L56.07 54.433C56.1304 54.3036 56.2265 54.1941 56.3469 54.1174C56.4674 54.0407 56.6072 53.9999 56.75 54ZM54.078 62.25H59.422L56.75 56.524L54.078 62.25Z" fill="#17BAE6"/>
</g>
<defs>
<filter id="filter0_d_1_3998" x="0.859009" y="0.119141" width="112.282" height="121.762" filterUnits="userSpaceOnUse" color-interpolation-filters="sRGB">
<feFlood flood-opacity="0" result="BackgroundImageFix"/>
<feColorMatrix in="SourceAlpha" type="matrix" values="0 0 0 0 0 0 0 0 0 0 0 0 0 0 0 0 0 0 127 0" result="hardAlpha"/>
<feOffset dx="4" dy="4"/>
<feGaussianBlur stdDeviation="10.25"/>
<feComposite in2="hardAlpha" operator="out"/>
<feColorMatrix type="matrix" values="0 0 0 0 0 0 0 0 0 0 0 0 0 0 0 0 0 0 0.05 0"/>
<feBlend mode="normal" in2="BackgroundImageFix" result="effect1_dropShadow_1_3998"/>
<feBlend mode="normal" in="SourceGraphic" in2="effect1_dropShadow_1_3998" result="shape"/>
</filter>
<radialGradient id="paint0_angular_1_3998" cx="0" cy="0" r="1" gradientUnits="userSpaceOnUse" gradientTransform="translate(53 57) rotate(90) scale(50 50)">
<stop stop-color="#17BAE6"/>
<stop offset="1" stop-color="#17BAE6" stop-opacity="0.4"/>
</radialGradient>
</defs>
</svg>
