<svg width="320" height="320" viewBox="0 0 320 320" fill="none" xmlns="http://www.w3.org/2000/svg">
<path d="M150 5.7735C156.188 2.20084 163.812 2.20085 170 5.7735L288.564 74.2265C294.752 77.7991 298.564 84.4017 298.564 91.547V228.453C298.564 235.598 294.752 242.201 288.564 245.773L170 314.227C163.812 317.799 156.188 317.799 150 314.227L31.4359 245.773C25.2479 242.201 21.4359 235.598 21.4359 228.453V91.547C21.4359 84.4017 25.2479 77.7992 31.4359 74.2265L150 5.7735Z" fill="#8E35FF"/>
<path d="M147.876 153.484L152.581 149.967H136.822V171.036H152.581V167.516H141.324V162.139H150.946V158.622H141.324V153.484H147.876Z" fill="white"/>
<path d="M124.916 158.172H119.457V153.484H128.191L132.899 149.967H114.955V171.036H124.335C129.59 171.036 132.625 168.621 132.625 164.414C132.625 160.38 129.896 158.172 124.916 158.172ZM124.165 167.516H119.457V161.689H124.165C127.031 161.689 128.36 162.656 128.36 164.622C128.36 166.587 126.929 167.516 124.165 167.516Z" fill="white"/>
<path d="M165.34 149.967H156.779V171.036H161.28V165.069H165.376C170.832 165.069 174.244 162.174 174.244 157.518C174.244 152.861 170.832 149.967 165.34 149.967ZM165.238 161.552H161.248V153.484H165.238C168.139 153.484 169.707 154.932 169.707 157.518C169.707 160.103 168.139 161.552 165.238 161.552Z" fill="white"/>
<path d="M107.244 166.482C106.052 167.14 104.72 167.484 103.356 167.484C99.2955 167.484 96.3628 164.551 96.3628 160.518C96.3628 156.484 99.2955 153.551 103.356 153.551C104.822 153.519 106.256 154.001 107.448 154.862L110.691 152.45L110.486 152.242C108.611 150.551 106.084 149.689 103.219 149.689C100.116 149.689 97.2829 150.758 95.2382 152.689C93.1906 154.69 92.0309 157.483 92.0981 160.38C92.063 163.31 93.1906 166.138 95.2382 168.206C97.3852 170.242 100.251 171.381 103.186 171.311C106.426 171.311 109.256 170.172 111.167 168.103L108.269 165.93L107.244 166.482Z" fill="white"/>
<path d="M228.383 150.002V171.068H232.884V162.448H242.471V171.068H246.975V150.002H242.471V158.657H232.884V150.002H228.383ZM220.639 171.068H225.38L216.579 150.002H212.007L203.037 171.068H207.573L209.381 166.827H218.933L220.639 171.068ZM210.745 163.31L214.224 154.862L217.499 163.31H210.745ZM257.073 162.553H259.869L266.759 171.036H272.558L263.347 160.138L271.398 149.967H266.248L259.562 159.002H257.073V149.967H252.569V171.036H257.073V162.553ZM188.163 158.207V153.519H199.932V150.002H183.658V171.068H193.041C198.293 171.068 201.331 168.656 201.331 164.449C201.331 160.415 198.602 158.207 193.619 158.207H188.163ZM188.163 161.724H192.871C195.734 161.724 197.066 162.691 197.066 164.657C197.066 166.623 195.667 167.586 192.871 167.586H188.163V161.724Z" fill="white"/>
<path d="M78.0099 149.829C78.8278 150.899 79.5113 152.07 80.0896 153.311L64.3306 165.069L57.7115 160.862V155.829L64.2955 160.001L78.0099 149.829Z" fill="white"/>
<path d="M50.9902 160.518C50.9902 160.275 50.9902 160.071 51.0252 159.828L47.0351 159.621C47.0351 159.898 47 160.208 47 160.482C47 165.311 48.9454 169.69 52.0826 172.862L54.9131 169.999C52.4916 167.586 50.9902 164.242 50.9902 160.518Z" fill="white"/>
<path d="M64.2955 147.069C64.5351 147.069 64.7395 147.069 64.9791 147.104L65.1835 143.07C64.909 143.07 64.6022 143.035 64.3306 143.035C59.5547 143.035 55.2228 145.001 52.0826 148.173L54.9131 151.036C57.3025 148.588 60.6442 147.069 64.2955 147.069Z" fill="white"/>
<path d="M64.2955 173.966C64.056 173.966 63.8515 173.966 63.612 173.931L63.4075 177.965C63.6821 177.965 63.9888 178 64.2605 178C69.0364 178 73.3712 176.034 76.5084 172.862L73.6779 169.999C71.2885 172.482 67.979 173.966 64.2955 173.966Z" fill="white"/>
<path d="M71.7997 149.415L75.1764 146.897C72.2087 144.484 68.423 143 64.2955 143V147.034C67.0939 147.069 69.6849 147.931 71.7997 149.415Z" fill="white"/>
<path d="M81.6261 160.518C81.6261 159.448 81.5239 158.414 81.3515 157.38L77.633 160.173C77.633 160.275 77.633 160.415 77.633 160.518C77.633 164.484 75.9271 168.036 73.2339 170.484L75.9272 173.484C79.409 170.312 81.6261 165.656 81.6261 160.518Z" fill="white"/>
<path d="M64.2955 173.966C60.3726 173.966 56.8585 172.243 54.437 169.517L51.4692 172.243C54.6415 175.795 59.2129 178 64.2955 178L64.2955 173.966Z" fill="white"/>
<path d="M55.3922 150.551L52.696 147.551C49.182 150.758 47 155.379 47 160.518L50.9902 160.518C50.9902 156.586 52.696 153.002 55.3922 150.551Z" fill="white"/>
</svg>
