<svg width="320" height="320" viewBox="0 0 320 320" fill="none" xmlns="http://www.w3.org/2000/svg">
<path d="M146 8.0829C154.663 3.08118 165.337 3.08118 174 8.0829L284.564 71.9171C293.227 76.9188 298.564 86.1624 298.564 96.1658V223.834C298.564 233.838 293.227 243.081 284.564 248.083L174 311.917C165.337 316.919 154.663 316.919 146 311.917L35.4359 248.083C26.7727 243.081 21.4359 233.838 21.4359 223.834V96.1658C21.4359 86.1624 26.7727 76.9188 35.4359 71.9171L146 8.0829Z" fill="#F36DFF"/>
<path fill-rule="evenodd" clip-rule="evenodd" d="M95.0833 168.512C95.0833 174.794 90.0803 179.35 82.1333 179.35C77.5252 179.222 73.1583 177.262 70 173.905L72.6578 170.965C75.1454 173.334 78.0724 175.636 82.0807 175.636C86.533 175.636 91.3334 173.139 91.3334 168.656C91.3334 164.932 88.3739 162.503 82.1549 160.588C75.068 158.422 71.4681 155.483 71.4681 149.957C71.4681 144.488 76.0968 140 82.6918 140C87.6175 140 90.6992 142.099 93.6988 144.782L91.0859 147.683C88.4559 145.353 85.9498 143.773 82.8743 143.773C79.0594 143.773 75.2939 146.233 75.2939 149.774C75.2939 152.983 77.1379 155.026 83.6478 157.019C89.6101 158.855 95.0833 161.702 95.0833 168.512ZM127.251 143.623C127.251 145.346 128.647 146.743 130.37 146.743C131.197 146.743 131.99 146.415 132.575 145.83C133.16 145.245 133.489 144.451 133.488 143.623C133.488 141.9 132.092 140.504 130.37 140.504C128.647 140.504 127.251 141.9 127.251 143.623ZM157.432 141.143H153.672V178.734H157.432V141.143ZM166.205 177.483C166.205 177.483 168.52 179.362 176.23 179.362L176.225 179.361C183.837 179.361 190.014 173.794 190.014 166.189C190.014 158.584 183.841 153.04 176.23 153.04C174.071 152.982 171.927 153.42 169.964 154.321V141.143H166.205V177.483ZM194.403 166.222C194.402 173.831 200.57 179.999 208.179 180C215.788 180 221.957 173.832 221.958 166.223C221.958 158.615 215.79 152.447 208.181 152.447C200.572 152.446 194.403 158.614 194.403 166.222ZM244.754 178.745H249.661L238.812 165.823L248.929 153.704H244.05L236.366 162.909L228.643 153.704H223.736L233.926 165.84L223.153 178.745H228.031L236.371 168.755L244.754 178.745ZM208.203 156.166C204.145 156.166 200.486 158.61 198.933 162.359C197.379 166.108 198.238 170.423 201.107 173.293C203.976 176.162 208.292 177.02 212.041 175.467C215.79 173.914 218.234 170.255 218.234 166.197C218.233 160.658 213.742 156.167 208.203 156.166ZM176.229 156.807C173.984 156.838 171.801 157.546 169.964 158.837V174.352C171.911 175.298 174.068 175.73 176.229 175.605C181.765 175.605 186.254 171.737 186.254 166.206C186.254 160.675 181.76 156.805 176.225 156.805L176.229 156.807ZM141.143 141.143H144.902V178.734H141.143V141.143ZM117.958 178.737L104.808 165.587L116.712 153.675H122.028L110.124 165.587L123.273 178.737H117.958ZM101.037 141.143V178.734H104.796V141.143H101.037ZM128.622 178.737H132.381V153.675H128.622V178.737Z" fill="white"/>
</svg>
