<svg width="320" height="320" viewBox="0 0 320 320" fill="none" xmlns="http://www.w3.org/2000/svg">
<path d="M150 5.7735C156.188 2.20084 163.812 2.20085 170 5.7735L288.564 74.2265C294.752 77.7991 298.564 84.4017 298.564 91.547V228.453C298.564 235.598 294.752 242.201 288.564 245.773L170 314.227C163.812 317.799 156.188 317.799 150 314.227L31.4359 245.773C25.2479 242.201 21.4359 235.598 21.4359 228.453V91.547C21.4359 84.4017 25.2479 77.7992 31.4359 74.2265L150 5.7735Z" fill="#10C38D"/>
<path d="M197.429 173.438C195.621 171.268 193.567 169.323 191.58 167.442C190.873 166.773 190.143 166.081 189.438 165.393C187.417 163.416 187.343 162.674 188.944 160.429C190.051 158.881 191.225 157.331 192.361 155.832C193.391 154.473 194.456 153.067 195.477 151.656L195.686 151.366C197.637 148.666 199.655 145.875 200.729 142.507C201.008 141.619 201.301 140.311 200.631 139.218C199.962 138.126 198.664 137.792 197.746 137.637C197.292 137.56 196.841 137.549 196.423 137.549L183.645 137.54L183.54 137.539C181.608 137.539 180.306 138.45 179.56 140.323C178.848 142.112 178.065 144.018 177.172 145.83C175.396 149.439 173.139 153.595 169.874 157.061L169.736 157.208C169.351 157.623 168.914 158.092 168.595 158.092C168.546 158.092 168.492 158.083 168.432 158.064C167.756 157.8 167.302 156.163 167.322 155.401C167.323 155.391 167.323 155.38 167.323 155.37L167.314 140.602C167.314 140.551 167.31 140.5 167.304 140.449C166.979 138.049 166.259 136.554 163.538 136.021C163.466 136.007 163.392 136 163.318 136H150.033C147.868 136 146.675 136.88 145.554 138.197C145.252 138.549 144.622 139.281 144.934 140.17C145.251 141.072 146.279 141.265 146.614 141.328C148.276 141.644 149.213 142.661 149.478 144.437C149.942 147.522 149.999 150.815 149.658 154.799C149.562 155.907 149.374 156.762 149.064 157.493C148.992 157.663 148.737 158.22 148.477 158.22C148.394 158.22 148.155 158.188 147.719 157.887C146.688 157.181 145.934 156.174 145.055 154.929C142.064 150.703 139.555 146.047 137.381 140.692C136.575 138.721 135.069 137.617 133.14 137.585C131.019 137.553 129.097 137.537 127.264 137.537C125.261 137.537 123.403 137.556 121.59 137.593C120.037 137.621 118.964 138.086 118.399 138.978C117.833 139.87 117.869 141.042 118.508 142.46C123.62 153.825 128.255 162.089 133.538 169.255C137.239 174.269 140.951 177.74 145.22 180.177C149.717 182.749 154.756 184 160.626 184C161.291 184 161.979 183.984 162.673 183.951C166.083 183.785 167.349 182.551 167.509 179.23C167.585 177.533 167.771 175.753 168.605 174.235C169.131 173.278 169.622 173.279 169.784 173.279C170.095 173.279 170.48 173.422 170.894 173.69C171.636 174.174 172.273 174.823 172.795 175.39C173.286 175.929 173.772 176.473 174.258 177.018C175.307 178.193 176.392 179.408 177.525 180.56C180.005 183.084 182.738 184.194 185.876 183.953H197.591C197.616 183.953 197.641 183.952 197.666 183.95C198.833 183.873 199.844 183.226 200.44 182.174C201.177 180.871 201.162 179.208 200.4 177.726C199.535 176.049 198.413 174.617 197.429 173.438Z" fill="white"/>
</svg>
