<svg width="320" height="320" viewBox="0 0 320 320" fill="none" xmlns="http://www.w3.org/2000/svg">
<path d="M150 5.7735C156.188 2.20084 163.812 2.20085 170 5.7735L288.564 74.2265C294.752 77.7991 298.564 84.4017 298.564 91.547V228.453C298.564 235.598 294.752 242.201 288.564 245.773L170 314.227C163.812 317.799 156.188 317.799 150 314.227L31.4359 245.773C25.2479 242.201 21.4359 235.598 21.4359 228.453V91.547C21.4359 84.4017 25.2479 77.7992 31.4359 74.2265L150 5.7735Z" fill="#FAC602"/>
<path d="M99.748 188V170.042L112.93 132H107.335L97.0399 162.385L88.11 137.262H82L94.1304 169.841V188H99.748Z" fill="white"/>
<path d="M127.634 178.103C126.627 179.648 124.725 180.924 122.8 180.924C119.958 180.924 118.615 178.238 118.615 174.118C118.615 169.505 120.114 166.46 126.985 166.46H127.634V178.103ZM133.095 177.028V160.213C133.095 151.547 129.604 148.86 123.293 148.86C119.689 148.86 116.422 150.338 114.788 151.682L115.84 156.585C117.697 154.951 120.114 153.473 122.934 153.473C126.068 153.473 127.634 155.443 127.634 160.146V162.273H126.851C116.847 162.273 112.93 167.087 112.93 174.767C112.93 181.798 116.422 185.627 121.524 185.627C124.658 185.627 126.627 184.261 128.194 182.29H128.552C128.619 183.208 128.843 184.35 129.044 185.112H133.722C133.453 183.41 133.095 180.432 133.095 177.028ZM145.517 157.369C146.792 155.6 148.762 153.831 151.112 153.831C153.238 153.831 154.447 154.749 154.447 157.436V185.112H160.042V156.944C160.042 151.48 157.558 148.86 152.88 148.86C149.545 148.86 146.86 151.055 145.852 152.398H145.517V149.286H139.966V185.112H145.517V157.369ZM176.357 185.627C179.267 185.627 181.259 184.261 182.825 182.29H183.184L183.609 185.112H187.727V134.373H182.176V150.204C181.124 149.42 179.356 148.86 177.655 148.86C170.471 148.86 165.503 155.309 165.503 168.587C165.503 179.648 169.352 185.627 176.357 185.627ZM182.176 178.17C181.259 179.581 179.782 180.924 177.006 180.924C172.955 180.924 171.411 175.819 171.411 167.445C171.411 160.146 173.537 153.406 177.991 153.406C179.849 153.406 181.057 153.966 182.176 155.108V178.17ZM213.756 182.716L212.48 178.461C211.07 179.447 208.787 180.857 205.676 180.857C201.267 180.857 199.007 176.603 199.007 168.52H213.89V165.452C213.89 153.316 209.996 148.86 204.042 148.86C196.455 148.86 193.255 157.235 193.255 168.721C193.255 179.738 197.798 185.627 205.161 185.627C208.72 185.627 211.495 184.485 213.756 182.716ZM204.042 153.406C207.22 153.406 208.228 157.862 208.228 163.974H199.074C199.432 157.593 200.641 153.406 204.042 153.406ZM232.555 149.353L227.654 162.34L223.044 149.353H217.314L224.051 166.594L216.598 185.112H222.059L227.453 170.356L232.981 185.112H238.733L231.28 166.102L237.949 149.353H232.555Z" fill="white"/>
</svg>
